<svg width="904" height="739" viewBox="0 0 904 739" fill="none" xmlns="http://www.w3.org/2000/svg">
<path d="M485 29.0701C485 29.0701 610 -40.1499 675.09 47.3401C740.18 134.83 642.85 203.16 728.36 254.64C813.87 306.12 747.83 404.91 825.36 437.73C902.89 470.55 879.87 612.36 789 645.08" stroke="#D7C8EA" stroke-width="5.14" stroke-miterlimit="10"/>
<path d="M128.181 544.65C127.941 545.65 127.741 546.57 127.571 547.56C127.161 549.62 126.781 551.71 126.511 553.83C120.511 598.06 139.931 642.42 167.131 676.37" stroke="#D7C8EA" stroke-width="5.14" stroke-miterlimit="10"/>
<path d="M562.771 38.21H182.761C136.164 38.21 98.3906 75.984 98.3906 122.58V480.33C98.3906 526.926 136.164 564.7 182.761 564.7H562.771C609.367 564.7 647.141 526.926 647.141 480.33V122.58C647.141 75.984 609.367 38.21 562.771 38.21Z" fill="#9E7ACD"/>
<path d="M557.179 30.52H180.349C130.66 30.52 90.3789 70.8 90.3789 120.49V474.729C90.3789 524.419 130.66 564.7 180.349 564.7H557.179C606.868 564.7 647.149 524.419 647.149 474.729V120.49C647.149 70.8 606.868 30.52 557.179 30.52Z" stroke="#333333" stroke-width="5.14" stroke-miterlimit="10"/>
<path d="M551.98 48.5601H193.55C146.953 48.5601 109.18 86.3331 109.18 132.93V469.97C109.18 516.566 146.953 554.34 193.55 554.34H551.98C598.576 554.34 636.35 516.566 636.35 469.97V132.93C636.35 86.3331 598.576 48.5601 551.98 48.5601Z" fill="#9E7ACD"/>
<path d="M574.07 75.1099H463.69C448.69 75.1099 436.5 88.2099 436.5 104.34V399.21C436.5 415.37 448.69 428.48 463.69 428.48H574.07C589.07 428.48 601.31 415.37 601.31 399.21V104.34C601.31 88.2099 589.11 75.1099 574.07 75.1099ZM588.46 391C588.46 404.48 578.32 415.37 565.78 415.37H472C459.46 415.37 449.32 404.48 449.32 391V112.62C449.32 99.1499 459.46 88.2499 472 88.2499H565.76C578.3 88.2499 588.44 99.1499 588.44 112.62L588.46 391Z" fill="#BCA3DC"/>
<path d="M325.25 447.33L163.48 445C161.74 444.971 160.081 444.252 158.87 443.001C157.659 441.751 156.994 440.071 157.02 438.33C157.02 437.73 157.107 437.134 157.28 436.56C157.694 435.19 158.542 433.991 159.697 433.146C160.851 432.3 162.249 431.852 163.68 431.87L325.45 434.25C324.222 436.121 323.531 438.293 323.45 440.53C323.385 442.922 324.01 445.283 325.25 447.33Z" fill="#9E7ACD"/>
<path d="M364.461 443.09C364.048 444.461 363.203 445.662 362.051 446.513C360.899 447.364 359.503 447.819 358.071 447.81L346.391 447.64C347.641 445.686 348.322 443.422 348.357 441.103C348.392 438.784 347.781 436.501 346.591 434.51L358.271 434.68C360.011 434.711 361.669 435.431 362.881 436.68C364.094 437.93 364.762 439.609 364.741 441.35C364.733 441.94 364.639 442.527 364.461 443.09Z" fill="#BCA3DC"/>
<path d="M364.08 469.14C363.669 470.508 362.825 471.706 361.674 472.552C360.523 473.398 359.128 473.846 357.7 473.83L196.93 471.48C198.715 469.368 199.73 466.713 199.81 463.95C199.886 462.034 199.506 460.129 198.7 458.39L357.88 460.69C359.619 460.724 361.274 461.444 362.484 462.694C363.694 463.943 364.361 465.62 364.34 467.36C364.34 467.962 364.253 468.562 364.08 469.14Z" fill="#BCA3DC"/>
<path d="M177.601 471.19L163.111 471C161.373 470.976 159.715 470.263 158.502 469.018C157.289 467.773 156.62 466.098 156.641 464.36C156.644 463.75 156.735 463.144 156.911 462.56C157.316 461.192 158.158 459.994 159.308 459.15C160.459 458.307 161.855 457.864 163.281 457.89L176.191 458.1C175.447 459.666 175.025 461.367 174.951 463.1C174.84 466.026 175.78 468.896 177.601 471.19Z" fill="#9E7ACD"/>
<path d="M313.798 499.52L163.698 497.34C161.962 497.298 160.311 496.575 159.103 495.328C157.894 494.08 157.225 492.407 157.238 490.67C157.246 490.079 157.34 489.493 157.518 488.93C157.93 487.558 158.775 486.356 159.927 485.505C161.079 484.654 162.476 484.2 163.908 484.21L313.778 486.42C312.552 488.385 311.902 490.654 311.902 492.97C311.902 495.286 312.552 497.556 313.778 499.52H313.798Z" fill="#9E7ACD"/>
<path d="M364.711 495.49C364.3 496.863 363.452 498.064 362.294 498.909C361.136 499.754 359.734 500.197 358.301 500.17L334.771 499.81L313.771 499.52C312.545 497.555 311.895 495.286 311.895 492.97C311.895 490.654 312.545 488.385 313.771 486.42L335.131 486.74L358.491 487.07C360.226 487.099 361.88 487.813 363.09 489.058C364.301 490.302 364.97 491.974 364.951 493.71C364.963 494.312 364.882 494.912 364.711 495.49Z" fill="#BCA3DC"/>
<path d="M346.39 447.64C344.921 449.941 342.736 451.695 340.172 452.631C337.608 453.567 334.807 453.633 332.201 452.818C329.596 452.003 327.331 450.354 325.756 448.124C324.182 445.894 323.385 443.208 323.49 440.48C323.545 438.846 323.922 437.24 324.599 435.752C325.276 434.265 326.24 432.925 327.436 431.81C328.631 430.696 330.035 429.828 331.566 429.256C333.097 428.685 334.726 428.421 336.36 428.48C337.994 428.533 339.602 428.908 341.09 429.584C342.579 430.26 343.92 431.224 345.035 432.42C346.15 433.616 347.018 435.021 347.588 436.553C348.159 438.086 348.421 439.716 348.36 441.35C348.275 443.585 347.595 445.756 346.39 447.64Z" fill="white"/>
<g opacity="0.72">
<path opacity="0.72" d="M341.7 440C341.427 441.496 340.733 442.884 339.7 444C339.2 444.567 338.647 445.086 338.05 445.55C337.73 445.78 336.05 447.15 335.69 446.98C333.45 445.85 330.61 442.98 330.26 440.21C330.205 439.775 330.205 439.335 330.26 438.9C330.385 438.141 330.782 437.453 331.376 436.964C331.97 436.474 332.721 436.217 333.49 436.24C333.987 436.263 334.472 436.401 334.907 436.642C335.343 436.883 335.716 437.221 336 437.63C336.438 437.083 337.042 436.694 337.72 436.522C338.399 436.349 339.115 436.403 339.761 436.674C340.407 436.945 340.946 437.42 341.298 438.025C341.649 438.631 341.794 439.334 341.71 440.03L341.7 440Z" fill="white"/>
</g>
<path d="M196.931 471.48C195.744 472.902 194.253 474.041 192.569 474.813C190.885 475.586 189.05 475.972 187.197 475.944C185.345 475.916 183.522 475.475 181.862 474.653C180.201 473.83 178.746 472.647 177.601 471.19C175.773 468.889 174.833 466.007 174.951 463.07C175.025 461.337 175.447 459.637 176.191 458.07C177.245 455.906 178.903 454.093 180.965 452.85C183.027 451.608 185.405 450.99 187.811 451.07C190.129 451.14 192.38 451.864 194.305 453.157C196.23 454.45 197.751 456.261 198.691 458.38C199.498 460.119 199.878 462.025 199.801 463.94C199.727 466.706 198.715 469.365 196.931 471.48Z" fill="white"/>
<g opacity="0.72">
<path opacity="0.72" d="M193.169 462.61C192.896 464.106 192.202 465.494 191.169 466.61C190.67 467.182 190.114 467.701 189.509 468.16C189.189 468.39 187.509 469.77 187.159 469.59C184.909 468.46 182.079 465.59 181.729 462.82C181.674 462.385 181.674 461.945 181.729 461.51C181.856 460.752 182.253 460.065 182.847 459.576C183.44 459.087 184.19 458.829 184.959 458.85C185.456 458.873 185.941 459.011 186.376 459.252C186.811 459.493 187.185 459.831 187.469 460.24C187.907 459.692 188.512 459.302 189.192 459.13C189.872 458.957 190.589 459.011 191.236 459.284C191.882 459.557 192.421 460.033 192.772 460.641C193.123 461.248 193.266 461.954 193.179 462.65L193.169 462.61Z" fill="white"/>
</g>
<path d="M334.77 499.81C333.275 502.073 331.083 503.786 328.525 504.69C325.968 505.593 323.186 505.638 320.601 504.817C318.016 503.995 315.77 502.353 314.203 500.139C312.636 497.925 311.835 495.261 311.92 492.55C312.004 490.381 312.644 488.27 313.78 486.42C314.919 484.598 316.508 483.101 318.395 482.073C320.282 481.046 322.402 480.523 324.55 480.555C326.699 480.587 328.802 481.174 330.657 482.257C332.513 483.341 334.057 484.885 335.14 486.74C336.33 488.766 336.913 491.092 336.82 493.44C336.733 495.711 336.024 497.914 334.77 499.81Z" fill="white"/>
<g opacity="0.72">
<path opacity="0.72" d="M330.161 492.09C329.892 493.588 329.197 494.976 328.161 496.09C327.66 496.66 327.104 497.179 326.501 497.64C326.181 497.88 324.501 499.25 324.151 499.07C321.901 497.94 319.071 495.07 318.721 492.3C318.661 491.865 318.661 491.425 318.721 490.99C318.819 490.364 319.105 489.783 319.539 489.321C319.973 488.86 320.537 488.541 321.156 488.405C321.775 488.268 322.42 488.322 323.008 488.559C323.596 488.795 324.098 489.203 324.451 489.73C324.891 489.186 325.495 488.8 326.173 488.629C326.851 488.459 327.567 488.513 328.211 488.783C328.856 489.054 329.396 489.526 329.749 490.13C330.103 490.733 330.25 491.435 330.171 492.13L330.161 492.09Z" fill="white"/>
</g>
<path d="M155.781 106.12L156.061 144.47C156.13 151.156 158.782 157.556 163.462 162.331C168.142 167.106 174.488 169.886 181.171 170.09L219.171 170.75C222.43 170.792 225.665 170.18 228.684 168.95C231.703 167.721 234.444 165.898 236.747 163.591C239.05 161.284 240.867 158.538 242.09 155.517C243.314 152.495 243.919 149.259 243.871 146L243.581 107.66C243.522 100.967 240.874 94.5571 236.193 89.7731C231.512 84.9901 225.161 82.2041 218.471 82.0001L180.471 81.33C177.209 81.289 173.972 81.904 170.951 83.136C167.931 84.369 165.188 86.1951 162.886 88.5071C160.584 90.8181 158.769 93.568 157.549 96.593C156.328 99.619 155.727 102.858 155.781 106.12Z" fill="white"/>
<path d="M161.621 115.74L161.821 143.5C161.883 149.309 164.188 154.869 168.255 159.018C172.321 163.166 177.834 165.582 183.641 165.76L216.641 166.33C219.475 166.372 222.288 165.844 224.914 164.779C227.54 163.714 229.926 162.133 231.93 160.129C233.934 158.125 235.515 155.739 236.58 153.113C237.646 150.487 238.173 147.673 238.131 144.84V142.96C233.501 133.49 224.481 119.32 214.861 127.79C200.991 139.98 194.641 130.7 186.561 118.74C179.751 108.73 169.491 101.42 161.621 115.74Z" fill="#9E7ACD"/>
<path d="M223.647 111.915C227.834 109.133 228.913 103.396 226.058 99.0989C223.204 94.8029 217.496 93.5749 213.31 96.3559C209.124 99.1369 208.045 104.875 210.899 109.171C213.754 113.468 219.461 114.696 223.647 111.915Z" fill="#9E7ACD"/>
<path d="M366.39 157.73C360.456 157.725 354.666 159.557 349.816 162.976C344.966 166.394 341.294 171.231 339.305 176.821C337.315 182.411 337.106 188.48 338.706 194.194C340.306 199.908 343.636 204.986 348.24 208.73L282.9 325.93C282.436 325.858 281.968 325.811 281.5 325.79C280.3 325.808 279.108 325.993 277.96 326.34L229 265.54C231.166 262.521 232.385 258.925 232.502 255.211C232.619 251.496 231.628 247.831 229.656 244.681C227.683 241.532 224.819 239.04 221.426 237.523C218.034 236.006 214.266 235.533 210.604 236.163C206.942 236.794 203.549 238.499 200.859 241.063C198.169 243.627 196.302 246.933 195.497 250.561C194.691 254.189 194.983 257.975 196.335 261.436C197.687 264.898 200.038 267.879 203.09 270L168.8 367.6C165.8 367.776 162.954 368.985 160.745 371.022C158.536 373.059 157.101 375.798 156.684 378.774C156.267 381.75 156.894 384.778 158.458 387.343C160.021 389.909 162.425 391.854 165.261 392.847C168.097 393.841 171.189 393.821 174.012 392.792C176.835 391.762 179.214 389.787 180.745 387.201C182.276 384.616 182.864 381.58 182.409 378.61C181.954 375.64 180.484 372.919 178.25 370.91L212.55 273.31C212.97 273.31 213.38 273.37 213.8 273.37C216.355 273.371 218.883 272.851 221.23 271.84L270.15 332.63C269.083 334.593 268.546 336.799 268.592 339.032C268.637 341.265 269.264 343.448 270.409 345.366C271.554 347.283 273.179 348.869 275.124 349.968C277.069 351.066 279.266 351.639 281.5 351.63C283.926 351.643 286.307 350.969 288.368 349.688C290.429 348.406 292.085 346.568 293.147 344.386C294.209 342.204 294.633 339.766 294.37 337.354C294.106 334.941 293.167 332.652 291.66 330.75L357 213.59C360.945 214.956 365.14 215.445 369.294 215.024C373.447 214.602 377.459 213.28 381.049 211.15C384.64 209.02 387.723 206.132 390.083 202.689C392.443 199.245 394.025 195.329 394.717 191.211C395.409 187.094 395.195 182.876 394.09 178.85C392.985 174.824 391.016 171.087 388.32 167.9C385.623 164.713 382.264 162.152 378.477 160.396C374.689 158.639 370.564 157.73 366.39 157.73Z" fill="white"/>
<path d="M809.719 486.12C809.649 485.81 809.579 485.51 809.479 485.2C806.248 473.645 799.596 463.337 790.399 455.63C790.289 455.57 790.159 455.46 790.049 455.39C789.199 454.78 788.309 454.19 787.419 453.61C786.219 452.86 784.979 452.14 783.749 451.42C783.645 451.348 783.53 451.291 783.409 451.25C778.649 449.032 774.117 446.353 769.879 443.25L769.669 443.11C763.949 439.31 758.779 434.89 755.209 428.76C755.129 428.631 755.062 428.494 755.009 428.35C754.939 428.35 754.939 428.24 754.909 428.21C751.619 423.21 749.629 417.73 750.039 412.04V411.87C749.039 402.59 750.039 392.82 749.659 383.4C749.659 382.82 749.659 382.24 749.559 381.65C749.459 381.06 749.459 380.35 749.419 379.77C749.455 379.579 749.455 379.382 749.419 379.19C749.283 377.328 749.043 375.476 748.699 373.64C745.449 356.03 734.139 340.34 720.299 329.28C719.986 329.014 719.652 328.773 719.299 328.56C703.779 317.18 686.789 312.76 675.659 311.05C675.557 311.036 675.452 311.036 675.349 311.05C671.169 310.74 667.199 310.81 663.529 309.98C663.459 309.98 663.389 309.98 663.359 309.98C659.252 309.184 655.588 306.889 653.079 303.54C652.131 302.323 651.284 301.028 650.549 299.67C650.447 299.594 650.373 299.484 650.339 299.36C647.457 294.875 645.556 289.832 644.759 284.56C644.659 284.05 644.519 283.56 644.449 283.05C642.049 271.65 641.979 259.25 641.919 249C640.989 233.21 633.969 212.86 621.769 198.37C621.769 198.37 621.769 198.3 621.699 198.3C618.162 194.762 614.178 191.7 609.849 189.19C598.902 183.06 586.334 180.442 573.849 181.69C573.849 181.69 573.849 181.69 573.779 181.69C573.76 181.684 573.739 181.684 573.719 181.69C566.04 182.339 558.599 184.679 551.929 188.54C549.478 189.949 547.159 191.575 544.999 193.4C531.999 204.56 524.549 222 522.489 239.2C522.319 240.53 522.219 241.84 522.149 243.2C522.115 243.359 522.115 243.522 522.149 243.68C520.527 245.89 519.567 248.516 519.379 251.25C519.195 254.284 519.926 257.303 521.477 259.917C523.028 262.531 525.328 264.619 528.079 265.91V266.18C528.079 267.07 528.079 268 528.079 268.89C528.28 274.975 529.605 280.969 531.989 286.57C535.989 296.02 543.119 306.81 555.209 308.52C557.358 308.827 559.521 309.024 561.689 309.11L567.409 333.57L572.309 354.77C593.679 342.61 620.129 338.94 642.699 346.04H642.769C653.335 349.242 662.933 355.034 670.689 362.89C695.769 383.34 723.999 480.67 725.689 486.7C725.696 486.772 725.72 486.841 725.759 486.9C725.759 486.9 725.759 486.9 725.759 486.97C725.759 487.04 725.759 487.07 725.829 487.14C725.902 487.425 726.006 487.7 726.139 487.96C726.239 488.27 726.349 488.58 726.479 488.89L727.199 490.74C732.199 503.65 748.339 545.74 751.929 556.13C756.219 568.4 759.569 569.36 759.569 569.36C759.753 569.318 759.928 569.248 760.089 569.15L760.769 568.88C771.6 564.493 781.644 558.373 790.509 550.76C790.579 550.76 790.579 550.76 790.579 550.69C798.786 542.347 804.739 532.055 807.879 520.78C811.343 509.556 811.975 497.649 809.719 486.12Z" fill="white"/>
<path d="M533.41 235.23C533.41 235.23 536.02 191.51 576.85 181.23C617.68 170.95 642.02 218.41 643.85 248.84C645.68 279.27 643.85 300.28 665.31 309.84C665.31 309.84 727.31 309.09 750.13 366.07C750.13 366.07 753.22 393.97 751.96 411.93C750.7 429.89 773.11 445.64 785.32 451.19C797.53 456.74 818.76 479.29 812.99 516.12C807.22 552.95 761.49 569.33 761.49 569.33C761.49 569.33 758.12 568.33 753.84 556.08C749.56 543.83 727.65 487 727.65 487C727.65 487 698.46 384 672.55 362.92C658.29 351.3 643 346.04 632.93 339.92C622.32 333.47 617.22 326.36 613.68 321.8C606.77 312.91 594.52 299.48 603.38 267.8C612.24 236.12 603.31 252.09 594.97 247.63C594.97 247.63 584.63 231.63 569.03 242.95C553.43 254.27 557.23 226.71 557.23 226.71L550.38 235.93C550.38 235.93 539.64 238.06 533.41 235.23Z" fill="#9E7ACD"/>
<path d="M431.422 294.81C431.862 294.19 432.422 293.54 432.892 292.89C433.362 292.24 433.952 291.62 434.502 291C436.291 289.073 438.226 287.288 440.292 285.66C440.942 285.14 441.592 284.66 442.242 284.19L431.422 294.81Z" fill="#9E7ACD"/>
<path d="M122.94 736H91C86.1 736 81.07 736 76.55 734C72.03 732 68.55 728.42 65.24 724.86C42.16 700.5 27.09 682.76 4 658.33L11.74 650.33C15.982 646.756 21.3928 644.872 26.937 645.038C32.4812 645.204 37.7695 647.409 41.79 651.23L74.5 683.36L122.94 736Z" fill="#9E7ACD"/>
<path d="M574.368 606.55C558.482 609.984 542.518 613.25 526.478 616.35C507.565 620.017 488.645 623.604 469.718 627.11L452.068 605.52L423.068 635.6C371.028 644.934 318.888 653.68 266.648 661.84L266.888 661.6L403.458 523.79C412.792 514.364 424.548 507.699 437.43 504.532C450.311 501.364 463.818 501.817 476.458 505.84L530.248 523C539.137 553.554 554.148 581.98 574.368 606.55Z" fill="white"/>
<path d="M534.442 416.27C527.692 439.64 526.112 464.51 528.892 489.34C529.558 495.707 530.558 502.04 531.892 508.34C533.122 514.64 534.702 520.84 536.482 527.04C544.557 554.764 557.487 580.834 574.672 604.04C573.992 604.18 573.342 604.35 572.752 604.48C553.362 580.383 538.922 552.693 530.262 523C528.542 517 527.042 511 525.842 505C524.642 499 523.642 492.81 522.962 486.68C520.292 462.73 521.832 438.75 528.342 416.24C533.125 399.656 541.736 384.428 553.482 371.78C556.412 368.6 559.595 365.664 563.002 363L563.172 362.87L563.722 362.46L563.962 362.25C567.175 359.808 570.553 357.589 574.072 355.61C581.758 351.232 590.027 347.966 598.632 345.91C592.823 347.877 587.214 350.392 581.882 353.42C578.229 355.482 574.724 357.794 571.392 360.34L571.152 360.54L570.602 360.95H570.542L570.372 361.08C566.84 363.834 563.539 366.87 560.502 370.16C548.336 383.286 539.412 399.077 534.442 416.27Z" fill="#4B4453"/>
<path d="M643.611 529.32C643.611 529.32 671.431 564.67 694.611 606.88C666.931 595.68 610.811 599.88 588.311 602.22C585.323 602.364 582.347 602.698 579.401 603.22C579.215 603.223 579.031 603.247 578.851 603.29C578.784 603.297 578.717 603.297 578.651 603.29C577.211 603.57 575.871 603.81 574.651 604.08C557.467 580.874 544.536 554.803 536.461 527.08C534.681 520.88 533.101 514.68 531.871 508.38C530.641 502.08 529.571 495.73 528.871 489.38C526.091 464.55 527.671 439.68 534.421 416.31C539.402 399.113 548.341 383.322 560.521 370.2C563.558 366.91 566.859 363.873 570.391 361.12L570.561 360.99H570.621L571.171 360.58L571.411 360.38C574.744 357.834 578.249 355.522 581.901 353.46C587.233 350.431 592.842 347.917 598.651 345.95C613.931 342.25 629.991 342.36 644.481 346.95H644.551C653.081 351.17 663.021 356.1 672.471 363.81C685.801 377.44 692.851 395.81 699.571 413.69C708.851 438.357 718.157 462.996 727.491 487.61C727.496 487.685 727.52 487.757 727.561 487.82C727.561 487.82 727.561 487.82 727.561 487.89C727.561 487.96 727.561 487.99 727.631 488.06C727.703 488.344 727.807 488.619 727.941 488.88C728.036 489.196 728.15 489.507 728.281 489.81C666.561 476.91 643.611 529.32 643.611 529.32Z" fill="#4B4453"/>
<path d="M563.001 363C559.592 365.651 556.406 368.574 553.471 371.74C541.726 384.388 533.115 399.616 528.331 416.2C521.822 438.71 520.281 462.69 522.951 486.64C522.161 487.08 521.342 487.46 520.521 487.87C503.322 496.26 484.311 502.43 464.991 502.29C454.396 502.174 443.95 499.773 434.367 495.251C424.784 490.73 416.289 484.194 409.461 476.09C398.671 463.31 391.851 447.86 386.811 432.09C381.501 415.44 377.461 398.72 370.881 382.52C366.671 372.2 362.461 360.62 353.381 353.36C348.721 349.66 342.891 348.36 338.271 344.66C333.364 340.716 329.809 335.34 328.101 329.28C327.347 326.67 326.864 323.989 326.661 321.28C325.801 310.59 328.661 299.42 332.171 289.52L314.261 277.46C309.391 274.17 307.261 267.05 310.141 261.94C310.966 260.48 312.098 259.216 313.458 258.236C314.819 257.255 316.376 256.581 318.021 256.26C319.55 255.969 321.122 255.992 322.642 256.327C324.161 256.662 325.597 257.303 326.861 258.21L363.861 284.79C363.861 284.79 366.711 275.58 375.441 278.42C383.601 281.09 412.651 292.5 411.651 327.72C411.513 333.087 412.93 338.38 415.731 342.96L450.471 400.44C452.933 404.507 456.22 408.012 460.12 410.729C464.02 413.447 468.447 415.316 473.114 416.217C477.781 417.118 482.586 417.03 487.217 415.959C491.848 414.889 496.202 412.858 500.001 410L560.811 364.65L563.001 363Z" fill="white"/>
<path d="M574.382 379.14L533.382 480.54L522.832 485.47L505.252 493.66C519.332 436.07 500.012 409.22 500.012 409.22L550.922 371.22C551.672 371.5 552.422 371.74 553.212 372.01C563.692 375.47 574.382 379.14 574.382 379.14Z" fill="#4B4453"/>
<path d="M595.851 600.81C578.001 605.23 592.391 601.88 574.441 605.75" stroke="#333333" stroke-width="5.14" stroke-miterlimit="10"/>
<path d="M769.68 598.42C767.76 593.35 765.84 588.28 763.96 583.21L763.75 582.69C742.417 526.023 721.053 469.387 699.66 412.78C692.94 394.93 685.89 376.53 672.56 362.9C644.78 334.54 595.76 337.24 564.07 361.43L563.83 361.63L563.62 361.77C560.014 364.564 556.646 367.651 553.55 371C541.804 383.651 533.193 398.883 528.41 415.47C520.22 443.73 519.88 474.32 525.91 504.23C527.1 510.29 528.61 516.28 530.32 522.23C539.215 552.783 554.229 581.209 574.45 605.78C558.55 609.2 542.587 612.467 526.56 615.58C440.233 632.313 353.62 647.453 266.72 661C214.44 669.19 159.05 678 106.63 685L86.63 687.47C84.44 687.745 82.215 687.529 80.119 686.837C78.022 686.146 76.106 684.995 74.51 683.47L41.79 651.28C37.7695 647.459 32.4812 645.254 26.937 645.088C21.3928 644.922 15.982 646.806 11.74 650.38L4 658.38C27.09 682.81 42.16 700.55 65.25 724.98C68.61 728.54 72.07 732.17 76.56 734.12C81.05 736.07 86.11 736.12 91.01 736.12H119.65C143.87 736.12 168.103 736.12 192.35 736.12L683.28 736.22C703.39 736.22 724.18 736.09 742.62 728.04C751.516 724.107 759.522 718.409 766.15 711.29" stroke="#333333" stroke-width="5.14" stroke-miterlimit="10"/>
<path d="M604 470.44L775.11 724.56C777.496 728.102 780.716 731.003 784.485 733.01C788.255 735.017 792.459 736.068 796.73 736.07H871.24C874.157 736.07 876.955 734.911 879.018 732.849C881.081 730.786 882.24 727.988 882.24 725.07C882.24 722.153 881.081 719.355 879.018 717.292C876.955 715.229 874.157 714.07 871.24 714.07H836.1C830.424 714.071 824.878 712.376 820.172 709.203C815.467 706.03 811.816 701.523 809.69 696.26L762 578.42" stroke="#333333" stroke-width="5.14" stroke-miterlimit="10"/>
<path d="M266.711 661L266.951 660.76L403.531 523C412.864 513.573 424.618 506.904 437.498 503.728C450.378 500.552 463.885 500.992 476.531 505L530.311 522.17" stroke="#333333" stroke-width="5.14" stroke-miterlimit="10"/>
<path d="M770.152 598.59L769.672 598.42" stroke="#333333" stroke-width="5.14" stroke-miterlimit="10"/>
<path d="M469.99 626.54L452.15 604.72L422.84 635.06" stroke="#333333" stroke-width="5.14" stroke-miterlimit="10"/>
<path d="M675.059 366.12V366.09" stroke="#333333" stroke-width="5.14" stroke-miterlimit="10"/>
<path d="M793.398 716.3C797.886 716.133 802.38 716.276 806.848 716.73C810.498 717.1 814.308 717.32 817.758 719.02C820.628 720.44 823.618 723.85 823.468 728.02C823.198 736.16 814.668 736.1 809.998 736.1" stroke="#333333" stroke-width="5.14" stroke-miterlimit="10"/>
<path d="M795.191 736.07H809.991H810.201H855.511" stroke="#333333" stroke-width="5.14" stroke-miterlimit="10"/>
<path d="M522.999 485.85C522.999 485.85 522.899 485.85 522.859 485.92C522.109 486.33 521.349 486.7 520.569 487.08C515.579 489.536 510.466 491.732 505.249 493.66C492.369 498.49 478.769 501.66 465.039 501.5C454.442 501.382 443.995 498.981 434.411 494.459C424.826 489.938 416.329 483.403 409.499 475.3C398.709 462.52 391.899 447.07 386.859 431.3C381.549 414.65 377.509 397.93 370.929 381.73C366.719 371.42 362.499 359.84 353.429 352.57C348.769 348.87 342.939 347.57 338.319 343.87C333.412 339.924 329.854 334.549 328.139 328.49C327.393 325.879 326.914 323.198 326.709 320.49C325.849 309.8 328.709 298.64 332.219 288.74L314.299 276.68C309.439 273.39 307.299 266.27 310.189 261.16C311.014 259.7 312.146 258.436 313.506 257.455C314.866 256.475 316.423 255.801 318.069 255.48C319.598 255.189 321.17 255.212 322.689 255.547C324.209 255.882 325.645 256.523 326.909 257.43L363.909 284.01C363.909 284.01 366.759 274.8 375.489 277.64C383.639 280.31 412.689 291.72 411.699 326.94C411.561 332.307 412.978 337.6 415.779 342.18L450.509 399.67C452.972 403.73 456.258 407.228 460.155 409.941C464.052 412.654 468.474 414.52 473.136 415.42C477.799 416.319 482.598 416.232 487.224 415.165C491.851 414.097 496.203 412.072 499.999 409.22L550.909 371.22L560.809 363.86L563.209 362.08L563.759 361.67L563.999 361.47" stroke="#333333" stroke-width="5.14" stroke-miterlimit="10"/>
<path d="M364 283.92C364 283.92 358.23 297.97 378.13 307.33" stroke="#333333" stroke-width="5.14" stroke-miterlimit="10"/>
<path d="M329.049 299.31C329.049 299.31 327.049 316.31 349.639 322.66C357.639 324.91 364.119 315.66 359.249 308.94L359.009 308.63" stroke="#333333" stroke-width="5.14" stroke-miterlimit="10"/>
<path d="M326.66 320.3C326.66 320.3 334.2 335.07 346.66 333.43C357.66 331.98 353.66 321.23 353.66 321.23" stroke="#333333" stroke-width="5.14" stroke-miterlimit="10"/>
<path d="M332.238 288.65L345.368 297.5" stroke="#333333" stroke-width="5.14" stroke-miterlimit="10"/>
<path d="M759 570.19C784.3 562.31 802.19 546.52 809.81 520.79C817.11 496.13 812.36 468.09 789.3 453.63C777.81 446.5 764.24 440.93 757.11 428.72C747.38 412.02 753.94 391.65 750.58 373.58C747.09 354.82 734.47 338.2 719.34 327.06C708.125 318.846 695.086 313.472 681.34 311.4C671.19 309.87 661.95 312.4 655.01 303.4C644.01 289.19 643.93 265.97 643.84 248.86C643.78 235.72 640.68 222.64 633.92 211.37L633.77 211.12C628.407 202.035 620.84 194.448 611.77 189.06C594.77 179.22 570.92 178.31 553.77 188.43C551.323 189.892 549.007 191.565 546.85 193.43C531 207 523.42 229.93 523.79 250.35" stroke="#333333" stroke-width="5.14" stroke-miterlimit="10"/>
<path d="M555.999 225.39C555.119 231.39 551.459 236.95 544.999 238.62C537.659 240.48 533.769 247.62 531.709 254.8C528.776 265.328 529.534 276.542 533.859 286.58C537.859 296.02 545.009 306.82 557.089 308.58C579.199 311.73 590.189 302.41 590.189 302.41" stroke="#333333" stroke-width="5.14" stroke-miterlimit="10"/>
<path d="M574.421 257.52C576.52 257.52 578.221 255.819 578.221 253.72C578.221 251.621 576.52 249.92 574.421 249.92C572.322 249.92 570.621 251.621 570.621 253.72C570.621 255.819 572.322 257.52 574.421 257.52Z" fill="#333333"/>
<path d="M541.038 255.01C543.137 255.01 544.838 253.309 544.838 251.21C544.838 249.111 543.137 247.41 541.038 247.41C538.94 247.41 537.238 249.111 537.238 251.21C537.238 253.309 538.94 255.01 541.038 255.01Z" fill="#333333"/>
<path d="M556 225.39C555.151 229.001 555.278 232.774 556.37 236.32C556.541 236.898 556.762 237.46 557.03 238C559.66 244.2 565.79 249.13 576.65 248.52C600.29 247.21 608.72 245.67 606.8 256.57C606 260.4 604.852 264.148 603.37 267.77C600.77 274.65 598.96 286.51 601.63 299.39V299.46C604.71 314.53 622.5 338.32 647.12 346.88" stroke="#333333" stroke-width="5.14" stroke-miterlimit="10"/>
<path d="M558.08 254.64C558.08 254.64 554.08 269.22 554.49 271.37C554.9 273.52 560 271.86 560 271.86" stroke="#333333" stroke-width="5.14" stroke-miterlimit="10"/>
<path d="M560.828 285.21C568.458 289.33 577.298 286.73 580.758 279.84" stroke="#333333" stroke-width="5.14" stroke-miterlimit="10"/>
<path d="M593.113 268.848C599.676 261.896 599.224 250.812 592.103 244.09C584.983 237.368 573.89 237.555 567.328 244.506C560.765 251.458 561.218 262.543 568.338 269.265C575.459 275.986 586.551 275.8 593.113 268.848Z" stroke="#333333" stroke-width="5.14" stroke-miterlimit="10"/>
<path d="M548.836 264.79C555.399 257.839 554.946 246.754 547.826 240.032C540.705 233.31 529.613 233.497 523.05 240.449C516.488 247.401 516.94 258.485 524.061 265.207C531.181 271.929 542.274 271.742 548.836 264.79Z" stroke="#333333" stroke-width="5.14" stroke-miterlimit="10"/>
<path d="M535.569 240.45C535.939 240.45 536.319 240.45 536.699 240.5C539.946 240.808 542.948 242.364 545.071 244.842C547.194 247.319 548.272 250.523 548.079 253.78C547.902 256.773 546.581 259.584 544.391 261.631C542.2 263.679 539.307 264.806 536.309 264.78C535.928 264.78 535.547 264.76 535.169 264.72C531.922 264.415 528.92 262.86 526.797 260.385C524.674 257.909 523.595 254.706 523.789 251.45C523.963 248.454 525.284 245.641 527.477 243.593C529.671 241.545 532.568 240.419 535.569 240.45ZM535.569 237.88C531.922 237.862 528.406 239.237 525.74 241.724C523.073 244.21 521.455 247.621 521.219 251.26C520.984 255.186 522.283 259.049 524.843 262.034C527.403 265.02 531.023 266.894 534.939 267.26C535.394 267.308 535.851 267.332 536.309 267.33C539.945 267.346 543.451 265.977 546.115 263.501C548.779 261.025 550.4 257.628 550.649 254C550.884 250.074 549.584 246.211 547.024 243.226C544.464 240.24 540.844 238.367 536.929 238C536.477 237.952 536.023 237.929 535.569 237.93V237.88Z" fill="white"/>
<path d="M562.72 255.06L553.43 254.21" stroke="#333333" stroke-width="5.14" stroke-miterlimit="10"/>
<path d="M579.839 244.14C580.226 244.141 580.614 244.161 580.999 244.2C584.341 244.523 587.429 246.126 589.615 248.675C591.802 251.223 592.917 254.518 592.729 257.87C592.542 260.954 591.178 263.848 588.919 265.954C586.66 268.061 583.678 269.219 580.589 269.19C580.209 269.19 579.809 269.19 579.429 269.14C576.085 268.818 572.996 267.213 570.809 264.663C568.622 262.112 567.508 258.815 567.699 255.46C567.886 252.377 569.25 249.483 571.509 247.377C573.768 245.27 576.75 244.112 579.839 244.14ZM579.839 241.57C576.103 241.552 572.501 242.961 569.769 245.509C567.037 248.057 565.381 251.552 565.139 255.28C564.89 259.305 566.218 263.268 568.84 266.331C571.463 269.394 575.174 271.316 579.189 271.69C579.654 271.738 580.121 271.762 580.589 271.76C584.325 271.779 587.927 270.37 590.659 267.822C593.391 265.273 595.047 261.778 595.289 258.05C595.538 254.034 594.218 250.077 591.606 247.016C588.994 243.954 585.295 242.027 581.289 241.64C580.824 241.592 580.357 241.569 579.889 241.57H579.839Z" fill="white"/>
<path d="M547.002 263.06C552.632 257.096 552.244 247.587 546.135 241.82C540.027 236.054 530.511 236.214 524.881 242.178C519.251 248.142 519.639 257.651 525.748 263.418C531.856 269.184 541.372 269.024 547.002 263.06Z" fill="#9E7ACD"/>
<path d="M591.343 267.155C597 261.163 596.61 251.609 590.474 245.816C584.337 240.024 574.777 240.185 569.121 246.177C563.464 252.169 563.854 261.722 569.99 267.515C576.127 273.308 585.687 273.147 591.343 267.155Z" fill="#9E7ACD"/>
<path d="M574.429 355.961L569.249 333.591L563.629 309.48" stroke="#333333" stroke-width="5.14" stroke-miterlimit="10"/>
<path d="M903.998 736.03H16.7383" stroke="#333333" stroke-width="5.14" stroke-miterlimit="10"/>
</svg>
