<svg width="906" height="641" viewBox="0 0 906 641" fill="none" xmlns="http://www.w3.org/2000/svg">
<path d="M600.7 637.6C611.46 637.6 621.924 637.12 632.09 636.16C700.73 629.83 755 602.77 791.09 564.99C810.182 545.299 824.619 521.582 833.34 495.58C841.556 470.964 843.952 444.778 840.34 419.08C815.4 241.94 605.94 328.08 693.75 220.34C781.56 112.6 609.66 -24.4299 543.7 8.00012C477.74 40.4301 550.48 109.79 387.48 77.0001C224.48 44.2101 258.21 188.28 258.21 188.28" stroke="#BCA3DC" stroke-width="4.82" stroke-miterlimit="10"/>
<path d="M161.849 484.72C161.849 484.72 87.1989 431.19 58.3789 490.39C58.3789 490.39 88.6889 382.97 192.069 344.55C192.069 344.55 221.619 328.11 222.919 338.04C224.219 347.97 232.789 353.04 236.539 352.92C240.289 352.8 271.949 354.78 273.049 350.05C274.149 345.32 272.049 331.15 287.749 331.05C303.449 330.95 388.639 351.88 412.999 374C412.999 374 370.599 425.19 393.269 481.63L374.169 477C374.169 477 385.949 579 369.889 638.33H92.4889C92.4889 638.33 120.219 641.82 148.659 621.53L189.959 568.53C189.959 568.53 208.069 541.09 245.069 537.17C245.069 537.17 266.129 534.87 265.929 524.86C265.729 514.85 273.519 531.27 283.929 516.8C285.199 516.8 310.499 518.26 310.499 518.26C310.499 518.26 329.499 520.04 333.069 503.08C336.639 486.12 349.799 367.08 345.069 359.93C340.339 352.78 338.529 352.69 298.609 352.93C258.689 353.17 223.609 345.21 218.529 365.07C213.449 384.93 207.579 460.18 207.579 460.18C207.579 460.18 185.079 466.07 167.939 490.44C167.999 490.43 161.849 502.31 161.849 484.72Z" fill="#4B4453"/>
<path d="M161.852 448.57V495.43" stroke="#333333" stroke-width="4.82" stroke-miterlimit="10"/>
<path d="M372.891 472C416.941 495.4 538.681 543.21 543.001 359.32C543.001 359.32 537.761 311.03 551.421 304.73C565.081 298.43 587.111 278.48 558.741 230.18L577.251 211.71C579.752 209.136 581.128 205.674 581.076 202.086C581.025 198.497 579.55 195.076 576.976 192.575C574.402 190.074 570.94 188.698 567.351 188.749C563.763 188.801 560.342 190.276 557.841 192.85L521.051 231.85C521.051 231.85 515.721 221.85 506.271 227.06C496.821 232.27 462.161 254.38 477.901 300.55L436.961 418.15" stroke="#333333" stroke-width="4.82" stroke-miterlimit="10"/>
<path d="M521 231.83C521 231.83 530.81 246.76 509.93 262.02" stroke="#333333" stroke-width="4.82" stroke-miterlimit="10"/>
<path d="M564.779 241.78C564.779 241.78 570.889 260.97 546.239 273.35C537.519 277.73 527.949 268.51 532.069 259.66C532.139 259.53 532.199 259.39 532.269 259.25" stroke="#333333" stroke-width="4.82" stroke-miterlimit="10"/>
<path d="M572.24 265.48C572.24 265.48 566.85 284.22 552.1 285.12C539.05 285.91 541.24 272.6 541.24 272.6" stroke="#333333" stroke-width="4.82" stroke-miterlimit="10"/>
<path d="M319.9 253.74C318.9 254 318.27 253.17 317.34 253.33C303.97 250.89 294.03 240.33 292.91 235.25C293.29 238.02 298.37 237.74 297.51 240.57C297.35 241.11 297.03 240.9 296.77 241.42C296.35 242.42 296.36 241.05 295.77 241.95C292.49 237.1 290.59 234.69 290.01 232.02C290.404 234.886 290.172 237.803 289.33 240.57C289.175 241.111 288.971 241.637 288.72 242.14C286.72 246.86 282.55 250.85 275.58 251.84C273.832 252.061 272.068 252.118 270.31 252.01C265.31 251.72 260.99 251.43 257.31 251.27C245.01 250.72 240.6 251.65 241.98 259.59C242.74 263.182 243.818 266.699 245.2 270.1C247.64 276.52 249.34 287.64 246.84 299.75V299.82C243.94 313.92 234.76 324.82 215.09 335.06C211.605 336.859 208.011 338.438 204.33 339.79C170.2 352.45 88.56 384.52 54.72 502.12C51.1197 514.65 48.4297 526.05 46.5297 536.46L45.5997 535.92C22.4897 522.07 7.41971 491 11.9997 464.27C14.2797 451 22.9197 441.74 33.9997 434.77C41.7797 429.95 50.0997 426 57.07 420.05C80.17 400.32 61.7 369.64 74.49 346.05C88.91 319.51 111.49 303.15 140.97 301.8C148.39 302.12 156.74 302.99 164.84 302.6C176.6 303.02 188.62 302.06 197.23 294.35C204.01 288.35 205.42 278.57 207.99 270.41C210.884 261.208 213.297 251.862 215.22 242.41C216.979 233.448 220.26 224.854 224.92 217C229.951 208.489 237.046 201.383 245.55 196.34C252.968 192.153 261.238 189.702 269.74 189.17C277.482 189.626 285.012 191.872 291.74 195.73C294.037 197.088 296.209 198.647 298.23 200.39C313.12 213.09 320.25 234.59 319.9 253.74Z" fill="#9E7ACD"/>
<path d="M545.82 284C545.82 284 541.05 289.92 543.66 295.54C546.27 301.16 552.75 302.47 559.05 300.01" stroke="#333333" stroke-width="4.82" stroke-miterlimit="10"/>
<path d="M558.719 230.18L545.539 243.35" stroke="#333333" stroke-width="4.82" stroke-miterlimit="10"/>
<path d="M207.629 458.89L218.359 366.39C218.793 362.647 220.588 359.195 223.401 356.689C226.215 354.183 229.851 352.799 233.619 352.8H332.159C334.315 352.799 336.447 353.252 338.417 354.129C340.386 355.006 342.149 356.288 343.59 357.892C345.032 359.496 346.119 361.385 346.782 363.436C347.445 365.488 347.669 367.656 347.439 369.8L333.079 503.09C332.672 506.858 330.887 510.344 328.066 512.876C325.246 515.409 321.589 516.81 317.799 516.81H282.539" stroke="#333333" stroke-width="4.82" stroke-miterlimit="10"/>
<path d="M324.098 376.36C326.318 376.36 328.118 374.561 328.118 372.34C328.118 370.12 326.318 368.32 324.098 368.32C321.878 368.32 320.078 370.12 320.078 372.34C320.078 374.561 321.878 376.36 324.098 376.36Z" fill="#333333"/>
<path d="M257.74 480.35C268.14 482.69 270.22 482.73 280.31 484.23C286.67 485.18 301.21 485.97 301.47 476.1C301.71 467.43 291.98 462.34 285.11 459.57C277.181 456.554 268.884 454.614 260.44 453.8C256.96 453.4 253.464 453.126 249.95 452.98C225.6 451.98 197.51 457.87 180.74 476.92C141.89 521 90.2305 549.34 90.2305 549.34" stroke="#333333" stroke-width="4.82" stroke-miterlimit="10"/>
<path d="M285.588 484.72C290.588 486.84 299.058 491.36 295.588 500.02C294.008 504.02 291.138 505.44 287.198 506.02C278.688 507.25 269.558 505.44 261.198 503.69C258.108 503.04 252.628 501.85 249.578 501.01" stroke="#333333" stroke-width="4.82" stroke-miterlimit="10"/>
<path d="M276.7 506.22C276.7 506.22 285.79 506.11 283.6 514.56C279.99 528.56 251.94 522.22 238.82 519.28" stroke="#333333" stroke-width="4.82" stroke-miterlimit="10"/>
<path d="M277.262 331.81C320.002 333.68 385.132 346.21 444.192 397.3" stroke="#333333" stroke-width="4.82" stroke-miterlimit="10"/>
<path d="M600.698 637.61L92.4883 638.37" stroke="#333333" stroke-width="4.82" stroke-miterlimit="10"/>
<path d="M372.891 452.88C372.891 452.88 382.891 545.95 372.891 637.61" stroke="#333333" stroke-width="4.82" stroke-miterlimit="10"/>
<path opacity="0.54" d="M814.21 410.37L902.1 185.16C903.19 180.802 903.272 176.254 902.34 171.86C901.409 167.466 899.488 163.342 896.725 159.801C893.961 156.261 890.427 153.396 886.391 151.426C882.354 149.455 877.922 148.431 873.43 148.43H524.28C516.441 148.429 508.829 151.067 502.672 155.92C496.515 160.772 492.171 167.557 490.34 175.18L394.1 400.34C393.055 404.685 393.01 409.211 393.966 413.577C394.923 417.943 396.858 422.035 399.624 425.546C402.39 429.056 405.917 431.894 409.938 433.845C413.959 435.796 418.371 436.81 422.84 436.81H780.34C788.126 436.81 795.688 434.209 801.825 429.418C807.962 424.627 812.321 417.923 814.21 410.37Z" fill="white"/>
<path d="M814.21 410.37L902.1 185.16C903.19 180.802 903.272 176.254 902.34 171.86C901.409 167.466 899.488 163.342 896.725 159.801C893.961 156.261 890.427 153.396 886.391 151.426C882.354 149.455 877.922 148.431 873.43 148.43H524.28C516.441 148.429 508.829 151.067 502.672 155.92C496.515 160.772 492.171 167.557 490.34 175.18L394.1 400.34C393.055 404.685 393.01 409.211 393.966 413.577C394.923 417.943 396.858 422.035 399.624 425.546C402.39 429.056 405.917 431.894 409.938 433.845C413.959 435.796 418.371 436.81 422.84 436.81H780.34C788.126 436.81 795.688 434.209 801.825 429.418C807.962 424.627 812.321 417.923 814.21 410.37Z" fill="#9E7ACD"/>
<path d="M814.21 410.37L902.1 185.16C903.19 180.802 903.272 176.254 902.34 171.86C901.409 167.466 899.489 163.342 896.725 159.801C893.961 156.261 890.427 153.396 886.391 151.426C882.354 149.455 877.922 148.431 873.43 148.43H524.28C516.441 148.429 508.829 151.067 502.672 155.92C496.515 160.772 492.171 167.557 490.34 175.18L394.1 400.34C393.055 404.685 393.01 409.211 393.966 413.577C394.923 417.943 396.858 422.035 399.624 425.546C402.39 429.056 405.917 431.894 409.938 433.845C413.959 435.796 418.371 436.81 422.84 436.81H780.34C788.126 436.81 795.688 434.209 801.825 429.418C807.962 424.627 812.321 417.923 814.21 410.37Z" stroke="#333333" stroke-width="4.82" stroke-linecap="square" stroke-linejoin="round"/>
<path d="M801.35 401.25L882.44 193.48C883.444 189.461 883.519 185.266 882.66 181.214C881.801 177.161 880.03 173.358 877.482 170.092C874.933 166.827 871.674 164.185 867.952 162.366C864.23 160.548 860.142 159.602 856 159.6H533.87C526.637 159.598 519.615 162.032 513.934 166.509C508.254 170.987 504.247 177.246 502.56 184.28L413.77 392C412.807 396.009 412.765 400.184 413.649 404.212C414.532 408.24 416.317 412.014 418.87 415.252C421.423 418.491 424.677 421.108 428.387 422.907C432.097 424.706 436.167 425.64 440.29 425.64H770.11C777.29 425.636 784.264 423.235 789.924 418.816C795.583 414.397 799.605 408.215 801.35 401.25Z" fill="#9E7ACD"/>
<path d="M557.112 197.8C561.382 191.39 568.372 188.54 572.722 191.43C577.072 194.32 577.132 201.87 572.862 208.28C572.199 209.265 571.45 210.189 570.622 211.04L602.272 277.86C607.272 274.49 612.872 273.66 616.852 276.31C619.422 278.02 620.852 280.93 621.302 284.31L642.922 277.01L661.832 270.69C663.832 270 665.942 269.34 668.002 268.69C668.779 266.368 669.858 264.159 671.212 262.12C677.212 253.12 687.022 249.12 693.122 253.12C699.222 257.12 699.302 267.59 693.472 276.54L729.472 325.77C737.322 319.33 746.572 317.34 752.982 321.6C761.702 327.4 761.832 342.54 753.272 355.41C752.932 355.92 752.542 356.34 752.182 356.83L776.182 389.62C776.252 389.72 776.342 389.84 776.402 389.94C777.009 390.855 777.429 391.881 777.639 392.959C777.849 394.036 777.845 395.145 777.627 396.221C777.409 397.298 776.981 398.32 776.367 399.231C775.754 400.142 774.967 400.923 774.052 401.53C773.136 402.136 772.111 402.557 771.033 402.767C769.955 402.977 768.846 402.973 767.77 402.755C766.694 402.537 765.671 402.109 764.76 401.495C763.85 400.882 763.069 400.095 762.462 399.18L741.152 367.03C734.412 370.94 727.252 371.69 722.002 368.19C713.662 362.65 713.262 348.61 720.692 336.19L686.182 284.12C681.092 287.58 675.472 288.46 671.442 285.79C669.191 284.202 667.657 281.791 667.172 279.08C666.312 279.31 665.462 279.56 664.602 279.8L645.372 285.05L620.762 291.68C620.008 294.63 618.764 297.432 617.082 299.97C611.082 308.97 601.282 312.97 595.172 308.92C589.062 304.87 588.972 294.26 594.962 285.25C595.855 283.943 596.859 282.715 597.962 281.58L567.832 213.45C564.202 215.92 560.192 216.56 557.322 214.65C552.912 211.77 552.842 204.22 557.112 197.8Z" fill="white"/>
<path d="M786.309 201.49H832.999C835.135 201.49 837.224 200.867 839.013 199.699C840.801 198.53 842.21 196.866 843.069 194.91C843.343 194.31 843.489 193.66 843.499 193C843.488 191.725 842.975 190.506 842.07 189.607C841.166 188.708 839.944 188.203 838.669 188.2H788.999C791.369 192.15 790.189 197.61 786.309 201.49Z" fill="#D7C8EA"/>
<path d="M756.121 196.7C756.124 197.972 756.631 199.19 757.531 200.088C758.43 200.986 759.65 201.49 760.921 201.49H786.311C790.191 197.61 791.371 192.15 789.041 188.2H766.621C764.487 188.199 762.399 188.819 760.611 189.983C758.823 191.148 757.412 192.808 756.551 194.76C756.279 195.372 756.133 196.031 756.121 196.7Z" fill="#9E7ACD"/>
<path d="M767.8 201.49C767.932 201.747 768.086 201.991 768.26 202.22C771.59 206.77 778.81 207.22 784.43 203.1C785.095 202.61 785.723 202.072 786.31 201.49C790.19 197.61 791.37 192.15 789.04 188.2C788.908 187.947 788.754 187.706 788.58 187.48C785.28 182.9 778.06 182.48 772.44 186.57C771.766 187.068 771.128 187.613 770.53 188.2C766.68 192.09 765.5 197.52 767.8 201.49Z" fill="white"/>
<path d="M744.379 226C744.389 227.274 744.903 228.492 745.808 229.389C746.712 230.286 747.935 230.79 749.209 230.79H798.209C795.839 226.79 797.019 221.39 800.909 217.51H754.909C752.773 217.51 750.683 218.133 748.895 219.301C747.107 220.47 745.697 222.134 744.839 224.09C744.559 224.689 744.403 225.339 744.379 226Z" fill="#9E7ACD"/>
<path d="M798.199 230.79H821.199C823.332 230.792 825.419 230.174 827.207 229.011C828.995 227.848 830.406 226.19 831.269 224.24C831.545 223.63 831.692 222.969 831.699 222.3C831.7 221.67 831.577 221.047 831.337 220.465C831.097 219.883 830.744 219.355 830.299 218.91C829.854 218.465 829.325 218.112 828.743 217.872C828.162 217.631 827.538 217.508 826.909 217.51H800.899C796.999 221.39 795.829 226.82 798.199 230.79Z" fill="#D7C8EA"/>
<path d="M798.199 230.79C798.302 231.052 798.444 231.298 798.619 231.52C801.929 236.1 809.149 236.52 814.759 232.43C815.439 231.936 816.078 231.388 816.669 230.79C820.519 226.91 821.669 221.48 819.399 217.51C819.271 217.253 819.12 217.009 818.949 216.78C815.609 212.23 808.389 211.78 802.779 215.9C802.11 216.385 801.481 216.923 800.899 217.51C796.999 221.39 795.829 226.82 798.199 230.79Z" fill="white"/>
<path d="M781.879 259.89H811.209C813.343 259.891 815.431 259.271 817.219 258.106C819.007 256.942 820.418 255.282 821.279 253.33C821.555 252.73 821.702 252.079 821.709 251.42C821.704 250.141 821.193 248.917 820.288 248.014C819.383 247.111 818.157 246.602 816.879 246.6H784.609C786.909 250.57 785.729 256 781.879 259.89Z" fill="#9E7ACD"/>
<path d="M734.34 255.12C734.345 256.388 734.853 257.603 735.753 258.497C736.653 259.392 737.871 259.892 739.14 259.89H781.88C785.73 256 786.88 250.57 784.61 246.6H744.84C742.704 246.6 740.614 247.223 738.826 248.391C737.037 249.56 735.628 251.224 734.77 253.18C734.496 253.79 734.349 254.45 734.34 255.12Z" fill="#D7C8EA"/>
<path d="M763.369 259.89C763.501 260.143 763.655 260.384 763.829 260.61C767.129 265.19 774.349 265.61 779.969 261.52C780.643 261.022 781.281 260.477 781.879 259.89C785.729 256 786.879 250.57 784.609 246.6C784.478 246.343 784.324 246.099 784.149 245.87C780.819 241.32 773.599 240.93 767.979 244.99C767.314 245.48 766.686 246.018 766.099 246.6C762.219 250.48 760.999 255.94 763.369 259.89Z" fill="white"/>
<path d="M592.262 397.14H621.592C623.726 397.142 625.814 396.522 627.602 395.357C629.39 394.192 630.8 392.533 631.662 390.58C631.997 389.85 632.141 389.047 632.081 388.246C632.021 387.445 631.76 386.673 631.32 386C630.881 385.328 630.278 384.778 629.568 384.402C628.858 384.026 628.065 383.836 627.262 383.85H595.002C597.292 387.82 596.112 393.25 592.262 397.14Z" fill="#9E7ACD"/>
<path d="M475.82 392.37C475.822 392.997 475.947 393.619 476.188 394.198C476.429 394.778 476.783 395.304 477.227 395.747C477.672 396.19 478.2 396.541 478.78 396.78C479.361 397.019 479.983 397.141 480.61 397.14H592.26C596.11 393.25 597.26 387.82 594.99 383.85H486.32C484.184 383.85 482.094 384.473 480.306 385.641C478.518 386.81 477.109 388.474 476.25 390.43C475.976 391.04 475.83 391.7 475.82 392.37Z" fill="#D7C8EA"/>
<path d="M573.75 397.14C573.882 397.393 574.036 397.634 574.21 397.86C577.51 402.45 584.73 402.86 590.35 398.77C591.024 398.272 591.662 397.727 592.26 397.14C596.11 393.25 597.26 387.82 594.99 383.85C594.859 383.593 594.705 383.349 594.53 383.12C591.19 378.57 583.97 378.18 578.36 382.24C577.695 382.73 577.067 383.268 576.48 383.85C572.6 387.73 571.42 393.19 573.75 397.14Z" fill="white"/>
<path d="M48.1993 541.18C44.4754 539.711 40.874 537.949 37.4293 535.91C14.2993 522.06 -0.770712 491 3.81929 464.26C6.10929 450.99 14.7493 441.74 25.8693 434.76C33.6393 429.94 41.9993 426 48.9393 420.05C72.039 400.32 53.559 369.63 66.349 346.05C81.899 317.45 106.899 300.68 139.839 301.77C155.649 302.29 176.179 305.92 189.089 294.35C195.869 288.35 197.289 278.57 199.859 270.41C202.756 261.208 205.173 251.862 207.099 242.41C208.831 233.449 212.091 224.854 216.739 217C221.769 208.48 228.864 201.365 237.369 196.31C253.369 187.08 275.679 186.23 291.759 195.72C294.049 197.081 296.217 198.637 298.239 200.37C313.119 213.13 320.239 234.62 319.899 253.78" stroke="#333333" stroke-width="4.82" stroke-miterlimit="10"/>
<path d="M289.68 230.33C290.51 235.97 293.94 241.17 300.03 242.73C306.91 244.48 310.56 251.18 312.5 257.91C315.257 267.784 314.551 278.303 310.5 287.72C306.74 296.58 300.04 306.72 288.71 308.31C267.98 311.31 257.66 302.53 257.66 302.53" stroke="#333333" stroke-width="4.82" stroke-miterlimit="10"/>
<path d="M272.412 260.46C274.378 260.46 275.972 258.866 275.972 256.9C275.972 254.934 274.378 253.34 272.412 253.34C270.445 253.34 268.852 254.934 268.852 256.9C268.852 258.866 270.445 260.46 272.412 260.46Z" fill="#333333"/>
<path d="M303.72 258.1C305.686 258.1 307.28 256.507 307.28 254.54C307.28 252.574 305.686 250.98 303.72 250.98C301.754 250.98 300.16 252.574 300.16 254.54C300.16 256.507 301.754 258.1 303.72 258.1Z" fill="#333333"/>
<path d="M264.151 523.25C269.331 526.43 265.151 531.67 261.391 533.44C254.931 536.44 246.581 536.97 239.541 537.81C186.011 544.11 168.141 617.59 134.541 631.25C100.941 644.91 10.7706 654.89 54.7509 502.11C88.6109 384.53 170.251 352.46 204.381 339.8C208.055 338.449 211.641 336.873 215.121 335.08C234.791 324.86 244.001 313.92 246.891 299.81C246.891 299.81 246.891 299.81 246.891 299.75C249.391 287.64 247.711 276.52 245.261 270.09C243.856 266.694 242.764 263.176 242.001 259.58C240.181 249.35 248.081 250.79 270.261 252.01C280.441 252.61 286.201 248.01 288.681 242.15C288.924 241.642 289.122 241.113 289.271 240.57C290.314 237.252 290.439 233.713 289.631 230.33" stroke="#333333" stroke-width="4.82" stroke-miterlimit="10"/>
<path d="M287.751 257.76C287.751 257.76 291.491 271.43 291.111 273.45C290.731 275.47 285.941 273.91 285.941 273.91" stroke="#333333" stroke-width="4.82" stroke-miterlimit="10"/>
<path d="M285.169 286.43C277.999 290.29 269.709 287.86 266.469 281.43" stroke="#333333" stroke-width="4.82" stroke-miterlimit="10"/>
<path d="M278.125 271.447C284.804 265.142 285.23 254.747 279.077 248.229C272.924 241.711 262.522 241.538 255.843 247.843C249.164 254.148 248.738 264.543 254.891 271.061C261.044 277.579 271.446 277.752 278.125 271.447Z" stroke="#333333" stroke-width="4.82" stroke-miterlimit="10"/>
<path d="M319.656 267.655C326.335 261.35 326.761 250.955 320.608 244.437C314.455 237.919 304.053 237.746 297.374 244.051C290.695 250.356 290.269 260.751 296.422 267.269C302.575 273.787 312.978 273.96 319.656 267.655Z" stroke="#333333" stroke-width="4.82" stroke-miterlimit="10"/>
<path d="M308.861 244.45C311.672 244.432 314.382 245.49 316.437 247.407C318.492 249.324 319.735 251.955 319.911 254.76C320.091 257.815 319.078 260.819 317.085 263.142C315.093 265.464 312.278 266.923 309.231 267.21C308.881 267.21 308.521 267.21 308.171 267.21C305.377 267.23 302.68 266.186 300.628 264.29C298.576 262.393 297.322 259.787 297.121 257C296.929 253.937 297.936 250.92 299.929 248.587C301.923 246.253 304.746 244.788 307.801 244.5C308.151 244.5 308.511 244.5 308.861 244.5V244.45ZM308.861 242.09C308.441 242.09 308.011 242.09 307.581 242.15C303.912 242.499 300.52 244.256 298.12 247.054C295.72 249.851 294.498 253.47 294.711 257.15C294.935 260.562 296.453 263.761 298.954 266.093C301.455 268.425 304.752 269.715 308.171 269.7C308.591 269.7 309.021 269.7 309.451 269.64C313.122 269.297 316.515 267.54 318.915 264.741C321.315 261.942 322.532 258.32 322.311 254.64C322.112 251.213 320.606 247.992 318.104 245.641C315.603 243.29 312.295 241.987 308.861 242V242.09Z" fill="white"/>
<path d="M283.391 258.16L292.111 257.36" stroke="#333333" stroke-width="4.82" stroke-miterlimit="10"/>
<path d="M267.342 247.92C270.237 247.892 273.033 248.977 275.151 250.952C277.269 252.926 278.548 255.639 278.722 258.53C278.909 261.677 277.867 264.775 275.815 267.168C273.763 269.562 270.861 271.065 267.722 271.36C267.362 271.36 266.992 271.36 266.632 271.36C263.734 271.386 260.937 270.299 258.818 268.323C256.699 266.346 255.418 263.632 255.242 260.74C255.057 257.594 256.1 254.5 258.152 252.108C260.204 249.717 263.105 248.215 266.242 247.92C266.607 247.883 266.974 247.867 267.342 247.87V247.92ZM267.342 245.46C266.902 245.46 266.462 245.48 266.022 245.52C262.24 245.871 258.745 247.687 256.283 250.579C253.82 253.471 252.586 257.21 252.842 261C253.071 264.496 254.625 267.774 257.188 270.163C259.75 272.553 263.128 273.875 266.632 273.86C267.062 273.86 267.502 273.86 267.942 273.8C271.706 273.446 275.186 271.643 277.645 268.771C280.104 265.899 281.351 262.184 281.122 258.41C280.895 254.914 279.343 251.637 276.782 249.247C274.221 246.857 270.845 245.535 267.342 245.55V245.46Z" fill="white"/>
<path d="M318.08 265.983C323.807 260.577 324.168 251.659 318.887 246.065C313.606 240.47 304.682 240.318 298.955 245.724C293.229 251.13 292.867 260.048 298.148 265.642C303.429 271.237 312.353 271.389 318.08 265.983Z" fill="#9E7ACD"/>
<path d="M279.548 270.358C285.326 264.897 285.687 255.898 280.356 250.258C275.025 244.617 266.02 244.472 260.242 249.933C254.465 255.393 254.103 264.393 259.434 270.033C264.766 275.673 273.771 275.819 279.548 270.358Z" fill="#9E7ACD"/>
<path d="M231.73 352.92C227.33 348.33 223.51 341.58 221 331.81" stroke="#333333" stroke-width="4.82" stroke-miterlimit="10"/>
<path d="M272.41 352.8L277.26 331.81L282.53 309.19" stroke="#333333" stroke-width="4.82" stroke-miterlimit="10"/>
<path d="M292.235 436.378C294.099 427.232 289.056 418.482 280.971 416.834C272.886 415.186 264.821 421.265 262.957 430.41C261.093 439.556 266.136 448.306 274.221 449.953C282.306 451.601 290.371 445.523 292.235 436.378Z" fill="#D7C8EA"/>
<path d="M601.57 585.18L593.37 631C593.14 632.286 592.465 633.451 591.463 634.29C590.462 635.129 589.197 635.589 587.89 635.59H545C543.68 635.591 542.402 635.123 541.394 634.269C540.387 633.416 539.716 632.232 539.5 630.93L532 585.18H601.57Z" stroke="#BCA3DC" stroke-width="4.82" stroke-miterlimit="10"/>
<path d="M609.371 580.06C609.256 581.454 608.622 582.753 607.594 583.701C606.566 584.65 605.22 585.177 603.821 585.18H529.821C528.442 585.18 527.111 584.669 526.086 583.746C525.061 582.822 524.415 581.552 524.271 580.18C524.197 579.407 524.286 578.627 524.531 577.89C524.777 577.153 525.173 576.476 525.696 575.902C526.219 575.327 526.856 574.868 527.566 574.555C528.277 574.241 529.045 574.079 529.821 574.08H603.821C604.587 574.081 605.344 574.239 606.046 574.546C606.747 574.852 607.378 575.3 607.899 575.861C608.42 576.422 608.819 577.085 609.073 577.807C609.326 578.53 609.428 579.297 609.371 580.06Z" stroke="#BCA3DC" stroke-width="4.82" stroke-miterlimit="10"/>
<path d="M569.152 574C569.152 571.65 575.152 542.38 570.152 516.43C567.432 502.19 561.432 488.96 549.352 481.71" stroke="#BCA3DC" stroke-width="4.82" stroke-miterlimit="10"/>
<path d="M570.172 516.47C570.172 516.47 571.542 496.75 588.582 495.39" stroke="#BCA3DC" stroke-width="4.82" stroke-miterlimit="10"/>
<path d="M572 546.559C576.848 543.163 582.687 541.474 588.6 541.759" stroke="#BCA3DC" stroke-width="4.82" stroke-miterlimit="10"/>
<path d="M572 532.55C572 532.55 559.62 517.89 539.84 529.49" stroke="#BCA3DC" stroke-width="4.82" stroke-miterlimit="10"/>
<path d="M563.27 526.65C563.27 526.65 535.39 501.19 529.93 535.65C529.93 535.65 537.78 540.76 549.37 535.65C560.96 530.54 563.27 526.65 563.27 526.65Z" stroke="#BCA3DC" stroke-width="4.82" stroke-miterlimit="10"/>
<path d="M576.298 501.39C576.298 501.39 575.298 489.93 588.578 486.18C601.858 482.43 609.388 498.12 609.388 498.12C609.388 498.12 599.138 509.45 576.298 501.39Z" stroke="#BCA3DC" stroke-width="4.82" stroke-miterlimit="10"/>
<path d="M579.38 541.75C579.38 541.75 578.92 530.16 594.38 532.55C609.84 534.94 612.38 548.13 612.38 548.13C612.38 548.13 587.06 557.41 579.38 542.97" stroke="#BCA3DC" stroke-width="4.82" stroke-miterlimit="10"/>
<path d="M560.749 492.47C560.749 493.29 549.129 491.47 548.389 491.21C542.759 489.53 538.759 485.63 536.129 480.47C535.319 478.87 530.629 469.9 531.959 468.34C531.999 468.34 559.619 459.44 560.749 492.47Z" stroke="#BCA3DC" stroke-width="4.82" stroke-miterlimit="10"/>
<path d="M833.359 495.58C824.639 521.586 810.202 545.307 791.109 565C754.999 602.78 700.729 629.84 632.109 636.17V495.58H833.359Z" stroke="#BCA3DC" stroke-width="4.82" stroke-miterlimit="10"/>
<path d="M791.109 565C754.999 602.78 700.729 629.84 632.109 636.17V565H791.109Z" stroke="#BCA3DC" stroke-width="4.82" stroke-miterlimit="10"/>
<path d="M770.22 531.674C770.22 526.066 765.674 521.52 760.065 521.52C754.457 521.52 749.91 526.066 749.91 531.674C749.91 537.283 754.457 541.83 760.065 541.83C765.674 541.83 770.22 537.283 770.22 531.674Z" stroke="#BCA3DC" stroke-width="4.82" stroke-miterlimit="10"/>
</svg>
