<svg width="686" height="906" viewBox="0 0 686 906" fill="none" xmlns="http://www.w3.org/2000/svg">
<path d="M569.21 624.77C567.987 624.626 566.772 624.419 565.57 624.15" stroke="#BCA3DC" stroke-width="5.21" stroke-miterlimit="10"/>
<path d="M79.7188 241.51C79.7188 241.51 39.9988 44.84 220.319 6.49C230.933 4.1956 241.759 3.0258 252.619 3C287.089 3 318.769 15.73 345.269 41.31C360.619 56.16 371.199 74.31 382.629 91.75C389.799 102.75 397.359 113.45 406.629 122.97C432.249 149.28 466.959 160.47 500.709 172.97C530.389 183.9 559.309 195.86 580.589 219.97C607.669 250.61 635.589 282.9 649.899 321.83C655.84 338.135 660.37 354.92 663.439 372C671.189 414.5 671.499 457.91 662.099 500.14C651.939 545.85 625.399 588.89 590.499 619.87" stroke="#BCA3DC" stroke-width="5.21" stroke-miterlimit="10"/>
<path d="M599.501 563.91L589.711 618.66C589.439 620.195 588.633 621.585 587.437 622.586C586.241 623.586 584.731 624.133 583.171 624.13H532.001C530.427 624.13 528.903 623.571 527.702 622.553C526.5 621.535 525.7 620.124 525.441 618.57L516.441 563.91H599.501Z" stroke="#BCA3DC" stroke-width="5.21" stroke-miterlimit="10"/>
<path d="M608.81 557.8C608.674 559.465 607.917 561.018 606.688 562.15C605.46 563.282 603.85 563.911 602.18 563.91H513.9C512.249 563.91 510.658 563.296 509.436 562.187C508.214 561.077 507.449 559.553 507.29 557.91C507.199 556.988 507.302 556.056 507.593 555.176C507.884 554.296 508.356 553.487 508.979 552.8C509.601 552.113 510.361 551.565 511.209 551.189C512.056 550.814 512.973 550.62 513.9 550.62H602.18C603.097 550.621 604.005 550.812 604.845 551.181C605.685 551.55 606.441 552.088 607.063 552.762C607.686 553.436 608.162 554.232 608.463 555.099C608.763 555.966 608.881 556.885 608.81 557.8Z" stroke="#BCA3DC" stroke-width="5.21" stroke-miterlimit="10"/>
<path d="M560.799 550.61C560.799 547.81 567.929 512.88 562.019 481.9C558.779 464.9 551.609 449.11 537.199 440.46" stroke="#BCA3DC" stroke-width="5.21" stroke-miterlimit="10"/>
<path d="M562 481.9C562 481.9 563.63 458.37 584 456.74" stroke="#BCA3DC" stroke-width="5.21" stroke-miterlimit="10"/>
<path d="M564.18 517.81C569.969 513.757 576.941 511.744 584 512.09" stroke="#BCA3DC" stroke-width="5.21" stroke-miterlimit="10"/>
<path d="M564.181 501.1C564.181 501.1 549.411 483.6 525.801 497.44" stroke="#BCA3DC" stroke-width="5.21" stroke-miterlimit="10"/>
<path d="M553.78 494.06C553.78 494.06 520.51 463.66 514 504.76C514 504.76 523.36 510.87 537.2 504.76C551.04 498.65 553.78 494.06 553.78 494.06Z" stroke="#BCA3DC" stroke-width="5.21" stroke-miterlimit="10"/>
<path d="M569.341 463.91C569.341 463.91 568.131 450.23 584.001 445.75C599.871 441.27 608.831 460 608.831 460C608.831 460 596.601 473.52 569.341 463.91Z" stroke="#BCA3DC" stroke-width="5.21" stroke-miterlimit="10"/>
<path d="M573.002 512.07C573.002 512.07 572.462 498.24 590.912 501.07C609.362 503.9 612.352 519.66 612.352 519.66C612.352 519.66 582.122 530.74 573.002 513.5" stroke="#BCA3DC" stroke-width="5.21" stroke-miterlimit="10"/>
<path d="M550.781 453.25C550.781 454.25 536.901 452.01 536.021 451.75C529.301 449.75 524.531 445.09 521.391 438.93C520.391 437.02 514.831 426.31 516.391 424.45C516.411 424.45 549.421 413.83 550.781 453.25Z" stroke="#BCA3DC" stroke-width="5.21" stroke-miterlimit="10"/>
<path d="M461.728 297.47L432.428 330.22H412.328L381.878 349.67C375.611 348.544 369.177 348.739 362.99 350.244C356.803 351.749 350.998 354.531 345.948 358.41C332.638 368.41 291.628 408.95 270.828 413.41C265.828 401.48 259.398 390.09 255.828 385.03L401.328 315.03L407.998 297.47L450.188 280.47L461.728 297.47Z" fill="#D7C8EA"/>
<path d="M246.32 624.29L185.15 623.83C164.193 623.685 143.674 617.806 125.82 606.83C138.376 606.815 150.896 605.475 163.17 602.83C164.02 602.83 164.9 602.83 165.78 602.83C180.12 602.22 192.78 592.51 201.1 580.83C209.42 569.15 214.45 555.48 220.58 542.47C226.71 529.46 234.47 516.62 246.51 508.76C247.66 508 248.85 507.31 250.04 506.65C268.209 505.484 286.43 505.384 304.61 506.35C288.39 514 231.59 546.44 246.32 624.29Z" fill="#9E7ACD"/>
<path d="M313.822 463.78C313.822 463.78 307.822 482.05 326.872 489.21C345.922 496.37 344.192 488.93 344.172 501.68C344.172 501.68 348.012 507.2 340.092 507.38C332.172 507.56 300.522 502.6 288.532 504.18C276.542 505.76 254.532 504.79 275.932 498.5C297.332 492.21 311.302 481.84 313.822 463.78Z" fill="#9E7ACD"/>
<path d="M201.911 400.47C205.559 401.487 208.817 403.577 211.261 406.47C215.721 411.47 223.011 417.27 224.161 432.35C225.311 447.43 231.491 452.11 232.851 453.41C234.211 454.71 233.211 459.41 224.291 458.58C215.371 457.75 189.391 453.68 190.541 423.19C190.541 423.15 189.761 405.73 201.911 400.47Z" fill="#4B4453"/>
<path d="M165.469 603.48C153.194 606.125 140.675 607.465 128.119 607.48C127.959 607.36 127.769 607.29 127.619 607.17C117.137 606.907 106.695 605.779 96.3986 603.8C55.1686 595.93 -53.1714 422.39 38.8686 368.7C38.8686 368.7 41.6686 367.85 46.4986 366.7C51.7586 373.37 59.0786 378.58 68.6686 381.77C64.9916 384.99 61.8136 388.737 59.2386 392.89C52.0586 404.4 50.2986 418.51 50.7586 432.09C51.6786 460.85 61.6486 488.62 74.4986 514.39C89.1486 543.81 108.249 571.88 134.939 591.06C143.999 597.5 154.419 603.1 165.469 603.48Z" fill="#D7C8EA"/>
<path d="M95.779 230.35C95.779 230.35 95.2789 232.77 101.559 233.22C107.839 233.67 134.489 234.88 137.369 264.22C140.249 293.56 124.809 330.52 133.849 332.74C142.889 334.96 162.509 340.14 168.309 336.54C174.109 332.94 206.309 312.29 242.449 326.26C242.449 326.26 248.149 331.84 248.289 316.06C248.429 300.28 250.499 274.74 239.629 278.24C228.759 281.74 221.629 275.83 218.479 289.66C215.329 303.49 187.559 291.49 187.559 291.49C187.559 291.49 170.079 277 160.609 249C151.139 221 126.999 221.5 119.139 222.63C111.279 223.76 95.779 230.35 95.779 230.35Z" fill="#4B4453"/>
<path d="M508.929 843C502.099 839.28 502.249 834 498.379 829.35L492.749 841.26C492.23 844.068 492.545 846.967 493.656 849.597C494.766 852.228 496.624 854.475 498.999 856.06L552.599 901.17C554.201 902.249 556.065 902.872 557.993 902.973C559.922 903.074 561.841 902.648 563.546 901.742C565.251 900.836 566.678 899.484 567.674 897.829C568.67 896.175 569.197 894.281 569.199 892.35C569.204 891.186 569.012 890.03 568.629 888.93L462.199 572.64C459.261 563.894 454.625 555.815 448.557 548.865C442.49 541.914 435.109 536.231 426.839 532.14C396.999 517.34 336.999 498.61 255.449 505.74" stroke="#333333" stroke-width="5.21" stroke-linecap="round" stroke-linejoin="round"/>
<path d="M498.381 829.38C460.831 778.06 406.381 692.92 395.891 660.16C384.891 626.03 354.051 624.69 324.251 625.42L187.451 624.42C166.298 624.29 145.593 618.317 127.621 607.16" stroke="#333333" stroke-width="5.21" stroke-linecap="round" stroke-linejoin="round"/>
<path d="M421.131 529.42C420.901 500.66 421.051 442.42 421.201 396.42C421.321 357.61 376.911 334.98 345.921 358.42C332.461 368.54 317.541 378.94 301.391 396.5" stroke="#333333" stroke-width="5.21" stroke-linecap="round" stroke-linejoin="round"/>
<path d="M349.18 461.69C349.18 461.69 341 484.63 345 508.06" stroke="#333333" stroke-width="5.21" stroke-linecap="round" stroke-linejoin="round"/>
<path d="M231.702 324.47H231.592C201.452 319.02 179.592 327.8 164.672 339.16" stroke="#333333" stroke-width="5.21" stroke-linecap="round" stroke-linejoin="round"/>
<path d="M46.5007 366.66C41.6707 367.84 38.8706 368.66 38.8706 368.66C-53.1294 422.35 55.1707 595.89 96.4007 603.76C106.697 605.739 117.139 606.867 127.621 607.13C152.201 607.82 168.311 603.56 168.311 603.56" stroke="#333333" stroke-width="5.21" stroke-linecap="round" stroke-linejoin="round"/>
<path d="M111.738 414.71L168.308 533.6L180.528 517.3L129.118 414.71H111.738Z" stroke="#333333" stroke-width="5.21" stroke-linecap="round" stroke-linejoin="round"/>
<path d="M141.73 439.87L194.46 414.52V414.48L211.26 406.43" stroke="#333333" stroke-width="5.21" stroke-linecap="round" stroke-linejoin="round"/>
<path d="M381.849 349.67L412.339 330.22H432.439L461.739 297.47L450.199 280.48L408.009 297.47L401.299 315L255.789 385.03" stroke="#333333" stroke-width="5.21" stroke-linecap="round" stroke-linejoin="round"/>
<path d="M273.199 415.36L301.389 396.49" stroke="#333333" stroke-width="5.21" stroke-linecap="round" stroke-linejoin="round"/>
<path d="M227.331 446.04L211.921 456.36L165.551 487.39" stroke="#333333" stroke-width="5.21" stroke-linecap="round" stroke-linejoin="round"/>
<path d="M277.608 355.11C276.878 331.91 267.328 308.59 257.938 287.69C256.302 284.038 254.483 280.47 252.488 277" stroke="#333333" stroke-width="5.21" stroke-linecap="round" stroke-linejoin="round"/>
<path d="M211.92 238.83C220.01 262.38 231.17 306.48 197.07 295.83C151.07 281.45 175.02 210.96 111.74 223.69C111.603 223.729 111.462 223.753 111.32 223.76C111.294 223.752 111.266 223.752 111.24 223.76H111.16" stroke="#333333" stroke-width="5.21" stroke-linecap="round" stroke-linejoin="round"/>
<path d="M90.5703 234.07C115.38 230.2 157.07 235.95 129.11 330.18" stroke="#333333" stroke-width="5.21" stroke-linecap="round" stroke-linejoin="round"/>
<path d="M246.85 328.11C249.733 311.548 249.134 294.567 245.09 278.25" stroke="#333333" stroke-width="5.21" stroke-linecap="round" stroke-linejoin="round"/>
<path d="M343.88 492.1C343.88 492.1 310.06 491.42 311.74 471.86" stroke="#333333" stroke-width="5.21" stroke-linecap="round" stroke-linejoin="round"/>
<path d="M311.172 505.17C311.172 505.17 231.472 534.28 248.632 624.87" stroke="#333333" stroke-width="5.21" stroke-linecap="round" stroke-linejoin="round"/>
<path d="M201.912 400.47C197.243 403.636 193.782 408.288 192.092 413.67C189.775 421.589 190.243 430.064 193.419 437.679C196.594 445.295 202.285 451.592 209.542 455.52C216.332 458.97 223.932 459.58 230.752 456.59C231.969 456.047 233.126 455.376 234.202 454.59" stroke="#333333" stroke-width="5.21" stroke-linecap="round" stroke-linejoin="round"/>
<path d="M301.379 396.49C305.286 405.62 308.501 415.029 310.999 424.64C311.116 424.966 311.206 425.3 311.269 425.64C311.659 427.14 311.999 428.64 312.349 430.2C312.729 432.01 313.109 433.77 313.459 435.57C313.539 436.15 313.649 436.72 313.729 437.3C313.745 437.403 313.745 437.508 313.729 437.61C313.799 438.03 313.879 438.45 313.959 438.91C314.029 439.64 314.149 440.41 314.299 441.21C314.279 441.299 314.279 441.391 314.299 441.48" stroke="#333333" stroke-width="5.21" stroke-linecap="round" stroke-linejoin="round"/>
<path d="M187.551 345C199.551 333.54 215.361 324.26 231.551 324.45H231.661C232.931 324.45 234.271 324.52 235.541 324.68C246.351 325.83 255.541 333 263.301 340.59C272.351 349.424 280.369 359.257 287.201 369.9" stroke="#333333" stroke-width="5.21" stroke-linecap="round" stroke-linejoin="round"/>
<path d="M313.781 437.3C313.797 437.402 313.797 437.507 313.781 437.61C313.851 438.03 313.931 438.45 314.011 438.91C315.621 451.68 315.541 463.46 310.061 475.27C305.421 485.27 295.061 491.57 285.131 495.36C272.971 500.01 259.701 502.27 248.811 509.36C236.811 517.22 229.021 530.07 222.881 543.07C216.741 556.07 211.761 569.73 203.401 581.43C195.041 593.13 182.401 602.83 168.081 603.43C156.081 603.89 144.681 597.98 134.901 590.97C108.211 571.79 89.1106 543.72 74.4606 514.3C61.6106 488.53 51.6406 460.76 50.7206 432C50.2606 418.42 52.0206 404.31 59.2006 392.8C61.7756 388.647 64.9536 384.899 68.6306 381.68" stroke="#333333" stroke-width="5.21" stroke-linecap="round" stroke-linejoin="round"/>
<path d="M248.629 624.87H5.30859" stroke="#333333" stroke-width="5.21" stroke-linecap="round" stroke-linejoin="round"/>
<path d="M625.662 624.87H479.922" stroke="#333333" stroke-width="5.21" stroke-linecap="round" stroke-linejoin="round"/>
<path d="M304.53 172.86V232.32C304.542 238.105 302.831 243.763 299.615 248.572C296.398 253.381 291.822 257.122 286.47 259.32C272.24 265.12 253.4 271.64 222.25 272.75V230.35C230.71 233.74 240.47 231.58 247.25 225.47C248.7 224.17 250.12 222.91 251.45 221.8C256.66 217.29 260.89 214.38 263.02 215.19C267.44 216.82 268.02 216.82 270.74 202.5C272.74 192.19 289.42 180.79 293.44 161.84C294.268 157.897 294.498 153.851 294.12 149.84C293.644 144.921 292.469 140.096 290.63 135.51C287.959 128.65 284.249 122.241 279.63 116.51L288.28 125.37C289.08 126.21 289.85 127.04 290.56 127.91C301.17 140.29 304.53 156.25 304.53 172.86Z" fill="#9E7ACD"/>
<path d="M293.85 159.52C293.75 160.32 293.6 161.1 293.45 161.84C291.53 161.71 286.04 162.48 279.74 166.13C275.333 168.67 271.444 172.018 268.28 176C263.47 182 240.37 208.17 221.2 229.81L214.1 237.81C213.056 238.987 211.768 239.921 210.325 240.547C208.882 241.173 207.32 241.476 205.747 241.434C204.175 241.392 202.631 241.006 201.224 240.304C199.816 239.602 198.579 238.601 197.6 237.37L150.43 178.27C147.323 174.34 145.833 169.372 146.264 164.38C146.696 159.389 149.015 154.75 152.75 151.41L195.3 113.41L197 112C197.83 111.39 198.66 110.8 199.48 110.23C226.07 93.4098 252.22 95.1698 271.48 108.14L279.66 116.53C284.279 122.262 287.989 128.67 290.66 135.53C294.25 144.7 294.9 152.6 293.85 159.52Z" fill="#9E7ACD"/>
<path d="M279.64 116.54L271.46 108.15L271 107.68C271.071 107.711 271.135 107.755 271.19 107.81L271.96 108.49C274.664 110.868 277.163 113.471 279.43 116.27C279.49 116.36 279.58 116.45 279.64 116.54Z" fill="#9E7ACD"/>
<path d="M277 112.31C277.071 112.34 277.136 112.384 277.19 112.44C280.189 115.002 282.947 117.834 285.43 120.9C285.49 120.99 285.59 121.08 285.65 121.17L277 112.31Z" fill="#9E7ACD"/>
<path d="M201.129 252.48C206.129 246.83 213.359 238.71 221.129 229.85C240.369 208.21 263.469 182 268.279 176C278.279 163.65 290.389 161.61 293.449 161.8" stroke="#333333" stroke-width="5.21" stroke-linecap="round" stroke-linejoin="round"/>
<path d="M221.169 229.85C221.51 230.035 221.86 230.201 222.219 230.35C230.679 233.74 240.439 231.58 247.219 225.47C254.349 219.05 260.309 214.17 262.989 215.19C267.409 216.82 267.989 216.82 270.709 202.5C272.709 192.19 289.389 180.79 293.409 161.84C294.979 154.36 294.609 145.72 290.599 135.53C287.925 128.671 284.215 122.264 279.599 116.53C279.529 116.44 279.439 116.35 279.379 116.26C276.896 113.195 274.138 110.363 271.139 107.8C271.084 107.745 271.019 107.701 270.949 107.67C249.889 89.7999 218.279 86.5899 186.849 110.17C186.289 110.61 185.739 111.07 185.209 111.53L142.669 149.53C138.934 152.863 136.614 157.497 136.182 162.484C135.751 167.472 137.242 172.435 140.349 176.36L201.079 252.43" stroke="#333333" stroke-width="5.21" stroke-linecap="round" stroke-linejoin="round"/>
<path d="M265.738 179.62C265.738 179.62 269.978 178.99 274.228 182.85" stroke="#333333" stroke-width="5.21" stroke-linecap="round" stroke-linejoin="round"/>
<path d="M265.095 189.691C266.752 187.759 267.114 185.35 265.903 184.31C264.692 183.271 262.367 183.995 260.709 185.927C259.051 187.859 258.688 190.268 259.899 191.308C261.111 192.347 263.437 191.623 265.095 189.691Z" fill="#333333"/>
<path d="M271 107.68L279.65 116.54L288.29 125.4C300.67 138.09 304.53 155.11 304.53 172.86V239.79C304.542 245.575 302.831 251.233 299.615 256.042C296.398 260.851 291.822 264.592 286.47 266.79C272.24 272.59 253.4 279.11 222.25 280.22V230.35" stroke="#333333" stroke-width="5.21" stroke-linecap="round" stroke-linejoin="round"/>
<path d="M251.441 221.79C251.441 221.79 244.511 224.12 242.441 214.86" stroke="#333333" stroke-width="5.21" stroke-linecap="round" stroke-linejoin="round"/>
<path d="M165.749 208.17L157.289 218.39C156.547 219.281 155.597 219.976 154.522 220.412C153.448 220.848 152.282 221.012 151.129 220.89C145.349 220.33 139.559 220.07 133.789 220.07C46.5389 220.07 -10.7611 378.12 85.8489 384.99C180.539 391.7 218.169 387.56 224.849 436.76C226.419 448.35 233.439 459.76 246.589 455.33C262.969 449.84 273.359 430.05 270.759 413.41C268.109 396.49 255.339 382.34 242.409 372.06C216.989 351.93 185.879 343.38 154.659 337.06C144.539 335.06 112.359 332.38 122.559 315" stroke="#333333" stroke-width="5.21" stroke-linecap="round" stroke-linejoin="round"/>
<path d="M260.06 483.16H257.32V479.76H260.06C260.989 479.76 261.879 479.391 262.535 478.735C263.192 478.079 263.56 477.188 263.56 476.26V452.93L288.12 442.41V468.41C288.12 470.267 287.383 472.047 286.07 473.36C284.757 474.673 282.977 475.41 281.12 475.41H277.91V472H281.12C282.072 472 282.986 471.622 283.659 470.949C284.332 470.275 284.71 469.362 284.71 468.41V447.56L267 455.18V476.26C266.999 477.169 266.818 478.069 266.469 478.908C266.119 479.748 265.607 480.509 264.962 481.15C264.318 481.791 263.553 482.299 262.712 482.644C261.87 482.989 260.969 483.164 260.06 483.16Z" fill="#D7C8EA"/>
<path d="M255.53 485.15C257.568 485.15 259.22 483.497 259.22 481.46C259.22 479.422 257.568 477.77 255.53 477.77C253.492 477.77 251.84 479.422 251.84 481.46C251.84 483.497 253.492 485.15 255.53 485.15Z" fill="#D7C8EA"/>
<path d="M278.01 477.78C280.048 477.78 281.7 476.128 281.7 474.09C281.7 472.052 280.048 470.4 278.01 470.4C275.972 470.4 274.32 472.052 274.32 474.09C274.32 476.128 275.972 477.78 278.01 477.78Z" fill="#D7C8EA"/>
<g opacity="0.54">
<path opacity="0.54" d="M485.098 273.66L480.848 275.44L478.628 270.15L482.888 268.37C484.331 267.765 485.474 266.612 486.067 265.164C486.659 263.717 486.653 262.093 486.048 260.65L469.898 222.08L474.278 222.15C475.018 222.15 492.498 222.62 503.378 237.15L498.788 240.59C492.728 232.52 484.058 229.59 478.788 228.53L491.328 258.53C492.49 261.364 492.487 264.542 491.32 267.374C490.154 270.207 487.919 272.465 485.098 273.66Z" fill="#9E7ACD"/>
<path opacity="0.54" d="M476.948 280.18C480.378 280.18 483.158 277.399 483.158 273.97C483.158 270.54 480.378 267.76 476.948 267.76C473.519 267.76 470.738 270.54 470.738 273.97C470.738 277.399 473.519 280.18 476.948 280.18Z" fill="#9E7ACD"/>
</g>
<g opacity="0.46">
<path opacity="0.46" d="M342.001 308.87H337.371V303.12H342.001C343.57 303.117 345.075 302.493 346.184 301.383C347.294 300.274 347.918 298.769 347.921 297.2V257.75L389.451 240V284C389.446 287.135 388.197 290.14 385.98 292.356C383.762 294.572 380.756 295.817 377.621 295.82H372.191V290H377.621C378.418 290 379.208 289.843 379.944 289.538C380.68 289.233 381.35 288.786 381.913 288.222C382.477 287.658 382.924 286.989 383.229 286.253C383.534 285.516 383.691 284.727 383.691 283.93V248.67L353.691 261.55V297.2C353.69 298.734 353.386 300.252 352.798 301.669C352.21 303.086 351.349 304.372 350.263 305.456C349.178 306.54 347.889 307.399 346.472 307.985C345.054 308.571 343.535 308.871 342.001 308.87Z" fill="#9E7ACD"/>
<path opacity="0.46" d="M334.32 312.22C337.761 312.22 340.55 309.43 340.55 305.99C340.55 302.549 337.761 299.76 334.32 299.76C330.879 299.76 328.09 302.549 328.09 305.99C328.09 309.43 330.879 312.22 334.32 312.22Z" fill="#9E7ACD"/>
<path opacity="0.46" d="M372.351 299.76C375.792 299.76 378.581 296.971 378.581 293.53C378.581 290.089 375.792 287.3 372.351 287.3C368.91 287.3 366.121 290.089 366.121 293.53C366.121 296.971 368.91 299.76 372.351 299.76Z" fill="#9E7ACD"/>
</g>
<path d="M526.231 355.14L524.331 357.38L521.551 355L523.451 352.76C523.771 352.385 524.013 351.95 524.164 351.481C524.316 351.012 524.373 350.518 524.333 350.026C524.293 349.535 524.157 349.056 523.932 348.618C523.707 348.179 523.397 347.789 523.021 347.47L503.941 331.27L512.391 303.86L533.661 321.92C535.177 323.21 536.119 325.048 536.282 327.031C536.445 329.014 535.816 330.981 534.531 332.5L532.291 335.13L529.511 332.76L531.741 330.14C532.069 329.755 532.318 329.309 532.473 328.827C532.629 328.346 532.688 327.838 532.647 327.334C532.606 326.83 532.466 326.339 532.235 325.888C532.004 325.438 531.687 325.038 531.301 324.71L514.301 310.23L508.191 330.04L525.431 344.68C526.172 345.314 526.78 346.088 527.221 346.956C527.662 347.825 527.927 348.773 528.001 349.744C528.075 350.716 527.957 351.693 527.654 352.619C527.35 353.545 526.867 354.401 526.231 355.14Z" fill="#9E7ACD"/>
<path d="M521.688 361.62C523.87 361.62 525.638 359.851 525.638 357.67C525.638 355.488 523.87 353.72 521.688 353.72C519.507 353.72 517.738 355.488 517.738 357.67C517.738 359.851 519.507 361.62 521.688 361.62Z" fill="#9E7ACD"/>
<path d="M531.278 338.1C533.46 338.1 535.228 336.332 535.228 334.15C535.228 331.969 533.46 330.2 531.278 330.2C529.097 330.2 527.328 331.969 527.328 334.15C527.328 336.332 529.097 338.1 531.278 338.1Z" fill="#9E7ACD"/>
<path d="M600.429 412.61L594.879 410.75L597.199 403.84L602.749 405.71C603.681 406.024 604.666 406.151 605.648 406.084C606.63 406.018 607.588 405.758 608.47 405.321C609.351 404.883 610.137 404.277 610.784 403.535C611.431 402.794 611.925 401.932 612.239 401L628.159 353.68L685.159 349.09L667.409 401.86C666.135 405.626 663.419 408.733 659.856 410.497C656.294 412.262 652.176 412.539 648.409 411.27L641.999 409.08L644.319 402.17L650.839 404.37C652.771 405.015 654.88 404.869 656.705 403.964C658.53 403.059 659.923 401.468 660.579 399.54L674.809 357.24L633.569 360.56L619.179 403.33C618.557 405.171 617.579 406.871 616.301 408.333C615.022 409.796 613.468 410.993 611.726 411.854C609.985 412.716 608.091 413.226 606.153 413.356C604.214 413.486 602.269 413.232 600.429 412.61Z" fill="#9E7ACD"/>
<path d="M592.39 413.96C596.748 413.96 600.28 410.427 600.28 406.07C600.28 401.712 596.748 398.18 592.39 398.18C588.032 398.18 584.5 401.712 584.5 406.07C584.5 410.427 588.032 413.96 592.39 413.96Z" fill="#9E7ACD"/>
<path d="M643.05 414.36C647.408 414.36 650.94 410.828 650.94 406.47C650.94 402.113 647.408 398.58 643.05 398.58C638.693 398.58 635.16 402.113 635.16 406.47C635.16 410.828 638.693 414.36 643.05 414.36Z" fill="#9E7ACD"/>
<path d="M469.271 420L466.191 418.3L468.301 414.47L471.381 416.17C472.425 416.746 473.655 416.884 474.8 416.554C475.946 416.224 476.914 415.453 477.491 414.41L492.891 386.5L494.891 389.16C495.231 389.61 503.231 400.27 499.731 413.62L495.501 412.5C496.925 406.538 496.121 400.261 493.241 394.85L481.241 416.52C480.103 418.556 478.209 420.062 475.97 420.713C473.73 421.365 471.324 421.108 469.271 420Z" fill="#9E7ACD"/>
<path d="M465.228 420C467.846 420 469.968 417.877 469.968 415.26C469.968 412.642 467.846 410.52 465.228 410.52C462.61 410.52 460.488 412.642 460.488 415.26C460.488 417.877 462.61 420 465.228 420Z" fill="#9E7ACD"/>
<g opacity="0.56">
<path opacity="0.56" d="M385.769 440.73L381.579 442.73L378.409 436C376.401 437.113 374.184 437.794 371.899 438C369.985 438.167 368.06 437.855 366.298 437.09C364.536 436.325 362.993 435.132 361.809 433.62C359.699 431.04 358.369 427.62 357.749 423.12C356.529 414.34 358.289 405.65 360.609 398.22L357.999 392.64C357.239 391.04 355.999 388.36 356.999 385.64C357.379 384.751 357.968 383.967 358.716 383.355C359.465 382.743 360.35 382.321 361.297 382.124C362.243 381.928 363.224 381.963 364.154 382.227C365.084 382.491 365.936 382.976 366.639 383.64C369.639 386.82 367.909 391.51 367.159 393.51C366.649 394.9 366.159 396.37 365.619 397.9L372.829 413.22C376.829 410.41 382.409 411.3 385.879 415.28C389.059 418.92 389.229 423.94 386.339 428.7C385.259 430.457 383.909 432.033 382.339 433.37L385.769 440.73ZM363.629 404.61C362.088 410.427 361.65 416.482 362.339 422.46C362.839 426.07 363.839 428.75 365.399 430.65C366.118 431.581 367.061 432.315 368.139 432.785C369.218 433.256 370.397 433.446 371.569 433.34C373.282 433.175 374.942 432.651 376.439 431.8L372.359 423.13C372.279 423.55 372.209 423.99 372.159 424.44L367.549 423.9C367.814 421.534 368.491 419.233 369.549 417.1L363.629 404.61ZM374.839 417.52L380.219 429C381.031 428.192 381.743 427.289 382.339 426.31C383.199 424.9 384.929 421.31 382.339 418.31C380.709 416.45 377.769 415.31 375.439 417.01C375.223 417.161 375.023 417.332 374.839 417.52ZM361.839 386.74C361.728 386.782 361.627 386.844 361.542 386.925C361.456 387.006 361.387 387.103 361.339 387.21C361.029 388.05 361.619 389.43 362.199 390.66L362.779 391.9C363.409 390.19 364.149 387.8 363.239 386.84C363.098 386.733 362.935 386.659 362.762 386.624C362.589 386.59 362.41 386.595 362.239 386.64C362.098 386.655 361.96 386.688 361.829 386.74H361.839Z" fill="#9E7ACD"/>
</g>
<path d="M573.192 316.14L568.192 312.49L574.022 304.49C571.454 302.84 569.257 300.674 567.572 298.13C566.158 296 565.298 293.551 565.069 291.006C564.841 288.46 565.251 285.897 566.262 283.55C567.932 279.44 571.102 275.7 575.942 272.12C585.432 265.12 596.712 261.63 606.872 259.6L611.692 253.02C613.092 251.11 615.422 247.93 619.232 247.35C620.518 247.212 621.819 247.391 623.02 247.871C624.222 248.351 625.288 249.117 626.126 250.102C626.964 251.088 627.548 252.264 627.828 253.527C628.108 254.79 628.075 256.102 627.732 257.35C625.942 262.89 619.342 263.84 616.532 264.25C614.532 264.53 612.532 264.85 610.422 265.25L597.102 283.44C602.922 286.32 605.452 293.44 603.012 300C600.772 306 595.012 309.44 587.602 309.08C584.862 308.931 582.163 308.354 579.602 307.37L573.192 316.14ZM601.312 267.26C593.842 269.26 586.192 272.26 579.632 277.12C575.732 280 573.242 282.87 572.012 285.91C571.377 287.341 571.116 288.91 571.252 290.47C571.388 292.03 571.918 293.53 572.792 294.83C574.069 296.729 575.736 298.335 577.682 299.54L585.222 289.25C584.682 289.43 584.132 289.63 583.572 289.85L581.272 284.12C584.195 282.923 587.305 282.246 590.462 282.12L601.312 267.26ZM593.362 288.58L583.432 302.15C584.894 302.577 586.401 302.835 587.922 302.92C590.122 303.02 595.432 302.74 597.242 297.86C598.382 294.78 597.792 290.64 594.362 288.96C594.039 288.807 593.704 288.68 593.362 288.58ZM621.062 253.77C620.817 253.571 620.507 253.467 620.192 253.48C619.012 253.66 617.772 255.23 616.702 256.69L615.632 258.16C618.032 257.82 621.292 257.16 621.842 255.48C621.877 255.238 621.856 254.99 621.78 254.758C621.703 254.525 621.574 254.314 621.402 254.14C621.301 254.005 621.187 253.882 621.062 253.77Z" fill="#9E7ACD"/>
</svg>
