<svg width="903" height="595" viewBox="0 0 903 595" fill="none" xmlns="http://www.w3.org/2000/svg">
<path d="M735.289 439.08L782.459 490.57V260.47" stroke="#D7C8EA" stroke-opacity="0.67" stroke-width="4.24" stroke-miterlimit="10"/>
<path d="M782.461 457.94L825.101 420.46" stroke="#D7C8EA" stroke-opacity="0.67" stroke-width="4.24" stroke-miterlimit="10"/>
<path d="M782.459 364.6L753.379 332.05" stroke="#D7C8EA" stroke-opacity="0.67" stroke-width="4.24" stroke-miterlimit="10"/>
<path d="M782.461 335.31L803.781 322.47" stroke="#D7C8EA" stroke-opacity="0.67" stroke-width="4.24" stroke-miterlimit="10"/>
<path d="M782.462 273.82C782.462 269.92 767.922 242.35 767.922 242.35" stroke="#D7C8EA" stroke-opacity="0.67" stroke-width="4.24" stroke-miterlimit="10"/>
<path d="M736.309 507.34L738.519 507.44L750.859 507.66C755.41 507.728 759.752 509.586 762.945 512.831C766.138 516.076 767.924 520.448 767.919 525V590.57" stroke="#D7C8EA" stroke-opacity="0.67" stroke-width="4.24" stroke-miterlimit="10"/>
<path d="M698.16 424.32C700.25 421.92 702.49 419.409 704.92 416.859C787.62 329.349 699.92 369.919 709.51 340.599C719.1 311.279 748.87 315.139 755.33 288.599C759.54 271.309 754.26 252.7 755.5 235.11C756.35 223.25 761.24 208.31 768.91 199.11C778.73 187.35 791.24 195.899 797.73 206.979C808.73 225.829 803.8 248.91 803.73 269.59C803.73 285.59 808.59 299.38 821.54 309.14C833.15 317.91 846.71 325.83 851.54 340.51C856.79 356.51 830.79 352.32 823.41 358.76C810.07 370.42 837.41 397.29 844.98 404.99C863.98 424.31 900.81 459.27 874.98 491.07C858.77 510.99 842.81 506.639 825.17 507.349L815.67 507.229C813.097 507.183 810.54 507.651 808.151 508.606C805.761 509.561 803.586 510.984 801.753 512.791C799.921 514.598 798.468 516.753 797.48 519.13C796.492 521.506 795.989 524.056 796 526.63" stroke="#D7C8EA" stroke-opacity="0.67" stroke-width="4.24" stroke-miterlimit="10"/>
<path d="M629.219 467.89L665.289 507.27V331.3" stroke="#D7C8EA" stroke-opacity="0.67" stroke-width="4.24" stroke-miterlimit="10"/>
<path d="M675.449 473.4L665.289 482.32" stroke="#D7C8EA" stroke-opacity="0.67" stroke-width="4.24" stroke-miterlimit="10"/>
<path d="M665.291 410.94L643.051 386.05" stroke="#D7C8EA" stroke-opacity="0.67" stroke-width="4.24" stroke-miterlimit="10"/>
<path d="M665.289 388.54L681.589 378.72" stroke="#D7C8EA" stroke-opacity="0.67" stroke-width="4.24" stroke-miterlimit="10"/>
<path d="M665.292 341.51C665.292 338.51 654.172 317.45 654.172 317.45" stroke="#D7C8EA" stroke-opacity="0.67" stroke-width="4.24" stroke-miterlimit="10"/>
<path d="M698.159 424.32C679.699 445.7 673.999 461.59 675.449 473.4C679.089 502.12 725.589 506.66 736.309 507.34" stroke="#D7C8EA" stroke-opacity="0.67" stroke-width="4.24" stroke-miterlimit="10"/>
<path d="M654.161 583.75V533.61C654.165 530.136 652.805 526.799 650.373 524.318C647.942 521.836 644.635 520.408 641.161 520.34L631.711 520.19C631.711 520.19 542.711 517.81 606.011 450.9C669.311 383.99 602.171 415.02 609.531 392.59C616.891 370.16 639.611 373.13 644.531 352.87C647.741 339.63 643.711 325.39 644.681 311.95C645.311 302.89 649.051 291.45 654.911 284.45C662.441 275.45 671.991 282 676.971 290.45C685.421 304.88 681.611 322.55 681.561 338.34C681.511 350.56 685.251 361.13 695.171 368.61C704.061 375.32 714.411 381.37 718.101 392.61C722.101 404.83 702.211 401.61 696.581 406.56C691.721 410.81 693.901 417.66 698.151 424.34" stroke="#D7C8EA" stroke-opacity="0.67" stroke-width="4.24" stroke-miterlimit="10"/>
<path d="M675.672 534.87C675.672 532.909 676.061 530.968 676.817 529.16C677.574 527.351 678.682 525.71 680.077 524.333C681.473 522.956 683.128 521.87 684.947 521.138C686.765 520.407 688.712 520.043 690.672 520.07L697.912 520.19C711.422 519.64 723.612 522.96 736.002 507.73L736.322 507.34" stroke="#D7C8EA" stroke-opacity="0.67" stroke-width="4.24" stroke-miterlimit="10"/>
<path d="M903 591.99H3" stroke="#333333" stroke-width="4.24" stroke-miterlimit="10"/>
<path d="M90.12 586C83.64 584.7 77.27 583.15 71.06 581.34C45.5605 573.88 15.9005 561.15 5.76052 534.39C3.22092 527.477 2.42162 520.045 3.43312 512.75C4.44462 505.455 7.23582 498.521 11.5605 492.56C16.1364 486.184 22.5799 481.386 30.0005 478.83C46.1405 473.62 64 481.75 76 493.76C88 505.77 95.67 521.26 105 535.4C96.52 516.4 87.92 496.89 86.75 476.13C85.83 459.95 90.24 442.41 101.39 430.25C111.66 419.06 135.671 410.25 149.811 418.52C159.141 423.95 162.861 435.52 164.461 446.15C168.851 475.34 163.211 505 157.601 533.97C161.371 518.48 165.421 502.84 173.101 488.87C180.781 474.9 192.57 462.54 207.65 457.37C218.22 453.75 230.76 454.14 239.65 460.96C247.91 467.32 251.601 478.06 252.731 488.43C254.641 505.8 250.541 523.43 243.511 539.43C217.231 599.11 144.46 596.85 90.12 586Z" stroke="#D7C8EA" stroke-opacity="0.67" stroke-width="4.24" stroke-miterlimit="10"/>
<path d="M149.328 556.41C149.328 556.41 189.778 567.65 204.068 511.41" stroke="#D7C8EA" stroke-opacity="0.67" stroke-width="4.24" stroke-miterlimit="10"/>
<path d="M131.331 460.44C120.091 485.93 131.331 562.44 131.331 562.44" stroke="#D7C8EA" stroke-opacity="0.67" stroke-width="4.24" stroke-miterlimit="10"/>
<path d="M93.842 554.68C92.152 554.39 75.932 552.12 62.102 545.76C51.3816 540.84 42.1016 533.47 42.1016 522.67" stroke="#D7C8EA" stroke-opacity="0.67" stroke-width="4.24" stroke-miterlimit="10"/>
<path d="M65.349 522.67C65.349 522.67 49.529 541.11 62.099 545.76" stroke="#D7C8EA" stroke-opacity="0.67" stroke-width="4.24" stroke-miterlimit="10"/>
<path d="M54.8516 562.54C57.1016 559.41 68.8516 565.69 76.4516 550.93" stroke="#D7C8EA" stroke-opacity="0.67" stroke-width="4.24" stroke-miterlimit="10"/>
<path d="M126.328 494.18C122.328 491.18 111.838 494.18 110.328 470.18" stroke="#D7C8EA" stroke-opacity="0.67" stroke-width="4.24" stroke-miterlimit="10"/>
<path d="M128.078 516.67C128.078 516.67 145.578 510.36 145.578 496.67" stroke="#D7C8EA" stroke-opacity="0.67" stroke-width="4.24" stroke-miterlimit="10"/>
<path d="M165.691 556.73C165.691 556.73 174.821 533.17 178.571 522.67" stroke="#D7C8EA" stroke-opacity="0.67" stroke-width="4.24" stroke-miterlimit="10"/>
<path d="M194 534.22C194 534.22 204 542.17 216 529.42" stroke="#D7C8EA" stroke-opacity="0.67" stroke-width="4.24" stroke-miterlimit="10"/>
<path d="M193.998 522.67C193.998 522.67 187.528 519.87 190.528 503.67" stroke="#D7C8EA" stroke-opacity="0.67" stroke-width="4.24" stroke-miterlimit="10"/>
<path d="M621.35 461C619.12 455.82 616.83 450.59 614.48 445.41C614.41 445.275 614.354 445.134 614.31 444.99C609.22 433.73 603.95 422.61 598.72 412.22C598.657 412.154 598.609 412.076 598.58 411.99C568.24 360.67 524.21 337.55 510.58 331.32C507.92 330.13 506.42 329.54 506.42 329.54C484.92 320.17 464.83 312.85 447.99 307.33C448.22 307.19 448.44 307.04 448.7 306.9C451.08 305.54 455.55 303 460.7 300.08L463.21 298.64C468.59 295.58 474.48 292.25 479.54 289.36C480.33 288.91 481.13 288.45 481.89 288.03C485.57 285.94 488.62 284.18 490.46 283.11C505.52 274.39 521.05 265.22 534.46 253.99C535.96 252.74 537.4 251.47 538.84 250.17C540.28 248.87 541.64 247.54 543 246.17C549.889 239.421 555.751 231.699 560.4 223.25C570.53 204.55 572.32 181.68 566.54 161.31C566.35 160.63 566.15 159.95 565.95 159.31C565.55 157.98 565.13 156.74 564.68 155.52C564.45 154.93 564.22 154.36 563.97 153.8C563.829 153.431 563.669 153.071 563.49 152.72C563.32 152.292 563.12 151.878 562.89 151.48C562.371 150.424 561.787 149.402 561.14 148.42C556.812 151.983 551.322 153.828 545.72 153.6C540.513 153.33 535.469 151.699 531.09 148.87C511.74 137.07 506.16 110.5 505.26 102.33C504.875 102.372 504.487 102.388 504.1 102.38C503.113 102.39 502.13 102.258 501.18 101.99L496.91 100.8L496.65 100.74C491.17 99.28 485.62 98.033 480 97C477.65 96.54 475.24 96.15 472.87 95.78C472.02 95.64 471.17 95.5201 470.32 95.4101C466.78 94.8701 463.22 94.41 459.65 94.08C459.09 94 458.49 93.9401 457.9 93.8801C455.15 93.6301 452.38 93.3701 449.61 93.2001C445.87 92.9501 442.11 92.7801 438.35 92.6401C430.79 92.4101 423.21 92.47 415.6 92.75C320.81 96.29 224.85 137.75 184.67 157.58C184.25 157.8 183.82 158 183.4 158.23C173.02 163.38 166.48 166.97 164.89 167.88L164.5 168.1C151.149 174.967 138.577 183.251 127 192.81C119.438 199.041 112.754 206.266 107.13 214.29L106.91 214.63C99.6099 224.84 108.55 237.78 121.25 237.55C126.91 237.44 133.31 234.72 139.36 228.04C148.11 218.45 155.36 215.51 160.64 215.22C161.964 215.16 163.283 215.416 164.489 215.966C165.695 216.516 166.753 217.344 167.576 218.383C168.4 219.422 168.964 220.642 169.224 221.942C169.483 223.241 169.431 224.584 169.07 225.86L167.69 230.79C167.3 232.189 167.222 233.657 167.463 235.09C167.703 236.522 168.255 237.885 169.081 239.08C169.906 240.276 170.984 241.275 172.238 242.008C173.493 242.74 174.893 243.188 176.34 243.32C176.633 243.334 176.927 243.334 177.22 243.32C179.27 243.318 181.27 242.68 182.942 241.495C184.615 240.309 185.879 238.634 186.56 236.7C189.505 228.248 194.374 220.596 200.783 214.348C207.192 208.1 214.965 203.428 223.49 200.7L234.04 197.3C272.508 184.934 312.951 179.877 353.28 182.39C351.64 185.08 345.98 196.06 357.92 201.89C358.12 201.97 358.32 202.08 358.54 202.17L353.14 207.49L350.51 210.12L348.86 211.7C347.62 213.12 346.37 214.56 345.13 216.01C344.79 216.4 344.42 216.83 344.08 217.25C339.92 222.25 335.79 227.55 331.75 233.18L331.15 232.76C331.15 232.76 325.15 243.59 292.07 243.96C289.812 244.275 287.711 245.297 286.07 246.88C284.85 248.204 284.071 249.874 283.84 251.66C283.748 252.323 283.748 252.996 283.84 253.66C283.84 253.83 283.9 254.03 283.92 254.22C283.946 254.402 283.986 254.583 284.04 254.76C284.246 255.585 284.548 256.384 284.94 257.14C285.308 257.835 285.726 258.503 286.19 259.14C294 265.39 309 270 309 270C309.6 268.81 310.25 267.65 310.87 266.49C310.14 267.93 309.32 269.68 308.41 271.78C311.75 272.83 315.57 273.84 319.81 274.78C316.19 273.98 312.26 273.11 308.32 271.97C308.225 271.95 308.131 271.923 308.04 271.89C308.024 271.896 308.006 271.896 307.99 271.89C300.88 269.83 293.87 266.89 288.8 261.99C288.564 261.804 288.346 261.596 288.15 261.37L287.98 261.2C287.298 260.524 286.663 259.802 286.08 259.04C283.91 257.23 282.32 255.34 281.9 253.36C281.64 259.55 283.59 272.97 302.64 282.56C299.13 289.77 295.79 297.33 292.56 305.28C235.38 445.91 84.7298 341.41 84.7298 341.41L65.6599 327.12L56.5998 339.21L64.4099 329.13L87.6398 343.37L55.8398 384.68C74.3498 401.68 237.98 544.52 366.25 398.4C366.39 398.26 376.25 386.32 376.32 386.18C377.93 386.77 379.63 387.37 381.32 387.96C510.74 432.56 511.71 417.96 560.91 496.39C583.1 531.73 595.49 551.26 602.37 562.04L662.48 562.58C658.28 551.55 638.79 501.27 621.35 461ZM363.64 284.58C367.31 285.4 370.88 286.25 374.53 287.12C370.88 286.25 367.31 285.43 363.64 284.58ZM380.64 185.49L379.54 185.26L378.54 185.06L377.38 184.83L376.67 184.69C383.49 185.6 390.28 186.69 397.02 188.12C397.103 188.105 397.187 188.105 397.27 188.12C402.45 189.113 407.6 190.273 412.72 191.6L413.2 191.72C412.95 191.86 412.72 192 412.47 192.11C410.71 191.75 408.82 191.35 406.86 190.92H406.81C397.34 189 386.44 186.73 380.61 185.49H380.64ZM425 300.25C423 299.69 421 299.18 419.17 298.67C413.31 297.08 408.17 295.67 403.47 294.45C405.98 295.05 409.86 296.01 414.84 297.37C418.15 298.24 421.94 299.37 426.19 300.54C426.33 300.59 426.47 300.62 426.61 300.68C426.95 300.76 427.32 300.88 427.66 300.99C426.76 300.73 425.86 300.51 425 300.25Z" fill="white"/>
<path d="M603.352 562L684.662 562.76C688.662 562.76 709.462 575.43 704.032 583.68C699.472 590.59 704.032 591.96 704.032 591.96H623.612L603.352 562Z" fill="#9E7ACD"/>
<path d="M354.08 207.54L351.45 210.17L349.27 212.29C349.92 211.56 350.55 210.82 351.2 210.12C351.85 209.42 352.27 208.9 352.81 208.3C353.176 207.961 353.608 207.703 354.08 207.54Z" fill="#4B4453"/>
<path d="M760.509 129.67C760.229 129.36 759.989 129.08 759.719 128.8C753.229 121.66 755.919 112.93 762.049 106.24C766.779 101.05 774.629 95.7301 781.969 95.7501C789.139 95.7501 797.039 101.97 801.329 107.28C808.669 116.36 811.629 127.93 804.189 137.83C795.804 148.928 786.223 159.069 775.619 168.07C751.819 188.56 721.029 206.42 691.099 218.46C657.999 231.77 618.999 234.32 583.489 229.54C576.809 228.64 567.759 225.43 561.379 223.27" stroke="#333333" stroke-width="4.24" stroke-miterlimit="10"/>
<path d="M768.801 136.23L768.831 136.27" stroke="#333333" stroke-width="4.24" stroke-miterlimit="10"/>
<path d="M788.798 138.22C784.858 142.78 775.918 147.38 771.068 141.22C768.008 137.33 770.468 132.34 772.948 128.87C777.262 122.651 783.779 118.304 791.178 116.71" stroke="#333333" stroke-width="4.24" stroke-miterlimit="10"/>
<path d="M775.619 110.38C768.959 112.91 761.059 119.21 760.379 126.92C759.849 132.97 766.049 137.4 770.839 132.73" stroke="#333333" stroke-width="4.24" stroke-miterlimit="10"/>
<path d="M590.711 97.5698C591.661 104.67 597.711 109.32 603.971 108.29" stroke="#333333" stroke-width="4.24" stroke-miterlimit="10"/>
<path d="M561.38 223.27C546.55 250.72 518.26 267.61 491.52 283.12C484.7 287.05 458.52 301.88 448.96 307.34C443.7 305.56 438.74 303.94 434.19 302.47C434.05 302.47 433.93 302.39 433.79 302.36C414.47 296.25 401.9 293.11 400.09 292.65L420.09 298.65C372.46 285.83 368.9 285.55 320.74 274.8C316.35 273.8 312.45 272.8 309.02 271.69C309.93 269.93 310.86 268.18 311.8 266.48C311.85 266.37 311.91 266.28 311.94 266.2C312.08 265.94 312.25 265.66 312.36 265.4C312.65 264.89 312.93 264.4 313.18 263.9L313.78 262.9C313.86 262.75 313.95 262.61 314.03 262.47C314.11 262.33 314.09 262.39 314.15 262.27C315.53 259.78 316.95 257.35 318.39 254.97C323 247.22 327.78 239.97 332.65 233.21C338.063 225.716 343.563 218.766 349.15 212.36L349.23 212.27L351.41 210.15L354.04 207.52L377.27 184.63C377.27 184.63 399.17 189.16 413.32 192.16C418.04 189.875 422.548 187.174 426.79 184.09C444 171.49 460.14 145 457.22 122.85C454.65 103.47 433.99 93.7298 416.22 92.7198C443.92 91.6698 471.51 93.8498 497.57 100.72C497.656 100.725 497.74 100.746 497.82 100.78L502.1 101.97C503.423 102.336 504.804 102.452 506.17 102.31C507.08 110.49 512.65 137.06 532.01 148.85C544.91 156.69 555.69 153.64 562.08 148.4C564.55 152.392 566.375 156.749 567.49 161.31C573.29 181.68 571.51 204.54 561.38 223.27Z" fill="#4B4453"/>
<path d="M88.628 343.37L46.3081 398.37C46.3081 398.37 29.1581 402.87 22.6181 397.8L16.0781 392.72L65.378 329.2L88.628 343.37Z" fill="#9E7ACD"/>
<path d="M185.62 157.55L184.34 158.2" stroke="#333333" stroke-width="4.24" stroke-miterlimit="10"/>
<path d="M165.829 167.86L165.449 168.07" stroke="#333333" stroke-width="4.24" stroke-miterlimit="10"/>
<path d="M377.3 386.18L367.22 398.41C231.1 553.49 55.0898 383.1 55.0898 383.1L63.0898 372.25" stroke="#333333" stroke-width="4.24" stroke-miterlimit="10"/>
<path d="M401.051 293.66C401.051 293.66 449.171 304.15 507.441 329.55C507.441 329.55 508.931 330.12 511.591 331.33" stroke="#333333" stroke-width="4.24" stroke-miterlimit="10"/>
<path d="M599.539 412C599.539 412.07 599.609 412.11 599.639 412.18C604.889 422.57 610.179 433.71 615.249 445C615.319 445.14 615.359 445.28 615.429 445.42C617.769 450.6 620.079 455.82 622.309 461C641.999 506.51 664.309 564.79 664.309 564.79" stroke="#333333" stroke-width="4.24" stroke-miterlimit="10"/>
<path d="M599.681 412.21C599.621 412.15 599.574 412.078 599.541 412C569.201 360.67 525.181 337.54 511.591 331.33C508.931 330.12 507.441 329.55 507.441 329.55" stroke="#333333" stroke-width="4.24" stroke-miterlimit="10"/>
<path d="M314.199 262.29C314.199 262.29 260.559 346 382.309 388C511.729 432.6 512.689 418 561.899 496.42C592.509 545.17 604.469 563.86 609.079 570.96L611.989 575.36L623.609 592H703.999V583.72C703.999 578.702 702.005 573.89 698.457 570.342C694.909 566.793 690.097 564.8 685.079 564.8H652.729" stroke="#333333" stroke-width="4.24" stroke-miterlimit="10"/>
<path d="M85.7 341.42L66.63 327.14L17 393.32L25 399.32C26.5427 400.476 28.2996 401.314 30.1688 401.787C32.0379 402.259 33.9823 402.356 35.8891 402.071C37.7959 401.786 39.6272 401.126 41.277 400.129C42.9268 399.131 44.3622 397.816 45.5 396.26L55.11 383.09" stroke="#333333" stroke-width="4.24" stroke-miterlimit="10"/>
<path d="M561 146.72C577 159.32 600.5 162.91 615.29 165.08C617.5 165.4 619.74 165.6 621.97 165.83C642.507 167.926 663.249 166.574 683.34 161.83C697.996 158.387 712.137 153.035 725.4 145.91C737 139.63 742.21 128.54 745.4 115.75L751.4 89.1302C752.313 87.0542 753.911 85.3532 755.926 84.3112C757.941 83.2702 760.253 82.9512 762.475 83.4072C764.697 83.8632 766.696 85.0672 768.138 86.8182C769.58 88.5692 770.379 90.7622 770.4 93.0302C770.391 94.1802 770.184 95.3202 769.79 96.4002L768.52 99.9102" stroke="#333333" stroke-width="4.24" stroke-linejoin="round"/>
<path d="M165.83 167.86C152.342 174.797 139.637 183.158 127.93 192.8C120.358 199.026 113.676 206.26 108.07 214.3L107.83 214.64C97.2998 229.4 120.58 249.78 140.33 228.06C149.06 218.44 156.28 215.51 161.6 215.23C162.921 215.176 164.237 215.435 165.439 215.987C166.641 216.539 167.695 217.369 168.515 218.407C169.335 219.445 169.897 220.663 170.155 221.96C170.413 223.257 170.36 224.597 170 225.87L168.62 230.8C168.23 232.198 168.152 233.665 168.392 235.097C168.631 236.528 169.183 237.889 170.007 239.084C170.832 240.279 171.909 241.277 173.162 242.009C174.415 242.741 175.814 243.189 177.26 243.32C179.458 243.519 181.66 242.978 183.515 241.782C185.371 240.586 186.773 238.805 187.5 236.72C190.443 228.271 195.31 220.621 201.715 214.373C208.12 208.126 215.89 203.452 224.41 200.72L235 197.34C302.385 175.712 374.989 176.671 441.78 200.07L467.17 209" stroke="#333333" stroke-width="4.24" stroke-miterlimit="10"/>
<path d="M122.2 237.54C122.2 237.54 96.34 230.42 138.76 202.48" stroke="#333333" stroke-width="4.24" stroke-miterlimit="10"/>
<path d="M449.699 306.9C457.079 302.68 484.199 287.37 491.509 283.12C518.259 267.61 546.569 250.72 561.399 223.27C571.509 204.55 573.299 181.68 567.519 161.27C565.949 155.72 564.369 151.38 560.989 146.68" stroke="#333333" stroke-width="4.24" stroke-linejoin="round"/>
<path d="M656.589 35.7002C655.532 40.5272 652.987 44.9012 649.313 48.2062C645.639 51.5112 641.021 53.5792 636.109 54.1202C635.661 52.1442 634.737 50.3082 633.419 48.7702C627.819 42.4002 625.699 54.6002 607.949 46.2202C583.359 34.5902 574.249 41.7202 574.249 41.7202C573.459 42.3502 573.659 47.9502 573.569 48.9402C573.039 54.7402 572.499 60.5102 571.929 66.3102C571.589 69.8502 571.249 73.3602 570.929 76.8702C570.587 76.2812 570.21 75.7132 569.799 75.1702C567.419 67.3602 560.799 58.2202 552.309 62.3802C550.596 63.2582 549.115 64.5292 547.989 66.0902C542.469 73.6402 546.909 80.7402 552.989 85.9502C554.496 87.5672 556.172 89.0192 557.989 90.2802C557.059 92.2802 553.239 100.41 553.239 100.44C552.839 101.26 538.609 85.7802 537.539 84.0802C535.896 79.9052 534.973 75.4832 534.809 71.0002C534.209 52.5802 541.289 31.0002 555.999 20.1202C559.649 17.4402 560.929 14.8902 561.099 11.3202C561.131 11.1402 561.212 10.9732 561.333 10.8362C561.453 10.7002 561.609 10.5982 561.783 10.5442C561.957 10.4892 562.143 10.4832 562.32 10.5272C562.497 10.5702 562.659 10.6612 562.789 10.7902C567.579 16.0802 579.149 15.3102 579.149 15.3102C619.149 4.45016 632.999 22.0502 641.149 25.0502C644.475 26.2442 648.112 26.2442 651.439 25.0502C651.657 26.1572 652.174 27.1822 652.934 28.0162C653.693 28.8502 654.667 29.4602 655.749 29.7802L655.579 31.6402C655.435 33.0692 655.792 34.5042 656.589 35.7002Z" fill="#9E7ACD"/>
<path d="M636.078 54.1498C640.99 53.6088 645.609 51.5408 649.283 48.2358C652.957 44.9318 655.502 40.5578 656.558 35.7298C656.979 33.8808 657.227 31.9958 657.298 30.0998H656.988C656.556 30.0758 656.128 29.9918 655.718 29.8498C654.637 29.5318 653.664 28.9218 652.906 28.0878C652.147 27.2538 651.633 26.2268 651.418 25.1198C651.277 24.5078 651.237 23.8758 651.298 23.2498L652.148 14.1398C652.148 14.1398 644.988 19.6898 636.868 16.6898C628.748 13.6898 614.868 -3.91021 574.868 6.94978C574.868 6.94978 563.298 7.71977 558.518 2.42977C558.39 2.29877 558.227 2.20478 558.048 2.15978C557.87 2.11478 557.682 2.11976 557.506 2.17476C557.33 2.22976 557.173 2.33178 557.052 2.47078C556.93 2.60878 556.85 2.77876 556.818 2.95976C556.648 6.52976 555.378 9.07978 551.728 11.7598C536.998 22.5698 529.998 44.1598 530.558 62.5798C530.938 70.2508 533.354 77.6828 537.558 84.1098C538.628 85.8098 552.858 101.29 553.258 100.47C553.258 100.47 557.078 92.3498 558.008 90.3098L558.238 89.8598L557.788 89.5698C556.112 88.4908 554.512 87.2978 552.998 85.9998C546.998 80.7898 542.528 73.6898 547.998 66.1398C549.125 64.5798 550.606 63.3078 552.318 62.4298C560.808 58.2698 567.428 67.4298 569.808 75.2198C570.265 76.7108 570.56 78.2458 570.688 79.7998C570.768 78.7998 570.858 77.9098 570.938 76.9498C571.248 73.4398 571.588 69.9498 571.938 66.3898C572.508 60.5898 573.048 54.8198 573.578 49.0198C573.668 48.0198 573.468 42.4298 574.258 41.7998C574.258 41.7998 583.368 34.6698 607.958 46.2998C625.708 54.6798 627.828 42.4798 633.428 48.8498C634.747 50.3878 635.671 52.2238 636.118 54.1998C636.258 54.8328 636.351 55.4738 636.398 56.1198C636.413 56.2058 636.413 56.2938 636.398 56.3798C636.508 57.7898 636.568 59.2098 636.628 60.5898C637.018 73.9798 635.828 87.9798 630.828 100.52C624.738 115.71 608.128 130.91 590.418 124.23C584.898 122.14 579.888 118.68 575.308 115.01" stroke="#333333" stroke-width="4.24" stroke-miterlimit="10"/>
<path d="M539.58 86.5898L509.78 101.36C507.375 102.45 504.663 102.659 502.12 101.95L497.87 100.78C497.782 100.748 497.692 100.725 497.6 100.71C382.36 70.3098 237.49 131.9 185.6 157.55L184.32 158.2C173.93 163.37 167.41 166.96 165.81 167.86L165.43 168.07" stroke="#333333" stroke-width="4.24" stroke-miterlimit="10"/>
<path d="M506.082 103C505.692 104.27 509.312 136.13 530.562 149.08C544.262 157.42 555.402 152.7 561.002 146.7C561.607 146.046 562.175 145.358 562.702 144.64V144.57" stroke="#333333" stroke-width="4.24" stroke-miterlimit="10"/>
<path d="M560.988 146.72L584.228 118.92" stroke="#333333" stroke-width="4.24" stroke-miterlimit="10"/>
<path d="M434.19 302.469C434.05 302.469 433.93 302.389 433.79 302.359L420.13 298.68C372.5 285.86 368.94 285.58 320.78 274.83C316.39 273.83 312.49 272.829 309.06 271.719C273.16 260.309 286.29 244 291.15 244C325.82 244 332.15 232.77 332.15 232.77L332.74 233.19L434.19 302.469Z" fill="#4B4453"/>
<path d="M596.321 80.2701C598.353 80.2701 600.001 78.6231 600.001 76.5901C600.001 74.5581 598.353 72.9102 596.321 72.9102C594.288 72.9102 592.641 74.5581 592.641 76.5901C592.641 78.6231 594.288 80.2701 596.321 80.2701Z" fill="#333333"/>
<path d="M624.578 80.2701C626.611 80.2701 628.258 78.6231 628.258 76.5901C628.258 74.5581 626.611 72.9102 624.578 72.9102C622.546 72.9102 620.898 74.5581 620.898 76.5901C620.898 78.6231 622.546 80.2701 624.578 80.2701Z" fill="#333333"/>
<path d="M613.7 75.0601C613.7 75.0601 616.55 87.6901 616.88 88.9601C617.96 93.1001 609.77 91.7901 609.77 91.7901" stroke="#333333" stroke-width="4.24" stroke-miterlimit="10"/>
<path d="M608.879 58.9998C608.879 58.9998 596.779 51.3598 587.449 59.6898" stroke="#333333" stroke-width="4.24" stroke-miterlimit="10"/>
<path d="M597.341 88.3401C604.581 88.3401 610.451 82.4711 610.451 75.2301C610.451 67.9901 604.581 62.1201 597.341 62.1201C590.1 62.1201 584.23 67.9901 584.23 75.2301C584.23 82.4711 590.1 88.3401 597.341 88.3401Z" stroke="#333333" stroke-width="4.24" stroke-miterlimit="10"/>
<path d="M630.501 87.24C637.741 87.24 643.611 81.37 643.611 74.13C643.611 66.889 637.741 61.02 630.501 61.02C623.26 61.02 617.391 66.889 617.391 74.13C617.391 81.37 623.26 87.24 630.501 87.24Z" stroke="#333333" stroke-width="4.24" stroke-miterlimit="10"/>
<path d="M630.509 65.2301C632.87 65.1911 635.149 66.0921 636.845 67.7341C638.541 69.3761 639.516 71.6241 639.554 73.9851C639.593 76.3451 638.692 78.6241 637.05 80.3201C635.408 82.0171 633.16 82.9911 630.799 83.0301H630.499C628.182 82.9991 625.967 82.0671 624.325 80.4311C622.684 78.7951 621.744 76.5831 621.706 74.2651C621.669 71.9481 622.536 69.7071 624.123 68.0181C625.711 66.3291 627.894 65.3251 630.209 65.2201H630.509V65.2301ZM630.509 63.1001H630.139C628.692 63.1231 627.263 63.4321 625.934 64.0081C624.606 64.5841 623.403 65.4161 622.396 66.4561C621.389 67.4971 620.597 68.7251 620.065 70.0721C619.533 71.4181 619.271 72.8571 619.294 74.3051C619.318 75.7521 619.627 77.1811 620.203 78.5101C620.778 79.8391 621.61 81.0411 622.651 82.0481C623.691 83.0551 624.92 83.8471 626.267 84.3791C627.613 84.9111 629.052 85.1731 630.499 85.1501H630.869C633.787 85.1021 636.566 83.8971 638.595 81.8011C640.624 79.7041 641.737 76.8871 641.689 73.9701C641.642 71.0521 640.437 68.2731 638.34 66.2441C636.244 64.2151 633.427 63.1021 630.509 63.1501V63.1001Z" fill="white"/>
<path d="M610.441 74.7998L617.401 74.5698" stroke="#333333" stroke-width="4.24" stroke-miterlimit="10"/>
<path opacity="0.53" d="M597.338 86.3299C603.469 86.3299 608.438 81.3599 608.438 75.2299C608.438 69.0999 603.469 64.1299 597.338 64.1299C591.208 64.1299 586.238 69.0999 586.238 75.2299C586.238 81.3599 591.208 86.3299 597.338 86.3299Z" fill="white"/>
<path opacity="0.53" d="M630.498 85.2298C636.629 85.2298 641.598 80.2608 641.598 74.1298C641.598 67.9998 636.629 63.0298 630.498 63.0298C624.368 63.0298 619.398 67.9998 619.398 74.1298C619.398 80.2608 624.368 85.2298 630.498 85.2298Z" fill="white"/>
<path d="M85.6992 341.44C85.6992 341.44 236.339 445.93 293.529 305.3C298.403 293.3 303.563 282.133 309.009 271.8" stroke="#333333" stroke-width="4.24" stroke-miterlimit="10"/>
<path d="M414.211 191.78L377.311 184.65C376.471 184.49 372.701 188.65 371.971 189.28C360.819 199.42 350.455 210.395 340.971 222.11C334.471 229.99 328.031 236.72 318.091 240.11C313.359 241.642 308.473 242.649 303.521 243.11C298.441 243.66 290.871 242.81 287.021 246.89C286.174 247.806 285.537 248.894 285.152 250.08C284.767 251.266 284.644 252.522 284.791 253.76C285.166 255.986 286.152 258.063 287.641 259.76C295.291 269.15 309.541 272.31 320.751 274.81C373.271 286.54 372.751 285.81 434.161 302.47" stroke="#333333" stroke-width="4.24" stroke-miterlimit="10"/>
<path d="M351.45 210.17L349.27 212.29C349.92 211.56 350.55 210.82 351.2 210.12L351.45 210.17Z" fill="#4B4453"/>
<path d="M413.148 192.45C413.148 192.45 391.758 209.2 366.898 204.45C342.038 199.7 354.638 181.8 354.638 181.8C372.77 182.384 390.73 185.501 407.998 191.06" fill="#333333"/>
<path d="M283.292 249.91C283.292 249.91 278.002 269.67 303.612 282.56L310.002 270C310.002 270 278.112 260.2 283.292 249.91Z" fill="#333333"/>
<path d="M468.84 28.1699H399.09" stroke="#333333" stroke-width="4.24" stroke-miterlimit="10"/>
<path d="M404.252 45.1499H364.852" stroke="#333333" stroke-width="4.24" stroke-miterlimit="10"/>
<path d="M80.4883 441.29C80.4883 441.29 129.868 496.47 235.928 496.47" stroke="#333333" stroke-width="4.24" stroke-miterlimit="10"/>
<path d="M536.898 488.4L561.378 526.18" stroke="#333333" stroke-width="4.24" stroke-miterlimit="10"/>
<path d="M153.859 146.72C127.329 157.17 102.289 172.78 88.6289 198.67" stroke="#333333" stroke-width="4.24" stroke-miterlimit="10"/>
<path d="M812.422 154C821.562 144.88 829.172 133.42 830.232 118.55" stroke="#333333" stroke-width="4.24" stroke-miterlimit="10"/>
</svg>
