<svg width="656" height="906" viewBox="0 0 656 906" fill="none" xmlns="http://www.w3.org/2000/svg">
<path d="M653.641 749.11H534.641V761.8C534.641 777.581 540.909 792.715 552.068 803.873C563.226 815.032 578.36 821.3 594.141 821.3C609.921 821.3 625.055 815.032 636.213 803.873C647.372 792.715 653.641 777.581 653.641 761.8V749.11Z" fill="#BCA3DC"/>
<path d="M198.83 820.41C188.156 820.424 177.676 817.552 168.5 812.1" stroke="#D7C8EA" stroke-width="4.52" stroke-miterlimit="10"/>
<path d="M139.51 102.2L139.32 62.51C139.323 46.7278 145.594 31.5927 156.753 20.433C167.913 9.2733 183.048 3.0027 198.83 3H594.13" stroke="#D7C8EA" stroke-width="4.52" stroke-miterlimit="10"/>
<path d="M534.648 760.9V749.1V170.69V62.51" stroke="#D7C8EA" stroke-width="4.52" stroke-miterlimit="10"/>
<path d="M534.648 156.89H653.648V62.51C653.648 46.7294 647.38 31.5953 636.221 20.4369C625.063 9.27846 609.929 3.00977 594.148 3.00977C578.368 3.00977 563.234 9.27846 552.076 20.4369C540.917 31.5953 534.648 46.7294 534.648 62.51V170.69" fill="#BCA3DC"/>
<path d="M534.648 156.89H653.648V62.51C653.648 46.7294 647.38 31.5953 636.221 20.4369C625.063 9.27846 609.929 3.00977 594.148 3.00977C578.368 3.00977 563.234 9.27846 552.076 20.4369C540.917 31.5953 534.648 46.7294 534.648 62.51V170.69" stroke="#D7C8EA" stroke-width="4.52" stroke-miterlimit="10"/>
<path d="M534.641 749.11V760.91C534.641 776.691 540.909 791.825 552.068 802.983C563.226 814.142 578.36 820.41 594.141 820.41" stroke="#D7C8EA" stroke-width="4.52" stroke-miterlimit="10"/>
<path d="M226.498 820.41H198.828" stroke="#D7C8EA" stroke-width="4.52" stroke-miterlimit="10"/>
<path d="M534.649 749.1H653.649V760.9C653.644 776.681 647.372 791.815 636.213 802.974C625.054 814.133 609.92 820.404 594.139 820.41H306.879" stroke="#D7C8EA" stroke-width="4.52" stroke-miterlimit="10"/>
<path d="M468.071 264.63H371.941" stroke="#D7C8EA" stroke-width="4.52" stroke-miterlimit="10"/>
<path d="M468.071 301.9H371.941" stroke="#D7C8EA" stroke-width="4.52" stroke-miterlimit="10"/>
<path d="M468.071 339.18H371.941" stroke="#D7C8EA" stroke-width="4.52" stroke-miterlimit="10"/>
<path d="M468.071 376.45H371.941" stroke="#D7C8EA" stroke-width="4.52" stroke-miterlimit="10"/>
<path d="M468.071 413.72H371.941" stroke="#D7C8EA" stroke-width="4.52" stroke-miterlimit="10"/>
<path d="M468.071 450.99H371.941" stroke="#D7C8EA" stroke-width="4.52" stroke-miterlimit="10"/>
<path d="M468.071 575.51H371.941" stroke="#D7C8EA" stroke-width="4.52" stroke-miterlimit="10"/>
<path d="M468.071 592.89H371.941" stroke="#D7C8EA" stroke-width="4.52" stroke-miterlimit="10"/>
<path d="M468.071 610.27H371.941" stroke="#D7C8EA" stroke-width="4.52" stroke-miterlimit="10"/>
<path d="M468.071 627.65H371.941" stroke="#D7C8EA" stroke-width="4.52" stroke-miterlimit="10"/>
<path d="M488.9 215.76H349.51C338.144 215.76 328.93 224.974 328.93 236.34V657.52C328.93 668.886 338.144 678.1 349.51 678.1H488.9C500.266 678.1 509.48 668.886 509.48 657.52V236.34C509.48 224.974 500.266 215.76 488.9 215.76Z" stroke="#D7C8EA" stroke-width="4.52" stroke-miterlimit="10"/>
<path d="M358.39 294.88C358.39 294.88 411.61 387.28 390.77 429.8C390.77 429.8 375.46 459.67 341.58 456.7C307.7 453.73 325 385.48 294.52 367.41C264.04 349.34 311.78 274.41 312.25 275C312.72 275.59 358.39 294.88 358.39 294.88Z" fill="white"/>
<path d="M371.938 178.61H295.898" stroke="#D7C8EA" stroke-width="4.52" stroke-miterlimit="10"/>
<path d="M371.942 134.82H308.172" stroke="#D7C8EA" stroke-width="4.52" stroke-miterlimit="10"/>
<path d="M371.942 156.72H299.262" stroke="#D7C8EA" stroke-width="4.52" stroke-miterlimit="10"/>
<path d="M371.94 112.93H285.91" stroke="#D7C8EA" stroke-width="4.52" stroke-miterlimit="10"/>
<path d="M362.651 303.79C310.891 295.22 296.651 345.95 296.651 345.95C296.651 345.95 311.831 375.19 312.211 376.78C313.511 394.37 297.311 395.34 297.311 395.34L240.091 407.34L216.681 370.62C216.681 370.62 199.251 253.15 194.681 253.22C190.111 253.29 192.681 251.41 192.681 251.41C197.181 247.76 194.821 230.58 194.821 230.58C194.161 223.24 206.441 220.48 218.991 216.73C231.541 212.98 225.351 220.66 223.251 230.58C221.151 240.5 218.861 262.58 243.871 264.64C268.881 266.7 271.111 255.06 277.341 244.64C281.641 237.45 279.501 227.74 277.781 222.43C289.508 226.509 300.781 231.79 311.421 238.19C313.081 239.19 314.671 240.19 316.241 241.34C338.721 256.76 351.411 279.58 362.651 303.79Z" fill="#4B4453"/>
<path d="M83.0795 453.74C83.0795 453.74 80.7695 454.98 88.5295 455.03C96.2895 455.08 185.2 448.61 255.62 486.46C255.62 486.46 277.11 497.46 285.01 514.18C285.01 514.18 287.16 516.26 291.45 506.11C295.74 495.96 306.33 463.77 306.33 463.77C306.33 463.77 309.14 461.08 303.2 460.77C297.26 460.46 225.2 452.04 194.87 443.43C164.54 434.82 132.72 430.51 128.44 421.25L129.44 415.41C129.44 415.41 92.4895 413 91.5295 419C90.5695 425 83.0795 453.74 83.0795 453.74Z" fill="#4B4453"/>
<path d="M255.373 157.581C260.043 153.195 260.188 145.763 255.697 140.98C251.205 136.197 243.779 135.875 239.108 140.26C234.438 144.646 234.293 152.078 238.785 156.861C243.276 161.644 250.703 161.966 255.373 157.581Z" fill="#BCA3DC"/>
<path d="M222.148 152.512C226.822 148.123 226.967 140.684 222.472 135.897C217.977 131.11 210.544 130.788 205.87 135.177C201.195 139.567 201.05 147.006 205.546 151.792C210.041 156.579 217.474 156.902 222.148 152.512Z" fill="#BCA3DC"/>
<path d="M229.84 199.33C229.84 199.33 228.78 205.26 226.55 215.4C221.04 215.3 214.42 220.4 209 220.32C206.7 204.79 210.08 192.79 213.86 184.84C218 195.15 224.63 198.44 229.84 199.33Z" fill="#9E7ACD"/>
<path d="M318.771 242.71C307.951 236.34 296.851 228.31 284.551 224.89L277.551 221.71C277.551 221.71 277.021 220.38 277.001 220.36C275.701 216.73 273.511 211.9 272.901 208.11C272.153 203.623 272.079 199.049 272.681 194.54C273.681 187.84 277.231 173.74 283.021 169.43C287.851 165.86 289.771 166.7 292.631 160.98C294.631 156.9 295.631 149.98 292.031 146.81C288.031 143.33 286.171 145.01 281.211 145.35C262.341 146.64 252.011 132.77 245.571 116.92C244.65 114.254 243.368 111.728 241.761 109.41C239.761 106.86 236.951 106.21 234.681 104.12C234.165 103.705 233.785 103.145 233.591 102.512C233.397 101.88 233.397 101.203 233.591 100.57C233.893 99.9931 234.316 99.4881 234.831 99.0901C239.361 95.1671 244.744 92.3521 250.551 90.8701C259.737 88.5251 269.365 88.5251 278.551 90.8701C288.436 94.3221 296.796 101.135 302.171 110.12C309.851 123.12 311.381 136.49 306.461 149.57C301.461 162.98 295.771 178.73 304.051 192.03C315.081 209.7 321.691 222.09 318.771 242.71Z" fill="#9E7ACD"/>
<path d="M237.49 199.07C234.984 199.675 232.381 199.764 229.84 199.33C224.63 198.44 217.99 195.15 213.84 184.84C212.995 182.736 212.326 180.565 211.84 178.35C209.84 169.9 209.23 158.16 211.05 141.88C211.4 138.76 211.88 135.59 212.51 132.43C213.561 126.928 215.148 121.543 217.25 116.35C217.25 116.35 217.25 116.35 217.25 116.29C222.48 103.64 231.32 93.1 245.76 89.38C256.584 86.609 267.987 87.121 278.52 90.85C288.405 94.302 296.765 101.115 302.14 110.1C309.82 123.1 311.35 136.47 306.43 149.55C301.43 162.96 295.74 178.71 304.02 192.01C315.02 209.7 321.66 222.09 318.79 242.71" stroke="#333333" stroke-width="4.52" stroke-miterlimit="10"/>
<path d="M204.592 220.82C201.002 200.54 207.122 186.02 211.822 178.35" stroke="#333333" stroke-width="4.52" stroke-miterlimit="10"/>
<path d="M212.5 132.42C212.5 132.42 221.99 123.08 232.19 138.6" stroke="#333333" stroke-width="4.52" stroke-miterlimit="10"/>
<path d="M233.599 180.88C237.119 183.88 242.549 183.03 245.909 179.57C249.549 175.8 251.529 170.39 252.909 165.42C253.009 165.07 253.099 164.71 253.179 164.35C247.489 171.12 238.119 171.68 229.969 171.35C229.954 173.807 230.548 176.229 231.699 178.4C232.169 179.339 232.814 180.181 233.599 180.88Z" stroke="#333333" stroke-width="4.52" stroke-linecap="round" stroke-linejoin="round"/>
<path d="M242.07 130.36C242.07 130.36 245.36 125.36 255.93 129.45C266.5 133.54 266.45 139.61 266.45 139.61" stroke="#333333" stroke-width="4.52" stroke-miterlimit="10"/>
<path d="M217.391 142.21C217.391 142.21 222.391 139.87 226.201 142.48" stroke="#333333" stroke-width="4.52" stroke-miterlimit="10"/>
<path d="M243.941 145.33C243.941 145.33 248.941 142.98 252.751 145.59" stroke="#333333" stroke-width="4.52" stroke-miterlimit="10"/>
<path d="M229.84 199.33C229.84 199.33 227.64 210.53 225.41 220.67C225.09 222.11 224.79 223.53 224.49 224.93C223.02 231.76 221.83 237.83 221.73 239.68C220.94 255.03 235.2 264.35 249.24 264.63C268.93 265.01 281 247.04 279.71 228.63C278.59 225.25 277.46 221.86 276.35 218.48C274.92 214.14 273.02 209.9 272.28 205.35C271.643 200.872 271.697 196.322 272.44 191.86C273.44 185.19 275.04 175.25 280.83 170.94C285.65 167.38 290.66 165.09 293.52 159.38C295.57 155.3 295.64 149.96 292 146.8C288 143.32 281.41 143.53 276.44 143.87C244.44 146.16 240.09 113.68 231.59 108.87C224.59 104.92 219.06 113.14 217.3 116.2L217.23 116.33C217.236 116.343 217.238 116.356 217.238 116.37C217.238 116.384 217.236 116.397 217.23 116.41C216.91 116.98 216.75 117.32 216.75 117.32" stroke="#333333" stroke-width="4.52" stroke-miterlimit="10"/>
<path d="M230.609 146.35C230.609 146.35 226.939 157.17 227.149 158.81C227.359 160.45 231.289 159.43 231.289 159.43" stroke="#333333" stroke-width="4.52" stroke-miterlimit="10"/>
<path d="M256.412 158.689C261.678 153.744 261.84 145.362 256.774 139.967C251.708 134.572 243.332 134.207 238.066 139.153C232.8 144.098 232.638 152.48 237.704 157.875C242.77 163.269 251.146 163.634 256.412 158.689Z" stroke="#333333" stroke-width="4.52" stroke-miterlimit="10"/>
<path d="M223.182 153.613C228.448 148.668 228.61 140.286 223.544 134.891C218.477 129.496 210.102 129.131 204.836 134.076C199.57 139.021 199.408 147.404 204.474 152.798C209.54 158.193 217.916 158.558 223.182 153.613Z" stroke="#333333" stroke-width="4.52" stroke-miterlimit="10"/>
<path d="M213.712 134.39C214.194 134.392 214.675 134.429 215.152 134.5C217.647 134.889 219.895 136.231 221.42 138.243C222.946 140.256 223.631 142.782 223.332 145.29C223.085 147.499 222.029 149.539 220.367 151.017C218.705 152.494 216.555 153.304 214.332 153.29C213.85 153.288 213.369 153.251 212.892 153.18C210.397 152.786 208.151 151.442 206.626 149.428C205.101 147.414 204.415 144.888 204.712 142.38C204.973 140.181 206.035 138.155 207.695 136.691C209.356 135.226 211.498 134.424 213.712 134.44V134.39ZM213.712 132.18C210.945 132.173 208.271 133.177 206.194 135.004C204.116 136.831 202.778 139.355 202.432 142.1C202.217 143.782 202.364 145.492 202.862 147.113C203.36 148.735 204.198 150.231 205.321 151.503C206.443 152.775 207.824 153.793 209.371 154.489C210.918 155.185 212.596 155.543 214.292 155.54C217.058 155.549 219.731 154.547 221.809 152.722C223.887 150.896 225.225 148.374 225.572 145.63C225.949 142.537 225.107 139.418 223.226 136.934C221.345 134.45 218.571 132.795 215.492 132.32C214.903 132.224 214.308 132.177 213.712 132.18Z" fill="white"/>
<path d="M234.099 146.88L227.129 145.82" stroke="#333333" stroke-width="4.52" stroke-miterlimit="10"/>
<path d="M141.569 345.57V311.13H64.4389C64.1989 311.13 63.9789 311.13 63.7389 311.13L63.2989 311.18C63.2909 311.176 63.2819 311.174 63.2739 311.174C63.2649 311.174 63.2569 311.176 63.2489 311.18C63.0989 311.18 62.9589 311.24 62.8089 311.27C62.6719 311.291 62.5369 311.328 62.4089 311.38C62.2769 311.415 62.1489 311.465 62.0289 311.53C61.9689 311.53 61.9189 311.53 61.8589 311.58C61.7989 311.63 61.5489 311.71 61.3989 311.79C61.2099 311.878 61.0299 311.982 60.8589 312.1C60.7019 312.18 60.5539 312.277 60.4189 312.39C60.1879 312.544 59.9739 312.722 59.7789 312.92C59.5599 313.097 59.3619 313.298 59.1889 313.52C59.0129 313.73 58.8489 313.951 58.6989 314.18C58.5479 314.4 58.4149 314.63 58.2989 314.87C58.1679 315.108 58.0639 315.359 57.9889 315.62C57.8989 315.875 57.8249 316.135 57.7689 316.4C57.6689 316.85 57.6159 317.309 57.6089 317.77L57.2189 338.49C57.1979 338.723 57.1979 338.957 57.2189 339.19C57.1979 339.292 57.1979 339.398 57.2189 339.5V339.59C57.2139 339.656 57.2139 339.723 57.2189 339.79C57.2359 339.913 57.2659 340.033 57.3089 340.15C57.3259 340.316 57.3699 340.478 57.4389 340.63C57.5759 341.105 57.7639 341.565 57.9989 342C58.2129 342.381 58.4599 342.743 58.7389 343.08C58.8819 343.253 59.0349 343.416 59.1989 343.57C59.3539 343.725 59.5179 343.872 59.6889 344.01L59.9989 344.26C60.1689 344.37 60.3289 344.48 60.5189 344.59C60.7399 344.729 60.9699 344.853 61.2089 344.96C61.4569 345.077 61.7149 345.174 61.9789 345.25C62.6259 345.452 63.2999 345.556 63.9789 345.56H78.7989L83.3489 343.73C86.2489 343.73 89.4989 342.21 92.4089 342.21L95.3189 345.94L141.569 345.57Z" fill="#BCA3DC"/>
<path d="M264.588 318V338.74C264.588 340.556 263.866 342.299 262.582 343.583C261.297 344.868 259.555 345.59 257.738 345.59H141.578V311.14H257.738C258.639 311.14 259.53 311.317 260.362 311.662C261.194 312.007 261.949 312.512 262.585 313.149C263.222 313.787 263.726 314.543 264.07 315.375C264.413 316.207 264.589 317.099 264.588 318Z" fill="#9E7ACD"/>
<path d="M141.569 345.57H153.249V415.73H82.6192C80.0762 415.849 77.5282 415.614 75.0492 415.03C74.7992 414.96 74.5392 414.87 74.2792 414.78L74.1392 414.72C72.1812 414.057 70.5132 412.735 69.4192 410.98C69.4262 410.961 69.4262 410.94 69.4192 410.92L69.1992 410.56C71.2592 411.05 73.3492 411.45 75.4292 411.76C75.8382 411.848 76.2532 411.911 76.6692 411.95C77.6692 412.09 78.6692 412.2 79.7192 412.31C79.8482 412.33 79.9802 412.33 80.1092 412.31L81.7292 412.45C82.2702 412.51 82.8152 412.54 83.3592 412.54C83.3832 412.55 83.4082 412.556 83.4342 412.556C83.4602 412.556 83.4862 412.55 83.5092 412.54C84.1092 412.54 84.6992 412.6 85.2992 412.62C85.4252 412.645 85.5542 412.645 85.6792 412.62C85.8552 412.65 86.0342 412.65 86.2092 412.62C87.3292 412.68 88.4592 412.68 89.5892 412.62C91.1692 412.62 92.7392 412.55 94.2892 412.46C95.5102 412.396 96.7262 412.255 97.9292 412.04C98.3482 411.98 98.7622 411.893 99.1692 411.78C99.5082 411.712 99.8422 411.622 100.169 411.51L100.339 411.45C100.979 411.232 101.595 410.951 102.179 410.61C104.539 409.24 106.329 406.61 105.869 403.89C105.62 402.637 104.983 401.493 104.049 400.62C103.969 400.55 103.899 400.47 103.809 400.4L103.739 400.35C103.263 399.931 102.739 399.569 102.179 399.27C100.548 398.451 98.8012 397.884 96.9992 397.59L96.3392 397.46C96.6692 397.51 97.0092 397.55 97.3392 397.61H97.5592C100.165 398.061 102.824 398.128 105.449 397.81L105.949 397.76L106.149 397.7C107.565 397.448 108.911 396.9 110.1 396.091C111.289 395.283 112.294 394.233 113.049 393.01C113.186 392.756 113.303 392.492 113.399 392.22C113.459 392.112 113.51 391.998 113.549 391.88C113.782 391.147 113.887 390.379 113.859 389.61C113.86 389.336 113.84 389.062 113.799 388.79C113.676 387.815 113.359 386.875 112.866 386.025C112.373 385.174 111.714 384.432 110.929 383.84C110.668 383.636 110.386 383.458 110.089 383.31C108.952 382.754 107.721 382.415 106.459 382.31H106.219C105.549 382.23 104.829 382.2 104.159 382.16C98.9292 381.89 93.7192 381.59 88.4992 381.32H87.9292L80.2392 380.92L75.5992 380.66H75.2892L71.1592 380.44C71.6192 380.44 72.0792 380.49 72.5292 380.53H72.9192L74.5092 380.62C78.9792 380.89 83.4592 381.15 87.9292 381.31H88.4992C88.4992 381.31 88.4992 381.31 88.5892 381.31C89.4892 381.31 90.3992 381.37 91.2992 381.4H91.4992C93.8192 381.46 96.1192 381.49 98.4392 381.49C100.807 381.615 103.178 381.313 105.439 380.6C106.508 380.205 107.484 379.596 108.309 378.81C108.421 378.722 108.519 378.618 108.599 378.5C109.384 377.721 109.926 376.731 110.159 375.65C110.384 374.417 110.216 373.144 109.679 372.01C109.631 371.862 109.564 371.721 109.479 371.59C108.982 370.649 108.302 369.816 107.479 369.14C105.494 367.663 103.182 366.685 100.739 366.29C99.3292 366 97.9292 365.76 96.4992 365.6C96.4702 365.59 96.4382 365.59 96.4092 365.6C94.5232 365.384 92.6272 365.267 90.7292 365.25H90.2192C89.2192 365.25 88.1192 365.25 87.0692 365.25C82.0692 365.4 77.1892 366.33 72.2392 366.25C72.1902 366.098 72.1902 365.933 72.2392 365.78C72.2922 365.671 72.3562 365.567 72.4292 365.47C72.6192 365.259 72.8552 365.095 73.1192 364.99C74.7232 364.484 76.3522 364.06 77.9992 363.72C79.6742 363.201 81.3052 362.553 82.8792 361.78C83.4092 361.52 83.9392 361.23 84.4692 360.96C84.5092 360.938 84.5462 360.911 84.5792 360.88C86.5982 359.754 88.4892 358.413 90.2192 356.88L90.6592 356.5C90.9292 356.26 91.2092 356.02 91.4592 355.77C92.9032 354.484 94.0672 352.915 94.8792 351.16C95.0662 350.712 95.2062 350.247 95.2992 349.77C95.3392 349.622 95.3692 349.472 95.3892 349.32C95.4302 349.059 95.4502 348.795 95.4492 348.53C95.4492 348.28 95.3292 346.11 95.2892 345.86" fill="#BCA3DC"/>
<path d="M251.242 345.57V403.76C251.243 404.195 251.22 404.629 251.172 405.06L229.002 409.64C222.392 411.03 219.592 409.93 218.192 406.54C213.042 394.15 199.332 394.54 199.332 394.54L188.502 394.49C186.762 394.49 185.052 394.27 183.332 394.16C182.259 394.096 181.184 394.252 180.173 394.617C179.162 394.982 178.235 395.549 177.45 396.283C176.665 397.017 176.038 397.904 175.607 398.889C175.176 399.873 174.949 400.935 174.942 402.01C174.943 403.652 175.456 405.253 176.41 406.59C177.363 407.927 178.71 408.934 180.262 409.47L188.592 411.13C188.926 411.195 189.241 411.337 189.512 411.545C189.782 411.752 190.001 412.02 190.15 412.326C190.299 412.633 190.375 412.97 190.372 413.31C190.369 413.651 190.287 413.987 190.132 414.29C189.635 414.913 188.993 415.404 188.262 415.72H153.262V345.57H251.242Z" fill="#9E7ACD"/>
<path d="M129.531 311.13H141.571H153.251" stroke="#333333" stroke-width="4.52" stroke-miterlimit="10"/>
<path d="M94.8619 345.59H257.732C258.651 345.596 259.56 345.409 260.402 345.04C261.216 344.695 261.953 344.192 262.572 343.56C263.208 342.926 263.712 342.171 264.056 341.34C264.399 340.51 264.574 339.619 264.572 338.72V318C264.572 317.101 264.395 316.21 264.05 315.379C263.706 314.548 263.202 313.793 262.566 313.157C261.929 312.521 261.174 312.016 260.343 311.672C259.512 311.328 258.621 311.15 257.722 311.15H64.4419C64.2019 311.15 63.9819 311.15 63.7419 311.15L63.3019 311.2C62.6399 311.312 61.9989 311.524 61.4019 311.83C61.2219 311.92 61.0419 312.03 60.8619 312.14C60.7049 312.221 60.5569 312.318 60.4219 312.43C60.1959 312.591 59.9819 312.768 59.7819 312.96C59.5729 313.148 59.3759 313.348 59.1919 313.56C59.0159 313.771 58.8519 313.991 58.7019 314.22C58.5519 314.44 58.4319 314.68 58.3019 314.91C58.1719 315.14 58.0819 315.41 57.9919 315.66C57.9019 315.915 57.8289 316.176 57.7719 316.44C57.6729 316.891 57.6189 317.35 57.6119 317.81L57.2419 338.55V338.88C57.2319 338.997 57.2319 339.114 57.2419 339.23C57.2419 339.37 57.2419 339.5 57.2419 339.63C57.2369 339.697 57.2369 339.764 57.2419 339.83C57.2419 339.94 57.3019 340.08 57.3319 340.19C57.3619 340.3 57.4119 340.52 57.4619 340.67C57.5949 341.131 57.7759 341.577 58.0019 342C58.2159 342.382 58.4639 342.743 58.7419 343.08C58.8919 343.24 59.0419 343.41 59.2019 343.57C59.3579 343.725 59.5209 343.872 59.6919 344.01L60.0019 344.26C60.1719 344.37 60.3319 344.48 60.5219 344.59C60.7449 344.726 60.9759 344.849 61.2119 344.96C61.4599 345.078 61.7179 345.175 61.9819 345.25C62.6459 345.471 63.3419 345.582 64.0419 345.58H78.7319" stroke="#333333" stroke-width="4.52" stroke-miterlimit="10"/>
<path d="M69.1016 410.52C69.1916 410.64 69.2816 410.77 69.3916 410.9C69.7186 411.356 70.0836 411.784 70.4816 412.18C70.7416 412.457 71.0226 412.714 71.3216 412.95C71.6216 413.18 71.9316 413.42 72.2416 413.62C72.5516 413.856 72.8866 414.058 73.2416 414.22C73.5416 414.39 73.8316 414.53 74.1416 414.68L74.2816 414.74C74.6336 414.909 75.0026 415.043 75.3816 415.14C75.7086 415.246 76.0426 415.33 76.3816 415.39C76.5176 415.434 76.6586 415.464 76.8016 415.48C77.1146 415.551 77.4316 415.601 77.7516 415.63C78.1486 415.684 78.5496 415.707 78.9516 415.7H188.212C188.943 415.384 189.585 414.893 190.082 414.27C190.234 413.966 190.315 413.631 190.317 413.291C190.319 412.95 190.243 412.614 190.094 412.309C189.945 412.003 189.727 411.736 189.458 411.528C189.189 411.32 188.875 411.177 188.542 411.11L180.212 409.45C178.659 408.914 177.313 407.907 176.36 406.57C175.406 405.233 174.893 403.632 174.892 401.99C174.899 400.915 175.125 399.853 175.557 398.868C175.988 397.884 176.615 396.997 177.4 396.263C178.185 395.528 179.111 394.961 180.123 394.596C181.134 394.231 182.208 394.076 183.282 394.14C185.002 394.25 186.712 394.45 188.452 394.47L199.282 394.52C199.282 394.52 212.992 394.12 218.142 406.52C219.542 409.91 222.342 411.01 228.952 409.62L251.172 405.04C251.22 404.608 251.243 404.174 251.242 403.74V345.59H141.572" stroke="#333333" stroke-width="4.52" stroke-miterlimit="10"/>
<path d="M257.258 257.21V270.58C257.258 271.752 256.793 272.877 255.964 273.705C255.135 274.534 254.011 275 252.838 275H148.648V252.79H252.838C254.011 252.79 255.135 253.256 255.964 254.085C256.793 254.914 257.258 256.038 257.258 257.21Z" fill="#9E7ACD"/>
<path d="M148.651 252.79V275H98.6509C98.0649 274.999 97.4849 274.881 96.9449 274.654C96.4039 274.427 95.9149 274.095 95.5029 273.678C95.0919 273.26 94.7679 272.765 94.5499 272.221C94.3309 271.678 94.2229 271.096 94.2309 270.51L94.4709 257.12C94.4919 255.963 94.9669 254.86 95.7939 254.05C96.6209 253.24 97.7329 252.787 98.8909 252.79H148.651Z" fill="#BCA3DC"/>
<path d="M248.651 275V303.41C248.646 305.459 247.83 307.422 246.382 308.87C244.933 310.319 242.97 311.135 240.921 311.14H156.191V275H248.651Z" fill="#9E7ACD"/>
<path d="M156.19 275V311.14H108.25C106.2 311.137 104.236 310.322 102.787 308.873C101.337 307.424 100.522 305.459 100.52 303.41V275H156.19Z" fill="#BCA3DC"/>
<path d="M141.57 311.14V345.58" stroke="#333333" stroke-width="4.52" stroke-miterlimit="10"/>
<path d="M153.25 345.58V415.74" stroke="#333333" stroke-width="4.52" stroke-miterlimit="10"/>
<path d="M257.258 257.21V270.58C257.258 271.752 256.793 272.877 255.964 273.705C255.135 274.534 254.011 275 252.838 275H148.648V252.79H252.838C254.011 252.79 255.135 253.256 255.964 254.085C256.793 254.914 257.258 256.038 257.258 257.21Z" stroke="#333333" stroke-width="4.52" stroke-miterlimit="10"/>
<path d="M148.651 252.79V275H98.6509C98.0649 274.999 97.4849 274.881 96.9449 274.654C96.4039 274.427 95.9149 274.095 95.5029 273.678C95.0919 273.26 94.7679 272.765 94.5499 272.221C94.3309 271.678 94.2229 271.096 94.2309 270.51L94.4709 257.12C94.4919 255.963 94.9669 254.86 95.7939 254.05C96.6209 253.24 97.7329 252.787 98.8909 252.79H148.651Z" stroke="#333333" stroke-width="4.52" stroke-miterlimit="10"/>
<path d="M248.651 275V303.41C248.646 305.459 247.83 307.422 246.382 308.87C244.933 310.319 242.97 311.135 240.921 311.14H156.191V275H248.651Z" stroke="#333333" stroke-width="4.52" stroke-miterlimit="10"/>
<path d="M156.19 275V311.14H108.25C106.2 311.137 104.236 310.322 102.787 308.873C101.337 307.424 100.522 305.459 100.52 303.41V275H156.19Z" stroke="#333333" stroke-width="4.52" stroke-miterlimit="10"/>
<path d="M204.119 190.16V203.53C204.126 204.115 204.016 204.695 203.797 205.237C203.578 205.779 203.254 206.272 202.842 206.688C202.431 207.104 201.942 207.434 201.402 207.659C200.863 207.884 200.284 208 199.699 208H124.699V185.74H199.699C200.871 185.74 201.996 186.206 202.825 187.035C203.654 187.864 204.119 188.988 204.119 190.16Z" fill="#9E7ACD"/>
<path d="M124.74 185.73H77.5703V207.95H124.74V185.73Z" fill="#BCA3DC"/>
<path d="M195.519 208V245.54C195.514 247.589 194.698 249.552 193.249 251C191.801 252.449 189.838 253.265 187.789 253.27H132.289V208H195.519Z" fill="#9E7ACD"/>
<path d="M132.29 208V253.27H84.3505C84.1445 253.291 83.9375 253.291 83.7305 253.27V208H132.29Z" fill="#BCA3DC"/>
<path d="M204.119 190.16V203.53C204.126 204.115 204.016 204.695 203.797 205.237C203.578 205.779 203.254 206.272 202.842 206.688C202.431 207.104 201.942 207.434 201.402 207.659C200.863 207.884 200.284 208 199.699 208H124.699V185.74H199.699C200.871 185.74 201.996 186.206 202.825 187.035C203.654 187.864 204.119 188.988 204.119 190.16Z" stroke="#333333" stroke-width="4.52" stroke-miterlimit="10"/>
<path d="M124.741 185.74V208H74.7408C74.1538 208 73.5738 207.884 73.0328 207.657C72.4918 207.431 72.0018 207.099 71.5898 206.681C71.1788 206.263 70.8548 205.768 70.6368 205.223C70.4188 204.679 70.3118 204.097 70.3208 203.51L70.5608 190.11C70.5818 188.954 71.0568 187.852 71.8848 187.044C72.7118 186.235 73.8238 185.785 74.9808 185.79L124.741 185.74Z" stroke="#333333" stroke-width="4.52" stroke-miterlimit="10"/>
<path d="M195.519 208V245.54C195.514 247.589 194.698 249.552 193.249 251C191.801 252.449 189.838 253.265 187.789 253.27H132.289V208H195.519Z" stroke="#333333" stroke-width="4.52" stroke-miterlimit="10"/>
<path d="M132.291 208V253.27H84.3511C82.3021 253.267 80.3371 252.452 78.8881 251.003C77.4391 249.554 76.6241 247.589 76.6211 245.54V208H132.291Z" stroke="#333333" stroke-width="4.52" stroke-miterlimit="10"/>
<path d="M187.55 144.15V152.93C187.55 153.312 187.474 153.69 187.328 154.042C187.182 154.395 186.967 154.715 186.697 154.984C186.426 155.254 186.106 155.467 185.753 155.612C185.4 155.757 185.021 155.831 184.64 155.83H135.43V141.25H184.64C185.021 141.249 185.4 141.323 185.753 141.468C186.106 141.613 186.426 141.826 186.697 142.096C186.967 142.365 187.182 142.685 187.328 143.038C187.474 143.39 187.55 143.768 187.55 144.15Z" fill="#9E7ACD"/>
<path d="M135.429 141.25H104.449V155.83H135.429V141.25Z" fill="#BCA3DC"/>
<path d="M181.901 155.83V180.48C181.895 181.825 181.358 183.113 180.406 184.063C179.454 185.013 178.165 185.547 176.821 185.55H140.391V155.83H181.901Z" fill="#9E7ACD"/>
<path d="M140.39 155.82H108.98V185.54H140.39V155.82Z" fill="#BCA3DC"/>
<path d="M187.55 144.15V152.93C187.55 153.312 187.474 153.69 187.328 154.042C187.182 154.395 186.967 154.715 186.697 154.984C186.426 155.254 186.106 155.467 185.753 155.612C185.4 155.757 185.021 155.831 184.64 155.83H135.43V141.25H184.64C185.021 141.249 185.4 141.323 185.753 141.468C186.106 141.613 186.426 141.826 186.697 142.096C186.967 142.365 187.182 142.685 187.328 143.038C187.474 143.39 187.55 143.768 187.55 144.15Z" stroke="#333333" stroke-width="4.52" stroke-miterlimit="10"/>
<path d="M135.431 141.25V155.83H102.601C102.212 155.829 101.827 155.75 101.469 155.597C101.111 155.445 100.787 155.222 100.517 154.943C100.247 154.663 100.035 154.332 99.8946 153.969C99.7546 153.606 99.6886 153.219 99.7006 152.83L99.8606 144.04C99.8756 143.282 100.189 142.559 100.731 142.028C101.273 141.497 102.002 141.2 102.761 141.2L135.431 141.25Z" stroke="#333333" stroke-width="4.52" stroke-miterlimit="10"/>
<path d="M181.901 155.83V180.48C181.895 181.825 181.358 183.113 180.406 184.063C179.454 185.013 178.165 185.547 176.821 185.55H140.391V155.83H181.901Z" stroke="#333333" stroke-width="4.52" stroke-miterlimit="10"/>
<path d="M140.39 155.83V185.55H108.91C107.566 185.547 106.278 185.012 105.328 184.062C104.377 183.112 103.842 181.824 103.84 180.48V155.83H140.39Z" stroke="#333333" stroke-width="4.52" stroke-miterlimit="10"/>
<path d="M178.911 106.66V114C178.908 114.644 178.652 115.261 178.196 115.716C177.741 116.171 177.125 116.428 176.481 116.43H135.371V104.23H176.481C176.8 104.23 177.116 104.293 177.411 104.415C177.706 104.538 177.974 104.717 178.199 104.942C178.425 105.168 178.604 105.436 178.726 105.731C178.848 106.025 178.911 106.341 178.911 106.66Z" fill="#9E7ACD"/>
<path d="M135.381 104.23H110.461V116.42H135.381V104.23Z" fill="#BCA3DC"/>
<path d="M174.192 116.42V137C174.186 138.123 173.738 139.198 172.944 139.992C172.15 140.786 171.075 141.235 169.952 141.24H139.512V116.42H174.192Z" fill="#9E7ACD"/>
<path d="M139.511 116.42V141.25H113.221C112.573 141.253 111.933 141.105 111.352 140.819C110.771 140.532 110.264 140.115 109.871 139.6H114.111V116.42H139.511Z" fill="#BCA3DC"/>
<path d="M178.911 106.66V114C178.908 114.644 178.652 115.261 178.196 115.716C177.741 116.171 177.125 116.428 176.481 116.43H135.371V104.23H176.481C176.8 104.23 177.116 104.293 177.411 104.415C177.706 104.538 177.974 104.717 178.199 104.942C178.425 105.168 178.604 105.436 178.726 105.731C178.848 106.025 178.911 106.341 178.911 106.66Z" stroke="#333333" stroke-width="4.52" stroke-miterlimit="10"/>
<path d="M135.37 104.23V116.42H107.94C107.618 116.419 107.3 116.354 107.004 116.229C106.707 116.104 106.439 115.921 106.214 115.691C105.989 115.461 105.811 115.189 105.692 114.89C105.573 114.592 105.515 114.272 105.52 113.95L105.65 106.61C105.66 105.976 105.92 105.37 106.373 104.925C106.825 104.48 107.435 104.23 108.07 104.23H135.37Z" stroke="#333333" stroke-width="4.52" stroke-miterlimit="10"/>
<path d="M174.192 116.42V137C174.186 138.123 173.738 139.198 172.944 139.992C172.15 140.786 171.075 141.235 169.952 141.24H139.512V116.42H174.192Z" stroke="#333333" stroke-width="4.52" stroke-miterlimit="10"/>
<path d="M139.51 116.42V141.25H113.21C112.09 141.239 111.019 140.787 110.231 139.991C109.442 139.195 109 138.12 109 137V116.42H139.51Z" stroke="#333333" stroke-width="4.52" stroke-miterlimit="10"/>
<path d="M127.56 878.4C116.04 879.38 104.517 880.35 92.9901 881.31C90.2621 881.522 87.7161 882.759 85.8631 884.772C84.0101 886.785 82.9871 889.424 83.0001 892.16C83.0001 893.585 83.2811 894.997 83.8271 896.313C84.3731 897.63 85.1731 898.825 86.1821 899.832C87.1911 900.839 88.3881 901.637 89.7061 902.181C91.0231 902.724 92.4351 903.003 93.8601 903L186 902.9C186.365 902.9 186.724 902.815 187.05 902.653C187.376 902.491 187.661 902.255 187.881 901.964C188.1 901.674 188.25 901.336 188.318 900.978C188.385 900.62 188.369 900.251 188.27 899.9C166.722 821.249 154.989 740.233 153.34 658.7" stroke="#333333" stroke-width="4.52" stroke-miterlimit="10"/>
<path d="M301.102 394.17V394.15" stroke="#333333" stroke-width="4.52" stroke-miterlimit="10"/>
<path d="M279.78 504.84C278.57 510.12 277.33 515.39 276.02 520.65C275.67 522.07 275.3 523.5 274.94 524.9C261.05 579.24 240.34 633.77 250.75 688.76C265 764 313.36 844 349 899.76C349.82 901.06 337.79 903.01 336.25 903C308.72 902.76 271.03 902.53 241.9 902.29C239.153 902.269 236.525 901.165 234.587 899.217C232.65 897.27 231.558 894.637 231.55 891.89V891.71C231.54 889.237 232.41 886.841 234.004 884.951C235.597 883.06 237.812 881.798 240.25 881.39C251.14 879.58 266.35 877.77 273.18 875.97L259.62 860.49C236 832.09 210 803 192.71 770.1C165.6 718.41 150.07 661 145.46 602.86C142.94 571.27 144.93 539.48 152.46 508.7" stroke="#333333" stroke-width="4.52" stroke-miterlimit="10"/>
<path d="M195.52 225.27C199.848 223.081 204.322 221.193 208.91 219.62C213.586 218.011 218.376 216.754 223.24 215.86C223.24 215.86 223.29 215.86 223.33 215.86L224.51 215.64C224.9 215.57 225.28 215.51 225.67 215.46C226.06 215.41 226.27 215.35 226.56 215.31" stroke="#333333" stroke-width="4.52" stroke-miterlimit="10"/>
<path d="M92.3697 415.74C89.7757 425.66 87.3028 435.617 84.9498 445.61C81.7228 459.39 78.7697 473.22 76.0897 487.1C63.0897 554.98 57.5097 624.91 67.2297 693.6C71.8717 726.542 79.4417 759.003 89.8497 790.6C95.0557 806.38 100.963 821.904 107.57 837.17C109.45 841.48 123.89 878.42 127.52 878.42" stroke="#333333" stroke-width="4.52" stroke-miterlimit="10"/>
<path d="M263.789 456.47C263.998 456.483 264.205 456.513 264.409 456.56L265.409 456.7C273.159 457.91 281.099 458.95 289.069 459.7C344.499 464.96 400.279 456.65 395.379 399.47C392.379 363.68 380.379 343.05 365.969 311.02C364.869 308.593 363.766 306.183 362.659 303.79C351.419 279.58 338.729 256.79 316.329 241.31C314.759 240.21 313.169 239.17 311.509 238.16C300.869 231.76 289.596 226.479 277.869 222.4L277.699 222.35" stroke="#333333" stroke-width="4.52" stroke-miterlimit="10"/>
<path d="M284.858 323.25L310.528 372.54C311.879 375.091 312.454 377.981 312.182 380.854C311.91 383.727 310.803 386.458 308.998 388.71C304.688 394.17 298.058 395.12 291.658 396.71L251.158 405.06L228.998 409.64C222.388 411.03 219.588 409.93 218.188 406.54C213.038 394.15 199.328 394.54 199.328 394.54L188.498 394.49C186.758 394.49 185.048 394.27 183.328 394.16C182.255 394.096 181.18 394.251 180.169 394.616C179.158 394.981 178.232 395.548 177.447 396.283C176.662 397.017 176.035 397.904 175.604 398.888C175.172 399.873 174.946 400.935 174.938 402.01C174.94 403.652 175.453 405.253 176.406 406.59C177.36 407.927 178.706 408.934 180.258 409.47L188.588 411.13C188.922 411.197 189.236 411.34 189.505 411.548C189.774 411.756 189.992 412.023 190.141 412.329C190.29 412.635 190.366 412.971 190.364 413.311C190.362 413.651 190.281 413.986 190.128 414.29C189.632 414.913 188.99 415.404 188.258 415.72H132.138C131.509 415.776 130.899 415.972 130.355 416.293C129.81 416.614 129.343 417.053 128.989 417.576C128.635 418.1 128.402 418.696 128.306 419.321C128.211 419.946 128.256 420.585 128.438 421.19C129.438 425.5 134.388 427.91 138.248 429.02C166.748 437.28 195.358 443.93 224.528 449.38C238.122 451.92 251.745 454.353 265.398 456.68" stroke="#333333" stroke-width="4.52" stroke-miterlimit="10"/>
<path d="M78.759 345.59C69.919 349.59 61.329 349.41 57.219 358.51C53.013 368.355 51.095 379.026 51.609 389.72C52.389 402.8 61.039 409.88 74.609 411.63C80.187 412.567 85.849 412.902 91.499 412.63C94.879 412.45 98.499 412.47 101.609 411.04C105.739 409.18 107.799 403.73 103.799 400.48C101.719 398.78 98.869 398.16 96.239 397.63C99.159 397.78 101.939 397.89 104.239 397.94C108.989 398.07 113.799 394.8 113.799 389.7C113.799 384.22 109.299 382.45 104.629 382.21L71.069 380.48L93.229 381.55C98.359 381.81 107.749 382.7 109.759 376.36C110.183 374.999 110.161 373.539 109.697 372.192C109.233 370.845 108.351 369.681 107.179 368.87C103.179 366.08 97.759 365.68 93.079 365.42C86.256 364.887 79.396 365.062 72.609 365.94C73.239 365.77 71.459 365.94 72.039 365.77C77.509 364.05 80.289 363.77 85.039 360.65" stroke="#333333" stroke-width="4.52" stroke-miterlimit="10"/>
<path d="M78.7617 345.59C79.6517 345.19 80.7617 344.66 81.9417 344.15C82.2817 344 82.6517 343.86 83.0117 343.71C83.3717 343.56 83.7117 343.44 84.0717 343.31L85.1317 342.96L85.6617 342.8C85.8817 342.72 86.1217 342.67 86.3417 342.61L86.7217 342.54C87.1497 342.431 87.5837 342.344 88.0217 342.28C88.6837 342.187 89.3537 342.163 90.0217 342.21L90.4817 342.27C90.5937 342.268 90.7047 342.285 90.8117 342.32C91.0317 342.32 91.2517 342.41 91.4617 342.47C91.7097 342.535 91.9507 342.626 92.1817 342.74C92.5627 342.919 92.9197 343.147 93.2417 343.42C93.3467 343.499 93.4447 343.59 93.5317 343.69C93.8477 344.013 94.1297 344.368 94.3717 344.75C94.3717 344.75 99.9617 352.35 84.5817 360.97" stroke="#333333" stroke-width="4.52" stroke-miterlimit="10"/>
<path d="M96.6302 397.73C96.6302 397.73 79.6802 396.02 77.1602 395.84" stroke="#333333" stroke-width="4.52" stroke-miterlimit="10"/>
<path d="M82.6719 455.55C82.6719 455.55 222.002 446.4 279.782 504.84C282.712 507.25 292.462 519.2 274.942 524.91" stroke="#333333" stroke-width="4.52" stroke-miterlimit="10"/>
<path d="M307.068 461C307.068 461 295.448 505 283.828 519.2" stroke="#333333" stroke-width="4.52" stroke-miterlimit="10"/>
<path d="M278.372 503.44C278.372 503.44 290.652 510.66 281.852 521.39L274.422 524.91L279.642 505.44L278.372 503.44Z" fill="#333333"/>
<path d="M320.119 479.36C325.889 418.94 311.289 400.12 300.219 394.36L301.099 394.12C339.979 388.88 348.099 463.27 349.459 480.53L320.119 479.36Z" fill="#BCA3DC"/>
<path d="M319.489 484.11C325.259 423.69 311.289 400.11 300.219 394.39L301.099 394.15C339.979 388.91 348.349 466.84 349.699 484.15L319.489 484.11Z" fill="#BCA3DC"/>
<path d="M264.061 484.66H232.531V668.03H264.061V484.66Z" fill="white"/>
<path d="M301.101 394.15C345.101 388.23 349.701 484.15 349.701 484.15H319.491C324.591 390.36 285.031 398.15 285.031 398.15C286.371 397.94 301.101 394.15 301.101 394.15Z" stroke="#333333" stroke-width="4.52" stroke-miterlimit="10"/>
<path d="M419.249 492.79H272.359V667.48H419.249V492.79Z" fill="#9E7ACD"/>
<path d="M419.25 483.54H264.59V667.48H419.25V483.54Z" fill="white"/>
<path d="M421.132 491V660.63C421.132 665.44 416.432 669.34 410.622 669.34H241.692C235.882 669.34 231.172 665.44 231.172 660.63V491C231.172 486.19 235.882 482.29 241.692 482.29H410.622C416.432 482.25 421.132 486.15 421.132 491Z" fill="#9E7ACD"/>
<path d="M412.101 499.08V653.61C412.109 654.644 411.913 655.669 411.525 656.627C411.137 657.585 410.564 658.457 409.838 659.193C409.113 659.929 408.25 660.516 407.298 660.918C406.346 661.321 405.325 661.533 404.291 661.54H278.861C277.827 661.533 276.806 661.321 275.854 660.918C274.902 660.516 274.039 659.929 273.314 659.193C272.588 658.457 272.015 657.585 271.627 656.627C271.239 655.669 271.043 654.644 271.051 653.61V499.08C271.043 498.047 271.239 497.022 271.627 496.064C272.015 495.106 272.588 494.234 273.314 493.498C274.039 492.761 274.902 492.175 275.854 491.772C276.806 491.37 277.827 491.158 278.861 491.15H404.291C405.325 491.158 406.346 491.37 407.298 491.772C408.25 492.175 409.113 492.761 409.838 493.498C410.564 494.234 411.137 495.106 411.525 496.064C411.913 497.022 412.109 498.047 412.101 499.08Z" fill="#9E7ACD"/>
<path d="M419.248 484.11H264.578V667.48H419.248V484.11Z" stroke="#333333" stroke-width="4.52" stroke-miterlimit="10"/>
<path d="M263.939 484.11H233.059V667.48H263.939V484.11Z" stroke="#333333" stroke-width="4.52" stroke-miterlimit="10"/>
<path d="M233.059 667.48L248.299 645.59L263.939 667.48" stroke="#333333" stroke-width="4.52" stroke-miterlimit="10"/>
<path d="M248.501 484.11L248.301 645.59" stroke="#333333" stroke-width="4.52" stroke-miterlimit="10"/>
<path d="M294.52 459.7V484.11" stroke="#333333" stroke-width="4.52" stroke-miterlimit="10"/>
<path d="M319.829 461C319.829 461 296.559 460.6 292.309 459.39C292.309 459.39 294.519 456.66 294.519 466.48C294.519 476.3 293.649 484.07 295.719 484.07C297.789 484.07 318.449 483.5 318.449 483.5C318.449 483.5 320.099 482.02 319.789 477.5C319.479 472.98 319.829 461 319.829 461Z" fill="#333333"/>
<path d="M0.359375 902.95H653.639" stroke="#333333" stroke-width="4.52" stroke-miterlimit="10"/>
<path d="M441.241 139.44C447.747 139.44 453.021 134.166 453.021 127.66C453.021 121.154 447.747 115.88 441.241 115.88C434.735 115.88 429.461 121.154 429.461 127.66C429.461 134.166 434.735 139.44 441.241 139.44Z" fill="#BCA3DC"/>
<path d="M411.41 175.65C411.41 167.739 414.553 160.152 420.147 154.557C425.741 148.963 433.329 145.82 441.24 145.82C449.152 145.82 456.739 148.963 462.333 154.557C467.927 160.152 471.07 167.739 471.07 175.65H411.41Z" fill="#BCA3DC"/>
<path d="M472.02 105.69H410.46C405.324 105.69 401.16 109.854 401.16 114.99V176.55C401.16 181.687 405.324 185.85 410.46 185.85H472.02C477.156 185.85 481.32 181.687 481.32 176.55V114.99C481.32 109.854 477.156 105.69 472.02 105.69Z" stroke="#D7C8EA" stroke-width="4.52" stroke-miterlimit="10"/>
<path d="M444.149 710.5L452.869 728.17C453.103 728.641 453.449 729.048 453.875 729.357C454.302 729.665 454.797 729.865 455.319 729.94L474.809 732.77C475.408 732.858 475.971 733.111 476.434 733.502C476.896 733.893 477.241 734.405 477.428 734.981C477.615 735.557 477.638 736.174 477.493 736.762C477.348 737.35 477.042 737.886 476.609 738.31L462.499 752.06C462.123 752.429 461.842 752.884 461.68 753.386C461.518 753.887 461.48 754.42 461.569 754.94L464.899 774.35C465.001 774.947 464.935 775.561 464.707 776.122C464.479 776.684 464.099 777.171 463.609 777.527C463.119 777.884 462.539 778.097 461.935 778.141C461.33 778.186 460.726 778.061 460.189 777.78L442.749 768.61C442.286 768.367 441.771 768.24 441.249 768.24C440.726 768.24 440.211 768.367 439.749 768.61L422.309 777.78C421.772 778.061 421.167 778.186 420.563 778.141C419.958 778.097 419.378 777.884 418.888 777.527C418.399 777.171 418.018 776.684 417.79 776.122C417.562 775.561 417.496 774.947 417.599 774.35L420.929 754.94C421.02 754.42 420.983 753.886 420.821 753.384C420.659 752.883 420.376 752.428 419.999 752.06L405.889 738.31C405.455 737.886 405.149 737.35 405.004 736.762C404.86 736.174 404.882 735.557 405.069 734.981C405.256 734.405 405.601 733.893 406.064 733.502C406.526 733.111 407.089 732.858 407.689 732.77L427.189 729.94C427.709 729.865 428.203 729.665 428.628 729.357C429.053 729.048 429.397 728.641 429.629 728.17L438.349 710.5C438.62 709.963 439.035 709.513 439.547 709.198C440.059 708.883 440.648 708.717 441.249 708.717C441.85 708.717 442.439 708.883 442.951 709.198C443.463 709.513 443.877 709.963 444.149 710.5Z" fill="#BCA3DC"/>
<path d="M312.25 754.9H378.47" stroke="#D7C8EA" stroke-width="4.52" stroke-miterlimit="10"/>
</svg>
