<svg width="24" height="24" viewBox="0 0 24 24" fill="none" xmlns="http://www.w3.org/2000/svg">
<g clip-path="url(#clip0_5_2)">
<path d="M12 0C9.1506 0.000118158 6.39419 1.01414 4.22399 2.86062C2.05379 4.7071 0.611434 7.26554 0.154993 10.0782C-0.301449 12.8908 0.257814 15.7741 1.73271 18.2121C3.20761 20.6501 5.5019 22.4838 8.20506 23.385C8.80506 23.49 9.03006 23.13 9.03006 22.815C9.03006 22.53 9.01505 21.585 9.01505 20.58C6.00003 21.135 5.22003 19.845 4.98003 19.17C4.71372 18.5135 4.29156 17.9318 3.75003 17.475C3.33003 17.25 2.73003 16.695 3.73502 16.68C4.11877 16.7217 4.48682 16.8552 4.80799 17.0693C5.12916 17.2834 5.39399 17.5718 5.58003 17.91C5.74416 18.2048 5.96485 18.4644 6.22946 18.6738C6.49407 18.8832 6.7974 19.0383 7.12207 19.1303C7.44674 19.2222 7.78637 19.2492 8.12149 19.2097C8.45661 19.1702 8.78064 19.065 9.07501 18.9C9.12696 18.2899 9.39884 17.7195 9.84003 17.295C7.17003 16.995 4.38003 15.96 4.38003 11.37C4.36317 10.1774 4.80326 9.02353 5.61003 8.14504C5.24317 7.1085 5.2861 5.97098 5.73003 4.96504C5.73003 4.96504 6.735 4.65002 9.03003 6.19504C10.9936 5.655 13.0665 5.655 15.03 6.19504C17.325 4.63504 18.33 4.96504 18.33 4.96504C18.774 5.97096 18.817 7.10851 18.45 8.14504C19.2592 9.02202 19.6997 10.1769 19.68 11.37C19.68 15.975 16.875 16.995 14.205 17.295C14.4914 17.5853 14.712 17.9338 14.8517 18.3168C14.9915 18.6999 15.0472 19.1085 15.015 19.515C15.015 21.1201 15 22.41 15 22.815C15 23.13 15.225 23.505 15.825 23.385C18.5234 22.4765 20.8111 20.6385 22.2797 18.1993C23.7483 15.76 24.3023 12.8782 23.8427 10.0683C23.3831 7.25837 21.9398 4.70325 19.7706 2.85901C17.6013 1.01478 14.8473 0.00148189 12 0Z" fill="white"/>
</g>
<defs>
<clipPath id="clip0_5_2">
<rect width="24.0002" height="24" fill="white"/>
</clipPath>
</defs>
</svg>
