<svg width="24" height="24" viewBox="0 0 24 24" fill="none" xmlns="http://www.w3.org/2000/svg">
<g clip-path="url(#clip0_129_636)">
<path d="M16.5 0H7.5C5.51088 0 3.60322 0.790176 2.1967 2.1967C0.790176 3.60322 0 5.51088 0 7.5L0 16.5C0 18.4891 0.790176 20.3968 2.1967 21.8033C3.60322 23.2098 5.51088 24 7.5 24H16.5C18.4891 24 20.3968 23.2098 21.8033 21.8033C23.2098 20.3968 24 18.4891 24 16.5V7.5C24 5.51088 23.2098 3.60322 21.8033 2.1967C20.3968 0.790176 18.4891 0 16.5 0V0ZM21.75 16.5C21.75 19.395 19.395 21.75 16.5 21.75H7.5C4.605 21.75 2.25 19.395 2.25 16.5V7.5C2.25 4.605 4.605 2.25 7.5 2.25H16.5C19.395 2.25 21.75 4.605 21.75 7.5V16.5Z" fill="url(#paint0_linear_129_636)"/>
<path d="M12 6C10.4087 6 8.88258 6.63214 7.75736 7.75736C6.63214 8.88258 6 10.4087 6 12C6 13.5913 6.63214 15.1174 7.75736 16.2426C8.88258 17.3679 10.4087 18 12 18C13.5913 18 15.1174 17.3679 16.2426 16.2426C17.3679 15.1174 18 13.5913 18 12C18 10.4087 17.3679 8.88258 16.2426 7.75736C15.1174 6.63214 13.5913 6 12 6ZM12 15.75C11.0058 15.7488 10.0527 15.3533 9.34966 14.6503C8.64666 13.9473 8.25119 12.9942 8.25 12C8.25 9.9315 9.933 8.25 12 8.25C14.067 8.25 15.75 9.9315 15.75 12C15.75 14.067 14.067 15.75 12 15.75Z" fill="url(#paint1_linear_129_636)"/>
<path d="M18.4499 6.34949C18.8914 6.34949 19.2494 5.99154 19.2494 5.54999C19.2494 5.10844 18.8914 4.75049 18.4499 4.75049C18.0083 4.75049 17.6504 5.10844 17.6504 5.54999C17.6504 5.99154 18.0083 6.34949 18.4499 6.34949Z" fill="url(#paint2_linear_129_636)"/>
</g>
<defs>
<linearGradient id="paint0_linear_129_636" x1="2.196" y1="21.804" x2="21.804" y2="2.196" gradientUnits="userSpaceOnUse">
<stop stop-color="#FFC107"/>
<stop offset="0.507" stop-color="#F44336"/>
<stop offset="0.99" stop-color="#9C27B0"/>
</linearGradient>
<linearGradient id="paint1_linear_129_636" x1="7.758" y1="16.242" x2="16.242" y2="7.758" gradientUnits="userSpaceOnUse">
<stop stop-color="#FFC107"/>
<stop offset="0.507" stop-color="#F44336"/>
<stop offset="0.99" stop-color="#9C27B0"/>
</linearGradient>
<linearGradient id="paint2_linear_129_636" x1="17.8844" y1="6.11549" x2="19.0154" y2="4.98449" gradientUnits="userSpaceOnUse">
<stop stop-color="#FFC107"/>
<stop offset="0.507" stop-color="#F44336"/>
<stop offset="0.99" stop-color="#9C27B0"/>
</linearGradient>
<clipPath id="clip0_129_636">
<rect width="24" height="24" fill="white"/>
</clipPath>
</defs>
</svg>
