<svg width="24" height="24" viewBox="0 0 24 24" fill="none" xmlns="http://www.w3.org/2000/svg">
<path d="M18.6131 0H5.38691C2.4118 0 0 2.4118 0 5.38691V18.6131C0 21.5882 2.4118 24 5.38691 24H18.6131C21.5882 24 24 21.5882 24 18.6131V5.38691C24 2.4118 21.5882 0 18.6131 0Z" fill="#0B86CA"/>
<path d="M6.65067 9.97567H9.14461V18.0228H6.65067V9.97567ZM7.92258 5.97705C8.20831 5.97706 8.48765 6.06168 8.72533 6.22026C8.96302 6.37884 9.14842 6.60426 9.25815 6.86809C9.36787 7.13191 9.39699 7.42233 9.34185 7.70269C9.28671 7.98305 9.14977 8.2408 8.9483 8.44342C8.74684 8.64604 8.48988 8.78446 8.20984 8.8412C7.9298 8.89795 7.63922 8.87049 7.37477 8.76228C7.11032 8.65408 6.88384 8.46997 6.72391 8.23319C6.56397 7.99642 6.47774 7.71758 6.4761 7.43185C6.475 7.24119 6.51161 7.05221 6.58381 6.87575C6.65601 6.69929 6.76239 6.53885 6.89681 6.40365C7.03124 6.26845 7.19107 6.16116 7.36711 6.08795C7.54315 6.01474 7.73193 5.97705 7.92258 5.97705ZM10.7407 9.97567H13.1432V11.073C13.3837 10.6626 13.7311 10.3252 14.1484 10.0968C14.5657 9.86836 15.0371 9.75755 15.5125 9.77615C18.0064 9.77615 18.5135 11.4388 18.5135 13.6085V18.0228H16.0196V14.1322C16.0196 13.2012 16.0196 11.9958 14.7227 11.9958C13.4259 11.9958 13.2264 13.01 13.2264 14.0574V18.0394H10.7324L10.7407 9.97567Z" fill="white"/>
</svg>
