<svg width="24" height="24" viewBox="0 0 24 24" fill="none" xmlns="http://www.w3.org/2000/svg">
<g clip-path="url(#clip0_5_5)">
<path d="M22.1637 0.000167795H1.83597C1.60747 -0.00300571 1.38058 0.0388643 1.16826 0.123387C0.955943 0.207909 0.762353 0.333428 0.598548 0.492775C0.434744 0.652123 0.303933 0.842177 0.213587 1.05208C0.123241 1.26199 0.0751286 1.48764 0.0719986 1.71614V22.2839C0.0751286 22.5124 0.123241 22.738 0.213587 22.9479C0.303933 23.1578 0.434744 23.3479 0.598548 23.5072C0.762353 23.6666 0.955943 23.7921 1.16826 23.8766C1.38058 23.9611 1.60747 24.003 1.83597 23.9998H22.1637C22.3922 24.003 22.6191 23.9611 22.8314 23.8766C23.0437 23.7921 23.2373 23.6666 23.4011 23.5072C23.5649 23.3479 23.6957 23.1578 23.7861 22.9479C23.8764 22.738 23.9245 22.5124 23.9277 22.2839V1.71614C23.9245 1.48764 23.8764 1.26199 23.7861 1.05208C23.6957 0.842177 23.5649 0.652123 23.4011 0.492775C23.2373 0.333428 23.0437 0.207909 22.8314 0.123387C22.6191 0.0388643 22.3922 -0.00300571 22.1637 0.000167795ZM7.3079 20.0879H3.70795V9.28804H7.3079V20.0879ZM5.50792 7.77606C5.01144 7.77606 4.5353 7.57883 4.18424 7.22777C3.83317 6.87671 3.63595 6.40056 3.63595 5.90408C3.63595 5.40761 3.83317 4.93146 4.18424 4.5804C4.5353 4.22934 5.01144 4.03211 5.50792 4.03211C5.77155 4.00221 6.03853 4.02834 6.29136 4.10877C6.5442 4.1892 6.77719 4.32213 6.97509 4.49886C7.17299 4.67558 7.33133 4.89211 7.43974 5.13427C7.54815 5.37643 7.6042 5.63876 7.6042 5.90408C7.6042 6.16941 7.54815 6.43173 7.43974 6.67389C7.33133 6.91606 7.17299 7.13259 6.97509 7.30931C6.77719 7.48603 6.5442 7.61897 6.29136 7.6994C6.03853 7.77983 5.77155 7.80596 5.50792 7.77606ZM20.2917 20.0879H16.6918V14.292C16.6918 12.84 16.1758 11.892 14.8678 11.892C14.463 11.895 14.0688 12.0219 13.7384 12.2558C13.408 12.4897 13.1572 12.8192 13.0198 13.2C12.9259 13.482 12.8852 13.7791 12.8998 14.076V20.0759H9.29987C9.29987 20.0759 9.29987 10.26 9.29987 9.27604H12.8998V10.8C13.2269 10.2326 13.7025 9.76505 14.2755 9.44788C14.8486 9.1307 15.4973 8.97586 16.1518 9.00004C18.5517 9.00004 20.2917 10.548 20.2917 13.872V20.0879Z" fill="white"/>
</g>
<defs>
<clipPath id="clip0_5_5">
<rect width="23.9997" height="24" fill="white"/>
</clipPath>
</defs>
</svg>
