<svg width="26" height="22" viewBox="0 0 26 22" fill="none" xmlns="http://www.w3.org/2000/svg">
<g clip-path="url(#clip0_5_7)">
<path d="M25.8824 2.52431C24.9096 2.94631 23.8809 3.22528 22.8282 3.35254C23.9388 2.68907 24.7711 1.64532 25.1706 0.414894C24.127 1.03615 22.9845 1.47387 21.7929 1.70901C20.9965 0.845282 19.9358 0.270337 18.7774 0.0743493C17.619 -0.121638 16.4282 0.0724172 15.392 0.626081C14.3557 1.17974 13.5325 2.0617 13.0515 3.13362C12.5705 4.20555 12.4588 5.40681 12.7341 6.54901C10.624 6.44228 8.55986 5.89283 6.67591 4.93636C4.79195 3.97989 3.13027 2.63779 1.79882 0.997247C1.33183 1.81276 1.08644 2.73631 1.08706 3.67607C1.0854 4.5488 1.29958 5.4084 1.71051 6.17833C2.12144 6.94826 2.71638 7.60464 3.44235 8.08901C2.59856 8.06605 1.77279 7.83963 1.03529 7.42901V7.49372C1.04162 8.71652 1.47011 9.8996 2.24829 10.8428C3.02647 11.7861 4.10657 12.4316 5.30588 12.6702C4.84421 12.8107 4.3649 12.8848 3.88235 12.8902C3.54833 12.8863 3.21513 12.856 2.88588 12.7996C3.22741 13.8515 3.88834 14.7707 4.77669 15.4295C5.66504 16.0882 6.73663 16.4536 7.84235 16.4749C5.9752 17.9441 3.66997 18.7459 1.29412 18.7525C0.86154 18.754 0.429305 18.728 0 18.6749C2.42573 20.2411 5.25258 21.0725 8.14 21.069C10.1325 21.0897 12.1092 20.7132 13.9546 19.9613C15.8 19.2095 17.4771 18.0976 18.8879 16.6904C20.2987 15.2831 21.415 13.6089 22.1715 11.7655C22.9281 9.92203 23.3097 7.94631 23.2941 5.95372C23.2941 5.73372 23.2941 5.50078 23.2941 5.26783C24.3096 4.51053 25.1854 3.58215 25.8824 2.52431Z" fill="white"/>
</g>
<defs>
<clipPath id="clip0_5_7">
<rect width="25.8824" height="22" fill="white"/>
</clipPath>
</defs>
</svg>
