<svg width="24" height="24" viewBox="0 0 24 24" fill="none" xmlns="http://www.w3.org/2000/svg">
<path d="M18.8815 0H5.1185C2.29163 0 0 2.29163 0 5.1185V18.8815C0 21.7084 2.29163 24 5.1185 24H18.8815C21.7084 24 24 21.7084 24 18.8815V5.1185C24 2.29163 21.7084 0 18.8815 0Z" fill="#0A93E2"/>
<path fill-rule="evenodd" clip-rule="evenodd" d="M19.3001 8.3584C18.7831 8.58757 18.2264 8.74302 17.6434 8.8124C18.2391 8.455 18.696 7.88993 18.9125 7.21646C18.3548 7.5465 17.7369 7.78695 17.0802 7.91632C16.5539 7.3553 15.8038 7.00537 14.9738 7.00537C13.38 7.00537 12.0891 8.29765 12.0891 9.89008C12.0891 10.116 12.1141 10.3368 12.1636 10.5479C9.76619 10.4272 7.63994 9.27874 6.21744 7.53277C5.96846 7.95932 5.82674 8.455 5.82674 8.98347C5.82674 9.98476 6.33607 10.8682 7.10934 11.3851C6.63651 11.3704 6.19221 11.2401 5.80249 11.0236C5.80249 11.0363 5.80249 11.0479 5.80249 11.0605C5.80249 12.4577 6.7973 13.6238 8.1168 13.8887C7.87528 13.9549 7.62005 13.9907 7.35727 13.9907C7.17147 13.9907 6.99072 13.9727 6.81401 13.9391C7.18192 15.0853 8.24725 15.9193 9.50994 15.9424C8.52238 16.7167 7.2785 17.1768 5.92647 17.1768C5.69303 17.1768 5.46311 17.1642 5.23828 17.137C6.51471 17.9554 8.03076 18.4333 9.66002 18.4333C14.9666 18.4333 17.8693 14.0367 17.8693 10.2244C17.8693 10.0993 17.8661 9.9753 17.861 9.85133C18.4249 9.44468 18.9136 8.93634 19.3001 8.35839L19.3001 8.3584Z" fill="white"/>
</svg>
