<svg width="791" height="906" viewBox="0 0 791 906" fill="none" xmlns="http://www.w3.org/2000/svg">
<path d="M544 902.92C578.73 903.92 613.78 879.54 636.84 855.75C707.84 782.47 746.72 677.66 751.23 576.6C753.376 529.757 746.361 482.946 730.58 438.79C708.21 376.49 649.33 345.35 593.31 390.55C503.38 463.06 371.08 312.63 193.84 357.79C175.72 362.436 158.078 368.781 141.15 376.74C136.143 379.073 131.29 381.613 126.59 384.36" stroke="#D4CEE4" stroke-opacity="0.5" stroke-width="3.11" stroke-miterlimit="10"/>
<path d="M122.328 386.88C106.042 396.92 91.361 409.356 78.778 423.77C48.598 458.15 20.778 505.45 23.568 552.62C25.858 591.16 47.758 621.31 75.258 646.62C101.688 670.98 149.008 691.02 154.338 730.8C160.898 779.71 109.508 814.93 87.798 852.8C74.998 875.17 85.998 904 114.258 903" stroke="#D4CEE4" stroke-opacity="0.5" stroke-width="3.11" stroke-miterlimit="10"/>
<path d="M79.8419 623.159L79.4219 633.459H79.6319V649.749H101.362V647.179L100.372 623.159H79.8419Z" fill="#B8ADD2" fill-opacity="0.5"/>
<path d="M69.761 592.35C75.68 598.542 79.243 606.613 79.831 615.16H100.371C100.902 607.363 103.927 599.944 109.001 594C112.48 589.985 116.78 586.764 121.61 584.554C126.441 582.344 131.689 581.197 137.001 581.19H143.291L144.501 551.49C144.814 546.48 144.093 541.46 142.383 536.741C140.672 532.022 138.01 527.706 134.56 524.06C131.11 520.414 126.947 517.517 122.33 515.549C117.713 513.581 112.74 512.584 107.721 512.62H72.471C67.455 512.576 62.483 513.565 57.866 515.526C53.249 517.486 49.084 520.376 45.632 524.016C42.18 527.656 39.514 531.967 37.801 536.681C36.087 541.396 35.362 546.413 35.671 551.42L36.891 581.19H43.181C48.132 581.182 53.035 582.165 57.6 584.082C62.165 585.998 66.3 588.809 69.761 592.35Z" fill="#B8ADD2" fill-opacity="0.5"/>
<path d="M208.99 623.159L208.57 633.459H208.78V649.749H230.51V647.179L229.52 623.159H208.99Z" fill="#B8ADD2" fill-opacity="0.5"/>
<path d="M198.909 592.35C204.84 598.537 208.41 606.61 208.999 615.16H229.539C230.05 607.371 233.051 599.953 238.099 594C241.59 589.978 245.905 586.754 250.752 584.547C255.599 582.34 260.864 581.202 266.189 581.21H272.479L273.689 551.51C274.002 546.501 273.281 541.48 271.571 536.762C269.861 532.043 267.198 527.726 263.748 524.08C260.299 520.435 256.136 517.538 251.518 515.57C246.901 513.601 241.928 512.604 236.909 512.64H201.619C196.603 512.596 191.632 513.585 187.014 515.546C182.397 517.507 178.233 520.397 174.781 524.036C171.329 527.676 168.663 531.987 166.949 536.702C165.235 541.416 164.51 546.433 164.819 551.44L165.999 581.19H172.299C177.256 581.176 182.165 582.157 186.735 584.074C191.306 585.991 195.446 588.805 198.909 592.35Z" fill="#B8ADD2" fill-opacity="0.5"/>
<path d="M338.143 623.159L337.723 633.459H337.933V649.749H359.663V647.179L358.683 623.159H338.143Z" fill="#B8ADD2" fill-opacity="0.5"/>
<path d="M328.062 592.35C333.985 598.54 337.548 606.612 338.132 615.16H358.672C359.188 607.369 362.196 599.951 367.252 594C370.742 589.978 375.058 586.754 379.904 584.547C384.751 582.34 390.016 581.202 395.342 581.21H401.632L402.842 551.51C403.155 546.501 402.434 541.48 400.723 536.762C399.013 532.043 396.35 527.726 392.901 524.08C389.451 520.435 385.288 517.538 380.671 515.57C376.054 513.601 371.081 512.604 366.062 512.64H330.772C325.756 512.596 320.784 513.585 316.167 515.546C311.55 517.507 307.385 520.397 303.933 524.036C300.481 527.676 297.815 531.987 296.101 536.702C294.388 541.416 293.663 546.433 293.972 551.44L295.192 581.21H301.492C306.44 581.199 311.34 582.179 315.904 584.092C320.467 586.006 324.601 588.813 328.062 592.35Z" fill="#B8ADD2" fill-opacity="0.5"/>
<path d="M467.291 623.159L466.871 633.459H467.081V649.749H488.811V647.179L487.831 623.159H467.291Z" fill="#B8ADD2" fill-opacity="0.5"/>
<path d="M457.21 592.35C463.133 598.54 466.697 606.612 467.28 615.16H487.82C488.337 607.369 491.345 599.951 496.4 594C499.892 589.979 504.207 586.756 509.054 584.549C513.9 582.342 519.165 581.203 524.49 581.21H530.79L531.99 551.51C532.303 546.501 531.582 541.48 529.872 536.762C528.162 532.043 525.499 527.726 522.049 524.08C518.599 520.435 514.436 517.538 509.819 515.57C505.202 513.601 500.229 512.604 495.21 512.64H459.92C454.904 512.596 449.933 513.585 445.315 515.546C440.698 517.507 436.534 520.397 433.082 524.036C429.63 527.676 426.964 531.987 425.25 536.702C423.536 541.416 422.811 546.433 423.12 551.44L424.34 581.21H430.64C435.588 581.199 440.489 582.179 445.052 584.092C449.615 586.006 453.749 588.813 457.21 592.35Z" fill="#B8ADD2" fill-opacity="0.5"/>
<path d="M596.44 623.159L596.02 633.459H596.229V649.749H617.96V647.179L616.979 623.159H596.44Z" fill="#B8ADD2" fill-opacity="0.5"/>
<path d="M586.362 592.35C592.285 598.54 595.849 606.612 596.433 615.16H617.003C617.511 607.373 620.508 599.954 625.553 594C629.045 589.978 633.362 586.754 638.211 584.547C643.059 582.34 648.325 581.202 653.653 581.21H659.943L661.143 551.51C661.455 546.501 660.734 541.48 659.024 536.762C657.314 532.043 654.651 527.726 651.201 524.08C647.752 520.435 643.589 517.538 638.972 515.57C634.354 513.601 629.382 512.604 624.363 512.64H589.073C584.056 512.596 579.085 513.585 574.468 515.546C569.85 517.507 565.686 520.397 562.234 524.036C558.782 527.676 556.116 531.987 554.402 536.702C552.688 541.416 551.964 546.433 552.273 551.44L553.493 581.21H559.792C564.741 581.199 569.641 582.179 574.204 584.092C578.768 586.006 582.902 588.813 586.362 592.35Z" fill="#B8ADD2" fill-opacity="0.5"/>
<path d="M725.592 623.16L725.172 633.46H725.382V649.75H747.112V633.46H777.642C780.351 633.459 782.955 632.411 784.908 630.534C786.862 628.657 788.013 626.097 788.122 623.39L788.322 618.09C786.992 619.631 785.356 620.879 783.517 621.752C781.678 622.625 779.677 623.104 777.642 623.16H725.592Z" fill="#B8ADD2" fill-opacity="0.5"/>
<path d="M715.511 592.35C721.434 598.54 724.998 606.612 725.581 615.16H777.641C780.348 615.159 782.951 614.112 784.904 612.237C786.857 610.362 788.01 607.805 788.121 605.1L790.291 551.49C790.605 546.48 789.885 541.459 788.176 536.739C786.466 532.02 783.803 527.703 780.353 524.057C776.903 520.411 772.74 517.514 768.122 515.546C763.504 513.578 758.53 512.582 753.511 512.62H718.221C713.205 512.576 708.233 513.565 703.616 515.526C698.999 517.486 694.834 520.376 691.382 524.016C687.93 527.656 685.264 531.967 683.551 536.681C681.837 541.396 681.112 546.413 681.421 551.42L682.641 581.19H688.941C693.891 581.181 698.792 582.164 703.355 584.081C707.919 585.998 712.052 588.809 715.511 592.35Z" fill="#B8ADD2" fill-opacity="0.5"/>
<path d="M79.8419 760.289L79.4219 770.589H79.6319V786.879H101.362V784.309L100.372 760.289H79.8419Z" fill="#B8ADD2" fill-opacity="0.5"/>
<path d="M69.761 729.469C75.679 735.667 79.241 743.74 79.831 752.289H100.371C100.897 744.486 103.923 737.059 109.001 731.109C112.48 727.097 116.781 723.879 121.611 721.672C126.442 719.466 131.69 718.322 137.001 718.319H143.291L144.501 688.619C144.814 683.61 144.093 678.59 142.383 673.871C140.672 669.152 138.01 664.836 134.56 661.19C131.11 657.544 126.947 654.647 122.33 652.679C117.713 650.711 112.74 649.714 107.721 649.749H72.471C67.455 649.706 62.483 650.695 57.866 652.655C53.249 654.616 49.084 657.506 45.632 661.146C42.18 664.785 39.514 669.097 37.801 673.811C36.087 678.526 35.362 683.543 35.671 688.549L36.891 718.319H43.181C48.131 718.312 53.033 719.294 57.597 721.209C62.162 723.124 66.298 725.933 69.761 729.469Z" fill="#B8ADD2" fill-opacity="0.5"/>
<path d="M208.99 760.289L208.57 770.589H208.78V786.879H230.51V784.309L229.52 760.289H208.99Z" fill="#B8ADD2" fill-opacity="0.5"/>
<path d="M198.909 729.469C204.838 735.662 208.409 743.737 208.999 752.289H229.539C230.052 744.491 233.06 737.065 238.119 731.109C241.609 727.086 245.924 723.861 250.771 721.654C255.618 719.447 260.883 718.31 266.209 718.319H272.499L273.709 688.619C274.022 683.61 273.301 678.59 271.591 673.871C269.881 669.152 267.218 664.836 263.768 661.19C260.319 657.544 256.156 654.647 251.538 652.679C246.921 650.711 241.948 649.714 236.929 649.749H201.619C196.603 649.706 191.632 650.695 187.014 652.655C182.397 654.616 178.233 657.506 174.781 661.146C171.329 664.785 168.663 669.097 166.949 673.811C165.235 678.526 164.51 683.543 164.819 688.549L165.999 718.319H172.299C177.255 718.307 182.162 719.287 186.733 721.202C191.303 723.117 195.443 725.928 198.909 729.469Z" fill="#B8ADD2" fill-opacity="0.5"/>
<path d="M338.143 760.289L337.723 770.589H337.933V786.879H359.663V784.309L358.683 760.289H338.143Z" fill="#B8ADD2" fill-opacity="0.5"/>
<path d="M328.062 729.469C333.983 735.665 337.546 743.739 338.132 752.289H358.672C359.184 744.491 362.192 737.065 367.252 731.109C370.741 727.086 375.056 723.861 379.903 721.654C384.75 719.447 390.016 718.31 395.342 718.319H401.632L402.842 688.619C403.155 683.61 402.434 678.59 400.723 673.871C399.013 669.152 396.35 664.836 392.901 661.19C389.451 657.544 385.288 654.647 380.671 652.679C376.054 650.711 371.081 649.714 366.062 649.749H330.772C325.756 649.706 320.784 650.695 316.167 652.655C311.55 654.616 307.385 657.506 303.933 661.146C300.481 664.785 297.815 669.097 296.101 673.811C294.388 678.526 293.663 683.543 293.972 688.549L295.192 718.319H301.492C306.44 718.312 311.34 719.295 315.903 721.21C320.467 723.124 324.6 725.933 328.062 729.469Z" fill="#B8ADD2" fill-opacity="0.5"/>
<path d="M467.291 760.289L466.871 770.589H467.081V786.879H488.811V784.309L487.831 760.289H467.291Z" fill="#B8ADD2" fill-opacity="0.5"/>
<path d="M457.21 729.469C463.132 735.665 466.695 743.739 467.28 752.289H487.82C488.332 744.491 491.341 737.065 496.4 731.109C499.89 727.086 504.205 723.862 509.052 721.655C513.899 719.448 519.164 718.31 524.49 718.319H530.79L531.99 688.619C532.303 683.61 531.582 678.59 529.872 673.871C528.162 669.152 525.499 664.836 522.049 661.19C518.599 657.544 514.436 654.647 509.819 652.679C505.202 650.711 500.229 649.714 495.21 649.749H459.92C454.904 649.706 449.933 650.695 445.315 652.655C440.698 654.616 436.534 657.506 433.082 661.146C429.63 664.785 426.964 669.097 425.25 673.811C423.536 678.526 422.811 683.543 423.12 688.549L424.34 718.319H430.64C435.589 718.312 440.489 719.295 445.052 721.21C449.615 723.124 453.749 725.933 457.21 729.469Z" fill="#B8ADD2" fill-opacity="0.5"/>
<path d="M596.44 760.289L596.02 770.589H596.229V786.879H617.96V784.309L616.979 760.289H596.44Z" fill="#B8ADD2" fill-opacity="0.5"/>
<path d="M586.362 729.469C592.284 735.665 595.847 743.739 596.433 752.289H617.003C617.515 744.491 620.523 737.065 625.583 731.109C629.074 727.086 633.391 723.86 638.239 721.653C643.088 719.447 648.355 718.309 653.683 718.319H659.972L661.173 688.619C661.485 683.61 660.764 678.59 659.054 673.871C657.344 669.152 654.681 664.836 651.231 661.19C647.782 657.544 643.619 654.647 639.002 652.679C634.384 650.711 629.412 649.714 624.393 649.749H589.073C584.056 649.706 579.085 650.695 574.468 652.655C569.85 654.616 565.686 657.506 562.234 661.146C558.782 664.785 556.116 669.097 554.402 673.811C552.688 678.526 551.964 683.543 552.273 688.549L553.493 718.319H559.792C564.741 718.312 569.641 719.295 574.204 721.21C578.767 723.124 582.901 725.933 586.362 729.469Z" fill="#B8ADD2" fill-opacity="0.5"/>
<path d="M725.592 760.29L725.172 770.59H725.382V786.88H747.112V770.59H777.642C780.351 770.589 782.955 769.541 784.908 767.664C786.862 765.787 788.013 763.227 788.122 760.52L788.322 755.22C786.992 756.761 785.356 758.009 783.517 758.882C781.678 759.755 779.677 760.234 777.642 760.29H725.592Z" fill="#B8ADD2" fill-opacity="0.5"/>
<path d="M715.511 729.469C721.432 735.665 724.996 743.739 725.581 752.289H777.641C780.348 752.289 782.951 751.242 784.904 749.367C786.857 747.492 788.01 744.935 788.121 742.229L790.291 688.619C790.605 683.61 789.885 678.589 788.176 673.869C786.466 669.15 783.803 664.833 780.353 661.187C776.903 657.541 772.74 654.644 768.122 652.676C763.504 650.708 758.53 649.712 753.511 649.749H718.221C713.205 649.706 708.233 650.695 703.616 652.655C698.999 654.616 694.834 657.506 691.382 661.146C687.93 664.785 685.264 669.097 683.551 673.811C681.837 678.526 681.112 683.543 681.421 688.549L682.641 718.319H688.941C693.89 718.312 698.79 719.295 703.353 721.21C707.916 723.124 712.05 725.933 715.511 729.469Z" fill="#B8ADD2" fill-opacity="0.5"/>
<path d="M160.629 328.85C143.229 315.53 131.849 301.19 135.209 296.85C138.569 292.51 155.339 299.75 172.749 313.08C190.159 326.41 201.489 340.72 198.159 345.08C198.097 345.175 198.011 345.251 197.909 345.3C194.079 349.12 177.619 341.89 160.629 328.85Z" fill="#9B8CC0"/>
<path d="M207.499 383.91C196.419 391.78 180.669 392.51 167.809 387.91C176.365 384.43 183.751 378.58 189.098 371.048C194.446 363.517 197.534 354.615 197.999 345.39V345.32C207.349 340.24 217.209 345.37 220.759 354.88C225.189 367 216.999 377.24 207.499 383.91Z" fill="#9B8CC0"/>
<path d="M135.05 296.9C125.548 299.871 117.197 305.707 111.14 313.61C105.877 320.453 102.566 328.595 101.56 337.17C93.7198 325.97 90.4998 310.7 95.2698 297.94C99.2698 287.05 107.06 276.39 119.87 277.62C129.91 278.5 137.42 286.63 135.05 296.9Z" fill="#9B8CC0"/>
<path d="M126.219 385.36L92.9988 428.66C92.4118 429.427 91.6798 430.071 90.8438 430.555C90.0078 431.039 89.0848 431.353 88.1278 431.48C87.1698 431.608 86.1968 431.545 85.2638 431.296C84.3308 431.047 83.4558 430.617 82.6888 430.03C81.9218 429.443 81.2778 428.711 80.7938 427.875C80.3108 427.039 79.9958 426.116 79.8688 425.159C79.7418 424.202 79.8038 423.228 80.0528 422.295C80.3018 421.362 80.7318 420.487 81.3188 419.72L114.499 376.41L126.219 385.36Z" fill="#9B8CC0"/>
<path d="M109.222 455.53C104.962 461.1 88.5318 455.7 72.5318 443.44C56.5318 431.18 47.0018 416.73 51.3018 411.16C55.0518 406.28 68.0618 409.8 81.9618 418.93L81.3618 419.72C80.7088 420.478 80.2178 421.361 79.9188 422.314C79.6188 423.268 79.5168 424.273 79.6198 425.268C79.7218 426.263 80.0258 427.226 80.5128 428.099C81.0008 428.972 81.6608 429.736 82.4538 430.345C83.2468 430.955 84.1558 431.395 85.1248 431.641C86.0938 431.887 87.1038 431.932 88.0908 431.774C89.0778 431.617 90.0228 431.259 90.8668 430.724C91.7118 430.188 92.4378 429.486 93.0018 428.66L93.6018 427.88C106.142 438.94 113.002 450.65 109.222 455.53Z" fill="#9B8CC0"/>
<path d="M179.549 475.43C175.588 477.295 171.104 477.729 166.859 476.66C163.406 475.506 160.453 473.205 158.489 470.14C148.909 470.05 143.269 463.61 140.929 455.66C140.159 455.49 139.169 455.23 138.519 455.01C132.279 452.49 128.519 445.3 126.179 439.34C125.289 435.84 125.089 431.93 127.109 428.86C128.41 426.884 130.347 425.413 132.599 424.69C134.859 424.01 137.249 424.26 139.539 424.01C144.539 423.37 149.179 421.37 152.479 417.44C161.309 406.95 180.479 409.18 184.029 432.05C187.579 454.92 184.809 472.25 196.389 478.91C196.288 478.977 196.181 479.034 196.069 479.08C191.249 480.25 185.099 480.17 179.549 475.43Z" fill="#B8ADD2" fill-opacity="0.5"/>
<path d="M23.8011 338.35C21.8961 342.281 21.4121 346.751 22.4311 351C23.5401 354.469 25.8111 357.45 28.8611 359.44C28.8611 369.03 35.2211 374.73 43.1411 377.16C43.3111 377.93 43.5611 378.93 43.7711 379.58C46.2211 385.84 53.3711 389.68 59.3011 392.09C62.8011 393.01 66.7011 393.26 69.7911 391.27C71.7851 389.992 73.2781 388.068 74.0211 385.82C74.7311 383.57 74.5011 381.18 74.7811 378.89C75.4711 373.89 77.5211 369.28 81.4911 366.03C92.0711 357.32 90.0511 338.09 67.2211 334.32C44.3911 330.55 27.0011 333.12 20.5011 321.47C20.4341 321.57 20.3771 321.678 20.3311 321.79C19.1111 326.6 19.1211 332.74 23.8011 338.35Z" fill="#B8ADD2" fill-opacity="0.5"/>
<path d="M197.999 345.39V345.32C193.999 349.06 177.639 341.8 160.679 328.84C144.459 316.39 133.459 303 134.829 297.75C134.923 297.414 135.071 297.096 135.269 296.81C135.189 296.81 135.139 296.81 135.119 296.9C125.617 299.871 117.266 305.707 111.209 313.61C105.946 320.453 102.635 328.595 101.629 337.17C101.629 337.29 101.629 337.48 101.579 337.59C100.749 344.895 101.593 352.294 104.047 359.224C106.502 366.155 110.502 372.436 115.744 377.591C120.987 382.746 127.335 386.64 134.306 388.977C141.277 391.314 148.689 392.033 155.979 391.08C159.866 390.548 163.676 389.558 167.329 388.13L167.879 387.91C176.423 384.419 183.794 378.565 189.128 371.034C194.463 363.503 197.54 354.607 197.999 345.39ZM152.879 343.3L138.179 361.92L143.259 365.8C143.573 366.043 143.836 366.346 144.032 366.692C144.228 367.037 144.353 367.419 144.401 367.813C144.448 368.207 144.417 368.607 144.308 368.99C144.2 369.372 144.017 369.729 143.769 370.04C143.396 370.506 142.892 370.85 142.322 371.028C141.752 371.206 141.142 371.21 140.569 371.04C140.214 370.944 139.876 370.792 139.569 370.59L131.999 364.86C131.839 364.76 131.689 364.59 131.529 364.49L124.999 359.34C124.364 358.861 123.945 358.149 123.835 357.362C123.724 356.574 123.931 355.775 124.409 355.14C124.648 354.818 124.949 354.548 125.294 354.344C125.64 354.141 126.022 354.009 126.419 353.956C126.816 353.903 127.22 353.93 127.606 354.035C127.993 354.14 128.354 354.322 128.669 354.57L133.429 358.25L141.719 347.72L140.979 347.96C140.601 348.135 140.19 348.229 139.773 348.236C139.355 348.244 138.941 348.164 138.557 348.002C138.172 347.84 137.826 347.6 137.539 347.297C137.253 346.994 137.033 346.634 136.893 346.241C136.753 345.848 136.697 345.43 136.728 345.014C136.759 344.598 136.877 344.193 137.073 343.825C137.269 343.457 137.54 343.134 137.868 342.876C138.197 342.619 138.575 342.433 138.979 342.33L149.539 338.62C150.152 338.386 150.825 338.366 151.45 338.564C152.074 338.762 152.613 339.166 152.979 339.71C153.339 340.245 153.52 340.881 153.497 341.526C153.473 342.17 153.247 342.791 152.849 343.3H152.879Z" fill="#B8ADD2" fill-opacity="0.5"/>
<path d="M324.4 776.09C310.34 782.37 297.68 784.58 296.11 781.04C294.54 777.5 304.65 769.59 318.7 763.31C332.75 757.03 345.39 754.83 346.97 758.31C346.992 758.385 346.992 758.465 346.97 758.54C348.11 762.23 338.14 770 324.4 776.09Z" fill="#9B8CC0"/>
<path d="M374.079 765.61C375.229 775.08 370.399 785.05 363.249 791.44C363.964 784.996 362.827 778.481 359.97 772.661C357.113 766.841 352.655 761.956 347.119 758.58H347.059C347.059 751.1 353.529 746.73 360.589 747.73C369.539 749 373.129 757.54 374.079 765.61Z" fill="#9B8CC0"/>
<path d="M296.1 781.17C294.757 788.028 295.56 795.134 298.4 801.52C300.86 807.065 304.779 811.838 309.74 815.33C300.2 816.42 289.69 813.33 283.42 806.07C278.04 799.93 274.07 791.57 279.12 784.07C283 778.18 290.56 776.26 296.1 781.17Z" fill="#9B8CC0"/>
<path d="M347.739 816.26L363.349 851.26C363.864 852.504 363.873 853.901 363.374 855.152C362.875 856.403 361.908 857.41 360.678 857.959C359.447 858.508 358.052 858.555 356.787 858.09C355.523 857.625 354.49 856.685 353.909 855.47L338.309 820.47L347.739 816.26Z" fill="#9B8CC0"/>
<path d="M385.358 850.27C387.358 854.76 378.528 863.09 365.598 868.86C352.668 874.63 340.598 875.64 338.598 871.14C336.838 867.2 343.378 860.34 353.668 854.83L353.948 855.46C354.53 856.675 355.563 857.615 356.827 858.08C358.091 858.545 359.487 858.498 360.717 857.949C361.947 857.401 362.915 856.393 363.414 855.142C363.912 853.891 363.903 852.494 363.388 851.25L363.108 850.62C374.078 846.61 383.598 846.32 385.358 850.27Z" fill="#9B8CC0"/>
<path d="M421.201 813.53C421.027 816.598 419.793 819.51 417.711 821.77C415.845 823.523 413.434 824.582 410.881 824.77C407.611 830.65 401.751 831.97 396.061 830.77C395.701 831.18 395.201 831.71 394.851 832.04C391.211 835.04 385.511 834.95 381.051 834.4C378.591 833.78 376.111 832.59 374.891 830.32C374.106 828.855 373.848 827.163 374.161 825.53C374.653 823.971 375.289 822.461 376.061 821.02C377.455 817.785 377.556 814.137 376.341 810.83C372.831 801.83 380.641 790.76 395.931 796.26C411.221 801.76 421.001 809.26 429.001 804.33C429.01 804.413 429.01 804.497 429.001 804.58C428.537 806.598 427.583 808.471 426.222 810.032C424.862 811.593 423.137 812.795 421.201 813.53Z" fill="#B8ADD2" fill-opacity="0.5"/>
<path d="M284.409 863.72C286.197 866.22 288.799 868.019 291.769 868.81C294.28 869.288 296.88 868.885 299.129 867.67C305.049 870.89 310.699 868.87 314.859 864.79C315.389 864.95 316.089 865.13 316.559 865.22C321.249 865.81 326.009 862.68 329.479 859.82C331.229 857.98 332.689 855.65 332.479 853.08C332.362 851.421 331.677 849.852 330.539 848.64C329.292 847.591 327.954 846.657 326.539 845.85C323.63 843.866 321.593 840.841 320.849 837.4C319.009 827.95 306.469 822.75 296.489 835.58C286.509 848.41 282.269 860 272.879 860.1C272.921 860.173 272.968 860.243 273.019 860.31C274.49 861.772 276.299 862.848 278.286 863.443C280.273 864.037 282.376 864.133 284.409 863.72Z" fill="#B8ADD2" fill-opacity="0.5"/>
<path d="M347.119 758.58H347.059C348.059 762.31 338.059 769.96 324.379 776.09C311.259 781.92 299.309 784.22 296.539 781.62C296.358 781.455 296.209 781.258 296.099 781.04C296.099 781.1 296.099 781.13 296.099 781.16C294.756 788.018 295.559 795.124 298.399 801.51C300.859 807.054 304.778 811.828 309.739 815.32C309.799 815.38 309.919 815.44 309.979 815.49C314.208 818.452 319.057 820.412 324.158 821.221C329.258 822.029 334.475 821.666 339.414 820.157C344.353 818.649 348.883 816.035 352.661 812.515C356.439 808.994 359.366 804.66 361.219 799.84C362.192 797.259 362.863 794.575 363.219 791.84C363.219 791.69 363.219 791.57 363.219 791.42C363.934 784.975 362.797 778.461 359.94 772.64C357.083 766.82 352.625 761.935 347.089 758.56L347.119 758.58ZM330.709 785.73L337.269 801L341.369 799.17C341.885 798.948 342.467 798.939 342.99 799.145C343.513 799.351 343.933 799.755 344.159 800.27C344.329 800.655 344.378 801.084 344.3 801.498C344.221 801.912 344.018 802.293 343.719 802.59C343.544 802.781 343.338 802.94 343.109 803.06L336.999 805.81C336.879 805.87 336.729 805.91 336.609 805.97L331.219 808.33C330.967 808.446 330.694 808.512 330.417 808.522C330.14 808.532 329.863 808.487 329.603 808.389C329.344 808.292 329.106 808.143 328.904 807.953C328.703 807.762 328.541 807.533 328.429 807.28C328.312 807.024 328.248 806.747 328.239 806.467C328.231 806.186 328.278 805.906 328.379 805.644C328.479 805.381 328.631 805.141 328.825 804.938C329.019 804.735 329.251 804.572 329.509 804.46L333.369 802.75L329.649 794.11L329.549 794.65C329.512 794.927 329.42 795.194 329.279 795.435C329.138 795.676 328.95 795.887 328.726 796.054C328.502 796.222 328.247 796.343 327.976 796.411C327.705 796.479 327.423 796.492 327.147 796.449C326.87 796.406 326.606 796.309 326.367 796.163C326.129 796.016 325.923 795.824 325.76 795.597C325.597 795.37 325.481 795.112 325.419 794.84C325.357 794.567 325.35 794.285 325.399 794.01L326.639 786.25C326.693 785.79 326.905 785.363 327.238 785.042C327.572 784.721 328.007 784.526 328.469 784.49C328.925 784.43 329.389 784.519 329.792 784.742C330.195 784.965 330.516 785.311 330.709 785.73Z" fill="#B8ADD2" fill-opacity="0.5"/>
<path d="M661.291 452.15C650.691 447.15 643.131 440.85 644.411 438.15C645.691 435.45 655.291 437.44 665.891 442.49C676.491 447.54 684.031 453.79 682.771 456.49C682.748 456.549 682.71 456.6 682.661 456.64C681.081 459.06 671.651 457.1 661.291 452.15Z" fill="#9B8CC0"/>
<path d="M692.001 475.81C687.071 481.16 678.891 483.3 671.641 482.31C675.736 479.535 678.954 475.65 680.919 471.11C682.883 466.57 683.512 461.564 682.731 456.68C687.071 452.98 692.801 454.57 695.731 459.16C699.371 465 696.201 471.26 692.001 475.81Z" fill="#9B8CC0"/>
<path d="M644.328 438.24C639.679 440.856 635.952 444.844 633.658 449.66C631.658 453.83 630.825 458.464 631.248 463.07C625.898 458.07 622.508 450.42 623.598 443.21C624.498 437.05 627.378 430.6 634.228 429.82C639.588 429.17 644.438 432.59 644.328 438.24Z" fill="#9B8CC0"/>
<path d="M649.529 485.6L636.999 512C636.776 512.468 636.464 512.887 636.079 513.234C635.695 513.581 635.246 513.848 634.758 514.021C634.27 514.195 633.753 514.27 633.235 514.243C632.718 514.216 632.212 514.088 631.744 513.865C631.277 513.643 630.857 513.33 630.511 512.946C630.164 512.561 629.896 512.112 629.723 511.624C629.55 511.136 629.475 510.619 629.501 510.102C629.528 509.585 629.656 509.078 629.879 508.61L642.459 482.23L649.529 485.6Z" fill="#9B8CC0"/>
<path d="M648.422 524.27C646.802 527.67 637.592 526.66 627.842 522.01C618.092 517.36 611.512 510.84 613.132 507.44C614.542 504.44 621.762 504.87 630.062 508.11L629.832 508.59C629.608 509.061 629.479 509.571 629.452 510.092C629.426 510.612 629.502 511.133 629.676 511.625C629.851 512.116 630.12 512.568 630.47 512.955C630.819 513.342 631.241 513.656 631.712 513.88C632.183 514.104 632.693 514.233 633.214 514.26C633.734 514.286 634.255 514.21 634.746 514.036C635.237 513.861 635.689 513.592 636.076 513.242C636.464 512.893 636.778 512.471 637.002 512L637.232 511.53C645.002 515.92 649.842 521.3 648.422 524.27Z" fill="#9B8CC0"/>
<path d="M687.491 526.89C685.625 528.309 683.324 529.034 680.981 528.94C679.044 528.724 677.24 527.848 675.871 526.46C670.871 527.46 667.161 524.72 665.051 520.82C664.631 520.82 664.051 520.82 663.711 520.74C660.171 520.12 657.401 516.74 655.511 513.9C655.016 513.065 654.699 512.136 654.582 511.172C654.465 510.208 654.55 509.23 654.831 508.3C655.296 507.121 656.15 506.137 657.251 505.51C658.401 505.026 659.593 504.648 660.811 504.38C663.378 503.587 665.543 501.841 666.861 499.5C670.321 493.02 680.641 492.05 685.021 503.65C689.401 515.25 689.901 524.65 696.711 526.85L696.561 526.97C695.16 527.705 693.599 528.082 692.016 528.068C690.434 528.054 688.88 527.649 687.491 526.89Z" fill="#B8ADD2" fill-opacity="0.5"/>
<path d="M590.619 472.33C590.056 474.605 590.299 477.004 591.309 479.12C592.272 480.816 593.791 482.13 595.609 482.84C596.669 487.84 600.609 490.14 605.069 490.54C605.239 490.92 605.489 491.42 605.669 491.74C607.669 494.74 611.819 495.96 615.199 496.57C616.162 496.693 617.141 496.614 618.072 496.339C619.003 496.063 619.867 495.597 620.609 494.97C621.51 494.08 622.078 492.908 622.219 491.65C622.211 490.401 622.087 489.155 621.849 487.93C621.558 485.257 622.306 482.575 623.939 480.44C628.519 474.7 625.319 464.84 612.939 465.44C600.559 466.04 591.729 469.27 587.009 463.89C587.003 463.95 587.003 464.01 587.009 464.07C586.888 465.637 587.154 467.21 587.784 468.65C588.413 470.09 589.387 471.354 590.619 472.33Z" fill="#B8ADD2" fill-opacity="0.5"/>
<path d="M682.709 456.68C681.009 459.09 671.639 457.1 661.309 452.19C651.429 447.46 644.169 441.66 644.309 438.76C644.317 438.574 644.358 438.391 644.429 438.22C644.429 438.22 644.369 438.22 644.359 438.28C639.71 440.895 635.983 444.884 633.689 449.7C631.689 453.87 630.856 458.504 631.279 463.11C631.284 463.186 631.284 463.263 631.279 463.34C631.664 467.258 632.934 471.038 634.993 474.394C637.051 477.749 639.845 480.594 643.164 482.713C646.482 484.831 650.239 486.168 654.149 486.624C658.06 487.079 662.023 486.64 665.739 485.34C667.716 484.626 669.602 483.683 671.359 482.53L671.629 482.35C675.724 479.575 678.943 475.69 680.907 471.15C682.872 466.61 683.5 461.604 682.719 456.72L682.709 456.68ZM658.819 460.59L653.179 472L656.279 473.47C656.664 473.661 656.956 473.997 657.093 474.404C657.23 474.811 657.2 475.255 657.009 475.64C656.874 475.932 656.651 476.174 656.371 476.334C656.092 476.493 655.77 476.562 655.449 476.53C655.254 476.524 655.061 476.483 654.879 476.41L650.299 474.23C650.199 474.23 650.109 474.12 650.009 474.08L646.009 472.08C645.817 471.991 645.645 471.864 645.502 471.708C645.36 471.552 645.249 471.369 645.178 471.17C645.106 470.971 645.075 470.76 645.085 470.549C645.096 470.338 645.148 470.131 645.239 469.94C645.33 469.746 645.459 469.572 645.618 469.428C645.776 469.285 645.962 469.174 646.164 469.102C646.365 469.03 646.579 469 646.793 469.011C647.007 469.023 647.216 469.077 647.409 469.17L650.309 470.57L653.489 464.13L653.129 464.34C652.948 464.453 652.745 464.529 652.534 464.564C652.323 464.599 652.107 464.591 651.899 464.542C651.69 464.492 651.494 464.402 651.321 464.277C651.147 464.151 651.001 463.992 650.889 463.81C650.781 463.629 650.709 463.428 650.679 463.219C650.648 463.01 650.659 462.798 650.711 462.593C650.764 462.389 650.856 462.197 650.982 462.028C651.109 461.859 651.268 461.717 651.449 461.61L656.569 458.49C656.865 458.299 657.217 458.214 657.567 458.248C657.918 458.283 658.246 458.435 658.499 458.68C658.747 458.924 658.911 459.24 658.969 459.583C659.026 459.926 658.974 460.278 658.819 460.59Z" fill="#B8ADD2" fill-opacity="0.5"/>
<path d="M493.589 221.84C488.647 235.062 481.574 247.385 472.649 258.32C460.739 213.16 399.339 200.87 399.339 200.87C375.289 236.74 335.999 211.63 335.999 211.63L303.809 194.06C309.379 189.52 319.019 180.96 325.019 176.36C326.419 181.86 329.839 188.71 338.019 191.2C352.519 195.58 379.019 198.94 386.799 172.13C389.378 163.643 390.873 154.863 391.249 146C391.63 146 392.009 145.936 392.369 145.81C401.819 143.17 412.989 140.43 422.569 138.63C429.294 137.307 436.146 136.733 442.999 136.92C455.259 137.35 465.339 140.8 473.579 146.65C473.579 146.65 473.579 146.65 473.639 146.65C481.509 152.25 487.639 160.06 492.399 169.52C492.405 169.584 492.425 169.645 492.459 169.7C499.589 186 499.839 204.79 493.589 221.84Z" fill="#353642"/>
<path d="M243.001 220.81C243.001 220.81 248.181 211.16 252.561 215.35C256.941 219.54 274.191 235.35 255.981 242.58C237.771 249.81 236.711 228.01 239.081 227.58C241.451 227.15 243.001 220.81 243.001 220.81Z" fill="#B8ADD2" fill-opacity="0.5"/>
<path d="M475.521 429C471.451 432.33 467.401 435.51 463.461 438.49C395.761 490 347.081 495.88 318.801 490.28C316.494 489.848 314.211 489.297 311.961 488.63C295.781 483.87 288.381 475.51 290.061 472.96C294.731 465.96 309.691 370.43 309.691 370.43C309.691 370.43 308.911 373.91 307.201 379.51C315.291 277.76 237.301 277.89 237.301 277.89C243.871 266.41 253.351 253.32 262.031 239.78C293.821 260.16 310.531 281.37 361.031 293.85C438.521 312.95 480.391 258.48 493.861 221.85C500.111 204.85 499.861 186.01 492.771 169.74C524.761 234.22 490.321 375.72 475.521 429Z" fill="#353642"/>
<path d="M182.871 148.64L167.571 156.12L160.881 169.86L23.1409 61.39C19.4249 58.505 16.6039 54.624 15.0079 50.1989C13.4119 45.7735 13.1059 40.9857 14.1249 36.3931C15.1449 31.8004 17.4479 27.5919 20.7669 24.2576C24.0859 20.9233 28.2829 18.6005 32.8709 17.5596C37.2419 18.5077 41.2689 20.6386 44.5109 23.7196L182.871 148.64Z" fill="#B8ADD2" fill-opacity="0.5"/>
<path d="M431.46 37.45C431.793 39.4384 431.769 41.47 431.39 43.45C427.85 48.28 423.28 56.37 417.39 56.98C408.58 57.89 408.58 57.89 404.21 58.4C402.21 59.12 401.7 61.22 401.21 67.73C401.129 68.868 400.962 69.998 400.71 71.11C397.45 75.29 394.27 82.11 389.53 82.87C383.62 83.87 378.65 81.44 377.88 86.65C375.75 88.89 374.88 92.14 375.01 96.47C375.062 98.842 374.724 101.207 374.01 103.47C373.167 104.894 372.189 106.233 371.09 107.47C368.59 110.22 362.64 107.54 356.16 105.02C349.68 102.5 345.77 107.13 346.09 111.57C341.78 114.71 343.21 123.88 343.09 128.57C342.97 133.26 342.45 138.28 340.33 142.57C338.838 145.442 336.51 147.793 333.653 149.314C330.796 150.836 327.546 151.455 324.33 151.09C316.78 150.31 310.65 144.22 307.54 137.61C304.54 131.16 305.42 123.35 301.7 117.35C299.42 113.67 295.98 110.81 292.44 108.35C289.97 106.66 287.44 105.25 285.29 103.12C284.909 102.793 284.619 102.373 284.45 101.9C284.13 100.65 286.29 99.37 287.08 98.73C296.21 91.39 309.08 95.52 315.92 93.23C322.76 90.94 367.92 61.52 367.92 61.52C367.92 61.52 403 36.08 409.6 30.6C416.2 25.12 429.43 25.28 431.46 37.45Z" fill="#9B8CC0"/>
<path d="M343.679 77.06L317.789 90.9C313.039 81.17 308.249 65.06 313.019 43.8003C314.479 37.2864 317.319 31.1613 321.347 25.8379C325.375 20.5144 330.497 16.1164 336.369 12.9403C346.443 9.05561 357.598 9.03071 367.689 12.8703C378.03 16.7085 387.504 22.5655 395.559 30.1003C396.749 28.6703 398.039 27.2303 399.359 25.8403C403.285 21.8206 407.424 18.0151 411.759 14.4403C416.599 10.2803 422.149 5.35031 428.429 3.44031C428.62 3.35731 428.817 3.29041 429.019 3.24031C440.779 0.000313282 422.479 28.7003 343.679 77.06Z" fill="#353642"/>
<path d="M413.16 27.46C417.16 27.46 421.7 26.46 425.39 28.46C433.05 32.46 433.06 43.46 428.88 49.96C422.88 59.26 409.88 57.24 400.51 59.19C406.751 67.751 415.247 74.411 425.05 78.43C425.05 78.43 420.72 83.62 417.12 87.79C415.12 90.1 414.85 94.95 414.96 98.79C415.206 104.224 413.954 109.62 411.34 114.39C397.34 138.82 367.02 120.39 367.02 120.39" stroke="black" stroke-width="4.67" stroke-linejoin="round"/>
<path d="M343.779 76.9999C343.779 76.9999 343.709 77.0699 343.679 77.0799C335.932 82.0599 328.062 86.8169 320.069 91.3499C318.399 92.4219 316.565 93.2119 314.639 93.6899C313.864 93.8299 313.076 93.8909 312.289 93.8699C311.209 93.8699 310.109 93.7999 308.999 93.7699C301.338 93.4399 293.733 95.2029 286.999 98.8699C284.893 99.9159 283.171 101.599 282.079 103.68C280.399 107.25 282.289 109.6 284.429 111.29C289.189 115.14 295.839 116.89 299.059 122.09C301.569 126.09 301.389 131.09 302.269 135.7C303.429 141.62 306.379 147.041 310.719 151.23C316.189 156.47 324.839 159.39 331.479 155.74C335.709 153.4 338.309 148.9 340.029 144.35C342.178 138.596 343.239 132.493 343.159 126.35C343.109 123.47 342.799 120.53 343.389 117.7C343.979 114.87 345.679 112.08 348.389 111.09C353.809 109.09 359.249 115.02 364.949 114.4C369.709 113.9 372.819 109.03 373.889 104.34C374.959 99.6499 374.699 94.6999 376.369 90.2099C378.919 83.2099 383.279 83.6099 389.509 82.9499C398.569 81.9999 403.669 66.7099 400.509 59.1899" stroke="black" stroke-width="4.67" stroke-linejoin="round"/>
<path d="M312.291 93.85C307.491 84.14 302.541 67.9 307.361 46.3898C313.411 19.3898 341.851 3.08984 367.681 12.8598C378.025 16.7051 387.5 22.5726 395.551 30.1198C400.271 24.4098 406.141 19.2398 411.751 14.4398C416.751 10.1598 422.521 5.04984 429.011 3.26984C440.781 0.0298385 422.491 28.6998 343.691 77.06" stroke="black" stroke-width="4.67" stroke-linejoin="round"/>
<path d="M411.159 617.66L406.209 632.9C398.554 656.483 383.629 677.037 363.574 691.617C343.519 706.196 319.363 714.053 294.569 714.06H68.5688V768.9C68.5908 771.292 67.8978 773.635 66.5778 775.63C65.2588 777.625 63.3728 779.181 61.1628 780.096C58.9538 781.012 56.5208 781.246 54.1768 780.77C51.8328 780.293 49.6848 779.126 48.0088 777.42C46.8818 776.306 45.9888 774.979 45.3808 773.516C44.7728 772.053 44.4628 770.484 44.4688 768.9V677.82L127.239 657.91L271.539 623.17C277.817 621.666 283.502 618.318 287.861 613.556C292.22 608.794 295.054 602.836 295.999 596.45L311.929 488.63" stroke="black" stroke-width="4.67" stroke-miterlimit="10"/>
<path d="M314 341.51C314 341.51 290.26 457.95 217 439.63C149.69 422.8 181 243.11 185.77 208.68C186.328 204.637 187.637 200.733 189.63 197.17C195.44 186.75 209.47 169.42 233.33 184.45C259.24 200.78 249.97 212.07 243.04 220.81C239.266 225.585 237.215 231.494 237.22 237.58V242.93C237.22 242.93 230.06 347.75 242.22 383.53" stroke="black" stroke-width="4.67" stroke-miterlimit="10"/>
<path d="M261 239.13C293.44 259.72 310 281.25 361 293.85C438.49 312.95 480.36 258.48 493.83 221.85C500.08 204.85 499.83 186.01 492.74 169.74C492.707 169.686 492.686 169.624 492.68 169.56C490.725 165.086 488.252 160.857 485.31 156.96C481.91 152.42 478.06 148.65 473.92 146.69C473.92 146.69 473.92 146.69 473.86 146.69" stroke="black" stroke-width="4.67" stroke-miterlimit="10"/>
<path d="M414.219 165.78C406.219 184.96 402.219 207.78 381.169 216.98C360.119 226.18 341.669 214.98 303.029 194.9C275.909 180.84 249.619 165.47 231.549 156.98C210.739 147.21 194.549 145.56 182.869 148.64C168.589 152.38 160.939 163.17 159.569 174.83C158.784 181.514 160.026 188.279 163.134 194.247C166.242 200.216 171.073 205.112 176.999 208.3C181.509 210.73 183.999 210.98 185.459 210.14" stroke="black" stroke-width="4.67" stroke-miterlimit="10"/>
<path d="M262.001 239.78C252.481 254.62 242.001 268.96 235.441 281.19" stroke="black" stroke-width="4.67" stroke-miterlimit="10"/>
<path d="M463.418 438.52L469.418 449.88L490.758 495.66C499.305 513.993 507.081 532.66 514.088 551.66C559.498 675.28 548.988 696.66 548.988 784.25L547.678 824.43L545.878 879.55H591.698C593.303 879.56 594.889 879.898 596.359 880.543C597.829 881.188 599.152 882.126 600.246 883.3C601.34 884.474 602.184 885.859 602.724 887.371C603.264 888.882 603.49 890.488 603.388 892.09C602.988 898.34 597.478 903.09 591.228 903.09H489.108L488.108 880.29L484.598 825.42L478.968 737.76C477.248 713.99 470.276 690.898 458.555 670.147C446.835 649.397 430.657 631.504 411.188 617.76C409.688 616.67 408.188 615.65 406.678 614.65C346.108 574.74 324.958 527.31 318.828 490.38" stroke="black" stroke-width="4.67" stroke-miterlimit="10"/>
<path d="M315.799 329.09L309.659 370.43C309.659 370.43 294.699 466 289.999 473C288.319 475.55 295.719 483.91 311.899 488.67C314.149 489.337 316.432 489.888 318.739 490.32C347.019 495.92 395.739 490.01 463.359 438.56C467.359 435.56 471.359 432.4 475.419 429.07C490.219 375.79 524.659 234.29 492.679 169.8C492.646 169.745 492.625 169.684 492.619 169.62C487.889 160.16 481.729 152.35 473.859 146.75C473.859 146.75 473.859 146.75 473.799 146.75C465.549 140.9 455.479 137.45 443.219 137.02C436.353 136.831 429.488 137.404 422.749 138.73C413.169 140.53 401.999 143.27 392.549 145.91C391.736 146.141 390.879 146.175 390.05 146.01C389.22 145.844 388.442 145.484 387.78 144.958C387.118 144.433 386.59 143.757 386.24 142.987C385.89 142.217 385.729 141.375 385.769 140.53L386.359 126.53" stroke="black" stroke-width="4.67" stroke-miterlimit="10"/>
<path d="M237.27 235.09L244.71 240.87C246.487 242.2 248.599 243.012 250.81 243.213C253.02 243.415 255.244 242.999 257.233 242.013C259.222 241.026 260.898 239.507 262.075 237.625C263.252 235.742 263.883 233.57 263.9 231.35C263.899 229.735 263.571 228.136 262.935 226.651C262.299 225.166 261.369 223.825 260.2 222.71L248.94 211.91" stroke="black" stroke-width="4.67" stroke-miterlimit="10"/>
<path d="M159.569 174.83L12.2491 61.38C9.58414 59.323 7.36415 56.745 5.72615 53.803C4.08815 50.8614 3.06615 47.6172 2.72115 44.2679C2.37615 40.9185 2.71515 37.534 3.71915 34.3201C4.72315 31.1062 6.37014 28.1301 8.56014 25.5727C10.7511 23.0152 13.4381 20.93 16.4591 19.4437C19.4801 17.9574 22.7721 17.1011 26.1351 16.9268C29.4981 16.7526 32.8601 17.2641 36.0191 18.4302C39.1781 19.5963 42.0662 21.3926 44.5092 23.71L182.869 148.64" stroke="black" stroke-width="4.67" stroke-miterlimit="10"/>
<path d="M328.571 156.88L327.791 165.7L326.951 175.08C320.891 179.47 308.851 190.23 303.031 194.9" stroke="black" stroke-width="4.67" stroke-miterlimit="10"/>
<path d="M326.999 175.08C325.859 186.47 336.999 192.08 346.569 193.84C358.199 196.04 372.569 193.19 380.569 183.71C388.839 173.84 390.369 158.98 389.979 146.65" stroke="black" stroke-width="4.67" stroke-miterlimit="10"/>
<path d="M127.282 657.91V714.06H68.6118V768.9C68.6338 771.292 67.9408 773.636 66.6208 775.631C65.3018 777.626 63.4158 779.181 61.2058 780.097C58.9968 781.012 56.5638 781.247 54.2198 780.77C51.8758 780.293 49.7278 779.126 48.0518 777.42C46.9248 776.306 46.0318 774.979 45.4238 773.517C44.8158 772.054 44.5058 770.484 44.5118 768.9V677.82L127.282 657.91Z" fill="#353642"/>
<path d="M603.392 892.05C602.992 898.3 597.482 903.05 591.232 903.05H489.112L488.112 880.25L484.602 825.38C484.812 824.76 484.912 824.44 484.912 824.44H547.712L545.912 879.56H591.702C593.307 879.571 594.893 879.909 596.362 880.554C597.832 881.199 599.155 882.137 600.249 883.311C601.344 884.485 602.187 885.87 602.727 887.381C603.268 888.893 603.494 890.499 603.392 892.1V892.05Z" fill="#353642"/>
<path d="M672.642 903H44.5122" stroke="black" stroke-width="4.67" stroke-miterlimit="10"/>
</svg>
