<svg width="887" height="862" viewBox="0 0 887 862" fill="none" xmlns="http://www.w3.org/2000/svg">
<g opacity="0.38">
<g opacity="0.38">
<path opacity="0.38" d="M323.3 469.17L323 476.65H323.15V488.48H338.93V486.62L338.21 469.17H323.3Z" fill="#B8ADD2"/>
<path opacity="0.38" d="M316.001 446.8C320.301 451.294 322.888 457.154 323.311 463.36H338.231C338.597 457.706 340.775 452.32 344.441 448C346.973 445.076 350.107 442.733 353.627 441.13C357.148 439.527 360.972 438.701 364.841 438.71H369.401L370.281 417.15C370.51 413.511 369.988 409.865 368.747 406.437C367.505 403.009 365.572 399.873 363.066 397.225C360.561 394.577 357.537 392.473 354.183 391.044C350.829 389.615 347.216 388.892 343.571 388.92H318.001C314.359 388.888 310.749 389.607 307.397 391.03C304.045 392.454 301.021 394.552 298.515 397.194C296.008 399.837 294.073 402.967 292.828 406.39C291.584 409.812 291.057 413.455 291.281 417.09L292.161 438.71H296.741C300.328 438.705 303.881 439.418 307.189 440.807C310.496 442.197 313.493 444.234 316.001 446.8Z" fill="#B8ADD2"/>
<path opacity="0.38" d="M417.07 469.17L416.77 476.65H416.92V488.48H432.7V486.62L431.99 469.17H417.07Z" fill="#B8ADD2"/>
<path opacity="0.38" d="M409.759 446.8C414.052 451.299 416.637 457.157 417.069 463.36H431.999C432.366 457.706 434.543 452.32 438.209 448C440.742 445.077 443.876 442.735 447.396 441.132C450.916 439.528 454.741 438.703 458.609 438.71H463.179L464.049 417.15C464.278 413.512 463.756 409.866 462.516 406.439C461.275 403.012 459.342 399.877 456.838 397.229C454.333 394.581 451.31 392.476 447.958 391.047C444.605 389.618 440.994 388.894 437.349 388.92H411.719C408.078 388.888 404.469 389.606 401.118 391.029C397.766 392.452 394.743 394.55 392.237 397.191C389.731 399.832 387.795 402.961 386.549 406.383C385.304 409.804 384.776 413.446 384.999 417.08L385.889 438.7H390.459C394.054 438.692 397.614 439.405 400.929 440.797C404.243 442.188 407.246 444.229 409.759 446.8Z" fill="#B8ADD2"/>
<path opacity="0.38" d="M510.849 469.17L510.539 476.65H510.689V488.48H526.469V486.62L525.759 469.17H510.849Z" fill="#B8ADD2"/>
<path opacity="0.38" d="M503.531 446.8C507.831 451.294 510.418 457.154 510.841 463.36H525.751C526.138 457.703 528.328 452.32 532.001 448C534.534 445.077 537.668 442.735 541.188 441.132C544.708 439.528 548.533 438.703 552.401 438.71H557.001L557.871 417.15C558.1 413.512 557.578 409.866 556.337 406.439C555.097 403.012 553.164 399.877 550.66 397.229C548.155 394.581 545.132 392.476 541.779 391.047C538.427 389.618 534.815 388.894 531.171 388.92H505.501C501.859 388.888 498.249 389.607 494.897 391.03C491.545 392.454 488.521 394.552 486.015 397.194C483.508 399.837 481.573 402.967 480.328 406.39C479.084 409.812 478.557 413.455 478.781 417.09L479.661 438.71H484.231C487.825 438.701 491.384 439.413 494.699 440.802C498.014 442.191 501.017 444.231 503.531 446.8Z" fill="#B8ADD2"/>
<path opacity="0.38" d="M604.619 469.17L604.319 476.65H604.469V488.48H620.239V486.62L619.529 469.17H604.619Z" fill="#B8ADD2"/>
<path opacity="0.38" d="M597.299 446.8C601.6 451.294 604.187 457.154 604.609 463.36H619.529C619.902 457.704 622.086 452.318 625.759 448C628.292 445.076 631.425 442.733 634.946 441.13C638.466 439.527 642.291 438.701 646.159 438.71H650.719L651.599 417.15C651.828 413.511 651.306 409.865 650.065 406.437C648.824 403.009 646.89 399.873 644.385 397.225C641.879 394.577 638.855 392.473 635.501 391.044C632.147 389.615 628.535 388.892 624.889 388.92H599.269C595.627 388.888 592.018 389.607 588.666 391.03C585.313 392.454 582.29 394.552 579.783 397.194C577.277 399.837 575.341 402.967 574.097 406.39C572.852 409.812 572.325 413.455 572.549 417.09L573.429 438.71H577.999C581.594 438.699 585.154 439.41 588.469 440.8C591.784 442.189 594.787 444.23 597.299 446.8Z" fill="#B8ADD2"/>
<path opacity="0.38" d="M698.39 469.17L698.09 476.65H698.24V488.48H714.02V486.61L713.3 469.17H698.39Z" fill="#B8ADD2"/>
<path opacity="0.38" d="M691.071 446.8C695.371 451.294 697.958 457.154 698.381 463.36H713.301C713.673 457.704 715.858 452.318 719.531 448C722.063 445.076 725.197 442.733 728.717 441.13C732.238 439.527 736.062 438.701 739.931 438.71H744.501L745.371 417.15C745.6 413.512 745.078 409.866 743.837 406.439C742.597 403.012 740.664 399.877 738.16 397.229C735.655 394.581 732.632 392.476 729.279 391.047C725.927 389.618 722.315 388.894 718.671 388.92H693.001C689.359 388.888 685.749 389.607 682.397 391.03C679.045 392.454 676.021 394.552 673.515 397.194C671.008 399.837 669.073 402.967 667.828 406.39C666.584 409.812 666.057 413.455 666.281 417.09L667.171 438.71H671.741C675.34 438.695 678.906 439.404 682.226 440.794C685.547 442.183 688.554 444.226 691.071 446.8Z" fill="#B8ADD2"/>
<path opacity="0.38" d="M792.158 469.17L791.858 476.65H791.998V488.48H807.778V476.65H829.998C831.966 476.652 833.857 475.891 835.276 474.528C836.695 473.166 837.531 471.306 837.608 469.34L837.758 465.49C836.792 466.609 835.602 467.514 834.266 468.148C832.93 468.782 831.477 469.13 829.998 469.17H792.158Z" fill="#B8ADD2"/>
<path opacity="0.38" d="M784.851 446.8C789.152 451.294 791.739 457.155 792.161 463.36H830.001C831.966 463.36 833.855 462.6 835.273 461.239C836.691 459.879 837.529 458.024 837.611 456.06L839.181 417.14C839.411 413.503 838.889 409.857 837.648 406.43C836.407 403.002 834.475 399.867 831.97 397.219C829.466 394.571 826.443 392.467 823.09 391.037C819.737 389.608 816.126 388.884 812.481 388.91H786.821C783.179 388.876 779.568 389.592 776.214 391.015C772.86 392.437 769.836 394.535 767.329 397.178C764.822 399.821 762.886 402.953 761.643 406.377C760.399 409.801 759.874 413.445 760.101 417.08L761.001 438.7H765.571C769.163 438.696 772.719 439.41 776.03 440.801C779.341 442.192 782.341 444.232 784.851 446.8Z" fill="#B8ADD2"/>
<path opacity="0.38" d="M323.3 568.74L323 576.21H323.15V588.05H338.93V586.18L338.21 568.74H323.3Z" fill="#B8ADD2"/>
<path opacity="0.38" d="M316.001 546.36C320.3 550.859 322.886 556.722 323.311 562.931H338.231C338.601 557.268 340.785 551.875 344.461 547.55C346.997 544.631 350.131 542.291 353.651 540.688C357.171 539.086 360.993 538.258 364.861 538.261H369.421L370.301 516.701C370.529 513.063 370.005 509.417 368.763 505.99C367.522 502.564 365.588 499.429 363.082 496.782C360.577 494.135 357.553 492.032 354.2 490.604C350.847 489.176 347.235 488.453 343.591 488.48H318.001C314.359 488.449 310.749 489.167 307.397 490.591C304.045 492.014 301.021 494.113 298.515 496.755C296.008 499.397 294.073 502.527 292.828 505.95C291.584 509.373 291.057 513.015 291.281 516.651L292.161 538.261H296.741C300.329 538.26 303.881 538.975 307.188 540.366C310.496 541.757 313.492 543.795 316.001 546.36Z" fill="#B8ADD2"/>
<path opacity="0.38" d="M417.07 568.74L416.77 576.21H416.92V588.05H432.7V586.18L431.99 568.74H417.07Z" fill="#B8ADD2"/>
<path opacity="0.38" d="M409.759 546.36C414.051 550.864 416.636 556.725 417.069 562.931H431.999C432.37 557.268 434.554 551.875 438.229 547.55C440.766 544.631 443.9 542.291 447.42 540.688C450.939 539.086 454.762 538.258 458.629 538.261H463.199L464.069 516.701C464.297 513.064 463.774 509.419 462.533 505.993C461.292 502.567 459.359 499.433 456.854 496.786C454.35 494.139 451.328 492.036 447.976 490.607C444.624 489.178 441.013 488.454 437.369 488.48H411.719C408.077 488.449 404.468 489.167 401.116 490.591C397.763 492.014 394.74 494.113 392.234 496.755C389.727 499.397 387.791 502.527 386.547 505.95C385.302 509.373 384.776 513.015 384.999 516.651L385.889 538.261H390.459C394.054 538.258 397.612 538.973 400.926 540.364C404.24 541.755 407.243 543.794 409.759 546.36Z" fill="#B8ADD2"/>
<path opacity="0.38" d="M510.849 568.74L510.539 576.21H510.689V588.05H526.469V586.18L525.759 568.74H510.849Z" fill="#B8ADD2"/>
<path opacity="0.38" d="M503.531 546.36C507.83 550.859 510.416 556.722 510.841 562.931H525.751C526.136 557.267 528.326 551.877 532.001 547.55C534.537 544.631 537.671 542.291 541.191 540.688C544.711 539.086 548.533 538.258 552.401 538.261H557.001L557.871 516.701C558.098 513.064 557.576 509.419 556.334 505.993C555.093 502.567 553.16 499.433 550.656 496.786C548.151 494.139 545.129 492.036 541.777 490.607C538.425 489.178 534.814 488.454 531.171 488.48H505.501C501.859 488.449 498.249 489.167 494.897 490.591C491.545 492.014 488.521 494.113 486.015 496.755C483.508 499.397 481.573 502.527 480.328 505.95C479.084 509.373 478.557 513.015 478.781 516.651L479.661 538.261H484.231C487.825 538.258 491.383 538.973 494.697 540.364C498.012 541.755 501.015 543.794 503.531 546.36Z" fill="#B8ADD2"/>
<path opacity="0.38" d="M604.619 568.74L604.319 576.21H604.469V588.05H620.239V586.18L619.529 568.74H604.619Z" fill="#B8ADD2"/>
<path opacity="0.38" d="M597.299 546.36C601.598 550.859 604.185 556.722 604.609 562.931H619.529C619.9 557.268 622.084 551.875 625.759 547.55C628.296 544.631 631.43 542.291 634.95 540.688C638.469 539.086 642.292 538.258 646.159 538.261H650.719L651.599 516.701C651.827 513.063 651.304 509.417 650.062 505.99C648.82 502.564 646.886 499.429 644.381 496.782C641.875 494.135 638.852 492.032 635.499 490.604C632.145 489.176 628.534 488.453 624.889 488.48H599.269C595.627 488.449 592.018 489.167 588.666 490.591C585.313 492.014 582.29 494.113 579.783 496.755C577.277 499.397 575.341 502.527 574.097 505.95C572.852 509.373 572.325 513.015 572.549 516.651L573.429 538.261H577.999C581.594 538.254 585.154 538.968 588.468 540.359C591.783 541.75 594.786 543.791 597.299 546.36Z" fill="#B8ADD2"/>
<path opacity="0.38" d="M698.39 568.74L698.09 576.21H698.24V588.05H714.02V586.18L713.3 568.74H698.39Z" fill="#B8ADD2"/>
<path opacity="0.38" d="M691.071 546.36C695.37 550.859 697.956 556.722 698.381 562.931H713.301C713.671 557.268 715.855 551.875 719.531 547.55C722.067 544.631 725.201 542.291 728.721 540.688C732.241 539.086 736.063 538.258 739.931 538.261H744.501L745.371 516.701C745.598 513.064 745.076 509.419 743.834 505.993C742.593 502.567 740.66 499.433 738.156 496.786C735.651 494.139 732.629 492.036 729.277 490.607C725.925 489.178 722.314 488.454 718.671 488.48H693.001C689.359 488.449 685.749 489.167 682.397 490.591C679.045 492.014 676.021 494.113 673.515 496.755C671.008 499.397 669.073 502.527 667.828 505.95C666.584 509.373 666.057 513.015 666.281 516.651L667.171 538.261H671.741C675.34 538.25 678.906 538.962 682.226 540.353C685.546 541.744 688.554 543.787 691.071 546.36Z" fill="#B8ADD2"/>
<path opacity="0.38" d="M792.158 568.741L791.858 576.211H791.998V588.051H807.778V576.211H829.998C831.964 576.212 833.854 575.453 835.273 574.093C836.691 572.732 837.528 570.875 837.608 568.911L837.758 565.051C836.793 566.173 835.605 567.08 834.268 567.716C832.932 568.351 831.478 568.7 829.998 568.741H792.158Z" fill="#B8ADD2"/>
<path opacity="0.38" d="M784.851 546.361C789.15 550.859 791.737 556.723 792.161 562.931H830.001C831.967 562.927 833.856 562.165 835.274 560.803C836.691 559.441 837.529 557.585 837.611 555.621L839.181 516.701C839.409 513.064 838.886 509.419 837.645 505.993C836.404 502.567 834.471 499.433 831.966 496.786C829.462 494.139 826.44 492.036 823.088 490.607C819.735 489.178 816.125 488.454 812.481 488.481H786.821C783.179 488.446 779.568 489.162 776.214 490.585C772.86 492.008 769.836 494.106 767.329 496.749C764.822 499.392 762.886 502.523 761.643 505.947C760.399 509.371 759.874 513.015 760.101 516.651L760.981 538.261H765.551C769.145 538.258 772.704 538.974 776.018 540.364C779.332 541.755 782.335 543.794 784.851 546.361Z" fill="#B8ADD2"/>
<path opacity="0.38" d="M323.3 668.311L323 675.781H323.15V687.611H338.93V685.751L338.21 668.311H323.3Z" fill="#B8ADD2"/>
<path opacity="0.38" d="M316.001 645.931C320.3 650.426 322.887 656.286 323.311 662.491H338.231C338.601 656.831 340.786 651.441 344.461 647.121C346.997 644.202 350.131 641.862 353.651 640.259C357.171 638.656 360.993 637.828 364.861 637.831H369.421L370.301 616.271C370.529 612.633 370.005 608.987 368.763 605.561C367.522 602.134 365.588 599 363.082 596.352C360.577 593.705 357.553 591.602 354.2 590.174C350.847 588.746 347.235 588.023 343.591 588.051H318.001C314.359 588.019 310.749 588.738 307.397 590.161C304.045 591.585 301.021 593.683 298.515 596.325C296.008 598.968 294.073 602.098 292.828 605.521C291.584 608.943 291.057 612.586 291.281 616.221L292.161 637.831H296.741C300.329 637.83 303.881 638.546 307.188 639.937C310.496 641.328 313.492 643.366 316.001 645.931Z" fill="#B8ADD2"/>
<path opacity="0.38" d="M417.07 668.311L416.77 675.781H416.92V687.611H432.7V685.751L431.99 668.311H417.07Z" fill="#B8ADD2"/>
<path opacity="0.38" d="M409.759 645.931C414.051 650.431 416.636 656.288 417.069 662.491H431.999C432.37 656.831 434.554 651.441 438.229 647.121C440.766 644.202 443.9 641.862 447.42 640.259C450.939 638.656 454.762 637.828 458.629 637.831H463.199L464.069 616.271C464.297 612.634 463.774 608.989 462.533 605.563C461.292 602.137 459.359 599.003 456.854 596.356C454.35 593.709 451.328 591.606 447.976 590.177C444.624 588.748 441.013 588.024 437.369 588.051H411.719C408.077 588.019 404.468 588.738 401.116 590.161C397.763 591.585 394.74 593.683 392.234 596.325C389.727 598.968 387.791 602.098 386.547 605.521C385.302 608.943 384.776 612.586 384.999 616.221L385.889 637.831H390.459C394.054 637.828 397.612 638.544 400.926 639.935C404.24 641.325 407.243 643.364 409.759 645.931Z" fill="#B8ADD2"/>
<path opacity="0.38" d="M510.849 668.311L510.539 675.781H510.689V687.611H526.469V685.751L525.759 668.311H510.849Z" fill="#B8ADD2"/>
<path opacity="0.38" d="M503.531 645.931C507.83 650.426 510.417 656.286 510.841 662.491H525.751C526.136 656.831 528.326 651.443 532.001 647.121C534.537 644.202 537.671 641.862 541.191 640.259C544.711 638.656 548.533 637.828 552.401 637.831H557.001L557.871 616.271C558.098 612.634 557.576 608.989 556.334 605.563C555.093 602.137 553.16 599.003 550.656 596.356C548.151 593.709 545.129 591.606 541.777 590.177C538.425 588.748 534.814 588.024 531.171 588.051H505.501C501.859 588.019 498.249 588.738 494.897 590.161C491.545 591.585 488.521 593.683 486.015 596.325C483.508 598.968 481.573 602.098 480.328 605.521C479.084 608.943 478.557 612.586 478.781 616.221L479.661 637.831H484.231C487.825 637.828 491.383 638.544 494.697 639.935C498.012 641.325 501.015 643.364 503.531 645.931Z" fill="#B8ADD2"/>
<path opacity="0.38" d="M604.619 668.311L604.319 675.781H604.469V687.611H620.239V685.751L619.529 668.311H604.619Z" fill="#B8ADD2"/>
<path opacity="0.38" d="M597.299 645.931C601.598 650.426 604.185 656.286 604.609 662.491H619.529C619.9 656.831 622.084 651.441 625.759 647.121C628.296 644.202 631.43 641.862 634.95 640.259C638.469 638.656 642.292 637.828 646.159 637.831H650.719L651.599 616.271C651.827 612.633 651.304 608.987 650.062 605.561C648.82 602.134 646.886 599 644.381 596.352C641.875 593.705 638.852 591.602 635.499 590.174C632.145 588.746 628.534 588.023 624.889 588.051H599.269C595.627 588.019 592.018 588.738 588.666 590.161C585.313 591.585 582.29 593.683 579.783 596.325C577.277 598.968 575.341 602.098 574.097 605.521C572.852 608.943 572.325 612.586 572.549 616.221L573.429 637.831H577.999C581.594 637.824 585.154 638.538 588.468 639.929C591.783 641.32 594.786 643.361 597.299 645.931Z" fill="#B8ADD2"/>
<path opacity="0.38" d="M698.39 668.311L698.09 675.781H698.24V687.611H714.02V685.741L713.3 668.311H698.39Z" fill="#B8ADD2"/>
<path opacity="0.38" d="M691.071 645.931C695.37 650.426 697.957 656.286 698.381 662.491H713.301C713.671 656.831 715.856 651.441 719.531 647.121C722.067 644.202 725.201 641.862 728.721 640.259C732.241 638.656 736.063 637.828 739.931 637.831H744.501L745.371 616.271C745.598 612.634 745.076 608.989 743.834 605.563C742.593 602.137 740.66 599.003 738.156 596.356C735.651 593.709 732.629 591.606 729.277 590.177C725.925 588.748 722.314 588.024 718.671 588.051H693.001C689.359 588.019 685.749 588.738 682.397 590.161C679.045 591.585 676.021 593.683 673.515 596.325C671.008 598.968 669.073 602.098 667.828 605.521C666.584 608.943 666.057 612.586 666.281 616.221L667.171 637.831H671.741C675.34 637.82 678.906 638.532 682.226 639.923C685.546 641.314 688.554 643.357 691.071 645.931Z" fill="#B8ADD2"/>
<path opacity="0.38" d="M792.158 668.31L791.858 675.78H791.998V687.61H807.778V675.78H829.998C831.966 675.782 833.857 675.021 835.276 673.658C836.695 672.295 837.531 670.436 837.608 668.47L837.758 664.62C836.793 665.742 835.605 666.65 834.268 667.285C832.932 667.92 831.478 668.27 829.998 668.31H792.158Z" fill="#B8ADD2"/>
<path opacity="0.38" d="M784.851 645.93C789.15 650.425 791.737 656.285 792.161 662.49H830.001C831.966 662.489 833.855 661.729 835.273 660.369C836.691 659.009 837.529 657.153 837.611 655.19L839.181 616.27C839.409 612.633 838.886 608.988 837.645 605.562C836.404 602.136 834.471 599.002 831.966 596.355C829.462 593.708 826.44 591.605 823.088 590.176C819.735 588.747 816.125 588.024 812.481 588.05H786.821C783.179 588.015 779.568 588.732 776.214 590.154C772.86 591.577 769.836 593.675 767.329 596.318C764.822 598.961 762.886 602.092 761.643 605.517C760.399 608.941 759.874 612.584 760.101 616.22L760.981 637.83H765.551C769.145 637.828 772.704 638.543 776.018 639.934C779.332 641.325 782.335 643.363 784.851 645.93Z" fill="#B8ADD2"/>
<path opacity="0.38" d="M323.3 767.87L323 775.35H323.15V787.18H338.93V785.32L338.21 767.87H323.3Z" fill="#B8ADD2"/>
<path opacity="0.38" d="M316.001 745.5C320.301 749.994 322.888 755.855 323.311 762.06H338.231C338.601 756.401 340.786 751.011 344.461 746.69C346.993 743.767 350.127 741.423 353.647 739.82C357.168 738.217 360.992 737.392 364.861 737.4H369.421L370.301 715.84C370.53 712.202 370.008 708.555 368.767 705.127C367.525 701.699 365.592 698.564 363.086 695.915C360.581 693.267 357.557 691.163 354.203 689.734C350.849 688.306 347.236 687.583 343.591 687.61H318.001C314.359 687.579 310.749 688.297 307.397 689.721C304.045 691.144 301.021 693.242 298.515 695.885C296.008 698.527 294.073 701.657 292.828 705.08C291.584 708.503 291.057 712.145 291.281 715.78L292.161 737.4H296.741C300.329 737.397 303.882 738.111 307.19 739.502C310.498 740.894 313.494 742.933 316.001 745.5Z" fill="#B8ADD2"/>
<path opacity="0.38" d="M417.07 767.87L416.77 775.35H416.92V787.18H432.7V785.32L431.99 767.87H417.07Z" fill="#B8ADD2"/>
<path opacity="0.38" d="M409.759 745.5C414.052 749.999 416.638 755.857 417.069 762.06H431.999C432.37 756.401 434.554 751.011 438.229 746.69C440.763 743.768 443.897 741.425 447.417 739.822C450.937 738.219 454.761 737.393 458.629 737.4H463.199L464.069 715.84C464.299 712.203 463.777 708.557 462.536 705.13C461.296 701.702 459.363 698.567 456.858 695.919C454.354 693.271 451.331 691.167 447.978 689.737C444.625 688.308 441.014 687.584 437.369 687.61H411.719C408.077 687.579 404.468 688.297 401.116 689.721C397.763 691.144 394.74 693.242 392.234 695.885C389.727 698.527 387.791 701.657 386.547 705.08C385.302 708.503 384.776 712.145 384.999 715.78L385.889 737.4H390.459C394.054 737.393 397.614 738.106 400.929 739.497C404.244 740.888 407.247 742.93 409.759 745.5Z" fill="#B8ADD2"/>
<path opacity="0.38" d="M510.849 767.87L510.539 775.35H510.689V787.18H526.469V785.32L525.759 767.87H510.849Z" fill="#B8ADD2"/>
<path opacity="0.38" d="M503.531 745.5C507.831 749.994 510.418 755.855 510.841 762.06H525.751C526.136 756.4 528.326 751.013 532.001 746.69C534.534 743.768 537.668 741.425 541.188 739.822C544.708 738.219 548.533 737.393 552.401 737.4H557.001L557.871 715.84C558.1 712.203 557.578 708.557 556.337 705.13C555.097 701.702 553.164 698.567 550.66 695.919C548.155 693.271 545.132 691.167 541.779 689.737C538.427 688.308 534.815 687.584 531.171 687.61H505.501C501.859 687.579 498.249 688.297 494.897 689.721C491.545 691.144 488.521 693.242 486.015 695.885C483.508 698.527 481.573 701.657 480.328 705.08C479.084 708.503 478.557 712.145 478.781 715.78L479.661 737.4H484.231C487.826 737.393 491.386 738.106 494.7 739.497C498.015 740.888 501.018 742.93 503.531 745.5Z" fill="#B8ADD2"/>
<path opacity="0.38" d="M604.619 767.87L604.319 775.35H604.469V787.18H620.239V785.32L619.529 767.87H604.619Z" fill="#B8ADD2"/>
<path opacity="0.38" d="M597.299 745.5C601.6 749.994 604.187 755.855 604.609 762.06H619.529C619.9 756.401 622.084 751.011 625.759 746.69C628.292 743.767 631.425 741.423 634.946 739.82C638.466 738.217 642.291 737.392 646.159 737.4H650.719L651.599 715.84C651.828 712.202 651.306 708.555 650.065 705.127C648.824 701.699 646.89 698.564 644.385 695.915C641.879 693.267 638.855 691.163 635.501 689.734C632.147 688.306 628.535 687.583 624.889 687.61H599.269C595.627 687.579 592.018 688.297 588.666 689.721C585.313 691.144 582.29 693.242 579.783 695.885C577.277 698.527 575.341 701.657 574.097 705.08C572.852 708.503 572.325 712.145 572.549 715.78L573.429 737.4H577.999C581.594 737.391 585.155 738.103 588.47 739.495C591.785 740.886 594.787 742.928 597.299 745.5Z" fill="#B8ADD2"/>
<path opacity="0.38" d="M698.39 767.87L698.09 775.35H698.24V787.18H714.02V785.31L713.3 767.87H698.39Z" fill="#B8ADD2"/>
<path opacity="0.38" d="M691.071 745.5C695.371 749.994 697.958 755.855 698.381 762.06H713.301C713.671 756.401 715.856 751.011 719.531 746.69C722.063 743.767 725.197 741.423 728.717 739.82C732.238 738.217 736.062 737.392 739.931 737.4H744.501L745.371 715.84C745.6 712.203 745.078 708.557 743.837 705.13C742.597 701.702 740.664 698.567 738.16 695.919C735.655 693.271 732.632 691.167 729.279 689.737C725.927 688.308 722.315 687.584 718.671 687.61H693.001C689.359 687.579 685.749 688.297 682.397 689.721C679.045 691.144 676.021 693.242 673.515 695.885C671.008 698.527 669.073 701.657 667.828 705.08C666.584 708.503 666.057 712.145 666.281 715.78L667.171 737.4H671.741C675.341 737.387 678.907 738.097 682.228 739.489C685.548 740.88 688.555 742.925 691.071 745.5Z" fill="#B8ADD2"/>
<path opacity="0.38" d="M792.158 767.87L791.858 775.35H791.998V787.18H807.778V775.35H829.998C831.965 775.349 833.855 774.588 835.273 773.226C836.692 771.863 837.528 770.005 837.608 768.04L837.758 764.19C836.792 765.309 835.602 766.215 834.266 766.848C832.93 767.482 831.477 767.83 829.998 767.87H792.158Z" fill="#B8ADD2"/>
<path opacity="0.38" d="M784.851 745.501C789.152 749.994 791.739 755.855 792.161 762.061H830.001C831.966 762.06 833.855 761.3 835.273 759.94C836.691 758.579 837.529 756.724 837.611 754.761L839.181 715.841C839.411 712.203 838.889 708.557 837.648 705.13C836.407 701.703 834.475 698.567 831.97 695.919C829.466 693.271 826.443 691.167 823.09 689.738C819.737 688.308 816.126 687.584 812.481 687.611H786.821C783.179 687.576 779.568 688.292 776.214 689.715C772.86 691.137 769.836 693.236 767.329 695.879C764.822 698.522 762.886 701.653 761.643 705.077C760.399 708.501 759.874 712.145 760.101 715.781L761.001 737.401H765.571C769.163 737.396 772.719 738.11 776.03 739.501C779.341 740.892 782.341 742.932 784.851 745.501Z" fill="#B8ADD2"/>
</g>
</g>
<path d="M305.311 174.58H237.051C234.247 174.579 231.47 175.13 228.878 176.202C226.287 177.275 223.932 178.847 221.948 180.83C219.965 182.812 218.391 185.167 217.318 187.757C216.244 190.348 215.691 193.126 215.691 195.93V264.18C215.691 269.846 217.942 275.28 221.947 279.287C225.952 283.295 231.385 285.547 237.051 285.55H305.311C310.976 285.545 316.406 283.291 320.409 279.284C324.413 275.277 326.661 269.844 326.661 264.18V195.93C326.661 193.126 326.109 190.35 325.036 187.76C323.963 185.169 322.391 182.816 320.408 180.833C318.426 178.851 316.072 177.278 313.482 176.205C310.891 175.132 308.115 174.58 305.311 174.58ZM284.001 251C282.409 252.53 280.527 253.729 278.467 254.525C276.407 255.322 274.209 255.701 272.001 255.64C267.883 255.791 263.859 254.392 260.721 251.72C259.226 250.438 258.003 248.871 257.121 247.11C256.825 246.472 256.684 245.772 256.713 245.068C256.741 244.365 256.937 243.678 257.284 243.066C257.632 242.454 258.12 241.933 258.709 241.548C259.299 241.162 259.971 240.923 260.671 240.85C261.676 240.699 262.703 240.872 263.603 241.345C264.502 241.818 265.227 242.566 265.671 243.48C266.035 244.344 266.569 245.126 267.241 245.78C267.863 246.393 268.601 246.876 269.411 247.2C270.222 247.525 271.089 247.684 271.961 247.67C272.909 247.683 273.847 247.488 274.711 247.099C275.574 246.71 276.343 246.137 276.961 245.42C278.37 243.706 279.084 241.525 278.961 239.31C279.062 237.226 278.361 235.183 277.001 233.6C276.41 232.924 275.679 232.383 274.86 232.015C274.04 231.648 273.15 231.462 272.251 231.47H272.201C271.677 231.489 271.155 231.393 270.672 231.19C270.188 230.987 269.755 230.682 269.401 230.295C269.047 229.908 268.782 229.448 268.623 228.948C268.464 228.449 268.416 227.92 268.481 227.4V227.24C268.572 226.51 268.891 225.828 269.392 225.289C269.892 224.751 270.55 224.384 271.271 224.24C272.582 224.064 273.818 223.528 274.841 222.69C275.509 222.095 276.036 221.357 276.382 220.532C276.728 219.706 276.885 218.814 276.841 217.92C276.898 217.181 276.794 216.439 276.538 215.743C276.282 215.048 275.88 214.416 275.358 213.889C274.837 213.363 274.208 212.955 273.515 212.693C272.822 212.431 272.081 212.321 271.341 212.37C270.56 212.355 269.784 212.498 269.061 212.792C268.337 213.086 267.681 213.524 267.131 214.08C266.542 214.671 266.073 215.37 265.751 216.14C265.36 216.968 264.705 217.644 263.889 218.06C263.073 218.476 262.142 218.61 261.241 218.44H261.121C260.46 218.333 259.831 218.076 259.284 217.688C258.736 217.301 258.285 216.794 257.964 216.205C257.642 215.617 257.46 214.962 257.43 214.293C257.4 213.623 257.524 212.955 257.791 212.34C258.109 211.64 258.49 210.97 258.931 210.34C260.249 208.472 262.045 206.994 264.131 206.06C266.481 205.002 269.035 204.473 271.611 204.51C276.345 204.51 280.135 206.017 282.981 209.03C284.088 210.122 284.969 211.422 285.573 212.855C286.177 214.287 286.492 215.825 286.501 217.38C286.501 221.787 284.095 225.3 279.281 227.92C282.001 228.446 284.446 229.92 286.181 232.08C287.929 234.282 288.842 237.03 288.761 239.84C288.785 241.929 288.374 243.999 287.554 245.92C286.735 247.841 285.525 249.571 284.001 251Z" fill="#B8ADD2"/>
<path d="M422.998 174.58H354.768C349.104 174.58 343.672 176.829 339.665 180.832C335.658 184.835 333.404 190.266 333.398 195.93V264.18C333.404 269.846 335.657 275.279 339.663 279.285C343.67 283.292 349.102 285.545 354.768 285.55H422.998C428.663 285.545 434.093 283.291 438.096 279.284C442.1 275.277 444.348 269.844 444.348 264.18V195.93C444.348 193.126 443.796 190.35 442.723 187.76C441.65 185.169 440.078 182.816 438.095 180.833C436.113 178.851 433.759 177.278 431.169 176.205C428.578 175.132 425.802 174.58 422.998 174.58ZM400.418 246.58C401.015 246.58 401.605 246.698 402.156 246.926C402.707 247.154 403.207 247.488 403.629 247.91C404.05 248.331 404.385 248.832 404.613 249.383C404.841 249.934 404.958 250.524 404.958 251.12C404.958 251.716 404.841 252.307 404.613 252.857C404.385 253.408 404.05 253.909 403.629 254.33C403.207 254.752 402.707 255.086 402.156 255.315C401.605 255.543 401.015 255.66 400.418 255.66H379.658C378.526 255.663 377.412 255.368 376.429 254.806C375.445 254.244 374.626 253.433 374.054 252.456C373.481 251.479 373.174 250.368 373.165 249.235C373.155 248.103 373.443 246.987 373.998 246C374.027 245.973 374.048 245.938 374.058 245.9C375.918 242.827 379.585 238.75 385.058 233.67C389.472 229.557 392.178 226.77 393.178 225.31C394.436 223.558 395.133 221.466 395.178 219.31C395.236 218.401 395.111 217.49 394.808 216.631C394.506 215.772 394.033 214.982 393.418 214.31C392.624 213.471 391.625 212.854 390.52 212.519C389.414 212.184 388.241 212.142 387.114 212.399C385.988 212.655 384.948 213.2 384.096 213.981C383.245 214.761 382.612 215.75 382.258 216.85C381.959 217.86 381.322 218.735 380.453 219.331C379.585 219.926 378.538 220.205 377.488 220.12L376.918 220.05C376.227 219.981 375.56 219.755 374.97 219.389C374.379 219.023 373.881 218.526 373.512 217.937C373.143 217.348 372.914 216.683 372.842 215.992C372.771 215.301 372.858 214.602 373.098 213.95C373.891 211.582 375.358 209.497 377.318 207.95C380.644 205.519 384.692 204.279 388.808 204.43C393.848 204.43 397.805 205.787 400.678 208.5C402.079 209.783 403.189 211.351 403.934 213.098C404.679 214.845 405.042 216.731 404.998 218.63C405.008 220.878 404.591 223.108 403.768 225.2C402.775 227.55 401.455 229.748 399.848 231.73C397.863 234.047 395.718 236.223 393.428 238.24C390.348 241.08 388.428 242.95 387.558 243.89C386.797 244.719 386.126 245.628 385.558 246.6L400.418 246.58Z" fill="#B8ADD2"/>
<path d="M702.68 651.38C694.05 659.57 685 667.28 676.68 675.7" stroke="#D4CEE4" stroke-width="4.47" stroke-miterlimit="10"/>
<path d="M577.289 275.78C577.889 275.9 578.479 276.05 579.109 276.23C628.289 289.03 675.559 319.63 716.399 376.61C737.269 405.73 753.699 438.61 760.339 474.08C768.589 518.14 759.599 562.31 739.649 601.61" stroke="#D4CEE4" stroke-width="4.47" stroke-miterlimit="10"/>
<path d="M640.999 729.41C633.439 743.31 625.129 756.65 612.389 766.65C590.689 783.74 559.969 786.33 533.589 778.14C501.589 768.2 467.269 743.4 455.979 710.77C443.539 674.77 427.579 638.77 384.919 634.27C347.829 630.43 312.019 649.98 275.219 636.35C203.449 609.77 265.849 506.23 245.629 455.59C237.329 434.78 220.949 422.75 201.189 414.59C164.389 399.29 115.959 397.23 86.369 376.28C34.9992 339.88 21.0492 268 11.5292 210.8C0.499407 143.556 0.458912 74.967 11.4092 7.70996" stroke="#D4CEE4" stroke-width="4.47" stroke-miterlimit="10"/>
<path d="M206.998 4.26953L204.518 9.51003C203.288 12.13 202.088 14.8 200.968 17.51C195.363 30.714 190.995 44.409 187.918 58.42C185.693 68.443 184.149 78.607 183.298 88.84C183.148 90.61 183.028 92.39 182.938 94.16C182.29 104.411 182.347 114.696 183.108 124.94C183.108 125.32 183.108 125.72 183.178 126.11H105.498C106.381 119.596 106.921 113.04 107.118 106.47C107.118 104.81 107.188 103.11 107.188 101.47C107.188 96.92 107.028 92.36 106.668 87.84C106.192 80.965 105.301 74.126 103.998 67.36C103.148 62.83 102.118 58.31 100.878 53.85C96.9064 39.125 91.0864 24.963 83.5584 11.7L82.5584 9.85003L79.3984 4.26953H206.998Z" stroke="black" stroke-width="4.47" stroke-miterlimit="10"/>
<path d="M207 4.26953L204.52 9.51003C203.29 12.13 202.09 14.8 200.97 17.51C195.365 30.714 190.997 44.409 187.92 58.42C180.854 60.911 173.413 62.176 165.92 62.16C163.502 62.155 161.086 62.028 158.68 61.78C143.888 60.143 130.073 53.59 119.446 43.171C108.82 32.751 101.997 19.067 100.07 4.30953L207 4.26953Z" stroke="black" stroke-width="4.47" stroke-miterlimit="10"/>
<path d="M206.999 4.26953L204.519 9.51003C203.289 12.13 202.089 14.8 200.969 17.51C195.364 30.714 190.996 44.409 187.919 58.42C185.694 68.443 184.15 78.607 183.299 88.84C181.889 88.91 180.479 88.94 179.059 88.94C153.577 88.973 128.96 79.694 109.839 62.85C106.664 60.03 103.659 57.025 100.839 53.85C96.8674 39.125 91.0474 24.963 83.5194 11.7L82.5194 9.85003L79.3594 4.26953H206.999Z" stroke="black" stroke-width="4.47" stroke-miterlimit="10"/>
<path d="M83.1602 4.26953H207L204.52 9.51003C203.29 12.13 202.09 14.8 200.97 17.51C195.365 30.714 190.996 44.409 187.92 58.42C185.695 68.443 184.151 78.607 183.3 88.84" stroke="black" stroke-width="4.47" stroke-miterlimit="10"/>
<path d="M182.999 94.1201C182.35 104.371 182.407 114.656 183.169 124.9C174.359 124.628 165.621 123.226 157.169 120.73C137.471 114.937 119.912 103.478 106.679 87.7801C106.197 80.9251 105.302 74.1061 103.999 67.3601C103.149 62.8301 102.119 58.3101 100.879 53.8501C96.9056 39.1251 91.0866 24.9631 83.5586 11.7001L82.5586 9.8501" stroke="black" stroke-width="4.47" stroke-miterlimit="10"/>
<path d="M145.342 4.26953C141.936 20.165 134.88 35.051 124.732 47.75C120.307 53.268 115.324 58.315 109.862 62.81C107.962 64.43 106.002 65.93 103.952 67.36C103.102 62.83 102.072 58.31 100.832 53.85C96.8586 39.125 91.0396 24.963 83.5116 11.7L82.5116 9.85003L79.3516 4.26953H145.342Z" stroke="black" stroke-width="4.47" stroke-miterlimit="10"/>
<path d="M158.728 61.74C154.376 69.295 149.092 76.273 142.998 82.51C136.726 88.875 129.67 94.416 121.998 99C121.148 99.53 120.288 100 119.408 100.48C115.452 102.741 111.342 104.722 107.108 106.41C107.108 104.75 107.178 103.05 107.178 101.41C107.178 96.86 107.018 92.3 106.658 87.78C106.183 80.926 105.295 74.107 103.998 67.36C103.148 62.83 102.118 58.31 100.878 53.85C96.9064 39.125 91.0864 24.963 83.5584 11.7L82.5584 9.85003L79.3984 4.26953H172.838C173.729 24.382 168.832 44.327 158.728 61.74Z" stroke="black" stroke-width="4.47" stroke-miterlimit="10"/>
<path d="M208.211 0.240234H18.8706C14.7395 0.240234 11.3906 3.58914 11.3906 7.72024C11.3906 11.851 14.7395 15.2 18.8706 15.2H208.211C212.342 15.2 215.691 11.851 215.691 7.72024C215.691 3.58914 212.342 0.240234 208.211 0.240234Z" fill="black"/>
<path d="M499.942 185.61C497.832 183.32 495.512 181.77 492.942 181.47C458.262 183.74 426.082 202.02 395.092 218.06C369.342 231.4 344.042 245.63 319.452 261.06C301.112 272.55 283.132 284.69 265.862 297.79C254.082 306.69 242.562 316.07 231.662 326.07C229.522 328.07 207.992 346.41 212.252 350.87C216.512 355.33 223.252 349.29 226.992 347.06C230.732 344.83 236.482 340.45 240.322 338.4C235.121 346.925 231.108 356.12 228.392 365.73C227.462 369.21 226.182 373.02 226.392 376.65C226.477 377.972 227.076 379.208 228.061 380.094C229.046 380.98 230.338 381.445 231.662 381.39C232.764 381.346 233.826 380.965 234.704 380.298C235.582 379.631 236.234 378.71 236.572 377.66L252.322 339.5C250.212 345.39 245.742 359.5 244.322 369.09C243.672 373.35 245.392 376.83 249.412 375.88C250.418 375.599 251.343 375.082 252.11 374.372C252.876 373.663 253.463 372.781 253.822 371.8L268.002 335.08C265.104 344.826 263.52 354.915 263.292 365.08C263.281 365.572 263.369 366.062 263.55 366.52C263.731 366.978 264.002 367.396 264.347 367.748C264.691 368.1 265.103 368.38 265.557 368.571C266.011 368.762 266.499 368.86 266.992 368.86C271.332 368.86 271.992 361.66 273.122 358.65C276.396 350.111 281.312 342.298 287.592 335.65C291.992 330.98 297.952 327.79 303.512 324.65C314.451 318.716 325.864 313.699 337.632 309.65C363.912 300.18 391.032 293.28 417.922 285.84C418.272 285.75 418.602 285.63 418.922 285.54C419.722 285.33 420.502 285.09 421.302 284.88C437.112 280.45 452.892 275.88 468.392 270.47C469.392 270.12 470.392 269.79 471.312 269.47C471.326 269.452 471.344 269.437 471.365 269.427C471.386 269.416 471.409 269.41 471.432 269.41C480.572 265.31 489.432 260.33 496.622 254.35C496.622 254.35 496.622 254.35 496.682 254.29C521.612 230.45 506.582 197.37 499.942 185.61ZM252.622 338.78C252.83 338.091 253.097 337.422 253.422 336.78L252.622 338.78Z" fill="white"/>
<path d="M252.352 339.46C252.352 339.46 252.352 339.37 252.412 339.34L252.622 338.78" fill="white"/>
<path d="M252.352 339.46C252.352 339.46 252.352 339.37 252.412 339.34L252.622 338.78" fill="white"/>
<path d="M614.879 503.75C614.879 503.75 616.879 563.75 663.879 574.08C710.879 584.41 707.499 595.93 741.999 601.61C776.499 607.29 718.589 654.61 718.589 654.61L660.399 642.43L674.789 672.5L650.789 737.42C650.789 737.42 550.349 636.5 515.049 574C479.749 511.5 561.609 490.18 564.049 490.18C566.489 490.18 614.879 503.75 614.879 503.75Z" fill="white"/>
<path d="M534.77 568.66C536.14 570.3 537.57 571.91 539.03 573.54C542.61 577.07 534.66 585.9 526.11 589.89C499.76 552.82 474.82 512.75 455.47 472.15C454.13 469.32 452.79 466.46 451.47 463.6C451.17 462.98 450.87 462.32 450.61 461.67C448.88 457.67 446.88 453.01 445.25 449.02C459.54 437.85 482.88 414.13 496.63 395.46C506.18 382.46 518.39 380.1 528.15 380.85C528.27 380.85 528.39 380.85 528.48 380.85C532.692 381.214 536.843 382.094 540.84 383.47C540.96 383.47 541.07 383.56 541.19 383.58C541.58 383.7 541.94 383.82 542.32 383.97C542.7 384.12 543.04 384.21 543.4 384.36C546.807 385.569 550.103 387.071 553.25 388.85C602.46 427.85 609.01 475.96 616.78 513.2C595.15 537.13 559.45 581.07 534.77 568.66Z" fill="#9B8CC0"/>
<path d="M555.049 368.05C552.519 375.93 550.849 380.64 550.849 380.64C550.849 380.64 548.849 386.26 544.479 384.75C540.109 383.24 513.999 371.92 496.669 395.46C482.919 414.13 459.579 437.85 445.289 449.02C442.516 451.359 439.467 453.347 436.209 454.94C425.819 459.11 413.939 467.65 414.209 457C414.479 446.35 409.269 288.26 417.999 285.82C426.729 283.38 524.299 266.53 512.839 214.17C512.839 214.17 505.339 182.82 492.959 181.48C480.579 180.14 499.539 181.24 499.539 181.24C499.539 181.24 559.909 179.9 575.689 223.01C588.209 257.36 564.999 337.12 555.049 368.05Z" fill="#333333"/>
<path d="M726.549 109C722.999 107.84 720.149 90.34 713.479 95C709.219 98 714.879 115 715.259 117.95C716.146 124.773 715.518 131.708 713.419 138.26C713.207 138.375 712.987 138.472 712.759 138.55C711.538 139.114 710.282 139.598 708.999 140C708.409 140.21 707.779 140.39 707.159 140.57C706.539 140.75 706.159 140.84 705.699 140.96L704.059 141.31C703.289 141.46 702.539 141.61 701.769 141.73C699.423 142.093 697.053 142.273 694.679 142.27C693.819 142.27 692.959 142.27 692.119 142.21C691.589 142.21 691.119 142.12 690.549 142.09C690.219 142.09 689.859 142.03 689.549 141.97C687.866 141.795 686.196 141.515 684.549 141.13C683.989 141.02 683.449 140.9 682.919 140.75C682.383 140.633 681.856 140.483 681.339 140.3C680.439 140.03 679.549 139.74 678.689 139.44C678.389 139.32 678.059 139.2 677.689 139.05C676.879 138.75 676.079 138.4 675.299 138.05C675.224 138.042 675.154 138.011 675.099 137.96C673.234 137.088 671.433 136.085 669.709 134.96C669.606 134.922 669.514 134.86 669.439 134.78C662.614 128.428 657.859 120.167 655.796 111.074C653.732 101.981 654.455 92.478 657.869 83.801C661.283 75.125 667.232 67.678 674.939 62.43C682.646 57.182 691.755 54.377 701.079 54.38C710.021 54.353 718.777 56.939 726.269 61.82C726.829 62.35 727.399 62.89 727.939 63.46C728.479 64.03 729.039 64.62 729.569 65.21C720.079 65.63 729.509 84.29 730.969 90.34C732.139 94.79 735.999 112 726.549 109Z" fill="#9B8CC0"/>
<path d="M658.2 641.89C667.69 660.38 676.71 676.28 685.02 689.76C713.27 735.76 732.86 754.12 732.86 754.12L709.7 851.47C709.362 852.905 708.701 854.244 707.766 855.384C706.832 856.524 705.65 857.436 704.31 858.05C703.034 858.692 701.628 859.034 700.2 859.05C697.606 859.042 695.12 858.008 693.286 856.174C691.452 854.34 690.418 851.854 690.41 849.26V779.64C690.41 779.64 671.18 761.64 642.9 731.47C610.83 697.26 567.13 647.47 526.71 590.72C526.5 590.45 526.32 590.15 526.11 589.89C499.76 552.82 474.82 512.75 455.47 472.15C454.13 469.32 452.79 466.46 451.47 463.6C451.17 462.98 450.87 462.32 450.61 461.67C448.73 457.59 446.97 453.51 445.25 449.4" stroke="black" stroke-width="4.47" stroke-linecap="round" stroke-linejoin="round"/>
<path d="M468.449 459.41C468.449 459.41 491.879 518.47 534.769 568.66C535.159 569.11 535.519 569.55 535.899 570C536.899 571.19 537.959 572.35 539.029 573.54C561.569 598.82 589.159 621.23 621.279 631.65C633.519 635.65 645.869 638.98 658.199 641.89C683.499 647.97 708.739 652.4 732.859 657.55C788.499 669.37 838.089 684.82 868.279 731.92C869.495 733.729 871.325 735.035 873.431 735.596C875.537 736.157 877.775 735.936 879.729 734.972C881.684 734.008 883.223 732.368 884.059 730.355C884.896 728.343 884.974 726.095 884.279 724.03L854.219 641.36C854.219 641.36 795.299 621.36 737.939 600.99C703.789 588.9 670.179 576.73 649.819 568.57C628.269 559.94 622.289 539.25 616.869 513.23C615.229 505.4 613.649 497.07 611.719 488.46C604.449 456.16 592.189 419.7 553.339 388.88" stroke="black" stroke-width="4.47" stroke-linecap="round" stroke-linejoin="round"/>
<path d="M240.362 338.37C236.502 340.42 230.782 344.8 227.022 347.02C223.262 349.24 216.502 355.23 212.282 350.83C208.062 346.43 229.552 328 231.702 326C242.582 316 254.092 306.64 265.882 297.72C283.172 284.64 301.132 272.49 319.492 260.99C344.072 245.59 369.382 231.37 395.122 217.99C434.772 197.45 476.362 173.31 522.642 183.64C538.912 187.27 554.862 195.38 566.062 207.95C583.862 227.89 583.492 255.95 578.252 280.6C570.882 315.29 559.132 352.23 549.182 386.24" stroke="black" stroke-width="4.47" stroke-linecap="round" stroke-linejoin="round"/>
<path d="M551.68 194.43C583.98 200.43 619.47 208.72 651.83 198.54C675.67 191.01 705.17 165.64 713.42 138.32C715.52 131.765 716.148 124.827 715.26 118C714.88 115.06 709.26 98.09 713.48 95.05C720.15 90.38 723 107.88 726.55 109.05C736.01 112.05 732.14 94.82 731.04 90.39C729.58 84.34 720.15 65.68 729.64 65.26C729.64 65.26 729.76 65.26 729.82 65.26C735.39 65.14 741.58 84.11 742 86.13C746.49 106.67 745.12 128.19 741.85 148.91C733.1 204.14 692.94 260.82 634.26 268.14C616.26 270.37 597.97 270.88 579.84 272.01" stroke="black" stroke-width="4.47" stroke-linecap="round" stroke-linejoin="round"/>
<path d="M551.671 194.42C551.671 194.42 545.461 173.15 567.301 155C589.141 136.85 584.891 104 569.721 94.35C554.551 84.7 532.271 78.13 514.991 91.77C497.711 105.41 491.791 116.77 491.791 116.77L497.251 121.77C497.251 121.77 476.091 150 493.891 157.25C511.691 164.5 525.451 155.89 525.451 155.89" stroke="black" stroke-width="4.47" stroke-linecap="round" stroke-linejoin="round"/>
<path d="M517.078 95.83C517.078 95.83 524.538 94.92 522.268 105.83" stroke="black" stroke-width="4.47" stroke-linecap="round" stroke-linejoin="round"/>
<path d="M534.578 84.08C534.578 84.08 546.368 89.42 544.098 95.81C541.828 102.2 538.048 100.38 539.478 112.2C540.049 116.23 539.57 120.339 538.088 124.13C537.288 126.05 534.808 127.59 535.578 129.92C536.398 132.42 540.278 133.17 542.448 132.73C545.158 132.19 546.558 130.29 548.788 128.99C551.044 127.865 553.566 127.381 556.078 127.59C560.588 127.77 565.438 130.08 564.628 135.35C563.938 139.86 559.198 141.96 555.928 144.35C550.328 148.54 546.468 163.56 555.298 166.75" stroke="black" stroke-width="4.47" stroke-linecap="round" stroke-linejoin="round"/>
<path d="M240.359 338.37C235.164 346.896 231.147 356.086 228.419 365.69C227.499 369.18 226.219 372.97 226.419 376.61C226.492 377.933 227.086 379.174 228.073 380.059C229.059 380.944 230.356 381.401 231.679 381.33C232.782 381.291 233.846 380.914 234.728 380.25C235.609 379.587 236.266 378.669 236.609 377.62L252.349 339.45C252.349 339.45 252.349 339.36 252.349 339.33L252.549 338.78C252.785 338.067 253.066 337.369 253.389 336.69L252.549 338.78L252.349 339.33C252.349 339.33 252.349 339.42 252.349 339.45C250.239 345.37 245.779 359.45 244.349 369.06C243.709 373.3 245.419 376.8 249.449 375.83C250.454 375.555 251.378 375.041 252.142 374.333C252.907 373.624 253.489 372.742 253.839 371.76L267.999 335.09C265.108 344.837 263.531 354.926 263.309 365.09C263.3 365.581 263.389 366.068 263.57 366.524C263.751 366.98 264.021 367.395 264.365 367.745C264.709 368.095 265.119 368.373 265.571 368.563C266.023 368.753 266.509 368.85 266.999 368.85C271.349 368.85 271.999 361.67 273.139 358.66C276.414 350.124 281.326 342.311 287.599 335.66C292.019 330.96 297.949 327.8 303.519 324.66C314.454 318.717 325.867 313.699 337.639 309.66C365.019 299.78 393.349 292.66 421.349 284.9C437.159 280.48 452.949 275.9 468.459 270.51C541.529 245.03 503.629 190.45 503.629 190.45" stroke="black" stroke-width="4.47" stroke-linecap="round" stroke-linejoin="round"/>
<path d="M516.262 381.32C520.198 380.619 524.212 380.461 528.192 380.85C528.312 380.85 528.432 380.85 528.522 380.85C532.723 381.284 536.866 382.162 540.882 383.47L541.232 383.58C541.622 383.7 541.982 383.82 542.362 383.97C542.742 384.12 543.082 384.21 543.442 384.36C546.849 385.569 550.145 387.071 553.292 388.85" stroke="black" stroke-width="4.47" stroke-linecap="round" stroke-linejoin="round"/>
<path d="M515.854 107.091C516.928 105.029 516.715 102.793 515.378 102.096C514.041 101.399 512.086 102.506 511.012 104.568C509.937 106.63 510.15 108.867 511.488 109.563C512.825 110.26 514.78 109.153 515.854 107.091Z" fill="black"/>
<path d="M507.04 160.11L497.25 181.24" stroke="black" stroke-width="4.47" stroke-linecap="round" stroke-linejoin="round"/>
<path d="M495.879 135.63C495.879 135.63 507.939 138.63 511.119 131.99" stroke="black" stroke-width="4.47" stroke-linecap="round" stroke-linejoin="round"/>
<path d="M726.548 109C722.998 107.84 720.148 90.34 713.478 95C709.218 98 714.878 115 715.258 117.95C716.145 124.773 715.517 131.707 713.418 138.26L712.758 138.52C711.538 139.093 710.282 139.588 708.998 140C708.408 140.21 707.778 140.39 707.158 140.57C706.538 140.75 706.158 140.84 705.698 140.96L704.058 141.31C703.288 141.46 702.538 141.61 701.768 141.73C699.422 142.092 697.052 142.273 694.678 142.27C693.818 142.27 692.958 142.27 692.118 142.21C691.588 142.21 691.118 142.12 690.548 142.09C690.218 142.09 689.858 142.03 689.548 141.97C687.866 141.795 686.196 141.514 684.548 141.13C683.988 141.02 683.448 140.9 682.918 140.75C682.383 140.633 681.855 140.483 681.338 140.3C680.438 140.03 679.548 139.74 678.688 139.44C678.388 139.32 678.058 139.2 677.688 139.05C676.878 138.75 676.078 138.4 675.298 138.05C675.224 138.042 675.154 138.01 675.098 137.96C673.233 137.087 671.432 136.085 669.708 134.96C669.606 134.921 669.513 134.86 669.438 134.78C664.029 131.297 659.403 126.728 655.855 121.362C652.306 115.996 649.912 109.951 648.824 103.611C647.737 97.27 647.979 90.773 649.537 84.531C651.095 78.289 653.933 72.44 657.873 67.354C661.812 62.268 666.766 58.056 672.419 54.987C678.073 51.918 684.303 50.058 690.714 49.526C697.126 48.993 703.577 49.799 709.66 51.893C715.743 53.987 721.324 57.323 726.048 61.69L726.268 61.82C726.828 62.35 727.398 62.89 727.938 63.46C728.478 64.03 729.038 64.62 729.568 65.21C720.078 65.63 729.508 84.29 730.968 90.34C732.138 94.79 735.998 112 726.548 109Z" stroke="black" stroke-width="4.47" stroke-linecap="round" stroke-linejoin="round"/>
<path d="M414.172 287.81L414.412 465.41" stroke="black" stroke-width="4.47" stroke-linecap="round" stroke-linejoin="round"/>
<path d="M455.471 472.15C455.471 472.15 429.421 474.77 420.821 471.52C419.005 470.966 417.31 470.077 415.821 468.9C415.321 468.479 414.932 467.941 414.687 467.334C414.443 466.728 414.352 466.07 414.421 465.42C414.565 464.66 414.939 463.962 415.491 463.42C418.051 460.53 422.331 460.14 425.821 459.13C432.804 456.994 439.383 453.713 445.291 449.42" stroke="black" stroke-width="4.47" stroke-linecap="round" stroke-linejoin="round"/>
<path d="M455.471 472.15C455.471 472.15 429.421 474.77 420.821 471.52C419.005 470.966 417.31 470.077 415.821 468.9C415.321 468.479 414.932 467.941 414.687 467.334C414.443 466.728 414.352 466.07 414.421 465.42C414.565 464.66 414.939 463.962 415.491 463.42C418.051 460.53 422.331 460.14 425.821 459.13C432.804 456.994 439.383 453.713 445.291 449.42" fill="black"/>
</svg>
