<svg width="892" height="904" viewBox="0 0 892 904" fill="none" xmlns="http://www.w3.org/2000/svg">
<path d="M888.001 278.93C869.806 273.19 852.954 263.842 838.452 251.445C823.95 239.047 812.095 223.855 803.595 206.774C795.095 189.693 790.124 171.075 788.979 152.03C787.834 132.986 790.538 113.906 796.931 95.9299C807.728 104.018 817.702 113.148 826.711 123.19C857.421 157.34 876.261 200.98 884.301 247.77C886.034 258.036 887.268 268.423 888.001 278.93Z" stroke="#D4CEE4" stroke-width="5.02" stroke-miterlimit="10"/>
<path d="M90.7809 791.39V580.17C90.7759 579.368 90.9289 578.572 91.2319 577.83C91.5359 577.087 91.9819 576.411 92.5469 575.841C93.1119 575.272 93.7839 574.819 94.5249 574.51C95.2649 574.201 96.0589 574.041 96.8609 574.04H306.931C308.809 574.037 310.668 574.405 312.403 575.122C314.138 575.84 315.714 576.892 317.042 578.22C318.369 579.547 319.422 581.123 320.139 582.858C320.856 584.593 321.224 586.453 321.221 588.33V713.89" stroke="#D4CEE4" stroke-width="5.02" stroke-miterlimit="10"/>
<path d="M90.781 791.39V683.95H321.181V713.89" stroke="#D4CEE4" stroke-width="5.02" stroke-miterlimit="10"/>
<path d="M264.571 795.77H93.1211" stroke="#D4CEE4" stroke-width="5.02" stroke-miterlimit="10"/>
<path d="M205.989 756.63C215.262 756.63 222.779 749.113 222.779 739.84C222.779 730.567 215.262 723.05 205.989 723.05C196.716 723.05 189.199 730.567 189.199 739.84C189.199 749.113 196.716 756.63 205.989 756.63Z" stroke="#D4CEE4" stroke-width="5.02" stroke-miterlimit="10"/>
<path d="M205.989 649.32C215.262 649.32 222.779 641.803 222.779 632.53C222.779 623.257 215.262 615.74 205.989 615.74C196.716 615.74 189.199 623.257 189.199 632.53C189.199 641.803 196.716 649.32 205.989 649.32Z" stroke="#D4CEE4" stroke-width="5.02" stroke-miterlimit="10"/>
<path d="M205.989 869.76C215.262 869.76 222.779 862.243 222.779 852.97C222.779 843.697 215.262 836.18 205.989 836.18C196.716 836.18 189.199 843.697 189.199 852.97C189.199 862.243 196.716 869.76 205.989 869.76Z" stroke="#D4CEE4" stroke-width="5.02" stroke-miterlimit="10"/>
<path d="M306.941 574H70.9409V550.67C74.0409 549.93 340.321 550.67 340.321 550.67V574H306.941Z" stroke="#D4CEE4" stroke-width="5.02" stroke-miterlimit="10"/>
<path d="M249.998 482.25L239.168 543C238.866 544.703 237.973 546.245 236.648 547.357C235.323 548.469 233.648 549.079 231.918 549.08H175.168C173.422 549.082 171.731 548.462 170.399 547.331C169.067 546.201 168.181 544.634 167.898 542.91L157.898 482.29L249.998 482.25Z" stroke="#D4CEE4" stroke-width="5.02" stroke-miterlimit="10"/>
<path d="M260.351 475.47C260.2 477.316 259.361 479.039 257.999 480.295C256.638 481.551 254.853 482.249 253.001 482.25H155.101C153.267 482.251 151.498 481.568 150.141 480.334C148.784 479.101 147.935 477.406 147.761 475.58C147.662 474.557 147.778 473.524 148.102 472.548C148.426 471.573 148.95 470.675 149.641 469.914C150.333 469.153 151.175 468.546 152.116 468.13C153.056 467.714 154.073 467.499 155.101 467.5H253.001C254.02 467.499 255.027 467.71 255.961 468.119C256.894 468.527 257.732 469.125 258.423 469.874C259.114 470.623 259.642 471.507 259.974 472.47C260.305 473.433 260.434 474.455 260.351 475.47Z" stroke="#D4CEE4" stroke-width="5.02" stroke-miterlimit="10"/>
<path d="M207.11 467.5C207.11 464.4 215.02 425.65 208.46 391.29C204.87 372.45 196.92 354.93 180.93 345.29" stroke="#D4CEE4" stroke-width="5.02" stroke-miterlimit="10"/>
<path d="M208.461 391.29C208.461 391.29 210.271 365.2 232.841 363.39" stroke="#D4CEE4" stroke-width="5.02" stroke-miterlimit="10"/>
<path d="M210.859 431.12C210.859 431.12 219.299 424.33 232.859 424.78" stroke="#D4CEE4" stroke-width="5.02" stroke-miterlimit="10"/>
<path d="M210.859 412.59C210.859 412.59 194.469 393.18 168.289 408.53" stroke="#D4CEE4" stroke-width="5.02" stroke-miterlimit="10"/>
<path d="M199.329 404.78C199.329 404.78 162.429 371.06 155.199 416.65C155.199 416.65 165.579 423.42 180.929 416.65C196.279 409.88 199.329 404.78 199.329 404.78Z" stroke="#D4CEE4" stroke-width="5.02" stroke-miterlimit="10"/>
<path d="M216.578 371.34C216.578 371.34 215.238 356.17 232.838 351.2C250.438 346.23 260.368 367 260.368 367C260.368 367 246.808 382 216.578 371.34Z" stroke="#D4CEE4" stroke-width="5.02" stroke-miterlimit="10"/>
<path d="M220.65 424.76C220.65 424.76 220.05 409.42 240.51 412.59C260.97 415.76 264.29 433.2 264.29 433.2C264.29 433.2 230.77 445.5 220.65 426.37" stroke="#D4CEE4" stroke-width="5.02" stroke-miterlimit="10"/>
<path d="M195.999 359.52C195.999 360.61 180.609 358.15 179.629 357.86C172.169 355.64 166.878 350.47 163.398 343.64C162.328 341.53 156.119 329.64 157.879 327.58C157.879 327.58 194.489 315.81 195.999 359.52Z" stroke="#D4CEE4" stroke-width="5.02" stroke-miterlimit="10"/>
<path d="M198.11 146.3H210C239.069 146.302 266.946 157.852 287.5 178.407C308.053 198.963 319.6 226.841 319.6 255.91V449.85H88.5V255.91C88.5 226.839 100.048 198.96 120.604 178.404C141.16 157.848 169.04 146.3 198.11 146.3Z" stroke="#D4CEE4" stroke-width="5.02" stroke-miterlimit="10"/>
<path d="M222.041 404.78H221.961" stroke="#D4CEE4" stroke-width="5.02" stroke-miterlimit="10"/>
<path d="M160.338 404.78H122.828V272.63C122.827 261.962 124.927 251.398 129.009 241.541C133.09 231.685 139.073 222.729 146.616 215.185C154.159 207.641 163.115 201.657 172.97 197.574C182.826 193.491 193.39 191.39 204.058 191.39C225.604 191.39 246.268 199.949 261.503 215.184C276.739 230.42 285.298 251.083 285.298 272.63V404.78H212.228" stroke="#D4CEE4" stroke-width="5.02" stroke-miterlimit="10"/>
<path d="M460.322 802.88C460.322 790.005 457.785 777.255 452.855 765.361C447.926 753.466 440.701 742.66 431.594 733.559C422.486 724.458 411.674 717.24 399.776 712.32C387.878 707.399 375.127 704.871 362.252 704.88C361.472 704.88 360.592 704.88 359.782 704.95C334.398 705.596 310.257 716.07 292.443 734.164C274.629 752.258 264.533 776.56 264.282 801.95C263.752 856.41 309.982 900.95 364.432 900.95H759.502C761.132 900.95 762.712 900.88 764.302 900.74C796.172 898.34 821.682 871.91 821.612 839.48C821.612 817.53 815.862 789.65 802.732 755.31C802.132 753.72 801.502 752.1 800.862 750.48C753.862 631.69 820.702 515.69 820.702 515.69C822.852 512.2 824.972 508.69 827.052 505.11C830.682 498.86 834.252 492.58 837.672 486.23C848.537 466.207 858.084 445.496 866.252 424.23C878.11 392.985 885.386 360.189 887.852 326.86C889.048 310.921 889.095 294.916 887.992 278.97C887.252 268.463 886.018 258.077 884.292 247.81C876.292 201.06 857.402 157.4 826.692 123.24C808.054 102.448 785.359 85.691 760.002 74C744.102 66.617 727.405 61.088 710.242 57.52C693.869 53.968 676.881 54.41 660.715 58.808C644.548 63.207 629.679 71.432 617.362 82.79C600.812 98.03 589.732 117.62 576.812 135.72L576.572 136.08" stroke="#D4CEE4" stroke-width="5.02" stroke-miterlimit="10"/>
<path d="M359.781 704.92C359.561 701.99 359.531 646.02 359.531 643.02C359.531 559.77 432.081 492.3 521.531 492.3H764.411C785.934 492.265 807.241 496.585 827.051 505" stroke="#D4CEE4" stroke-width="5.02" stroke-miterlimit="10"/>
<path d="M376.819 900.87H151.059C146.5 900.889 142.069 899.365 138.486 896.548C134.902 893.73 132.376 889.784 131.319 885.35C127.669 869.71 117.769 842.52 93.119 795.77C92.349 794.32 91.589 792.88 90.779 791.39C77.929 767.27 61.259 738.14 39.7786 703C-48.0015 559.75 44.2886 432.24 88.479 383.66" stroke="#D4CEE4" stroke-width="5.02" stroke-miterlimit="10"/>
<path d="M802.729 755.24H448.109" stroke="#D4CEE4" stroke-width="5.02" stroke-miterlimit="10"/>
<path d="M319.602 254.3C319.602 254.3 387.192 289.59 459.932 254.3" stroke="#D4CEE4" stroke-width="5.02" stroke-miterlimit="10"/>
<path d="M719.589 360.26C719.579 360.286 719.579 360.314 719.589 360.34C719.509 359.75 719.429 359.17 719.309 358.58L719.589 360.26Z" fill="#333333"/>
<path d="M441.24 882L532.74 883.13C532.74 880.64 532.74 878.42 532.66 876.93C532.35 871.08 523.89 697.53 523.89 697.53C523.89 697.53 521.54 632.25 581.53 594.53C581.53 594.53 587.96 635.33 603.53 693.09C619.1 750.85 648.92 812.19 669 843.55C686.32 870.55 695.29 878.73 693.11 880.55H755.19L739.28 840.62C739.28 840.62 721.85 796.7 712.14 753.76C702.43 710.82 683.71 637.11 700.28 575.38C716.7 514.18 731.56 433.77 719.63 360.56C719.86 362.16 719.98 370.16 698.68 371.95C674.93 373.95 676.88 385.41 674.68 391.1C672.48 396.79 668.56 439.93 586.81 466.95L575 472.31C575 472.31 532.56 490.4 528.66 495.55C524.76 500.7 517.31 504.09 516.34 496.68C515.37 489.27 512.44 477.77 505.73 491.53C499.02 505.29 442.24 601.71 431.86 639.11C421.48 676.51 441.54 733.26 441.54 733.26L473.44 882.2C473.44 882.2 453.37 881.15 441.24 882Z" fill="#333333"/>
<path d="M513.199 478.74L451.379 594.74C431.649 631.74 425.639 659.01 434.459 700.08L473.459 882.21H437.709C436.514 882.21 435.329 882.446 434.225 882.904C433.12 883.362 432.116 884.033 431.271 884.879C430.426 885.725 429.756 886.73 429.299 887.835C428.843 888.94 428.608 890.124 428.609 891.32C428.608 892.516 428.843 893.7 429.299 894.804C429.756 895.909 430.427 896.913 431.272 897.758C432.117 898.603 433.121 899.273 434.225 899.73C435.33 900.187 436.514 900.422 437.709 900.42H533.909L523.909 711.74C522.942 693.131 525.504 674.507 531.459 656.85C540.089 631.26 558.159 609.92 581.519 596.38" stroke="black" stroke-width="5.02" stroke-miterlimit="10"/>
<path d="M500.47 87.29L453.32 169.8L494.92 195.8L523.35 102.2L511.29 86.55C510.637 85.699 509.783 85.022 508.804 84.58C507.825 84.139 506.753 83.946 505.682 84.019C504.611 84.092 503.575 84.429 502.665 85C501.756 85.571 501.002 86.358 500.47 87.29Z" stroke="black" stroke-width="5.02" stroke-miterlimit="10"/>
<path d="M461.068 176C461.068 176 434.778 277.7 524.998 429.4" stroke="black" stroke-width="5.02" stroke-miterlimit="10"/>
<path d="M471.201 557.52C466.321 565.79 462.421 571.52 460.471 572.42C454.271 575.42 457.191 557.09 459.381 547.77C460.15 546.203 460.702 544.537 461.021 542.82C461.021 541.61 460.281 543.95 459.381 547.77C456.934 553.441 454.132 558.952 450.991 564.27C446.471 571.91 441.051 579.56 436.061 583.27C433.521 585.18 431.061 586.04 428.961 585.42C416.171 581.6 431.611 552.66 436.061 544.9C436.761 543.65 437.191 542.95 437.191 542.95C442.572 535.357 447.198 527.255 451.001 518.76C455.739 508.231 459.628 497.339 462.631 486.19" stroke="black" stroke-width="5.02" stroke-miterlimit="10"/>
<path d="M472.559 434.05C478.259 386.59 476.189 339.51 473.149 313.73" stroke="black" stroke-width="5.02" stroke-miterlimit="10"/>
<path d="M480.48 454.48L475 465.17C475.08 465.17 475.12 465.09 475.19 465.17L480.48 454.48Z" fill="black"/>
<path d="M461.559 454L461.449 454.31C461.485 454.2 461.535 454.096 461.599 454H461.559Z" fill="black"/>
<path d="M523.34 102.2C530.24 105.75 536.91 109.46 543.34 113.2C548.02 115.93 552.58 118.7 557.02 121.47L559.25 122.87C770.59 256.87 728.16 469.63 700.25 575.36C669.05 693.68 763.16 900.36 763.16 900.36H661.4C658.936 900.362 656.568 899.409 654.792 897.7C653.017 895.992 651.973 893.662 651.88 891.2C651.83 889.927 652.037 888.657 652.486 887.465C652.936 886.273 653.62 885.183 654.499 884.26C655.377 883.337 656.431 882.6 657.599 882.091C658.768 881.583 660.026 881.314 661.3 881.3L693.5 880.94C647.59 817.21 608.5 727.12 592.06 647.8C587.22 624.44 583.87 617.46 581.53 596.32C576.939 554.679 575.791 512.73 578.1 470.9" stroke="black" stroke-width="5.02" stroke-miterlimit="10"/>
<path d="M498.85 90.14C490.463 86.24 481.797 82.46 472.85 78.8C472.85 78.8 481.43 46.2703 464 29.0703" stroke="black" stroke-width="5.02" stroke-miterlimit="10"/>
<path d="M356.608 66.8601C350.178 85.5801 350.368 106.76 351.268 124.93L374.668 122.93" stroke="black" stroke-width="5.02" stroke-miterlimit="10"/>
<path d="M374.672 123C374.672 123 374.832 170.52 420.822 162.65C426.435 161.79 431.834 159.873 436.732 157C458.872 143.45 457.062 110.86 446.162 90.9C442.882 84.9 422.262 51.3302 439.672 49.5902C459.172 47.5902 457.872 76.24 457.222 78.84H472.832" stroke="black" stroke-width="5.02" stroke-miterlimit="10"/>
<path d="M381.459 63H381.379" stroke="black" stroke-width="5.02" stroke-miterlimit="10"/>
<path d="M338.669 64.05C338.949 66.63 341.289 67.41 343.549 67.45H344.329C348.329 67.45 352.479 67.21 356.609 66.86C363.649 66.348 370.648 65.372 377.559 63.94C378.839 63.66 380.089 63.35 381.379 63.04C381.379 63.04 381.379 63.04 381.459 63.04C381.959 62.96 382.459 62.88 382.939 62.77C393.484 60.702 403.865 57.871 413.999 54.3C427.434 49.5 440.585 43.941 453.389 37.6502C454.389 37.1402 455.539 36.6002 456.589 36.0102C456.589 36.0102 456.589 35.9302 456.589 35.9002C458.769 31.3302 457.759 25.6002 454.719 21.5002C451.599 17.1002 446.599 14.3302 441.459 12.5702C429.989 8.63022 417.279 9.22022 405.579 12.5002C393.879 15.7802 383.169 21.7002 372.999 28.2502C365.599 32.919 358.547 38.1194 351.899 43.8102C349.899 45.8102 348.119 47.8102 346.329 49.8102C343.635 52.8123 341.376 56.179 339.619 59.81C338.969 61.127 338.643 62.581 338.669 64.05Z" fill="#9B8CC0"/>
<path d="M414.001 54.3C403.859 57.872 393.472 60.703 382.921 62.77C382.411 62.88 381.921 62.96 381.441 63.04H381.361C380.071 63.35 378.821 63.66 377.541 63.94C370.629 65.372 363.63 66.348 356.591 66.86C352.461 67.21 348.331 67.41 344.311 67.45H343.531C341.271 67.45 338.931 66.63 338.651 64.05C338.62 62.609 338.928 61.181 339.551 59.88C341.307 56.249 343.566 52.8824 346.261 49.8803C355.891 38.6103 367.791 29.4403 380.261 21.4503C390.501 14.8703 401.271 9.0003 413.001 5.6703C424.731 2.3403 437.371 1.8103 448.841 5.7503C453.991 7.5003 458.981 10.2703 462.141 14.6803C465.141 18.7703 466.141 24.5103 464.011 29.0703C463.892 29.3887 463.734 29.6911 463.541 29.9703C461.361 33.6703 457.301 35.7803 453.441 37.6503C440.62 43.9429 427.452 49.5018 414.001 54.3Z" stroke="black" stroke-width="5.02" stroke-miterlimit="10"/>
<path d="M413.998 54.3C414.628 64.04 414.138 80.8101 422.348 93.2101C425.215 97.2741 426.847 102.08 427.048 107.05C427.158 115.22 424.638 125.9 411.048 126.9C400.498 127.67 389.048 121.23 374.648 122.98C374.648 122.98 384.888 120.72 383.908 109.51" stroke="black" stroke-width="5.02" stroke-miterlimit="10"/>
<path d="M462.889 451.29C462.689 451.72 462.499 452.14 462.259 452.61L461.559 454.02L461.449 454.33L459.139 459.05C458.439 460.49 457.699 461.93 456.999 463.42C456.379 464.66 455.749 465.91 455.169 467.16C454.699 468.1 454.269 468.99 453.839 469.89L450.839 476.25C450.339 477.656 450.23 479.171 450.526 480.633C450.822 482.096 451.511 483.45 452.519 484.55C453.092 485.202 453.768 485.755 454.519 486.19C455.552 486.768 456.696 487.12 457.875 487.223C459.054 487.326 460.242 487.177 461.359 486.787C462.477 486.396 463.498 485.773 464.357 484.958C465.215 484.143 465.891 483.156 466.339 482.06L475.039 465.17L480.539 454.48L475.229 465.13L470.509 474.53C470.14 475.378 469.991 476.305 470.076 477.225C470.16 478.146 470.476 479.03 470.994 479.796C471.511 480.562 472.214 481.185 473.037 481.607C473.859 482.029 474.775 482.236 475.699 482.21C483.029 481.78 487.789 474.21 491.379 468.8C491.729 468.25 492.079 467.67 492.469 467.08C494.889 463.38 497.889 459.08 502.259 458.08C503.429 457.826 504.615 457.655 505.809 457.57C511.809 457.22 516.259 459.57 522.889 460.77C524.839 461.12 526.789 461.44 528.739 461.71" stroke="black" stroke-width="5.02" stroke-miterlimit="10"/>
<path d="M615.691 453.86L617.371 453.12C634.49 445.677 649.293 433.768 660.231 418.641C703.051 359.911 677.901 265.18 643.151 208.12C619.711 169.67 582.931 135.27 543.391 113.23" stroke="black" stroke-width="5.02" stroke-miterlimit="10"/>
<path d="M532.619 247.47L574.619 313.85C596.029 347.7 588.619 387.68 557.999 413.46C547.899 421.96 530.999 430.38 509.059 431.75C500.669 432.25 488.269 432.88 479.879 433.5C477.509 433.7 475.049 433.81 472.589 434.05C467.399 434.52 462.179 435.26 457.459 437.21C453.435 438.945 450.015 441.833 447.629 445.51C443.459 451.99 438.739 458.35 436.199 465.72C434.981 469.438 434.505 473.359 434.799 477.26C434.868 479.57 435.754 481.781 437.299 483.5C438.263 484.463 439.525 485.069 440.879 485.22C444.349 485.72 446.879 483.15 448.679 480.3C449.343 479.225 449.931 478.106 450.439 476.95C451.369 474.95 452.539 472.54 453.869 469.89C454.299 468.99 454.729 468.1 455.199 467.16C455.779 465.91 456.409 464.66 457.029 463.42C457.729 461.93 458.469 460.49 459.169 459.05C459.989 457.41 460.769 455.81 461.479 454.33C461.515 454.22 461.565 454.116 461.629 454.02C461.869 453.51 462.099 453.02 462.289 452.61C462.479 452.2 462.719 451.72 462.919 451.29V451.21C463.149 450.74 463.389 450.27 463.579 449.84" stroke="black" stroke-width="5.02" stroke-miterlimit="10"/>
<path d="M451.73 137.3L460.12 157.93" stroke="black" stroke-width="5.02" stroke-miterlimit="10"/>
<path d="M509 431.75C509 431.75 534.54 451.25 532.59 491.55L617.34 453.12" stroke="black" stroke-width="5.02" stroke-miterlimit="10"/>
<path d="M532.62 491.55C532.62 491.55 525.31 503.09 518.97 491.55C512.63 480.01 505.75 457.6 505.75 457.6" stroke="black" stroke-width="5.02" stroke-miterlimit="10"/>
<path d="M678.781 377.36L718.671 366.52" stroke="black" stroke-width="5.02" stroke-miterlimit="10"/>
<path d="M488.332 525.4C488.332 525.4 471.122 503.2 457.512 506.47" stroke="black" stroke-width="5.02" stroke-miterlimit="10"/>
<path d="M492.41 467.08C497.608 469.304 502.043 473 505.168 477.711C508.293 482.423 509.973 487.946 510 493.6V499C510 500.989 510.79 502.896 512.197 504.303C513.603 505.709 515.511 506.5 517.5 506.5C519.489 506.5 521.397 505.709 522.803 504.303C524.21 502.896 525 500.989 525 499V493.6C524.971 486.486 523.203 479.488 519.852 473.214C516.5 466.939 511.666 461.579 505.77 457.6C504.576 457.685 503.39 457.855 502.22 458.11C497.83 459.09 494.83 463.38 492.41 467.08Z" fill="#9B8CC0"/>
<path d="M433.68 476.68C433.52 480.18 433.769 483.687 434.42 487.13L513.12 903H529.05L449.05 484.36C448.775 483.023 448.631 481.664 448.62 480.3C446.83 483.15 444.29 485.72 440.82 485.22C439.466 485.069 438.203 484.463 437.24 483.5C435.694 481.781 434.809 479.57 434.74 477.26C434.369 477.101 434.014 476.906 433.68 476.68Z" fill="#9B8CC0"/>
<path d="M492.41 467.08C497.608 469.304 502.043 473 505.168 477.711C508.293 482.423 509.973 487.946 510 493.6V499C510 500.989 510.79 502.896 512.197 504.303C513.603 505.709 515.511 506.5 517.5 506.5C519.489 506.5 521.397 505.709 522.803 504.303C524.21 502.896 525 500.989 525 499V493.6C524.971 486.486 523.203 479.488 519.852 473.214C516.5 466.939 511.666 461.579 505.77 457.6C504.576 457.685 503.39 457.855 502.22 458.11C497.83 459.09 494.83 463.38 492.41 467.08Z" stroke="black" stroke-width="5.02" stroke-miterlimit="10"/>
<path d="M433.68 476.68C433.52 480.18 433.769 483.687 434.42 487.13L512.72 900.88L528.55 900.41L449.08 484.41C448.805 483.073 448.661 481.714 448.65 480.35C446.86 483.2 444.32 485.77 440.85 485.27C439.496 485.119 438.233 484.513 437.27 483.55C435.724 481.831 434.839 479.62 434.77 477.31C434.386 477.136 434.021 476.925 433.68 476.68Z" stroke="black" stroke-width="5.02" stroke-miterlimit="10"/>
<path d="M763.229 900.41H222.559" stroke="black" stroke-width="5.02" stroke-miterlimit="10"/>
<path d="M364.41 79.8399C364.41 79.8399 377.41 74.0999 385.56 81.1099" stroke="black" stroke-width="4.66" stroke-miterlimit="10"/>
<path d="M372.626 93.3691C374.659 92.9761 376.043 91.2871 375.717 89.5951C375.391 87.9031 373.477 86.8491 371.444 87.2421C369.41 87.6341 368.026 89.3241 368.353 91.0161C368.679 92.7081 370.592 93.7611 372.626 93.3691Z" fill="black"/>
</svg>
