<svg viewBox="0 0 903 575" fill="none" xmlns="http://www.w3.org/2000/svg">
<path d="M855.998 571.66H570.768H590.528L770.928 569.57C804.278 566.67 827.778 533.96 815.108 502.99C812.918 497.64 815.208 496.15 812.498 490.99C784.138 437.59 734.968 394.09 679.248 368.82C680.628 368.56 682.018 368.37 683.438 368.18C673.062 362.984 662.375 358.432 651.438 354.55C645.638 352.48 639.768 350.61 633.908 348.97C605.098 340.85 566.168 344.56 553.908 376.46C543.598 403.24 557.288 435.59 583.038 447.32L629.288 465C628.898 464.42 628.548 463.84 628.188 463.23L668.408 478.6C669.207 479.159 669.815 479.949 670.152 480.863C670.489 481.778 670.538 482.773 670.293 483.716C670.048 484.66 669.521 485.506 668.782 486.141C668.043 486.776 667.128 487.17 666.158 487.27L568.478 497.94C554.398 499.36 536.768 505.25 526.388 514.94C518.818 521.94 512.438 531.47 512.498 543.53C506.114 544.011 499.768 544.903 493.498 546.2C483.928 548.26 474.188 551.81 473.498 557.64C472.138 569.34 488.768 571.72 499.248 571.72L432.928 571.46C440.048 571.46 440.928 571.4 445.648 566.7C450.368 562 455.648 558.38 455.648 551.26L456.228 528.44C456.228 523.74 457.348 519.94 452.648 519.94H410.648C412.358 519.987 414.046 519.54 415.509 518.653C416.972 517.767 418.148 516.478 418.898 514.94C418.931 514.904 418.952 514.859 418.958 514.81C421.058 510.91 421.538 505.3 421.148 499.99L421.638 498.25L422.898 493.61L449.578 477.91C449.778 477.794 449.972 477.667 450.158 477.53C464.078 469.02 465.818 453.81 461.048 440.21C460.948 439.95 460.888 439.72 460.788 439.5C460.568 438.92 460.368 438.37 460.118 437.82C458.845 434.719 457.267 431.751 455.408 428.96C448.518 418.2 438.518 409.43 429.018 407.14C426.354 406.538 423.63 406.236 420.898 406.24C453.958 375.24 492.048 347.69 537.038 338.53C576.402 330.398 617.112 331.459 655.998 341.63C701.438 353.72 742.358 378.82 774.808 412.72C818.488 458.29 838.918 511.53 855.998 571.66Z" fill="#333333"/>
<path d="M411.599 434.65C410.031 437.738 407.465 440.204 404.319 441.65C401.632 443.001 398.787 444.009 395.849 444.65C391.009 445.46 389.299 442.4 386.209 439.4C384.448 437.698 382.421 436.293 380.209 435.24C378.883 434.589 377.43 434.24 375.954 434.218C374.477 434.195 373.014 434.5 371.669 435.11C370.759 435.516 369.985 436.177 369.442 437.012C368.899 437.848 368.61 438.824 368.609 439.82C368.809 443.49 373.869 446.39 376.729 447.91C380.463 449.674 384.344 451.106 388.329 452.19C398.099 455.19 381.829 461.44 378.409 461.83C371.094 462.821 363.669 462.645 356.409 461.31C358.494 465.967 360.092 470.826 361.179 475.81C362.309 480.58 363.629 486.32 362.699 491.12C361.569 496.76 357.759 500.95 353.059 503.79L334.789 427.57C341.526 424.361 348.853 422.579 356.311 422.334C363.769 422.09 371.197 423.389 378.129 426.15C380.441 427.003 382.949 427.173 385.354 426.641C387.76 426.109 389.962 424.898 391.699 423.15L393.569 421.34C396.173 420.774 398.887 420.989 401.369 421.96C405.799 423.63 413.999 429 411.599 434.65Z" fill="#9B8CC0"/>
<path d="M430.361 519.88H354.921C354.158 526.996 350.791 533.579 345.467 538.362C340.143 543.146 333.238 545.791 326.081 545.79H72.4609C72.4769 552.649 75.2089 559.222 80.0589 564.072C84.9089 568.922 91.4819 571.654 98.3409 571.67H430.341C437.2 571.646 443.772 568.913 448.625 564.065C453.478 559.218 456.219 552.649 456.251 545.79V528.39C456.251 526.133 455.354 523.968 453.758 522.372C452.162 520.776 449.998 519.88 447.741 519.88H430.361Z" stroke="black" stroke-width="4.83" stroke-miterlimit="10"/>
<path d="M313.859 350.7C316.087 353.77 317.688 357.25 318.569 360.94L354.309 509.94C355.098 513.174 355.305 516.524 354.919 519.83C354.156 526.947 350.789 533.53 345.465 538.313C340.141 543.096 333.236 545.741 326.079 545.74H67.749C61.226 545.736 54.895 543.537 49.7742 539.498C44.6534 535.458 41.041 529.812 39.5187 523.47L3.81869 374.47C2.78759 370.202 2.73919 365.755 3.67719 361.465C4.61519 357.176 6.51499 353.155 9.23349 349.707C11.952 346.258 15.4181 343.472 19.3703 341.559C23.3225 339.645 27.6577 338.654 32.0487 338.66H290.339C294.582 338.654 298.774 339.584 302.616 341.383C306.459 343.182 309.857 345.807 312.569 349.07L313.859 350.7Z" stroke="black" stroke-width="4.83" stroke-miterlimit="10"/>
<path d="M188.531 483.053C203.243 478.414 210.943 461.251 205.729 444.717C200.516 428.183 184.364 418.54 169.653 423.178C154.942 427.817 147.242 444.98 152.455 461.514C157.668 478.048 173.82 487.691 188.531 483.053Z" fill="#D4CEE4"/>
<path d="M684.851 367.31C662.061 371.12 644.541 381.54 632.781 403.11C622.251 422.41 621.021 445.96 632.251 465.11L586.401 447.53C559.851 435.37 550.511 408.35 561.151 380.6C573.801 347.54 613.941 343.7 643.651 352.12C649.701 353.82 655.741 355.76 661.721 357.9C669.534 360.7 677.244 363.837 684.851 367.31Z" fill="#333333"/>
<path d="M150.879 338.68C169.069 315.175 194.152 297.945 222.619 289.4C218.827 279.215 215.818 268.754 213.619 258.11C189.999 143.23 263.869 30.9199 378.719 7.22985C493.569 -16.4601 605.919 57.3798 629.599 172.23C632.246 185.1 633.719 198.184 633.999 211.32C642.204 208.409 650.601 206.07 659.129 204.32C759.499 183.57 857.699 248.15 878.419 348.54C884.267 376.767 883.449 405.969 876.032 433.824C868.614 461.679 854.8 487.42 835.689 509" stroke="#9F9F9F" stroke-width="4.83" stroke-miterlimit="10"/>
<path d="M401.23 519.89H408.32C410.359 519.939 412.381 519.512 414.226 518.645C416.071 517.777 417.689 516.491 418.95 514.89C418.983 514.852 419.007 514.808 419.02 514.76C421.563 511.282 422.722 506.984 422.27 502.7L421.69 498.19L421.21 494.55L422.95 493.55L450.21 477.469L452.05 476.41C465.36 468.58 466.32 453.98 461.1 440.15C461.01 439.9 460.94 439.67 460.85 439.44C460.62 438.86 460.39 438.32 460.17 437.77C458.835 434.697 457.26 431.735 455.46 428.909C448.57 418.139 438.58 409.38 429.07 407.09C426.407 406.482 423.683 406.18 420.95 406.19C415.25 406.19 408.95 407.28 405.64 410.57C441 375.78 482.31 343.13 532 333C571.382 324.881 612.106 325.962 651 336.159C696.44 348.249 737.4 373.38 769.85 407.28C771.56 409.06 773.23 410.86 774.85 412.7C815.52 457.4 841.46 513.86 857.85 571.64" stroke="black" stroke-width="4.83" stroke-miterlimit="10"/>
<path d="M413.699 571.67H902.999" stroke="black" stroke-width="4.83" stroke-miterlimit="10"/>
<path d="M536.879 571.66H592.399" stroke="black" stroke-width="3.22" stroke-miterlimit="10"/>
<path d="M583.291 447.06C557.531 435.33 543.851 402.98 554.151 376.21C566.431 344.3 605.361 340.59 634.151 348.71C640.031 350.357 645.874 352.217 651.681 354.29C716.411 377.29 775.231 425.04 807.351 485.54C810.061 490.66 812.221 495.92 814.411 501.28C817.363 508.481 818.581 516.275 817.965 524.033C817.349 531.792 814.918 539.296 810.867 545.941C806.816 552.586 801.259 558.185 794.644 562.287C788.03 566.388 780.544 568.876 772.791 569.55L592.401 571.66H536.881C531.976 571.661 527.194 570.126 523.205 567.271C519.216 564.416 516.222 560.384 514.641 555.74C508.551 537.74 516.421 524.16 526.371 514.91C536.751 505.27 550.291 499.76 564.371 498.34L665.711 488.1C666.681 488.001 667.598 487.607 668.339 486.972C669.08 486.337 669.609 485.491 669.855 484.547C670.102 483.604 670.055 482.607 669.72 481.691C669.385 480.775 668.778 479.982 667.981 479.42L583.291 447.06Z" stroke="black" stroke-width="4.83" stroke-miterlimit="10"/>
<path d="M553.079 518C543.829 523.32 534.319 531.65 531.139 542.2C527.479 554.35 536.069 565.39 545.829 571.71" stroke="black" stroke-width="4.83" stroke-miterlimit="10"/>
<path d="M563.001 531.94C554.371 540.15 546.891 550.56 551.881 562.94C553.308 566.337 555.53 569.342 558.361 571.7" stroke="black" stroke-width="4.83" stroke-miterlimit="10"/>
<path d="M579.93 548C579.93 548 560.06 562.77 572.68 571.63" stroke="black" stroke-width="4.83" stroke-miterlimit="10"/>
<path d="M528.93 570.25L529.28 571.67H497.22C486.74 571.67 472.22 570.06 473.59 558.36C474.96 546.66 512.49 543.47 512.49 543.47" stroke="black" stroke-width="4.83" stroke-miterlimit="10"/>
<path d="M471.421 202.34L403.191 212.55L415.081 220.93L437.321 238.74C440.801 241.19 439.931 246.97 441.861 250.48C442.594 255.778 441.762 261.174 439.466 266.005C437.171 270.835 433.513 274.889 428.943 277.667C424.373 280.446 419.091 281.827 413.746 281.641C408.401 281.454 403.227 279.709 398.861 276.62L345.211 238.88C339.289 234.791 334.536 229.228 331.421 222.74C327.031 200.89 340.501 176.59 366.421 172.74L441.001 161.54L430.001 153L396.131 126.64C393.23 124.394 390.809 121.588 389.011 118.39C388.258 112.976 389.139 107.459 391.542 102.549C393.944 97.6388 397.759 93.5578 402.496 90.8298C407.233 88.1018 412.677 86.8508 418.13 87.2378C423.583 87.6238 428.796 89.6308 433.101 92.9998L493.521 140C498.462 143.795 502.457 148.682 505.191 154.28C509.311 175.4 496.131 198.63 471.421 202.34Z" fill="#9B8CC0"/>
<path d="M421.22 494.54C421.22 494.54 419.14 476.24 412.09 469.79" stroke="black" stroke-width="4.83" stroke-miterlimit="10"/>
<path d="M334.09 428.85C340.897 425.506 348.331 423.627 355.91 423.334C363.488 423.041 371.045 424.341 378.09 427.15C380.404 428.004 382.916 428.175 385.325 427.643C387.734 427.111 389.94 425.899 391.68 424.15L405.61 410.51" stroke="black" stroke-width="4.83" stroke-miterlimit="10"/>
<path d="M378.371 506.59L390.001 511.82C390.26 511.927 390.538 511.978 390.818 511.971C391.098 511.963 391.373 511.897 391.626 511.776C391.878 511.656 392.103 511.483 392.285 511.27C392.466 511.057 392.601 510.809 392.681 510.54L394.511 506.4" stroke="black" stroke-width="4.83" stroke-miterlimit="10"/>
<path d="M380.271 483.49C381.246 485.728 381.584 488.19 381.249 490.608C380.914 493.025 379.918 495.303 378.371 497.19" stroke="black" stroke-width="3.22" stroke-miterlimit="10"/>
<path d="M406.65 519.88C408.48 517.17 408.47 510.62 408 507.99C407.7 506.32 404.89 505.72 404.59 507.4C403.77 512.09 398.48 519.3 393.59 519.88" stroke="black" stroke-width="4.83" stroke-miterlimit="10"/>
<path d="M383.168 502.2C391.414 502.2 398.098 495.515 398.098 487.27C398.098 479.024 391.414 472.34 383.168 472.34C374.923 472.34 368.238 479.024 368.238 487.27C368.238 495.515 374.923 502.2 383.168 502.2Z" stroke="black" stroke-width="4.83" stroke-miterlimit="10"/>
<path d="M378.171 501.33L375.511 508.81C373.664 508.152 371.706 507.864 369.747 507.963C367.789 508.062 365.87 508.546 364.098 509.387C362.327 510.229 360.739 511.411 359.426 512.866C358.112 514.322 357.098 516.022 356.441 517.87" stroke="black" stroke-width="4.83" stroke-miterlimit="10"/>
<path opacity="0.53" d="M383.171 499.91C390.152 499.91 395.811 494.251 395.811 487.27C395.811 480.289 390.152 474.63 383.171 474.63C376.19 474.63 370.531 480.289 370.531 487.27C370.531 494.251 376.19 499.91 383.171 499.91Z" fill="white"/>
<path d="M353 504.77C357.7 501.93 361.5 497.77 362.63 492.11C363.57 487.3 362.25 481.57 361.12 476.8C360.034 471.815 358.436 466.956 356.35 462.3C363.61 463.632 371.036 463.804 378.35 462.81C381.76 462.43 398.04 456.21 388.27 453.18C384.286 452.099 380.408 450.663 376.68 448.89C373.8 447.4 368.75 444.5 368.57 440.82C368.558 439.826 368.835 438.849 369.367 438.009C369.9 437.17 370.665 436.503 371.57 436.09C372.916 435.483 374.38 435.181 375.857 435.207C377.333 435.233 378.786 435.586 380.11 436.24C382.328 437.283 384.356 438.689 386.11 440.4C389.21 443.4 390.9 446.4 395.76 445.63C398.694 444.998 401.534 443.989 404.21 442.63C407.363 441.187 409.936 438.72 411.51 435.63C413.93 430 405.71 424.63 401.25 423.02C398.772 422.047 396.063 421.824 393.46 422.38" stroke="black" stroke-width="4.83" stroke-miterlimit="10"/>
<path d="M471.422 202.34L403.192 212.55L415.082 220.93L430.462 231.73C433.481 233.775 436.062 236.401 438.055 239.454C440.049 242.507 441.413 245.927 442.07 249.513C442.727 253.1 442.663 256.781 441.881 260.343C441.1 263.904 439.616 267.274 437.518 270.256C435.42 273.238 432.748 275.772 429.66 277.71C426.571 279.648 423.127 280.951 419.53 281.544C415.932 282.136 412.252 282.006 408.705 281.161C405.158 280.315 401.816 278.772 398.872 276.62L345.222 238.88C339.299 234.791 334.546 229.228 331.432 222.74C320.022 199.05 333.362 167.5 363.172 163.05L422.342 154.19L430.002 153L396.132 126.64C393.288 124.427 390.908 121.675 389.128 118.542C387.348 115.409 386.202 111.955 385.756 108.379C385.31 104.803 385.573 101.175 386.53 97.6998C387.487 94.2258 389.118 90.9738 391.332 88.1298C393.545 85.2868 396.297 82.9068 399.43 81.1258C402.564 79.3458 406.017 78.1998 409.593 77.7548C413.169 77.3088 416.797 77.5718 420.272 78.5288C423.746 79.4848 426.998 81.1168 429.842 83.3298L490.262 130.33C497.995 136.212 503.295 144.733 505.152 154.27C509.312 175.4 496.132 198.63 471.422 202.34Z" stroke="black" stroke-width="4.83" stroke-miterlimit="10"/>
<path d="M321.659 318.33L320.999 300.9L313.269 308.82C311.957 310.16 310.168 310.925 308.294 310.948C306.419 310.97 304.612 310.248 303.269 308.94C301.929 307.629 301.164 305.839 301.141 303.965C301.119 302.09 301.841 300.283 303.149 298.94L316.999 284.8C318.426 283.339 320.25 282.329 322.246 281.895C324.241 281.461 326.32 281.621 328.226 282.357C330.131 283.092 331.778 284.37 332.965 286.033C334.151 287.695 334.823 289.669 334.899 291.71L335.549 309.49L341.249 303.06C341.865 302.362 342.613 301.793 343.449 301.386C344.286 300.978 345.195 300.739 346.124 300.683C347.053 300.627 347.984 300.756 348.864 301.061C349.743 301.366 350.554 301.841 351.249 302.46C351.946 303.076 352.515 303.824 352.923 304.66C353.331 305.496 353.57 306.405 353.627 307.334C353.683 308.262 353.556 309.193 353.253 310.073C352.95 310.952 352.476 311.764 351.859 312.46L340.629 325.13C339.196 326.765 337.304 327.931 335.2 328.476C333.095 329.022 330.875 328.921 328.829 328.187C326.783 327.454 325.004 326.121 323.725 324.363C322.447 322.605 321.726 320.503 321.659 318.33Z" fill="#D4CEE4"/>
<path d="M379.602 349.77L387.832 347.93L383.382 344.93C382.628 344.421 382.106 343.635 381.93 342.744C381.754 341.852 381.938 340.926 382.442 340.17C382.95 339.415 383.737 338.893 384.629 338.719C385.522 338.545 386.447 338.732 387.202 339.24L395.142 344.55C395.965 345.099 396.608 345.878 396.992 346.79C397.376 347.702 397.484 348.707 397.302 349.679C397.119 350.652 396.656 351.549 395.968 352.261C395.28 352.972 394.398 353.465 393.432 353.68L385.002 355.58L388.572 357.73C388.957 357.962 389.293 358.268 389.559 358.63C389.826 358.991 390.019 359.402 390.127 359.839C390.234 360.276 390.255 360.729 390.187 361.174C390.119 361.618 389.965 362.045 389.732 362.43C389.263 363.207 388.505 363.767 387.624 363.986C386.743 364.205 385.811 364.066 385.032 363.6L378.032 359.37C377.132 358.832 376.414 358.035 375.972 357.084C375.53 356.133 375.384 355.071 375.553 354.036C375.722 353.001 376.199 352.04 376.921 351.28C377.643 350.519 378.577 349.993 379.602 349.77Z" fill="#D4CEE4"/>
<path d="M358.792 397.84L359.462 392.34L356.632 394.44C356.395 394.617 356.125 394.745 355.838 394.817C355.552 394.89 355.254 394.905 354.961 394.863C354.669 394.82 354.387 394.72 354.133 394.568C353.88 394.417 353.658 394.217 353.482 393.98C353.127 393.5 352.977 392.9 353.063 392.31C353.149 391.72 353.465 391.188 353.942 390.83L358.942 387.08C359.462 386.692 360.086 386.465 360.734 386.427C361.383 386.39 362.028 386.544 362.59 386.869C363.152 387.195 363.606 387.679 363.896 388.26C364.186 388.841 364.299 389.495 364.222 390.14L363.542 395.76L365.652 394.02C365.88 393.832 366.143 393.691 366.426 393.604C366.709 393.518 367.006 393.489 367.301 393.517C367.595 393.546 367.881 393.633 368.142 393.772C368.403 393.912 368.634 394.101 368.822 394.33C369.01 394.558 369.151 394.821 369.237 395.104C369.323 395.387 369.353 395.685 369.324 395.979C369.295 396.274 369.209 396.559 369.069 396.82C368.93 397.081 368.74 397.312 368.512 397.5L364.352 400.92C363.819 401.343 363.173 401.6 362.495 401.656C361.817 401.713 361.138 401.567 360.543 401.237C359.947 400.908 359.463 400.409 359.152 399.804C358.84 399.199 358.715 398.516 358.792 397.84Z" fill="#D4CEE4"/>
<path d="M684.85 368L684.43 368.71C684.111 368.51 683.776 368.337 683.43 368.19L684.85 368Z" fill="#333333"/>
</svg>