<svg width="906" height="435" viewBox="0 0 906 435" fill="none" xmlns="http://www.w3.org/2000/svg">
<path d="M53.9991 431.85C3.78947 385.48 -20.3905 306.16 33.7995 252.85C47.2095 239.67 63.4391 229.85 80.7991 222.85C81.4891 222.6 82.1691 222.32 82.8591 222.07" stroke="#D4CEE4" stroke-width="4.23" stroke-miterlimit="10"/>
<path d="M375 38.4502C425.46 42.7502 444.72 65.6002 468.87 95.6402C470.87 98.1302 472.8 100.64 474.7 103.15C496.3 131.64 512.47 176.52 556.14 170.94C590.26 166.57 619.47 145.01 650.04 131.05C700.43 108.05 761.04 85.3302 815.21 109.7C873.27 135.81 901.88 207 903 267.05C904.09 327.42 878.47 404.61 819.72 431.85" stroke="#D4CEE4" stroke-width="4.23" stroke-miterlimit="10"/>
<path d="M409.651 156.41C408.971 183.31 399.917 209.328 383.751 230.84C383.714 230.874 383.684 230.914 383.661 230.96C382.131 232.61 380.571 234.26 378.981 235.85C366.289 248.592 351.203 258.699 334.59 265.59C317.978 272.48 300.166 276.018 282.181 276H281.811C261.051 276 240.301 276.07 219.571 276.07C203.211 276.07 186.661 277.07 170.461 274.7C165.251 273.95 160.331 272.3 155.001 272.54C134.681 273.48 120.721 292.71 111.091 308.26C110.965 308.462 110.794 308.633 110.591 308.76C110.519 308.582 110.485 308.391 110.491 308.2C111.771 284.76 106.691 260.52 95.0008 240.1C94.7908 239.7 94.5708 239.32 94.3508 238.95C87.8408 227.95 79.1708 218.5 73.5908 206.95C63.9348 186.871 59.5998 164.647 61.0048 142.411C62.4088 120.175 69.5048 98.6731 81.6108 79.9681C93.7168 61.2641 110.427 45.9851 130.138 35.5971C149.849 25.2101 171.899 20.0631 194.171 20.6501L283.271 23.0501C317.714 23.9791 350.377 38.5501 374.077 63.5591C397.777 88.5681 410.573 121.967 409.651 156.41Z" fill="#9B8CC0"/>
<path d="M419.061 139.09C419.11 173 406.521 205.712 383.751 230.84C383.714 230.874 383.683 230.915 383.661 230.96C382.131 232.61 380.571 234.26 378.981 235.85C366.289 248.592 351.202 258.699 334.59 265.59C317.977 272.48 300.166 276.018 282.181 276H281.811C261.051 276 240.301 276.07 219.571 276.07C203.211 276.07 186.661 277.07 170.461 274.7C165.251 273.95 160.331 272.3 155.001 272.54C134.681 273.48 120.721 292.71 111.091 308.26C110.964 308.462 110.793 308.633 110.591 308.76C110.362 308.903 110.098 308.981 109.828 308.987C109.558 308.992 109.292 308.923 109.058 308.789C108.824 308.654 108.631 308.459 108.499 308.223C108.367 307.987 108.302 307.72 108.311 307.45C109.001 282.7 102.951 257.34 90.051 236.14C89.831 235.74 89.581 235.33 89.331 234.96C82.161 223.58 72.781 213.86 66.581 201.86C55.814 180.99 50.5968 157.701 51.4299 134.233C52.2631 110.764 59.119 87.9042 71.338 67.8502C83.557 47.7962 100.73 31.2222 121.204 19.7222C141.679 8.22117 164.767 2.18018 188.251 2.18018H282.181C300.158 2.18118 317.96 5.72316 334.568 12.6052C351.176 19.4862 366.267 29.5712 378.977 42.2842C391.688 54.9982 401.77 70.0902 408.648 86.7002C415.525 103.31 419.064 121.112 419.061 139.09Z" stroke="black" stroke-width="4.23" stroke-miterlimit="10"/>
<path d="M336.759 66.23H258.999C245.865 66.23 235.219 76.877 235.219 90.01V195.05C235.219 208.184 245.865 218.831 258.999 218.831H336.759C349.892 218.831 360.539 208.184 360.539 195.05V90.01C360.539 76.877 349.892 66.23 336.759 66.23Z" fill="#B8ADD2"/>
<path d="M298.581 108.57C303.905 108.57 308.221 104.254 308.221 98.9301C308.221 93.6061 303.905 89.29 298.581 89.29C293.257 89.29 288.941 93.6061 288.941 98.9301C288.941 104.254 293.257 108.57 298.581 108.57Z" fill="white"/>
<path d="M271.648 142.53C271.648 135.387 274.486 128.538 279.536 123.487C284.586 118.437 291.436 115.6 298.578 115.6C305.721 115.6 312.57 118.437 317.621 123.487C322.671 128.538 325.508 135.387 325.508 142.53H271.648Z" fill="white"/>
<path d="M321.668 165.52H274.078C267.313 165.52 261.828 171.004 261.828 177.77V183.78C261.828 190.545 267.313 196.03 274.078 196.03H321.668C328.434 196.03 333.918 190.545 333.918 183.78V177.77C333.918 171.004 328.434 165.52 321.668 165.52Z" fill="#9B8CC0"/>
<path d="M196.139 114.9H120.449" stroke="white" stroke-width="4.23" stroke-linecap="round" stroke-linejoin="round"/>
<path d="M196.139 132.6H120.449" stroke="white" stroke-width="4.23" stroke-linecap="round" stroke-linejoin="round"/>
<path d="M196.139 148.4H120.449" stroke="white" stroke-width="4.23" stroke-linecap="round" stroke-linejoin="round"/>
<path d="M196.139 166.1H120.449" stroke="white" stroke-width="4.23" stroke-linecap="round" stroke-linejoin="round"/>
<path d="M196.139 99.1001H120.449" stroke="white" stroke-width="4.23" stroke-linecap="round" stroke-linejoin="round"/>
<path d="M196.139 181.91H120.449" stroke="white" stroke-width="4.23" stroke-linecap="round" stroke-linejoin="round"/>
<path d="M217.289 296.78C217.289 296.78 182.239 293.39 186.029 257.78C189.819 222.17 196.709 223.78 228.189 208.97C228.189 208.97 253.899 208.85 261.069 216.56C268.239 224.27 272.399 209 272.399 209C272.399 209 305.899 166.86 347.719 175.72C389.539 184.58 315.079 218.12 315.079 218.12C315.079 218.12 267.029 218.78 279.459 236.61C279.459 236.61 286.689 250.02 282.529 261.19C278.369 272.36 278.419 290.28 275.669 290.8C272.919 291.32 231.889 300.26 231.889 300.26L217.289 296.78Z" fill="white"/>
<path d="M544.788 431.86H447.428C431.304 431.884 415.333 428.729 400.429 422.576C385.524 416.423 371.979 407.392 360.568 396C360.56 398.376 360.308 400.745 359.818 403.07V338.21C327.818 300.84 290.538 319.85 285.528 322.66C283.308 301.43 281.348 284.66 281.348 284.66C281.348 284.66 275.958 239.12 318.158 222.45C318.498 222.3 318.838 222.17 319.158 222.05C338.908 214.6 356.798 218.28 371.728 225.6C371.978 225.75 372.228 225.85 372.478 226C388.248 233.92 400.618 245.83 408.258 252.78C409.068 253.49 409.818 254.18 410.528 254.78C418.388 261.64 438.888 281.9 461.918 298.23L462.298 298.51C479.218 310.44 497.478 320.26 513.068 321.1C513.098 321.16 552.578 360.87 544.788 431.86Z" fill="#333333"/>
<path d="M536.81 315.3C527.74 318.89 519.95 320.91 512.38 321.16C508.42 321.29 504.46 320.9 500.6 320C489.25 317.51 477.35 310.65 461.6 298.53L461.23 298.25C447.64 287.84 431.23 273.53 409.83 254.8C409.12 254.18 408.37 253.49 407.56 252.8C405.47 250.99 403.32 249.12 401.14 247.19C392.122 239.111 382.274 232.008 371.76 226C371.51 225.85 371.26 225.75 371.01 225.6C370.01 225.01 368.96 224.48 367.93 223.95C365.615 222.756 363.219 221.723 360.76 220.86C354.736 218.706 348.398 217.561 342 217.47L338.07 217.57C287.4 219.06 276.24 230.84 276.24 230.84C281.395 237.872 284.559 246.163 285.4 254.84C281.22 254.16 277.05 255.46 276.33 260.08C275.46 265.75 274.15 270.95 268.88 274.29C265.668 276.168 261.87 276.777 258.23 276C258.23 276 258.16 276 258.13 276C257.07 275.69 256.04 275.44 255.13 275.25C254.726 275.155 254.328 275.031 253.94 274.88C243.32 271.01 237.12 272.51 239.14 283.88C241.51 297.25 224.06 299 212.56 296.94C192.27 287.81 186.72 252.19 202.8 230.25C203.21 229.69 203.67 229.1 204.14 228.5C204.61 227.9 205.14 227.35 205.61 226.79C206.811 225.487 208.09 224.258 209.44 223.11C209.91 222.71 210.38 222.3 210.87 221.93C211.36 221.56 212.06 221.02 212.65 220.59C213.225 220.133 213.83 219.716 214.46 219.34C219.902 215.761 226.015 213.326 232.428 212.184C238.84 211.043 245.418 211.218 251.76 212.7C256.876 214.518 261.679 217.115 266 220.4C266 220.4 266.4 219.78 267.21 218.66C269.092 219.773 270.902 221.002 272.63 222.34C272.63 222.34 303.08 175.9 347.24 176.43C350.799 176.461 354.343 176.88 357.81 177.68C392.25 189.86 415.62 233.74 436.69 240.47C438.288 240.979 439.91 241.406 441.55 241.75C457.85 245.24 476.08 241.44 492.26 240.41C502.92 239.73 513.86 239.98 524.17 242.84C525.45 243.19 526.76 243.62 528.04 244.09H528.1C542.5 249.26 556.68 260.73 560.2 275.97C564.15 292.86 551.3 308.66 536.81 315.3Z" fill="#9B8CC0"/>
<path d="M839.059 178C838.623 179.776 837.789 181.431 836.622 182.839C835.455 184.247 833.984 185.372 832.319 186.13L804.269 199.5L741.789 222.41L747.789 201.56C749.652 198.829 752.308 196.735 755.399 195.56L809.669 174.77L822.999 169.57C825.647 168.606 828.547 168.584 831.208 169.51C833.87 170.435 836.131 172.251 837.609 174.65C838.262 175.686 838.751 176.816 839.059 178Z" fill="#9B8CC0"/>
<path d="M809.7 168.82L823.05 163.57C826.017 162.483 829.289 162.587 832.18 163.861C835.072 165.134 837.358 167.478 838.558 170.401C839.759 173.323 839.781 176.597 838.62 179.535C837.458 182.474 835.204 184.848 832.33 186.16L804.28 199.52L762.58 401.52C760.236 410.225 755.089 417.915 747.934 423.4C740.779 428.885 732.016 431.858 723 431.86H446.68C430.556 431.884 414.585 428.729 399.681 422.576C384.777 416.423 371.232 407.392 359.82 396" stroke="black" stroke-width="4.23" stroke-miterlimit="10"/>
<path d="M713.362 296.26L712.492 298.66C696.662 340.95 694.852 365.66 694.852 365.66" stroke="black" stroke-width="4.23" stroke-miterlimit="10"/>
<path d="M292.912 404.18L280.602 278.59C280.592 266.667 284.072 255.001 290.613 245.033C297.154 235.064 306.47 227.227 317.412 222.49C325.407 218.941 334.098 217.234 342.842 217.494C351.586 217.753 360.16 219.973 367.932 223.99C368.932 224.52 369.982 225.05 371.012 225.64C371.262 225.8 371.512 225.89 371.762 226.04C382.267 232.042 392.108 239.138 401.122 247.21C403.302 249.14 405.452 251.01 407.542 252.82C408.352 253.53 409.102 254.22 409.812 254.82C431.192 273.55 447.622 287.82 461.212 298.27L461.582 298.55C482.832 314.88 497.052 321.64 512.352 321.14C522.012 320.83 532.082 317.59 544.602 312.04C591.352 291.28 669.922 304.84 696.912 356.79" stroke="black" stroke-width="4.23" stroke-miterlimit="10"/>
<path d="M323.891 431.8C324.551 431.8 325.171 431.86 325.791 431.86C334.808 431.86 343.456 428.278 349.832 421.902C356.208 415.525 359.791 406.877 359.791 397.86V301" stroke="black" stroke-width="4.23" stroke-miterlimit="10"/>
<path d="M285.371 254.84C281.721 217.97 238.441 197.09 207.831 217.32C207.331 217.6 206.831 217.94 206.371 218.32L205.991 218.6C205.401 219.04 204.811 219.48 204.221 219.94C202.34 221.424 200.578 223.052 198.951 224.81C198.451 225.37 197.951 225.96 197.481 226.52C197.011 227.08 196.551 227.71 196.141 228.27" stroke="black" stroke-width="4.23" stroke-miterlimit="10"/>
<path d="M212.629 296.85C218.28 302.485 224.939 307.01 232.259 310.19C261.619 322.03 275.869 299.66 275.869 299.66" stroke="black" stroke-width="4.23" stroke-miterlimit="10"/>
<path d="M528.68 318.33C529.58 318.01 530.49 317.7 531.36 317.42L531.64 317.33C531.875 317.26 532.105 317.176 532.33 317.08C533.1 316.83 533.85 316.55 534.63 316.24L536.1 315.65C550.87 309.18 564.22 293.15 560.24 275.96C556.38 259.36 539.89 247.22 524.24 242.84C513.93 239.98 502.99 239.73 492.33 240.41C474.5 241.53 454.21 246.05 436.73 240.47C412.33 232.68 384.81 175.03 340.65 174.47C296.49 173.91 266 220.39 266 220.39" stroke="black" stroke-width="4.23" stroke-miterlimit="10"/>
<path d="M276.23 230.86C276.23 230.86 285.37 218.48 339.4 217.48" stroke="black" stroke-width="4.23" stroke-miterlimit="10"/>
<path d="M712.488 298.66L739.288 223.33L741.378 217.44L748.078 198.59C748.589 197.156 749.314 195.807 750.228 194.59C752.095 191.862 754.75 189.769 757.838 188.59L809.698 168.8" stroke="black" stroke-width="4.23" stroke-miterlimit="10"/>
<path d="M687 174.47L672.85 198L635.92 247.68L631 225.08C631.076 221.798 632.143 218.615 634.06 215.95L666.41 170.82L669.9 166.46C671.572 164.186 673.98 162.561 676.714 161.861C679.449 161.161 682.341 161.429 684.9 162.62C686.266 163.249 687.496 164.139 688.52 165.24C688.886 166.803 688.94 168.423 688.679 170.006C688.418 171.59 687.848 173.107 687 174.47Z" fill="#9B8CC0"/>
<path d="M717.729 284L672.869 198L686.999 174.46C688.24 172.467 688.882 170.16 688.849 167.812C688.815 165.465 688.107 163.176 686.809 161.22C685.576 159.348 683.844 157.858 681.809 156.92C679.252 155.733 676.365 155.463 673.633 156.155C670.901 156.847 668.491 158.459 666.809 160.72L663.309 165.12" stroke="black" stroke-width="4.23" stroke-miterlimit="10"/>
<path d="M663.28 165.12L630.93 210.21C629.031 212.896 627.986 216.091 627.93 219.38C627.854 220.91 627.998 222.442 628.36 223.93L633.16 243.34L634.66 249.42L650.9 315.12" stroke="black" stroke-width="4.23" stroke-miterlimit="10"/>
<path d="M207.818 217.3C178.378 235.56 181.748 284.3 206.088 295.02C215.388 299.12 242.088 300.12 239.088 283.78C237.088 272.45 243.278 270.95 253.908 274.78C272.298 281.44 276.188 263.64 276.188 262.41" stroke="black" stroke-width="4.23" stroke-miterlimit="10"/>
<path d="M270.41 305.59L282.44 309.17" stroke="black" stroke-width="4.23" stroke-miterlimit="10"/>
<path d="M175.522 361.38L164.002 385.15C163.197 386.807 161.786 388.092 160.061 388.74C158.336 389.388 156.429 389.348 154.732 388.63C153.796 388.234 152.954 387.644 152.263 386.899C151.572 386.154 151.047 385.27 150.723 384.307C150.399 383.344 150.283 382.323 150.382 381.311C150.482 380.3 150.796 379.321 151.302 378.44L153.542 374.53C153.613 374.328 153.696 374.131 153.792 373.94L155.342 370.81L168.522 344.25C170.118 340.994 172.505 338.189 175.464 336.093C178.423 333.997 181.86 332.675 185.462 332.25H185.762" stroke="black" stroke-width="4.23" stroke-miterlimit="10"/>
<path d="M200.999 359.52L183.999 364.44C183.039 364.718 182.034 364.805 181.042 364.695C180.049 364.585 179.088 364.28 178.213 363.798C177.338 363.316 176.566 362.666 175.943 361.886C175.319 361.105 174.856 360.21 174.579 359.25C174.3 358.291 174.214 357.286 174.324 356.293C174.434 355.3 174.739 354.339 175.221 353.464C175.703 352.589 176.353 351.818 177.133 351.194C177.913 350.571 178.809 350.107 179.769 349.83L203.889 342.83" stroke="black" stroke-width="4.23" stroke-miterlimit="10"/>
<path d="M187.892 363.29C188.532 365.871 188.133 368.6 186.782 370.89C183.602 376.1 175.552 377.89 169.262 376.83" stroke="black" stroke-width="4.23" stroke-miterlimit="10"/>
<path d="M155.32 370.81C148.74 366.32 147.4 358.03 149.43 350.74C157.69 320.57 192.16 327.74 215.03 333.04C228.66 336.278 242.031 340.527 255.03 345.75C265.79 350.05 276.32 355.82 287.91 357.41" stroke="black" stroke-width="4.23" stroke-miterlimit="10"/>
<path d="M186.789 370.9C186.789 370.9 189.159 371.74 193.209 373.33C210.73 380.214 227.399 389.093 242.889 399.79C250.499 405.03 260.309 408.58 271.349 410.95" stroke="black" stroke-width="4.23" stroke-miterlimit="10"/>
<path d="M290.721 388.34C287.127 387.729 283.431 388.335 280.221 390.063C277.011 391.792 274.47 394.543 273.001 397.88C266.671 410.88 275.511 426.27 289.811 428.47C301.722 430.405 313.749 431.538 325.811 431.86" stroke="black" stroke-width="4.23" stroke-miterlimit="10"/>
<path d="M285.56 323.12L285 323C285 323 285.18 322.88 285.56 322.66C285.53 322.81 285.56 323 285.56 323.12Z" fill="#333333"/>
<path d="M241.424 416.557L99.7691 389.637C96.1881 388.957 92.7331 391.308 92.0531 394.889L91.4482 398.072C90.7682 401.653 93.1191 405.108 96.7001 405.788L238.355 432.708C241.936 433.389 245.39 431.037 246.071 427.456L246.676 424.273C247.356 420.692 245.005 417.238 241.424 416.557Z" stroke="black" stroke-width="4.23" stroke-miterlimit="10"/>
<path d="M114.031 409.09V431.86" stroke="black" stroke-width="4.23" stroke-miterlimit="10"/>
<path d="M8.53125 431.86H858.351" stroke="black" stroke-width="4.23" stroke-miterlimit="10"/>
</svg>
