<svg width="906" height="784" viewBox="0 0 906 784" fill="none" xmlns="http://www.w3.org/2000/svg">
<path d="M77.0391 781H828.959" stroke="black" stroke-width="4.86" stroke-miterlimit="10"/>
<path d="M604.34 119.47C610.001 119.47 614.59 114.881 614.59 109.22C614.59 103.559 610.001 98.9697 604.34 98.9697C598.679 98.9697 594.09 103.559 594.09 109.22C594.09 114.881 598.679 119.47 604.34 119.47Z" fill="#D4CEE4"/>
<path d="M636.481 101.71C643.495 101.71 649.181 96.0236 649.181 89.0096C649.181 81.9956 643.495 76.3096 636.481 76.3096C629.467 76.3096 623.781 81.9956 623.781 89.0096C623.781 96.0236 629.467 101.71 636.481 101.71Z" fill="#D4CEE4"/>
<path d="M639 81.7096C673.06 74.8796 713 78.6096 760.36 103.85C862.13 158.11 894.6 253.92 901.85 335.14C905.25 373.14 901.36 411.47 888.64 447.4C883.27 462.62 876.11 478.25 866.7 491.4" stroke="#D4CEE4" stroke-width="4.86" stroke-miterlimit="10"/>
<path d="M574.762 108.32C563.432 115.32 553.042 122.79 543.422 129.88C496.582 164.52 468.682 190.15 446.422 105.67C401.422 -65.2197 132.072 8.82011 115.982 100.84C99.892 192.86 225.592 170.05 69.822 312.9C-85.9484 455.75 79.412 560.08 79.412 560.08" stroke="#D4CEE4" stroke-width="4.86" stroke-miterlimit="10"/>
<path d="M792.13 753.35L695.9 752.93L677.29 781H818.22L822.47 767C822.47 751.23 807.83 753.44 792.13 753.35ZM544.21 755.1L452.3 754.83L437.75 781H590.75L593.82 764.27C593.82 750.93 557.52 755.2 544.21 755.1ZM782.36 214.33C778.69 188.1 774.05 187.16 760.36 161.56C751.41 145 730.76 137 712.18 133.88C710.18 133.55 708.27 133.33 706.32 133.13C701.991 132.785 697.641 132.829 693.32 133.26C682.661 134.378 672.23 137.095 662.38 141.32C663.77 159.13 661.86 177.55 650.63 190.32C634.71 208.54 598.13 212.7 586.1 187.97C582.987 190.33 579.847 192.823 576.68 195.45C576 196 575.35 196.52 574.68 197.1C537.62 227.92 515.3 270.21 485.28 323.1C458.9 364.93 458.09 384.64 445.36 432.29C467.47 421.12 491.36 421.54 513.21 430.22C544.21 366.22 569.99 337.37 588.15 313.07C592.88 319.71 597.83 328.9 607.67 350.13L558.83 392.33C571.32 403.47 588.22 420.09 598.74 444.62L650.24 413.62L650.14 413.79L648.88 416.05L690.66 389.65L713.81 371.7C722.05 365.32 733.58 356.38 740.2 348.33L766.2 313.41C766.2 313.41 778.52 285.73 778.55 285.73C785.32 267.89 783.28 273.44 785.32 260.2C788.37 240.75 785.39 235.93 782.36 214.33Z" fill="#2E2E2E"/>
<path d="M463.699 552L354.049 680.21C311.609 745.21 253.049 779.21 180.549 779.21L118.739 779.75C105.436 779.748 92.264 777.127 79.974 772.035C67.684 766.943 56.518 759.48 47.1123 750.072C37.7066 740.665 30.246 729.497 25.1564 717.206C20.0669 704.915 17.448 691.742 17.4493 678.44C17.4357 662.712 20.5265 647.135 26.5446 632.604C32.5626 618.073 41.3895 604.873 52.5193 593.76C74.519 571.69 108.229 555.25 140.039 558.96C168.499 562.28 201.949 583.03 223.039 601.85C249.839 625.76 353.089 565.17 391.819 546.07C407.199 538.49 420.819 533.85 432.589 521.36C436.319 517.36 432.589 524.36 436.289 520.36C435.289 523.47 435.349 524.15 435.949 525.95C440.079 537.92 451.769 548.15 463.699 552Z" fill="#9B8CC0"/>
<path d="M490.901 518.19C490.901 518.19 465.561 517.19 471.901 496.86C471.901 496.86 481.691 486.17 485.731 488.22C489.771 490.27 492.801 499.17 491.191 507.87C489.581 516.57 490.901 518.19 490.901 518.19Z" fill="#9B8CC0"/>
<path d="M507.002 527.34C502.312 528.44 497.392 528.7 493.862 525.72C485.862 518.99 494.152 505.46 490.692 495.55C487.692 487.07 481.922 486.46 475.862 480.76C468.772 474.09 474.122 466.39 479.722 460.85C488.025 452.688 496.79 445.009 505.972 437.85L607.972 350.09" stroke="black" stroke-width="4.86" stroke-miterlimit="10"/>
<path d="M512 433.05C551.84 336.16 617 285.73 617 285.73" stroke="black" stroke-width="4.86" stroke-miterlimit="10"/>
<path d="M555.001 556.62L437.941 781H581.441C584.881 780.987 588.174 779.611 590.602 777.175C593.029 774.738 594.391 771.439 594.391 768C594.378 764.569 593.01 761.283 590.584 758.857C588.158 756.432 584.872 755.063 581.441 755.05H536.121L726.231 453.63" stroke="black" stroke-width="4.86" stroke-miterlimit="10"/>
<path d="M546.449 484.81C546.639 483.22 555.119 486.31 555.649 486.62C564.149 491.62 566.539 503.24 567.499 512.22C568.272 518.916 568.376 525.673 567.809 532.39C567.439 536.45 566.219 540.39 565.959 544.39C565.429 552.59 570.049 555.56 577.589 551.99C595.199 543.66 605.509 530.31 620.079 561.06C620.079 561.06 634.389 572 633.909 545.89C633.429 519.78 623.319 466.33 556.759 471.31C556.759 471.33 547.459 476.41 546.449 484.81Z" fill="#9B8CC0"/>
<path d="M608.369 439.52L567.969 512.19" stroke="black" stroke-width="4.86" stroke-miterlimit="10"/>
<path d="M624.132 51.9198C623.386 54.2678 621.929 56.3258 619.962 57.8098C612.382 63.3098 609.312 45.3798 608.632 55.2498C607.952 65.1198 598.082 65.9298 576.062 76.0598C570.372 78.6898 568.362 83.3798 568.552 88.9498C565.322 95.4898 571.062 104.71 575.372 113.36C572.712 112.71 567.752 114.55 566.222 119.12C564.992 120.02 566.322 119.12 565.512 121.91C560.302 139.55 591.642 144.83 591.642 144.83L595.642 159.45L590.172 160.84L593.272 161.06C592.272 166.14 570.692 153.64 568.722 152.47C550.242 141.47 532.192 124.07 531.352 102.87C531.306 100.406 531.503 97.9439 531.942 95.5199C531.935 95.5039 531.932 95.4868 531.932 95.4698C531.932 95.4529 531.935 95.4358 531.942 95.4198C532.622 91.2798 533.562 87.1698 533.142 82.8998C533.142 82.7998 533.142 82.5998 533.072 82.3398V82.2198C532.682 79.0398 531.072 67.2198 529.672 66.8398C530.115 66.9738 530.571 67.0609 531.032 67.0999C535.562 67.7099 540.582 64.8598 543.532 62.7898C545.096 61.6678 546.399 60.2219 547.352 58.5499C565.832 26.8299 578.492 42.3699 589.172 39.9398C600.112 37.4798 614.262 30.8398 614.262 30.8398C619.472 34.6998 623.392 43.5598 624.132 51.9198Z" fill="#9B8CC0"/>
<path d="M463.701 552L359.091 672.75C313.921 741.94 245.261 781 168.121 781H118.451C89.858 781 62.436 769.642 42.2174 749.423C21.9991 729.205 10.6406 701.783 10.6406 673.19C10.6406 656.457 13.9364 639.888 20.3399 624.429C26.7434 608.969 36.129 594.923 47.9611 583.091C59.793 571.259 73.84 561.873 89.299 555.469C104.758 549.066 121.328 545.77 138.061 545.77C160.39 545.765 182.33 551.628 201.681 562.77C211.663 568.603 222.745 572.309 234.229 573.653C245.713 574.997 257.351 573.951 268.411 570.58L434.001 519.2" stroke="black" stroke-width="4.86" stroke-miterlimit="10"/>
<path d="M662.62 141.32C672.414 137.125 682.777 134.409 693.37 133.26C697.691 132.829 702.041 132.785 706.37 133.13C708.37 133.3 710.37 133.55 712.43 133.88C720.335 135.266 727.959 137.938 735 141.79C751.79 150.79 764.6 165.66 772.3 183.08C791.42 226.38 812.55 327.08 654.18 411.36L650.18 413.79C620.273 431.79 590.353 449.79 560.42 467.79C555.33 470.87 549.93 474.23 547.53 479.67C544.98 485.47 546.4 492.2 545.24 498.41C542.35 513.73 525.55 521.56 510.7 526.25C509.5 526.64 508.24 527 506.97 527.32C507.485 531.338 506.715 535.416 504.77 538.97C501.05 545.61 493.96 549.82 486.58 551.73C465.96 557.1 442.26 544.38 435.34 524.21C431.34 512.63 432.49 499.97 434.17 487.83C445.37 406.62 474.55 329.43 520.78 261.65C536.66 238.37 552.55 214.98 574.72 197.11C575.4 196.53 576.05 196.01 576.72 195.46C579.86 192.967 583.023 190.507 586.21 188.08L586.34 187.98C589.64 185.46 597.7 178.69 601.06 176.26C601.415 175.996 601.75 175.706 602.06 175.39C606.75 170.99 604.88 163.06 598.99 160.39L594.52 158.39" stroke="black" stroke-width="4.86" stroke-miterlimit="10"/>
<path d="M491.202 519.2C462.542 514.52 472.522 495.41 472.522 495.41L485.932 486.41" stroke="black" stroke-width="4.86" stroke-miterlimit="10"/>
<path d="M644.728 144.29L662.618 141.29C664.008 159.1 662.098 177.52 650.868 190.29C634.948 208.52 598.368 212.66 586.328 187.93" stroke="black" stroke-width="4.86" stroke-miterlimit="10"/>
<path d="M624.13 51.9201C623.384 54.2681 621.927 56.3261 619.96 57.8101C612.38 63.3101 609.31 45.3801 608.63 55.2501C607.95 65.1201 598.08 65.9301 576.06 76.0601C570.37 78.6901 568.36 83.3801 568.55 88.9501C568.88 100.54 578.72 115.78 583.96 123.13C581.08 119.57 576.71 114.94 572.83 114.04C570.17 113.39 567.75 114.55 566.22 119.12C566.03 119.7 565.87 120.28 565.71 120.96C561.21 140.13 591.41 143.96 591.41 143.96L594.94 156.74L595.68 159.43C595.42 161.05 593.25 161.31 590.21 160.82C582.99 159.72 570.98 154.38 569.49 153.57C558.298 147.372 548.845 138.458 542 127.65C538.525 122.231 535.854 116.336 534.07 110.15C532.07 102.93 532.21 96.3501 532.57 88.9101C532.84 83.3301 533.23 77.7201 533.04 72.1301C532.999 69.4271 532.206 66.7881 530.75 64.5101C537.51 64.2701 541.82 58.9101 545.17 53.5101C563.17 15.2401 577.38 32.1101 588.51 28.8701C599.64 25.6301 613.86 17.8701 613.86 17.8701C622 23.5901 627.82 41.4001 624.13 51.9201Z" stroke="black" stroke-width="4.86" stroke-miterlimit="10"/>
<path d="M620 57.6797C620 57.6797 664.83 99.5997 646.83 139.85C642.41 149.73 633.76 157.24 622.95 157.75H622.55" stroke="black" stroke-width="4.86" stroke-miterlimit="10"/>
<path d="M620.41 99.6104C620.41 99.6104 630.51 110.45 631.57 111.52C635.02 114.97 626.17 118.41 626.17 118.41" stroke="black" stroke-width="4.86" stroke-miterlimit="10"/>
<path d="M635 122.34C634.86 122.79 633.49 123.48 633.14 123.73C631.544 124.843 629.873 125.845 628.14 126.73C624.662 128.499 620.962 129.793 617.14 130.58C614.01 131.21 611.22 132.74 611.55 136.49L611.99 141.31C611.99 141.31 630.32 137.8 635 122.34Z" stroke="black" stroke-width="4.86" stroke-miterlimit="10"/>
<path d="M606.409 86.5599C606.409 86.5599 589.999 85.9999 585.629 99.6099" stroke="black" stroke-width="4.86" stroke-miterlimit="10"/>
<path d="M604.34 124.22C612.624 124.22 619.34 117.504 619.34 109.22C619.34 100.935 612.624 94.2197 604.34 94.2197C596.056 94.2197 589.34 100.935 589.34 109.22C589.34 117.504 596.056 124.22 604.34 124.22Z" stroke="black" stroke-width="4.86" stroke-miterlimit="10"/>
<path d="M636.48 104.01C644.765 104.01 651.48 97.2938 651.48 89.0098C651.48 80.7248 644.765 74.0098 636.48 74.0098C628.196 74.0098 621.48 80.7248 621.48 89.0098C621.48 97.2938 628.196 104.01 636.48 104.01Z" stroke="black" stroke-width="4.86" stroke-miterlimit="10"/>
<path d="M636.471 78.8197C638.928 78.8137 641.303 79.6947 643.161 81.3017C645.019 82.9077 646.234 85.1317 646.583 87.5627C646.931 89.9947 646.39 92.4697 645.058 94.5337C643.727 96.5977 641.695 98.1107 639.336 98.7957C636.977 99.4797 634.45 99.2897 632.221 98.2587C629.991 97.2287 628.209 95.4277 627.202 93.1877C626.195 90.9477 626.031 88.4187 626.74 86.0667C627.449 83.7157 628.984 81.6997 631.061 80.3897C632.68 79.3647 634.556 78.8207 636.471 78.8197ZM636.471 76.3897C633.673 76.3907 630.955 77.3227 628.744 79.0377C626.533 80.7537 624.955 83.1547 624.257 85.8647C623.56 88.5747 623.783 91.4397 624.892 94.0087C626 96.5777 627.931 98.7057 630.381 100.059C632.831 101.411 635.661 101.91 638.426 101.479C641.191 101.047 643.733 99.7087 645.655 97.6737C647.576 95.6397 648.767 93.0247 649.039 90.2397C649.312 87.4547 648.651 84.6577 647.161 82.2897C646.026 80.4797 644.45 78.9887 642.58 77.9567C640.709 76.9247 638.607 76.3857 636.471 76.3897Z" fill="white"/>
<path d="M617.039 101.23L623.779 96.9902" stroke="black" stroke-width="4.86" stroke-miterlimit="10"/>
<path d="M578.271 132.91C579.873 132.91 581.171 131.612 581.171 130.01C581.171 128.409 579.873 127.11 578.271 127.11C576.669 127.11 575.371 128.409 575.371 130.01C575.371 131.612 576.669 132.91 578.271 132.91Z" fill="black"/>
<path d="M599.73 111.03L609.271 104.92" stroke="black" stroke-width="4.86" stroke-miterlimit="10"/>
<path d="M630.73 92.0602L640.281 85.9502" stroke="black" stroke-width="4.86" stroke-miterlimit="10"/>
<path d="M644.73 144.29L653.19 157.76" stroke="black" stroke-width="4.86" stroke-miterlimit="10"/>
<path d="M531.708 499.1C531.708 499.1 536.028 515.4 526.578 519.65" stroke="black" stroke-width="4.86" stroke-miterlimit="10"/>
<path d="M513.18 525.52C513.18 525.52 523.98 515.68 519.27 505.85" stroke="black" stroke-width="4.86" stroke-miterlimit="10"/>
<path d="M501.32 528.46C501.32 528.46 510.02 519.72 506.57 514.26" stroke="black" stroke-width="4.86" stroke-miterlimit="10"/>
<path d="M504.749 539C504.749 539 495.929 542.54 477.039 534.72" stroke="black" stroke-width="4.86" stroke-miterlimit="10"/>
<path d="M484.199 552C482.829 551.63 470.709 551.8 463.699 542.36" stroke="black" stroke-width="4.86" stroke-miterlimit="10"/>
<path d="M520.46 524.46C520.46 524.46 523.78 542.06 505.77 540.85" stroke="black" stroke-width="4.86" stroke-miterlimit="10"/>
<path d="M545.859 488.58C545.859 488.58 572.269 487.5 558.779 534.71C545.289 581.92 570.109 567.42 592.229 552.01C614.349 536.6 615.489 571.13 628.409 564.11C641.329 557.09 637.279 460.03 553.519 472.42" stroke="black" stroke-width="4.86" stroke-miterlimit="10"/>
<path d="M781.999 753.26H747.199" stroke="black" stroke-width="4.86" stroke-miterlimit="10"/>
<path d="M537.3 754.83H502.5" stroke="black" stroke-width="4.86" stroke-miterlimit="10"/>
<path d="M435.319 524.23L321.669 624C292.849 651.87 259.349 654.21 236.289 643.42" stroke="black" stroke-width="4.86" stroke-miterlimit="10"/>
<path d="M440.839 534.71L392.609 594.73" stroke="black" stroke-width="4.86" stroke-miterlimit="10"/>
<path d="M451.071 544.64L427.141 584.36" stroke="black" stroke-width="4.86" stroke-miterlimit="10"/>
<path d="M597.079 525.52C570.079 478.3 546.449 484.81 546.449 484.81C546.449 484.81 575.399 484.71 577.609 544.64" stroke="black" stroke-width="4.86" stroke-linecap="square" stroke-linejoin="bevel"/>
<path d="M547.512 479.69C547.512 479.69 564.172 476.2 574.962 479.69" stroke="black" stroke-width="4.86" stroke-miterlimit="10"/>
<path d="M145.648 439.74C145.775 439.804 145.905 439.861 146.038 439.91L145.648 439.74Z" fill="#9B8CC0"/>
<path d="M130.331 444.59C149.363 444.59 164.791 429.162 164.791 410.13C164.791 391.098 149.363 375.67 130.331 375.67C111.299 375.67 95.8711 391.098 95.8711 410.13C95.8711 429.162 111.299 444.59 130.331 444.59Z" fill="#9B8CC0"/>
<path d="M119.38 422C118.237 421.569 117.165 420.969 116.2 420.22C114.538 418.933 113.399 417.086 112.994 415.023C112.59 412.96 112.947 410.82 114 409C114.694 407.805 115.657 406.787 116.813 406.029C117.969 405.27 119.286 404.791 120.66 404.63C119.912 402.851 119.763 400.876 120.234 399.004C120.705 397.132 121.772 395.464 123.273 394.251C124.774 393.037 126.629 392.344 128.558 392.275C130.487 392.207 132.386 392.766 133.97 393.87C137.3 396.18 139.61 400.27 141.03 404.01C141.759 405.952 142.292 407.962 142.62 410.01C142.79 411.01 143.88 417.01 143.02 417.62C137.28 421.6 126.68 424.78 119.38 422Z" fill="white"/>
<path d="M350.41 360.07L350.25 360.22L350.41 360.07Z" fill="#9B8CC0"/>
<path d="M368.269 377.87C378.475 377.87 386.749 369.596 386.749 359.39C386.749 349.184 378.475 340.91 368.269 340.91C358.063 340.91 349.789 349.184 349.789 359.39C349.789 369.596 358.063 377.87 368.269 377.87Z" fill="#9B8CC0"/>
<path d="M364.999 351.37C365.469 350.916 366.005 350.535 366.589 350.24C367.597 349.707 368.765 349.563 369.872 349.836C370.978 350.109 371.946 350.78 372.589 351.72C373.012 352.328 373.286 353.026 373.39 353.759C373.495 354.492 373.426 355.239 373.189 355.94C374.222 355.986 375.212 356.364 376.011 357.019C376.81 357.675 377.376 358.571 377.622 359.575C377.869 360.579 377.784 361.635 377.379 362.586C376.975 363.537 376.273 364.332 375.379 364.85C373.356 365.845 371.088 366.233 368.849 365.97C367.732 365.878 366.626 365.673 365.549 365.36C364.999 365.2 361.859 364.36 361.759 363.82C361.119 360.15 361.999 354.28 364.999 351.37Z" fill="white"/>
<path d="M224.169 373.32C226.594 374.501 229.178 375.322 231.839 375.76C236.724 376.516 241.721 375.992 246.343 374.239C250.965 372.486 255.053 369.565 258.209 365.76C260.629 362.76 262.459 358.96 264.999 355.9C266.741 353.675 269.073 351.984 271.729 351.02C272.644 350.829 273.499 350.417 274.219 349.82C275.969 348.02 272.999 346.49 272.409 345.03C271.519 342.681 271.519 340.089 272.409 337.74C274.626 331.575 274.646 324.834 272.467 318.656C270.287 312.478 266.042 307.242 260.448 303.832C254.854 300.423 248.254 299.049 241.764 299.943C235.275 300.837 229.292 303.945 224.829 308.74C220.429 313.49 217.829 319.56 215.029 325.42C212.609 330.59 210.029 335.74 208.659 341.29C205.499 354.28 212.539 367.65 224.169 373.32Z" fill="#9B8CC0"/>
<path d="M248.93 326.53C252.332 326.53 255.09 323.772 255.09 320.37C255.09 316.968 252.332 314.21 248.93 314.21C245.527 314.21 242.77 316.968 242.77 320.37C242.77 323.772 245.527 326.53 248.93 326.53Z" fill="white"/>
<path d="M240.851 343.55C244.253 343.55 247.011 340.793 247.011 337.39C247.011 333.988 244.253 331.23 240.851 331.23C237.449 331.23 234.691 333.988 234.691 337.39C234.691 340.793 237.449 343.55 240.851 343.55Z" fill="white"/>
<path d="M233.269 359.52C236.671 359.52 239.429 356.762 239.429 353.36C239.429 349.958 236.671 347.2 233.269 347.2C229.867 347.2 227.109 349.958 227.109 353.36C227.109 356.762 229.867 359.52 233.269 359.52Z" fill="white"/>
<path d="M704.728 221.36C704.728 221.36 717.978 274.66 607.878 350.11C597.998 328.88 591.048 317 586.328 310.36" stroke="black" stroke-width="4.86" stroke-miterlimit="10"/>
<path d="M773.339 299.42C773.339 299.42 777.809 323.71 785.339 342.94C789.439 353.36 822.189 408.17 851.339 456.22C880.239 503.84 888.139 592.17 849.889 650.1L779.889 753.35H810.219C812.012 753.346 813.788 753.696 815.446 754.381C817.103 755.066 818.609 756.071 819.876 757.34C821.144 758.608 822.148 760.115 822.831 761.772C823.515 763.43 823.864 765.207 823.859 767C823.86 768.798 823.505 770.579 822.814 772.239C822.123 773.899 821.11 775.406 819.834 776.673C818.557 777.939 817.042 778.94 815.376 779.618C813.711 780.295 811.927 780.636 810.129 780.62L680.719 781L764.449 628.9C774.866 609.968 780.217 588.666 779.982 567.059C779.747 545.451 773.935 524.271 763.109 505.57L709.579 413.15" stroke="black" stroke-width="4.86" stroke-miterlimit="10"/>
<g opacity="0.46">
<path opacity="0.46" d="M392.578 254.47C392.688 256.934 392.244 259.391 391.278 261.66C390.312 263.928 388.85 265.952 386.998 267.58L343.628 306.46C341.993 307.93 340.085 309.063 338.011 309.794C335.938 310.524 333.741 310.839 331.546 310.719C329.35 310.599 327.2 310.047 325.219 309.095C323.237 308.143 321.463 306.809 319.998 305.17L261.658 240.07C258.708 236.765 257.188 232.425 257.432 228.002C257.675 223.578 259.663 219.431 262.958 216.47L306.368 177.59C312.898 171.74 324.018 172.2 329.968 178.89L388.338 244C390.944 246.88 392.446 250.589 392.578 254.47Z" fill="#9B8CC0"/>
</g>
<path d="M376.341 252.46L323.001 246C322.32 245.918 321.69 245.595 321.228 245.088C320.765 244.581 320.5 243.925 320.481 243.24L319.001 188.45C318.985 187.863 319.15 187.286 319.472 186.795C319.794 186.305 320.259 185.925 320.804 185.707C321.349 185.489 321.948 185.444 322.519 185.576C323.091 185.709 323.608 186.014 324.001 186.45L378.871 247.7C379.27 248.135 379.524 248.684 379.599 249.27C379.673 249.856 379.564 250.451 379.287 250.973C379.01 251.495 378.577 251.918 378.05 252.184C377.522 252.45 376.925 252.546 376.341 252.46Z" fill="white"/>
<g opacity="0.46">
<path opacity="0.46" d="M329.061 424C330.264 424.482 331.343 425.227 332.221 426.18C333.098 427.134 333.751 428.272 334.131 429.51L343.311 458.75C344.003 460.973 343.785 463.379 342.705 465.441C341.626 467.503 339.772 469.053 337.551 469.75L293.671 483.51C291.448 484.2 289.043 483.98 286.982 482.901C284.92 481.822 283.37 479.97 282.671 477.75L273.501 448.5C272.864 446.279 273.106 443.898 274.176 441.85C275.247 439.803 277.064 438.245 279.251 437.5L323.101 423.7C325.061 423.094 327.172 423.2 329.061 424Z" fill="#9B8CC0"/>
</g>
<path d="M324.559 431.3L309.829 455.42C309.64 455.715 309.353 455.935 309.019 456.041C308.684 456.147 308.323 456.132 307.999 456L281.399 444.86C281.115 444.739 280.874 444.533 280.711 444.272C280.547 444.01 280.467 443.704 280.482 443.396C280.498 443.087 280.607 442.791 280.796 442.547C280.985 442.303 281.244 442.122 281.539 442.03L322.819 429.08C323.111 428.984 323.427 428.98 323.722 429.069C324.017 429.159 324.277 429.337 324.467 429.58C324.657 429.822 324.768 430.117 324.784 430.425C324.801 430.733 324.722 431.038 324.559 431.3Z" fill="white"/>
<g opacity="0.46">
<path opacity="0.46" d="M207.391 515.54C204.585 516.744 201.689 517.727 198.731 518.48C170.361 525.48 164.801 498.94 164.801 498.94L189.561 498.21C188.137 496.252 187.215 493.975 186.875 491.578C186.536 489.181 186.788 486.737 187.611 484.46C191.051 475.27 204.551 476.22 204.551 476.22L211.081 469.29L211.701 479.04L221.701 474.71L217.881 482.23C226.791 487.36 241.151 506.13 221.761 522.53C202.371 538.93 189.591 528.19 189.591 528.19L198.751 518.48" fill="#9B8CC0"/>
</g>
<path d="M199.701 490.039C201.64 490.039 203.211 488.468 203.211 486.53C203.211 484.591 201.64 483.02 199.701 483.02C197.763 483.02 196.191 484.591 196.191 486.53C196.191 488.468 197.763 490.039 199.701 490.039Z" fill="white"/>
</svg>
