<svg width="956" height="1411" viewBox="0 0 956 1411" fill="none" xmlns="http://www.w3.org/2000/svg">
<path d="M875.162 516.11L870.102 529.96" stroke="#D4CEE4" stroke-width="3.69" stroke-miterlimit="10"/>
<path d="M860.261 556.86L827.051 647.65" stroke="#D4CEE4" stroke-width="3.69" stroke-miterlimit="10" stroke-dasharray="26.26 28.64 28.64 26.26"/>
<path d="M822.542 659.98L597.492 1275.35" stroke="#D4CEE4" stroke-width="3.69" stroke-miterlimit="10" stroke-dasharray="28.64 28.64 26.26 28.64 28.64 26.26"/>
<path d="M592.982 1287.68L587.922 1301.53" stroke="#D4CEE4" stroke-width="3.69" stroke-miterlimit="10"/>
<path d="M865.619 429.8L860.539 443.64" stroke="#D4CEE4" stroke-width="3.69" stroke-miterlimit="10"/>
<path d="M850.353 471.44L815.973 565.27" stroke="#D4CEE4" stroke-width="3.69" stroke-miterlimit="10" stroke-dasharray="27.14 29.61 29.61 27.14"/>
<path d="M811.302 578.01L578.242 1213.95" stroke="#D4CEE4" stroke-width="3.69" stroke-miterlimit="10" stroke-dasharray="29.61 29.61 27.14 29.61 29.61 27.14"/>
<path d="M573.57 1226.7L568.5 1240.54" stroke="#D4CEE4" stroke-width="3.69" stroke-miterlimit="10"/>
<path d="M840.08 386.98L803.27 487.06" stroke="#D4CEE4" stroke-width="3.69" stroke-miterlimit="10" stroke-dasharray="28.96 31.6 31.6 28.96"/>
<path d="M798.272 500.65L612.422 1005.99" stroke="#D4CEE4" stroke-width="3.69" stroke-miterlimit="10" stroke-dasharray="31.6 31.6 28.96 31.6 31.6 28.96"/>
<path d="M607.422 1019.58L602.332 1033.42" stroke="#D4CEE4" stroke-width="3.69" stroke-miterlimit="10"/>
<path d="M792.15 406.88L499.07 1213.8" stroke="#D4CEE4" stroke-width="3.69" stroke-miterlimit="10" stroke-dasharray="29.9 29.9 27.41 29.9 29.9 27.41"/>
<path d="M494.389 1226.68L489.359 1240.54" stroke="#D4CEE4" stroke-width="3.69" stroke-miterlimit="10"/>
<path d="M947.02 782.31L730.672 1384.39" stroke="#D4CEE4" stroke-width="3.69" stroke-miterlimit="10" stroke-dasharray="27.97 27.97 25.64 27.97 27.97 25.64"/>
<path d="M726.332 1396.45L721.352 1410.33" stroke="#D4CEE4" stroke-width="3.69" stroke-miterlimit="10"/>
<path d="M933.86 703.12L700.801 1339.06" stroke="#D4CEE4" stroke-width="3.69" stroke-miterlimit="10" stroke-dasharray="29.61 29.61 27.14 29.61 29.61 27.14"/>
<path d="M696.133 1351.8L691.062 1365.65" stroke="#D4CEE4" stroke-width="3.69" stroke-miterlimit="10"/>
<path d="M920.83 625.75L734.98 1131.1" stroke="#D4CEE4" stroke-width="3.69" stroke-miterlimit="10" stroke-dasharray="31.6 31.6 28.96 31.6 31.6 28.96"/>
<path d="M729.981 1144.69L724.891 1158.53" stroke="#D4CEE4" stroke-width="3.69" stroke-miterlimit="10"/>
<path d="M953.85 424.24L919.391 519.11" stroke="#D4CEE4" stroke-width="3.69" stroke-miterlimit="10" stroke-dasharray="27.41 29.9 29.9 27.41"/>
<path d="M914.711 531.99L621.641 1338.91" stroke="#D4CEE4" stroke-width="3.69" stroke-miterlimit="10" stroke-dasharray="29.9 29.9 27.41 29.9 29.9 27.41"/>
<path d="M616.962 1351.79L611.922 1365.65" stroke="#D4CEE4" stroke-width="3.69" stroke-miterlimit="10"/>
<path d="M792.559 307.12L433.359 1298.3" stroke="#D4CEE4" stroke-width="3.69" stroke-miterlimit="10" stroke-dasharray="30.52 30.52 27.98 30.52 30.52 27.98"/>
<path d="M428.59 1311.45L423.57 1325.32" stroke="#D4CEE4" stroke-width="3.69" stroke-miterlimit="10"/>
<path d="M786.3 211.01L450.73 1132.3" stroke="#D4CEE4" stroke-width="3.69" stroke-miterlimit="10" stroke-dasharray="28.39 28.39 26.02 28.39 28.39 26.02"/>
<path d="M446.271 1144.52L441.23 1158.38" stroke="#D4CEE4" stroke-width="3.69" stroke-miterlimit="10"/>
<path d="M685.981 362.51L652.781 453.31" stroke="#D4CEE4" stroke-width="3.69" stroke-miterlimit="10" stroke-dasharray="26.26 28.64 28.64 26.26"/>
<path d="M648.273 465.64L423.223 1081" stroke="#D4CEE4" stroke-width="3.69" stroke-miterlimit="10" stroke-dasharray="28.64 28.64 26.26 28.64 28.64 26.26"/>
<path d="M418.711 1093.33L413.641 1107.18" stroke="#D4CEE4" stroke-width="3.69" stroke-miterlimit="10"/>
<path d="M637.023 383.67L403.973 1019.61" stroke="#D4CEE4" stroke-width="3.69" stroke-miterlimit="10" stroke-dasharray="29.61 29.61 27.14 29.61 29.61 27.14"/>
<path d="M399.303 1032.35L394.223 1046.2" stroke="#D4CEE4" stroke-width="3.69" stroke-miterlimit="10"/>
<path d="M623.991 306.3L438.141 811.64" stroke="#D4CEE4" stroke-width="3.69" stroke-miterlimit="10" stroke-dasharray="31.6 31.6 28.96 31.6 31.6 28.96"/>
<path d="M433.141 825.23L428.051 839.08" stroke="#D4CEE4" stroke-width="3.69" stroke-miterlimit="10"/>
<path d="M617.881 212.54L324.801 1019.45" stroke="#D4CEE4" stroke-width="3.69" stroke-miterlimit="10" stroke-dasharray="29.9 29.9 27.41 29.9 29.9 27.41"/>
<path d="M320.122 1032.34L315.082 1046.2" stroke="#D4CEE4" stroke-width="3.69" stroke-miterlimit="10"/>
<path d="M607.421 129.07L248.211 1120.26" stroke="#D4CEE4" stroke-width="3.69" stroke-miterlimit="10" stroke-dasharray="30.52 30.52 27.98 30.52 30.52 27.98"/>
<path d="M243.452 1133.41L238.422 1147.27" stroke="#D4CEE4" stroke-width="3.69" stroke-miterlimit="10"/>
<path d="M601.162 32.97L265.582 954.25" stroke="#D4CEE4" stroke-width="3.69" stroke-miterlimit="10" stroke-dasharray="28.39 28.39 26.02 28.39 28.39 26.02"/>
<path d="M261.132 966.48L256.082 980.331" stroke="#D4CEE4" stroke-width="3.69" stroke-miterlimit="10"/>
<path d="M449.61 331.05L416.41 421.84" stroke="#D4CEE4" stroke-width="3.69" stroke-miterlimit="10" stroke-dasharray="26.26 28.64 28.64 26.26"/>
<path d="M411.902 434.17L186.852 1049.53" stroke="#D4CEE4" stroke-width="3.69" stroke-miterlimit="10" stroke-dasharray="28.64 28.64 26.26 28.64 28.64 26.26"/>
<path d="M182.341 1061.86L177.281 1075.71" stroke="#D4CEE4" stroke-width="3.69" stroke-miterlimit="10"/>
<path d="M400.662 352.2L167.602 988.14" stroke="#D4CEE4" stroke-width="3.69" stroke-miterlimit="10" stroke-dasharray="29.61 29.61 27.14 29.61 29.61 27.14"/>
<path d="M162.932 1000.88L157.852 1014.73" stroke="#D4CEE4" stroke-width="3.69" stroke-miterlimit="10"/>
<path d="M387.63 274.83L201.77 780.17" stroke="#D4CEE4" stroke-width="3.69" stroke-miterlimit="10" stroke-dasharray="31.6 31.6 28.96 31.6 31.6 28.96"/>
<path d="M196.77 793.77L191.68 807.61" stroke="#D4CEE4" stroke-width="3.69" stroke-miterlimit="10"/>
<path d="M381.51 181.07L88.4299 987.98" stroke="#D4CEE4" stroke-width="3.69" stroke-miterlimit="10" stroke-dasharray="29.9 29.9 27.41 29.9 29.9 27.41"/>
<path d="M83.7529 1000.87L78.7229 1014.73" stroke="#D4CEE4" stroke-width="3.69" stroke-miterlimit="10"/>
<path d="M371.052 97.6L11.8516 1088.79" stroke="#D4CEE4" stroke-width="3.69" stroke-miterlimit="10" stroke-dasharray="30.52 30.52 27.98 30.52 30.52 27.98"/>
<path d="M7.08079 1101.94L2.05078 1115.8" stroke="#D4CEE4" stroke-width="3.69" stroke-miterlimit="10"/>
<path d="M364.791 1.5L29.2109 922.78" stroke="#D4CEE4" stroke-width="3.69" stroke-miterlimit="10" stroke-dasharray="28.39 28.39 26.02 28.39 28.39 26.02"/>
<path d="M24.761 935.01L19.7109 948.86" stroke="#D4CEE4" stroke-width="3.69" stroke-miterlimit="10"/>
<path d="M541.89 834.23H501.41V1362.91H541.89V834.23Z" stroke="#D4CEE4" stroke-width="3.69" stroke-miterlimit="10"/>
<path d="M179.691 1241.16V834.23H501.411V1362.91H447.201V1200.54C447.193 1194.03 444.6 1187.78 439.991 1183.18C435.382 1178.58 429.134 1176 422.621 1176H260.821C254.307 1176 248.058 1178.58 243.448 1183.19C238.839 1187.79 236.247 1194.04 236.241 1200.55V1362.91H183.481L179.691 1241.16ZM218.301 1109.43C217.962 1109.43 217.626 1109.36 217.313 1109.23C216.999 1109.1 216.715 1108.91 216.476 1108.66C216.238 1108.42 216.049 1108.14 215.921 1107.82C215.793 1107.51 215.729 1107.17 215.731 1106.83V1086C215.731 1085.32 216.002 1084.66 216.484 1084.18C216.965 1083.7 217.619 1083.42 218.301 1083.42H260.251C260.592 1083.42 260.931 1083.48 261.246 1083.61C261.562 1083.74 261.85 1083.93 262.092 1084.17C262.335 1084.41 262.527 1084.69 262.659 1085.01C262.791 1085.32 262.86 1085.66 262.861 1086V1106.8C262.863 1107.14 262.796 1107.48 262.665 1107.8C262.534 1108.12 262.342 1108.4 262.099 1108.64C261.857 1108.89 261.568 1109.08 261.251 1109.21C260.934 1109.34 260.594 1109.4 260.251 1109.4L218.301 1109.43ZM292.051 1143.21C292.046 1143.9 291.77 1144.55 291.282 1145.03C290.795 1145.51 290.137 1145.78 289.451 1145.78H247.451C246.766 1145.78 246.108 1145.51 245.621 1145.03C245.133 1144.55 244.857 1143.9 244.851 1143.21V1122.38C244.857 1121.69 245.133 1121.04 245.62 1120.55C246.107 1120.07 246.765 1119.8 247.451 1119.8H289.451C290.138 1119.8 290.796 1120.07 291.283 1120.55C291.77 1121.04 292.046 1121.69 292.051 1122.38V1143.21ZM271.051 1106.83V1086C271.051 1085.66 271.119 1085.32 271.25 1085.01C271.381 1084.69 271.572 1084.41 271.814 1084.17C272.056 1083.93 272.343 1083.74 272.658 1083.61C272.973 1083.48 273.311 1083.42 273.651 1083.42H315.601C316.288 1083.42 316.946 1083.69 317.433 1084.17C317.92 1084.66 318.196 1085.31 318.201 1086V1106.8C318.201 1107.14 318.134 1107.48 318.003 1107.79C317.873 1108.11 317.681 1108.4 317.44 1108.64C317.198 1108.88 316.912 1109.07 316.596 1109.2C316.281 1109.33 315.943 1109.4 315.601 1109.4H273.661C273.322 1109.4 272.985 1109.34 272.67 1109.21C272.356 1109.08 272.069 1108.89 271.828 1108.65C271.586 1108.42 271.394 1108.13 271.263 1107.82C271.131 1107.51 271.063 1107.17 271.061 1106.83H271.051ZM347.181 1143.21C347.181 1143.89 346.911 1144.55 346.429 1145.03C345.947 1145.51 345.293 1145.78 344.611 1145.78H302.611C301.929 1145.78 301.274 1145.51 300.791 1145.03C300.307 1144.55 300.034 1143.89 300.031 1143.21V1122.38C300.034 1121.7 300.307 1121.04 300.79 1120.56C301.273 1120.08 301.928 1119.8 302.611 1119.8H344.611C345.294 1119.8 345.948 1120.08 346.429 1120.56C346.911 1121.04 347.181 1121.7 347.181 1122.38V1143.21ZM373.531 1106.83C373.534 1107.17 373.469 1107.51 373.339 1107.83C373.209 1108.14 373.018 1108.43 372.776 1108.67C372.534 1108.92 372.246 1109.11 371.93 1109.24C371.613 1109.37 371.274 1109.43 370.931 1109.43H329.001C328.661 1109.43 328.324 1109.36 328.009 1109.23C327.695 1109.1 327.41 1108.91 327.17 1108.67C326.93 1108.43 326.741 1108.14 326.612 1107.82C326.484 1107.51 326.419 1107.17 326.421 1106.83V1086C326.424 1085.32 326.697 1084.66 327.18 1084.18C327.663 1083.7 328.318 1083.42 329.001 1083.42H370.951C371.292 1083.42 371.63 1083.48 371.945 1083.61C372.26 1083.74 372.547 1083.93 372.789 1084.17C373.03 1084.41 373.222 1084.69 373.353 1085.01C373.484 1085.32 373.551 1085.66 373.551 1086L373.531 1106.83ZM428.861 1106.83C428.864 1107.17 428.799 1107.51 428.671 1107.82C428.542 1108.14 428.353 1108.43 428.113 1108.67C427.873 1108.91 427.588 1109.1 427.273 1109.23C426.959 1109.36 426.622 1109.43 426.281 1109.43H384.281C383.939 1109.43 383.6 1109.37 383.283 1109.24C382.967 1109.11 382.679 1108.92 382.437 1108.67C382.195 1108.43 382.004 1108.14 381.874 1107.83C381.744 1107.51 381.679 1107.17 381.681 1106.83V1086C381.681 1085.66 381.749 1085.32 381.88 1085.01C382.011 1084.69 382.202 1084.41 382.444 1084.17C382.686 1083.93 382.973 1083.74 383.288 1083.61C383.603 1083.48 383.941 1083.42 384.281 1083.42H426.281C426.966 1083.42 427.622 1083.69 428.106 1084.18C428.59 1084.66 428.861 1085.32 428.861 1086V1106.83ZM467.701 1028.71C467.704 1035.23 465.12 1041.48 460.516 1046.09C455.913 1050.7 449.667 1053.29 443.151 1053.3H238.381C231.862 1053.29 225.612 1050.7 221.003 1046.09C216.394 1041.48 213.804 1035.23 213.801 1028.71V942.05C213.801 935.531 216.391 929.279 221.001 924.67C225.61 920.06 231.862 917.47 238.381 917.47H443.161C446.388 917.47 449.583 918.106 452.563 919.342C455.544 920.578 458.251 922.389 460.531 924.672C462.812 926.954 464.619 929.664 465.851 932.646C467.083 935.628 467.715 938.824 467.711 942.05L467.701 1028.71ZM464.111 888.71C462.982 889.85 461.638 890.755 460.156 891.371C458.675 891.987 457.086 892.303 455.481 892.3H228.001C224.76 892.295 221.654 891.005 219.363 888.712C217.072 886.419 215.784 883.312 215.781 880.07C215.805 876.841 217.102 873.752 219.39 871.474C221.678 869.195 224.772 867.911 228.001 867.9H455.491C457.909 867.898 460.274 868.613 462.284 869.956C464.295 871.299 465.862 873.208 466.786 875.443C467.711 877.677 467.951 880.135 467.477 882.506C467.002 884.877 465.834 887.054 464.121 888.76L464.111 888.71ZM179.691 1301.71V1274.16V1301.71Z" stroke="#D4CEE4" stroke-width="3.69" stroke-miterlimit="10"/>
<path d="M260.251 1109.43H218.301C217.961 1109.43 217.625 1109.36 217.312 1109.23C216.998 1109.1 216.714 1108.91 216.476 1108.66C216.237 1108.42 216.048 1108.14 215.92 1107.82C215.792 1107.51 215.728 1107.17 215.731 1106.83V1086C215.731 1085.32 216.001 1084.66 216.483 1084.18C216.964 1083.7 217.618 1083.42 218.301 1083.42H260.251C260.591 1083.42 260.93 1083.48 261.246 1083.61C261.561 1083.74 261.849 1083.93 262.091 1084.17C262.334 1084.41 262.527 1084.69 262.659 1085.01C262.791 1085.32 262.859 1085.66 262.861 1086V1106.8C262.866 1107.15 262.802 1107.49 262.673 1107.81C262.544 1108.13 262.352 1108.42 262.109 1108.67C261.866 1108.91 261.576 1109.1 261.257 1109.24C260.938 1109.37 260.596 1109.43 260.251 1109.43Z" stroke="#D4CEE4" stroke-width="3.69" stroke-miterlimit="10"/>
<path d="M247.491 1119.8H289.491C290.177 1119.8 290.835 1120.07 291.322 1120.55C291.809 1121.04 292.085 1121.69 292.091 1122.38V1143.21C292.085 1143.9 291.809 1144.55 291.321 1145.03C290.834 1145.51 290.176 1145.78 289.491 1145.78H247.491C246.805 1145.78 246.147 1145.51 245.66 1145.03C245.172 1144.55 244.896 1143.9 244.891 1143.21V1122.38C244.896 1121.69 245.172 1121.04 245.659 1120.55C246.146 1120.07 246.804 1119.8 247.491 1119.8Z" stroke="#D4CEE4" stroke-width="3.69" stroke-miterlimit="10"/>
<path d="M318.209 1086V1106.8C318.209 1107.14 318.141 1107.48 318.011 1107.8C317.88 1108.11 317.689 1108.4 317.447 1108.64C317.206 1108.88 316.919 1109.07 316.604 1109.2C316.288 1109.33 315.95 1109.4 315.609 1109.4H273.659C273.316 1109.4 272.977 1109.34 272.661 1109.21C272.344 1109.08 272.056 1108.89 271.814 1108.64C271.572 1108.4 271.381 1108.12 271.251 1107.8C271.121 1107.48 271.056 1107.14 271.059 1106.8V1086C271.059 1085.66 271.126 1085.32 271.257 1085.01C271.388 1084.69 271.58 1084.41 271.821 1084.17C272.063 1083.93 272.35 1083.74 272.665 1083.61C272.981 1083.48 273.318 1083.42 273.659 1083.42H315.609C316.295 1083.42 316.953 1083.69 317.44 1084.17C317.927 1084.66 318.203 1085.31 318.209 1086Z" stroke="#D4CEE4" stroke-width="3.69" stroke-miterlimit="10"/>
<path d="M344.619 1119.8H302.629C301.209 1119.8 300.059 1120.95 300.059 1122.37V1143.21C300.059 1144.63 301.209 1145.78 302.629 1145.78H344.619C346.038 1145.78 347.189 1144.63 347.189 1143.21V1122.37C347.189 1120.95 346.038 1119.8 344.619 1119.8Z" stroke="#D4CEE4" stroke-width="3.69" stroke-miterlimit="10"/>
<path d="M329.002 1109.43C328.661 1109.43 328.324 1109.36 328.01 1109.23C327.696 1109.1 327.41 1108.91 327.17 1108.67C326.931 1108.43 326.741 1108.14 326.613 1107.82C326.484 1107.51 326.419 1107.17 326.422 1106.83V1086C326.425 1085.32 326.697 1084.66 327.181 1084.18C327.664 1083.7 328.318 1083.42 329.002 1083.42H370.952C371.292 1083.42 371.63 1083.48 371.945 1083.61C372.261 1083.74 372.548 1083.93 372.789 1084.17C373.031 1084.41 373.223 1084.69 373.354 1085.01C373.485 1085.32 373.552 1085.66 373.552 1086V1106.8C373.555 1107.14 373.489 1107.48 373.359 1107.8C373.23 1108.12 373.038 1108.4 372.796 1108.64C372.554 1108.89 372.267 1109.08 371.95 1109.21C371.633 1109.34 371.294 1109.4 370.952 1109.4L329.002 1109.43Z" stroke="#D4CEE4" stroke-width="3.69" stroke-miterlimit="10"/>
<path d="M384.338 1109.43C383.996 1109.43 383.657 1109.37 383.34 1109.24C383.024 1109.11 382.736 1108.92 382.494 1108.67C382.252 1108.43 382.061 1108.15 381.931 1107.83C381.801 1107.51 381.736 1107.17 381.738 1106.83V1086C381.738 1085.66 381.806 1085.32 381.937 1085.01C382.068 1084.69 382.259 1084.41 382.501 1084.17C382.743 1083.93 383.03 1083.74 383.345 1083.61C383.66 1083.48 383.998 1083.42 384.338 1083.42H426.338C427.023 1083.42 427.679 1083.69 428.163 1084.18C428.647 1084.66 428.918 1085.32 428.918 1086V1106.8C428.921 1107.14 428.856 1107.48 428.728 1107.79C428.599 1108.11 428.41 1108.4 428.17 1108.64C427.93 1108.88 427.645 1109.07 427.33 1109.2C427.016 1109.33 426.679 1109.4 426.338 1109.4L384.338 1109.43Z" stroke="#D4CEE4" stroke-width="3.69" stroke-miterlimit="10"/>
<path d="M447.199 1200.54V1362.91H236.199V1200.54C236.203 1197.31 236.843 1194.12 238.083 1191.14C239.323 1188.15 241.137 1185.45 243.424 1183.17C245.71 1180.89 248.423 1179.08 251.408 1177.85C254.393 1176.62 257.591 1175.99 260.819 1176H422.619C429.132 1176 435.38 1178.58 439.989 1183.18C444.598 1187.78 447.191 1194.03 447.199 1200.54Z" stroke="#D4CEE4" stroke-width="3.69" stroke-miterlimit="10"/>
<path d="M215.73 880.12C215.741 876.874 217.039 873.764 219.339 871.474C221.639 869.183 224.754 867.898 228 867.9H455.49C458.672 867.991 461.693 869.319 463.911 871.602C466.13 873.885 467.371 876.942 467.371 880.125C467.371 883.308 466.13 886.366 463.911 888.649C461.693 890.931 458.672 892.259 455.49 892.35H228C226.391 892.354 224.797 892.041 223.31 891.428C221.822 890.816 220.469 889.915 219.33 888.78C218.19 887.644 217.285 886.294 216.668 884.808C216.05 883.322 215.732 881.729 215.73 880.12Z" stroke="#D4CEE4" stroke-width="3.69" stroke-miterlimit="10"/>
<path d="M328.499 954.16V1016.7C328.499 1021.29 326.678 1025.69 323.436 1028.93C320.193 1032.17 315.796 1034 311.209 1034H250.579C248.306 1034 246.056 1033.55 243.957 1032.68C241.858 1031.81 239.951 1030.53 238.346 1028.92C236.74 1027.31 235.467 1025.4 234.599 1023.3C233.732 1021.2 233.286 1018.95 233.289 1016.68V954.16C233.286 951.887 233.732 949.637 234.599 947.537C235.467 945.437 236.74 943.528 238.346 941.921C239.952 940.313 241.859 939.038 243.958 938.168C246.057 937.298 248.307 936.85 250.579 936.85H311.209C313.481 936.85 315.731 937.298 317.83 938.168C319.929 939.038 321.836 940.313 323.442 941.921C325.048 943.528 326.321 945.437 327.189 947.537C328.056 949.637 328.502 951.887 328.499 954.16Z" stroke="#D4CEE4" stroke-width="3.69" stroke-miterlimit="10"/>
<path d="M447.579 954.08V1016.79C447.581 1019.06 447.134 1021.31 446.266 1023.41C445.398 1025.51 444.125 1027.42 442.519 1029.03C440.914 1030.63 439.007 1031.91 436.909 1032.78C434.81 1033.65 432.561 1034.1 430.289 1034.1H369.489C367.217 1034.1 364.968 1033.65 362.87 1032.78C360.771 1031.91 358.865 1030.63 357.259 1029.03C355.654 1027.42 354.38 1025.51 353.512 1023.41C352.644 1021.31 352.198 1019.06 352.199 1016.79V954.08C352.198 951.808 352.644 949.558 353.512 947.458C354.38 945.359 355.654 943.451 357.259 941.844C358.865 940.236 360.771 938.961 362.87 938.09C364.968 937.22 367.217 936.771 369.489 936.77H430.289C432.561 936.771 434.81 937.22 436.909 938.09C439.007 938.961 440.914 940.236 442.519 941.844C444.125 943.451 445.398 945.359 446.266 947.458C447.134 949.558 447.581 951.808 447.579 954.08Z" stroke="#D4CEE4" stroke-width="3.69" stroke-miterlimit="10"/>
<path d="M443.161 917.47H238.381C231.862 917.47 225.61 920.059 221 924.669C216.39 929.279 213.801 935.531 213.801 942.05V1028.71C213.803 1035.23 216.394 1041.48 221.002 1046.09C225.611 1050.7 231.862 1053.29 238.381 1053.3H443.161C449.676 1053.29 455.922 1050.7 460.526 1046.09C465.129 1041.47 467.713 1035.22 467.711 1028.71V942.05C467.715 938.823 467.083 935.628 465.851 932.646C464.619 929.664 462.811 926.954 460.531 924.671C458.251 922.388 455.543 920.577 452.563 919.341C449.582 918.106 446.387 917.47 443.161 917.47ZM328.501 1016.7C328.501 1021.29 326.68 1025.68 323.437 1028.93C320.195 1032.17 315.797 1034 311.211 1034H250.581C248.308 1034 246.058 1033.55 243.959 1032.68C241.86 1031.81 239.953 1030.53 238.347 1028.92C236.742 1027.31 235.469 1025.4 234.601 1023.3C233.733 1021.2 233.288 1018.95 233.291 1016.68V954.16C233.288 951.887 233.733 949.637 234.601 947.537C235.469 945.437 236.742 943.529 238.348 941.921C239.954 940.313 241.861 939.038 243.96 938.168C246.059 937.298 248.309 936.85 250.581 936.85H311.211C313.483 936.85 315.733 937.298 317.832 938.168C319.931 939.038 321.838 940.313 323.444 941.921C325.05 943.529 326.323 945.437 327.19 947.537C328.058 949.637 328.503 951.887 328.501 954.16V1016.7ZM447.581 1016.79C447.582 1019.06 447.136 1021.31 446.268 1023.41C445.4 1025.51 444.126 1027.42 442.521 1029.03C440.915 1030.63 439.009 1031.91 436.91 1032.78C434.812 1033.65 432.563 1034.1 430.291 1034.1H369.491C367.219 1034.1 364.97 1033.65 362.871 1032.78C360.773 1031.91 358.866 1030.63 357.261 1029.03C355.655 1027.42 354.382 1025.51 353.514 1023.41C352.646 1021.31 352.199 1019.06 352.201 1016.79V954.08C352.199 951.808 352.646 949.558 353.514 947.459C354.382 945.359 355.655 943.451 357.261 941.844C358.866 940.236 360.773 938.961 362.871 938.09C364.97 937.22 367.219 936.771 369.491 936.77H430.291C432.563 936.771 434.812 937.22 436.91 938.09C439.009 938.961 440.915 940.236 442.521 941.844C444.126 943.451 445.4 945.359 446.268 947.459C447.136 949.558 447.582 951.808 447.581 954.08V1016.79Z" stroke="#D4CEE4" stroke-width="3.69" stroke-miterlimit="10"/>
<path d="M328.499 954.16V1016.7C328.499 1021.29 326.678 1025.69 323.436 1028.93C320.193 1032.17 315.796 1034 311.209 1034H250.579C248.306 1034 246.056 1033.55 243.957 1032.68C241.858 1031.81 239.951 1030.53 238.346 1028.92C236.74 1027.31 235.467 1025.4 234.599 1023.3C233.732 1021.2 233.286 1018.95 233.289 1016.68V954.16C233.286 951.887 233.732 949.637 234.599 947.537C235.467 945.437 236.74 943.528 238.346 941.921C239.952 940.313 241.859 939.038 243.958 938.168C246.057 937.298 248.307 936.85 250.579 936.85H311.209C313.481 936.85 315.731 937.298 317.83 938.168C319.929 939.038 321.836 940.313 323.442 941.921C325.048 943.528 326.321 945.437 327.189 947.537C328.056 949.637 328.502 951.887 328.499 954.16Z" stroke="#D4CEE4" stroke-width="3.69" stroke-miterlimit="10"/>
<path d="M447.579 954.08V1016.79C447.581 1019.06 447.134 1021.31 446.266 1023.41C445.398 1025.51 444.125 1027.42 442.519 1029.03C440.914 1030.63 439.007 1031.91 436.909 1032.78C434.81 1033.65 432.561 1034.1 430.289 1034.1H369.489C367.217 1034.1 364.968 1033.65 362.87 1032.78C360.771 1031.91 358.865 1030.63 357.259 1029.03C355.654 1027.42 354.38 1025.51 353.512 1023.41C352.644 1021.31 352.198 1019.06 352.199 1016.79V954.08C352.198 951.808 352.644 949.558 353.512 947.458C354.38 945.359 355.654 943.451 357.259 941.844C358.865 940.236 360.771 938.961 362.87 938.09C364.968 937.22 367.217 936.771 369.489 936.77H430.289C432.561 936.771 434.81 937.22 436.909 938.09C439.007 938.961 440.914 940.236 442.519 941.844C444.125 943.451 445.398 945.359 446.266 947.458C447.134 949.558 447.581 951.808 447.579 954.08Z" stroke="#D4CEE4" stroke-width="3.69" stroke-miterlimit="10"/>
<path d="M447.579 954.08V1016.79C447.581 1019.06 447.134 1021.31 446.266 1023.41C445.398 1025.51 444.125 1027.42 442.519 1029.03C440.914 1030.63 439.007 1031.91 436.909 1032.78C434.81 1033.65 432.561 1034.1 430.289 1034.1H369.489C367.217 1034.1 364.968 1033.65 362.87 1032.78C360.771 1031.91 358.865 1030.63 357.259 1029.03C355.654 1027.42 354.38 1025.51 353.512 1023.41C352.644 1021.31 352.198 1019.06 352.199 1016.79V954.08C352.198 951.808 352.644 949.558 353.512 947.458C354.38 945.359 355.654 943.451 357.259 941.844C358.865 940.236 360.771 938.961 362.87 938.09C364.968 937.22 367.217 936.771 369.489 936.77H430.289C432.561 936.771 434.81 937.22 436.909 938.09C439.007 938.961 440.914 940.236 442.519 941.844C444.125 943.451 445.398 945.359 446.266 947.458C447.134 949.558 447.581 951.808 447.579 954.08Z" stroke="#D4CEE4" stroke-width="3.69" stroke-miterlimit="10"/>
<path d="M328.499 954.16V1016.7C328.499 1021.29 326.678 1025.69 323.436 1028.93C320.193 1032.17 315.796 1034 311.209 1034H250.579C248.306 1034 246.056 1033.55 243.957 1032.68C241.858 1031.81 239.951 1030.53 238.346 1028.92C236.74 1027.31 235.467 1025.4 234.599 1023.3C233.732 1021.2 233.286 1018.95 233.289 1016.68V954.16C233.286 951.887 233.732 949.637 234.599 947.537C235.467 945.437 236.74 943.528 238.346 941.921C239.952 940.313 241.859 939.038 243.958 938.168C246.057 937.298 248.307 936.85 250.579 936.85H311.209C313.481 936.85 315.731 937.298 317.83 938.168C319.929 939.038 321.836 940.313 323.442 941.921C325.048 943.528 326.321 945.437 327.189 947.537C328.056 949.637 328.502 951.887 328.499 954.16Z" stroke="#D4CEE4" stroke-width="3.69" stroke-miterlimit="10"/>
<path d="M447.199 1200.54V1362.91H236.199V1200.54C236.203 1197.31 236.843 1194.12 238.083 1191.14C239.323 1188.15 241.137 1185.45 243.424 1183.17C245.71 1180.89 248.423 1179.08 251.408 1177.85C254.393 1176.62 257.591 1175.99 260.819 1176H422.619C429.132 1176 435.38 1178.58 439.989 1183.18C444.598 1187.78 447.191 1194.03 447.199 1200.54Z" stroke="#D4CEE4" stroke-width="3.69" stroke-miterlimit="10"/>
<path d="M262.861 1086V1106.8C262.862 1107.14 262.795 1107.48 262.664 1107.8C262.534 1108.12 262.341 1108.4 262.098 1108.65C261.856 1108.89 261.567 1109.08 261.25 1109.21C260.933 1109.34 260.593 1109.4 260.251 1109.4H218.301C217.961 1109.4 217.625 1109.33 217.312 1109.2C216.998 1109.07 216.714 1108.88 216.476 1108.63C216.237 1108.39 216.048 1108.11 215.92 1107.79C215.792 1107.48 215.728 1107.14 215.731 1106.8V1086C215.731 1085.32 216.001 1084.66 216.483 1084.18C216.964 1083.7 217.618 1083.42 218.301 1083.42H260.251C260.591 1083.42 260.93 1083.48 261.246 1083.61C261.561 1083.74 261.849 1083.93 262.091 1084.17C262.334 1084.41 262.527 1084.69 262.659 1085.01C262.791 1085.32 262.859 1085.66 262.861 1086Z" stroke="#D4CEE4" stroke-width="3.69" stroke-miterlimit="10"/>
<path d="M318.209 1086V1106.8C318.209 1107.14 318.141 1107.48 318.011 1107.8C317.88 1108.11 317.689 1108.4 317.447 1108.64C317.206 1108.88 316.919 1109.07 316.604 1109.2C316.288 1109.33 315.95 1109.4 315.609 1109.4H273.659C273.316 1109.4 272.977 1109.34 272.661 1109.21C272.344 1109.08 272.056 1108.89 271.814 1108.64C271.572 1108.4 271.381 1108.12 271.251 1107.8C271.121 1107.48 271.056 1107.14 271.059 1106.8V1086C271.059 1085.66 271.126 1085.32 271.257 1085.01C271.388 1084.69 271.58 1084.41 271.821 1084.17C272.063 1083.93 272.35 1083.74 272.665 1083.61C272.981 1083.48 273.318 1083.42 273.659 1083.42H315.609C316.295 1083.42 316.953 1083.69 317.44 1084.17C317.927 1084.66 318.203 1085.31 318.209 1086Z" stroke="#D4CEE4" stroke-width="3.69" stroke-miterlimit="10"/>
<path d="M373.542 1086V1106.8C373.545 1107.14 373.479 1107.48 373.349 1107.8C373.22 1108.11 373.028 1108.4 372.786 1108.64C372.544 1108.89 372.257 1109.08 371.94 1109.21C371.623 1109.34 371.284 1109.4 370.942 1109.4H329.002C328.661 1109.4 328.324 1109.33 328.01 1109.2C327.696 1109.07 327.41 1108.88 327.17 1108.64C326.931 1108.4 326.741 1108.11 326.613 1107.79C326.484 1107.48 326.419 1107.14 326.422 1106.8V1086C326.425 1085.32 326.697 1084.66 327.181 1084.18C327.664 1083.69 328.318 1083.42 329.002 1083.42H370.952C371.292 1083.42 371.628 1083.48 371.942 1083.61C372.257 1083.74 372.542 1083.93 372.783 1084.17C373.023 1084.41 373.214 1084.7 373.345 1085.01C373.475 1085.32 373.542 1085.66 373.542 1086Z" stroke="#D4CEE4" stroke-width="3.69" stroke-miterlimit="10"/>
<path d="M428.871 1086V1106.8C428.874 1107.14 428.809 1107.48 428.681 1107.79C428.552 1108.11 428.363 1108.4 428.123 1108.64C427.883 1108.88 427.598 1109.07 427.283 1109.2C426.969 1109.33 426.632 1109.4 426.291 1109.4H384.291C383.949 1109.4 383.61 1109.34 383.293 1109.21C382.977 1109.08 382.689 1108.89 382.447 1108.64C382.205 1108.4 382.014 1108.12 381.884 1107.8C381.754 1107.48 381.689 1107.14 381.691 1106.8V1086C381.691 1085.66 381.759 1085.32 381.89 1085.01C382.021 1084.69 382.213 1084.41 382.454 1084.17C382.696 1083.93 382.983 1083.74 383.298 1083.61C383.613 1083.48 383.951 1083.42 384.291 1083.42H426.291C426.976 1083.42 427.632 1083.69 428.116 1084.18C428.6 1084.66 428.871 1085.32 428.871 1086Z" stroke="#D4CEE4" stroke-width="3.69" stroke-miterlimit="10"/>
<path d="M292.052 1122.38V1143.21C292.046 1143.9 291.77 1144.55 291.282 1145.03C290.795 1145.51 290.137 1145.78 289.452 1145.78H247.452C246.766 1145.78 246.108 1145.51 245.621 1145.03C245.133 1144.55 244.857 1143.9 244.852 1143.21V1122.38C244.857 1121.69 245.133 1121.04 245.62 1120.55C246.107 1120.07 246.765 1119.8 247.452 1119.8H289.452C290.138 1119.8 290.796 1120.07 291.283 1120.55C291.77 1121.04 292.046 1121.69 292.052 1122.38Z" stroke="#D4CEE4" stroke-width="3.69" stroke-miterlimit="10"/>
<path d="M344.619 1119.8H302.629C301.209 1119.8 300.059 1120.95 300.059 1122.37V1143.21C300.059 1144.63 301.209 1145.78 302.629 1145.78H344.619C346.038 1145.78 347.189 1144.63 347.189 1143.21V1122.37C347.189 1120.95 346.038 1119.8 344.619 1119.8Z" stroke="#D4CEE4" stroke-width="3.69" stroke-miterlimit="10"/>
<path d="M467.711 880.12C467.703 883.36 466.414 886.464 464.124 888.756C461.834 891.048 458.731 892.34 455.491 892.35H228.001C224.76 892.345 221.654 891.055 219.363 888.762C217.072 886.469 215.784 883.361 215.781 880.12C215.792 876.883 217.083 873.781 219.372 871.491C221.661 869.202 224.764 867.911 228.001 867.9H455.491C458.732 867.9 461.84 869.188 464.132 871.48C466.424 873.771 467.711 876.879 467.711 880.12Z" stroke="#D4CEE4" stroke-width="3.69" stroke-miterlimit="10"/>
<path d="M424.07 1194.81H258.74C256.083 1194.81 253.93 1196.96 253.93 1199.62V1204.1C253.93 1206.76 256.083 1208.91 258.74 1208.91H424.07C426.726 1208.91 428.88 1206.76 428.88 1204.1V1199.62C428.88 1196.96 426.726 1194.81 424.07 1194.81Z" stroke="#D4CEE4" stroke-width="3.69" stroke-miterlimit="10"/>
<path d="M424.07 1223.91H258.74C256.083 1223.91 253.93 1226.06 253.93 1228.72V1233.2C253.93 1235.86 256.083 1238.01 258.74 1238.01H424.07C426.726 1238.01 428.88 1235.86 428.88 1233.2V1228.72C428.88 1226.06 426.726 1223.91 424.07 1223.91Z" stroke="#D4CEE4" stroke-width="3.69" stroke-miterlimit="10"/>
<path d="M424.07 1253.01H258.74C256.083 1253.01 253.93 1255.16 253.93 1257.82V1262.3C253.93 1264.96 256.083 1267.11 258.74 1267.11H424.07C426.726 1267.11 428.88 1264.96 428.88 1262.3V1257.82C428.88 1255.16 426.726 1253.01 424.07 1253.01Z" stroke="#D4CEE4" stroke-width="3.69" stroke-miterlimit="10"/>
<path d="M424.07 1282.12H258.74C256.083 1282.12 253.93 1284.27 253.93 1286.93V1291.41C253.93 1294.07 256.083 1296.22 258.74 1296.22H424.07C426.726 1296.22 428.88 1294.07 428.88 1291.41V1286.93C428.88 1284.27 426.726 1282.12 424.07 1282.12Z" stroke="#D4CEE4" stroke-width="3.69" stroke-miterlimit="10"/>
<path d="M424.07 1311.22H258.74C256.083 1311.22 253.93 1313.37 253.93 1316.03V1320.51C253.93 1323.17 256.083 1325.32 258.74 1325.32H424.07C426.726 1325.32 428.88 1323.17 428.88 1320.51V1316.03C428.88 1313.37 426.726 1311.22 424.07 1311.22Z" stroke="#D4CEE4" stroke-width="3.69" stroke-miterlimit="10"/>
<path d="M148.359 786.07H563.059C569.09 786.07 574.874 788.466 579.138 792.731C583.403 796.995 585.799 802.779 585.799 808.81V833.81H125.629V808.81C125.629 802.781 128.023 796.999 132.286 792.734C136.548 788.47 142.33 786.073 148.359 786.07Z" stroke="#D4CEE4" stroke-width="3.69" stroke-miterlimit="10"/>
<path d="M541.879 1165.86H586.119V1206.13H628.109V1252.36H668.989V1288.57H709.229V1320.43H751.549V1362.9H541.879V1165.86Z" stroke="#D4CEE4" stroke-width="3.69" stroke-miterlimit="10"/>
<path d="M550.219 1076.73H586.409H587.509L628.179 1117.39L669.159 1158.38L709.239 1198.45L728.189 1217.41" stroke="#D4CEE4" stroke-width="3.69" stroke-miterlimit="10"/>
<path d="M586.41 1206.12V1076.72" stroke="#D4CEE4" stroke-width="3.69" stroke-miterlimit="10"/>
<path d="M709.238 1288.58V1198.45" stroke="#D4CEE4" stroke-width="3.69" stroke-miterlimit="10"/>
<path d="M628.18 1224.24V1117.39" stroke="#D4CEE4" stroke-width="3.69" stroke-miterlimit="10"/>
<path d="M669 1158.38V1255.9" stroke="#D4CEE4" stroke-width="3.69" stroke-miterlimit="10"/>
<path d="M179.539 1274.4V1301.71" stroke="#D4CEE4" stroke-width="3.69" stroke-miterlimit="10"/>
<path d="M139.059 1301.71V1284.93C140.779 1289.86 145.389 1294.15 151.339 1296.27C149.409 1282.2 145.629 1260.09 139.059 1240.19" stroke="#D4CEE4" stroke-width="3.69" stroke-miterlimit="10"/>
<path d="M179.539 1219.68V985.39H139.059V1209.15" stroke="#D4CEE4" stroke-width="3.69" stroke-miterlimit="10"/>
<path d="M139.059 1284.93V1301.71" stroke="#D4CEE4" stroke-width="3.69" stroke-miterlimit="10"/>
<path d="M159.679 1250.87C161.889 1249.08 164.449 1247.43 166.219 1245.45C171.219 1239.9 169.279 1232.8 172.459 1226.71C176.339 1219.27 188.539 1214.08 200.529 1214.71C199.387 1218.22 198.609 1221.83 198.209 1225.5C197.849 1228.76 198.699 1232.38 197.769 1235.5C196.239 1240.58 188.099 1243.66 187.109 1248.87C186.229 1253.48 191.629 1257.78 190.729 1262.47C189.789 1267.47 182.059 1270.28 179.209 1274.73C176.889 1278.35 177.979 1282.49 176.779 1286.34C175.319 1290.98 170.269 1295.09 163.639 1297.02L162.989 1297.21C160.554 1295.13 158.468 1292.67 156.809 1289.93" stroke="#D4CEE4" stroke-width="3.69" stroke-miterlimit="10"/>
<path d="M193.21 1220.6C175.33 1238.83 166.92 1277.28 163.65 1297.11C163.383 1298.79 163.143 1300.32 162.93 1301.7" stroke="#D4CEE4" stroke-width="3.69" stroke-miterlimit="10"/>
<path d="M194.859 1312.87L186.629 1358.87C186.399 1360.16 185.723 1361.33 184.719 1362.17C183.716 1363.01 182.448 1363.47 181.139 1363.47H138.139C136.816 1363.47 135.536 1363 134.527 1362.15C133.517 1361.29 132.845 1360.1 132.629 1358.8L125.039 1312.88L194.859 1312.87Z" stroke="#D4CEE4" stroke-width="3.69" stroke-miterlimit="10"/>
<path d="M202.669 1307.74C202.556 1309.14 201.921 1310.44 200.891 1311.39C199.861 1312.34 198.511 1312.87 197.109 1312.87H122.999C121.619 1312.87 120.287 1312.36 119.262 1311.44C118.236 1310.51 117.59 1309.24 117.449 1307.87C117.366 1307.09 117.448 1306.3 117.69 1305.56C117.931 1304.82 118.326 1304.13 118.849 1303.55C119.373 1302.97 120.013 1302.5 120.728 1302.18C121.443 1301.86 122.217 1301.7 122.999 1301.7H197.159C197.926 1301.71 198.684 1301.87 199.385 1302.18C200.085 1302.5 200.714 1302.95 201.231 1303.52C201.748 1304.09 202.142 1304.75 202.39 1305.48C202.637 1306.21 202.733 1306.98 202.669 1307.74Z" stroke="#D4CEE4" stroke-width="3.69" stroke-miterlimit="10"/>
<path d="M139.058 1284.93C138.931 1284.6 138.824 1284.27 138.738 1283.93C137.558 1279.48 138.608 1274.65 136.378 1270.47C133.648 1265.32 126.248 1262.11 125.308 1256.26C124.478 1250.85 129.648 1245.83 128.788 1240.5C127.858 1234.5 120.028 1230.9 118.548 1225.01C117.668 1221.36 118.468 1217.15 118.148 1213.37C117.757 1209.15 117.005 1204.97 115.898 1200.88C124.748 1200.26 133.698 1203.67 139.058 1209.19C140.664 1210.79 141.956 1212.67 142.868 1214.74C145.868 1221.74 144.098 1230.02 148.868 1236.45C151.468 1239.94 155.788 1242.54 158.008 1246.18C158.749 1247.37 159.267 1248.69 159.538 1250.07C159.538 1250.18 159.538 1250.28 159.598 1250.36C159.644 1250.54 159.677 1250.72 159.698 1250.9C160.508 1256.29 158.438 1262.13 159.108 1267.68C159.698 1272.29 162.198 1276.9 160.778 1281.41C159.757 1284.43 158.416 1287.33 156.778 1290.07C155.448 1292.42 153.818 1294.6 151.928 1296.53C151.718 1296.47 151.511 1296.39 151.308 1296.31C149.378 1282.24 145.598 1260.13 139.028 1240.23" stroke="#D4CEE4" stroke-width="3.69" stroke-miterlimit="10"/>
<path d="M152 1301.69C151.81 1300.05 151.57 1298.25 151.3 1296.27C149.37 1282.2 145.59 1260.09 139.02 1240.19C134.87 1227.57 129.59 1215.83 122.91 1207.62" stroke="#D4CEE4" stroke-width="3.69" stroke-miterlimit="10"/>
<path d="M148.879 1236.4C148.879 1236.4 150.059 1218.05 159.959 1212.47C169.859 1206.89 169.649 1238.18 169.649 1238.18" stroke="#D4CEE4" stroke-width="3.69" stroke-miterlimit="10"/>
<path d="M159.678 1250.87C158.556 1243.89 159.077 1236.74 161.198 1230" stroke="#D4CEE4" stroke-width="3.69" stroke-miterlimit="10"/>
<path d="M659.239 1266.5L570.799 1191.67L555.559 1166.6L551.459 1142.23L555.799 1106L560.999 1073C573.279 1073.38 587.999 1071.14 594.689 1068C595.504 1067.65 596.191 1067.06 596.657 1066.31C597.122 1065.55 597.343 1064.67 597.289 1063.79V1063.52C597.349 1059.64 597.509 1032.93 597.699 1002.39C597.699 997.69 597.699 992.88 597.779 988.1C597.779 986.88 597.779 985.66 597.779 984.46C597.779 983.26 597.779 982.04 597.779 980.82V977.1C597.779 974.71 597.779 972.32 597.779 969.95C597.779 968.76 597.779 967.56 597.779 966.37C597.909 940.07 598.049 916.37 598.099 907.2V903.42V903.23C598.559 904.75 599.019 906.23 599.489 907.79C599.509 907.866 599.536 907.939 599.569 908.01C599.999 909.45 600.439 910.95 600.869 912.41C600.874 912.496 600.895 912.581 600.929 912.66C602.259 917.28 603.529 921.95 604.729 926.59C604.729 926.68 604.779 926.78 604.809 926.87C605.189 928.33 605.549 929.77 605.899 931.21C605.899 931.32 605.979 931.43 606.009 931.57C607.149 936.16 608.209 940.72 609.239 945.2C609.239 945.34 609.289 945.45 609.319 945.58C609.619 946.92 609.919 948.27 610.189 949.58C610.249 949.77 610.269 949.93 610.329 950.12C611.329 954.47 612.149 958.71 612.959 962.81C613.019 963.03 613.039 963.24 613.099 963.46C613.319 964.58 613.529 965.69 613.749 966.78C613.799 967.05 613.859 967.32 613.909 967.59C614.129 968.73 614.349 969.85 614.539 970.96C614.539 971.1 614.539 971.26 614.619 971.39C614.859 972.67 615.109 973.95 615.349 975.2V975.28C615.569 976.42 615.759 977.56 615.979 978.68C616.029 979 616.089 979.3 616.139 979.68C616.279 980.52 616.439 981.33 616.579 982.15C616.579 982.48 616.679 982.83 616.739 983.15C616.899 983.97 617.039 984.76 617.169 985.55C617.201 985.823 617.248 986.093 617.309 986.36C617.469 987.36 617.639 988.36 617.799 989.36C617.799 989.61 617.879 989.82 617.909 990.07C618.039 990.8 618.149 991.51 618.259 992.19C618.309 992.59 618.399 992.97 618.449 993.36C618.499 993.75 618.609 994.36 618.669 994.77C618.729 995.18 618.799 995.64 618.889 996.07C618.979 996.5 618.989 996.75 619.049 997.07C619.098 997.544 619.171 998.014 619.269 998.48C619.269 998.62 619.269 998.75 619.269 998.89C619.459 1000.06 619.619 1001.17 619.759 1002.2C619.759 1002.2 619.759 1002.2 619.759 1002.26C619.839 1002.77 619.889 1003.26 619.969 1003.75C619.969 1003.83 619.969 1003.89 619.969 1003.97C620.569 1008.02 620.839 1010.3 620.839 1010.3H629.019V1012.91C629.014 1013.36 628.831 1013.79 628.51 1014.1C628.19 1014.42 627.758 1014.59 627.309 1014.59C623.371 1014.6 619.597 1016.16 616.814 1018.95C614.032 1021.74 612.469 1025.51 612.469 1029.45V1033.45C612.469 1038.12 615.319 1042.85 620.019 1043.96C620.771 1044.14 621.537 1044.26 622.309 1044.32C622.902 1044.4 623.501 1044.42 624.099 1044.4C626.819 1044.4 629.529 1044.07 632.219 1044.07C634.909 1044.07 637.359 1044.07 639.939 1044.07H650.289C659.579 1044.07 667.129 1033.8 667.129 1024.48V1007.53H666.929C667.049 1002.77 667.129 997.97 667.129 993.07C667.129 902.25 645.069 791.51 567.539 756.77H567.449H567.399C561.244 753.989 554.869 751.724 548.339 750C545.729 749.32 543.069 748.7 540.339 748.16L533.459 721.26H533.519L530.609 709.88C530.609 709.88 541.119 700.78 543.129 680.24C560.129 682.95 574.129 683.66 583.609 682.11C584.545 681.981 585.473 681.801 586.389 681.57H586.629C592.339 680.21 596.059 677.85 597.389 674.43C597.966 672.799 598.067 671.037 597.679 669.35C597.679 668.83 597.739 668.35 597.769 667.74C597.909 668.197 598.026 668.661 598.119 669.13C599.209 643.18 597.389 528.56 485.529 478.13L486.529 478.78L485.199 478L484.459 477.7L485.549 477.97C485.219 477.84 483.459 477.16 480.439 476.15C455.999 467.31 342.809 433.6 268.579 539.28H268.639C267.246 540.245 266.155 541.583 265.489 543.14C265.389 543.442 265.306 543.749 265.239 544.06C265.141 544.365 265.061 544.676 264.999 544.99C264.999 545.23 264.999 545.5 264.999 545.77C264.999 546.04 264.949 546.56 264.999 547C264.999 547.21 265.109 547.49 265.139 547.73C265.181 548.199 265.261 548.664 265.379 549.12C265.439 549.36 265.549 549.58 265.629 549.82C265.777 550.357 265.958 550.885 266.169 551.4C266.249 551.61 266.389 551.86 266.499 552.08C266.759 552.665 267.049 553.236 267.369 553.79C267.479 554.01 267.639 554.22 267.769 554.47C268.129 555.07 268.509 555.66 268.939 556.31C269.079 556.53 269.269 556.75 269.429 556.97C269.889 557.637 270.379 558.287 270.899 558.92L271.499 559.6C272.039 560.28 272.609 560.96 273.259 561.67C273.449 561.88 273.699 562.13 273.889 562.35C274.569 563.05 275.219 563.76 275.949 564.49L276.629 565.14C277.419 565.91 278.179 566.67 279.019 567.43C279.269 567.64 279.509 567.86 279.759 568.05C280.629 568.84 281.489 569.65 282.449 570.44C282.689 570.66 282.959 570.88 283.229 571.09C284.179 571.91 285.159 572.72 286.229 573.54C286.509 573.76 286.809 573.97 287.079 574.19C288.139 575.03 289.199 575.88 290.339 576.72C290.609 576.94 290.909 577.15 291.179 577.37C292.349 578.21 293.519 579.08 294.709 579.98L295.659 580.63C296.879 581.5 298.129 582.37 299.439 583.27C299.76 583.511 300.094 583.734 300.439 583.94C301.772 584.84 303.105 585.737 304.439 586.63C304.789 586.85 305.139 587.1 305.499 587.31C306.879 588.21 308.269 589.13 309.739 590.06L310.879 590.76C312.319 591.66 313.779 592.58 315.299 593.51C315.689 593.75 316.089 593.97 316.499 594.21C318.019 595.14 319.569 596.06 321.149 596.99C321.579 597.23 322.019 597.5 322.419 597.75C324.029 598.67 325.599 599.59 327.259 600.52C327.689 600.79 328.179 601.03 328.639 601.31C330.269 602.23 331.899 603.13 333.589 604.05C334.099 604.35 334.589 604.62 335.139 604.89C336.799 605.82 338.479 606.71 340.139 607.64C340.659 607.91 341.199 608.18 341.739 608.48C343.459 609.37 345.189 610.3 346.959 611.22C347.529 611.49 348.069 611.79 348.639 612.06C350.409 612.96 352.199 613.88 353.999 614.78C354.619 615.11 355.249 615.41 355.839 615.7C357.639 616.6 359.429 617.47 361.249 618.37C361.899 618.69 362.579 619.02 363.249 619.32C365.069 620.21 366.889 621.08 368.739 621.95C369.419 622.28 370.159 622.61 370.859 622.95C372.679 623.82 374.499 624.66 376.379 625.53C377.139 625.89 377.899 626.21 378.659 626.53C380.509 627.38 382.329 628.22 384.199 629.03C384.989 629.39 385.799 629.77 386.619 630.12L392.189 632.57C393.059 632.92 393.899 633.3 394.769 633.65C396.619 634.47 398.489 635.26 400.369 636.04C401.259 636.42 402.159 636.78 403.029 637.16C404.899 637.95 406.799 638.73 408.709 639.49C409.629 639.87 410.579 640.25 411.499 640.64C412.919 641.21 414.329 641.8 415.769 642.37C415.769 642.37 456.169 660.28 477.769 664.27L478.069 664.35C477.739 665.9 477.439 667.48 477.139 669.05C476.692 671.309 475.914 673.489 474.829 675.52L468.149 688.02C467.997 688.322 467.924 688.657 467.936 688.994C467.948 689.331 468.046 689.66 468.22 689.95C468.393 690.239 468.637 690.48 468.929 690.65C469.221 690.819 469.551 690.913 469.889 690.92H472.769C472.769 691.14 472.769 691.36 472.769 691.58V692.77C472.715 695.892 472.842 699.014 473.149 702.12C473.154 702.161 473.172 702.199 473.199 702.23C474.099 710.81 476.789 720.4 483.989 721.92C484.199 721.92 484.449 721.92 484.689 721.98C485.146 722.075 485.612 722.128 486.079 722.14C486.079 722.14 486.079 722.14 486.139 722.14C488.323 722.117 490.498 721.862 492.629 721.38L497.169 745.86L497.249 746.24V746.35H497.189V746.24C497.133 746.248 497.079 746.265 497.029 746.29L497.109 745.86C490.22 745.87 483.54 748.226 478.169 752.54C451.029 766.61 437.909 799.3 423.019 824.86C422.609 825.51 422.229 826.16 421.879 826.86C420.968 827.998 419.789 828.891 418.447 829.459C417.106 830.027 415.644 830.252 414.193 830.114C412.743 829.976 411.35 829.479 410.139 828.669C408.928 827.858 407.939 826.759 407.259 825.47C407.209 825.47 407.209 825.42 407.209 825.36C407.009 825.01 406.909 824.74 406.799 824.52C406.719 824.405 406.661 824.276 406.629 824.14L392.999 784.07C392.999 784.07 392.999 784.07 392.999 783.99L392.599 784.07C392.599 784.07 392.599 784.07 392.599 783.99L390.259 772.69C390.232 768.84 390.91 765.017 392.259 761.41C395.762 752.167 397.199 742.268 396.469 732.41C396.119 727.63 395.029 718.28 389.379 716.84C386.229 716.03 383.189 718.5 381.719 721.11C381.111 722.178 380.647 723.321 380.339 724.51C378.711 723.71 376.982 723.134 375.199 722.8C373.649 722.507 372.076 722.363 370.499 722.37C365.834 722.431 361.226 723.41 356.939 725.25C355.689 725.76 354.309 726.39 352.939 727.12C349.129 729.12 345.269 732.04 344.239 735.98C343.562 738.063 343.562 740.307 344.239 742.39C343.668 743.236 343.245 744.173 342.989 745.16C342.387 747.091 342.331 749.15 342.829 751.11L343.239 752.5H343.289C342.532 753.667 341.93 754.928 341.499 756.25C340.996 757.611 340.808 759.067 340.949 760.51L330.709 761.51C326.469 777.62 339.429 784.68 350.519 781.07C351.769 784.39 353.129 788.46 354.519 793.49L344.999 795.83C344.999 795.83 363.729 923.12 407.999 921.27C410.419 921.218 412.819 920.807 415.119 920.05C419.778 918.497 424.21 916.332 428.299 913.61C424.629 948.61 423.029 981.75 422.349 1004.16C421.809 1021.16 423.079 1027.16 439.819 1030.24C442.539 1030.73 445.139 1031.16 447.529 1031.52V1031.46C449.029 1031.68 450.439 1031.87 451.719 1032.03C450.439 1031.9 449.029 1031.74 447.529 1031.52L396.189 1327.19L393.689 1344.06L358.379 1353.35C357.172 1353.67 356.123 1354.42 355.426 1355.45C354.729 1356.48 354.433 1357.74 354.592 1358.98C354.751 1360.21 355.355 1361.35 356.291 1362.18C357.227 1363 358.431 1363.46 359.679 1363.46H432.869L440.779 1327.19H468.999C468.999 1327.19 475.869 1277.19 497.659 1208.85C547.869 1282.09 618.799 1329.31 618.799 1329.31L633.559 1306.11L649.389 1318.77L645.079 1352.4C645.03 1352.69 645.01 1352.98 645.019 1353.27C645.02 1354.14 645.193 1355.01 645.529 1355.81C645.865 1356.62 646.356 1357.35 646.974 1357.97C647.593 1358.58 648.327 1359.07 649.134 1359.4C649.941 1359.73 650.806 1359.9 651.679 1359.9C653.138 1359.9 654.556 1359.42 655.716 1358.53C656.876 1357.65 657.713 1356.41 658.099 1355L677.869 1281.87L659.239 1266.5Z" fill="white"/>
<path d="M479.002 752.59C450.102 774.67 436.002 847.43 429.212 913.29C424.983 916.14 420.383 918.398 415.542 920C366.492 935.83 345.922 795.79 345.922 795.79L355.252 793.46L393.382 784C393.382 784 393.382 784 393.382 784.07L407.002 824.11C407.032 824.244 407.082 824.372 407.152 824.49C407.252 824.71 407.372 824.99 407.552 825.33C407.563 825.379 407.587 825.424 407.622 825.46C408.347 826.754 409.376 827.852 410.62 828.659C411.864 829.466 413.286 829.958 414.764 830.092C416.241 830.226 417.728 829.998 419.097 829.428C420.467 828.858 421.676 827.963 422.622 826.82C422.992 826.18 423.362 825.53 423.762 824.89C438.712 799.35 451.832 766.68 479.002 752.59Z" fill="#333333"/>
<path d="M667.601 1010.22H621.601C621.601 1010.22 614.231 952.49 598.731 903.22C598.731 905.55 597.911 1054.22 597.731 1063.46V1063.83C597.729 1063.54 597.703 1063.25 597.651 1062.96C597.604 1062.7 597.53 1062.44 597.431 1062.19C597.431 1062.19 597.431 1062.19 597.431 1062.14C597.334 1061.87 597.2 1061.61 597.031 1061.37C596.884 1061.12 596.71 1060.89 596.511 1060.68C596.423 1060.56 596.314 1060.46 596.191 1060.38C595.988 1060.18 595.764 1060.01 595.521 1059.86C594.807 1059.46 594 1059.25 593.181 1059.26H553.181C547.051 1059.27 540.993 1057.93 535.438 1055.34C529.882 1052.75 524.964 1048.96 521.031 1044.26C519.868 1042.86 518.799 1041.38 517.831 1039.84C516.506 1037.79 515.377 1035.61 514.461 1033.34C513.257 1030.45 512.391 1027.43 511.881 1024.34C510.171 1014.07 508.401 1002.09 506.771 988.94C506.451 986.31 506.121 983.63 505.771 980.94C505.621 979.57 505.471 978.21 505.301 976.84C505.001 974.06 504.701 971.29 504.411 968.46C504.121 965.63 503.841 962.78 503.561 959.87C503.281 956.96 503.041 954.07 502.791 951.14C502.671 949.65 502.571 948.14 502.451 946.7C502.221 943.75 502.001 940.75 501.801 937.75C499.801 907.21 499.371 874.91 502.371 845.83C502.641 843.15 502.941 840.5 503.291 837.83C504.131 831.25 505.171 824.88 506.421 818.78C506.911 816.32 507.421 813.94 508.031 811.58C509.171 806.84 510.431 802.33 511.871 797.99C514.454 789.896 517.986 782.135 522.391 774.87C524.023 772.246 525.873 769.764 527.921 767.45C537.101 757.1 549.661 751.4 563.451 755.37L568.141 756.71C650.731 793.62 670.451 916.64 667.601 1010.22Z" fill="#333333"/>
<path d="M678.32 1281.84L658.54 1355C658.12 1356.56 657.15 1357.91 655.809 1358.8C654.469 1359.69 652.85 1360.07 651.252 1359.86C649.655 1359.65 648.188 1358.87 647.125 1357.66C646.061 1356.45 645.473 1354.89 645.47 1353.28C645.446 1352.99 645.446 1352.71 645.47 1352.42L649.79 1318.78L634 1306.1L659.67 1266.49L678.32 1281.84Z" fill="#9B8CC0"/>
<path d="M598.64 669C598.186 667.036 597.43 665.154 596.4 663.42L595.73 662.36C595.46 661.93 595.19 661.51 594.89 661.07C594.59 660.63 594.34 660.32 594.05 659.93C593.76 659.54 593.43 659.08 593.05 658.66C592.67 658.24 592.38 657.82 592.05 657.39C591.72 656.96 591.3 656.53 590.9 656.08C590.5 655.63 590.11 655.21 589.69 654.77C589.27 654.33 588.85 653.87 588.4 653.43C587.95 652.99 587.51 652.51 587.03 652.06L585.57 650.67C585.08 650.2 584.57 649.73 584.03 649.26L582.42 647.82C581.87 647.35 581.3 646.88 580.73 646.38C580.16 645.88 579.62 645.46 579.05 644.97C578.77 644.77 578.53 644.54 578.23 644.32C577.66 643.85 577.04 643.32 576.42 642.88C567.863 636.268 558.931 630.155 549.67 624.57C552.67 608.82 563.91 526.95 486.07 477.98C597.89 528.45 599.73 643.09 598.64 669Z" fill="#B8ADD2"/>
<path d="M441.228 1327.19L433.308 1363.46H360.128C358.768 1363.45 357.465 1362.91 356.502 1361.95C355.54 1360.98 354.996 1359.68 354.988 1358.32C354.988 1357.18 355.366 1356.07 356.062 1355.16C356.758 1354.26 357.735 1353.61 358.838 1353.32L394.158 1344.04L396.668 1327.17L441.228 1327.19Z" fill="#9B8CC0"/>
<path d="M486 478C476.068 475.504 465.896 474.082 455.66 473.76C422.42 472.47 369.83 480.76 338.94 538.26C338.52 539 338.15 539.75 337.75 540.49C324.853 537.627 311.76 535.729 298.58 534.81C298.58 534.81 298.58 534.81 298.51 534.81C294.088 534.547 289.653 534.547 285.23 534.81C326.23 481.99 378.16 467.18 420.56 465.87H420.66C438.706 466.445 456.616 469.198 474 474.07C478.066 475.17 482.072 476.482 486 478Z" fill="#B8ADD2"/>
<path d="M455.451 1025.1V1025.2L453.811 1032.15C450.361 1031.88 445.671 1031.15 440.691 1030.24C423.941 1027.24 422.691 1021.13 423.221 1004.14C423.921 981.69 425.531 948.47 429.221 913.29C436.001 847.43 450.071 774.67 479.001 752.59C483.814 750.076 488.948 748.232 494.261 747.11C495.201 746.91 496.191 746.71 497.161 746.56C483.861 751 422.001 793.5 455.451 1025.1Z" fill="#333333"/>
<path d="M531.102 709.79L534.002 721.18L527.722 723.49C526.944 723.768 526.089 723.729 525.34 723.381C524.592 723.033 524.01 722.404 523.722 721.63L519.722 710.99C518.359 707.419 517.819 703.587 518.141 699.778C518.463 695.969 519.639 692.282 521.582 688.99C521.592 688.954 521.609 688.92 521.632 688.89C522.382 687.616 522.643 686.112 522.366 684.659C522.088 683.206 521.292 681.904 520.125 680.996C518.958 680.087 517.5 679.634 516.024 679.722C514.548 679.809 513.153 680.431 512.102 681.47C510.102 683.47 508.662 685.12 507.892 687.87C507.22 690.436 506.994 693.098 507.222 695.74C507.462 699.98 508.862 706.12 508.012 710.36C506.772 716.63 498.662 720.11 493.102 721.36C490.946 721.853 488.743 722.111 486.532 722.13C474.402 722.23 473.062 701.83 473.232 692.77C476.312 694.14 479.462 698.77 486.902 698.77C496.522 698.77 500.102 684.46 500.102 684.46L504.002 668C504.251 666.946 504.259 665.849 504.023 664.792C503.787 663.734 503.314 662.744 502.64 661.896C501.966 661.048 501.109 660.364 500.132 659.895C499.155 659.426 498.085 659.185 497.002 659.19H481.802C481.209 658.898 480.637 658.564 480.092 658.19C468.462 650.68 477.412 631.82 477.412 631.82C480.462 638.57 497.332 639.27 511.852 642.29C526.372 645.31 544.592 651.4 543.922 675.36C543.252 699.32 531.102 709.79 531.102 709.79Z" fill="#9B8CC0"/>
<path d="M598.711 903.2C598.711 905.53 597.891 1054.2 597.711 1063.44" stroke="black" stroke-width="3.69" stroke-miterlimit="10"/>
<path d="M667.861 1010.22V1027.08C667.861 1036.39 660.311 1046.65 651.001 1046.65H632.941C628.941 1046.65 624.731 1047.51 620.751 1046.57C616.061 1045.45 613.191 1040.72 613.191 1036.04V1032.04C613.199 1028.11 614.762 1024.35 617.537 1021.57C620.313 1018.79 624.075 1017.23 628.001 1017.22C628.225 1017.22 628.446 1017.18 628.652 1017.09C628.858 1017.01 629.046 1016.88 629.203 1016.72C629.361 1016.56 629.487 1016.38 629.572 1016.17C629.657 1015.96 629.701 1015.74 629.701 1015.52V1010.22" stroke="black" stroke-width="3.69" stroke-miterlimit="10"/>
<path d="M480 658.19C468.36 650.68 477.32 631.82 477.32 631.82C480.32 638.57 497.24 639.27 511.75 642.29C526.26 645.31 544.5 651.4 543.83 675.36C543.78 677.02 543.68 678.61 543.53 680.15C573.87 685.01 594.26 683.45 597.86 674.32C597.86 674.32 598.06 672.43 598.18 669.03C597.725 667.067 596.973 665.186 595.95 663.45C595.72 663.11 595.5 662.76 595.28 662.39C595.06 662.02 594.73 661.54 594.43 661.1C594.13 660.66 593.89 660.35 593.59 659.96C593.29 659.57 592.97 659.11 592.59 658.69C592.21 658.27 591.92 657.85 591.59 657.42L590.45 656.11C590.08 655.69 589.66 655.24 589.23 654.8C588.8 654.36 588.39 653.9 587.94 653.46C587.49 653.02 587.05 652.54 586.58 652.09L585.12 650.7C584.62 650.23 584.12 649.76 583.58 649.29C583.04 648.82 582.51 648.35 581.97 647.85C581.43 647.35 580.85 646.91 580.28 646.41C579.71 645.91 579.16 645.49 578.59 645C578.32 644.8 578.07 644.57 577.77 644.35C577.2 643.88 576.58 643.35 575.96 642.91C567.406 636.298 558.478 630.184 549.22 624.6C536.22 616.6 521.01 608.33 504.22 600.09C503.11 599.52 501.97 598.98 500.85 598.43C499.73 597.88 498.57 597.32 497.43 596.79C496.29 596.26 495.14 595.68 493.98 595.16C478.86 588 462.61 581 445.54 574.24C405.63 558.47 367.84 546.93 337.28 540.48C302.05 533.06 276.43 532.48 268.19 540.01C268.19 540.01 268.19 540.01 268.14 540.01C267.4 541.01 266.68 542.07 265.93 543.11C258.47 561.99 325.55 606.25 416.14 642.34C416.14 642.34 456.55 660.25 478.14 664.25C482.53 665.11 476.71 658 480 658.19Z" fill="#333333"/>
<path d="M622.789 1046.88C622.789 1046.88 630.539 1048.39 631.459 1041.3" stroke="black" stroke-width="3.69" stroke-miterlimit="10"/>
<path d="M639 1046.52C639 1046.52 646.76 1048.04 647.68 1040.95" stroke="black" stroke-width="3.69" stroke-miterlimit="10"/>
<path d="M453.371 1032.14L455.031 1025.09" stroke="black" stroke-width="3.69" stroke-miterlimit="10"/>
<path d="M441.23 1327.19H469.43C469.43 1327.19 476.301 1277.19 498.091 1208.83" stroke="black" stroke-width="3.69" stroke-miterlimit="10"/>
<path d="M470.602 1013.59H470.622" stroke="black" stroke-width="3.69" stroke-miterlimit="10"/>
<path d="M678.29 1281.84L658.52 1355C658.093 1356.55 657.119 1357.89 655.78 1358.78C654.44 1359.67 652.825 1360.04 651.232 1359.83C649.638 1359.62 648.174 1358.84 647.11 1357.64C646.045 1356.44 645.452 1354.89 645.44 1353.28C645.416 1352.99 645.416 1352.71 645.44 1352.42L649.76 1318.78L634 1306.1L659.7 1266.49L678.29 1281.84Z" stroke="black" stroke-width="3.69" stroke-miterlimit="10"/>
<path d="M561.002 1072.91L552.442 1127.31C550.296 1140.96 551.743 1154.93 556.64 1167.86C561.538 1180.78 569.717 1192.2 580.372 1201L659.682 1266.45" stroke="black" stroke-width="3.69" stroke-miterlimit="10"/>
<path d="M634 1306.1L619.24 1329.3C619.24 1329.3 548.3 1282.09 498.09 1208.83C512.4 1163.9 533.19 1111.04 562.71 1059.26" stroke="black" stroke-width="3.69" stroke-miterlimit="10"/>
<path d="M441.228 1327.19L433.308 1363.46H360.128C358.883 1363.45 357.682 1362.99 356.749 1362.17C355.815 1361.35 355.212 1360.21 355.051 1358.98C354.89 1357.74 355.182 1356.49 355.873 1355.45C356.564 1354.42 357.607 1353.67 358.808 1353.34L394.138 1344.06L396.648 1327.19H441.228Z" stroke="black" stroke-width="3.69" stroke-miterlimit="10"/>
<path d="M428.748 913.29C424.526 916.14 419.933 918.398 415.098 920C366.098 935.83 345.488 795.79 345.488 795.79L392.998 784C392.998 784 392.998 784 392.998 784.07L406.598 824.14L406.868 824.81L407.138 825.4C407.169 825.441 407.196 825.484 407.218 825.53C407.941 826.826 408.97 827.926 410.214 828.735C411.458 829.543 412.881 830.036 414.359 830.17C415.837 830.304 417.326 830.075 418.695 829.504C420.065 828.932 421.274 828.035 422.218 826.89C422.588 826.25 422.968 825.6 423.358 824.96C438.268 799.38 451.358 766.71 478.538 752.62C478.538 752.62 478.538 752.62 478.588 752.62C483.398 750.106 488.529 748.262 493.838 747.14C494.778 746.94 495.778 746.74 496.738 746.6C496.738 746.6 496.738 746.6 496.818 746.6L497.608 746.45" stroke="black" stroke-width="3.69" stroke-miterlimit="10"/>
<path d="M540.828 748.12C543.508 748.67 546.158 749.29 548.828 749.96C555.451 751.647 561.917 753.895 568.158 756.68C650.718 793.59 670.438 916.61 667.588 1010.19H621.588C621.588 1010.19 602.588 861.47 561.478 837.72" stroke="black" stroke-width="3.69" stroke-miterlimit="10"/>
<path d="M454.999 1025.1C421.549 793.49 483.419 751 496.739 746.54C496.739 746.54 496.739 746.54 496.819 746.54L497.589 746.29" stroke="black" stroke-width="3.69" stroke-miterlimit="10"/>
<path d="M497.508 745.89C490.628 745.905 483.957 748.257 478.588 752.56C478.588 752.56 478.588 752.56 478.538 752.56C449.628 774.64 435.538 847.4 428.748 913.26C425.068 948.44 423.468 981.65 422.748 1004.11C422.208 1021.11 423.478 1027.11 440.208 1030.2C445.208 1031.11 449.888 1031.84 453.348 1032.11L396.648 1327.19" stroke="black" stroke-width="3.69" stroke-miterlimit="10"/>
<path d="M597.66 1063C597.703 1063.25 597.726 1063.5 597.73 1063.75C597.786 1064.63 597.566 1065.51 597.1 1066.27C596.634 1067.02 595.946 1067.61 595.13 1067.96C587.44 1071.53 576.13 1074.51 561 1072.96L563.13 1059.31H593.13C593.949 1059.3 594.756 1059.51 595.47 1059.91C595.712 1060.06 595.937 1060.23 596.14 1060.43C596.263 1060.51 596.371 1060.61 596.46 1060.73C596.658 1060.94 596.833 1061.17 596.98 1061.42C597.148 1061.66 597.283 1061.92 597.38 1062.19C597.38 1062.19 597.38 1062.19 597.38 1062.24C597.499 1062.48 597.593 1062.74 597.66 1063Z" fill="black" stroke="black" stroke-width="3.69" stroke-miterlimit="10"/>
<path d="M597.741 1063.51C597.738 1063.34 597.711 1063.17 597.661 1063.01C597.614 1062.75 597.54 1062.49 597.441 1062.24" stroke="black" stroke-width="3.69" stroke-miterlimit="10"/>
<path d="M597.42 1062.14C597.319 1061.87 597.185 1061.61 597.02 1061.37C596.89 1061.11 596.714 1060.88 596.5 1060.68" stroke="black" stroke-width="3.69" stroke-miterlimit="10"/>
<path d="M596.182 1060.38C595.979 1060.18 595.754 1060.01 595.512 1059.86" stroke="black" stroke-width="3.69" stroke-miterlimit="10"/>
<path d="M563.131 1059.26H553.131C547 1059.27 540.943 1057.93 535.387 1055.34C529.831 1052.74 524.913 1048.96 520.981 1044.26C519.817 1042.86 518.748 1041.38 517.781 1039.84C514.775 1035.12 512.757 1029.83 511.85 1024.31C510.14 1014.04 508.36 1002.06 506.72 988.91C506.4 986.28 506.07 983.6 505.72 980.91C505.57 979.54 505.421 978.18 505.251 976.81C504.951 974.03 504.651 971.26 504.361 968.43C504.071 965.6 503.791 962.75 503.511 959.84C503.231 956.93 502.991 954.04 502.741 951.11C502.621 949.62 502.521 948.11 502.401 946.67C502.171 943.72 501.951 940.72 501.751 937.72C499.751 907.18 499.321 874.88 502.321 845.8C502.591 843.12 502.891 840.47 503.241 837.8C504.081 831.22 505.121 824.85 506.371 818.75C506.861 816.29 507.371 813.91 507.981 811.55C509.121 806.81 510.381 802.3 511.821 797.96C514.409 789.863 517.951 782.102 522.371 774.84C523.992 772.216 525.832 769.734 527.871 767.42C537.051 757.07 549.611 751.37 563.401 755.34L568.091 756.68H568.191" stroke="black" stroke-width="3.69" stroke-miterlimit="10"/>
<path d="M406.559 824.11C406.559 824.11 410.409 833.86 417.859 840.06" stroke="black" stroke-width="3.69" stroke-miterlimit="10"/>
<path d="M380.699 724.52C381.011 723.327 381.471 722.178 382.069 721.1C383.539 718.49 386.579 716.04 389.739 716.84C395.379 718.27 396.459 727.64 396.839 732.4C397.56 742.257 396.124 752.154 392.629 761.4C390.187 767.618 389.943 774.484 391.939 780.86L392.939 783.98" stroke="black" stroke-width="3.69" stroke-miterlimit="10"/>
<path d="M357.238 758.36C359.058 755.3 365.238 755.31 368.328 757.98C368.998 758.572 369.795 759 370.658 759.23C371.888 759.608 373.215 759.509 374.374 758.953C375.534 758.397 376.443 757.425 376.918 756.23C378.388 752.57 375.268 747.49 372.268 745.52C367.858 742.61 362.148 742.66 357.158 743.78C352.168 744.9 347.378 747.32 344.238 751.53C343.161 752.949 342.336 754.542 341.798 756.24C340.678 759.84 341.198 761.51 342.698 764.94L343.308 766.08C344.118 767.58 344.998 769.08 345.898 770.5C347.568 773.2 351.088 779.94 354.818 793.5" stroke="black" stroke-width="3.69" stroke-miterlimit="10"/>
<path d="M344.55 742.42C343.884 740.332 343.884 738.088 344.55 736C345.55 732.06 349.441 729.17 353.261 727.15C354.661 726.41 356.051 725.78 357.261 725.27C361.545 723.42 366.154 722.438 370.821 722.38C372.394 722.38 373.964 722.527 375.511 722.82C377.296 723.151 379.029 723.723 380.661 724.52C384.731 726.591 387.912 730.07 389.61 734.31C391.34 738.2 392.321 742.93 389.221 745.76" stroke="black" stroke-width="3.69" stroke-miterlimit="10"/>
<path d="M377.181 753L378.591 755.26C379.435 756.096 380.504 756.667 381.667 756.905C382.83 757.143 384.037 757.037 385.141 756.6C390.541 754.69 390.641 750.06 389.261 745.77C389.019 744.991 388.732 744.226 388.401 743.48C386.949 739.983 384.519 736.98 381.401 734.83C379.252 733.412 376.836 732.449 374.301 732C372.239 731.613 370.136 731.478 368.041 731.6C363.908 731.856 359.849 732.82 356.041 734.45C352.221 736.03 347.041 738.61 344.541 742.45C343.975 743.291 343.552 744.22 343.291 745.2C342.686 747.147 342.631 749.224 343.131 751.2L343.551 752.59" stroke="black" stroke-width="3.69" stroke-miterlimit="10"/>
<path d="M360.352 732.93V732.91" stroke="black" stroke-width="2.46" stroke-miterlimit="10"/>
<path d="M511.051 1019.14C511.051 1019.14 483.051 1034.94 455.051 1025.19" stroke="black" stroke-width="3.69" stroke-miterlimit="10"/>
<path d="M368.33 758C365.33 764.21 363.4 771.5 358.4 776.48C347.2 787.64 325.73 781.61 331.03 761.48" stroke="black" stroke-width="3.69" stroke-miterlimit="10"/>
<path d="M380.699 724.52L445.539 574.25" stroke="black" stroke-width="3.69" stroke-miterlimit="10"/>
<path d="M543.559 680.15C573.899 685.01 594.289 683.45 597.889 674.32C605.399 655.32 537.209 610.46 445.539 574.24C353.869 538.02 273.469 524.11 265.929 543.16C258.389 562.21 326.609 607 418.279 643.23C439.039 651.45 459.279 658.49 478.139 664.3" stroke="black" stroke-width="3.69" stroke-miterlimit="10"/>
<path d="M597.891 674.33C597.891 674.33 612.161 535.06 485.641 478C485.641 478 352.641 420.25 269.031 539.26" stroke="black" stroke-width="3.69" stroke-miterlimit="10"/>
<path d="M549.001 622.72C549.001 622.72 572.051 532.38 485.641 478C485.641 478 384.491 449 337.281 540.49" stroke="black" stroke-width="3.69" stroke-miterlimit="10"/>
<path d="M489.68 678.09C489.513 676.313 488.728 674.651 487.462 673.394C486.195 672.137 484.528 671.364 482.75 671.21" stroke="black" stroke-width="3.69" stroke-miterlimit="10"/>
<path d="M483.581 682.85C484.702 682.85 485.611 681.364 485.611 679.53C485.611 677.696 484.702 676.21 483.581 676.21C482.46 676.21 481.551 677.696 481.551 679.53C481.551 681.364 482.46 682.85 483.581 682.85Z" fill="black"/>
<path d="M473.102 692.8C476.182 694.17 479.332 698.8 486.772 698.8C496.402 698.8 499.972 684.49 499.972 684.49L503.972 667.97C504.223 666.916 504.232 665.818 503.997 664.76C503.762 663.702 503.289 662.711 502.615 661.862C501.941 661.013 501.082 660.329 500.105 659.861C499.127 659.393 498.056 659.153 496.972 659.16H481.742C481.146 658.866 480.572 658.532 480.022 658.16" stroke="black" stroke-width="3.69" stroke-miterlimit="10"/>
<path d="M473.441 702.11C473.441 702.11 474.441 705 481.561 706.24" stroke="black" stroke-width="3.69" stroke-miterlimit="10"/>
<path d="M492.999 721.39C490.839 721.882 488.633 722.14 486.419 722.16C473.749 722.26 472.869 700.16 473.149 691.61C473.149 691.39 473.149 691.16 473.149 690.94H470.269C469.932 690.931 469.603 690.837 469.313 690.666C469.022 690.496 468.779 690.255 468.607 689.966C468.434 689.676 468.337 689.348 468.325 689.012C468.314 688.675 468.387 688.341 468.539 688.04L475.209 675.53C476.29 673.505 477.069 671.332 477.519 669.08C478.124 665.402 478.958 661.764 480.019 658.19C468.389 650.68 477.339 631.82 477.339 631.82C480.399 638.57 497.269 639.27 511.779 642.29C526.289 645.31 544.519 651.4 543.859 675.36C543.199 699.32 530.999 709.79 530.999 709.79L533.899 721.18L527.629 723.49C526.851 723.766 525.997 723.725 525.249 723.377C524.501 723.03 523.919 722.402 523.629 721.63L519.629 710.98C518.266 707.41 517.725 703.578 518.045 699.769C518.365 695.961 519.539 692.273 521.479 688.98L521.539 688.87C522.302 687.597 522.574 686.088 522.302 684.629C522.03 683.169 521.234 681.86 520.063 680.947C518.892 680.034 517.427 679.582 515.945 679.674C514.463 679.767 513.067 680.399 512.019 681.45C510.019 683.45 508.569 685.1 507.799 687.85C507.132 690.417 506.906 693.078 507.129 695.72C507.379 699.96 508.769 706.1 507.929 710.34C506.689 716.61 498.569 720.09 493.019 721.34L497.649 746.34C497.649 746.34 489.889 761.34 498.989 768.27C508.089 775.2 540.869 748.1 540.869 748.1L533.969 721.16" stroke="black" stroke-width="3.69" stroke-miterlimit="10"/>
<path d="M473.148 690.94H477.498" stroke="black" stroke-width="3.69" stroke-miterlimit="10"/>
<path d="M360.13 1363.46H127.93" stroke="black" stroke-width="3.69" stroke-miterlimit="10"/>
<path d="M751.549 1363.46H433.309" stroke="black" stroke-width="3.69" stroke-miterlimit="10"/>
</svg>
