<svg width="904" height="609" viewBox="0 0 904 609" fill="none" xmlns="http://www.w3.org/2000/svg">
<path d="M416.361 603.53C416.361 603.53 409.871 593.61 409.871 571.26C409.871 548.91 419.941 539 419.941 539C409.021 570.88 431.541 603.55 431.541 603.55C432.221 602.33 438.711 593.11 439.391 576.73C439.391 576.73 445.531 590.79 440.391 603.55" stroke="#B8ADD2" stroke-width="3.65" stroke-linejoin="round"/>
<path d="M559.24 603.53C559.24 603.53 563.24 597.43 563.24 583.69C563.24 569.95 557 563.84 557 563.84C563.72 583.44 549.87 603.53 549.87 603.53C549.45 602.78 545.46 597.11 545.04 587.04C545.04 587.04 541.27 595.68 544.42 603.53" stroke="#B8ADD2" stroke-width="3.65" stroke-linejoin="round"/>
<path d="M749.148 459.38L788.558 497.16V239.69" stroke="#B8ADD2" stroke-width="3.65" stroke-miterlimit="10"/>
<path d="M788.559 460.64L836.279 418.71" stroke="#B8ADD2" stroke-width="3.65" stroke-miterlimit="10"/>
<path d="M788.561 356.2L756.031 319.78" stroke="#B8ADD2" stroke-width="3.65" stroke-miterlimit="10"/>
<path d="M788.559 323.43L812.419 309.06" stroke="#B8ADD2" stroke-width="3.65" stroke-miterlimit="10"/>
<path d="M788.561 254.62C788.561 250.25 772.301 219.41 772.301 219.41" stroke="#B8ADD2" stroke-width="3.65" stroke-miterlimit="10"/>
<path d="M741 294.43C748.77 289.03 755.43 282.65 758.21 271.21C762.91 251.86 756.99 231.05 758.38 211.36C759.38 198.09 764.81 181.36 773.38 171.13C784.38 157.96 798.38 167.52 805.63 179.94C818 201 812.45 226.86 812.38 250C812.38 267.89 817.8 283.32 832.29 294.25C845.29 304.08 860.45 312.94 865.85 329.34C871.72 347.23 842.63 342.56 834.35 349.77C819.43 362.77 849.98 392.9 858.5 401.51C879.82 423.12 921 462.23 892 497.81C873.86 520.11 856 515.24 836.26 516.04L825.65 515.9C822.787 515.861 819.945 516.39 817.288 517.458C814.631 518.527 812.214 520.112 810.175 522.123C808.137 524.133 806.518 526.529 805.413 529.171C804.308 531.812 803.74 534.647 803.74 537.51L803.28 606.61" stroke="#B8ADD2" stroke-width="3.65" stroke-miterlimit="10"/>
<path d="M712.001 318.6C709.882 321.948 708.202 325.554 707.001 329.33C704.711 336.33 707.311 339.73 712.001 341.77C729.281 349.37 774.821 337.49 701.871 414.69C700.191 416.45 698.631 418.15 697.121 419.85C696.121 420.92 695.231 421.97 694.301 423.02" stroke="#B8ADD2" stroke-width="3.65" stroke-miterlimit="10"/>
<path d="M59.1 602.27C54.85 601.42 50.6696 600.4 46.6096 599.21C29.8896 594.32 10.4496 585.98 3.80962 568.45C2.13862 563.914 1.61111 559.037 2.27391 554.249C2.93671 549.461 4.76932 544.911 7.60962 541C10.6098 536.82 14.8345 533.675 19.6996 532C30.2696 528.65 41.9996 534 49.8096 541.85C57.62 549.7 62.7 559.85 68.81 569.14C63.26 556.69 57.62 543.9 56.81 530.29C56.21 519.69 59.1 508.19 66.41 500.23C73.14 492.89 88.87 487.15 98.14 492.54C104.26 496.1 106.69 503.65 107.75 510.65C110.62 529.78 106.93 549.21 103.25 568.2C105.72 558.05 108.37 547.8 113.41 538.64C118.45 529.48 126.16 521.39 136.05 518C142.97 515.63 151.2 515.88 157 520.35C162.41 524.52 164.83 531.56 165.57 538.35C166.81 549.73 164.13 561.28 159.57 571.76C142.4 610.89 94.7 609.41 59.1 602.27Z" stroke="#B8ADD2" stroke-width="3.65" stroke-miterlimit="10"/>
<path d="M97.8979 582.91C97.8979 582.91 124.408 590.27 133.768 553.43" stroke="#B8ADD2" stroke-width="3.65" stroke-miterlimit="10"/>
<path d="M86.0998 520C78.7298 536.71 86.0998 586.83 86.0998 586.83" stroke="#B8ADD2" stroke-width="3.65" stroke-miterlimit="10"/>
<path d="M61.529 581.77C60.429 581.58 49.7989 580.09 40.7289 575.93C33.7289 572.7 27.6289 567.87 27.6289 560.8" stroke="#B8ADD2" stroke-width="3.65" stroke-miterlimit="10"/>
<path d="M42.8582 560.8C42.8582 560.8 32.4882 572.88 40.7282 575.93" stroke="#B8ADD2" stroke-width="3.65" stroke-miterlimit="10"/>
<path d="M36 586.93C37.47 584.93 45.15 588.99 50.16 579.31" stroke="#B8ADD2" stroke-width="3.65" stroke-miterlimit="10"/>
<path d="M82.8298 542.12C80.2098 540.12 73.3298 542.12 72.3398 526.4" stroke="#B8ADD2" stroke-width="3.65" stroke-miterlimit="10"/>
<path d="M84 556.87C84 556.87 95.47 552.73 95.47 543.74" stroke="#B8ADD2" stroke-width="3.65" stroke-miterlimit="10"/>
<path d="M108.621 583.12C108.621 583.12 114.621 567.68 117.061 560.8" stroke="#B8ADD2" stroke-width="3.65" stroke-miterlimit="10"/>
<path d="M127.199 568.36C127.199 568.36 133.769 573.57 141.629 565.22" stroke="#B8ADD2" stroke-width="3.65" stroke-miterlimit="10"/>
<path d="M127.201 560.8C127.201 560.8 123.001 559 124.921 548.33" stroke="#B8ADD2" stroke-width="3.65" stroke-miterlimit="10"/>
<path d="M380.25 453.3V509.18H204.59C209.842 488.334 221.903 469.837 238.861 456.624C255.818 443.411 276.702 436.237 298.2 436.24H363.2C367.723 436.243 372.059 438.041 375.257 441.241C378.454 444.44 380.25 448.777 380.25 453.3Z" fill="#D4CEE4"/>
<path d="M423.29 353.55C423.29 353.55 426 352.91 426.9 362.55C427.8 372.19 434.9 393.55 423.29 393.1C411.68 392.65 272 392.85 272 392.85C272 392.85 250.46 399.05 247.85 382.01C245.24 364.97 246.4 342.76 269.09 335.48C269.09 335.48 300.87 350.391 334.35 351.901C367.83 353.411 423.29 353.55 423.29 353.55Z" fill="#2E2E2E"/>
<path d="M693.999 438C693.999 438 686.529 432.84 668.789 439.58C651.049 446.32 617.669 454.67 600.509 508.78H380.319V452.88C380.316 448.355 378.517 444.015 375.316 440.816C372.115 437.617 367.774 435.82 363.249 435.82H286.709C266.956 435.812 247.677 441.865 231.474 453.164C215.272 464.463 202.928 480.462 196.109 499H193.629V485.57C193.749 484.16 193.919 482.77 194.089 481.41C200.279 434.17 241.579 399.41 289.209 399.41H411.669V455.73C411.669 461.085 413.52 466.276 416.908 470.423C420.295 474.571 425.012 477.42 430.259 478.49C431.768 478.78 433.302 478.924 434.839 478.92H512.139C530.621 478.971 548.802 474.234 564.909 465.17C599.909 445.43 636.299 405.61 637.169 317.31V289.31L638.049 288.73C638.049 288.73 642.159 270.52 661.249 274.63C663.846 276.281 666.17 278.325 668.139 280.69C671.709 285.03 674.759 291.48 671.489 299.41C671.489 299.41 664.899 311.9 649.879 309.93C649.597 310.873 649.402 311.841 649.299 312.82C649.174 314.027 649.174 315.243 649.299 316.45C649.829 320.71 652.509 325.45 661.899 325.33H662.459C680.109 324.8 693.569 309.49 693.839 294.84C694.059 282.64 687.729 268.84 670.059 257.33C670.033 257.336 670.005 257.336 669.979 257.33C667.921 255.96 665.795 254.695 663.609 253.54C661.809 252.54 659.929 251.61 657.939 250.69C654.555 250.023 651.326 248.727 648.419 246.87H704.889C706.618 246.87 708.277 247.557 709.499 248.78C710.722 250.003 711.409 251.661 711.409 253.39V340.89C711.41 341.747 711.243 342.596 710.915 343.388C710.588 344.181 710.108 344.9 709.503 345.507C708.897 346.113 708.178 346.595 707.386 346.923C706.595 347.251 705.746 347.42 704.889 347.42C703.384 347.411 701.892 347.7 700.5 348.272C699.108 348.844 697.843 349.686 696.779 350.75C695.715 351.814 694.872 353.079 694.301 354.471C693.729 355.863 693.44 357.355 693.449 358.86V404.86C693.424 412.446 695.814 419.843 700.273 425.981C704.731 432.118 711.027 436.678 718.249 439C718.619 439.12 718.979 439.24 719.349 439.34C735.76 443.908 750.669 452.739 762.561 464.936C774.454 477.132 782.906 492.259 787.059 508.78H614.369C615.849 503.24 633.059 444.1 693.999 438Z" fill="#D4CEE4"/>
<path d="M303.67 347.81C295.241 346.146 286.983 343.709 279 340.53L303.67 347.81Z" fill="#2E2E2E"/>
<path d="M227.119 284.6C212.639 281.68 194.039 278.98 185.279 265.52C184.039 263.64 182.479 261.4 182.139 259.14C182.093 258.876 182.069 258.608 182.069 258.34C181.919 253.83 187.299 254.12 190.749 254.66C198.979 255.93 207.109 257.73 215.189 259.66C217.603 260.22 219.996 260.797 222.369 261.39C223.032 269.287 224.627 277.078 227.119 284.6Z" fill="black"/>
<path d="M633.571 278.39C627.101 295.87 613.951 295.94 613.741 295.94C585.671 289.18 581.871 288.42 560.581 280.36C495.181 255.59 458.741 226.11 439.341 201.89C422.231 219.17 417.411 227.57 411.841 245.53C411.51 246.644 411.109 247.736 410.641 248.8C410.641 248.8 410.641 248.92 410.571 248.97L409.431 251.38C409.422 251.413 409.405 251.445 409.381 251.47C405.871 258.19 395.331 267.2 388.621 270.38L265.921 269.48L215.201 259.65C207.111 257.73 198.991 255.93 190.761 254.65C188.301 254.26 184.841 254.02 183.141 255.55C182.753 255.893 182.453 256.325 182.266 256.809C182.08 257.293 182.013 257.814 182.071 258.33C182.071 252.46 185.121 248.44 188.671 244.19C192.441 239.61 196.241 235.03 200.011 230.48C221.211 205.19 241.901 179.48 263.151 154.25C268.381 148.04 273.711 141.96 279.411 136.19C299.341 115.94 322.411 98.1896 347.661 84.9996C388.571 63.7496 420.311 55.9996 446.061 57.7196H446.381C448.551 57.8896 450.661 58.1096 452.761 58.3796L453.641 58.4996C473.381 61.2996 489.491 69.8896 503.641 82.0896C505.328 84.0416 506.834 86.1436 508.141 88.3696C513.931 98.1796 517.901 108.67 521.961 119.25C541.441 170.25 576.961 215.42 628.181 236.96L628.351 240.81V242.05C628.351 241.76 628.351 241.37 628.351 240.81C628.351 239.91 628.281 238.66 628.211 236.96C628.211 236.79 628.211 236.62 628.211 236.45L631.991 238.45L636.081 240.67C636.071 240.743 636.071 240.817 636.081 240.89C637.201 257.07 636.541 270.34 633.571 278.39Z" fill="#2E2E2E"/>
<path d="M83.9688 604.57H741.079" stroke="black" stroke-width="3.65" stroke-miterlimit="10"/>
<path d="M412.199 247.27H456.729C488.589 247.27 507.729 277.95 503.799 309.27L484.149 452.53H435.279L425.999 353.31" stroke="black" stroke-width="3.65" stroke-miterlimit="10"/>
<path d="M423.922 146.66C423.922 146.66 402.222 244.83 614.582 296C614.582 296 641.732 296.77 636.052 240.79" stroke="black" stroke-width="3.65" stroke-miterlimit="10"/>
<path d="M436.899 353.55H386.589C312.769 353.55 256.829 348.47 232.449 295.94C227.38 285.046 224.256 273.35 223.219 261.38" stroke="black" stroke-width="3.65" stroke-miterlimit="10"/>
<path d="M634.419 276.54C647.539 276.64 641.339 275.76 654.139 279.27C661.219 281.27 667.359 284.82 667.379 293.68C667.379 305.22 642.579 306.26 650.069 319.28C658.069 333.21 683.399 319.97 688.409 310.96C710.709 270.77 660.909 251.57 630.969 238.13" stroke="black" stroke-width="3.65" stroke-miterlimit="10"/>
<path d="M228 284.6C213.52 281.68 194.93 278.98 186.16 265.52C184.92 263.64 183.36 261.4 183.02 259.14C182.2 253.81 188.02 254.14 191.64 254.66C215.91 258.36 239.2 266.88 263.64 269.09C270.45 269.7 277.32 270 284.16 270H379.86C387.233 269.971 394.404 267.579 400.318 263.175C406.232 258.771 410.579 252.587 412.72 245.53C417.44 230.3 425.5 213.99 439.22 201.53" stroke="black" stroke-width="3.65" stroke-miterlimit="10"/>
<path d="M534.478 61.7404C533.478 61.7404 479.088 56.0104 453.578 58.4004" stroke="black" stroke-width="3.65" stroke-miterlimit="10"/>
<path d="M655.349 309.95C665.097 309.95 672.999 302.048 672.999 292.3C672.999 282.553 665.097 274.65 655.349 274.65C645.601 274.65 637.699 282.553 637.699 292.3C637.699 302.048 645.601 309.95 655.349 309.95Z" fill="#9B8CC0"/>
<path d="M655.349 309.95C665.097 309.95 672.999 302.048 672.999 292.3C672.999 282.553 665.097 274.65 655.349 274.65C645.601 274.65 637.699 282.553 637.699 292.3C637.699 302.048 645.601 309.95 655.349 309.95Z" stroke="black" stroke-width="3.65" stroke-miterlimit="10"/>
<path d="M655.349 309.95C665.097 309.95 672.999 302.048 672.999 292.3C672.999 282.553 665.097 274.65 655.349 274.65C645.601 274.65 637.699 282.553 637.699 292.3C637.699 302.048 645.601 309.95 655.349 309.95Z" stroke="black" stroke-width="3.65" stroke-miterlimit="10"/>
<path d="M518.839 58.2897C520.326 62.1267 522.181 65.8107 524.379 69.2897C524.609 69.6697 526.239 68.9497 527.589 70.8797C530.359 74.8197 535.589 75.2697 536.959 73.6497L536.829 73.5597L535.349 72.6597L538.689 73.4297L540.879 73.5097L544.109 70.3597C544.109 70.3597 528.729 58.8097 536.439 50.7697C536.439 50.7697 536.439 50.7697 536.499 50.7097C536.667 50.5347 536.818 50.3437 536.949 50.1397C537.329 49.5397 536.869 49.5697 537.599 49.4597C538.146 48.9307 538.804 48.5297 539.525 48.2867C540.246 48.0427 541.013 47.9617 541.769 48.0497C542.621 48.0827 543.441 48.3867 544.109 48.9197C544.209 43.0697 543.679 36.5097 547.259 33.9197C548.699 30.9197 551.079 28.9197 554.879 29.0697C555.979 29.1197 556.979 29.1997 557.929 29.3297L568.219 31.8097C570.389 28.8097 571.999 31.3797 575.029 32.3797C576.068 32.7277 577.177 32.8167 578.259 32.6397C579.724 32.3887 581.076 31.6897 582.129 30.6397C584.069 25.9597 584.419 20.0997 582.719 16.5797C582.719 16.5797 573.269 16.2297 566.719 14.4897C560.169 12.7497 557.819 0.939672 539.039 12.8697C538.058 13.4877 536.963 13.9027 535.819 14.0897C533.819 14.3597 530.649 14.4797 528.389 13.2097C528.221 13.1227 528.06 13.0227 527.909 12.9097C527.662 12.7687 527.436 12.5937 527.239 12.3897C527.799 12.9397 526.049 18.0897 525.149 20.6497C525.143 20.6787 525.143 20.7097 525.149 20.7397C525.039 21.0897 524.909 21.3797 524.829 21.6097V21.6797C524.791 21.7887 524.747 21.8947 524.699 21.9997C523.806 23.9737 522.649 25.8177 521.259 27.4797L520.579 28.3897C519.667 29.5737 518.876 30.8467 518.219 32.1897C514.339 40.2597 515.489 49.6097 518.839 58.2897Z" fill="#9B8CC0"/>
<path d="M536.911 73.6897C540.311 74.0397 543.501 73.4596 544.131 70.3596L544.241 69.8297C544.241 69.8297 529.571 59.7197 536.461 50.7697C536.461 50.7697 536.461 50.7697 536.521 50.7097C536.581 50.6497 536.721 50.4297 536.821 50.3097C536.921 50.1897 536.931 50.1897 536.971 50.1397C537.211 49.8797 537.391 49.6697 537.621 49.4597C539.291 47.8197 540.621 47.5397 541.791 48.0497C542.083 48.1787 542.35 48.3577 542.581 48.5797C544.421 50.1497 545.471 53.8497 546.041 56.5797C545.281 51.1597 544.221 40.2297 547.281 33.9197C548.721 30.9197 551.101 28.9197 554.901 29.0697L557.951 29.3297L568.241 31.8097L575.051 32.3797L578.281 32.6397C579.746 32.3887 581.098 31.6897 582.151 30.6397C587.051 26.0297 588.861 14.8097 586.071 9.45966C586.071 9.45966 576.261 9.71965 569.391 8.32965C562.521 6.93965 559.561 -6.02034 539.211 9.51966C535.931 11.5197 532.111 13.1697 528.411 11.4097C528.456 12.0087 528.456 12.6107 528.411 13.2097C528.291 14.2317 527.997 15.2267 527.541 16.1497C526.801 17.6697 526.021 19.1497 525.171 20.6497C525.165 20.6787 525.165 20.7097 525.171 20.7397C524.361 22.1697 523.491 23.5997 522.661 25.0197C522.171 25.8597 521.661 26.6697 521.261 27.4797C519.554 30.3977 518.306 33.5617 517.561 36.8597C516.788 40.6847 516.583 44.6037 516.951 48.4897C517.255 51.8297 517.926 55.1257 518.951 58.3197C520.801 64.3197 522.601 69.0996 528.861 71.6096C531.445 72.6416 534.15 73.3407 536.911 73.6897Z" stroke="black" stroke-width="3.65" stroke-miterlimit="10"/>
<path d="M575.478 41.4197C575.478 41.4197 565.568 41.1797 562.988 49.4197" stroke="black" stroke-width="3.65" stroke-miterlimit="10"/>
<path d="M579.1 32.8203L579.31 51.1403C579.339 51.6983 579.542 52.2333 579.89 52.6703C582.01 55.9703 583.95 59.4003 585.83 62.8603C586.06 63.2823 586.184 63.7543 586.19 64.2343C586.196 64.7153 586.084 65.1903 585.864 65.6173C585.644 66.0453 585.323 66.4113 584.928 66.6863C584.533 66.9603 584.077 67.1333 583.6 67.1903C581.408 67.3663 579.203 67.1463 577.09 66.5403" stroke="black" stroke-width="3.65" stroke-miterlimit="10"/>
<path d="M572.762 52.7842C574.187 52.6602 575.224 51.2032 575.078 49.5302C574.931 47.8582 573.657 46.6032 572.232 46.7272C570.807 46.8522 569.771 48.3092 569.917 49.9822C570.064 51.6542 571.337 52.9092 572.762 52.7842Z" fill="black"/>
<path d="M579.999 68.4502C577.439 78.6002 568.119 96.6802 554.999 93.7902C548.839 92.4302 544.629 86.0902 540.559 81.7402" stroke="black" stroke-width="3.65" stroke-linecap="round" stroke-linejoin="round"/>
<path d="M712.002 261.35C726.872 268.97 737.002 284.02 737.002 301.35C737.002 319.22 726.272 334.65 710.672 342.03L712.002 261.35Z" fill="#9B8CC0"/>
<path d="M494.002 452.53H435.102V479.31H510.352V468.89C510.352 464.553 508.629 460.393 505.563 457.326C502.497 454.258 498.339 452.533 494.002 452.53Z" stroke="black" stroke-width="3.65" stroke-miterlimit="10"/>
<path d="M548.682 90.3896C535.952 93.1696 518.422 110.14 518.422 110.14" stroke="black" stroke-width="3.65" stroke-miterlimit="10"/>
<path d="M575.479 79.8403C575.479 79.8403 569.719 81.3703 567.309 73.7803" stroke="black" stroke-width="3.65" stroke-miterlimit="10"/>
<path d="M266.461 334C266.461 334 228.951 359.53 256.461 395.5" stroke="black" stroke-width="3.65" stroke-miterlimit="10"/>
<path d="M196.61 499.45H182V479.31C182.14 477.9 182.29 476.52 182.47 475.15C188.64 427.91 229.95 393.15 277.59 393.15H412.2V456.15C412.199 459.193 412.797 462.207 413.961 465.02C415.125 467.832 416.831 470.387 418.983 472.54C421.134 474.693 423.689 476.4 426.501 477.565C429.313 478.73 432.326 479.33 435.37 479.33H512.67C531.156 479.378 549.34 474.648 565.46 465.6C600.4 445.82 636.83 406 637.7 317.71V292.3" stroke="black" stroke-width="3.65" stroke-miterlimit="10"/>
<path d="M182.899 258.31C182.891 257.388 182.972 256.467 183.139 255.56C183.869 251.13 186.519 247.77 189.469 244.2C193.269 239.62 197.039 235.04 200.839 230.49C222.029 205.2 242.719 179.49 263.969 154.26C269.179 148.05 274.539 141.97 280.229 136.2C300.169 115.95 323.229 98.2 348.479 85.01C370.239 73.72 393.359 63.86 417.629 59.58C426.992 57.867 436.523 57.247 446.029 57.73H446.349C455.831 58.236 465.18 60.192 474.069 63.53C485.219 67.76 495.959 73.16 503.649 82.1C505.336 84.053 506.842 86.155 508.149 88.38C513.939 98.19 517.909 108.68 521.969 119.26C541.449 170.26 576.969 215.43 628.189 236.97C629.089 237.38 629.989 237.75 630.909 238.11C631.249 238.26 631.599 238.38 631.909 238.5C632.779 238.87 633.679 239.19 634.609 239.5" stroke="black" stroke-width="3.65" stroke-miterlimit="10"/>
<path d="M712 253.52C720.621 257.079 727.992 263.117 733.178 270.869C738.364 278.621 741.133 287.738 741.133 297.065C741.133 306.391 738.364 315.508 733.178 323.26C727.992 331.012 720.621 337.05 712 340.609" stroke="black" stroke-width="3.65" stroke-miterlimit="10"/>
<path d="M380.849 509.18H193.629C198.881 488.334 210.942 469.837 227.9 456.624C244.857 443.411 265.741 436.237 287.239 436.24H363.789C368.314 436.24 372.653 438.038 375.852 441.237C379.052 444.436 380.849 448.776 380.849 453.3V509.18Z" stroke="black" stroke-width="3.65" stroke-miterlimit="10"/>
<path d="M193.629 509.18H380.849H600.369" stroke="black" stroke-width="3.65" stroke-miterlimit="10"/>
<path d="M651.101 247.26H705.421C707.153 247.26 708.814 247.948 710.039 249.172C711.263 250.397 711.951 252.058 711.951 253.79V341.29C711.951 342.147 711.782 342.995 711.454 343.787C711.126 344.579 710.644 345.298 710.038 345.904C709.431 346.509 708.711 346.989 707.919 347.316C707.127 347.643 706.278 347.811 705.421 347.81C702.39 347.815 699.486 349.023 697.345 351.168C695.204 353.312 694.001 356.219 694.001 359.25V405.25C693.962 413.042 696.472 420.634 701.148 426.868C705.824 433.102 712.409 437.636 719.901 439.78C736.304 444.362 751.205 453.197 763.097 465.389C774.989 477.581 783.449 492.698 787.621 509.21H600.371C605.62 488.355 617.682 469.851 634.644 456.631C651.606 443.412 672.496 436.235 694.001 436.24" stroke="black" stroke-width="3.65" stroke-miterlimit="10"/>
<path d="M356.461 509.18C359.901 520.058 360.73 531.593 358.879 542.851C357.028 554.109 352.55 564.772 345.808 573.976C339.066 583.18 330.25 590.665 320.074 595.825C309.898 600.985 298.65 603.674 287.241 603.674C275.832 603.674 264.583 600.985 254.407 595.825C244.232 590.665 235.415 583.18 228.673 573.976C221.931 564.772 217.453 554.109 215.602 542.851C213.751 531.593 214.58 520.058 218.021 509.18" stroke="black" stroke-width="3.65" stroke-miterlimit="10"/>
<path d="M763.21 509.18C766.654 520.06 767.485 531.598 765.635 542.859C763.785 554.12 759.308 564.787 752.565 573.993C745.822 583.2 737.004 590.688 726.826 595.85C716.648 601.011 705.397 603.701 693.985 603.701C682.573 603.701 671.322 601.011 661.144 595.85C650.966 590.688 642.148 583.2 635.405 573.993C628.662 564.787 624.184 554.12 622.335 542.859C620.485 531.598 621.316 520.06 624.76 509.18" stroke="black" stroke-width="3.65" stroke-miterlimit="10"/>
<path d="M693.981 543.32C700.719 543.32 706.181 537.858 706.181 531.12C706.181 524.382 700.719 518.92 693.981 518.92C687.243 518.92 681.781 524.382 681.781 531.12C681.781 537.858 687.243 543.32 693.981 543.32Z" fill="black"/>
<path d="M287.239 543.32C293.977 543.32 299.439 537.858 299.439 531.12C299.439 524.382 293.977 518.92 287.239 518.92C280.501 518.92 275.039 524.382 275.039 531.12C275.039 537.858 280.501 543.32 287.239 543.32Z" fill="black"/>
<path d="M412.199 393.14H429.499" stroke="black" stroke-width="3.65" stroke-miterlimit="10"/>
<path d="M614.371 508.77C614.301 509.04 614.271 509.18 614.271 509.18H600.371C600.426 509.048 600.466 508.91 600.491 508.77H614.371Z" fill="#D4CEE4"/>
<path d="M232.31 597.75C227.586 593.849 223.286 589.462 219.48 584.66" stroke="black" stroke-width="3.65" stroke-miterlimit="10"/>
<path d="M373.58 531.11C373.612 547.75 368.807 564.041 359.75 578" stroke="black" stroke-width="3.65" stroke-miterlimit="10"/>
<path d="M612.728 557C611.014 551.132 609.928 545.098 609.488 539" stroke="black" stroke-width="3.65" stroke-miterlimit="10"/>
<path d="M778.228 531.11C778.26 547.75 773.455 564.041 764.398 578" stroke="black" stroke-width="3.65" stroke-miterlimit="10"/>
<path d="M209.431 568.62C203.788 556.922 200.868 544.098 200.891 531.11" stroke="black" stroke-width="3.65" stroke-miterlimit="10"/>
<path d="M400.44 51.3799C400.44 51.3799 350.33 58.6399 296.5 104.08" stroke="black" stroke-width="3.65" stroke-miterlimit="10"/>
</svg>
