<svg width="223" height="225" viewBox="0 0 223 225" fill="none" xmlns="http://www.w3.org/2000/svg">
<path d="M138.373 111.472C138.343 108.205 138.961 104.964 140.19 101.937L140.19 101.937C141.421 98.9089 143.238 96.1542 145.54 93.8323C147.84 91.5104 150.578 89.6673 153.595 88.4096C156.612 87.1518 159.848 86.5042 163.117 86.5042C166.386 86.5042 169.622 87.1518 172.639 88.4096C175.656 89.6673 178.393 91.5104 180.694 93.8323C182.995 96.1542 184.813 98.9089 186.043 101.937L186.043 101.937C187.272 104.963 187.89 108.204 187.861 111.471C187.888 131.644 179.907 151.003 165.673 165.298C158.726 172.412 150.427 178.066 141.265 181.926C132.1 185.786 122.255 187.775 112.311 187.775C102.367 187.775 92.5217 185.786 83.357 181.926C74.1935 178.065 65.8945 172.412 58.9481 165.297C44.7348 150.987 36.7578 131.637 36.7578 111.467C36.7578 91.2978 44.7349 71.9472 58.9484 57.6374C72.4042 43.8694 90.6582 35.8321 109.898 35.2028C110.163 35.1753 110.429 35.161 110.695 35.1601C113.099 35.1107 115.388 34.1255 117.076 32.414C118.766 30.7003 119.719 28.3944 119.733 25.988V25.9876C119.747 23.5811 118.821 21.2643 117.151 19.5313L117.871 18.8374L117.151 19.5313C115.485 17.8025 113.211 16.7911 110.813 16.7112C98.465 16.7889 86.2552 19.3157 74.8907 24.1453C63.5203 28.9774 53.2222 36.0186 44.5935 44.8605L44.5871 44.8672L44.587 44.8671C26.7275 62.8322 16.7031 87.1347 16.7031 112.467C16.7031 137.799 26.7275 162.101 44.587 180.066L44.5942 180.073C53.2732 188.984 63.6489 196.066 75.1092 200.902C86.5694 205.737 98.8822 208.228 111.321 208.228C123.759 208.228 136.072 205.737 147.532 200.902C158.993 196.066 169.369 188.984 178.047 180.073L178.055 180.065C195.938 162.119 205.967 137.807 205.939 112.472L205.939 112.459C205.964 110.393 206.802 108.42 208.272 106.968C209.742 105.515 211.725 104.701 213.792 104.701C215.858 104.701 217.84 105.515 219.311 106.968C220.781 108.42 221.619 110.393 221.644 112.459L221.644 112.47C221.684 141.947 210.021 170.234 189.217 191.118L189.216 191.117C179.078 201.502 166.966 209.756 153.592 215.391C140.212 221.028 125.841 223.933 111.323 223.933C96.8045 223.933 82.4329 221.028 69.054 215.391C55.6762 209.754 43.5612 201.497 33.4219 191.108C12.655 170.203 0.999756 141.934 0.999756 112.467C0.999756 82.9997 12.6552 54.7291 33.4225 33.8242C43.4688 23.5398 55.4512 15.3455 68.6793 9.71366C81.904 4.08319 96.1121 1.12528 110.485 1.01027C110.492 1.00991 110.502 1.00923 110.523 1.00779L110.541 1.00661C110.576 1.00429 110.638 1.00012 110.708 1.00012H110.708H110.709H110.709H110.709H110.71H110.71H110.711H110.711H110.711H110.712H110.712H110.712H110.713H110.713H110.714H110.714H110.714H110.715H110.715H110.716H110.716H110.716H110.717H110.717H110.717H110.718H110.718H110.719H110.719H110.719H110.72H110.72H110.721H110.721H110.721H110.722H110.722H110.723H110.723H110.723H110.724H110.724H110.724H110.725H110.725H110.726H110.726H110.726H110.727H110.727H110.728H110.728H110.728H110.729H110.729H110.729H110.73H110.73H110.731H110.731H110.731H110.732H110.732H110.733H110.733H110.733H110.734H110.734H110.735H110.735H110.735H110.736H110.736H110.736H110.737H110.737H110.738H110.738H110.738H110.739H110.739H110.74H110.74H110.74H110.741H110.741H110.741H110.742H110.742H110.743H110.743H110.743H110.744H110.744H110.745H110.745H110.745H110.746H110.746H110.747H110.747H110.747H110.748H110.748H110.748H110.749H110.749H110.75H110.75H110.75H110.751H110.751H110.752H110.752H110.752H110.753H110.753H110.753H110.754H110.754H110.755H110.755H110.755H110.756H110.756H110.757H110.757H110.757H110.758H110.758H110.759H110.759H110.759H110.76H110.76H110.76H110.761H110.761H110.762H110.762H110.762H110.763H110.763H110.764H110.764H110.764H110.765H110.765H110.766H110.766H110.766H110.767H110.767H110.767H110.768H110.768H110.769H110.769H110.769H110.77H110.77H110.771H110.771H110.771H110.772H110.772H110.772H110.773H110.773H110.774H110.774H110.774H110.775H110.775H110.776H110.776H110.776H110.777H110.777H110.778H110.778H110.778H110.779H110.779H110.779H110.78H110.78H110.781H110.781H110.781H110.782H110.782H110.783H110.783H110.783H110.784H110.784H110.785H110.785H110.785H110.786H110.786H110.786H110.787H110.787H110.788H110.788H110.788H110.789H110.789H110.79H110.79H110.79H110.791H110.791H110.792H110.792H110.792H110.793H110.793H110.793H110.794H110.794H110.795H110.795H110.795H110.796H110.796H110.797H110.797H110.797H110.798H110.798H110.799H110.799H110.799H110.8H110.8H110.8H110.801H110.801H110.802H110.802H110.802H110.803H110.803H110.804H110.804H110.804H110.805H110.805H110.806H110.806H110.806H110.807H110.807H110.807H110.808H110.808H110.809H110.809H110.809H110.81H110.81H110.811H110.811H110.811H110.812H110.812H110.813H110.813H110.813H110.814H110.814H110.814H110.815H110.815H110.816H110.816H110.816H110.817H110.817H110.818H110.818H110.818H110.819H110.819H110.82H110.82H110.82H110.821H110.821H110.822H110.822H110.822H110.823H110.823H110.823H110.824H110.824H110.825H110.825H110.825H110.826H110.826H110.827H110.827H110.827H110.828H110.828H110.829H110.829H110.829H110.83H110.83H110.831H110.831H110.831H110.832H110.832H110.832H110.833H110.833H110.834H110.834H110.834H110.835H110.835H110.836H110.836H110.836H110.837H110.837H110.838H110.838H110.838H110.839H110.839H110.84H110.84H110.84H110.841H110.841H110.841H110.842H110.842H110.843H110.843H110.843H110.844H110.844H110.845H110.845H110.845H110.846H110.846H110.847H110.847H110.847H110.848H110.848H110.849H110.849H110.849H110.85H110.85H110.851H110.851H110.851H110.852H110.852H110.852H110.853H110.853H110.854H110.854H110.854H110.855H110.855H110.856H110.856H110.856H110.857H110.857H110.858H110.858H110.858H110.859H110.859H110.86H110.86H110.86H110.861H110.861H110.862H110.862H110.862H110.863H110.863H110.863H110.864H110.864H110.865H110.865H110.865H110.866H110.866H110.867H110.867H110.867H110.868H110.868H110.869H110.869H110.869H110.87H110.87H110.871H110.871H110.871H110.872H110.872H110.873H110.873H110.873H110.874H110.874H110.875H110.875H110.875H110.876H110.876H110.876H110.877H110.877H110.878H110.878H110.878H110.879H110.879H110.88H110.88H110.88H110.881H110.881H110.882H110.882H110.882H110.883H110.883H110.884H110.884H110.884H110.885H110.885H110.886H110.886H110.886H110.887H110.887H110.888H110.888H110.888H110.889H110.889H110.89H110.89H110.89H110.891H110.891H110.892H110.892H110.892H110.893H110.893H110.894H110.894H110.894H110.895H110.895H110.896H110.896H110.896H110.897H110.897H110.897H110.898H110.898H110.899H110.899H110.899H110.9H110.9H110.901H110.901H110.901H110.902H110.902H110.903H110.903H110.903H110.904H110.904H110.905H110.905H110.905H110.906H110.906H110.907H110.907H110.907H110.908H110.909H110.909H110.91H110.911H110.912H110.913H110.913H110.914H110.915H110.916H110.917H110.918H110.918H110.919H110.92H110.921H110.922H110.922H110.923H110.924H110.925H110.926H110.926H110.927H110.928H110.929H110.93H110.93H110.931H110.932H110.933H110.934H110.935H110.935H110.936H110.937H110.938H110.939H110.939H110.94H110.941H110.942H110.943H110.943H110.944H110.945H110.946H110.947H110.947H110.948H110.949H110.95H110.951H110.951H110.952H110.953H110.954H110.955H110.956H110.956H110.957H110.958H110.959H110.96H110.96H110.961H110.962H110.963H110.964H110.964H110.965H110.966H110.967H110.968H110.968H110.969H110.97H110.971H110.972H110.972H110.973H110.974H110.975H110.976H110.976H110.977H110.978H110.979H110.98H110.981H110.981H110.982H110.983H110.984H110.985H110.985H110.986H110.987H110.988H110.989H110.989H110.99H110.991H110.992H110.993H110.993H110.994H110.995H110.996H110.997H110.997H110.998H110.999L111 1.00012H111.001H111.002H111.002H111.003H111.004H111.005H111.006H111.006H111.007H111.008H111.009H111.01H111.01H111.011H111.012H111.013H111.014H111.014H111.015H111.016H111.017H111.018H111.018H111.019H111.02H111.021H111.022H111.022H111.023H111.024H111.025H111.026H111.026H111.027H111.028H111.029H111.03H111.031H111.031H111.032H111.033H111.034H111.035H111.035H111.036H111.037H111.038H111.039H111.039H111.04H111.041H111.042H111.043H111.043H111.044H111.045H111.046H111.047H111.047H111.048H111.049H111.05H111.051H111.051H111.052H111.053H111.054H111.055H111.056H111.056H111.057H111.058H111.059H111.06H111.06H111.061H111.062H111.063H111.064H111.064H111.065H111.066H111.067H111.068H111.068H111.069H111.07H111.071H111.072H111.072H111.073H111.074H111.075H111.076H111.076H111.077H111.078H111.079H111.08H111.08H111.081H111.082H111.083H111.084H111.085H111.085H111.086H111.087H111.088H111.089H111.089H111.09H111.091H111.092H111.093H111.093H111.094H111.095H111.096H111.097H111.097H111.098H111.099H111.1H111.101H111.101H111.102H111.103H111.104H111.105H111.105H111.106H111.107H111.108H111.109H111.109H111.11H111.111H111.112H111.113H111.114H111.114H111.115H111.116H111.117H111.118H111.118H111.119H111.12H111.121H111.122H111.122H111.123H111.124H111.125H111.126H111.126H111.127H111.128H111.129H111.13H111.13H111.131H111.132H111.133H111.134H111.134H111.135H111.136H111.137H111.138H111.139H111.139H111.14H111.141H111.142H111.143H111.143H111.144H111.145H111.146H111.147H111.147H111.148H111.149H111.15H111.151H111.151H111.152H111.153H111.154H111.155H111.155H111.156H111.157H111.158H111.159H111.159H111.16H111.161H111.162H111.163H111.163H111.164H111.165H111.166H111.167H111.168H111.168H111.169H111.17H111.171H111.172H111.172H111.173H111.174H111.175H111.176H111.176H111.177H111.178H111.179H111.18H111.18H111.181H111.182H111.183H111.184H111.184H111.185H111.186H111.187H111.188H111.188H111.189H111.19H111.191H111.192H111.192H111.193H111.194H111.195H111.196H111.197H111.197H111.198H111.199H111.2H111.201H111.201H111.202H111.203H111.204H111.205H111.205H111.206H111.207H111.208H111.209H111.209H111.21H111.211H111.212H111.213H111.213H111.214H111.215H111.216H111.217H111.217H111.218H111.219H111.22H111.221H111.222H111.222H111.223H111.224H111.225H111.226H111.226H111.227H111.228H111.229H111.23H111.23H111.231H111.232H111.233H111.234H111.234H111.235H111.236H111.237H111.238H111.238H111.239H111.24H111.241H111.242H111.242H111.243H111.244H111.245H111.246H111.247H111.247H111.248H111.249H111.25H111.251H111.251H111.252H111.253H111.254H111.255H111.255H111.256H111.257H111.258H111.259H111.259H111.26H111.261H111.262H111.263H111.263H111.264H111.265H111.266H111.267H111.268H111.268H111.269H111.27H111.271H111.272H111.272H111.273H111.274H111.275H111.276H111.276H111.277H111.278H111.279H111.28H111.28H111.281H111.282H111.283H111.284H111.284H111.285H111.286H111.287H111.288H111.289H111.289H111.29H111.291H111.292H111.293H111.293H111.294H111.295H111.296H111.297H111.297H111.298H111.299H111.3H111.301H111.301H111.302H111.303H111.304H111.305H111.305H111.306H111.307H111.308H111.309H111.31H111.31H111.311H111.312H111.313H111.314H111.314H111.315H111.316H111.317H111.318H111.318H111.319H111.32H111.321H111.323C111.599 1.0007 111.875 1.01555 112.149 1.04464C118.276 1.45103 124.038 4.10275 128.333 8.49261C132.632 12.8874 135.158 18.7149 135.425 24.8574C135.692 30.9997 133.681 37.0243 129.779 41.7754C125.889 46.5113 120.393 49.6495 114.338 50.5926C113.677 50.7716 112.996 50.8632 112.312 50.8651L112.31 50.8651C104.446 50.8736 96.664 52.4533 89.4197 55.5117C82.1753 58.5699 75.6153 63.0451 70.1247 68.6743L70.118 68.6812C58.8128 80.0511 52.467 95.4333 52.467 111.467C52.467 127.501 58.8128 142.883 70.118 154.253L70.1255 154.261C75.6114 159.897 82.171 164.376 89.417 167.435C96.6629 170.494 104.448 172.069 112.313 172.069C120.178 172.069 127.964 170.494 135.21 167.435C142.456 164.376 149.015 159.897 154.501 154.261L154.509 154.252C165.829 142.893 172.178 127.505 172.16 111.468L172.16 111.458L172.16 111.447C172.184 110.245 171.968 109.05 171.524 107.932L171.524 107.932C171.081 106.815 170.419 105.796 169.578 104.938C168.736 104.079 167.731 103.397 166.623 102.931C165.514 102.466 164.323 102.226 163.121 102.226C161.919 102.226 160.727 102.466 159.619 102.931C158.511 103.397 157.506 104.079 156.664 104.938C155.823 105.796 155.16 106.815 154.717 107.932L154.717 107.932C154.273 109.05 154.057 110.245 154.082 111.447L154.082 111.457V111.467C154.082 111.673 154.07 111.869 154.056 112.047C154.07 112.224 154.082 112.418 154.082 112.627C154.082 120.94 151.62 129.067 147.007 135.982C142.393 142.897 135.834 148.291 128.159 151.482C120.483 154.674 112.034 155.521 103.878 153.917C95.7209 152.312 88.2223 148.327 82.3279 142.466L83.033 141.757L82.3279 142.466C76.4334 136.604 72.4073 129.128 70.7571 120.981C69.1071 112.833 69.9071 104.379 73.0563 96.6859C76.2055 88.9925 81.5628 82.4043 88.4522 77.7523C95.3409 73.101 103.453 70.5938 111.765 70.5471C112.803 70.535 113.833 70.7289 114.795 71.1174L114.795 71.1174C115.759 71.5065 116.636 72.0829 117.375 72.8133C118.113 73.5433 118.701 74.4132 119.102 75.3731M138.373 111.472C138.373 111.47 138.373 111.469 138.373 111.467H139.373L138.373 111.476C138.373 111.475 138.373 111.473 138.373 111.472ZM138.373 111.472C138.373 111.679 138.385 111.871 138.399 112.047C138.385 112.226 138.373 112.421 138.373 112.627L138.373 112.635C138.416 117.905 136.893 123.069 133.995 127.472L134.831 128.022L133.995 127.472C131.099 131.875 126.96 135.317 122.104 137.365C117.247 139.411 111.891 139.969 106.718 138.967C101.543 137.965 96.7836 135.449 93.0419 131.738C89.3 128.027 86.745 123.288 85.7009 118.122C84.6569 112.956 85.1709 107.597 87.1776 102.724L87.1776 102.724C89.1844 97.8503 92.5935 93.683 96.9724 90.7505C101.35 87.819 106.499 86.2534 111.767 86.2521C112.804 86.2638 113.833 86.0699 114.795 85.6818L114.795 85.6818C115.759 85.2927 116.636 84.7163 117.375 83.9859C118.113 83.2559 118.701 82.386 119.102 81.4261M119.102 81.4261C119.102 81.4264 119.102 81.4267 119.101 81.4271L118.179 81.0412L119.102 81.4261ZM119.102 81.4261C119.503 80.4672 119.709 79.4385 119.709 78.3996C119.709 77.3607 119.503 76.332 119.102 75.3731M119.102 75.3731C119.102 75.3728 119.102 75.3725 119.101 75.3721L118.179 75.758L119.102 75.3731Z" fill="url(#paint0_linear_522_1268)" stroke="white" stroke-width="2"/>
<defs>
<linearGradient id="paint0_linear_522_1268" x1="33.5" y1="177.5" x2="363.5" y2="-44.5" gradientUnits="userSpaceOnUse">
<stop stop-color="#9B8CC0"/>
<stop offset="1" stop-color="#00C2A5" stop-opacity="0"/>
</linearGradient>
</defs>
</svg>
