<svg width="219" height="221" viewBox="0 0 219 221" fill="none" xmlns="http://www.w3.org/2000/svg">
<g clip-path="url(#clip0_20_41)">
<path d="M186.509 188.412C207.126 167.716 218.684 139.683 218.644 110.471C218.622 108.668 217.891 106.946 216.608 105.679C215.325 104.411 213.595 103.701 211.792 103.701C209.988 103.701 208.258 104.411 206.975 105.679C205.692 106.946 204.961 108.668 204.939 110.471C204.968 136.071 194.834 160.637 176.764 178.771C167.992 187.777 157.505 194.935 145.921 199.823C134.338 204.71 121.893 207.228 109.321 207.228C96.7489 207.228 84.304 204.71 72.7207 199.823C61.1374 194.935 50.6503 187.777 41.8781 178.771C23.8323 160.619 13.7033 136.063 13.7033 110.467C13.7033 84.8704 23.8323 60.3144 41.8781 42.162C50.5992 33.2253 61.0076 26.1087 72.4998 21.2248C83.992 16.341 96.3394 13.787 108.826 13.711C111.492 13.7945 114.02 14.9164 115.871 16.8373C117.722 18.7581 118.749 21.3261 118.733 23.9935C118.718 26.6609 117.661 29.2167 115.788 31.116C113.915 33.0152 111.374 34.1075 108.707 34.16C108.46 34.1605 108.213 34.1742 107.968 34.201C88.9708 34.8128 70.9455 42.745 57.6611 56.339C43.6318 70.4618 35.758 89.5604 35.758 109.467C35.758 129.374 43.6318 148.472 57.6611 162.595C64.5149 169.616 72.7036 175.195 81.7455 179.004C90.7873 182.813 100.5 184.775 110.311 184.775C120.122 184.775 129.835 182.813 138.877 179.004C147.918 175.195 156.107 169.616 162.961 162.595C177.012 148.487 184.889 129.379 184.861 109.467C184.89 106.331 184.297 103.219 183.117 100.313C181.936 97.4075 180.192 94.7641 177.984 92.5361C175.776 90.308 173.149 88.5394 170.254 87.3325C167.359 86.1255 164.254 85.5041 161.117 85.5041C157.98 85.5041 154.875 86.1255 151.98 87.3325C149.085 88.5394 146.458 90.308 144.25 92.5361C142.042 94.7641 140.298 97.4075 139.117 100.313C137.937 103.219 137.344 106.331 137.373 109.467C137.373 109.667 137.386 109.855 137.402 110.047C137.386 110.239 137.373 110.431 137.373 110.627C137.418 116.095 135.837 121.453 132.831 126.022C129.826 130.59 125.531 134.162 120.492 136.286C115.453 138.409 109.896 138.988 104.528 137.949C99.1592 136.909 94.2204 134.299 90.3379 130.448C86.4554 126.597 83.8043 121.68 82.721 116.32C81.6377 110.96 82.171 105.399 84.2532 100.343C86.3354 95.2862 89.8727 90.9623 94.4162 87.9195C98.9598 84.8767 104.305 83.2522 109.773 83.252C110.68 83.263 111.58 83.0938 112.421 82.7544C113.262 82.4149 114.027 81.9119 114.672 81.2745C115.317 80.6371 115.83 79.878 116.179 79.0411C116.529 78.2043 116.709 77.3064 116.709 76.3995C116.709 75.4926 116.529 74.5947 116.179 73.7579C115.83 72.921 115.317 72.1619 114.672 71.5245C114.027 70.8871 113.262 70.3841 112.421 70.0446C111.58 69.7052 110.68 69.536 109.773 69.547C101.658 69.592 93.7378 72.0397 87.0121 76.581C80.2864 81.1224 75.0564 87.5541 71.982 95.0646C68.9077 102.575 68.1267 110.828 69.7375 118.782C71.3484 126.736 75.2789 134.034 81.0333 139.757C86.7876 145.479 94.108 149.369 102.071 150.936C110.033 152.502 118.282 151.675 125.775 148.559C133.268 145.443 139.671 140.178 144.175 133.427C148.679 126.676 151.082 118.742 151.082 110.627C151.082 110.427 151.069 110.239 151.053 110.047C151.069 109.855 151.082 109.663 151.082 109.467C151.055 108.132 151.295 106.805 151.788 105.563C152.28 104.322 153.016 103.191 153.95 102.238C154.885 101.284 156.001 100.526 157.232 100.009C158.463 99.492 159.786 99.2256 161.121 99.2256C162.456 99.2256 163.779 99.492 165.01 100.009C166.241 100.526 167.357 101.284 168.292 102.238C169.226 103.191 169.962 104.322 170.454 105.563C170.947 106.805 171.187 108.132 171.16 109.467C171.178 125.769 164.725 141.411 153.218 152.958C147.639 158.69 140.968 163.245 133.599 166.356C126.23 169.467 118.312 171.069 110.313 171.069C102.315 171.069 94.3974 169.467 87.0283 166.356C79.6593 163.245 72.9883 158.69 67.4091 152.958C55.9176 141.401 49.4673 125.765 49.4673 109.467C49.4673 93.169 55.9176 77.5333 67.4091 65.976C72.9927 60.2514 79.6639 55.7004 87.031 52.5903C94.3981 49.4801 102.312 47.8736 110.309 47.865C110.924 47.8633 111.536 47.7786 112.129 47.613C117.963 46.7183 123.26 43.7012 127.006 39.1406C130.752 34.5799 132.682 28.7968 132.426 22.9007C132.17 17.0045 129.745 11.4105 125.618 7.19179C121.491 2.97304 115.952 0.42661 110.063 0.0410003C109.817 0.0142054 109.569 0.0005191 109.321 0C109.183 0 109.046 0 108.908 0C108.84 0 108.774 0 108.708 0C108.642 0 108.574 0.0079945 108.508 0.0099945C94.2621 0.12203 80.1792 3.0529 67.0713 8.63361C53.9633 14.2143 42.0898 22.3345 32.1351 32.526C11.5521 53.2438 0 81.2623 0 110.467C0 139.671 11.5521 167.689 32.1351 188.407C42.1818 198.702 54.1865 206.884 67.4425 212.469C80.6986 218.055 94.9382 220.933 109.323 220.933C123.708 220.933 137.947 218.055 151.204 212.469C164.46 206.884 176.464 198.702 186.511 188.407L186.509 188.412Z" fill="url(#paint0_linear_20_41)"/>
</g>
<defs>
<linearGradient id="paint0_linear_20_41" x1="66.0002" y1="157" x2="329" y2="-29.0001" gradientUnits="userSpaceOnUse">
<stop stop-color="#997ACC"/>
<stop offset="1" stop-color="#00C2A5" stop-opacity="0"/>
</linearGradient>
<clipPath id="clip0_20_41">
<rect width="219" height="221" fill="white"/>
</clipPath>
</defs>
</svg>
