<svg width="861" height="225" viewBox="0 0 861 225" fill="none" xmlns="http://www.w3.org/2000/svg">
<path d="M188.509 190.412C209.126 169.716 220.684 141.683 220.644 112.471C220.622 110.668 219.891 108.946 218.608 107.679C217.325 106.411 215.595 105.701 213.792 105.701C211.988 105.701 210.258 106.411 208.975 107.679C207.692 108.946 206.961 110.668 206.939 112.471C206.968 138.071 196.834 162.637 178.764 180.771C169.992 189.777 159.505 196.935 147.921 201.823C136.338 206.71 123.893 209.228 111.321 209.228C98.7486 209.228 86.3037 206.71 74.7204 201.823C63.1372 196.935 52.65 189.777 43.8779 180.771C25.8321 162.619 15.7031 138.063 15.7031 112.467C15.7031 86.8704 25.8321 62.3144 43.8779 44.162C52.5989 35.2253 63.0073 28.1087 74.4995 23.2248C85.9917 18.341 98.3391 15.787 110.826 15.711C113.492 15.7945 116.02 16.9164 117.871 18.8373C119.722 20.7581 120.749 23.3261 120.733 25.9935C120.718 28.6609 119.661 31.2167 117.788 33.116C115.915 35.0152 113.374 36.1075 110.707 36.16C110.46 36.1605 110.213 36.1742 109.968 36.201C90.9705 36.8128 72.9452 44.745 59.6608 58.339C45.6315 72.4618 37.7578 91.5604 37.7578 111.467C37.7578 131.374 45.6315 150.472 59.6608 164.595C66.5146 171.616 74.7033 177.195 83.7452 181.004C92.787 184.813 102.5 186.775 112.311 186.775C122.122 186.775 131.835 184.813 140.877 181.004C149.918 177.195 158.107 171.616 164.961 164.595C179.012 150.487 186.889 131.379 186.861 111.467C186.89 108.331 186.297 105.219 185.117 102.313C183.936 99.4075 182.192 96.7641 179.984 94.5361C177.776 92.308 175.149 90.5394 172.254 89.3325C169.359 88.1255 166.254 87.5041 163.117 87.5041C159.98 87.5041 156.875 88.1255 153.98 89.3325C151.085 90.5394 148.458 92.308 146.25 94.5361C144.042 96.7641 142.298 99.4075 141.117 102.313C139.937 105.219 139.344 108.331 139.373 111.467C139.373 111.667 139.386 111.855 139.402 112.047C139.386 112.239 139.373 112.431 139.373 112.627C139.418 118.095 137.837 123.453 134.831 128.022C131.826 132.59 127.531 136.162 122.492 138.286C117.453 140.409 111.896 140.988 106.528 139.949C101.159 138.909 96.2201 136.299 92.3376 132.448C88.4551 128.597 85.804 123.68 84.7207 118.32C83.6374 112.96 84.1707 107.399 86.2529 102.343C88.3351 97.2862 91.8724 92.9623 96.4159 89.9195C100.96 86.8767 106.305 85.2522 111.773 85.252C112.68 85.263 113.58 85.0938 114.421 84.7544C115.262 84.4149 116.027 83.9119 116.672 83.2745C117.317 82.6371 117.83 81.878 118.179 81.0411C118.529 80.2043 118.709 79.3064 118.709 78.3995C118.709 77.4926 118.529 76.5947 118.179 75.7579C117.83 74.921 117.317 74.1619 116.672 73.5245C116.027 72.8871 115.262 72.3841 114.421 72.0446C113.58 71.7052 112.68 71.536 111.773 71.547C103.658 71.592 95.7375 74.0397 89.0118 78.581C82.2861 83.1224 77.0561 89.5541 73.9817 97.0646C70.9074 104.575 70.1264 112.828 71.7372 120.782C73.3481 128.736 77.2786 136.034 83.033 141.757C88.7873 147.479 96.1077 151.369 104.071 152.936C112.033 154.502 120.282 153.675 127.775 150.559C135.268 147.443 141.671 142.178 146.175 135.427C150.679 128.676 153.082 120.742 153.082 112.627C153.082 112.427 153.069 112.239 153.053 112.047C153.069 111.855 153.082 111.663 153.082 111.467C153.055 110.132 153.295 108.805 153.788 107.563C154.28 106.322 155.016 105.191 155.95 104.238C156.885 103.284 158.001 102.526 159.232 102.009C160.463 101.492 161.786 101.226 163.121 101.226C164.456 101.226 165.779 101.492 167.01 102.009C168.241 102.526 169.357 103.284 170.292 104.238C171.226 105.191 171.962 106.322 172.454 107.563C172.947 108.805 173.187 110.132 173.16 111.467C173.178 127.769 166.725 143.411 155.218 154.958C149.639 160.69 142.968 165.245 135.599 168.356C128.23 171.467 120.312 173.069 112.313 173.069C104.315 173.069 96.3971 171.467 89.028 168.356C81.659 165.245 74.988 160.69 69.4088 154.958C57.9173 143.401 51.467 127.765 51.467 111.467C51.467 95.169 57.9173 79.5333 69.4088 67.976C74.9924 62.2514 81.6636 57.7004 89.0307 54.5903C96.3978 51.4801 104.312 49.8736 112.309 49.865C112.924 49.8633 113.536 49.7786 114.129 49.613C119.963 48.7183 125.26 45.7012 129.006 41.1406C132.752 36.5799 134.682 30.7968 134.426 24.9007C134.17 19.0045 131.745 13.4105 127.618 9.19179C123.491 4.97304 117.952 2.42661 112.063 2.041C111.817 2.01421 111.569 2.00052 111.321 2C111.183 2 111.046 2 110.908 2C110.84 2 110.774 2 110.708 2C110.642 2 110.574 2.00799 110.508 2.00999C96.2618 2.12203 82.1789 5.0529 69.071 10.6336C55.963 16.2143 44.0896 24.3345 34.1349 34.526C13.5519 55.2438 1.99976 83.2623 1.99976 112.467C1.99976 141.671 13.5519 169.689 34.1349 190.407C44.1816 200.702 56.1862 208.884 69.4422 214.469C82.6983 220.055 96.9379 222.933 111.323 222.933C125.708 222.933 139.947 220.055 153.204 214.469C166.46 208.884 178.464 200.702 188.511 190.407L188.509 190.412Z" fill="url(#paint0_linear_20_39)"/>
<path d="M279.192 122.4C279.192 114.24 280.824 107.136 284.088 101.088C287.352 94.944 291.864 90.192 297.624 86.832C303.48 83.472 310.152 81.792 317.64 81.792C327.336 81.792 335.304 84.144 341.544 88.848C347.88 93.552 352.056 100.08 354.072 108.432H339.96C338.616 103.632 335.976 99.84 332.04 97.056C328.2 94.272 323.4 92.88 317.64 92.88C310.152 92.88 304.104 95.472 299.496 100.656C294.888 105.744 292.584 112.992 292.584 122.4C292.584 131.904 294.888 139.248 299.496 144.432C304.104 149.616 310.152 152.208 317.64 152.208C323.4 152.208 328.2 150.864 332.04 148.176C335.88 145.488 338.52 141.648 339.96 136.656H354.072C351.96 144.72 347.736 151.2 341.4 156.096C335.064 160.896 327.144 163.296 317.64 163.296C310.152 163.296 303.48 161.616 297.624 158.256C291.864 154.896 287.352 150.144 284.088 144C280.824 137.856 279.192 130.656 279.192 122.4ZM405.973 163.296C398.581 163.296 391.861 161.616 385.813 158.256C379.861 154.896 375.157 150.144 371.701 144C368.341 137.76 366.661 130.56 366.661 122.4C366.661 114.336 368.389 107.232 371.845 101.088C375.397 94.848 380.197 90.096 386.245 86.832C392.293 83.472 399.061 81.792 406.549 81.792C414.037 81.792 420.805 83.472 426.853 86.832C432.901 90.096 437.653 94.8 441.109 100.944C444.661 107.088 446.437 114.24 446.437 122.4C446.437 130.56 444.613 137.76 440.965 144C437.413 150.144 432.565 154.896 426.421 158.256C420.277 161.616 413.461 163.296 405.973 163.296ZM405.973 151.776C410.677 151.776 415.093 150.672 419.221 148.464C423.349 146.256 426.661 142.944 429.157 138.528C431.749 134.112 433.045 128.736 433.045 122.4C433.045 116.064 431.797 110.688 429.301 106.272C426.805 101.856 423.541 98.592 419.509 96.48C415.477 94.272 411.109 93.168 406.405 93.168C401.605 93.168 397.189 94.272 393.157 96.48C389.221 98.592 386.053 101.856 383.653 106.272C381.253 110.688 380.053 116.064 380.053 122.4C380.053 128.832 381.205 134.256 383.509 138.672C385.909 143.088 389.077 146.4 393.013 148.608C396.949 150.72 401.269 151.776 405.973 151.776ZM476.77 97.776C479.458 93.072 483.394 89.232 488.578 86.256C493.762 83.28 499.666 81.792 506.29 81.792C513.394 81.792 519.778 83.472 525.442 86.832C531.106 90.192 535.57 94.944 538.834 101.088C542.098 107.136 543.73 114.192 543.73 122.256C543.73 130.224 542.098 137.328 538.834 143.568C535.57 149.808 531.058 154.656 525.298 158.112C519.634 161.568 513.298 163.296 506.29 163.296C499.474 163.296 493.474 161.808 488.29 158.832C483.202 155.856 479.362 152.064 476.77 147.456V162H463.666V55.44H476.77V97.776ZM530.338 122.256C530.338 116.304 529.138 111.12 526.738 106.704C524.338 102.288 521.074 98.928 516.946 96.624C512.914 94.32 508.45 93.168 503.554 93.168C498.754 93.168 494.29 94.368 490.162 96.768C486.13 99.072 482.866 102.48 480.37 106.992C477.97 111.408 476.77 116.544 476.77 122.4C476.77 128.352 477.97 133.584 480.37 138.096C482.866 142.512 486.13 145.92 490.162 148.32C494.29 150.624 498.754 151.776 503.554 151.776C508.45 151.776 512.914 150.624 516.946 148.32C521.074 145.92 524.338 142.512 526.738 138.096C529.138 133.584 530.338 128.304 530.338 122.256ZM556.083 122.256C556.083 114.192 557.715 107.136 560.979 101.088C564.243 94.944 568.707 90.192 574.371 86.832C580.131 83.472 586.515 81.792 593.523 81.792C600.435 81.792 606.435 83.28 611.523 86.256C616.611 89.232 620.403 92.976 622.899 97.488V83.088H636.147V162H622.899V147.312C620.307 151.92 616.419 155.76 611.235 158.832C606.147 161.808 600.195 163.296 593.379 163.296C586.371 163.296 580.035 161.568 574.371 158.112C568.707 154.656 564.243 149.808 560.979 143.568C557.715 137.328 556.083 130.224 556.083 122.256ZM622.899 122.4C622.899 116.448 621.699 111.264 619.299 106.848C616.899 102.432 613.635 99.072 609.507 96.768C605.475 94.368 601.011 93.168 596.115 93.168C591.219 93.168 586.755 94.32 582.723 96.624C578.691 98.928 575.475 102.288 573.075 106.704C570.675 111.12 569.475 116.304 569.475 122.256C569.475 128.304 570.675 133.584 573.075 138.096C575.475 142.512 578.691 145.92 582.723 148.32C586.755 150.624 591.219 151.776 596.115 151.776C601.011 151.776 605.475 150.624 609.507 148.32C613.635 145.92 616.899 142.512 619.299 138.096C621.699 133.584 622.899 128.352 622.899 122.4Z" fill="#333333"/>
<path d="M667.363 72.72C663.811 72.72 660.835 71.616 658.435 69.408C656.131 67.104 654.979 64.272 654.979 60.912C654.979 57.552 656.131 54.768 658.435 52.56C660.835 50.256 663.811 49.104 667.363 49.104C670.915 49.104 673.843 50.256 676.147 52.56C678.547 54.768 679.747 57.552 679.747 60.912C679.747 64.272 678.547 67.104 676.147 69.408C673.843 71.616 670.915 72.72 667.363 72.72ZM677.299 82.224V162H657.139V82.224H677.299ZM741.425 81.072C750.929 81.072 758.609 84.096 764.465 90.144C770.321 96.096 773.249 104.448 773.249 115.2V162H753.089V117.936C753.089 111.6 751.505 106.752 748.337 103.392C745.169 99.936 740.849 98.208 735.377 98.208C729.809 98.208 725.393 99.936 722.129 103.392C718.961 106.752 717.377 111.6 717.377 117.936V162H697.217V82.224H717.377V92.16C720.065 88.704 723.473 86.016 727.601 84.096C731.825 82.08 736.433 81.072 741.425 81.072ZM822.948 163.296C816.42 163.296 810.564 162.144 805.38 159.84C800.196 157.44 796.068 154.224 792.996 150.192C790.02 146.16 788.388 141.696 788.1 136.8H808.404C808.788 139.872 810.276 142.416 812.868 144.432C815.556 146.448 818.868 147.456 822.804 147.456C826.644 147.456 829.62 146.688 831.732 145.152C833.94 143.616 835.044 141.648 835.044 139.248C835.044 136.656 833.7 134.736 831.012 133.488C828.42 132.144 824.244 130.704 818.484 129.168C812.532 127.728 807.636 126.24 803.796 124.704C800.052 123.168 796.788 120.816 794.004 117.648C791.316 114.48 789.972 110.208 789.972 104.832C789.972 100.416 791.22 96.384 793.716 92.736C796.308 89.088 799.956 86.208 804.66 84.096C809.46 81.984 815.076 80.928 821.508 80.928C831.012 80.928 838.596 83.328 844.26 88.128C849.924 92.832 853.044 99.216 853.62 107.28H834.324C834.036 104.112 832.692 101.616 830.292 99.792C827.988 97.872 824.868 96.912 820.932 96.912C817.284 96.912 814.452 97.584 812.436 98.928C810.516 100.272 809.556 102.144 809.556 104.544C809.556 107.232 810.9 109.296 813.588 110.736C816.276 112.08 820.452 113.472 826.116 114.912C831.876 116.352 836.628 117.84 840.372 119.376C844.116 120.912 847.332 123.312 850.02 126.576C852.804 129.744 854.244 133.968 854.34 139.248C854.34 143.856 853.044 147.984 850.452 151.632C847.956 155.28 844.308 158.16 839.508 160.272C834.804 162.288 829.284 163.296 822.948 163.296Z" fill="#9E7ACD"/>
<defs>
<linearGradient id="paint0_linear_20_39" x1="68" y1="159" x2="331" y2="-27.0001" gradientUnits="userSpaceOnUse">
<stop stop-color="#997ACC"/>
<stop offset="1" stop-color="#00C2A5" stop-opacity="0"/>
</linearGradient>
</defs>
</svg>
