<svg width="878" height="225" viewBox="0 0 878 225" fill="none" xmlns="http://www.w3.org/2000/svg">
<path d="M188.509 190.412C209.126 169.716 220.684 141.683 220.644 112.471C220.622 110.668 219.891 108.946 218.608 107.679C217.325 106.411 215.595 105.701 213.792 105.701C211.988 105.701 210.258 106.411 208.975 107.679C207.692 108.946 206.961 110.668 206.939 112.471C206.968 138.071 196.834 162.637 178.764 180.771C169.992 189.777 159.505 196.935 147.921 201.823C136.338 206.71 123.893 209.228 111.321 209.228C98.7486 209.228 86.3037 206.71 74.7204 201.823C63.1372 196.935 52.65 189.777 43.8779 180.771C25.8321 162.619 15.7031 138.063 15.7031 112.467C15.7031 86.8704 25.8321 62.3144 43.8779 44.162C52.5989 35.2253 63.0073 28.1087 74.4995 23.2248C85.9917 18.341 98.3391 15.787 110.826 15.711C113.492 15.7945 116.02 16.9164 117.871 18.8373C119.722 20.7581 120.749 23.3261 120.733 25.9935C120.718 28.6609 119.661 31.2167 117.788 33.116C115.915 35.0152 113.374 36.1075 110.707 36.16C110.46 36.1605 110.213 36.1742 109.968 36.201C90.9705 36.8128 72.9452 44.745 59.6608 58.339C45.6315 72.4618 37.7578 91.5604 37.7578 111.467C37.7578 131.374 45.6315 150.472 59.6608 164.595C66.5146 171.616 74.7033 177.195 83.7452 181.004C92.787 184.813 102.5 186.775 112.311 186.775C122.122 186.775 131.835 184.813 140.877 181.004C149.918 177.195 158.107 171.616 164.961 164.595C179.012 150.487 186.889 131.379 186.861 111.467C186.89 108.331 186.297 105.219 185.117 102.313C183.936 99.4075 182.192 96.7641 179.984 94.5361C177.776 92.308 175.149 90.5394 172.254 89.3325C169.359 88.1255 166.254 87.5041 163.117 87.5041C159.98 87.5041 156.875 88.1255 153.98 89.3325C151.085 90.5394 148.458 92.308 146.25 94.5361C144.042 96.7641 142.298 99.4075 141.117 102.313C139.937 105.219 139.344 108.331 139.373 111.467C139.373 111.667 139.386 111.855 139.402 112.047C139.386 112.239 139.373 112.431 139.373 112.627C139.418 118.095 137.837 123.453 134.831 128.022C131.826 132.59 127.531 136.162 122.492 138.286C117.453 140.409 111.896 140.988 106.528 139.949C101.159 138.909 96.2201 136.299 92.3376 132.448C88.4551 128.597 85.804 123.68 84.7207 118.32C83.6374 112.96 84.1707 107.399 86.2529 102.343C88.3351 97.2862 91.8724 92.9623 96.4159 89.9195C100.96 86.8767 106.305 85.2522 111.773 85.252C112.68 85.263 113.58 85.0938 114.421 84.7544C115.262 84.4149 116.027 83.9119 116.672 83.2745C117.317 82.6371 117.83 81.878 118.179 81.0411C118.529 80.2043 118.709 79.3064 118.709 78.3995C118.709 77.4926 118.529 76.5947 118.179 75.7579C117.83 74.921 117.317 74.1619 116.672 73.5245C116.027 72.8871 115.262 72.3841 114.421 72.0446C113.58 71.7052 112.68 71.536 111.773 71.547C103.658 71.592 95.7375 74.0397 89.0118 78.581C82.2861 83.1224 77.0561 89.5541 73.9817 97.0646C70.9074 104.575 70.1264 112.828 71.7372 120.782C73.3481 128.736 77.2786 136.034 83.033 141.757C88.7873 147.479 96.1077 151.369 104.071 152.936C112.033 154.502 120.282 153.675 127.775 150.559C135.268 147.443 141.671 142.178 146.175 135.427C150.679 128.676 153.082 120.742 153.082 112.627C153.082 112.427 153.069 112.239 153.053 112.047C153.069 111.855 153.082 111.663 153.082 111.467C153.055 110.132 153.295 108.805 153.788 107.563C154.28 106.322 155.016 105.191 155.95 104.238C156.885 103.284 158.001 102.526 159.232 102.009C160.463 101.492 161.786 101.226 163.121 101.226C164.456 101.226 165.779 101.492 167.01 102.009C168.241 102.526 169.357 103.284 170.292 104.238C171.226 105.191 171.962 106.322 172.454 107.563C172.947 108.805 173.187 110.132 173.16 111.467C173.178 127.769 166.725 143.411 155.218 154.958C149.639 160.69 142.968 165.245 135.599 168.356C128.23 171.467 120.312 173.069 112.313 173.069C104.315 173.069 96.3971 171.467 89.028 168.356C81.659 165.245 74.988 160.69 69.4088 154.958C57.9173 143.401 51.467 127.765 51.467 111.467C51.467 95.169 57.9173 79.5333 69.4088 67.976C74.9924 62.2514 81.6636 57.7004 89.0307 54.5903C96.3978 51.4801 104.312 49.8736 112.309 49.865C112.924 49.8633 113.536 49.7786 114.129 49.613C119.963 48.7183 125.26 45.7012 129.006 41.1406C132.752 36.5799 134.682 30.7968 134.426 24.9007C134.17 19.0045 131.745 13.4105 127.618 9.19179C123.491 4.97304 117.952 2.42661 112.063 2.041C111.817 2.01421 111.569 2.00052 111.321 2C111.183 2 111.046 2 110.908 2C110.84 2 110.774 2 110.708 2C110.642 2 110.574 2.00799 110.508 2.00999C96.2618 2.12203 82.1789 5.0529 69.071 10.6336C55.963 16.2143 44.0896 24.3345 34.1349 34.526C13.5519 55.2438 1.99976 83.2623 1.99976 112.467C1.99976 141.671 13.5519 169.689 34.1349 190.407C44.1816 200.702 56.1862 208.884 69.4422 214.469C82.6983 220.055 96.9379 222.933 111.323 222.933C125.708 222.933 139.947 220.055 153.204 214.469C166.46 208.884 178.464 200.702 188.511 190.407L188.509 190.412Z" fill="url(#paint0_linear_20_38)"/>
<path d="M279.364 123.3C279.364 114.913 281.041 107.612 284.396 101.396C287.751 95.0813 292.388 90.1973 298.308 86.744C304.327 83.2907 311.184 81.564 318.88 81.564C328.845 81.564 337.035 83.9813 343.448 88.816C349.96 93.6507 354.252 100.36 356.324 108.944H341.82C340.439 104.011 337.725 100.113 333.68 97.252C329.733 94.3907 324.8 92.96 318.88 92.96C311.184 92.96 304.968 95.624 300.232 100.952C295.496 106.181 293.128 113.631 293.128 123.3C293.128 133.068 295.496 140.616 300.232 145.944C304.968 151.272 311.184 153.936 318.88 153.936C324.8 153.936 329.733 152.555 333.68 149.792C337.627 147.029 340.34 143.083 341.82 137.952H356.324C354.153 146.24 349.812 152.9 343.3 157.932C336.788 162.865 328.648 165.332 318.88 165.332C311.184 165.332 304.327 163.605 298.308 160.152C292.388 156.699 287.751 151.815 284.396 145.5C281.041 139.185 279.364 131.785 279.364 123.3ZM409.666 165.332C402.069 165.332 395.162 163.605 388.946 160.152C382.829 156.699 377.994 151.815 374.442 145.5C370.989 139.087 369.262 131.687 369.262 123.3C369.262 115.012 371.038 107.711 374.59 101.396C378.241 94.9827 383.174 90.0987 389.39 86.744C395.606 83.2907 402.562 81.564 410.258 81.564C417.954 81.564 424.91 83.2907 431.126 86.744C437.342 90.0987 442.226 94.9333 445.778 101.248C449.429 107.563 451.254 114.913 451.254 123.3C451.254 131.687 449.38 139.087 445.63 145.5C441.98 151.815 436.997 156.699 430.682 160.152C424.368 163.605 417.362 165.332 409.666 165.332ZM409.666 153.492C414.501 153.492 419.04 152.357 423.282 150.088C427.525 147.819 430.929 144.415 433.494 139.876C436.158 135.337 437.49 129.812 437.49 123.3C437.49 116.788 436.208 111.263 433.642 106.724C431.077 102.185 427.722 98.8307 423.578 96.66C419.434 94.3907 414.945 93.256 410.11 93.256C405.177 93.256 400.638 94.3907 396.494 96.66C392.449 98.8307 389.193 102.185 386.726 106.724C384.26 111.263 383.026 116.788 383.026 123.3C383.026 129.911 384.21 135.485 386.578 140.024C389.045 144.563 392.301 147.967 396.346 150.236C400.392 152.407 404.832 153.492 409.666 153.492ZM482.43 97.992C485.193 93.1573 489.238 89.2107 494.566 86.152C499.894 83.0933 505.962 81.564 512.77 81.564C520.072 81.564 526.633 83.2907 532.454 86.744C538.276 90.1973 542.864 95.0813 546.218 101.396C549.573 107.612 551.25 114.864 551.25 123.152C551.25 131.341 549.573 138.643 546.218 145.056C542.864 151.469 538.226 156.452 532.306 160.004C526.485 163.556 519.973 165.332 512.77 165.332C505.765 165.332 499.598 163.803 494.27 160.744C489.041 157.685 485.094 153.788 482.43 149.052V164H468.962V54.48H482.43V97.992ZM537.486 123.152C537.486 117.035 536.253 111.707 533.786 107.168C531.32 102.629 527.965 99.176 523.722 96.808C519.578 94.44 514.99 93.256 509.958 93.256C505.025 93.256 500.437 94.4893 496.194 96.956C492.05 99.324 488.696 102.827 486.13 107.464C483.664 112.003 482.43 117.281 482.43 123.3C482.43 129.417 483.664 134.795 486.13 139.432C488.696 143.971 492.05 147.473 496.194 149.94C500.437 152.308 505.025 153.492 509.958 153.492C514.99 153.492 519.578 152.308 523.722 149.94C527.965 147.473 531.32 143.971 533.786 139.432C536.253 134.795 537.486 129.368 537.486 123.152ZM563.946 123.152C563.946 114.864 565.623 107.612 568.978 101.396C572.333 95.0813 576.921 90.1973 582.742 86.744C588.662 83.2907 595.223 81.564 602.426 81.564C609.53 81.564 615.697 83.0933 620.926 86.152C626.155 89.2107 630.053 93.0587 632.618 97.696V82.896H646.234V164H632.618V148.904C629.954 153.64 625.958 157.587 620.63 160.744C615.401 163.803 609.283 165.332 602.278 165.332C595.075 165.332 588.563 163.556 582.742 160.004C576.921 156.452 572.333 151.469 568.978 145.056C565.623 138.643 563.946 131.341 563.946 123.152ZM632.618 123.3C632.618 117.183 631.385 111.855 628.918 107.316C626.451 102.777 623.097 99.324 618.854 96.956C614.71 94.4893 610.122 93.256 605.09 93.256C600.058 93.256 595.47 94.44 591.326 96.808C587.182 99.176 583.877 102.629 581.41 107.168C578.943 111.707 577.71 117.035 577.71 123.152C577.71 129.368 578.943 134.795 581.41 139.432C583.877 143.971 587.182 147.473 591.326 149.94C595.47 152.308 600.058 153.492 605.09 153.492C610.122 153.492 614.71 152.308 618.854 149.94C623.097 147.473 626.451 143.971 628.918 139.432C631.385 134.795 632.618 129.417 632.618 123.3Z" fill="white"/>
<path d="M678.318 72.24C674.667 72.24 671.608 71.1053 669.142 68.836C666.774 66.468 665.59 63.5573 665.59 60.104C665.59 56.6507 666.774 53.7893 669.142 51.52C671.608 49.152 674.667 47.968 678.318 47.968C681.968 47.968 684.978 49.152 687.346 51.52C689.812 53.7893 691.046 56.6507 691.046 60.104C691.046 63.5573 689.812 66.468 687.346 68.836C684.978 71.1053 681.968 72.24 678.318 72.24ZM688.53 82.008V164H667.81V82.008H688.53ZM754.437 80.824C764.205 80.824 772.098 83.932 778.117 90.148C784.136 96.2653 787.145 104.849 787.145 115.9V164H766.425V118.712C766.425 112.2 764.797 107.217 761.541 103.764C758.285 100.212 753.845 98.436 748.221 98.436C742.498 98.436 737.96 100.212 734.605 103.764C731.349 107.217 729.721 112.2 729.721 118.712V164H709.001V82.008H729.721V92.22C732.484 88.668 735.986 85.9053 740.229 83.932C744.57 81.86 749.306 80.824 754.437 80.824ZM838.225 165.332C831.515 165.332 825.497 164.148 820.169 161.78C814.841 159.313 810.598 156.008 807.441 151.864C804.382 147.72 802.705 143.132 802.409 138.1H823.277C823.671 141.257 825.201 143.872 827.865 145.944C830.627 148.016 834.031 149.052 838.077 149.052C842.023 149.052 845.082 148.263 847.253 146.684C849.522 145.105 850.657 143.083 850.657 140.616C850.657 137.952 849.275 135.979 846.513 134.696C843.849 133.315 839.557 131.835 833.637 130.256C827.519 128.776 822.487 127.247 818.541 125.668C814.693 124.089 811.338 121.672 808.477 118.416C805.714 115.16 804.333 110.769 804.333 105.244C804.333 100.705 805.615 96.5613 808.181 92.812C810.845 89.0627 814.594 86.1027 819.429 83.932C824.362 81.7613 830.134 80.676 836.745 80.676C846.513 80.676 854.307 83.1427 860.129 88.076C865.95 92.9107 869.157 99.472 869.749 107.76H849.917C849.621 104.504 848.239 101.939 845.773 100.064C843.405 98.0907 840.198 97.104 836.153 97.104C832.403 97.104 829.493 97.7947 827.421 99.176C825.447 100.557 824.461 102.481 824.461 104.948C824.461 107.711 825.842 109.832 828.605 111.312C831.367 112.693 835.659 114.124 841.481 115.604C847.401 117.084 852.285 118.613 856.133 120.192C859.981 121.771 863.286 124.237 866.049 127.592C868.91 130.848 870.39 135.189 870.489 140.616C870.489 145.352 869.157 149.595 866.493 153.344C863.927 157.093 860.178 160.053 855.245 162.224C850.41 164.296 844.737 165.332 838.225 165.332Z" fill="#9E7ACD"/>
<defs>
<linearGradient id="paint0_linear_20_38" x1="68" y1="159" x2="331" y2="-27.0001" gradientUnits="userSpaceOnUse">
<stop stop-color="#997ACC"/>
<stop offset="1" stop-color="#00C2A5" stop-opacity="0"/>
</linearGradient>
</defs>
</svg>
