<svg width="1128" height="191" viewBox="0 0 1128 191" fill="none" xmlns="http://www.w3.org/2000/svg">
<rect width="1128" height="191" fill="#333333"/>
<path d="M475.811 123.224C483.417 115.73 487.681 105.579 487.667 95.0016C487.659 94.3488 487.389 93.7252 486.915 93.2664C486.442 92.8073 485.804 92.5502 485.139 92.5502C484.473 92.5502 483.835 92.8073 483.361 93.2664C482.888 93.7252 482.618 94.3488 482.61 95.0016C482.621 104.271 478.882 113.167 472.215 119.733C468.979 122.994 465.11 125.586 460.836 127.356C456.563 129.126 451.971 130.037 447.333 130.037C442.695 130.037 438.103 129.126 433.83 127.356C429.556 125.586 425.687 122.994 422.451 119.733C415.793 113.16 412.056 104.269 412.056 95.0002C412.056 85.7316 415.793 76.8399 422.451 70.2669C425.668 67.0309 429.508 64.454 433.748 62.6855C437.988 60.9171 442.543 59.9923 447.15 59.9648C448.134 59.995 449.067 60.4012 449.75 61.0968C450.432 61.7923 450.811 62.7222 450.805 63.6881C450.8 64.6539 450.41 65.5794 449.719 66.2671C449.028 66.9548 448.09 67.3504 447.106 67.3694C447.015 67.3695 446.924 67.3745 446.834 67.3842C439.825 67.6057 433.175 70.478 428.274 75.4004C423.098 80.5143 420.193 87.4299 420.193 94.6381C420.193 101.846 423.098 108.762 428.274 113.876C430.802 116.418 433.823 118.438 437.159 119.817C440.495 121.197 444.079 121.907 447.698 121.907C451.318 121.907 454.901 121.197 458.237 119.817C461.573 118.438 464.594 116.418 467.123 113.876C472.307 108.767 475.213 101.848 475.203 94.6381C475.213 93.5025 474.995 92.3757 474.559 91.3234C474.124 90.2713 473.48 89.3141 472.666 88.5074C471.851 87.7006 470.882 87.0602 469.814 86.6232C468.746 86.1861 467.6 85.9611 466.443 85.9611C465.285 85.9611 464.14 86.1861 463.072 86.6232C462.004 87.0602 461.034 87.7006 460.22 88.5074C459.405 89.3141 458.762 90.2713 458.326 91.3234C457.891 92.3757 457.672 93.5025 457.682 94.6381C457.682 94.7105 457.687 94.7786 457.693 94.8481C457.687 94.9176 457.682 94.9871 457.682 95.0581C457.699 97.0381 457.116 98.9782 456.007 100.633C454.898 102.287 453.313 103.58 451.454 104.349C449.595 105.118 447.545 105.328 445.565 104.951C443.584 104.575 441.762 103.63 440.329 102.235C438.897 100.841 437.919 99.0604 437.519 97.1196C437.119 95.1787 437.316 93.1651 438.084 91.3343C438.853 89.5032 440.158 87.9375 441.834 86.8357C443.51 85.7339 445.482 85.1457 447.5 85.1456C447.834 85.1496 448.166 85.0883 448.477 84.9654C448.787 84.8425 449.069 84.6604 449.307 84.4296C449.545 84.1988 449.734 83.9239 449.863 83.6208C449.992 83.3178 450.059 82.9927 450.059 82.6643C450.059 82.3359 449.992 82.0108 449.863 81.7078C449.734 81.4047 449.545 81.1299 449.307 80.8991C449.069 80.6683 448.787 80.4861 448.477 80.3632C448.166 80.2403 447.834 80.179 447.5 80.183C444.506 80.1993 441.584 81.0856 439.102 82.73C436.621 84.3745 434.691 86.7034 433.557 89.423C432.423 92.1425 432.135 95.1309 432.729 98.0111C433.323 100.891 434.773 103.534 436.896 105.606C439.019 107.678 441.72 109.087 444.658 109.654C447.596 110.221 450.639 109.922 453.404 108.793C456.168 107.665 458.53 105.759 460.192 103.314C461.854 100.869 462.74 97.9966 462.74 95.0581C462.74 94.9857 462.735 94.9176 462.73 94.8481C462.735 94.7786 462.74 94.7091 462.74 94.6381C462.73 94.1547 462.819 93.6742 463.001 93.2244C463.182 92.7751 463.454 92.3655 463.798 92.0205C464.143 91.675 464.555 91.4005 465.009 91.2133C465.463 91.0261 465.952 90.9297 466.444 90.9297C466.937 90.9297 467.425 91.0261 467.879 91.2133C468.333 91.4005 468.745 91.675 469.09 92.0205C469.434 92.3655 469.706 92.7751 469.887 93.2244C470.069 93.6742 470.158 94.1547 470.148 94.6381C470.155 100.541 467.774 106.205 463.528 110.386C461.47 112.462 459.009 114.111 456.29 115.238C453.571 116.364 450.65 116.944 447.699 116.944C444.748 116.944 441.827 116.364 439.108 115.238C436.39 114.111 433.928 112.462 431.87 110.386C427.63 106.201 425.25 100.54 425.25 94.6381C425.25 88.7366 427.63 83.0749 431.87 78.89C433.93 76.8171 436.391 75.1692 439.109 74.043C441.827 72.9168 444.747 72.3351 447.697 72.332C447.924 72.3313 448.15 72.3007 448.369 72.2407C450.521 71.9167 452.476 70.8242 453.858 69.1728C455.24 67.5214 455.952 65.4273 455.857 63.2924C455.763 61.1573 454.868 59.1317 453.346 57.6042C451.823 56.0765 449.779 55.1545 447.607 55.0148C447.516 55.0051 447.424 55.0002 447.333 55C447.282 55 447.232 55 447.181 55C447.156 55 447.131 55 447.107 55C447.082 55 447.057 55.0029 447.033 55.0036C441.777 55.0442 436.581 56.1055 431.745 58.1262C426.909 60.147 422.529 63.0873 418.856 66.7777C411.262 74.2796 407 84.4251 407 95.0002C407 105.575 411.262 115.72 418.856 123.222C422.563 126.95 426.992 129.913 431.882 131.935C436.773 133.958 442.027 135 447.334 135C452.641 135 457.894 133.958 462.785 131.935C467.676 129.913 472.105 126.95 475.811 123.222L475.811 123.224Z" fill="url(#paint0_linear_20_35)"/>
<path d="M508.249 98.6175C508.249 95.6538 508.842 93.0737 510.027 90.8771C511.213 88.6456 512.851 86.9197 514.943 85.6994C517.07 84.4791 519.493 83.8689 522.213 83.8689C525.735 83.8689 528.628 84.7231 530.895 86.4316C533.196 88.1401 534.713 90.511 535.445 93.5444H530.32C529.831 91.8011 528.873 90.4238 527.443 89.4127C526.048 88.4016 524.305 87.896 522.213 87.896C519.493 87.896 517.297 88.8374 515.623 90.7202C513.95 92.5681 513.113 95.2006 513.113 98.6175C513.113 102.069 513.95 104.737 515.623 106.619C517.297 108.502 519.493 109.444 522.213 109.444C524.305 109.444 526.048 108.955 527.443 107.979C528.838 107.003 529.797 105.608 530.32 103.795H535.445C534.678 106.724 533.144 109.077 530.843 110.856C528.541 112.599 525.665 113.471 522.213 113.471C519.493 113.471 517.07 112.861 514.943 111.64C512.851 110.42 511.213 108.694 510.027 106.463C508.842 104.231 508.249 101.616 508.249 98.6175ZM554.295 113.471C551.61 113.471 549.17 112.861 546.973 111.64C544.811 110.42 543.103 108.694 541.848 106.463C540.627 104.196 540.017 101.581 540.017 98.6175C540.017 95.6887 540.645 93.1086 541.9 90.8771C543.19 88.6108 544.933 86.8849 547.13 85.6994C549.326 84.4791 551.785 83.8689 554.504 83.8689C557.224 83.8689 559.682 84.4791 561.878 85.6994C564.075 86.8849 565.801 88.5933 567.056 90.8248C568.346 93.0563 568.991 95.6538 568.991 98.6175C568.991 101.581 568.329 104.196 567.004 106.463C565.714 108.694 563.953 110.42 561.722 111.64C559.49 112.861 557.015 113.471 554.295 113.471ZM554.295 109.287C556.003 109.287 557.607 108.886 559.107 108.084C560.606 107.282 561.809 106.079 562.715 104.475C563.657 102.871 564.127 100.919 564.127 98.6175C564.127 96.3163 563.674 94.3638 562.768 92.7599C561.861 91.156 560.676 89.9706 559.211 89.2035C557.747 88.4016 556.16 88.0006 554.452 88.0006C552.709 88.0006 551.105 88.4016 549.64 89.2035C548.211 89.9706 547.06 91.156 546.188 92.7599C545.317 94.3638 544.881 96.3163 544.881 98.6175C544.881 100.954 545.299 102.924 546.136 104.527C547.008 106.131 548.158 107.334 549.588 108.136C551.017 108.903 552.586 109.287 554.295 109.287ZM580.008 89.6742C580.984 87.9657 582.414 86.5711 584.297 85.4902C586.18 84.4093 588.324 83.8689 590.73 83.8689C593.31 83.8689 595.628 84.4791 597.686 85.6994C599.743 86.9197 601.364 88.6456 602.549 90.8771C603.735 93.0737 604.328 95.6364 604.328 98.5652C604.328 101.459 603.735 104.039 602.549 106.306C601.364 108.572 599.725 110.333 597.633 111.588C595.576 112.843 593.275 113.471 590.73 113.471C588.254 113.471 586.075 112.93 584.192 111.849C582.344 110.769 580.95 109.391 580.008 107.718V113H575.249V74.298H580.008V89.6742ZM599.464 98.5652C599.464 96.4035 599.028 94.5207 598.156 92.9168C597.285 91.3129 596.099 90.0926 594.6 89.2558C593.135 88.419 591.514 88.0006 589.736 88.0006C587.993 88.0006 586.371 88.4364 584.872 89.3081C583.408 90.1449 582.222 91.3827 581.316 93.0214C580.444 94.6253 580.008 96.4906 580.008 98.6175C580.008 100.779 580.444 102.679 581.316 104.318C582.222 105.922 583.408 107.16 584.872 108.031C586.371 108.868 587.993 109.287 589.736 109.287C591.514 109.287 593.135 108.868 594.6 108.031C596.099 107.16 597.285 105.922 598.156 104.318C599.028 102.679 599.464 100.762 599.464 98.5652ZM608.814 98.5652C608.814 95.6364 609.407 93.0737 610.592 90.8771C611.778 88.6456 613.399 86.9197 615.456 85.6994C617.548 84.4791 619.867 83.8689 622.412 83.8689C624.922 83.8689 627.102 84.4093 628.95 85.4902C630.797 86.5711 632.175 87.9309 633.081 89.5696V84.3396H637.893V113H633.081V107.665C632.14 109.339 630.728 110.734 628.845 111.849C626.997 112.93 624.835 113.471 622.36 113.471C619.814 113.471 617.513 112.843 615.456 111.588C613.399 110.333 611.778 108.572 610.592 106.306C609.407 104.039 608.814 101.459 608.814 98.5652ZM633.081 98.6175C633.081 96.4558 632.645 94.573 631.774 92.9691C630.902 91.3652 629.717 90.1449 628.217 89.3081C626.753 88.4364 625.132 88.0006 623.353 88.0006C621.575 88.0006 619.954 88.419 618.49 89.2558C617.025 90.0926 615.857 91.3129 614.985 92.9168C614.114 94.5207 613.678 96.4035 613.678 98.5652C613.678 100.762 614.114 102.679 614.985 104.318C615.857 105.922 617.025 107.16 618.49 108.031C619.954 108.868 621.575 109.287 623.353 109.287C625.132 109.287 626.753 108.868 628.217 108.031C629.717 107.16 630.902 105.922 631.774 104.318C632.645 102.679 633.081 100.779 633.081 98.6175Z" fill="white"/>
<path d="M649.23 80.574C647.94 80.574 646.86 80.173 645.988 79.3711C645.151 78.5343 644.733 77.5057 644.733 76.2854C644.733 75.0651 645.151 74.0539 645.988 73.252C646.86 72.4152 647.94 71.9968 649.23 71.9968C650.521 71.9968 651.584 72.4152 652.421 73.252C653.292 74.0539 653.728 75.0651 653.728 76.2854C653.728 77.5057 653.292 78.5343 652.421 79.3711C651.584 80.173 650.521 80.574 649.23 80.574ZM652.839 84.0258V113H645.517V84.0258H652.839ZM676.129 83.6074C679.581 83.6074 682.371 84.7057 684.497 86.9023C686.624 89.064 687.688 92.0974 687.688 96.0025V113H680.366V96.9962C680.366 94.695 679.79 92.9342 678.64 91.7139C677.489 90.4587 675.92 89.8311 673.933 89.8311C671.911 89.8311 670.307 90.4587 669.121 91.7139C667.971 92.9342 667.395 94.695 667.395 96.9962V113H660.073V84.0258H667.395V87.6345C668.372 86.3793 669.609 85.403 671.109 84.7057C672.643 83.9735 674.316 83.6074 676.129 83.6074ZM705.738 113.471C703.367 113.471 701.24 113.052 699.358 112.215C697.475 111.344 695.976 110.176 694.86 108.711C693.779 107.247 693.186 105.626 693.082 103.847H700.456C700.595 104.963 701.136 105.887 702.077 106.619C703.053 107.352 704.256 107.718 705.686 107.718C707.081 107.718 708.161 107.439 708.928 106.881C709.73 106.323 710.131 105.608 710.131 104.737C710.131 103.795 709.643 103.098 708.667 102.645C707.726 102.156 706.209 101.633 704.117 101.076C701.955 100.553 700.177 100.012 698.782 99.4543C697.422 98.8964 696.237 98.0422 695.226 96.8916C694.25 95.741 693.761 94.1894 693.761 92.2369C693.761 90.633 694.215 89.1686 695.121 87.8437C696.063 86.5188 697.388 85.4728 699.096 84.7057C700.839 83.9386 702.879 83.5551 705.215 83.5551C708.667 83.5551 711.421 84.4268 713.479 86.1701C715.536 87.8786 716.669 90.1972 716.878 93.126H709.87C709.765 91.9754 709.277 91.0689 708.405 90.4064C707.569 89.7091 706.436 89.3604 705.006 89.3604C703.681 89.3604 702.652 89.6045 701.92 90.0926C701.223 90.5807 700.874 91.2606 700.874 92.1323C700.874 93.1086 701.362 93.8582 702.339 94.3812C703.315 94.8693 704.832 95.3749 706.889 95.8979C708.981 96.4209 710.707 96.9613 712.066 97.5192C713.426 98.0771 714.594 98.9487 715.571 100.134C716.582 101.285 717.105 102.819 717.14 104.737C717.14 106.41 716.669 107.909 715.727 109.234C714.821 110.559 713.496 111.605 711.753 112.372C710.044 113.105 708.039 113.471 705.738 113.471Z" fill="#9E7ACD"/>
<defs>
<linearGradient id="paint0_linear_20_35" x1="431.35" y1="111.85" x2="527.163" y2="42.8085" gradientUnits="userSpaceOnUse">
<stop stop-color="#997ACC"/>
<stop offset="1" stop-color="#00C2A5" stop-opacity="0"/>
</linearGradient>
</defs>
</svg>
