<svg width="572" height="315" viewBox="0 0 572 315" fill="none" xmlns="http://www.w3.org/2000/svg">
<path d="M51.1719 36.25H55.1406L60.9844 52.9531L66.8281 36.25H70.7969L62.5781 59H59.3906L51.1719 36.25ZM49.0312 36.25H52.9844L53.7031 52.5312V59H49.0312V36.25ZM68.9844 36.25H72.9531V59H68.2656V52.5312L68.9844 36.25ZM92.3281 55.3438V59H80.2188V55.3438H92.3281ZM81.75 36.25V59H77.0625V36.25H81.75ZM90.75 45.5156V49.0781H80.2188V45.5156H90.75ZM92.3125 36.25V39.9219H80.2188V36.25H92.3125ZM113.578 36.25V59H108.891L99.75 43.75V59H95.0625V36.25H99.75L108.906 51.5156V36.25H113.578ZM135.688 47.1094V56.125C135.333 56.5521 134.786 57.0156 134.047 57.5156C133.307 58.0052 132.354 58.4271 131.188 58.7812C130.021 59.1354 128.609 59.3125 126.953 59.3125C125.484 59.3125 124.146 59.0729 122.938 58.5938C121.729 58.1042 120.688 57.3906 119.812 56.4531C118.948 55.5156 118.281 54.3698 117.812 53.0156C117.344 51.651 117.109 50.0938 117.109 48.3438V46.9219C117.109 45.1719 117.333 43.6146 117.781 42.25C118.24 40.8854 118.891 39.7344 119.734 38.7969C120.578 37.8594 121.583 37.1458 122.75 36.6562C123.917 36.1667 125.214 35.9219 126.641 35.9219C128.62 35.9219 130.245 36.2448 131.516 36.8906C132.786 37.526 133.755 38.4115 134.422 39.5469C135.099 40.6719 135.516 41.9635 135.672 43.4219H131.125C131.01 42.651 130.792 41.9792 130.469 41.4062C130.146 40.8333 129.682 40.3854 129.078 40.0625C128.484 39.7396 127.714 39.5781 126.766 39.5781C125.984 39.5781 125.286 39.7396 124.672 40.0625C124.068 40.375 123.557 40.8385 123.141 41.4531C122.724 42.0677 122.406 42.8281 122.188 43.7344C121.969 44.6406 121.859 45.6927 121.859 46.8906V48.3438C121.859 49.5312 121.974 50.5833 122.203 51.5C122.432 52.4062 122.771 53.1719 123.219 53.7969C123.677 54.4115 124.24 54.875 124.906 55.1875C125.573 55.5 126.349 55.6562 127.234 55.6562C127.974 55.6562 128.589 55.5938 129.078 55.4688C129.578 55.3438 129.979 55.1927 130.281 55.0156C130.594 54.8281 130.833 54.651 131 54.4844V50.4531H126.719V47.1094H135.688ZM154.734 55.3438V59H142.625V55.3438H154.734ZM144.156 36.25V59H139.469V36.25H144.156ZM153.156 45.5156V49.0781H142.625V45.5156H153.156ZM154.719 36.25V39.9219H142.625V36.25H154.719ZM175.984 36.25V59H171.297L162.156 43.75V59H157.469V36.25H162.156L171.312 51.5156V36.25H175.984ZM189.594 40.1406L183.406 59H178.422L186.875 36.25H190.047L189.594 40.1406ZM194.734 59L188.531 40.1406L188.031 36.25H191.234L199.734 59H194.734ZM194.453 50.5312V54.2031H182.438V50.5312H194.453ZM216.469 55.3438V59H205.016V55.3438H216.469ZM206.531 36.25V59H201.844V36.25H206.531ZM241.75 55.3438V59H230.297V55.3438H241.75ZM231.812 36.25V59H227.125V36.25H231.812ZM259.703 55.3438V59H247.594V55.3438H259.703ZM249.125 36.25V59H244.438V36.25H249.125ZM258.125 45.5156V49.0781H247.594V45.5156H258.125ZM259.688 36.25V39.9219H247.594V36.25H259.688ZM271.344 49.0156H265.5L265.469 45.7969H270.375C271.24 45.7969 271.948 45.6875 272.5 45.4688C273.052 45.2396 273.464 44.9115 273.734 44.4844C274.016 44.0469 274.156 43.5156 274.156 42.8906C274.156 42.1823 274.021 41.6094 273.75 41.1719C273.49 40.7344 273.078 40.4167 272.516 40.2188C271.964 40.0208 271.25 39.9219 270.375 39.9219H267.125V59H262.438V36.25H270.375C271.698 36.25 272.88 36.375 273.922 36.625C274.974 36.875 275.865 37.2552 276.594 37.7656C277.323 38.276 277.88 38.9219 278.266 39.7031C278.651 40.474 278.844 41.3906 278.844 42.4531C278.844 43.3906 278.63 44.2552 278.203 45.0469C277.786 45.8385 277.125 46.4844 276.219 46.9844C275.323 47.4844 274.151 47.7604 272.703 47.8125L271.344 49.0156ZM271.141 59H264.219L266.047 55.3438H271.141C271.964 55.3438 272.635 55.2135 273.156 54.9531C273.677 54.6823 274.062 54.3177 274.312 53.8594C274.562 53.401 274.688 52.875 274.688 52.2812C274.688 51.6146 274.573 51.0365 274.344 50.5469C274.125 50.0573 273.771 49.6823 273.281 49.4219C272.792 49.151 272.146 49.0156 271.344 49.0156H266.828L266.859 45.7969H272.484L273.562 47.0625C274.948 47.0417 276.062 47.2865 276.906 47.7969C277.76 48.2969 278.38 48.9479 278.766 49.75C279.161 50.5521 279.359 51.4115 279.359 52.3281C279.359 53.7865 279.042 55.0156 278.406 56.0156C277.771 57.0052 276.839 57.75 275.609 58.25C274.391 58.75 272.901 59 271.141 59ZM287.859 36.25V59H283.188V36.25H287.859ZM307.422 45.5156V49.1719H295.547V45.5156H307.422ZM296.938 36.25V59H292.25V36.25H296.938ZM310.766 36.25V59H306.094V36.25H310.766ZM329.797 59H324.844L324.875 55.3438H329.797C331.026 55.3438 332.062 55.0677 332.906 54.5156C333.75 53.9531 334.385 53.1354 334.812 52.0625C335.25 50.9896 335.469 49.6927 335.469 48.1719V47.0625C335.469 45.8958 335.344 44.8698 335.094 43.9844C334.854 43.099 334.495 42.3542 334.016 41.75C333.536 41.1458 332.948 40.6927 332.25 40.3906C331.552 40.0781 330.75 39.9219 329.844 39.9219H324.75V36.25H329.844C331.365 36.25 332.755 36.5104 334.016 37.0312C335.286 37.5417 336.385 38.276 337.312 39.2344C338.24 40.1927 338.953 41.3385 339.453 42.6719C339.964 43.9948 340.219 45.4688 340.219 47.0938V48.1719C340.219 49.7865 339.964 51.2604 339.453 52.5938C338.953 53.9271 338.24 55.0729 337.312 56.0312C336.396 56.9792 335.297 57.7135 334.016 58.2344C332.745 58.7448 331.339 59 329.797 59ZM327.5 36.25V59H322.812V36.25H327.5ZM352.531 40.1406L346.344 59H341.359L349.812 36.25H352.984L352.531 40.1406ZM357.672 59L351.469 40.1406L350.969 36.25H354.172L362.672 59H357.672ZM357.391 50.5312V54.2031H345.375V50.5312H357.391ZM379.406 55.3438V59H367.953V55.3438H379.406ZM369.469 36.25V59H364.781V36.25H369.469ZM391.656 40.1406L385.469 59H380.484L388.938 36.25H392.109L391.656 40.1406ZM396.797 59L390.594 40.1406L390.094 36.25H393.297L401.797 59H396.797ZM396.516 50.5312V54.2031H384.5V50.5312H396.516ZM406.047 36.25H410.016L415.859 52.9531L421.703 36.25H425.672L417.453 59H414.266L406.047 36.25ZM403.906 36.25H407.859L408.578 52.5312V59H403.906V36.25ZM423.859 36.25H427.828V59H423.141V52.5312L423.859 36.25Z" fill="#333333"/>
<path d="M63.416 149.19L82.1143 100.703H88.3604L88.7607 109.352L69.0615 159H62.2549L63.416 149.19ZM65.2178 100.703L66.8994 150.271L64.8975 159H57.25L53.8066 100.703H65.2178ZM92.3242 149.03L109.021 100.703H120.872L99.2109 159H91.6436L92.3242 149.03ZM92.0439 100.703L95.7676 150.512L94.2461 159H87.3994L83.1152 108.351L85.6377 100.703H92.0439ZM161.231 124.446L159.59 133.815H130.001L131.643 124.446H161.231ZM139.29 100.703L129.16 159H117.429L127.519 100.703H139.29ZM173.644 100.703L163.514 159H151.862L161.952 100.703H173.644ZM225.374 128.29L225.054 131.093C224.52 134.83 223.519 138.433 222.051 141.903C220.583 145.373 218.661 148.47 216.285 151.192C213.91 153.888 211.08 156.024 207.797 157.599C204.54 159.147 200.843 159.881 196.706 159.801C192.756 159.721 189.406 158.867 186.656 157.238C183.934 155.583 181.771 153.395 180.17 150.672C178.595 147.949 177.541 144.92 177.007 141.583C176.473 138.22 176.42 134.776 176.847 131.253L177.167 128.49C177.701 124.753 178.702 121.163 180.17 117.72C181.665 114.276 183.6 111.207 185.976 108.511C188.378 105.788 191.207 103.653 194.464 102.104C197.747 100.556 201.431 99.8223 205.515 99.9024C209.465 99.9557 212.802 100.81 215.524 102.465C218.274 104.093 220.436 106.269 222.011 108.991C223.612 111.687 224.68 114.717 225.214 118.08C225.748 121.417 225.801 124.82 225.374 128.29ZM213.162 131.253L213.562 128.37C213.776 126.555 213.883 124.593 213.883 122.484C213.91 120.349 213.669 118.307 213.162 116.358C212.655 114.383 211.747 112.768 210.439 111.514C209.158 110.232 207.303 109.538 204.874 109.432C202.258 109.352 200.016 109.872 198.147 110.993C196.306 112.114 194.757 113.636 193.503 115.558C192.275 117.453 191.301 119.535 190.58 121.804C189.886 124.046 189.379 126.248 189.059 128.41L188.698 131.293C188.458 133.081 188.325 135.057 188.298 137.219C188.298 139.354 188.551 141.41 189.059 143.385C189.566 145.333 190.473 146.948 191.781 148.229C193.089 149.511 194.958 150.205 197.387 150.312C199.976 150.392 202.191 149.858 204.033 148.71C205.902 147.562 207.463 146.041 208.718 144.146C209.972 142.224 210.96 140.142 211.681 137.899C212.401 135.631 212.895 133.415 213.162 131.253ZM266.574 149.631L264.933 159H236.385L238.026 149.631H266.574ZM250.358 100.703L240.229 159H228.497L238.587 100.703H250.358ZM311.258 149.631L309.616 159H279.467L281.068 149.631H311.258ZM293.44 100.703L283.311 159H271.579L281.669 100.703H293.44ZM311.698 124.446L310.097 133.575H283.871L285.473 124.446H311.698ZM319.666 100.703L318.024 110.112H287.915L289.597 100.703H319.666ZM374.6 149.631L372.958 159H344.41L346.052 149.631H374.6ZM358.384 100.703L348.254 159H336.522L346.612 100.703H358.384ZM402.187 100.703L392.097 159H380.365L390.495 100.703H402.187ZM424.769 100.703L414.639 159H402.907L412.997 100.703H424.769ZM442.986 125.607L441.345 134.977H415.56L417.201 125.607H442.986ZM449.993 100.703L448.392 110.112H419.884L421.525 100.703H449.993ZM486.229 149.631L484.587 159H454.438L456.039 149.631H486.229ZM468.411 100.703L458.281 159H446.55L456.64 100.703H468.411ZM486.669 124.446L485.067 133.575H458.842L460.443 124.446H486.669ZM494.637 100.703L492.995 110.112H462.886L464.567 100.703H494.637Z" fill="#9E7ACC"/>
<path d="M64.9775 208.703V267H53.0059V208.703H64.9775ZM123.675 208.703V267H111.663L88.2402 227.922V267H76.2285V208.703H88.2402L111.703 247.821V208.703H123.675ZM164.475 251.745C164.475 250.704 164.314 249.77 163.994 248.942C163.701 248.088 163.14 247.314 162.312 246.62C161.485 245.899 160.324 245.192 158.829 244.498C157.334 243.804 155.399 243.083 153.023 242.336C150.381 241.482 147.872 240.521 145.496 239.453C143.147 238.385 141.065 237.144 139.25 235.73C137.462 234.288 136.047 232.62 135.006 230.725C133.992 228.829 133.484 226.627 133.484 224.118C133.484 221.689 134.018 219.487 135.086 217.512C136.154 215.51 137.648 213.801 139.57 212.387C141.492 210.945 143.761 209.838 146.377 209.064C149.02 208.289 151.916 207.902 155.065 207.902C159.363 207.902 163.113 208.676 166.316 210.225C169.52 211.773 172.002 213.895 173.764 216.591C175.552 219.287 176.446 222.37 176.446 225.84H164.515C164.515 224.132 164.154 222.637 163.434 221.356C162.74 220.048 161.672 219.02 160.23 218.273C158.816 217.525 157.027 217.151 154.865 217.151C152.783 217.151 151.048 217.472 149.66 218.112C148.272 218.726 147.231 219.567 146.537 220.635C145.843 221.676 145.496 222.85 145.496 224.158C145.496 225.146 145.736 226.04 146.217 226.841C146.724 227.642 147.471 228.389 148.459 229.083C149.447 229.777 150.661 230.431 152.103 231.045C153.544 231.659 155.212 232.259 157.107 232.847C160.284 233.808 163.073 234.889 165.476 236.09C167.905 237.291 169.933 238.639 171.562 240.134C173.19 241.629 174.418 243.324 175.245 245.219C176.073 247.114 176.486 249.263 176.486 251.665C176.486 254.201 175.993 256.47 175.005 258.472C174.017 260.474 172.589 262.169 170.721 263.557C168.852 264.945 166.623 265.999 164.034 266.72C161.445 267.44 158.549 267.801 155.346 267.801C152.463 267.801 149.62 267.427 146.817 266.68C144.015 265.906 141.465 264.745 139.17 263.196C136.901 261.648 135.086 259.673 133.725 257.271C132.363 254.868 131.683 252.025 131.683 248.742H143.734C143.734 250.557 144.015 252.092 144.575 253.347C145.136 254.601 145.923 255.616 146.938 256.39C147.979 257.164 149.206 257.724 150.621 258.071C152.062 258.418 153.637 258.592 155.346 258.592C157.428 258.592 159.136 258.298 160.471 257.711C161.832 257.124 162.833 256.31 163.474 255.269C164.141 254.228 164.475 253.053 164.475 251.745ZM216.846 208.703H228.817V247.221C228.817 251.705 227.856 255.482 225.935 258.552C224.039 261.621 221.41 263.93 218.047 265.479C214.71 267.027 210.867 267.801 206.516 267.801C202.165 267.801 198.294 267.027 194.904 265.479C191.541 263.93 188.898 261.621 186.977 258.552C185.081 255.482 184.134 251.705 184.134 247.221V208.703H196.146V247.221C196.146 249.837 196.559 251.972 197.387 253.627C198.214 255.282 199.402 256.496 200.95 257.271C202.525 258.045 204.38 258.432 206.516 258.432C208.704 258.432 210.56 258.045 212.081 257.271C213.629 256.496 214.804 255.282 215.604 253.627C216.432 251.972 216.846 249.837 216.846 247.221V208.703ZM238.707 208.703H260.448C264.906 208.703 268.736 209.37 271.939 210.705C275.169 212.04 277.652 214.015 279.387 216.631C281.122 219.247 281.989 222.463 281.989 226.28C281.989 229.403 281.455 232.086 280.388 234.328C279.347 236.544 277.865 238.399 275.943 239.894C274.048 241.362 271.819 242.536 269.257 243.417L265.453 245.419H246.555L246.475 236.05H260.528C262.637 236.05 264.385 235.676 265.773 234.929C267.161 234.181 268.202 233.14 268.896 231.806C269.617 230.471 269.978 228.923 269.978 227.161C269.978 225.293 269.631 223.678 268.937 222.316C268.243 220.955 267.188 219.914 265.773 219.193C264.359 218.473 262.584 218.112 260.448 218.112H250.719V267H238.707V208.703ZM271.299 267L258.006 241.015L270.698 240.935L284.151 266.439V267H271.299ZM314.941 218.673L299.086 267H286.313L307.975 208.703H316.103L314.941 218.673ZM328.114 267L312.219 218.673L310.938 208.703H319.146L340.927 267H328.114ZM327.394 245.299V254.708H296.604V245.299H327.394ZM393.778 208.703V267H381.767L358.344 227.922V267H346.332V208.703H358.344L381.807 247.821V208.703H393.778ZM438.021 247.661H449.993C449.753 251.585 448.672 255.068 446.75 258.111C444.855 261.154 442.199 263.53 438.782 265.238C435.392 266.947 431.308 267.801 426.53 267.801C422.793 267.801 419.443 267.16 416.48 265.879C413.518 264.571 410.982 262.703 408.873 260.273C406.791 257.844 405.203 254.908 404.108 251.465C403.014 248.022 402.467 244.164 402.467 239.894V235.85C402.467 231.579 403.027 227.722 404.148 224.278C405.296 220.808 406.924 217.859 409.033 215.43C411.169 213.001 413.718 211.132 416.681 209.824C419.644 208.516 422.953 207.862 426.61 207.862C431.468 207.862 435.566 208.743 438.902 210.505C442.266 212.267 444.868 214.696 446.71 217.792C448.578 220.888 449.7 224.412 450.073 228.362H438.062C437.928 226.013 437.461 224.025 436.66 222.397C435.859 220.742 434.645 219.5 433.017 218.673C431.415 217.819 429.28 217.392 426.61 217.392C424.608 217.392 422.86 217.765 421.365 218.513C419.87 219.26 418.616 220.395 417.602 221.916C416.587 223.438 415.826 225.359 415.319 227.682C414.839 229.977 414.599 232.673 414.599 235.77V239.894C414.599 242.91 414.826 245.566 415.279 247.861C415.733 250.13 416.427 252.052 417.361 253.627C418.322 255.175 419.55 256.35 421.045 257.15C422.566 257.925 424.395 258.312 426.53 258.312C429.039 258.312 431.108 257.911 432.736 257.11C434.365 256.31 435.606 255.122 436.46 253.547C437.341 251.972 437.861 250.01 438.021 247.661ZM496.999 257.631V267H465.969V257.631H496.999ZM469.893 208.703V267H457.881V208.703H469.893ZM492.955 232.446V241.575H465.969V232.446H492.955ZM496.959 208.703V218.112H465.969V208.703H496.959Z" fill="#333333"/>
<path d="M3 222V312H93" stroke="#333333" stroke-width="5"/>
<path d="M569 93L569 3.00001L479 3" stroke="#333333" stroke-width="5"/>
<path d="M545.709 53.7009C549.104 50.3285 551.007 45.7607 551 41.0007C550.996 40.7069 550.876 40.4264 550.665 40.2199C550.454 40.0133 550.169 39.8976 549.872 39.8976C549.575 39.8976 549.29 40.0133 549.079 40.2199C548.867 40.4264 548.747 40.7069 548.743 41.0007C548.748 45.1721 547.08 49.1751 544.104 52.1299C542.66 53.5974 540.933 54.7637 539.026 55.5602C537.119 56.3565 535.07 56.7668 533 56.7668C530.93 56.7668 528.881 56.3565 526.974 55.5602C525.066 54.7637 523.34 53.5974 521.895 52.1299C518.924 49.1721 517.256 45.1708 517.256 41.0001C517.256 36.8292 518.924 32.828 521.895 29.8701C523.331 28.4139 525.045 27.2543 526.937 26.4585C528.829 25.6627 530.862 25.2465 532.918 25.2341C533.357 25.2477 533.774 25.4306 534.078 25.7436C534.383 26.0565 534.552 26.475 534.55 26.9096C534.547 27.3443 534.373 27.7607 534.065 28.0702C533.756 28.3797 533.338 28.5577 532.899 28.5662C532.858 28.5663 532.817 28.5685 532.777 28.5729C529.649 28.6726 526.681 29.9651 524.494 32.1802C522.184 34.4814 520.888 37.5934 520.888 40.8371C520.888 44.0809 522.184 47.1928 524.494 49.4941C525.622 50.6381 526.971 51.5472 528.459 52.1679C529.948 52.7885 531.547 53.1082 533.163 53.1082C534.778 53.1082 536.377 52.7885 537.866 52.1679C539.355 51.5472 540.703 50.6381 541.832 49.4941C544.145 47.1953 545.442 44.0817 545.438 40.8371C545.442 40.3261 545.345 39.8191 545.15 39.3455C544.956 38.8721 544.669 38.4414 544.305 38.0783C543.942 37.7153 543.509 37.4271 543.033 37.2304C542.556 37.0337 542.045 36.9325 541.528 36.9325C541.012 36.9325 540.5 37.0337 540.024 37.2304C539.547 37.4271 539.114 37.7153 538.751 38.0783C538.387 38.4414 538.1 38.8721 537.906 39.3455C537.711 39.8191 537.614 40.3261 537.619 40.8371C537.619 40.8697 537.621 40.9004 537.623 40.9316C537.621 40.9629 537.619 40.9942 537.619 41.0262C537.626 41.9171 537.366 42.7902 536.871 43.5347C536.376 44.279 535.669 44.8611 534.839 45.2072C534.009 45.5531 533.095 45.6474 532.211 45.4781C531.327 45.3087 530.513 44.8834 529.874 44.2559C529.235 43.6284 528.798 42.8272 528.62 41.9538C528.442 41.0804 528.53 40.1743 528.872 39.3504C529.215 38.5264 529.798 37.8219 530.546 37.3261C531.294 36.8303 532.174 36.5656 533.074 36.5655C533.224 36.5673 533.372 36.5397 533.51 36.4844C533.649 36.4291 533.775 36.3472 533.881 36.2433C533.987 36.1394 534.072 36.0157 534.129 35.8794C534.187 35.743 534.216 35.5967 534.216 35.4489C534.216 35.3012 534.187 35.1549 534.129 35.0185C534.072 34.8821 533.987 34.7584 533.881 34.6546C533.775 34.5507 533.649 34.4688 533.51 34.4134C533.372 34.3581 533.224 34.3306 533.074 34.3324C531.738 34.3397 530.434 34.7385 529.327 35.4785C528.219 36.2185 527.358 37.2665 526.852 38.4903C526.346 39.7141 526.217 41.0589 526.482 42.355C526.748 43.651 527.395 44.8402 528.342 45.7727C529.29 46.7051 530.495 47.339 531.806 47.5943C533.117 47.8495 534.475 47.7147 535.709 47.207C536.943 46.6993 537.997 45.8413 538.739 44.7413C539.48 43.6413 539.876 42.3485 539.876 41.0262C539.876 40.9936 539.874 40.9629 539.871 40.9316C539.874 40.9004 539.876 40.8691 539.876 40.8371C539.871 40.6196 539.911 40.4034 539.992 40.201C540.073 39.9988 540.194 39.8145 540.348 39.6592C540.502 39.5038 540.686 39.3802 540.888 39.296C541.091 39.2118 541.309 39.1683 541.529 39.1683C541.749 39.1683 541.966 39.2118 542.169 39.296C542.372 39.3802 542.556 39.5038 542.709 39.6592C542.863 39.8145 542.984 39.9988 543.065 40.201C543.147 40.4034 543.186 40.6196 543.182 40.8371C543.185 43.4935 542.122 46.0423 540.228 47.9238C539.309 48.8578 538.211 49.6 536.997 50.1069C535.784 50.6139 534.48 50.8749 533.163 50.8749C531.846 50.8749 530.543 50.6139 529.329 50.1069C528.116 49.6 527.018 48.8578 526.099 47.9238C524.207 46.0406 523.145 43.4928 523.145 40.8371C523.145 38.1815 524.207 35.6337 526.099 33.7505C527.018 32.8177 528.117 32.0761 529.33 31.5693C530.543 31.0626 531.846 30.8008 533.163 30.7994C533.264 30.7991 533.365 30.7853 533.462 30.7583C534.423 30.6125 535.295 30.1209 535.912 29.3778C536.528 28.6346 536.846 27.6923 536.804 26.7316C536.762 25.7708 536.363 24.8593 535.683 24.1719C535.004 23.4844 534.092 23.0695 533.122 23.0067C533.082 23.0023 533.041 23.0001 533 23C532.977 23 532.955 23 532.932 23C532.921 23 532.91 23 532.899 23C532.888 23 532.877 23.0013 532.866 23.0016C530.52 23.0199 528.202 23.4975 526.043 24.4068C523.885 25.3162 521.93 26.6393 520.291 28.3C516.902 31.6758 515 36.2413 515 41.0001C515 45.7587 516.902 50.3241 520.291 53.7C521.945 55.3776 523.922 56.7108 526.104 57.6208C528.287 58.531 530.632 59 533 59C535.369 59 537.713 58.531 539.896 57.6208C542.079 56.7108 544.055 55.3776 545.709 53.7L545.709 53.7009Z" fill="url(#paint0_linear_12_2)"/>
<defs>
<linearGradient id="paint0_linear_12_2" x1="525.867" y1="48.5824" x2="568.869" y2="17.8523" gradientUnits="userSpaceOnUse">
<stop stop-color="#997ACC"/>
<stop offset="1" stop-color="#00C2A5" stop-opacity="0"/>
</linearGradient>
</defs>
</svg>
