<svg width="799" height="1314" viewBox="0 0 799 1314" fill="none" xmlns="http://www.w3.org/2000/svg">
<path d="M545.398 549.44V2.62H795.898V621.12" stroke="#B8ADD2" stroke-width="4.82" stroke-miterlimit="10"/>
<path d="M570.297 369V401H602.297V342.28H570.297V369ZM575.557 347.52H596.997V369H575.557V347.52ZM575.557 374.25H596.997V395.75H575.557V374.25Z" fill="#D4CEE4"/>
<path d="M626.719 369V401H658.719V342.28H626.719V369ZM631.999 347.54H653.479V369H631.999V347.54ZM631.999 374.27H653.479V395.75H631.999V374.27Z" fill="#D4CEE4"/>
<path d="M681.598 369V401H713.598V342.28H681.598V369ZM686.858 347.52H708.338V369H686.858V347.52ZM686.858 374.25H708.338V395.75H686.858V374.25Z" fill="#D4CEE4"/>
<path d="M733.258 369V401H765.258V342.28H733.258V369ZM738.508 347.52H759.998V369H738.508V347.52ZM738.508 374.25H759.998V395.75H738.508V374.25Z" fill="#D4CEE4"/>
<path d="M534.348 1042.13C525.898 1050.65 517.528 1060.13 508.608 1068.74C506.155 1071.13 503.645 1073.45 501.078 1075.68C498.228 1078.16 495.288 1080.52 492.278 1082.68C492.06 1082.05 491.792 1081.44 491.478 1080.85C486.428 1070.85 472.728 1064.52 471.028 1053.18C469.478 1042.59 479.028 1032.86 477.468 1022.48C475.708 1010.74 461.268 1003.77 458.598 992.3C456.898 985.18 458.418 976.97 457.798 969.63C457.089 961.423 455.701 953.288 453.648 945.31C454.648 945.24 455.648 945.21 456.648 945.18C476.948 944.84 496.928 956.24 503.498 972.26C508.788 985.26 506.098 1000.17 513.128 1012.32C513.551 1013.11 514.029 1013.86 514.558 1014.58C515.49 1015.86 516.492 1017.08 517.558 1018.24L519.788 1020.56C520.158 1020.93 520.568 1021.27 520.938 1021.67C521.308 1022.07 521.708 1022.42 522.078 1022.82C525.578 1026.17 529.148 1029.54 531.468 1033.54C531.678 1033.89 531.866 1034.25 532.028 1034.62C532.239 1034.99 532.426 1035.38 532.588 1035.77C532.798 1036.2 532.958 1036.61 533.108 1037.01C533.258 1037.41 533.448 1038.01 533.608 1038.43C533.828 1039.18 534.038 1039.89 534.198 1040.63C534.198 1040.82 534.198 1040.98 534.258 1041.13C534.318 1041.28 534.258 1041.25 534.258 1041.32C534.273 1041.38 534.273 1041.44 534.258 1041.5C534.258 1041.63 534.258 1041.72 534.318 1041.81V1041.87C534.304 1041.96 534.314 1042.05 534.348 1042.13Z" fill="white"/>
<path d="M534.48 1042.75H534.51L534.48 1042.78V1042.75Z" fill="white"/>
<path d="M534.542 1042.69C534.792 1042.47 535.002 1042.32 535.252 1042.1C535.042 1042.29 534.792 1042.5 534.572 1042.72C534.572 1042.72 534.572 1042.72 534.512 1042.72L534.542 1042.69Z" fill="white"/>
<path d="M605.609 993.46C605.394 996.947 605.394 1000.44 605.609 1003.93C599.509 1005.42 593.499 1007.06 587.609 1009.04C583.949 1010.25 580.359 1011.58 576.769 1013.1C566.809 1017.14 557.43 1022.49 548.879 1029C550.742 1025.82 552.054 1022.35 552.759 1018.74C552.759 1018.59 552.819 1018.43 552.849 1018.25C554.399 1010.76 554.519 1002.89 558.049 995.73C564.619 982.53 583.829 972.96 603.939 972.34H604.309C606.139 972.34 607.999 972.34 609.859 972.43C607.776 979.289 606.353 986.331 605.609 993.46Z" fill="white"/>
<path d="M596.471 983.82L587.551 1009C583.891 1010.21 580.301 1011.54 576.711 1013.06C582.441 1001.92 589.001 991.85 596.471 983.82Z" fill="white"/>
<path d="M534.578 1042.79C534.578 1042.59 534.548 1042.39 534.488 1042.2C534.548 1042.57 534.578 1042.79 534.578 1042.79Z" fill="white"/>
<path d="M466.75 958.51C486.75 984.44 500.03 1028.51 508.61 1068.74C506.157 1071.13 503.647 1073.45 501.08 1075.68L466.75 958.51Z" fill="white"/>
<path d="M537.371 1002.23C533.371 1014.44 533.221 1026.77 533.691 1034.58C533.811 1037.1 534.078 1039.62 534.491 1042.11L537.371 1002.23Z" fill="white"/>
<path d="M534.348 1042.13C525.898 1050.65 517.528 1060.13 508.608 1068.74C506.155 1071.13 503.645 1073.45 501.078 1075.68C498.228 1078.16 495.288 1080.52 492.278 1082.68C492.06 1082.05 491.792 1081.44 491.478 1080.85C486.428 1070.85 472.728 1064.52 471.028 1053.18C469.478 1042.59 479.028 1032.86 477.468 1022.48C475.708 1010.74 461.268 1003.77 458.598 992.3C456.898 985.18 458.418 976.97 457.798 969.63C457.089 961.423 455.701 953.288 453.648 945.31C454.648 945.24 455.648 945.21 456.648 945.18C476.948 944.84 496.928 956.24 503.498 972.26C508.788 985.26 506.098 1000.17 513.128 1012.32C513.551 1013.11 514.029 1013.86 514.558 1014.58C515.49 1015.86 516.492 1017.08 517.558 1018.24L519.788 1020.56C520.158 1020.93 520.568 1021.27 520.938 1021.67C521.308 1022.07 521.708 1022.42 522.078 1022.82C525.578 1026.17 529.148 1029.54 531.468 1033.54C531.678 1033.89 531.866 1034.25 532.028 1034.62C532.239 1034.99 532.426 1035.38 532.588 1035.77C532.798 1036.2 532.958 1036.61 533.108 1037.01C533.258 1037.41 533.448 1038.01 533.608 1038.43C533.828 1039.18 534.038 1039.89 534.198 1040.63C534.198 1040.82 534.198 1040.98 534.258 1041.13C534.318 1041.28 534.258 1041.25 534.258 1041.32C534.273 1041.38 534.273 1041.44 534.258 1041.5C534.258 1041.63 534.258 1041.72 534.318 1041.81V1041.87C534.304 1041.96 534.314 1042.05 534.348 1042.13Z" stroke="#B8ADD2" stroke-width="4.65" stroke-miterlimit="10"/>
<path d="M552.759 1018.77C552.051 1022.37 550.739 1025.83 548.879 1029" stroke="#B8ADD2" stroke-width="4.65" stroke-miterlimit="10"/>
<path d="M605.58 1003.93C605.365 1000.44 605.365 996.947 605.58 993.46C606.326 986.341 607.75 979.309 609.83 972.46C607.97 972.34 606.11 972.34 604.28 972.37H603.91C583.8 972.99 564.59 982.56 558.02 995.76C554.49 1002.92 554.37 1010.76 552.82 1018.28" stroke="#B8ADD2" stroke-width="4.65" stroke-miterlimit="10"/>
<path d="M552.77 1018.78C552.77 1018.62 552.829 1018.47 552.859 1018.28" stroke="#B8ADD2" stroke-width="4.65" stroke-miterlimit="10"/>
<path d="M552.849 1018.24C552.849 1018.42 552.789 1018.58 552.759 1018.73C552.055 1022.35 550.743 1025.82 548.879 1029" stroke="#B8ADD2" stroke-width="4.65" stroke-miterlimit="10"/>
<path d="M552.77 1018.78C552.77 1018.62 552.829 1018.47 552.859 1018.28" stroke="#B8ADD2" stroke-width="4.65" stroke-miterlimit="10"/>
<path d="M534.48 1042.6V1042.75" stroke="#B8ADD2" stroke-width="4.65" stroke-miterlimit="10"/>
<path d="M596.471 983.82C589.001 991.82 582.471 1001.92 576.711 1013.1" stroke="#B8ADD2" stroke-width="4.65" stroke-miterlimit="10"/>
<path d="M534.578 1042.79C534.578 1042.59 534.548 1042.39 534.488 1042.2C534.548 1042.57 534.578 1042.79 534.578 1042.79Z" stroke="#B8ADD2" stroke-width="4.65" stroke-miterlimit="10"/>
<path d="M466.75 958.51C486.75 984.44 500.03 1028.51 508.61 1068.74" stroke="#B8ADD2" stroke-width="4.65" stroke-miterlimit="10"/>
<path d="M537.371 1002.23C533.371 1014.44 533.221 1026.77 533.691 1034.58C533.811 1037.1 534.078 1039.62 534.491 1042.11" stroke="#B8ADD2" stroke-width="4.65" stroke-miterlimit="10"/>
<path d="M750.079 714.38C762.809 762.06 775.939 813.43 774.859 862.44C773.709 914.09 747.409 957.44 700.289 979.44C669.619 993.75 636.649 996.38 605.579 1003.91C599.479 1005.4 593.469 1007.04 587.579 1009.02C583.919 1010.23 580.329 1011.56 576.739 1013.08C566.788 1017.13 557.419 1022.48 548.879 1029" stroke="#B8ADD2" stroke-width="4.65" stroke-miterlimit="10"/>
<path d="M241.269 443C241.269 443 181.909 429.45 132.499 446.15C126.344 448.178 120.38 450.748 114.679 453.83C86.6789 468.98 65.5489 497.45 67.0989 549.16C67.9289 576.16 66.3489 602.79 61.0289 628.63C59.2889 637.016 57.1389 645.316 54.5789 653.53C48.3079 673.612 39.2569 692.717 27.6889 710.29C-9.15108 766.15 -3.57107 824.21 37.2889 878.05C39.4289 880.87 41.6289 883.66 43.8889 886.39" stroke="#B8ADD2" stroke-width="4.65" stroke-miterlimit="10"/>
<path d="M673.789 418.26H308.429C266.29 418.26 232.129 452.42 232.129 494.56V838.9C232.129 881.039 266.29 915.2 308.429 915.2H673.789C715.928 915.2 750.089 881.039 750.089 838.9V494.56C750.089 452.42 715.928 418.26 673.789 418.26Z" fill="#9B8CC0"/>
<path d="M668.72 411H305.94C261.001 411 224.57 447.431 224.57 492.37V833.83C224.57 878.769 261.001 915.2 305.94 915.2H668.72C713.66 915.2 750.09 878.769 750.09 833.83V492.37C750.09 447.431 713.66 411 668.72 411Z" stroke="black" stroke-width="4.65" stroke-miterlimit="10"/>
<path d="M663.6 428.03H318.62C276.481 428.03 242.32 462.191 242.32 504.33V829.12C242.32 871.26 276.481 905.42 318.62 905.42H663.6C705.74 905.42 739.9 871.26 739.9 829.12V504.33C739.9 462.191 705.74 428.03 663.6 428.03Z" fill="#9B8CC0"/>
<path d="M681.109 453.09H576.919C562.759 453.09 551.27 465.45 551.27 480.66V721.82C551.27 737.06 562.759 749.45 576.919 749.45H681.109C695.299 749.45 706.83 737.06 706.83 721.82V480.66C706.83 465.45 695.299 453.09 681.109 453.09ZM699.45 722.87C699.431 727.939 697.408 732.796 693.823 736.38C690.237 739.964 685.379 741.984 680.31 742H577.789C572.713 741.984 567.848 739.962 564.255 736.375C560.663 732.788 558.633 727.927 558.609 722.85V479.67C558.633 474.593 560.663 469.731 564.255 466.144C567.848 462.557 572.713 460.536 577.789 460.52H680.31C685.383 460.536 690.243 462.559 693.83 466.147C697.416 469.735 699.436 474.597 699.45 479.67V722.87Z" fill="#D4CEE4"/>
<path d="M679.738 777.75H575.548C561.398 777.75 549.898 790.11 549.898 805.32V842C549.898 857.25 561.398 869.64 575.548 869.64H679.738C693.928 869.64 705.458 857.25 705.458 842V805.32C705.458 790.11 693.928 777.75 679.738 777.75ZM698.078 843.06C698.065 848.132 696.044 852.993 692.458 856.579C688.871 860.166 684.011 862.187 678.938 862.2H576.418C571.343 862.187 566.478 860.167 562.885 856.582C559.292 852.996 557.262 848.136 557.238 843.06V804.33C557.262 799.253 559.291 794.392 562.884 790.805C566.477 787.217 571.342 785.196 576.418 785.18H678.938C684.012 785.196 688.872 787.219 692.458 790.807C696.045 794.395 698.065 799.257 698.078 804.33V843.06Z" fill="#D4CEE4"/>
<path d="M446.249 804.41L293.569 802.17C291.927 802.144 290.362 801.466 289.218 800.287C288.074 799.108 287.445 797.523 287.469 795.88C287.467 795.311 287.548 794.745 287.709 794.2C288.103 792.907 288.906 791.778 289.997 790.981C291.088 790.184 292.408 789.762 293.759 789.78L446.439 792C445.298 793.773 444.659 795.822 444.589 797.93C444.507 800.205 445.083 802.455 446.249 804.41Z" fill="#9B8CC0"/>
<path d="M483.27 800.41C482.882 801.7 482.089 802.831 481.008 803.634C479.928 804.438 478.616 804.871 477.27 804.87L466.27 804.71C467.449 802.867 468.092 800.731 468.125 798.542C468.159 796.354 467.582 794.199 466.46 792.32L477.46 792.48C479.1 792.514 480.66 793.194 481.802 794.372C482.944 795.549 483.576 797.13 483.56 798.77C483.541 799.328 483.443 799.88 483.27 800.41Z" fill="#D4CEE4"/>
<path d="M482.91 825C482.523 826.288 481.729 827.416 480.648 828.214C479.566 829.013 478.255 829.44 476.91 829.43L325.16 827.21C326.577 825.52 327.486 823.463 327.782 821.277C328.077 819.091 327.747 816.866 326.83 814.86L477.05 817C478.691 817.032 480.253 817.711 481.396 818.889C482.538 820.067 483.169 821.649 483.15 823.29C483.156 823.869 483.075 824.445 482.91 825Z" fill="#D4CEE4"/>
<path d="M306.9 826.93L293.22 826.73C291.581 826.706 290.018 826.035 288.872 824.861C287.727 823.688 287.094 822.109 287.11 820.47C287.116 819.892 287.2 819.316 287.36 818.76C287.743 817.473 288.537 816.346 289.62 815.552C290.703 814.758 292.017 814.339 293.36 814.36L305.55 814.55C304.837 816.029 304.435 817.639 304.37 819.28C304.268 822.051 305.166 824.766 306.9 826.93Z" fill="#9B8CC0"/>
<path d="M435.45 853.68L293.78 851.62C292.141 851.584 290.582 850.903 289.44 849.726C288.299 848.549 287.666 846.97 287.68 845.33C287.683 844.774 287.771 844.221 287.94 843.69C288.324 842.399 289.117 841.266 290.198 840.462C291.28 839.659 292.592 839.226 293.94 839.23L435.4 841.31C434.245 843.167 433.633 845.309 433.633 847.495C433.633 849.682 434.245 851.824 435.4 853.68H435.45Z" fill="#9B8CC0"/>
<path d="M483.5 849.87C483.116 851.159 482.322 852.287 481.24 853.084C480.157 853.882 478.845 854.305 477.5 854.29L455.24 854L435.45 853.73C434.296 851.874 433.684 849.732 433.684 847.545C433.684 845.359 434.296 843.217 435.45 841.36L455.61 841.66L477.61 841.98C479.248 842.007 480.808 842.68 481.951 843.853C483.094 845.025 483.726 846.603 483.71 848.24C483.718 848.791 483.647 849.34 483.5 849.87Z" fill="#D4CEE4"/>
<path d="M466.21 804.71C464.673 807.113 462.315 808.877 459.576 809.673C456.836 810.469 453.901 810.244 451.315 809.04C448.729 807.836 446.668 805.734 445.514 803.125C444.36 800.515 444.193 797.576 445.042 794.853C445.892 792.129 447.701 789.807 450.134 788.316C452.566 786.826 455.457 786.269 458.269 786.749C461.081 787.229 463.624 788.713 465.425 790.925C467.225 793.138 468.162 795.929 468.06 798.78C467.987 800.887 467.348 802.935 466.21 804.71Z" fill="white"/>
<g opacity="0.72">
<path opacity="0.72" d="M461.779 797.51C461.515 798.917 460.852 800.219 459.869 801.26C459.392 801.79 458.87 802.278 458.309 802.72C457.999 802.94 456.389 804.23 456.079 804.07C453.959 803 451.289 800.31 450.959 797.68C450.904 797.268 450.904 796.851 450.959 796.44C451.076 795.732 451.444 795.089 451.994 794.629C452.544 794.168 453.242 793.92 453.959 793.93C454.429 793.947 454.889 794.075 455.3 794.302C455.712 794.53 456.065 794.851 456.329 795.24C456.63 794.878 457.008 794.589 457.435 794.393C457.863 794.197 458.329 794.101 458.799 794.11C459.223 794.124 459.639 794.225 460.022 794.407C460.404 794.588 460.746 794.846 461.025 795.165C461.305 795.483 461.516 795.856 461.645 796.259C461.775 796.663 461.821 797.088 461.779 797.51Z" fill="#9B8CC0"/>
</g>
<path d="M325.141 827.21C324.021 828.552 322.615 829.628 321.025 830.357C319.436 831.086 317.703 831.45 315.955 831.423C314.206 831.397 312.486 830.979 310.919 830.202C309.353 829.424 307.98 828.306 306.901 826.93C305.175 824.763 304.284 822.048 304.391 819.28C304.457 817.639 304.859 816.029 305.571 814.55C306.575 812.51 308.148 810.804 310.1 809.638C312.052 808.472 314.299 807.896 316.571 807.98C318.76 808.049 320.884 808.734 322.701 809.956C324.518 811.179 325.953 812.888 326.841 814.89C327.759 816.896 328.089 819.12 327.793 821.306C327.497 823.492 326.588 825.549 325.171 827.24L325.141 827.21Z" fill="white"/>
<g opacity="0.72">
<path opacity="0.72" d="M321.59 818.84C321.319 820.244 320.653 821.541 319.67 822.58C319.2 823.117 318.677 823.606 318.11 824.04C317.81 824.26 316.19 825.56 315.89 825.39C313.77 824.33 311.1 821.64 310.76 819C310.705 818.588 310.705 818.171 310.76 817.76C310.863 817.174 311.138 816.632 311.549 816.203C311.961 815.774 312.49 815.477 313.071 815.349C313.652 815.222 314.258 815.27 314.811 815.487C315.365 815.704 315.841 816.081 316.18 816.57C316.577 816.019 317.149 815.618 317.803 815.434C318.456 815.25 319.153 815.294 319.779 815.557C320.405 815.821 320.923 816.289 321.249 816.886C321.574 817.482 321.687 818.171 321.57 818.84H321.59Z" fill="#9B8CC0"/>
</g>
<path d="M455.241 854C453.829 856.132 451.76 857.746 449.348 858.597C446.936 859.448 444.312 859.49 441.875 858.715C439.437 857.941 437.318 856.392 435.84 854.305C434.361 852.218 433.603 849.706 433.681 847.15C433.755 845.101 434.358 843.106 435.431 841.36C436.254 840.044 437.33 838.904 438.596 838.006C439.861 837.109 441.293 836.471 442.806 836.129C444.32 835.787 445.887 835.749 447.415 836.016C448.944 836.283 450.405 836.851 451.713 837.685C453.021 838.52 454.151 839.606 455.038 840.88C455.924 842.154 456.549 843.59 456.877 845.107C457.205 846.624 457.23 848.191 456.949 849.717C456.668 851.243 456.088 852.699 455.241 854Z" fill="white"/>
<g opacity="0.72">
<path opacity="0.72" d="M450.891 846.66C450.622 848.068 449.956 849.369 448.971 850.41C448.5 850.947 447.978 851.436 447.411 851.87C447.111 852.09 445.491 853.38 445.191 853.22C443.071 852.15 440.401 849.47 440.061 846.83C440.006 846.418 440.006 846.001 440.061 845.59C440.164 845.004 440.438 844.462 440.85 844.033C441.261 843.604 441.791 843.307 442.372 843.179C442.953 843.052 443.559 843.1 444.112 843.317C444.666 843.534 445.142 843.911 445.481 844.4C445.877 843.85 446.448 843.451 447.101 843.268C447.753 843.084 448.449 843.127 449.074 843.389C449.699 843.651 450.216 844.117 450.543 844.711C450.869 845.305 450.985 845.992 450.871 846.66H450.891Z" fill="#9B8CC0"/>
</g>
<path d="M286.3 482.36L286.56 518.55C286.626 524.862 289.131 530.905 293.55 535.413C297.969 539.921 303.96 542.547 310.27 542.74L346.09 543.36C349.17 543.407 352.228 542.835 355.083 541.678C357.938 540.52 360.532 538.801 362.71 536.622C364.887 534.444 366.605 531.85 367.761 528.994C368.918 526.139 369.488 523.08 369.44 520L369.17 483.81C369.108 477.498 366.606 471.456 362.188 466.948C357.77 462.441 351.779 459.818 345.47 459.63L309.65 459C306.569 458.952 303.511 459.524 300.656 460.682C297.801 461.839 295.208 463.558 293.03 465.737C290.852 467.916 289.134 470.51 287.978 473.365C286.822 476.221 286.251 479.28 286.3 482.36Z" fill="white"/>
<path d="M291.809 491.44L291.999 517.64C292.058 523.121 294.234 528.367 298.071 532.28C301.908 536.194 307.11 538.473 312.589 538.64L343.699 539.18C346.374 539.221 349.03 538.724 351.51 537.719C353.99 536.715 356.243 535.223 358.136 533.332C360.029 531.441 361.523 529.189 362.53 526.71C363.537 524.231 364.036 521.576 363.999 518.9V517.13C359.629 508.19 351.119 494.81 341.999 502.81C328.909 514.31 322.919 505.56 315.289 494.27C308.919 484.82 299.229 477.92 291.809 491.44Z" fill="#9B8CC0"/>
<path d="M350.338 487.822C354.29 485.197 355.308 479.779 352.612 475.722C349.917 471.665 344.528 470.504 340.577 473.129C336.625 475.755 335.607 481.172 338.303 485.229C340.998 489.286 346.387 490.447 350.338 487.822Z" fill="#9B8CC0"/>
<path d="M494.38 497C488.782 496.998 483.32 498.729 478.746 501.956C474.171 505.182 470.707 509.746 468.83 515.02C466.953 520.294 466.755 526.02 468.262 531.411C469.77 536.802 472.91 541.595 477.25 545.13L406.25 689.84C405.813 689.771 405.372 689.728 404.93 689.71C403.798 689.725 402.673 689.9 401.59 690.23L355.4 632.84C357.462 629.994 358.63 626.598 358.755 623.086C358.879 619.573 357.954 616.104 356.098 613.119C354.243 610.134 351.54 607.77 348.334 606.328C345.129 604.885 341.567 604.431 338.103 605.021C334.638 605.612 331.428 607.222 328.882 609.644C326.335 612.067 324.569 615.193 323.807 618.624C323.044 622.055 323.322 625.636 324.603 628.908C325.884 632.181 328.111 634.998 331 637L298.63 729.12C295.808 729.289 293.131 730.43 291.054 732.348C288.978 734.267 287.629 736.846 287.239 739.646C286.848 742.446 287.438 745.296 288.91 747.71C290.382 750.124 292.644 751.954 295.312 752.889C297.981 753.824 300.89 753.807 303.547 752.84C306.204 751.873 308.444 750.016 309.887 747.585C311.33 745.153 311.887 742.297 311.463 739.502C311.038 736.706 309.659 734.144 307.56 732.25L339.93 640.12C340.33 640.12 340.72 640.18 341.12 640.18C343.527 640.18 345.909 639.69 348.12 638.74L394.3 696.11C393.327 697.875 392.811 699.855 392.8 701.87C392.753 703.504 393.035 705.13 393.628 706.653C394.22 708.176 395.113 709.564 396.252 710.736C397.39 711.908 398.753 712.839 400.258 713.476C401.763 714.112 403.381 714.44 405.015 714.44C406.649 714.44 408.267 714.112 409.772 713.476C411.277 712.839 412.64 711.908 413.779 710.736C414.918 709.564 415.81 708.176 416.403 706.653C416.995 705.13 417.277 703.504 417.23 701.87C417.222 699.153 416.299 696.518 414.61 694.39L485.61 549.68C489.342 550.994 493.316 551.475 497.254 551.09C501.192 550.705 504.998 549.462 508.404 547.45C511.811 545.437 514.735 542.703 516.973 539.44C519.21 536.177 520.706 532.464 521.356 528.561C522.006 524.658 521.794 520.66 520.734 516.848C519.674 513.036 517.793 509.502 515.222 506.495C512.652 503.487 509.454 501.079 505.853 499.438C502.252 497.798 498.337 496.966 494.38 497Z" fill="#D4CEE4"/>
<path d="M580.18 549.15H675.18" stroke="white" stroke-width="4.65" stroke-miterlimit="10"/>
<path d="M580.18 563.82H675.18" stroke="white" stroke-width="4.65" stroke-miterlimit="10"/>
<path d="M580.18 578.48H675.18" stroke="white" stroke-width="4.65" stroke-miterlimit="10"/>
<path d="M580.18 593.14H675.18" stroke="white" stroke-width="4.65" stroke-miterlimit="10"/>
<path d="M580.18 607.81H675.18" stroke="white" stroke-width="4.65" stroke-miterlimit="10"/>
<path d="M580.18 693.45H675.18" stroke="white" stroke-width="4.65" stroke-miterlimit="10"/>
<path d="M580.18 706.39H675.18" stroke="white" stroke-width="4.65" stroke-miterlimit="10"/>
<path d="M655.22 805.48C656.175 806.272 656.94 807.268 657.459 808.395C657.979 809.521 658.239 810.75 658.22 811.99L658 841.32C657.993 842.427 657.766 843.522 657.335 844.541C656.903 845.561 656.274 846.485 655.484 847.26C654.695 848.036 653.759 848.648 652.733 849.062C651.706 849.475 650.607 849.682 649.5 849.67L605.5 849.29C603.269 849.269 601.137 848.363 599.574 846.771C598.01 845.179 597.142 843.032 597.16 840.8L597.42 811.45C597.504 809.239 598.43 807.144 600.009 805.594C601.587 804.043 603.698 803.155 605.91 803.11L649.91 803.49C651.86 803.507 653.74 804.212 655.22 805.48Z" fill="white"/>
<path d="M648.998 810.84L628.478 828.47C628.216 828.693 627.883 828.816 627.538 828.816C627.194 828.816 626.86 828.693 626.598 828.47L605.708 810.47C605.477 810.275 605.313 810.014 605.239 809.721C605.165 809.429 605.185 809.121 605.295 808.84C605.406 808.56 605.602 808.321 605.855 808.157C606.109 807.994 606.407 807.914 606.708 807.93L648.118 808.3C648.409 808.309 648.69 808.407 648.925 808.58C649.159 808.753 649.335 808.992 649.431 809.267C649.526 809.542 649.536 809.84 649.458 810.121C649.381 810.401 649.221 810.652 648.998 810.84Z" fill="#9B8CC0"/>
<path d="M629.059 631.38C624.675 631.376 620.389 632.672 616.742 635.105C613.095 637.537 610.252 640.997 608.572 645.046C606.891 649.095 606.449 653.551 607.302 657.851C608.155 662.151 610.264 666.101 613.362 669.202C616.461 672.303 620.409 674.416 624.708 675.273C629.008 676.129 633.464 675.692 637.515 674.015C641.565 672.338 645.027 669.498 647.463 665.853C649.899 662.209 651.199 657.924 651.199 653.54C651.2 650.631 650.629 647.751 649.517 645.063C648.405 642.375 646.774 639.932 644.718 637.875C642.663 635.817 640.221 634.184 637.535 633.07C634.848 631.955 631.968 631.381 629.059 631.38ZM629.059 670.38C628.2 670.38 627.376 670.039 626.768 669.431C626.16 668.823 625.819 667.999 625.819 667.14C625.819 666.281 626.16 665.456 626.768 664.849C627.376 664.241 628.2 663.9 629.059 663.9C629.918 663.9 630.742 664.241 631.35 664.849C631.958 665.456 632.299 666.281 632.299 667.14C632.299 667.999 631.958 668.823 631.35 669.431C630.742 670.039 629.918 670.38 629.059 670.38ZM633.129 645.46C632.449 650.27 631.869 655.32 630.439 659.98C630.306 660.233 630.106 660.446 629.861 660.594C629.616 660.742 629.335 660.82 629.049 660.82C628.763 660.82 628.482 660.742 628.237 660.594C627.992 660.446 627.792 660.233 627.659 659.98C626.645 656.47 625.87 652.895 625.339 649.28C624.889 646.66 623.339 642.39 624.829 639.85C626.119 637.56 629.769 637.29 631.829 638.48C634.459 639.89 633.439 643 633.129 645.42V645.46Z" fill="white"/>
<path d="M494.771 544.53C505.762 544.53 514.671 535.621 514.671 524.63C514.671 513.64 505.762 504.73 494.771 504.73C483.781 504.73 474.871 513.64 474.871 524.63C474.871 535.621 483.781 544.53 494.771 544.53Z" fill="white"/>
<path d="M628.9 496.12C632.573 496.12 635.55 493.143 635.55 489.47C635.55 485.798 632.573 482.82 628.9 482.82C625.227 482.82 622.25 485.798 622.25 489.47C622.25 493.143 625.227 496.12 628.9 496.12Z" fill="white"/>
<path d="M610.328 519.54C610.328 514.615 612.285 509.891 615.767 506.409C619.25 502.926 623.973 500.97 628.898 500.97C633.823 500.97 638.547 502.926 642.029 506.409C645.512 509.891 647.468 514.615 647.468 519.54H610.328Z" fill="white"/>
<path d="M500.998 1155.19C500.994 1156.7 500.53 1158.17 499.667 1159.41C498.804 1160.65 497.584 1161.6 496.168 1162.13L426.518 1188.13C426.518 1188.13 423.198 1181.97 417.408 1171.68L377.628 1105.13C366.878 1160.43 354.888 1215.8 347.458 1250.31L340.298 1284.67L368.998 1294.11C370.724 1294.53 372.259 1295.51 373.36 1296.9C374.46 1298.29 375.062 1300.01 375.068 1301.79C375.066 1302.99 374.79 1304.18 374.261 1305.26C373.731 1306.34 372.963 1307.29 372.015 1308.03C371.066 1308.77 369.961 1309.29 368.783 1309.54C367.606 1309.79 366.387 1309.77 365.218 1309.48L298.698 1292.62V1276.36L297.118 1276.05L298.488 1086.38L233.488 1071.01C225.338 1073.55 216.728 1075.88 207.928 1077.77C207.834 1077.78 207.74 1077.8 207.648 1077.83C186.29 1083.43 163.98 1084.39 142.218 1080.65C142.028 1080.65 141.808 1080.56 141.628 1080.52C140.048 1080.22 138.468 1079.87 136.918 1079.52C136.448 1079.43 135.988 1079.34 135.518 1079.21C134.158 1078.9 132.798 1078.5 131.438 1078.13C130.688 1077.91 129.948 1077.73 129.238 1077.51C128.528 1077.29 127.998 1077.11 127.378 1076.89C115.666 1073.21 104.849 1067.13 95.6179 1059.04C88.5409 1053.1 82.5399 1045.98 77.8779 1038C75.8779 1034.84 74.0079 1031.52 72.2679 1028.11C61.7079 1007.26 59.5079 1000.17 62.5779 999.98C55.8179 997.598 49.2679 994.655 42.9979 991.18C42.9979 991.18 29.1779 910.53 59.3179 829.36C58.7419 824.339 58.8459 819.263 59.6279 814.27C65.9779 768.73 100.928 721.92 142.628 702.96C164.968 692.8 201.398 677.21 189.628 646.17C185.908 636.35 180.628 627.89 179.628 617.7C179.538 616.7 179.418 615.81 179.348 614.82C177.678 590.82 191.648 568.03 214.268 559.82C221.67 557.033 229.581 555.859 237.473 556.377C245.364 556.894 253.054 559.091 260.028 562.82C262.437 564.091 264.598 565.785 266.408 567.82C273.288 568 281.928 569.21 285.988 571.1C292.868 574.32 298.378 579.96 302.498 586.31C310.098 598.146 313.15 612.336 311.088 626.25C309.904 633.95 307.162 641.327 303.028 647.93C300.99 651.238 298.625 654.334 295.968 657.17C293.638 659.61 290.328 663.17 287.138 664.48C287.174 664.508 287.218 664.524 287.263 664.524C287.309 664.524 287.353 664.508 287.388 664.48L286.458 679.35C305.558 675 356.588 657.08 393.998 583.09C396.698 577.36 399.478 571.66 402.398 566.02C411.038 549.23 420.298 532.53 432.568 518.09C435.568 514.59 440.008 511.43 444.778 512.95C448.958 514.28 451.778 518.95 448.868 522.87L428.788 550.31L435.198 549.48C435.897 549.649 436.551 549.968 437.113 550.415C437.676 550.863 438.134 551.427 438.456 552.07C438.778 552.713 438.955 553.418 438.977 554.136C438.998 554.855 438.862 555.569 438.578 556.23L434.518 565.87L436.438 563.61C437.759 562.05 439.632 561.061 441.665 560.85C443.698 560.639 445.734 561.222 447.347 562.477C448.96 563.733 450.025 565.563 450.32 567.586C450.615 569.608 450.116 571.666 448.928 573.33L438.348 587C436.931 588.805 435.131 590.274 433.078 591.3L412.138 601.4C418.331 609.013 424.09 616.969 429.388 625.23C417.89 647.268 404.411 668.214 389.118 687.81C363.338 721.02 326.218 758.14 280.898 773.66C279.898 801.11 275.048 828.31 267.518 854.92C291.028 854.92 313.458 854.92 336.138 854.92L353.238 808.26C354.024 806.107 355.453 804.248 357.332 802.935C359.21 801.622 361.447 800.918 363.738 800.92H432.088C433.278 800.924 434.456 801.155 435.558 801.6C437.234 802.292 438.667 803.465 439.676 804.97C440.685 806.476 441.225 808.247 441.228 810.06C441.216 811.171 441.006 812.272 440.608 813.31L436.078 825.09H435.928H416.658L408.818 847.55L411.048 841.88H420.688C422.198 841.88 423.684 842.253 425.015 842.965C426.346 843.678 427.48 844.709 428.316 845.966C429.153 847.223 429.665 848.667 429.809 850.17C429.952 851.673 429.722 853.188 429.138 854.58L420.928 874.22C418.453 880.134 414.528 885.329 409.516 889.326C404.503 893.323 398.565 895.993 392.248 897.09L391.378 897.24L389.768 902L390.598 900.36C390.328 901.01 390.018 901.72 389.738 902.5H411.358C411.358 902.5 406.558 916.5 397.728 917.34C397.015 917.396 396.297 917.372 395.588 917.27H350.788C353.298 920.06 356.118 923.44 359.128 927.41C372.128 927.22 391.038 928.61 395.718 937.69C396.524 938.593 397.259 939.555 397.918 940.57C399.708 943.57 400.298 950.57 399.868 960.68C399.995 971.106 399.121 981.521 397.258 991.78C399.525 996.033 401.705 1000.31 403.798 1004.61C408.35 1013.12 412.456 1021.85 416.098 1030.79C416.224 1031.03 416.328 1031.27 416.408 1031.53C427.325 1056.56 436.902 1082.16 445.098 1108.21L445.558 1109.82C451.758 1128.1 456.808 1144.71 458.728 1154.82L491.228 1148.16C492.343 1147.79 493.53 1147.69 494.691 1147.87C495.852 1148.04 496.955 1148.5 497.908 1149.18C498.861 1149.87 499.639 1150.77 500.176 1151.81C500.713 1152.86 500.995 1154.02 500.998 1155.19Z" fill="white"/>
<path d="M388.848 903.7H410.468C409.581 906.139 408.452 908.484 407.098 910.7C404.428 914.88 400.308 919.25 394.858 918.51H329.268C326.718 918.527 324.235 917.697 322.208 916.15C321.759 914.071 321.887 911.91 322.578 909.9C349.068 905.84 376.208 901.47 388.348 898.96L390.638 898.56L388.848 903.7Z" fill="#9B8CC0"/>
<path d="M440.341 811.38C440.329 812.491 440.119 813.592 439.721 814.63L435.201 826.4H415.921L408.001 849L405.121 856.22H342.281L356.841 816.56C357.631 814.408 359.063 812.55 360.942 811.237C362.822 809.925 365.059 809.221 367.351 809.22H435.691C436.881 809.222 438.059 809.453 439.161 809.9C439.544 810.056 439.918 810.233 440.281 810.43C440.311 810.73 440.341 811.07 440.341 811.38Z" fill="#9B8CC0"/>
<path d="M440.35 811.37C440.337 812.481 440.127 813.581 439.73 814.62L435.2 826.39H415.93L422.63 808.21C423.37 806.194 424.796 804.503 426.658 803.433C428.521 802.364 430.7 801.985 432.814 802.362C434.928 802.739 436.842 803.848 438.22 805.495C439.598 807.142 440.352 809.222 440.35 811.37Z" fill="#9B8CC0"/>
<path d="M410.46 903.7C410.46 903.7 404.26 921.92 393 918C386 915.59 387.05 908.62 388.88 903.66L410.46 903.7Z" fill="#9B8CC0"/>
<path d="M394.621 826.39H363.191" stroke="white" stroke-width="4.65" stroke-linecap="round" stroke-linejoin="round"/>
<path d="M390.75 838.23H359.32" stroke="white" stroke-width="4.65" stroke-linecap="round" stroke-linejoin="round"/>
<path d="M415.372 1032C409.929 1018.84 403.58 1006.07 396.372 993.79C399.292 978.32 401.282 951.22 394.952 938.92C390.272 929.83 371.382 928.45 358.342 928.64C348.272 915.33 340.132 908.47 340.132 908.47C340.132 908.47 279.512 918.29 265.672 918.37C251.832 918.45 251.842 926.12 251.842 926.12C251.842 926.12 242.202 955.21 231.302 969.66C220.402 984.11 191.082 1001.66 148.832 1008.42C106.582 1015.18 73.352 1006.85 65.732 1002.61C58.112 998.37 57.862 1002.46 71.502 1029.33C85.142 1056.2 106.142 1075.52 141.412 1081.89C163.166 1085.64 185.47 1084.67 206.822 1079.07C206.822 1079.07 262.632 1065 279.002 1054.27C295.372 1043.54 297.932 1058.13 297.932 1058.13L296.332 1277.31L339.532 1285.93L376.852 1106.4L416.652 1173L458.002 1156C453.132 1130.43 428.122 1063 415.372 1032Z" fill="#2E2E2E"/>
<path d="M302.47 738.93C301.584 745.018 298.994 750.731 295 755.41C291.931 759.331 288.026 762.519 283.57 764.74C282.524 765.245 281.436 765.66 280.32 765.98C280.32 762.51 280.26 758.98 280.07 755.54C279.36 742.65 276.76 729.23 268.55 719.32C264.6 714.585 259.615 710.822 253.98 708.32C254.14 705.94 254.33 703.58 254.48 701.2C254.91 697.13 254.889 693.025 254.42 688.96C253.89 686.493 253.589 683.982 253.52 681.46C253.61 679.11 253.27 670.09 255.13 668.14C258.233 669.433 261.558 670.113 264.92 670.14C272.45 670.08 278.43 665.46 282.46 659.55C283.942 659.066 285.482 658.783 287.04 658.71C291.6 659.39 277.99 671.66 282.43 670.27C279.54 671.16 277.43 675.5 276.07 677.98C274.07 681.82 272.91 686.34 274.87 690.4C276.79 694.28 280.81 697.62 283.66 700.81C287.502 704.844 291.095 709.109 294.42 713.58C299.68 720.9 303.52 729.89 302.47 738.93Z" fill="#9B8CC0"/>
<path d="M233.26 703.22C240.42 703.664 247.444 705.385 254 708.3C259.631 710.804 264.612 714.567 268.56 719.3C276.77 729.22 279.37 742.63 280.08 755.52C280.27 758.99 280.36 762.52 280.33 765.96C280.18 796.48 275.1 826.68 266.76 856.21C292.66 856.21 317.23 856.21 342.26 856.21H405.12L408 849L410.3 843.2H420C421.511 843.2 422.998 843.573 424.33 844.286C425.662 844.999 426.797 846.031 427.634 847.289C428.471 848.546 428.985 849.992 429.129 851.496C429.273 853 429.043 854.516 428.46 855.91L420.25 875.55C417.768 881.46 413.84 886.652 408.826 890.647C403.813 894.642 397.875 897.311 391.56 898.41L390.69 898.57L388.4 898.97C376.26 901.48 349.12 905.85 322.63 909.91C298.4 913.66 274.7 917.13 263.49 918.74C259.24 919.36 254.9 919.82 250.49 920.1C224.32 921.71 197.3 915.89 190.3 886.1C185.74 867.02 186.74 846.45 186.95 826.59" stroke="black" stroke-width="4.65" stroke-miterlimit="10"/>
<path d="M358.551 929.5C375.491 928.72 390.671 931.23 397.181 941.83C400.461 947.19 399.661 966.09 396.281 992.45" stroke="black" stroke-width="4.65" stroke-miterlimit="10"/>
<path d="M74.7617 1034.93C74.7977 1034.98 74.8287 1035.03 74.8517 1035.08C82.1017 1049.86 94.8517 1062.62 111.162 1071.55C168.632 1102.99 255.072 1066.15 286.162 1050.82C287.402 1050.21 288.778 1049.93 290.159 1049.99C291.54 1050.06 292.881 1050.48 294.054 1051.22C295.228 1051.95 296.195 1052.97 296.865 1054.18C297.534 1055.39 297.884 1056.75 297.882 1058.13V1293.9L364.392 1310.75C365.422 1311.01 366.494 1311.07 367.545 1310.91C368.596 1310.75 369.604 1310.37 370.507 1309.81C371.411 1309.25 372.191 1308.52 372.802 1307.65C373.413 1306.78 373.841 1305.79 374.062 1304.75C374.5 1302.73 374.129 1300.62 373.028 1298.87C371.926 1297.12 370.183 1295.87 368.172 1295.39L339.482 1285.94C340.812 1276.62 360.272 1191.39 376.812 1106.41" stroke="black" stroke-width="4.65" stroke-miterlimit="10"/>
<path d="M338.851 907.36C355.851 921.76 368.061 943.9 379.491 962.71C407.341 1008.54 428.171 1058.42 444.351 1109.46C449.241 1124.88 453.741 1140.46 457.991 1156.04L490.471 1149.37C492.314 1148.77 494.318 1148.92 496.056 1149.78C497.793 1150.64 499.124 1152.14 499.766 1153.97C500.407 1155.8 500.308 1157.81 499.488 1159.56C498.669 1161.32 497.194 1162.69 495.381 1163.37L425.731 1189.37C425.731 1189.37 405.351 1151.3 376.871 1106.37C335.131 1040.45 258.001 938.85 237.641 960.52" stroke="black" stroke-width="4.65" stroke-miterlimit="10"/>
<path d="M278.09 681.78C278.09 681.78 346.39 677.05 393.21 584.36C393.21 584.36 408.01 594.57 428.64 626.51C428.64 626.51 370.76 743.98 280.08 774.98" stroke="black" stroke-width="4.65" stroke-miterlimit="10"/>
<path d="M271.91 573.4L275.91 579.48L278.32 583.18C280.765 588.876 282.914 594.694 284.76 600.61L284.88 601.03L289.46 618.53C289.468 618.55 289.468 618.571 289.46 618.59C290.999 621.124 293.122 623.253 295.65 624.8C296.248 625.123 296.805 625.516 297.31 625.97C300.06 628.73 292.81 629.53 291.31 630.44C290.648 630.895 290.106 631.502 289.728 632.21C289.35 632.919 289.149 633.708 289.14 634.51C280.53 670.34 286.07 660.93 282.37 668.9C285.58 666.18 293.56 657.53 293.56 657.53C294.56 656.88 295.5 654.93 296.15 653.96C298.215 650.792 299.992 647.445 301.46 643.96C306.023 633.551 307.076 621.94 304.46 610.88C300.33 593.69 290.7 576.49 271.91 573.4Z" fill="#9B8CC0"/>
<path d="M271.09 584.21C270.358 587.928 268.594 591.366 266 594.13C263.184 597.209 259.904 599.831 256.28 601.9C249.46 605.96 241.87 609.03 236.14 614.51C230.403 620.027 226.969 627.512 226.53 635.46C226.13 643.6 229.04 652.03 230.81 659.65C236.42 684.28 234.62 707.95 231.52 732.74C228.58 756.13 222.32 779.02 210.18 799.38C195.86 823.38 172.35 842.59 145.89 852.45C123.89 860.66 81.1401 867.94 64.9701 845.1C62.1801 837.89 62.1501 829.64 63.2301 821.87C69.5801 776.29 104.53 729.51 146.23 710.55C168.57 700.39 205 684.78 193.23 653.73C189.48 643.94 184.23 635.49 183.23 625.26C183.14 624.33 183.05 623.4 182.96 622.41C181.28 598.41 195.25 575.63 217.87 567.41C225.27 564.615 233.182 563.437 241.075 563.955C248.968 564.472 256.659 566.673 263.63 570.41C266.105 571.727 268.321 573.482 270.17 575.59C270.297 575.733 270.411 575.887 270.51 576.05C270.651 576.404 270.764 576.768 270.85 577.14C271.403 579.457 271.484 581.861 271.09 584.21Z" fill="#9B8CC0"/>
<path d="M280.382 764.93C292.462 762.14 303.062 753.49 306.092 740.85C308.912 729.14 304.452 717.12 297.542 707.7C291.132 699 277.782 691.7 278.832 679.36C279.172 675.36 281.152 671.86 283.732 668.76C284.662 667.68 285.622 666.68 286.672 665.66" stroke="black" stroke-width="4.65" stroke-miterlimit="10"/>
<path d="M255.47 667.86L254.91 708.69" stroke="black" stroke-width="4.65" stroke-miterlimit="10"/>
<path d="M188.871 647.39C185.141 637.59 179.871 629.14 178.871 618.92C178.771 617.98 178.681 617.04 178.611 616.04C176.921 592.04 190.901 569.27 213.511 561.04C220.913 558.248 228.826 557.071 236.721 557.589C244.615 558.106 252.307 560.306 259.281 564.04C261.75 565.362 263.959 567.121 265.801 569.23L266.271 569.8C267.904 571.796 269.091 574.118 269.751 576.61C270.412 579.103 270.531 581.708 270.101 584.25C269.373 587.958 267.62 591.388 265.041 594.15C262.214 597.235 258.929 599.866 255.301 601.95C248.481 606.01 240.901 609.06 235.151 614.54C229.411 620.072 225.986 627.579 225.571 635.54C225.161 643.68 228.081 652.1 229.821 659.74C235.431 684.37 233.641 708.03 230.541 732.81C227.601 756.2 221.351 779.1 209.191 799.46C194.871 823.46 171.371 842.68 144.901 852.53C122.471 860.89 78.491 868.29 63.041 843.82C57.851 835.61 57.511 825.22 58.851 815.6C65.201 770.03 100.171 723.23 141.851 704.28C164.231 694 200.661 678.43 188.871 647.39Z" stroke="black" stroke-width="4.65" stroke-miterlimit="10"/>
<path d="M274.742 619.68C276.89 619.68 278.632 617.939 278.632 615.79C278.632 613.642 276.89 611.9 274.742 611.9C272.593 611.9 270.852 613.642 270.852 615.79C270.852 617.939 272.593 619.68 274.742 619.68Z" fill="black"/>
<path d="M273.832 603.25C273.832 603.25 260.662 609.19 264.832 620.74" stroke="black" stroke-width="4.65" stroke-miterlimit="10"/>
<path d="M286.001 665.85C289.301 664.65 292.821 660.85 295.221 658.36C297.875 655.527 300.247 652.443 302.301 649.15C308.088 639.891 311.11 629.172 311.012 618.254C310.915 607.337 307.702 596.674 301.751 587.52C297.631 581.16 292.141 575.52 285.261 572.32C279.527 569.618 273.11 568.712 266.851 569.72C270.349 572.575 273.485 575.846 276.191 579.46C280.268 584.809 283.121 590.988 284.551 597.56C284.771 598.71 284.961 599.85 285.161 601.01C286.161 607.19 286.721 613.45 289.751 618.51C291.297 621.064 293.429 623.214 295.971 624.78C296.569 625.102 297.126 625.495 297.631 625.95C300.381 628.71 293.131 629.5 291.631 630.41C287.781 632.66 289.211 639.12 288.701 642.86C288.086 647.225 286.78 651.465 284.831 655.42C284.141 656.825 283.356 658.181 282.481 659.48C278.481 665.41 272.481 670.05 264.941 670.09C261.586 670.06 258.268 669.38 255.171 668.09C249.859 665.931 245.108 662.59 241.281 658.32" stroke="black" stroke-width="4.65" stroke-miterlimit="10"/>
<path d="M278.762 645.16C278.762 645.16 269.692 650.33 265.762 638.43" stroke="black" stroke-width="4.65" stroke-miterlimit="10"/>
<path d="M409.721 603.5L432.321 592.58C434.387 591.584 436.192 590.118 437.591 588.3L448.141 574.61C449.356 572.948 449.876 570.879 449.592 568.84C449.307 566.801 448.239 564.953 446.615 563.688C444.991 562.422 442.938 561.839 440.891 562.062C438.845 562.285 436.965 563.295 435.651 564.88L433.721 567.13L437.791 557.5C438.067 556.838 438.198 556.125 438.175 555.408C438.151 554.691 437.973 553.987 437.653 553.345C437.334 552.703 436.88 552.137 436.322 551.686C435.764 551.234 435.116 550.909 434.421 550.73L427.991 551.58L448.091 524.13C450.941 520.24 448.171 515.54 444.001 514.21C439.201 512.68 434.761 515.84 431.781 519.34C419.521 533.78 410.231 550.48 401.601 567.28C398.701 572.927 395.904 578.62 393.211 584.36" stroke="black" stroke-width="4.65" stroke-linejoin="round"/>
<path d="M428.002 551.58C428.002 551.58 414.891 567.89 433.731 567.13" stroke="black" stroke-width="4.65" stroke-miterlimit="10"/>
<path d="M391.499 898.4C391.499 898.4 381.779 914.17 393.099 918.04C404.419 921.91 410.609 903.71 410.609 903.71H388.759" stroke="black" stroke-width="4.65" stroke-miterlimit="10"/>
<path d="M394.978 918.5H349.898" stroke="black" stroke-width="4.65" stroke-miterlimit="10"/>
<path d="M440.488 811.37C440.475 812.481 440.265 813.581 439.868 814.62L435.348 826.39H416.078L422.768 808.21C423.508 806.194 424.935 804.503 426.797 803.433C428.659 802.364 430.839 801.985 432.953 802.362C435.067 802.739 436.981 803.848 438.359 805.495C439.737 807.142 440.49 809.222 440.488 811.37Z" stroke="black" stroke-width="4.65" stroke-miterlimit="10"/>
<path d="M346.398 826.39L335.398 856.2L352.468 809.57C353.258 807.414 354.693 805.554 356.576 804.241C358.46 802.927 360.702 802.226 362.998 802.23H431.338" stroke="black" stroke-width="4.65" stroke-miterlimit="10"/>
<path d="M405.141 856.2L416.081 826.39" stroke="black" stroke-width="4.65" stroke-miterlimit="10"/>
<path d="M58.5891 830.61C28.4391 911.78 42.2591 992.45 42.2591 992.45C87.7991 1017.79 152.369 1015.59 198.619 993.32C214.979 985.42 232.619 973.52 239.759 956.08C244.999 943.31 250.449 930.64 254.939 917.69" stroke="black" stroke-width="4.65" stroke-miterlimit="10"/>
<path d="M32.5898 1083.87H297.92" stroke="black" stroke-width="4.65" stroke-miterlimit="10"/>
<path d="M266.782 856.23L263.922 865.9" stroke="black" stroke-width="4.65" stroke-miterlimit="10"/>
<path d="M74.8511 1035.08C74.8511 1035.08 63.1711 1014.24 59.3711 1000.37" stroke="black" stroke-width="4.65" stroke-miterlimit="10"/>
<path d="M132.498 446.15V653.53H54.5781C57.1451 645.324 59.2951 637.024 61.0281 628.63C66.3481 602.79 67.9281 576.11 67.0981 549.16C65.5481 497.45 86.6481 468.98 114.678 453.83C120.379 450.748 126.343 448.178 132.498 446.15Z" stroke="#B8ADD2" stroke-width="4.65" stroke-miterlimit="10"/>
<path d="M114.68 453.83V628.63H61C66.32 602.79 67.9 576.11 67.07 549.16C65.55 497.45 86.65 469 114.68 453.83Z" stroke="#B8ADD2" stroke-width="4.65" stroke-miterlimit="10"/>
</svg>
