<svg width="903" height="635" viewBox="0 0 903 635" fill="none" xmlns="http://www.w3.org/2000/svg">
<path d="M543.942 130.51C548.736 130.51 552.622 126.718 552.622 122.04C552.622 117.362 548.736 113.57 543.942 113.57C539.148 113.57 535.262 117.362 535.262 122.04C535.262 126.718 539.148 130.51 543.942 130.51Z" fill="#D7C8EA" fill-opacity="0.67"/>
<path d="M568.302 151.34C574.073 151.34 578.752 146.774 578.752 141.14C578.752 135.507 574.073 130.94 568.302 130.94C562.53 130.94 557.852 135.507 557.852 141.14C557.852 146.774 562.53 151.34 568.302 151.34Z" fill="#D7C8EA" fill-opacity="0.67"/>
<path d="M754.18 481.42L800.48 531.97V306.09" stroke="#D7C8EA" stroke-opacity="0.67" stroke-width="4.03" stroke-miterlimit="10"/>
<path d="M800.48 499.94L842.341 463.15" stroke="#D7C8EA" stroke-opacity="0.67" stroke-width="4.03" stroke-miterlimit="10"/>
<path d="M800.481 408.31L771.941 376.36" stroke="#D7C8EA" stroke-opacity="0.67" stroke-width="4.03" stroke-miterlimit="10"/>
<path d="M800.48 379.56L821.41 366.95" stroke="#D7C8EA" stroke-opacity="0.67" stroke-width="4.03" stroke-miterlimit="10"/>
<path d="M800.481 319.2C800.481 315.37 786.211 288.3 786.211 288.3" stroke="#D7C8EA" stroke-opacity="0.67" stroke-width="4.03" stroke-miterlimit="10"/>
<path d="M755.18 548.44C756.56 548.51 757.35 548.53 757.35 548.53L769.47 548.75C773.933 548.819 778.191 550.64 781.323 553.821C784.455 557.001 786.21 561.286 786.21 565.75V630.13" stroke="#D7C8EA" stroke-opacity="0.67" stroke-width="4.03" stroke-miterlimit="10"/>
<path d="M650.051 516.87L685.461 555.53V382.78" stroke="#D7C8EA" stroke-opacity="0.67" stroke-width="4.03" stroke-miterlimit="10"/>
<path d="M695.431 522.27L685.461 531.03" stroke="#D7C8EA" stroke-opacity="0.67" stroke-width="4.03" stroke-miterlimit="10"/>
<path d="M685.459 460.96L663.629 436.52" stroke="#D7C8EA" stroke-opacity="0.67" stroke-width="4.03" stroke-miterlimit="10"/>
<path d="M685.461 438.97L701.471 429.33" stroke="#D7C8EA" stroke-opacity="0.67" stroke-width="4.03" stroke-miterlimit="10"/>
<path d="M685.459 392.8C685.459 389.87 674.539 369.18 674.539 369.18" stroke="#D7C8EA" stroke-opacity="0.67" stroke-width="4.03" stroke-miterlimit="10"/>
<path d="M717.731 474.1C713.561 467.54 711.411 460.82 716.181 456.64C719.111 454.07 726.011 453.76 731.231 452.21" stroke="#D7C8EA" stroke-opacity="0.67" stroke-width="4.03" stroke-miterlimit="10"/>
<path d="M691.281 335.89C693.536 337.82 695.446 340.12 696.931 342.69C705.231 356.85 701.481 374.19 701.441 389.69C701.391 401.69 705.061 412.06 714.791 419.4C723.521 425.99 733.681 431.93 737.311 442.94C737.516 443.555 737.667 444.188 737.761 444.83" stroke="#D7C8EA" stroke-opacity="0.67" stroke-width="4.03" stroke-miterlimit="10"/>
<path d="M632 565.76C638.703 567.364 645.568 568.189 652.46 568.22L661.74 568.36C665.15 568.417 668.4 569.813 670.79 572.244C673.181 574.676 674.521 577.95 674.52 581.36V630.59" stroke="#D7C8EA" stroke-opacity="0.67" stroke-width="4.03" stroke-miterlimit="10"/>
<path d="M631.602 434.15C642.742 413.81 660.222 423.85 665.092 403.96C668.242 390.96 664.282 376.96 665.232 363.79C665.402 361.519 665.736 359.263 666.232 357.04" stroke="#D7C8EA" stroke-opacity="0.67" stroke-width="4.03" stroke-miterlimit="10"/>
<path d="M695.648 582.62C695.647 580.697 696.027 578.792 696.768 577.016C697.509 575.241 698.596 573.631 699.964 572.279C701.333 570.927 702.957 569.86 704.741 569.141C706.525 568.422 708.435 568.065 710.358 568.09L717.468 568.21C730.728 567.66 742.708 570.93 754.868 555.98L755.178 555.59C744.658 554.93 699.008 550.47 695.428 522.27C694.428 514.61 696.778 506.89 700.008 500.02C709.308 480.23 723.858 462.76 737.138 445.53C743.008 437.91 749.628 430.91 754.538 422.53C757.688 417.2 762.638 408.17 756.928 402.81C750.198 396.5 730.668 400.88 728.278 390.28C727.982 388.404 728.186 386.483 728.868 384.71C738.318 355.92 767.508 359.71 773.868 333.71C777.998 316.71 772.818 298.46 774.038 281.19C774.878 269.55 779.668 254.88 787.208 245.89C796.838 234.35 809.118 242.74 815.488 253.62C826.348 272.13 821.488 294.79 821.378 315.08C821.378 330.78 826.148 344.32 838.868 353.91C850.268 362.52 863.578 370.3 868.298 384.7C873.448 400.4 847.928 396.29 840.678 402.61C827.588 414.06 854.388 440.44 861.858 448C880.558 467 916.668 501.28 891.268 532.5C875.358 552.06 859.688 547.79 842.368 548.5L833.048 548.38C830.534 548.35 828.038 548.819 825.707 549.76C823.375 550.701 821.253 552.096 819.464 553.863C817.675 555.631 816.255 557.735 815.286 560.056C814.317 562.376 813.818 564.866 813.818 567.38" stroke="#D7C8EA" stroke-opacity="0.67" stroke-width="4.03" stroke-miterlimit="10"/>
<path d="M24.8206 632C24.8206 632 13.8906 615.26 13.8906 577.58C13.8906 539.9 30.8906 523.17 30.8906 523.17C12.4506 576.89 50.421 632 50.421 632C51.571 629.93 62.501 614.4 63.651 586.78C63.651 586.78 74.001 610.48 65.371 632" stroke="#D7C8EA" stroke-opacity="0.67" stroke-width="4.03" stroke-linejoin="round"/>
<path d="M321.869 632C321.869 632 329.129 623.63 329.129 604.79C329.129 585.95 317.859 577.58 317.859 577.58C330.079 604.46 304.859 632 304.859 632C299.533 625.63 296.448 617.686 296.079 609.39C296.079 609.39 289.229 621.22 294.999 632" stroke="#D7C8EA" stroke-opacity="0.67" stroke-width="4.03" stroke-linejoin="round"/>
<path d="M226.561 513C227.366 519.475 226.821 526.046 224.961 532.3C218.321 554.85 196.841 568.38 176.961 562.54C157.081 556.7 146.421 533.67 153.071 511.12C159.721 488.57 181.181 475.04 201.071 480.89C202.807 481.405 204.499 482.057 206.131 482.84L185.421 518.71C184.863 519.783 184.739 521.031 185.078 522.194C185.416 523.356 186.19 524.343 187.238 524.949C188.286 525.554 189.528 525.733 190.704 525.446C191.88 525.159 192.9 524.43 193.551 523.41L213.941 488C219.686 493.241 223.733 500.081 225.561 507.64L226.561 513Z" fill="#BCA3DC"/>
<path d="M581.671 513C582.475 519.475 581.93 526.046 580.071 532.3C573.431 554.85 551.951 568.38 532.071 562.54C512.191 556.7 501.531 533.67 508.181 511.12C514.831 488.57 536.291 475.04 556.181 480.89C557.916 481.405 559.608 482.057 561.241 482.84L540.531 518.71C539.972 519.783 539.849 521.031 540.187 522.194C540.526 523.356 541.3 524.343 542.348 524.949C543.396 525.554 544.637 525.733 545.813 525.446C546.989 525.159 548.009 524.43 548.661 523.41L569.051 488C574.796 493.241 578.842 500.081 580.671 507.64L581.671 513Z" fill="#BCA3DC"/>
<path d="M164.48 462.78C177.74 455.15 193.19 452.67 208.08 457.06C210.825 457.868 213.5 458.895 216.08 460.13L183.3 516.92C182.652 518.046 182.308 519.321 182.3 520.62C182.306 522.256 182.85 523.844 183.848 525.14C184.846 526.436 186.243 527.368 187.823 527.791C189.403 528.214 191.079 528.106 192.591 527.482C194.103 526.858 195.368 525.754 196.19 524.34L228.48 468.41C237.572 476.713 243.976 487.543 246.87 499.51" stroke="#D7C8EA" stroke-opacity="0.67" stroke-width="4.03" stroke-miterlimit="10"/>
<path d="M169.998 586.28C138.588 577.02 121.658 540.58 132.198 504.9C132.332 504.399 132.493 503.905 132.678 503.42" stroke="#D7C8EA" stroke-opacity="0.67" stroke-width="4.03" stroke-miterlimit="10"/>
<path d="M248.438 507.88C249.718 518.129 248.853 528.533 245.898 538.43" stroke="#D7C8EA" stroke-opacity="0.67" stroke-width="4.03" stroke-miterlimit="10"/>
<path d="M519.59 462.78C532.85 455.15 548.3 452.67 563.19 457.06C565.934 457.868 568.61 458.895 571.19 460.13L538.4 516.92C537.752 518.046 537.407 519.321 537.4 520.62C537.397 522.26 537.937 523.855 538.934 525.157C539.931 526.459 541.331 527.394 542.915 527.819C544.499 528.243 546.179 528.132 547.694 527.503C549.208 526.874 550.472 525.762 551.29 524.34L583.58 468.41" stroke="#D7C8EA" stroke-opacity="0.67" stroke-width="4.03" stroke-miterlimit="10"/>
<path d="M525.068 586.28C493.658 577.02 476.728 540.58 487.268 504.9C487.403 504.399 487.563 503.905 487.748 503.42" stroke="#D7C8EA" stroke-opacity="0.67" stroke-width="4.03" stroke-miterlimit="10"/>
<path d="M603.55 507.88C604.827 518.13 603.958 528.533 601 538.43" stroke="#D7C8EA" stroke-opacity="0.67" stroke-width="4.03" stroke-miterlimit="10"/>
<path d="M581.671 513C582.475 519.475 581.93 526.046 580.071 532.3C573.431 554.85 551.951 568.38 532.071 562.54C512.191 556.7 501.531 533.67 508.181 511.12C514.831 488.57 536.291 475.04 556.181 480.89C557.916 481.405 559.608 482.057 561.241 482.84L540.531 518.71C539.972 519.783 539.849 521.031 540.187 522.194C540.526 523.356 541.3 524.343 542.348 524.949C543.396 525.554 544.637 525.733 545.813 525.446C546.989 525.159 548.009 524.43 548.661 523.41L569.051 488C574.796 493.241 578.842 500.081 580.671 507.64L581.671 513Z" fill="#BCA3DC"/>
<path d="M260.381 372.43L248.191 393.54L216.301 333.44C226.511 352.64 241.461 364.8 260.381 372.43Z" fill="#333333"/>
<path d="M425.299 229.33C424.969 229.54 424.639 229.78 424.299 230.02C424.236 229.955 424.179 229.885 424.129 229.81L425.299 229.33Z" fill="#4B4453"/>
<path d="M284.589 379.56C276.316 377.935 268.212 375.549 260.379 372.43L284.589 379.56Z" fill="#4B4453"/>
<path d="M391.65 472.65L377.34 498.89H275.57L283.73 485.08L290.6 473.49L291.07 472.68L391.65 472.65Z" fill="#4B4453"/>
<path d="M355.279 520.23V520.35H315.039L314.969 520.23H355.279Z" fill="#4B4453"/>
<path d="M355.279 520.23V520.35H344.519V546.47H329.279L315.039 520.35L314.969 520.23H355.279Z" fill="#4B4453"/>
<path d="M431.052 546.47H366.012V520.23H415.552L431.052 546.47Z" fill="#4B4453"/>
<path d="M409.54 546.47V553.94C409.54 557.653 408.065 561.214 405.439 563.839C402.814 566.465 399.253 567.94 395.54 567.94H366V546.47H409.54Z" fill="#9E7ACD"/>
<path d="M366 509.62V520.31H355.29H315L315.07 520.43C311.357 520.43 307.796 518.955 305.171 516.33C302.545 513.704 301.07 510.143 301.07 506.43V498.99H355.33C358.148 499.006 360.847 500.13 362.844 502.119C364.84 504.108 365.974 506.802 366 509.62Z" fill="#9E7ACD"/>
<path d="M366.009 520.31V520.331L355.279 520.31L344.519 520.281L314.969 520.23H355.279V520.26L365.989 520.31H366.009Z" fill="#4B4453"/>
<path d="M380.51 520.35H344.52V520.23L355.28 520.26L365.99 520.31H366.01L380.51 520.35Z" fill="#4B4453"/>
<path d="M636.88 382.81V385.19H635.5L636.88 382.81Z" fill="#4B4453"/>
<path d="M284.588 379.56L261.758 419.11L253.338 433.7L199.998 526.1C199.192 527.495 198.119 528.718 196.84 529.699C195.561 530.679 194.101 531.398 192.544 531.815C190.988 532.231 189.364 532.337 187.766 532.126C186.169 531.915 184.628 531.391 183.233 530.585C181.838 529.779 180.615 528.705 179.634 527.427C178.654 526.148 177.935 524.688 177.518 523.131C177.102 521.575 176.996 519.951 177.207 518.353C177.418 516.756 177.942 515.215 178.748 513.82L232.898 420L248.188 393.53L260.378 372.42L284.588 379.56Z" fill="#4B4453"/>
<path d="M666.509 328.21C666.509 330.363 665.94 332.478 664.859 334.34L661.189 340.74C651.949 342.2 642.339 344.87 653.739 353.65L636.909 382.81L635.529 385.19L607.839 433.19L554.149 526.1C552.476 528.829 549.803 530.798 546.7 531.586C543.597 532.374 540.309 531.918 537.536 530.317C534.764 528.716 532.727 526.095 531.859 523.013C530.99 519.932 531.36 516.633 532.889 513.82L587.249 419.66L607.169 385.19H456.879L475.079 350.85H626.999L643.629 322.06C644.979 319.718 647.065 317.887 649.563 316.852C652.061 315.817 654.83 315.637 657.441 316.338C660.052 317.039 662.359 318.583 664.002 320.73C665.645 322.877 666.534 325.506 666.529 328.21H666.509Z" fill="#4B4453"/>
<path d="M425.299 229.33C424.969 229.54 424.639 229.78 424.299 230.02C424.236 229.955 424.179 229.885 424.129 229.81L425.299 229.33Z" fill="#4B4453"/>
<path d="M209.579 317.62C195.389 314.76 177.159 312.11 168.579 298.93C167.359 297.09 165.829 294.93 165.499 292.68C165.452 292.419 165.428 292.155 165.429 291.89C165.289 287.48 170.559 287.76 173.939 288.29C182.009 289.53 189.939 291.29 197.889 293.18C200.249 293.73 202.589 294.3 204.889 294.87C205.543 302.612 207.118 310.249 209.579 317.62Z" fill="#333333"/>
<path d="M634.099 311.54C627.749 328.67 614.869 328.74 614.659 328.74C590.12 322.937 565.967 315.61 542.339 306.8C478.259 282.52 443.339 253.8 424.339 230.02C424.66 229.773 424.994 229.542 425.339 229.33L424.189 229.81C424.24 229.885 424.297 229.955 424.359 230.02C405.999 242.66 395.999 261.74 390.579 279.34C390.26 280.431 389.869 281.5 389.409 282.54C389.39 282.599 389.367 282.655 389.339 282.71L388.219 285.07C388.215 285.106 388.197 285.138 388.169 285.16C384.739 291.75 374.409 300.57 367.829 303.7L247.599 302.81L197.889 293.18C189.999 291.29 181.999 289.53 173.999 288.29C170.609 287.76 165.339 287.48 165.479 291.89C165.479 286.14 168.479 282.21 171.939 278.03C175.639 273.55 179.346 269.077 183.059 264.61C203.829 239.82 224.059 214.61 244.919 189.91C250.049 183.82 255.279 177.86 260.859 172.21C280.389 152.36 302.979 134.93 327.729 122.05C371.379 99.3902 404.339 92.4303 430.729 95.9803L431.589 96.1003C491.589 104.66 517.479 167.65 558.259 222.22C568.039 235.29 584.979 247.34 601.549 257L636.549 274.61C636.539 274.68 636.539 274.751 636.549 274.82C637.649 290.65 636.999 303.65 634.099 311.54Z" fill="#4B4453"/>
<path d="M425.299 229.33C424.969 229.54 424.639 229.78 424.299 230.02C424.236 229.955 424.179 229.885 424.129 229.81L425.299 229.33Z" fill="#4B4453"/>
<path d="M0 631.98H886.88" stroke="#333333" stroke-width="4.03" stroke-miterlimit="10"/>
<path d="M390.93 281.05H444.12C475.33 281.05 495.32 314.27 480.7 341.84L411.36 472.64H291.91L342.48 385" stroke="#333333" stroke-width="4.03" stroke-miterlimit="10"/>
<path d="M408.89 472.65L435.75 520.23H416.38H366.84" stroke="#333333" stroke-width="4.03" stroke-miterlimit="10"/>
<path d="M249.022 393.539L216.512 332.27" stroke="#333333" stroke-width="4.03" stroke-miterlimit="10"/>
<path d="M291.43 473.46L262.59 419.11" stroke="#333333" stroke-width="4.03" stroke-miterlimit="10"/>
<path d="M402.422 182.46C402.422 182.46 407.422 278.65 615.492 328.75C615.492 328.75 642.092 329.5 636.492 274.65" stroke="#333333" stroke-width="4.03" stroke-miterlimit="10"/>
<path d="M398.451 385.19H365.841C293.501 385.19 238.701 380.19 214.841 328.74C213.155 325.125 211.689 321.412 210.451 317.62C208.004 310.248 206.443 302.611 205.801 294.87" stroke="#333333" stroke-width="4.03" stroke-miterlimit="10"/>
<path d="M392.478 472.65L378.168 498.89H276.398L284.558 485.08L291.428 473.46L291.908 472.65H392.478Z" stroke="#333333" stroke-width="4.03" stroke-miterlimit="10"/>
<path d="M356.111 520.23V520.35H315.881L315.801 520.23H356.111Z" stroke="#333333" stroke-width="4.03" stroke-miterlimit="10"/>
<path d="M356.111 520.23V520.35H345.361V546.47H330.111L315.881 520.35L315.801 520.23H356.111Z" stroke="#333333" stroke-width="4.03" stroke-miterlimit="10"/>
<path d="M431.88 546.47H366.84V520.23H416.38L431.88 546.47Z" stroke="#333333" stroke-width="4.03" stroke-miterlimit="10"/>
<path d="M410.37 546.47V553.94C410.37 557.653 408.895 561.214 406.269 563.839C403.644 566.465 400.083 567.94 396.37 567.94H366.84V546.47H410.37Z" stroke="#333333" stroke-width="4.03" stroke-miterlimit="10"/>
<path d="M356.112 498.89C357.521 498.888 358.917 499.165 360.219 499.704C361.522 500.243 362.705 501.033 363.702 502.029C364.698 503.026 365.489 504.209 366.027 505.512C366.566 506.814 366.843 508.21 366.842 509.62V568H356.092C353.245 568 350.515 566.869 348.501 564.857C346.487 562.846 345.354 560.116 345.352 557.27V520.35H356.112" stroke="#333333" stroke-width="4.03" stroke-miterlimit="10"/>
<path d="M356.112 498.89H301.852V506.33C301.852 510.043 303.327 513.604 305.952 516.229C308.578 518.855 312.139 520.33 315.852 520.33L315.772 520.21L366.772 520.31" stroke="#333333" stroke-width="4.03" stroke-miterlimit="10"/>
<path d="M381.359 520.341L383.739 520.35H345.359V520.23L381.359 520.341Z" stroke="#333333" stroke-width="4.03" stroke-miterlimit="10"/>
<path d="M667.221 326.52C666.974 324.672 666.304 322.906 665.263 321.359C664.223 319.812 662.839 318.525 661.221 317.6C659.826 316.792 658.285 316.268 656.687 316.056C655.089 315.844 653.465 315.949 651.908 316.365C650.35 316.781 648.89 317.5 647.611 318.48C646.331 319.461 645.258 320.684 644.451 322.08L627.831 350.87H475.941L457.711 385.21H608.001L533.731 513.82C532.102 516.64 531.661 519.992 532.504 523.138C533.347 526.284 535.405 528.966 538.226 530.595C541.046 532.223 544.398 532.664 547.544 531.821C550.69 530.978 553.373 528.92 555.001 526.1L636.351 385.19L637.731 382.81L653.621 355.31" stroke="#333333" stroke-width="4.03" stroke-miterlimit="10"/>
<path d="M637.718 385.19H636.328L637.718 382.81V385.19Z" fill="#9E7ACD"/>
<path d="M285.418 379.56L254.168 433.7L200.818 526.1C200.012 527.495 198.939 528.718 197.66 529.699C196.381 530.679 194.922 531.398 193.365 531.815C191.808 532.231 190.184 532.337 188.587 532.126C186.989 531.915 185.449 531.391 184.053 530.585C182.658 529.779 181.435 528.705 180.455 527.427C179.474 526.148 178.755 524.688 178.339 523.131C177.922 521.575 177.817 519.951 178.028 518.353C178.238 516.756 178.762 515.215 179.568 513.82L233.728 420L261.208 372.42" stroke="#333333" stroke-width="4.03" stroke-miterlimit="10"/>
<path d="M283 549.36C265.63 608.31 209.46 643.71 157.57 628.42C105.68 613.13 77.6795 552.93 95.0695 494C112.46 435.07 168.6 399.6 220.5 414.91C225.038 416.257 229.462 417.962 233.73 420.01L179.57 513.82C178.763 515.216 178.24 516.756 178.029 518.354C177.818 519.951 177.923 521.575 178.34 523.132C179.181 526.276 181.237 528.957 184.055 530.585C186.872 532.214 190.222 532.656 193.366 531.815C194.923 531.399 196.382 530.68 197.661 529.699C198.94 528.718 200.013 527.496 200.82 526.1L254.17 433.7C268.91 446.85 279.43 464.81 284.56 485.08L276.4 498.89H287.18C289.295 515.822 287.872 533.008 283 549.36Z" stroke="#333333" stroke-width="4.03" stroke-miterlimit="10"/>
<path d="M638.079 549.323C655.455 490.361 627.471 430.165 575.576 414.872C523.681 399.578 467.525 434.979 450.149 493.941C432.773 552.904 460.757 613.1 512.652 628.393C564.547 643.686 620.703 608.286 638.079 549.323Z" stroke="#333333" stroke-width="4.03" stroke-miterlimit="10"/>
<path d="M166.251 291.88C166.201 286.14 169.251 282.21 172.691 278.02L183.821 264.6C204.581 239.82 224.871 214.6 245.691 189.89C250.801 183.83 256.041 177.89 261.611 172.21C281.161 152.36 303.731 134.92 328.491 122.05C472.381 47.3002 500.221 143.51 559.001 222.22C573.171 241.16 602.361 257.95 623.711 268.47C650.851 281.85 711.711 300.31 687.801 343.47C682.891 352.3 658.091 365.27 650.241 351.62C642.891 338.86 667.241 337.84 667.241 326.54C667.241 317.86 661.241 314.33 654.241 312.42C641.701 308.99 647.791 309.85 634.941 309.76" stroke="#333333" stroke-width="4.03" stroke-miterlimit="10"/>
<path d="M210.408 317.62C196.218 314.76 177.998 312.11 169.408 298.93C168.188 297.09 166.668 294.93 166.328 292.68C165.518 287.45 171.198 287.74 174.778 288.29C198.548 291.91 221.378 300.29 245.328 302.43C251.998 303.03 258.728 303.31 265.428 303.31H359.208C366.437 303.281 373.466 300.934 379.262 296.614C385.058 292.294 389.315 286.229 391.408 279.31C396.968 261.4 407.218 241.94 426.138 229.31" stroke="#333333" stroke-width="4.03" stroke-miterlimit="10"/>
<path d="M516.789 142.97L506.059 145.89" stroke="#333333" stroke-width="4.03" stroke-miterlimit="10"/>
<path d="M510.758 106.78C509.818 106.78 456.478 93.6299 431.488 95.9699" stroke="#333333" stroke-width="4.03" stroke-miterlimit="10"/>
<path d="M578.179 147.16C577.285 148.272 576.331 149.333 575.319 150.34C575.278 150.407 575.219 150.463 575.149 150.5C573.409 152.27 573.869 151.55 571.769 153.08C571.749 153.121 571.713 153.154 571.669 153.17C571.558 153.291 571.43 153.396 571.289 153.48C573.954 149.271 576.294 144.865 578.289 140.3C581.769 134.05 584.519 127.01 580.679 124.96C574.169 121.5 573.949 108.6 576.029 101.49C576.029 101.49 576.029 101.49 576.029 101.44C576.257 100.63 576.551 99.8412 576.909 99.0802C576.909 99.0802 576.909 99.0102 576.909 98.9902C577.294 98.1752 577.573 97.3152 577.739 96.4302C589.779 113.13 589.509 133.28 578.179 147.16Z" fill="#9E7ACD"/>
<path d="M577.641 88.4302C592.151 105.7 592.641 127.61 580.571 142.43C579.675 143.539 578.72 144.601 577.711 145.61C577.668 145.675 577.609 145.73 577.541 145.77C575.761 147.595 573.831 149.267 571.771 150.77C571.752 150.815 571.716 150.85 571.671 150.87C571.558 150.988 571.43 151.092 571.291 151.18C570.291 151.92 569.241 152.61 568.141 153.28C566.691 154.18 565.141 155.04 563.541 155.83C554.861 160.1 544.771 162.58 535.541 159.83C527.941 157.54 521.641 151.83 517.541 144.97C514.907 140.408 513.016 135.456 511.941 130.3" stroke="#333333" stroke-width="4.03" stroke-miterlimit="10"/>
<path d="M576.919 98.9999C576.919 98.9999 576.919 99.0699 576.919 99.0899C576.659 99.8999 576.369 100.69 576.039 101.45C576.039 101.45 576.039 101.45 576.039 101.5C574.651 104.697 572.607 107.566 570.038 109.921C567.469 112.276 564.434 114.065 561.129 115.17C560.889 115.26 560.629 115.33 560.369 115.41C558.533 115.9 556.639 116.132 554.739 116.1C553.949 116.1 553.159 116.03 552.379 115.93C548.848 115.491 545.501 114.11 542.689 111.93C542.069 111.449 541.487 110.921 540.949 110.35C540.786 110.206 540.636 110.049 540.499 109.88C538.209 107.35 536.319 103.94 532.959 103.27C530.599 102.82 528.219 103.94 526.209 105.27C519.209 109.97 514.909 117.44 512.879 125.59C511.309 108.71 516.479 92.1299 531.459 82.5899C535.822 79.8549 540.659 77.9589 545.719 76.9999L556.859 76.3999C558.729 76.5509 560.587 76.8319 562.419 77.2399C568.099 78.4999 573.749 81.2399 577.159 85.8999C577.636 87.3829 577.908 88.9239 577.969 90.4799C577.969 90.5899 577.969 90.7399 577.969 90.8799C578.109 93.6279 577.753 96.3789 576.919 98.9999Z" fill="#9E7ACD"/>
<path d="M554.48 71.6499C556.347 71.8009 558.202 72.0809 560.03 72.4899C566.12 73.8499 572.15 76.8799 575.44 82.1499C575.864 82.8259 576.232 83.5349 576.54 84.2699C576.536 84.2869 576.536 84.3039 576.54 84.3199C576.54 84.3699 576.59 84.4599 576.64 84.5799C576.833 85.0169 577 85.4639 577.14 85.9199C577.617 87.4029 577.89 88.9439 577.95 90.4999C577.95 90.6099 577.95 90.7599 577.95 90.8999C578.071 93.6409 577.698 96.3809 576.85 98.9899C576.85 98.9899 576.85 99.0599 576.85 99.0799C576.59 99.8899 576.3 100.68 575.97 101.44C575.97 101.44 575.97 101.44 575.97 101.49C574.582 104.687 572.538 107.556 569.969 109.911C567.4 112.266 564.365 114.055 561.06 115.16C560.82 115.25 560.56 115.32 560.3 115.4C558.464 115.89 556.57 116.122 554.67 116.09C553.88 116.09 553.09 116.02 552.31 115.92C548.779 115.481 545.432 114.1 542.62 111.92C542 111.439 541.419 110.911 540.88 110.34C540.718 110.196 540.567 110.039 540.43 109.87C538.14 107.34 536.25 103.93 532.89 103.26C530.53 102.81 528.15 103.93 526.14 105.26C519.14 109.96 514.84 117.43 512.81 125.58C512.4 127.085 512.09 128.615 511.88 130.16C511.268 127.524 510.82 124.852 510.54 122.16C508.54 104.79 513.62 87.5699 529 77.8199C533.386 75.0639 538.25 73.1539 543.34 72.1899" stroke="#333333" stroke-width="4.03" stroke-linecap="square" stroke-linejoin="bevel"/>
<path d="M554.478 71.6499C553.478 71.5799 552.478 71.5299 551.568 71.5299C551.328 68.4099 548.388 71.6799 545.648 69.2699C548.898 61.3199 541.118 54.6699 536.448 52.1899C527.168 47.2799 516.218 43.5599 505.578 44.6999C492.078 46.1799 486.288 56.7899 477.678 65.6999C468.018 75.6999 452.938 78.4299 439.038 77.8099C430.258 77.4099 421.038 75.6899 414.348 69.9899C413.658 69.3999 413.018 68.7699 412.348 68.1299C410.586 64.3399 409.642 60.2199 409.578 56.0399C409.608 48.0159 412.162 40.2029 416.878 33.7099C422.878 25.1299 431.758 18.7099 441.518 14.8499C451.353 11.1099 461.808 9.27091 472.328 9.42991C494.434 9.39491 516.038 16.0159 534.328 28.4299C540.498 32.6959 545.99 37.8679 550.618 43.7699C550.618 43.7699 550.618 43.8399 550.688 43.8599C555.718 52.7199 557.888 62.4699 554.478 71.6499Z" fill="#9E7ACD"/>
<path d="M574.148 89C574.595 90.342 574.952 91.711 575.218 93.1L574.148 89Z" fill="#9E7ACD"/>
<path d="M576.541 84.27C576.537 84.286 576.537 84.303 576.541 84.32C577.282 86.449 577.772 88.657 578.001 90.9C578.194 92.746 578.103 94.611 577.731 96.43C577.567 97.315 577.288 98.176 576.901 98.99C576.901 98.99 576.901 99.06 576.901 99.08C576.543 99.84 576.249 100.63 576.021 101.44C576.021 101.44 576.021 101.44 576.021 101.49C573.941 108.6 574.161 121.49 580.671 124.96C584.511 127.01 581.761 134.05 578.281 140.3C576.165 144.036 573.827 147.642 571.281 151.1" stroke="#333333" stroke-width="4.03" stroke-miterlimit="10"/>
<path d="M554.479 71.6499C553.479 71.5799 552.479 71.5299 551.569 71.5299C548.808 71.4989 546.052 71.7399 543.339 72.2499C546.489 69.1499 547.269 65.9799 546.579 63.0399C545.529 58.6099 541.119 54.6699 536.449 52.1899C527.169 47.2799 516.219 43.5599 505.579 44.6999C492.079 46.1799 486.289 56.7899 477.679 65.6999C468.019 75.6999 452.939 78.4299 439.039 77.8099C430.259 77.4099 421.039 75.6899 414.349 69.9899C413.659 69.3999 413.019 68.7699 412.349 68.1299C407.546 62.8629 404.86 56.0069 404.809 48.8799C404.839 40.8579 407.393 33.0489 412.109 26.5599C418.109 17.9699 426.989 11.5599 436.749 7.68991C446.585 3.95791 457.039 2.1219 467.559 2.2799C489.664 2.2439 511.269 8.8639 529.559 21.2799C537.559 26.7699 545.559 34.7799 550.619 43.7799C550.619 43.7799 550.619 43.8499 550.689 43.8699C555.719 52.7199 557.889 62.4699 554.479 71.6499Z" stroke="#333333" stroke-width="4.03" stroke-miterlimit="10"/>
<path d="M556.121 131.59C556.121 131.59 551.121 140.88 549.941 141.77C548.761 142.66 546.941 139.39 546.941 139.39" stroke="#333333" stroke-width="4.03" stroke-miterlimit="10"/>
<path d="M551.148 150.77C548.348 152.5 544.708 152.88 541.498 152.99C536.348 153.16 534.668 148.85 534.648 144.27C534.712 141.794 535.027 139.332 535.588 136.92C537.338 140.23 539.138 143.58 541.758 146.26C544.378 148.94 547.538 149.79 551.148 150.77Z" stroke="#333333" stroke-width="4.03" stroke-miterlimit="10"/>
<path d="M562.121 117.66C562.121 117.66 558.121 105.089 546.391 105.309" stroke="#333333" stroke-width="4.03" stroke-miterlimit="10"/>
<path d="M543.942 134.09C550.757 134.09 556.282 128.695 556.282 122.04C556.282 115.385 550.757 109.99 543.942 109.99C537.126 109.99 531.602 115.385 531.602 122.04C531.602 128.695 537.126 134.09 543.942 134.09Z" stroke="#333333" stroke-width="4.03" stroke-miterlimit="10"/>
<path d="M568.301 153.19C575.116 153.19 580.641 147.795 580.641 141.14C580.641 134.485 575.116 129.09 568.301 129.09C561.486 129.09 555.961 134.485 555.961 141.14C555.961 147.795 561.486 153.19 568.301 153.19Z" stroke="#333333" stroke-width="4.03" stroke-miterlimit="10"/>
<path d="M568.31 133C570.214 132.994 572.064 133.631 573.56 134.81C574.402 135.465 575.105 136.282 575.626 137.213C576.148 138.144 576.478 139.17 576.597 140.23C576.717 141.29 576.623 142.364 576.321 143.388C576.019 144.411 575.515 145.364 574.84 146.19C573.42 147.889 571.395 148.969 569.193 149.203C566.99 149.436 564.784 148.804 563.04 147.44C562.196 146.784 561.492 145.967 560.969 145.035C560.447 144.103 560.116 143.076 559.997 142.015C559.877 140.953 559.972 139.878 560.275 138.854C560.577 137.829 561.082 136.876 561.76 136.05C562.557 135.088 563.558 134.315 564.691 133.787C565.824 133.26 567.06 132.991 568.31 133ZM568.31 131C566.763 130.991 565.234 131.327 563.833 131.983C562.432 132.638 561.194 133.597 560.21 134.79C559.367 135.821 558.739 137.011 558.362 138.288C557.985 139.566 557.867 140.906 558.015 142.229C558.163 143.553 558.574 144.834 559.224 145.996C559.874 147.159 560.75 148.18 561.8 149C563.956 150.687 566.685 151.469 569.409 151.18C572.132 150.891 574.636 149.553 576.39 147.45C577.239 146.417 577.872 145.225 578.253 143.944C578.633 142.662 578.753 141.317 578.604 139.989C578.456 138.66 578.043 137.375 577.39 136.209C576.736 135.043 575.855 134.02 574.8 133.2C572.947 131.75 570.662 130.964 568.31 130.97V131Z" fill="white"/>
<path d="M553.559 129.58L558.679 133.6" stroke="#333333" stroke-width="4.03" stroke-miterlimit="10"/>
<path d="M541.301 119L541.991 119.05C543.545 119.162 545.023 119.765 546.213 120.772C547.403 121.778 548.242 123.136 548.611 124.65" stroke="#333333" stroke-width="4.03" stroke-miterlimit="10"/>
<path d="M564.641 139.1H565.341C566.894 139.214 568.372 139.817 569.561 140.823C570.751 141.829 571.591 143.186 571.961 144.7" stroke="#333333" stroke-width="4.03" stroke-miterlimit="10"/>
<path d="M655.438 342.46C664.987 342.46 672.728 334.719 672.728 325.17C672.728 315.621 664.987 307.88 655.438 307.88C645.889 307.88 638.148 315.621 638.148 325.17C638.148 334.719 645.889 342.46 655.438 342.46Z" fill="#9E7ACD"/>
<path d="M655.438 342.46C664.987 342.46 672.728 334.719 672.728 325.17C672.728 315.621 664.987 307.88 655.438 307.88C645.889 307.88 638.148 315.621 638.148 325.17C638.148 334.719 645.889 342.46 655.438 342.46Z" stroke="#333333" stroke-width="4.03" stroke-miterlimit="10"/>
<path d="M655.438 342.46C664.987 342.46 672.728 334.719 672.728 325.17C672.728 315.621 664.987 307.88 655.438 307.88C645.889 307.88 638.148 315.621 638.148 325.17C638.148 334.719 645.889 342.46 655.438 342.46Z" stroke="#333333" stroke-width="4.03" stroke-miterlimit="10"/>
<path d="M351.942 93.21C351.942 93.21 286.942 107.21 235.672 177.55" stroke="#333333" stroke-width="4.03" stroke-miterlimit="10"/>
<path d="M638.141 441.5C638.141 441.5 659.801 469.62 657.821 509.62" stroke="#333333" stroke-width="4.03" stroke-miterlimit="10"/>
<path d="M164.599 324.69H112.129" stroke="#333333" stroke-width="4.03" stroke-miterlimit="10"/>
<path d="M149.391 314.21H167.781" stroke="#333333" stroke-width="4.03" stroke-miterlimit="10"/>
</svg>
