<svg width="871" height="903" viewBox="0 0 871 903" fill="none" xmlns="http://www.w3.org/2000/svg">
<path d="M583.202 158.94C589.363 154.965 596.521 152.813 603.852 152.73C605.122 152.73 606.362 152.8 607.582 152.91C607.062 150.73 606.412 148.17 605.582 145.39C602.954 144.072 600.67 142.159 598.911 139.804C597.153 137.448 595.968 134.714 595.452 131.82C594.511 131.983 593.557 132.067 592.602 132.07C589.196 132.081 585.86 131.102 583.002 129.25C582.301 129.098 581.61 128.904 580.932 128.67C580.037 128.828 579.131 128.912 578.222 128.92C573.598 128.946 569.15 127.15 565.842 123.92L557.172 126.92C557.172 126.92 579.412 138.14 583.202 158.94Z" fill="#9E7ACD"/>
<path d="M585.79 810.21C585.785 826.159 579.447 841.454 568.17 852.733C556.893 864.012 541.6 870.352 525.65 870.36H239.35C223.399 870.354 208.103 864.016 196.824 852.736C185.544 841.457 179.205 826.161 179.2 810.21V185.46C179.195 177.557 180.747 169.73 183.767 162.427C186.787 155.125 191.217 148.488 196.803 142.898C202.389 137.307 209.021 132.872 216.322 129.846C223.622 126.819 231.447 125.261 239.35 125.26H277.61C284.495 125.262 291.098 127.995 295.97 132.86C300.437 137.298 303.114 143.224 303.49 149.51C303.546 150.031 303.573 150.555 303.57 151.08C303.57 151.53 303.57 151.97 303.57 152.41C303.756 156.223 304.744 159.954 306.47 163.36C306.52 163.44 306.55 163.55 306.6 163.63C308.692 167.728 311.878 171.165 315.806 173.561C319.734 175.957 324.249 177.216 328.85 177.2H435.42C438.836 177.205 442.218 176.535 445.374 175.229C448.53 173.923 451.397 172.007 453.81 169.59C455.655 167.747 457.197 165.624 458.38 163.3C458.43 163.257 458.468 163.202 458.49 163.14C460.247 159.808 461.228 156.123 461.36 152.36C461.36 152.03 461.36 151.73 461.36 151.36C461.44 137.05 472.36 125.23 486.69 125.23H519L553 124.81C553.69 118.31 556.46 111.47 559.32 105.43C560.273 103.339 561.401 101.332 562.69 99.4302H241.8C231.44 99.4282 221.181 101.468 211.609 105.432C202.037 109.396 193.339 115.207 186.014 122.533C178.688 129.859 172.877 138.556 168.913 148.128C164.949 157.7 162.909 167.959 162.91 178.32V824.11C162.908 834.47 164.946 844.73 168.91 854.303C172.874 863.875 178.684 872.573 186.011 879.899C193.337 887.225 202.035 893.036 211.607 897C221.18 900.964 231.439 903.002 241.8 903H531.9C542.261 903.001 552.521 900.961 562.093 896.997C571.666 893.033 580.364 887.223 587.69 879.897C595.017 872.571 600.829 863.874 604.794 854.302C608.759 844.73 610.8 834.471 610.8 824.11V779.64L585.8 793.89L585.79 810.21Z" fill="#9E7ACD"/>
<path d="M594.509 315.17C591.509 312.08 588.609 316.88 585.789 313.6V551.23C587.551 544.741 589.726 538.371 592.299 532.16C592.879 530.8 593.459 529.43 594.059 528.08C595.329 525.29 596.659 522.54 598.059 519.81C598.439 519.03 598.829 518.29 599.239 517.55C599.649 516.81 600.149 515.86 600.619 515.06C601.419 513.6 602.279 512.14 603.159 510.71C603.759 509.63 604.429 508.59 605.089 507.54C605.579 506.71 606.089 505.91 606.629 505.14C607.209 504.2 607.839 503.27 608.449 502.36C609.199 501.23 609.989 500.1 610.769 498.99V329.72C607.769 327.38 604.769 324.92 601.949 322.39C599.379 320.07 596.899 317.67 594.509 315.17Z" fill="#9E7ACD"/>
<path d="M608.41 150C604.95 154.36 600.66 150.7 595.08 150.7C590 150.7 587.08 158.92 583.86 155.61C584.04 156.05 582.23 162.61 582.38 163.05C582.87 164.37 583.31 165.75 583.7 167.13V167.18C584.2 168.95 584.58 170.71 584.91 172.53C584.99 172.94 585.08 173.39 585.13 173.83C585.27 174.76 585.41 175.73 585.49 176.69C585.599 177.58 585.662 178.474 585.68 179.37C585.77 180.37 585.79 181.46 585.79 182.54V252.54C586.607 253.222 587.286 254.053 587.79 254.99C591.79 262.29 595.62 256.82 599.9 263.99C602.18 267.69 606.9 270.58 609.32 267.9C610.21 266.9 610.76 262.62 610.76 261.02V176.44C610.759 172.424 610.461 168.413 609.87 164.44C609.69 162.93 608.73 151.53 608.41 150Z" fill="#9E7ACD"/>
<path d="M303.602 149.71C305.412 153.079 306.406 156.826 306.502 160.65C304.777 157.248 303.789 153.52 303.602 149.71Z" fill="#9E7ACD"/>
<path d="M461.358 149.65C461.226 153.414 460.245 157.099 458.488 160.43C458.681 156.676 459.659 153.004 461.358 149.65Z" fill="#9E7ACD"/>
<path d="M844.191 454.76C748.651 484.59 699.261 411.53 699.261 411.53C702.871 406.18 697.411 396.12 697.411 396.12L694.091 379.12C651.881 377.05 613.691 335.91 613.691 335.91C668.301 326.23 644.761 293.52 644.761 293.52L682.411 323L686.491 322.64C686.991 271.64 719.101 247.82 729.161 239.75C739.221 231.68 740.941 239.69 740.941 239.69C740.941 239.69 736.521 256.01 755.381 258.27C774.241 260.53 788.051 242.86 788.051 242.86C794.521 228.36 801.971 237.35 801.971 237.35C834.301 254.55 840.151 297.11 847.091 326.85C851.881 347.23 861.001 391.15 867.091 412.55C869.222 419.956 868.795 427.865 865.881 435C863.938 439.684 860.988 443.882 857.239 447.297C853.49 450.712 849.036 453.26 844.191 454.76Z" fill="#4B4453"/>
<path d="M844.191 454.76C748.651 484.59 699.261 411.53 699.261 411.53C702.871 406.18 697.411 396.12 697.411 396.12L694.091 379.12C651.881 377.05 613.691 335.91 613.691 335.91C649.871 317.82 644.761 293.52 644.761 293.52L682.411 323L686.491 322.64C686.991 271.64 719.101 247.82 729.161 239.75C739.221 231.68 740.941 239.69 740.941 239.69C740.941 239.69 736.521 256.01 755.381 258.27C774.241 260.53 788.051 242.86 788.051 242.86C794.521 228.36 801.971 237.35 801.971 237.35C834.301 254.55 840.151 297.11 847.091 326.85C851.881 347.23 861.001 391.15 867.091 412.55C869.222 419.956 868.795 427.865 865.881 435C863.938 439.684 860.988 443.882 857.239 447.297C853.49 450.712 849.036 453.26 844.191 454.76Z" fill="#4B4453"/>
<path d="M731.58 197.22C737.55 197.22 742.39 192.38 742.39 186.41C742.39 180.439 737.55 175.6 731.58 175.6C725.609 175.6 720.77 180.439 720.77 186.41C720.77 192.38 725.609 197.22 731.58 197.22Z" fill="#D7C8EA" fill-opacity="0.67"/>
<path d="M746.309 208.18C745.369 215.1 739.499 219.62 733.379 218.62" stroke="#333333" stroke-width="4.13" stroke-miterlimit="10"/>
<path d="M673.852 147.9C674.88 152.604 677.358 156.866 680.937 160.086C684.516 163.307 689.016 165.323 693.802 165.85C694.241 163.927 695.14 162.139 696.422 160.64C701.882 154.43 703.952 166.31 721.232 158.16C745.232 146.83 754.062 153.77 754.062 153.77C754.842 154.38 754.642 159.84 754.732 160.77C755.252 166.42 755.732 172.05 756.322 177.7C756.662 181.14 756.992 184.56 757.322 187.98C757.657 187.41 758.024 186.859 758.422 186.33C760.742 178.72 767.192 169.81 775.422 173.87C777.094 174.722 778.541 175.959 779.642 177.48C785.012 184.84 780.642 191.76 774.812 196.83C773.332 198.41 771.686 199.825 769.902 201.05C770.812 203.05 774.542 210.91 774.542 210.94C774.922 211.74 788.792 196.66 789.832 195.01C791.427 190.943 792.323 186.636 792.482 182.27C793.062 164.33 786.172 143.27 771.832 132.71C768.282 130.09 767.042 127.61 766.832 124.14C766.82 123.953 766.753 123.774 766.638 123.626C766.523 123.478 766.366 123.368 766.188 123.311C766.009 123.254 765.818 123.252 765.638 123.305C765.459 123.358 765.3 123.465 765.182 123.61C760.522 128.77 749.252 128.02 749.252 128.02C710.252 117.44 696.792 134.58 688.852 137.51C685.618 138.664 682.085 138.664 678.852 137.51C678.64 138.587 678.138 139.585 677.399 140.396C676.661 141.207 675.714 141.8 674.662 142.11L674.832 143.93C674.975 145.327 674.628 146.73 673.852 147.9Z" fill="#9E7ACD"/>
<path d="M757.529 221.39C754.959 223.39 747.779 229.15 744.909 230.86C742.803 232.132 740.592 233.219 738.299 234.11C721.039 240.62 704.859 225.82 698.929 211.01C694.049 198.8 692.929 185.16 693.279 172.12C693.339 170.77 693.389 169.39 693.499 168.01C693.484 167.927 693.484 167.842 693.499 167.76C693.551 167.131 693.645 166.506 693.779 165.89C694.213 163.965 695.113 162.176 696.399 160.68C701.849 154.48 703.919 166.36 721.199 158.2C745.199 146.87 754.039 153.81 754.039 153.81C754.809 154.42 754.609 159.88 754.699 160.81C755.219 166.47 755.699 172.09 756.299 177.74C756.629 181.19 756.959 184.6 757.299 188.02C757.379 188.96 757.469 189.87 757.549 190.8C757.67 189.287 757.955 187.791 758.399 186.34C760.719 178.73 767.169 169.83 775.399 173.88C777.071 174.732 778.518 175.969 779.619 177.49C784.989 184.85 780.619 191.77 774.789 196.84C773.308 198.109 771.745 199.278 770.109 200.34L769.669 200.62L769.889 201.06C770.799 203.06 774.519 210.93 774.519 210.95C774.899 211.75 788.769 196.68 789.819 195.02C793.431 189.444 795.694 183.103 796.429 176.5C796.519 175.67 796.569 174.87 796.599 174.04C797.179 156.1 790.289 135.04 775.949 124.48C772.389 121.86 771.149 119.38 770.949 115.91C770.937 115.723 770.87 115.544 770.755 115.396C770.64 115.248 770.483 115.138 770.305 115.081C770.126 115.023 769.935 115.021 769.755 115.075C769.576 115.128 769.417 115.234 769.299 115.38C764.639 120.54 753.359 119.79 753.359 119.79C714.409 109.21 700.899 126.35 692.969 129.28C685.039 132.21 678.079 126.8 678.079 126.8L678.909 135.67C678.964 136.278 678.927 136.892 678.799 137.49C678.587 138.566 678.085 139.564 677.346 140.375C676.608 141.186 675.661 141.779 674.609 142.09C674.21 142.235 673.792 142.319 673.369 142.34H673.059C673.134 144.187 673.375 146.025 673.779 147.83C674.81 152.541 677.295 156.808 680.884 160.029C684.473 163.251 688.984 165.262 693.779 165.78" stroke="#333333" stroke-width="4.13" stroke-miterlimit="10"/>
<path d="M699.271 196.16C705.241 196.16 710.081 191.32 710.081 185.35C710.081 179.38 705.241 174.54 699.271 174.54C693.301 174.54 688.461 179.38 688.461 185.35C688.461 191.32 693.301 196.16 699.271 196.16Z" fill="#D7C8EA" fill-opacity="0.67"/>
<path d="M736.091 190.45C736.097 191.329 735.841 192.191 735.357 192.925C734.873 193.659 734.182 194.233 733.371 194.573C732.56 194.914 731.666 195.006 730.803 194.838C729.94 194.67 729.146 194.25 728.522 193.63C727.898 193.01 727.472 192.219 727.298 191.357C727.125 190.495 727.211 189.601 727.546 188.788C727.881 187.975 728.45 187.28 729.181 186.79C729.912 186.301 730.771 186.04 731.651 186.04C732.082 186.031 732.511 186.095 732.921 186.23C732.707 186.433 732.537 186.676 732.418 186.946C732.3 187.215 732.236 187.506 732.231 187.8C732.236 188.367 732.465 188.908 732.868 189.307C733.27 189.706 733.814 189.93 734.381 189.93C734.667 189.929 734.949 189.869 735.211 189.753C735.472 189.638 735.707 189.47 735.901 189.26C736.031 189.643 736.095 190.045 736.091 190.45Z" fill="#333333"/>
<path d="M704.66 189C704.658 189.874 704.398 190.727 703.911 191.452C703.425 192.178 702.734 192.743 701.927 193.076C701.12 193.409 700.232 193.496 699.376 193.325C698.519 193.154 697.732 192.733 697.115 192.116C696.497 191.498 696.077 190.712 695.906 189.855C695.735 188.999 695.822 188.111 696.155 187.304C696.488 186.496 697.053 185.806 697.778 185.319C698.504 184.833 699.357 184.572 700.23 184.57C700.807 184.567 701.378 184.679 701.91 184.9C701.609 185.101 701.361 185.371 701.187 185.688C701.012 186.004 700.918 186.359 700.91 186.72C700.912 187.001 700.968 187.278 701.077 187.537C701.186 187.796 701.345 188.03 701.545 188.227C701.744 188.424 701.981 188.58 702.241 188.685C702.501 188.79 702.78 188.843 703.06 188.84C703.337 188.844 703.611 188.792 703.867 188.687C704.123 188.582 704.356 188.427 704.55 188.23C704.618 188.482 704.655 188.74 704.66 189Z" fill="#333333"/>
<path d="M715.628 186.24C715.628 186.24 712.859 198.55 712.529 199.79C711.529 203.79 719.468 202.55 719.468 202.55" stroke="#333333" stroke-width="4.13" stroke-miterlimit="10"/>
<path d="M725.789 163C725.789 163 738.839 158.11 746.099 167.91" stroke="#333333" stroke-width="4.13" stroke-miterlimit="10"/>
<path d="M682.41 172.79C682.41 172.79 689.13 160.58 701.01 163.29" stroke="#333333" stroke-width="4.13" stroke-miterlimit="10"/>
<path d="M731.579 199.18C738.631 199.18 744.349 193.462 744.349 186.41C744.349 179.357 738.631 173.64 731.579 173.64C724.526 173.64 718.809 179.357 718.809 186.41C718.809 193.462 724.526 199.18 731.579 199.18Z" stroke="#333333" stroke-width="4.13" stroke-miterlimit="10"/>
<path d="M699.27 198.12C706.323 198.12 712.04 192.403 712.04 185.35C712.04 178.297 706.323 172.58 699.27 172.58C692.217 172.58 686.5 178.297 686.5 185.35C686.5 192.403 692.217 198.12 699.27 198.12Z" stroke="#333333" stroke-width="4.13" stroke-miterlimit="10"/>
<path d="M699.26 176.67H699.55C701.849 176.707 704.04 177.656 705.639 179.308C707.239 180.961 708.117 183.181 708.08 185.48C708.043 187.779 707.094 189.97 705.441 191.57C703.789 193.169 701.569 194.047 699.27 194.01H699C696.7 193.973 694.51 193.024 692.91 191.372C691.31 189.719 690.433 187.499 690.47 185.2C690.507 182.901 691.456 180.71 693.108 179.11C694.76 177.511 696.98 176.633 699.28 176.67H699.26ZM699.28 174.6C696.431 174.554 693.681 175.641 691.634 177.622C689.587 179.603 688.411 182.317 688.365 185.165C688.318 188.013 689.405 190.764 691.387 192.811C693.368 194.858 696.081 196.034 698.93 196.08H699.29C702.138 196.126 704.888 195.039 706.935 193.058C708.982 191.077 710.158 188.363 710.205 185.515C710.251 182.667 709.164 179.916 707.183 177.869C705.201 175.823 702.488 174.646 699.64 174.6H699.28Z" fill="white"/>
<path d="M718.811 185.99L712.031 185.77" stroke="#333333" stroke-width="4.13" stroke-miterlimit="10"/>
<path d="M728.392 643.49L714.832 726.55L700.142 724.35C696.961 723.849 694.104 722.116 692.19 719.527C690.276 716.937 689.457 713.698 689.912 710.51L691.002 701.6L701.002 628.3C717.282 637.84 728.392 643.49 728.392 643.49Z" fill="#9E7ACD"/>
<path d="M661.299 750.84L610.799 779.84L585.799 794.23L578.139 798.64C578.154 798.494 578.154 798.346 578.139 798.2L572.139 801.62L564.419 786.79C562.615 783.366 562.233 779.37 563.354 775.666C564.475 771.962 567.009 768.849 570.409 767L657.909 719.09L657.989 719.89L661.299 750.84Z" fill="#9E7ACD"/>
<path d="M587.448 545.58C586.898 544.84 586.348 544.12 585.788 543.49C582.618 539.68 579.508 537.12 577.408 532.79C575.734 529.265 575.251 525.291 576.032 521.467C576.813 517.643 578.816 514.177 581.738 511.59C582.947 510.548 584.293 509.676 585.738 509" stroke="#333333" stroke-width="4.13" stroke-miterlimit="10"/>
<path d="M693.938 678.81L690.998 701.58L689.868 710.49C689.414 713.678 690.232 716.917 692.147 719.507C694.061 722.097 696.917 723.829 700.098 724.33L714.788 726.53L728.348 643.47C728.348 643.47 717.238 637.82 700.978 628.26C689.348 621.42 674.978 612.57 660.238 602.37" stroke="#333333" stroke-width="4.13" stroke-miterlimit="10"/>
<path d="M691.441 698.48C691.441 698.48 675.581 689.93 655.441 677.62" stroke="#333333" stroke-width="4.13" stroke-miterlimit="10"/>
<g opacity="0.68">
<path opacity="0.68" d="M585.791 314.87V551.23C581.411 567.41 579.321 584.23 578.211 601.15V315.47C580.671 318.67 583.201 311.81 585.791 314.87Z" fill="#D7C8EA" fill-opacity="0.67"/>
<path opacity="0.68" d="M585.789 793.89V807.48C585.784 823.43 579.446 838.725 568.169 850.003C556.892 861.282 541.599 867.622 525.649 867.63H239.349C223.398 867.625 208.102 861.286 196.823 850.007C185.543 838.728 179.205 823.431 179.199 807.48V182.73C179.194 174.827 180.746 167.001 183.766 159.698C186.787 152.395 191.216 145.759 196.802 140.168C202.388 134.578 209.02 130.143 216.321 127.116C223.621 124.09 231.446 122.532 239.349 122.53H277.609C279.365 122.535 281.117 122.71 282.839 123.05C283.991 123.292 285.127 123.606 286.239 123.99C286.729 124.18 287.239 124.37 287.699 124.57C288.479 124.894 289.24 125.262 289.979 125.67C290.868 126.15 291.726 126.684 292.549 127.27C293.099 127.65 293.619 128.04 294.119 128.45C294.619 128.86 295.389 129.56 295.969 130.13L299.969 135.29C300.336 135.905 300.67 136.54 300.969 137.19L302.429 140.88C302.629 141.55 302.819 142.21 302.959 142.88L303.319 144.97C303.369 145.25 303.399 145.55 303.429 145.83C303.439 145.967 303.439 146.104 303.429 146.24C303.489 146.9 303.539 147.54 303.539 148.24V148.51C303.539 148.93 303.539 149.31 303.539 149.7C303.513 149.637 303.476 149.58 303.429 149.53C302.301 147.391 300.851 145.438 299.129 143.74C294.444 139.051 288.088 136.414 281.459 136.41H244.669C237.059 136.414 229.524 137.918 222.495 140.835C215.466 143.753 209.081 148.027 203.705 153.414C198.328 158.8 194.066 165.193 191.162 172.228C188.258 179.262 186.769 186.8 186.779 194.41V795.85C186.779 811.206 192.877 825.934 203.733 836.795C214.589 847.657 229.313 853.762 244.669 853.77H520.329C535.193 853.767 549.486 848.046 560.247 837.792C571.007 827.538 577.41 813.537 578.129 798.69C578.144 798.544 578.144 798.397 578.129 798.25L585.789 793.89Z" fill="#D7C8EA" fill-opacity="0.67"/>
<path opacity="0.68" d="M458.491 160.431C458.491 160.811 458.491 161.171 458.491 161.561C458.454 168.167 455.803 174.49 451.118 179.148C446.434 183.806 440.097 186.421 433.491 186.421H330.861C317.031 186.421 306.581 175.121 306.521 161.281C306.521 161.061 306.521 160.871 306.521 160.651C308.585 164.818 311.776 168.324 315.732 170.77C319.688 173.216 324.25 174.505 328.901 174.491H435.421C438.836 174.496 442.219 173.826 445.375 172.52C448.531 171.214 451.397 169.298 453.811 166.881C455.699 164.989 457.278 162.812 458.491 160.431Z" fill="#D7C8EA" fill-opacity="0.67"/>
</g>
<path d="M610.801 416.93C646.371 409.7 680.901 402.23 699.261 402.48" stroke="#333333" stroke-width="4.13" stroke-miterlimit="10"/>
<path d="M577.168 623C523.248 579.55 474.318 523.82 495.348 475.27C507.998 446 545.438 430.05 585.788 421.4" stroke="#333333" stroke-width="4.13" stroke-miterlimit="10"/>
<path d="M694.351 381.06C695.231 384.23 699.261 402.49 700.251 405.79C703.911 417.7 657.331 449.21 649.441 456.29C635.281 468.92 621.881 483.14 610.801 498.99C603.433 509.332 597.229 520.456 592.301 532.16C589.728 538.371 587.554 544.741 585.791 551.23C581.411 567.41 579.321 584.23 578.211 601.15C577.331 613.97 577.001 626.84 576.641 639.41C575.901 663.53 576.281 687.79 577.861 711.83C577.971 713.35 578.081 714.83 578.211 716.35C579.458 730.627 581.876 744.778 585.441 758.66V758.75" stroke="#333333" stroke-width="4.13" stroke-miterlimit="10"/>
<path d="M687.461 324.72C688.971 277.89 710.231 252.89 729.161 239.72C732.844 237.196 736.795 235.086 740.941 233.43" stroke="#333333" stroke-width="4.13" stroke-miterlimit="10"/>
<path d="M792.898 233.12C793.778 233.45 794.628 233.81 795.488 234.17L796.428 234.58C798.504 235.486 800.527 236.507 802.488 237.64C809.255 241.498 815.166 246.693 819.858 252.91C820.039 253.086 820.188 253.293 820.298 253.52C821.118 254.68 821.918 255.86 822.698 257.08C829.618 268.08 836.068 282.93 840.998 300.08C843.54 308.879 845.574 317.817 847.088 326.85" stroke="#333333" stroke-width="4.13" stroke-miterlimit="10"/>
<path d="M847.09 326.84C851.88 347.22 861.01 391.15 867.09 412.54C869.222 419.95 868.796 427.862 865.88 435C863.937 439.684 860.986 443.882 857.237 447.297C853.489 450.713 849.034 453.26 844.19 454.76L826.1 459.14C824.207 459.607 822.535 460.717 821.37 462.28C817.265 467.705 812.712 472.776 807.76 477.44C729.5 551.12 635.33 474.85 657.91 719.11L657.99 719.91C658.903 729.69 660.006 740 661.3 750.84L610.8 779.64L585.8 793.89L578.17 798.25L572.17 801.67L564.45 786.84C562.629 783.415 562.233 779.409 563.349 775.694C564.465 771.979 567.002 768.854 570.41 767L578.21 762.67L585.44 758.67L585.79 758.48L610.79 744.64L616.11 741.64" stroke="#333333" stroke-width="4.13" stroke-miterlimit="10"/>
<path d="M610.81 779.64V821.37C610.807 842.299 602.491 862.37 587.691 877.168C572.891 891.967 552.819 900.28 531.89 900.28H233.1C222.736 900.281 212.474 898.241 202.899 894.276C193.324 890.311 184.624 884.499 177.295 877.171C169.967 869.844 164.154 861.144 160.187 851.57C156.221 841.995 154.18 831.733 154.18 821.37V171.12C154.18 160.756 156.221 150.495 160.187 140.92C164.154 131.346 169.967 122.646 177.295 115.319C184.624 107.991 193.324 102.179 202.899 98.214C212.474 94.249 222.736 92.209 233.1 92.21H568.19" stroke="#333333" stroke-width="4.13" stroke-miterlimit="10"/>
<path d="M610.799 171.12C610.805 165.705 610.259 160.304 609.169 155C609.169 155 607.709 146.17 606.309 143.72" stroke="#333333" stroke-width="4.13" stroke-miterlimit="10"/>
<path d="M610.801 498.96V416.95V331.42" stroke="#333333" stroke-width="4.13" stroke-miterlimit="10"/>
<path d="M610.801 171.13V217.4V272.35" stroke="#333333" stroke-width="4.13" stroke-miterlimit="10"/>
<path d="M690.999 297V296.93C682.454 293.099 674.397 288.261 666.999 282.52C636.12 258.764 615.869 223.778 610.649 185.17C610.516 184.217 610.396 183.257 610.289 182.29" stroke="#333333" stroke-width="4.13" stroke-miterlimit="10"/>
<path d="M585.809 528.23V314.79" stroke="#333333" stroke-width="4.13" stroke-miterlimit="10"/>
<path d="M585.811 254.82V182.74C585.811 169.61 584.661 154.05 577.591 144.14C577.591 144.14 560.441 122.51 543.011 122.51H487.391" stroke="#333333" stroke-width="4.13" stroke-miterlimit="10"/>
<path d="M509.8 122.51H487.39C480.494 122.51 473.881 125.249 469.005 130.125C464.129 135.001 461.39 141.614 461.39 148.51C461.39 155.405 458.65 162.019 453.774 166.895C448.899 171.77 442.285 174.51 435.39 174.51H329.57C322.674 174.51 316.061 171.77 311.185 166.895C306.309 162.019 303.57 155.405 303.57 148.51C303.57 141.614 300.83 135.001 295.954 130.125C291.079 125.249 284.465 122.51 277.57 122.51H239.35C223.384 122.52 208.077 128.871 196.794 140.166C185.51 151.461 179.174 166.775 179.18 182.74V807.48C179.188 823.434 185.53 838.733 196.812 850.014C208.095 861.295 223.395 867.634 239.35 867.64H525.64C541.594 867.634 556.894 861.295 568.177 850.014C579.46 838.733 585.802 823.434 585.81 807.48V793.9" stroke="#333333" stroke-width="4.13" stroke-miterlimit="10"/>
<path d="M604.648 95.9199C615.538 100.58 625.708 115.99 630.648 126.3C639.808 145.43 647.798 160.07 658.648 178.3C667.938 193.93 676.458 210.86 691.068 222.3C698.801 228.443 708.216 232.093 718.068 232.77" stroke="#333333" stroke-width="4.13" stroke-miterlimit="10"/>
<path d="M308.999 122.53C308.99 144.126 303.131 165.316 292.045 183.85C280.959 202.383 265.059 217.567 246.036 227.789C227.012 238.011 205.575 242.89 184.001 241.905C162.427 240.921 141.523 234.111 123.509 222.2C100.164 202.554 85.2158 174.724 81.7288 144.412C78.2418 114.1 86.4788 83.603 104.753 59.169C123.027 34.735 149.954 18.2151 180.015 12.9944C210.077 7.77379 240.997 14.2478 266.439 31.0897C279.784 42.2956 290.51 56.29 297.863 72.088C305.216 87.886 309.017 105.104 308.999 122.53Z" fill="#9E7ACD"/>
<path d="M296 123C295.995 142.128 290.809 160.898 280.991 177.314C271.174 193.731 257.093 207.181 240.244 216.236C223.395 225.292 204.408 229.613 185.299 228.742C166.191 227.871 147.676 221.84 131.72 211.29C111.096 193.875 97.9028 169.241 94.8378 142.422C91.7718 115.604 99.0658 88.628 115.229 67.008C131.391 45.3891 155.201 30.7597 181.791 26.1113C208.381 21.4629 235.742 27.1464 258.28 41.9999C270.103 51.9261 279.607 64.322 286.124 78.316C292.641 92.311 296.012 107.563 296 123Z" fill="#9E7ACD"/>
<path d="M424.671 383.1L337.551 396.23C335.438 396.771 333.229 396.822 331.094 396.379C328.958 395.935 326.951 395.01 325.228 393.672C323.505 392.335 322.11 390.621 321.151 388.662C320.191 386.703 319.692 384.551 319.691 382.37L328.801 307.51H458.731C459.792 307.51 460.81 307.931 461.56 308.681C462.31 309.431 462.731 310.449 462.731 311.51L450.301 358.41C448.535 364.393 445.244 369.815 440.751 374.143C436.258 378.472 430.717 381.558 424.671 383.1Z" fill="#D7C8EA" fill-opacity="0.67"/>
<path d="M350.299 441.17C358.501 441.17 365.149 434.521 365.149 426.32C365.149 418.118 358.501 411.47 350.299 411.47C342.098 411.47 335.449 418.118 335.449 426.32C335.449 434.521 342.098 441.17 350.299 441.17Z" fill="#D7C8EA" fill-opacity="0.67"/>
<path d="M406.678 441.17C414.88 441.17 421.528 434.521 421.528 426.32C421.528 418.118 414.88 411.47 406.678 411.47C398.477 411.47 391.828 418.118 391.828 426.32C391.828 434.521 398.477 441.17 406.678 441.17Z" fill="#D7C8EA" fill-opacity="0.67"/>
<path d="M340.591 323.2L327.061 321.39L330.861 292.93C331.102 291.158 330.955 289.355 330.431 287.646C329.906 285.936 329.016 284.361 327.822 283.029C326.628 281.698 325.16 280.641 323.517 279.934C321.875 279.226 320.099 278.884 318.311 278.93L306.651 279.23C304.841 279.276 303.087 278.601 301.774 277.354C300.462 276.107 299.698 274.39 299.651 272.58C299.627 271.685 299.78 270.793 300.1 269.956C300.421 269.12 300.904 268.355 301.52 267.705C302.137 267.054 302.876 266.532 303.694 266.168C304.513 265.803 305.395 265.604 306.291 265.58L317.961 265.28C322.034 265.152 326.079 265.991 329.764 267.729C333.45 269.468 336.67 272.056 339.161 275.28C341.319 278.159 342.882 281.438 343.759 284.927C344.636 288.415 344.81 292.044 344.271 295.6L340.591 323.2Z" fill="#D7C8EA" fill-opacity="0.67"/>
<path d="M488.808 484.67H276.188C264.391 484.67 254.828 494.233 254.828 506.03V561.16C254.828 572.957 264.391 582.52 276.188 582.52H488.808C500.605 582.52 510.168 572.957 510.168 561.16V506.03C510.168 494.233 500.605 484.67 488.808 484.67Z" fill="#D7C8EA" fill-opacity="0.67"/>
<path d="M175.23 640.63C202.83 632.63 226.51 602.42 193.37 577.42C192.16 576.54 191.03 575.74 189.95 575.1C191.768 573.321 193.998 572.02 196.441 571.313C198.884 570.606 201.464 570.516 203.95 571.05C204.03 571.05 204.14 571.05 204.22 571.11C204.393 571.129 204.561 571.173 204.72 571.24C208.33 572.07 212.36 574.03 216.85 577.42C249.94 602.42 204.18 634.87 175.23 640.63Z" fill="#9E7ACD"/>
<path d="M311.691 507.79C317.026 506.986 322.416 506.605 327.811 506.65C335.081 506.65 339.471 507.18 343.411 509.15C345.467 510.031 347.218 511.499 348.443 513.371C349.669 515.242 350.315 517.433 350.301 519.67C350.301 523.91 347.951 528.08 341.971 530.35V530.5C348.181 532.24 351.971 536.86 351.971 542.92C351.975 545.111 351.453 547.271 350.451 549.219C349.449 551.168 347.995 552.848 346.211 554.12C342.421 557 336.071 558.67 325.211 558.67C320.703 558.763 316.196 558.458 311.741 557.76L311.691 507.79ZM325.241 526.64H328.001C333.831 526.64 336.641 524.64 336.641 521.34C336.641 518.34 334.361 516.5 329.751 516.5C328.256 516.473 326.76 516.573 325.281 516.8L325.241 526.64ZM325.241 548.53C326.55 548.662 327.866 548.709 329.181 548.67C333.721 548.67 337.581 546.85 337.581 542.32C337.581 538 333.641 536.32 328.491 536.32H325.241V548.53Z" fill="white"/>
<path d="M373.111 507V536C373.111 543.72 375.771 548 381.111 548C386.451 548 389.211 544.06 389.211 536V507H403.001V535.2C403.001 550.95 395.121 558.89 380.811 558.89C366.881 558.89 359.461 551.25 359.461 534.89V507H373.111Z" fill="white"/>
<path d="M424.179 558.06V537.47L408.129 507H423.799L428.109 518.51C429.479 522.07 430.459 524.64 431.599 527.97H431.749C432.749 524.87 433.749 521.97 435.009 518.51L439.169 507H454.609L437.879 536.91V558.03L424.179 558.06Z" fill="white"/>
<path d="M204.002 571.05C201.515 570.515 198.935 570.606 196.492 571.312C194.049 572.019 191.819 573.32 190.002 575.1C173.162 590.24 172.392 640.63 172.392 640.63H167.922C167.922 640.63 157.122 581.97 173.132 572.15H173.192C173.462 572.04 174.602 571.54 176.192 570.99C176.192 570.99 176.272 570.99 176.302 570.99C178.375 570.275 180.516 569.775 182.692 569.5C189.832 568.858 197.029 569.382 204.002 571.05Z" fill="#D7C8EA" fill-opacity="0.67"/>
<path d="M309.001 122.53C308.998 149.742 299.71 176.139 282.671 197.356C265.632 218.573 241.862 233.341 215.292 239.218C188.722 245.094 160.942 241.728 136.544 229.676C112.147 217.623 92.5932 197.606 81.1142 172.933C69.6362 148.26 66.9202 120.409 73.4172 93.983C79.9142 67.558 95.2342 44.1408 116.844 27.6029C138.454 11.0649 165.061 2.39651 192.266 3.03051C219.471 3.66461 245.645 13.5631 266.461 31.0899C279.788 42.3093 290.501 56.307 297.85 72.102C305.198 87.898 309.004 105.109 309.001 122.53Z" stroke="#333333" stroke-width="4.13" stroke-miterlimit="10"/>
<path d="M146.229 742.46V794.46H29.2287C27.8543 794.462 26.4934 794.189 25.2257 793.658C23.958 793.127 22.8091 792.348 21.8461 791.368C20.8832 790.387 20.1256 789.224 19.6177 787.947C19.1099 786.67 18.862 785.304 18.8887 783.93L19.4687 752.64C19.5185 749.932 20.6301 747.351 22.5642 745.455C24.4982 743.558 27.0998 742.497 29.8087 742.5L146.229 742.46Z" fill="#D7C8EA" fill-opacity="0.67"/>
<path d="M331.84 752.79V784.08C331.84 786.822 330.751 789.452 328.812 791.391C326.873 793.331 324.243 794.42 321.5 794.42H146.23V742.42H321.5C322.861 742.42 324.208 742.688 325.464 743.21C326.721 743.731 327.862 744.496 328.823 745.459C329.783 746.422 330.544 747.566 331.062 748.824C331.58 750.082 331.844 751.43 331.84 752.79Z" fill="#9E7ACD"/>
<path d="M163.85 794.42V900.27H51.74C46.962 900.26 42.382 898.362 38.995 894.991C35.609 891.62 33.6918 887.048 33.6602 882.27V794.47L163.85 794.42Z" fill="#D7C8EA" fill-opacity="0.67"/>
<path d="M311.712 794.42V882.22C311.68 886.998 309.762 891.57 306.376 894.941C302.99 898.312 298.41 900.209 293.632 900.22H163.852V794.42H311.712Z" fill="#9E7ACD"/>
<path d="M162.88 82.2001C176.17 82.2001 183.37 91.8402 183.37 103.58C183.37 118.53 173.18 126.58 162.22 126.58C150.47 126.58 141.5 117.94 141.5 104.87C141.5 92.5801 149.37 82.1602 162.77 82.1602L162.88 82.2001ZM162.44 92.8401C157.9 92.8401 156.12 97.9302 156.12 104.47C156.12 111.33 158.23 115.99 162.66 115.99C166.66 115.99 168.75 112.11 168.75 104.47C168.75 97.8202 167.09 92.8401 162.55 92.8401H162.44ZM163.77 156.64L204.77 82.4301H215L174.12 156.64H163.77ZM216.94 112.11C230.23 112.11 237.43 121.74 237.43 133.49C237.43 148.44 227.24 156.49 216.27 156.49C204.53 156.49 195.56 147.85 195.56 134.67C195.56 122.48 203.42 112.07 216.83 112.07L216.94 112.11ZM216.49 122.75C211.95 122.75 210.18 127.84 210.18 134.38C210.18 141.24 212.29 145.9 216.72 145.9C220.72 145.9 222.81 141.9 222.81 134.26C222.81 127.62 221.15 122.75 216.61 122.75H216.49Z" fill="white"/>
<path d="M161.401 640.08C143.531 640.08 110.401 625.49 127.931 605.95C129.781 603.728 132.082 601.925 134.681 600.659L134.821 600.57H134.881C139.074 598.613 143.561 597.363 148.161 596.87C149.642 596.747 151.131 596.794 152.601 597.01C150.261 596.9 147.531 598.17 144.301 601.26C143.731 601.78 143.121 602.44 142.491 603.13C125.001 622.63 143.341 638.51 161.401 640.08Z" fill="#D7C8EA" fill-opacity="0.67"/>
<path d="M166.001 639.19L163.221 639.72C163.221 639.72 156.601 608.6 144.301 601.24C147.531 598.15 150.301 596.88 152.601 596.99C152.647 597.001 152.695 597.001 152.741 596.99L153.741 597.13L154.091 597.21C165.561 600.74 166.001 639.19 166.001 639.19Z" fill="#9E7ACD"/>
<path d="M163.839 742.45H29.8392C27.1278 742.45 24.5247 743.514 22.5907 745.415C20.6566 747.315 19.5464 749.899 19.4992 752.61L18.9392 783.9C18.914 785.274 19.1628 786.639 19.6711 787.916C20.1794 789.192 20.9371 790.354 21.8998 791.335C22.8624 792.315 24.0109 793.094 25.2779 793.625C26.545 794.157 27.9052 794.43 29.2792 794.43H321.489C322.848 794.43 324.193 794.162 325.448 793.642C326.704 793.122 327.844 792.359 328.804 791.398C329.765 790.437 330.526 789.296 331.045 788.04C331.564 786.785 331.831 785.439 331.829 784.08V752.79C331.829 750.048 330.74 747.418 328.801 745.479C326.862 743.54 324.232 742.45 321.489 742.45H128.059" stroke="#333333" stroke-width="4.13" stroke-miterlimit="10"/>
<path d="M293.63 900.28H51.73C46.941 900.264 42.352 898.354 38.967 894.966C35.581 891.579 33.6733 886.989 33.6602 882.2V794.43H311.66V882.2C311.644 886.981 309.741 891.563 306.365 894.949C302.988 898.335 298.412 900.251 293.63 900.28Z" stroke="#333333" stroke-width="4.13" stroke-miterlimit="10"/>
<path d="M276.668 647.3V667.48C276.668 669.249 275.966 670.945 274.715 672.196C273.464 673.447 271.767 674.15 269.998 674.15H156.898V640.63H269.998C271.767 640.63 273.464 641.333 274.715 642.583C275.966 643.834 276.668 645.531 276.668 647.3Z" fill="#9E7ACD"/>
<path d="M156.898 640.63V674.15H81.4481C80.5631 674.149 79.6871 673.972 78.8721 673.629C78.0561 673.287 77.3161 672.785 76.6951 672.155C76.0751 671.524 75.5861 670.776 75.2571 669.955C74.9281 669.133 74.7651 668.255 74.7781 667.37L75.1381 647.16C75.1721 645.414 75.8901 643.752 77.1381 642.531C78.3851 641.31 80.0621 640.627 81.8081 640.63H156.898Z" fill="#D7C8EA" fill-opacity="0.67"/>
<path d="M263.691 674.15V730.8C263.681 733.895 262.445 736.859 260.254 739.044C258.063 741.229 255.096 742.458 252.001 742.46H168.281V674.15H263.691Z" fill="#9E7ACD"/>
<path d="M168.28 674.15V742.46H95.9998C92.9098 742.452 89.9489 741.221 87.7639 739.036C85.5789 736.852 84.3478 733.89 84.3398 730.8V674.15H168.28Z" fill="#D7C8EA" fill-opacity="0.67"/>
<path d="M146.219 742.45V794.43" stroke="#333333" stroke-width="4.13" stroke-miterlimit="10"/>
<path d="M163.84 794.43V900.28" stroke="#333333" stroke-width="4.13" stroke-miterlimit="10"/>
<path d="M276.668 647.3V667.48C276.668 669.249 275.966 670.945 274.715 672.196C273.464 673.447 271.767 674.15 269.998 674.15H156.898V640.63H269.998C271.767 640.63 273.464 641.333 274.715 642.583C275.966 643.834 276.668 645.531 276.668 647.3Z" stroke="#333333" stroke-width="4.13" stroke-miterlimit="10"/>
<path d="M156.898 640.63V674.15H81.4481C80.5631 674.149 79.6871 673.972 78.8721 673.629C78.0561 673.287 77.3161 672.785 76.6951 672.155C76.0751 671.524 75.5861 670.776 75.2571 669.955C74.9281 669.133 74.7651 668.255 74.7781 667.37L75.1381 647.16C75.1721 645.414 75.8901 643.752 77.1381 642.531C78.3851 641.31 80.0621 640.627 81.8081 640.63H156.898Z" stroke="#333333" stroke-width="4.13" stroke-miterlimit="10"/>
<path d="M263.691 674.15V730.8C263.681 733.895 262.445 736.859 260.254 739.044C258.063 741.229 255.096 742.458 252.001 742.46H168.281V674.15H263.691Z" stroke="#333333" stroke-width="4.13" stroke-miterlimit="10"/>
<path d="M168.28 674.15V742.46H95.9998C92.9098 742.452 89.9489 741.221 87.7639 739.036C85.5789 736.852 84.3478 733.89 84.3398 730.8V674.15H168.28Z" stroke="#333333" stroke-width="4.13" stroke-miterlimit="10"/>
<path d="M180.059 640.62C207.709 632.62 250.259 602.43 217.179 577.43C213.616 574.536 209.482 572.427 205.049 571.24C204.89 571.171 204.721 571.13 204.549 571.12C202.026 570.528 199.394 570.584 196.899 571.284C194.404 571.983 192.126 573.303 190.279 575.12" stroke="#333333" stroke-width="4.13" stroke-miterlimit="10"/>
<path d="M190.279 575.1C173.429 590.25 172.669 640.62 172.669 640.62H168.189C168.189 640.62 151.519 550.16 190.279 575.1Z" stroke="#333333" stroke-width="4.13" stroke-miterlimit="10"/>
<path d="M175.572 640.62H172.672C172.672 640.62 173.432 590.25 190.282 575.1C191.457 575.818 192.595 576.596 193.692 577.43C226.832 602.43 203.162 632.67 175.572 640.62Z" stroke="#333333" stroke-width="4.13" stroke-miterlimit="10"/>
<path d="M173.891 571.62C176.82 570.558 179.859 569.827 182.951 569.44C190.349 568.799 197.803 569.404 205.001 571.23" stroke="#333333" stroke-width="4.13" stroke-miterlimit="10"/>
<path d="M159 640.62C140.89 639.06 110.83 625.48 128.3 605.96C130.155 603.73 132.463 601.92 135.07 600.65C135.159 600.588 135.257 600.541 135.36 600.51C136.851 599.837 138.488 599.55 140.119 599.678C141.75 599.806 143.322 600.343 144.69 601.24" stroke="#333333" stroke-width="4.13" stroke-miterlimit="10"/>
<path d="M144.641 601.24C156.941 608.58 163.531 639.73 163.531 639.73L166.311 639.18C166.311 639.18 165.641 581.06 144.641 601.24Z" stroke="#333333" stroke-width="4.13" stroke-miterlimit="10"/>
<path d="M161.729 640.08L163.529 639.73C163.529 639.73 156.939 608.58 144.639 601.24C144.059 601.76 143.449 602.41 142.809 603.1C125.309 622.63 143.659 638.5 161.729 640.08Z" stroke="#333333" stroke-width="4.13" stroke-miterlimit="10"/>
<path d="M154.39 597.09C152.442 596.786 150.466 596.702 148.5 596.84C143.825 597.342 139.268 598.627 135.02 600.64" stroke="#333333" stroke-width="4.13" stroke-miterlimit="10"/>
<path d="M746.998 234L750.908 241C750.908 241 745.188 253.72 760.518 255.92C775.848 258.12 796.028 243.05 796.578 233.1C820.128 242.2 832.578 265.1 832.798 289.62C833.198 350.32 755.098 387.12 702.908 381.62C676.678 378.87 651.908 367.3 631.228 350.97C628.468 348.83 625.818 346.58 623.228 344.26C617.987 339.481 613.076 334.352 608.528 328.91C606.175 326.11 603.882 323.246 601.648 320.32" stroke="#333333" stroke-width="3.77" stroke-miterlimit="10"/>
<path d="M780.469 205.52L795.489 234.17" stroke="#333333" stroke-width="4.13" stroke-miterlimit="10"/>
<path d="M0.691406 900.27H869.311" stroke="#333333" stroke-width="4.13" stroke-miterlimit="10"/>
<path d="M599.998 94.21H599.868C595.028 95.03 589.208 99.34 586.188 104.92C582.728 111.23 582.328 118.92 581.588 122.18C581.508 122.55 581.428 122.91 581.388 123.24C581.303 123.519 581.236 123.802 581.188 124.09L581.058 124.58C580.596 126.159 579.56 127.508 578.154 128.362C576.748 129.217 575.074 129.516 573.46 129.201C571.845 128.885 570.406 127.978 569.426 126.657C568.445 125.336 567.993 123.697 568.158 122.06L568.438 119.78C568.528 118.96 568.648 118.19 568.808 117.42C569.132 115.186 569.624 112.98 570.278 110.82C570.366 110.481 570.473 110.147 570.598 109.82C570.719 109.304 570.883 108.799 571.088 108.31C571.184 108.048 571.295 107.79 571.418 107.54" stroke="#333333" stroke-width="4.13" stroke-miterlimit="10"/>
<path d="M612.281 139.76C609.254 142.66 606.361 144.106 603.601 144.1C602.431 144.101 601.275 143.838 600.221 143.33C599.23 142.885 598.336 142.25 597.591 141.46C595.091 138.89 595.191 134.58 596.381 131.69C597.242 129.814 598.408 128.094 599.831 126.6C600.281 126.09 600.721 125.6 601.111 125.07C602.427 123.571 603.421 121.818 604.031 119.92C604.031 119.81 604.031 119.71 604.081 119.6" stroke="#333333" stroke-width="4.13" stroke-miterlimit="10"/>
<path d="M588.539 91.4102C590.409 91.7602 592.209 92.1902 594.049 92.6102C595.889 93.0302 597.929 93.6102 599.849 94.2102C604.248 95.5112 608.368 97.6162 611.999 100.42C621.859 107.71 623.929 120.14 616.819 129.31" stroke="#333333" stroke-width="4.13" stroke-miterlimit="10"/>
<path d="M581.591 122.18C581.591 122.27 581.591 122.35 581.541 122.46C581.516 122.796 581.469 123.13 581.401 123.46L581.181 125.74C581.051 126.972 581.27 128.216 581.815 129.329C582.359 130.441 583.206 131.378 584.258 132.032C585.31 132.685 586.525 133.029 587.764 133.023C589.003 133.018 590.215 132.663 591.261 132C592.014 131.534 592.663 130.916 593.165 130.186C593.668 129.457 594.014 128.631 594.181 127.76C594.371 126.91 594.531 125.99 594.751 125.12C595.551 121.74 595.851 118.72 598.371 116.12C599.081 115.385 599.926 114.794 600.861 114.38C601.096 114.279 601.341 114.202 601.591 114.15" stroke="#333333" stroke-width="4.13" stroke-miterlimit="10"/>
<path d="M554.86 116.2V115.94C555.288 111.615 556.43 107.391 558.24 103.44C559.36 100.97 560.862 98.6922 562.69 96.6902C565.555 93.4592 569.434 91.3012 573.69 90.5702C574.92 90.3902 576.13 90.2702 577.37 90.2102C581.108 90.1572 584.839 90.5602 588.48 91.4102C585.48 91.6402 580.34 94.8502 576.63 98.8902C575.145 100.421 573.904 102.171 572.95 104.08C572.48 105.08 571.95 106.18 571.58 107.24C571.2 108.1 570.87 108.97 570.58 109.82C569.71 112.28 568.96 114.71 568.39 116.95C568.13 117.95 567.89 118.95 567.7 119.85C567.39 121.517 566.478 123.011 565.137 124.049C563.797 125.088 562.121 125.597 560.43 125.48C558.709 125.279 557.136 124.407 556.054 123.053C554.972 121.699 554.467 119.973 554.65 118.25L554.85 116.2" stroke="#333333" stroke-width="4.13" stroke-miterlimit="10"/>
<path d="M546.998 291.31C545.298 287.9 544.198 284.16 545.838 280.9C549.548 273.5 561.478 277.42 568.458 272.9C574.458 269.05 573.848 264.48 577.128 258.78C580.958 252.11 587.858 254.78 593.128 258.1C599.858 262.31 614.558 277.1 638.128 291.67C645.46 296.228 652.476 301.276 659.128 306.78C677.658 322.05 723.818 348.51 763.948 277.33" stroke="#333333" stroke-width="3.84" stroke-miterlimit="10"/>
<path d="M602.619 321.51C599.329 318.16 595.749 314.62 591.129 313.78C586.199 312.87 581.279 315.2 576.289 315.44C563.999 316 554.879 304.55 548.549 294C548.029 293.15 547.549 292.24 547.039 291.33" stroke="#333333" stroke-width="3.84" stroke-miterlimit="10"/>
<path d="M573.301 305.18C573.301 305.18 561.551 311.49 556.551 305" stroke="#333333" stroke-width="3.84" stroke-miterlimit="10"/>
<path d="M549.578 295.77C549.578 295.77 559.128 302.27 565.828 296.85" stroke="#333333" stroke-width="3.84" stroke-miterlimit="10"/>
<path d="M545.148 287.18C545.148 287.18 553.458 292.27 557.028 288.62" stroke="#333333" stroke-width="3.84" stroke-miterlimit="10"/>
</svg>
