<svg width="926" height="852" viewBox="0 0 926 852" fill="none" xmlns="http://www.w3.org/2000/svg">
<path d="M442.408 214.53C452.67 214.53 460.988 206.212 460.988 195.95C460.988 185.689 452.67 177.37 442.408 177.37C432.147 177.37 423.828 185.689 423.828 195.95C423.828 206.212 432.147 214.53 442.408 214.53Z" fill="#BCA3DC"/>
<path d="M490.549 212.88C500.81 212.88 509.129 204.561 509.129 194.3C509.129 184.038 500.81 175.72 490.549 175.72C480.287 175.72 471.969 184.038 471.969 194.3C471.969 204.561 480.287 212.88 490.549 212.88Z" fill="#BCA3DC"/>
<path d="M126.298 493.92C117.362 485.785 109.155 476.884 101.768 467.32C78.422 436.071 67.9429 397.061 72.4881 358.32C77.578 316.46 101.158 272.95 139.578 253.59C180.578 232.94 231.368 237.21 267.808 206.59C298.198 180.98 308.898 139.38 331.138 107.25C350.138 79.88 373.138 54.91 401.028 36.41C476.438 -13.59 569.028 -1.01 648.738 31.84C687.838 47.97 717.548 68.62 740.008 91.6" stroke="#D7C8EA" stroke-width="5.55" stroke-miterlimit="10"/>
<path d="M767.52 125.93C831.42 224.66 795.37 343.93 795.37 343.93" stroke="#D7C8EA" stroke-width="5.55" stroke-miterlimit="10"/>
<path d="M211.07 594.94C240.64 699.07 202.18 743.09 202.18 743.09" stroke="#D7C8EA" stroke-width="5.55" stroke-miterlimit="10"/>
<path d="M689.698 301.3C686.395 289.218 680.109 278.16 671.418 269.14C654.418 251.07 629.288 240.47 604.418 241.24C586.868 241.8 564.058 245.86 549.708 233.01C542.198 226.33 540.608 215.46 537.708 206.41C534.51 196.191 531.84 185.814 529.708 175.32C527.809 165.338 524.203 155.757 519.048 147C513.482 137.52 505.604 129.607 496.148 124C478.388 113.74 453.598 112.79 435.748 123.31C433.207 124.832 430.799 126.565 428.548 128.49C428.021 128.924 427.517 129.384 427.038 129.87C411.558 144.14 404.098 167.21 404.488 187.82C404.488 187.82 404.488 189.11 404.488 191.35C404.488 192.56 404.488 193.64 404.488 194.59C404.538 196.44 404.578 198.68 404.538 201.14C405.358 213.25 407.298 265.42 384.828 293.36C395.738 289.96 406.828 286.9 417.988 284.36C418.017 284.37 418.049 284.37 418.078 284.36C419.238 283.71 430.368 277.81 437.828 280.36C439.243 280.837 440.52 281.652 441.548 282.734C442.576 283.816 443.324 285.133 443.728 286.57C443.728 286.65 443.728 286.7 443.818 286.74C443.908 287.09 444.038 287.47 444.118 287.86C444.199 288.225 444.3 288.586 444.418 288.94C445.356 291.818 446.646 294.569 448.258 297.13C448.475 297.532 448.737 297.907 449.038 298.25C450.62 300.332 452.477 302.189 454.558 303.77C453.778 303 452.958 302.13 452.098 301.27C449.225 298.417 447.04 294.946 445.709 291.122C444.378 287.298 443.937 283.221 444.418 279.2C444.418 279.2 446.278 281.44 450.068 279.28C453.858 277.12 448.128 258.46 446.708 252.89C446.188 250.82 449.248 251.08 453.998 252.25C450.535 249.889 447.378 247.107 444.598 243.97C442.662 241.83 440.903 239.536 439.338 237.11C432.518 226.51 429.938 218.36 428.558 208.27C425.37 204.714 423.691 200.056 423.877 195.283C424.064 190.51 426.102 185.997 429.558 182.7C429.632 182.59 429.719 182.489 429.818 182.4C431.968 179.64 436.368 178.6 439.218 176.58C442.261 174.292 444.956 171.573 447.218 168.51C449.848 165.06 454.218 159.98 453.818 155.32C454.978 167.95 465.928 176.32 478.048 176.66C480.971 176.653 483.891 176.496 486.798 176.19C486.798 176.19 486.798 176.19 486.888 176.19C488.121 175.928 489.378 175.797 490.638 175.8C493.617 175.795 496.553 176.509 499.196 177.883C501.839 179.257 504.111 181.249 505.818 183.69C505.991 183.909 506.148 184.14 506.288 184.38C506.508 184.72 506.718 185.11 506.938 185.5C507.652 186.582 508.245 187.739 508.708 188.95C511.468 196.02 511.248 203.95 510.818 211.41C510.168 222.41 507.628 233.96 501.508 243.36C501.786 243.112 502.113 242.926 502.468 242.814C502.823 242.702 503.198 242.667 503.568 242.71C508.318 243.53 504.958 274.23 510.208 275.83C515.458 277.43 515.208 281.52 515.208 281.52C515.208 282.25 515.128 282.94 515.038 283.63C515.517 281.103 515.692 278.528 515.558 275.96C517.108 276.04 518.658 276.21 520.208 276.43C529.008 273.43 546.208 282.85 546.208 282.85C546.231 282.878 546.263 282.896 546.298 282.9C587.598 298.81 615.758 338.69 625.298 383.18C628.77 399.191 630.577 415.518 630.688 431.9V350C630.687 348.981 630.887 347.971 631.276 347.029C631.666 346.087 632.237 345.231 632.958 344.51C633.679 343.789 634.535 343.218 635.477 342.828C636.419 342.439 637.429 342.239 638.448 342.24H691.608C690.728 328.38 693.318 314.89 689.698 301.3ZM476.058 313.38C477.478 313.76 478.948 314.11 480.418 314.38C481.358 314.38 482.308 314.29 483.258 314.21C490.4 313.425 497.137 310.493 502.578 305.8C497.268 309.55 490.578 311.88 482.788 312.8C480.238 313.12 477.998 313.29 476.058 313.38ZM497.148 248.79C492.063 254.015 485.373 257.385 478.148 258.36C479.504 258.589 480.874 258.719 482.248 258.75C489.428 258.88 493.828 253.4 497.148 248.79Z" fill="#9E7ACD"/>
<path d="M608.559 527.45C605.969 534.34 604.199 538.23 604.199 538.23C604.889 571 584.839 646 584.839 646C558.069 648.37 534.349 647.86 513.309 645.23C566.909 605 593.339 561.34 608.559 527.45Z" fill="#4B4453"/>
<path d="M628.172 437.81C561.602 412.81 520.812 449.1 520.812 449.1C520.732 546.81 437.042 600.92 418.412 611.69C370.992 579.88 357.922 538.23 357.922 538.23L362.192 533.23C365.192 524.87 372.882 498.87 375.392 473.82C377.762 450.15 375.082 427.3 374.912 420.87C374.522 407.64 368.532 410.66 361.502 413.2C354.472 415.74 321.922 416.52 321.922 416.52C358.002 396.2 339.302 310 339.302 310L417.942 284.43C417.942 284.43 440.192 271.89 444.072 287.88C447.952 303.87 463.432 310.88 480.372 314.48C497.312 318.08 512.972 298.57 515.082 282.79C517.192 267.01 546.082 282.79 546.082 282.79C617.272 318.21 631.582 382.58 628.172 437.81Z" fill="#4B4453"/>
<path d="M92.14 754.61C92.14 754.61 153.38 747.9 163.95 754.61C163.95 754.61 165.89 768.51 156.54 785.75C147.19 802.99 135.7 791.14 73.91 795.1C73.91 795.1 23.6804 799.1 23.1004 780.74C22.5204 762.38 45.9304 759.82 59.5604 759.67C73.19 759.52 92.14 754.61 92.14 754.61Z" fill="#9E7ACD"/>
<path d="M322.999 736.86H322.309" stroke="#333333" stroke-width="5.55" stroke-miterlimit="10"/>
<path d="M292.781 343.86C314.641 334.46 330.331 310.57 343.781 292.03C352.781 279.7 363.781 263.71 372.781 251.46C381.581 239.56 399.131 218.46 403.831 204.46C404.041 203.86 404.211 203.26 404.391 202.69" stroke="#333333" stroke-width="5.55" stroke-miterlimit="10"/>
<path d="M373.102 411.08C348.052 416.25 237.032 434.45 224.262 353.47C209.822 262.11 356.372 227.36 368.402 199.72C380.432 172.08 368.002 142 399.662 128C413.662 121.79 423.502 123.09 426.872 129.9" stroke="#333333" stroke-width="5.55" stroke-miterlimit="10"/>
<path d="M164 760.57C175.85 704.44 203.23 590.57 240.44 535.38" stroke="#333333" stroke-width="5.55" stroke-miterlimit="10"/>
<path d="M368.751 395.17C379.001 426.47 384.201 475.87 358.641 543.05" stroke="#333333" stroke-width="5.55" stroke-miterlimit="10"/>
<path d="M175.589 811.62H140.319C134.914 811.573 129.744 809.406 125.921 805.585C122.098 801.764 119.929 796.595 119.879 791.19C119.886 790.249 119.96 789.31 120.099 788.38C120.778 786.731 121.268 785.01 121.559 783.25C122.169 779.89 122.299 777.9 128.329 774.76C132.176 772.801 136.137 771.071 140.189 769.58C140.959 769.32 141.739 768.98 142.599 768.68C145.839 767.47 150.189 765.83 155.319 763.89C156.619 763.42 157.949 762.89 159.319 762.38C160.689 761.87 162.379 761.22 163.979 760.61C187.609 751.82 221.149 739.31 243.139 731.08H243.269C244.363 730.869 245.475 730.769 246.589 730.78C251.675 730.783 256.552 732.804 260.148 736.401C263.745 739.997 265.766 744.874 265.769 749.96C265.769 749.96 132.469 787.91 175.589 811.62Z" fill="#9E7ACD"/>
<path d="M229 554.62C244.78 596.22 255 647.98 301.61 711.23" stroke="#333333" stroke-width="5.55" stroke-miterlimit="10"/>
<path d="M519.909 431.6C527.109 501.32 491.069 575.82 397.329 623.29C367.759 638.29 340.159 658.29 319.499 684.43C313.786 691.731 308.581 699.416 303.919 707.43C300.379 713.43 292.229 724.43 296.059 731.74C298.059 735.57 301.359 736.92 305.469 736.92C316.689 736.92 328.079 708.47 336.879 695.78" stroke="#333333" stroke-width="5.55" stroke-miterlimit="10"/>
<path d="M357.211 703.56C357.211 703.56 337.001 736.5 323.001 736.88C309.001 737.26 318.901 726.06 318.901 726.06" stroke="#333333" stroke-width="5.55" stroke-miterlimit="10"/>
<path d="M453.119 277.93C408.799 283.88 364.559 298.41 325.289 316.01" stroke="#333333" stroke-width="5.55" stroke-miterlimit="10"/>
<path d="M371.589 714.57C371.506 714.712 371.405 714.843 371.289 714.96C369.609 717.24 367.799 719.66 365.809 721.96C361.069 727.7 355.599 733.09 348.649 735.37C343.089 737.23 331.799 735.81 338.219 727.91" stroke="#333333" stroke-width="5.55" stroke-miterlimit="10"/>
<path d="M337.229 729.36C337.009 729.36 336.749 729.49 336.539 729.53" stroke="#333333" stroke-width="5.55" stroke-miterlimit="10"/>
<path d="M507.582 707.07C485.162 707.15 464.122 708.27 444.582 710.07C426.682 711.71 417.582 712.75 402.172 715.38" stroke="#333333" stroke-width="5.55" stroke-miterlimit="10"/>
<path d="M366.001 722.24C365.39 722.332 364.786 722.462 364.191 722.63" stroke="#333333" stroke-width="5.55" stroke-miterlimit="10"/>
<path d="M316.661 735.521C301.082 740.411 285.845 746.33 271.051 753.24C270.555 753.492 270.007 753.625 269.451 753.63C268.474 753.623 267.54 753.228 266.854 752.532C266.168 751.837 265.786 750.897 265.791 749.92C265.786 744.834 263.762 739.957 260.164 736.36C256.566 732.764 251.688 730.743 246.601 730.74C245.487 730.729 244.375 730.83 243.281 731.04H243.151C242.015 731.266 240.903 731.601 239.831 732.04L164.001 760.57C162.401 761.18 160.851 761.781 159.341 762.341C157.831 762.901 156.631 763.34 155.341 763.85C150.211 765.79 145.861 767.431 142.621 768.641C141.761 768.941 140.981 769.28 140.211 769.54L135.001 771.48C132.586 772.118 130.317 773.219 128.321 774.72C125.3 776.846 122.951 779.792 121.551 783.211C120.798 784.833 120.305 786.564 120.091 788.341C119.952 789.271 119.878 790.21 119.871 791.151C119.921 796.555 122.09 801.724 125.913 805.545C129.736 809.366 134.906 811.534 140.311 811.581H619.311C630.059 811.555 640.526 808.153 649.235 801.855C657.945 795.558 664.455 786.683 667.847 776.485C671.239 766.287 671.341 755.281 668.139 745.022C664.937 734.762 658.592 725.768 650.001 719.31L598.141 678.831C589.081 671.751 581.191 656.83 584.811 645.97C596.37 611.163 602.899 574.884 604.201 538.23" stroke="#333333" stroke-width="5.55" stroke-miterlimit="10"/>
<path d="M120 793.38H37.31C35.4327 793.385 33.5728 793.02 31.8368 792.305C30.1009 791.59 28.523 790.54 27.1937 789.214C25.8644 787.889 24.8097 786.314 24.0901 784.58C23.3704 782.846 23 780.987 23 779.11C23 772.11 30.2 764.32 37.1 763.11L97 753.85C93.12 604.32 120 486.1 150.38 433.8C159.58 417.94 174.31 406.8 191 400.65C228.5 386.9 270.51 402.85 291.7 436.7L317.76 478.34L350.54 530.7C350.82 531.13 351.11 531.56 351.41 531.97L364.8 549.91" stroke="#333333" stroke-width="5.55" stroke-miterlimit="10"/>
<path d="M384.871 293.33C407.721 276.33 404.321 187.87 404.321 187.87C403.931 166.61 411.861 142.72 428.381 128.54C430.632 126.614 433.04 124.882 435.581 123.36C453.431 112.84 478.221 113.79 495.981 124.05C505.436 129.657 513.315 137.57 518.881 147.05C524.052 155.792 527.682 165.358 529.611 175.33C531.738 185.825 534.409 196.202 537.611 206.42C540.461 215.42 542.051 226.34 549.551 233.02C563.911 245.87 586.721 241.81 604.271 241.25C629.121 240.46 654.201 251.1 671.271 269.15C679.944 278.179 686.227 289.23 689.551 301.3C693.151 314.91 690.551 328.41 691.481 342.23" stroke="#333333" stroke-width="5.55" stroke-miterlimit="10"/>
<path d="M457.329 296.22L451.949 272.92L444.539 243.94" stroke="#333333" stroke-width="5.55" stroke-miterlimit="10"/>
<path d="M471.979 240.07C475.9 240.07 479.079 236.891 479.079 232.97C479.079 229.049 475.9 225.87 471.979 225.87C468.058 225.87 464.879 229.049 464.879 232.97C464.879 236.891 468.058 240.07 471.979 240.07Z" stroke="#333333" stroke-width="5.55" stroke-miterlimit="10"/>
<path d="M798.061 552.66C798.069 555.46 797.524 558.234 796.457 560.824C795.391 563.413 793.824 565.767 791.846 567.749C789.868 569.732 787.518 571.304 784.931 572.377C782.345 573.449 779.571 574.001 776.771 574C774.191 574.01 771.631 573.542 769.221 572.62C766.249 569.637 764.228 565.84 763.412 561.709C762.596 557.578 763.022 553.298 764.636 549.409C766.251 545.52 768.981 542.197 772.483 539.858C775.984 537.52 780.1 536.271 784.311 536.27C786.875 536.263 789.418 536.731 791.811 537.65C793.793 539.614 795.366 541.952 796.439 544.529C797.512 547.105 798.063 549.869 798.061 552.66Z" fill="#BCA3DC"/>
<path d="M798.059 416.5C798.061 419.297 797.512 422.067 796.444 424.652C795.375 427.236 793.807 429.585 791.829 431.563C789.852 433.542 787.504 435.111 784.92 436.181C782.335 437.251 779.566 437.801 776.769 437.8C774.654 438.061 772.507 437.788 770.524 437.007C768.541 436.227 766.785 434.962 765.416 433.328C764.048 431.695 763.109 429.745 762.687 427.656C762.265 425.568 762.372 423.406 762.999 421.37C762.997 418.572 763.547 415.802 764.617 413.217C765.687 410.632 767.256 408.283 769.234 406.305C771.212 404.327 773.561 402.758 776.146 401.688C778.731 400.618 781.501 400.068 784.299 400.07C786.896 400.057 789.471 400.539 791.889 401.49C795.849 405.48 798.068 410.877 798.059 416.5Z" fill="#BCA3DC"/>
<path d="M798.059 696.23C798.061 699.027 797.513 701.797 796.444 704.382C795.375 706.967 793.807 709.315 791.83 711.293C789.852 713.272 787.504 714.841 784.92 715.911C782.336 716.981 779.566 717.531 776.769 717.53C774.188 717.545 771.627 717.077 769.219 716.15C766.25 713.166 764.232 709.371 763.418 705.241C762.604 701.112 763.031 696.834 764.645 692.947C766.259 689.061 768.988 685.739 772.487 683.401C775.987 681.063 780.1 679.813 784.309 679.81C786.873 679.798 789.417 680.266 791.809 681.19C793.796 683.157 795.372 685.5 796.445 688.082C797.518 690.664 798.067 693.434 798.059 696.23Z" fill="#BCA3DC"/>
<path d="M798.061 552.66C798.069 555.46 797.524 558.234 796.457 560.824C795.391 563.413 793.824 565.767 791.846 567.749C789.868 569.732 787.518 571.304 784.931 572.377C782.345 573.449 779.571 574.001 776.771 574C774.191 574.01 771.631 573.542 769.221 572.62C766.249 569.637 764.228 565.84 763.412 561.709C762.596 557.578 763.022 553.298 764.636 549.409C766.251 545.52 768.981 542.197 772.483 539.858C775.984 537.52 780.1 536.271 784.311 536.27C786.875 536.263 789.418 536.731 791.811 537.65C793.793 539.614 795.366 541.952 796.439 544.529C797.512 547.105 798.063 549.869 798.061 552.66Z" fill="#BCA3DC"/>
<path d="M798.059 416.5C798.061 419.297 797.512 422.067 796.444 424.652C795.375 427.236 793.807 429.585 791.829 431.563C789.852 433.542 787.504 435.111 784.92 436.181C782.335 437.251 779.566 437.801 776.769 437.8C774.654 438.061 772.507 437.788 770.524 437.007C768.541 436.227 766.785 434.962 765.416 433.328C764.048 431.695 763.109 429.745 762.687 427.656C762.265 425.568 762.372 423.406 762.999 421.37C762.997 418.572 763.547 415.802 764.617 413.217C765.687 410.632 767.256 408.283 769.234 406.305C771.212 404.327 773.561 402.758 776.146 401.688C778.731 400.618 781.501 400.068 784.299 400.07C786.896 400.057 789.471 400.539 791.889 401.49C795.849 405.48 798.068 410.877 798.059 416.5Z" fill="#BCA3DC"/>
<path d="M798.059 696.23C798.061 699.027 797.513 701.797 796.444 704.382C795.375 706.967 793.807 709.315 791.83 711.293C789.852 713.272 787.504 714.841 784.92 715.911C782.336 716.981 779.566 717.531 776.769 717.53C774.188 717.545 771.627 717.077 769.219 716.15C766.25 713.166 764.232 709.371 763.418 705.241C762.604 701.112 763.031 696.834 764.645 692.947C766.259 689.061 768.988 685.739 772.487 683.401C775.987 681.063 780.1 679.813 784.309 679.81C786.873 679.798 789.417 680.266 791.809 681.19C793.796 683.157 795.372 685.5 796.445 688.082C797.518 690.664 798.067 693.434 798.059 696.23Z" fill="#BCA3DC"/>
<path d="M442.408 214.53C452.67 214.53 460.988 206.212 460.988 195.95C460.988 185.689 452.67 177.37 442.408 177.37C432.147 177.37 423.828 185.689 423.828 195.95C423.828 206.212 432.147 214.53 442.408 214.53Z" stroke="#333333" stroke-width="5.55" stroke-miterlimit="10"/>
<path d="M490.549 212.88C500.81 212.88 509.129 204.561 509.129 194.3C509.129 184.038 500.81 175.72 490.549 175.72C480.287 175.72 471.969 184.038 471.969 194.3C471.969 204.561 480.287 212.88 490.549 212.88Z" stroke="#333333" stroke-width="5.55" stroke-miterlimit="10"/>
<path d="M434.641 193.51C434.641 193.51 442.131 202.1 449.831 193.51" stroke="#333333" stroke-width="5.55" stroke-miterlimit="10"/>
<path d="M483 193.51C483 193.51 490.48 202.1 498.19 193.51" stroke="#333333" stroke-width="5.55" stroke-miterlimit="10"/>
<path d="M461 196C461 196 465.22 189.15 472 194.35" stroke="#333333" stroke-width="5.55" stroke-miterlimit="10"/>
<path d="M428.5 208.22C429.88 218.31 432.5 226.5 439.28 237.1C446.4 248.1 459.2 258.66 472.66 258.75C478.379 258.859 484.03 257.493 489.067 254.784C494.105 252.074 498.359 248.112 501.42 243.28C507.54 233.89 510.1 222.37 510.75 211.28C511.18 203.83 511.36 195.9 508.64 188.82C505.64 181.08 498.64 175.82 490.28 175.92C486.17 175.98 482.09 176.74 477.98 176.61C465.84 176.24 454.9 167.9 453.73 155.26C454.16 159.89 449.73 164.98 447.16 168.46C444.886 171.492 442.192 174.186 439.16 176.46C436.26 178.59 431.59 179.61 429.52 182.58" stroke="#333333" stroke-width="5.55" stroke-miterlimit="10"/>
<path d="M670.471 763.12H915.201C917.263 763.123 919.243 762.308 920.705 760.853C922.167 759.398 922.993 757.423 923.001 755.36V350C923.001 348.978 922.799 347.966 922.406 347.021C922.014 346.077 921.439 345.22 920.714 344.499C919.989 343.778 919.129 343.207 918.183 342.82C917.237 342.432 916.223 342.235 915.201 342.24H638.311C637.291 342.239 636.282 342.439 635.34 342.828C634.398 343.218 633.542 343.789 632.821 344.51C632.1 345.231 631.528 346.087 631.139 347.029C630.749 347.971 630.549 348.981 630.551 350V704.09" stroke="#333333" stroke-width="5.55" stroke-miterlimit="10"/>
<path d="M922.979 481.69H630.559V623.63H922.979V481.69Z" stroke="#333333" stroke-width="5.55" stroke-miterlimit="10"/>
<path d="M515.24 273C517.54 293.56 503.15 312 483.11 314.27C463.07 316.54 445 301.64 442.66 281.08" stroke="#333333" stroke-width="5.55" stroke-miterlimit="10"/>
<path d="M504.999 236.71L509.139 275.43C511.139 275.52 513.139 275.65 515.139 275.82C573.299 280.39 613.309 328.25 625.139 383.09C628.612 399.104 630.418 415.434 630.529 431.82C630.637 452.755 627.776 473.599 622.029 493.73C616.315 513.377 608.176 532.236 597.799 549.87C587.225 567.782 574.865 584.578 560.909 600C546.541 615.825 530.942 630.488 514.259 643.85C500.679 654.75 486.409 664.67 472.009 674.42C459.119 683.12 445.009 689.72 431.569 697.42C417.569 705.42 403.929 713.98 390.689 723.12C383.619 728.03 374.909 732.6 366.549 727.86C364.219 726.57 364.549 724.32 365.809 721.99C367.279 719.28 370.039 716.48 371.289 714.99" stroke="#333333" stroke-width="5.55" stroke-miterlimit="10"/>
<path d="M776.771 573.97C788.54 573.97 798.081 564.429 798.081 552.66C798.081 540.89 788.54 531.35 776.771 531.35C765.002 531.35 755.461 540.89 755.461 552.66C755.461 564.429 765.002 573.97 776.771 573.97Z" stroke="#333333" stroke-width="5.55" stroke-miterlimit="10"/>
<path d="M776.771 437.79C788.54 437.79 798.081 428.249 798.081 416.48C798.081 404.711 788.54 395.17 776.771 395.17C765.002 395.17 755.461 404.711 755.461 416.48C755.461 428.249 765.002 437.79 776.771 437.79Z" stroke="#333333" stroke-width="5.55" stroke-miterlimit="10"/>
<path d="M776.771 717.54C788.54 717.54 798.081 707.999 798.081 696.23C798.081 684.461 788.54 674.92 776.771 674.92C765.002 674.92 755.461 684.461 755.461 696.23C755.461 707.999 765.002 717.54 776.771 717.54Z" stroke="#333333" stroke-width="5.55" stroke-miterlimit="10"/>
<path d="M622.739 491.1C619.209 500.93 614.849 513.35 608.559 527.45C614.759 510.76 625.849 476.53 628.169 437.81C628.169 437.81 635.549 455.87 622.739 491.1Z" fill="#333333"/>
<path d="M846.001 127.14L781.001 136.87L792.321 144.87L813.491 161.82C816.811 164.15 815.981 169.66 817.821 173C818.513 178.043 817.716 183.177 815.53 187.773C813.343 192.369 809.861 196.226 805.512 198.87C801.164 201.514 796.137 202.83 791.05 202.656C785.964 202.482 781.039 200.825 776.881 197.89L725.801 161.94C720.161 158.047 715.635 152.749 712.671 146.57C708.491 125.76 721.321 102.63 745.961 98.95L816.961 88.3L806.561 80.2L774.311 55.1C771.547 52.966 769.241 50.296 767.531 47.25C766.817 42.1 767.656 36.855 769.941 32.184C772.226 27.514 775.853 23.632 780.357 21.035C784.862 18.439 790.038 17.245 795.225 17.608C800.411 17.97 805.372 19.872 809.471 23.07L867.001 67.83C871.704 71.446 875.506 76.101 878.111 81.43C882.001 101.49 869.491 123.62 846.001 127.14Z" fill="#9E7ACD"/>
<path d="M846 127.14L781 136.87L792.32 144.87L807 155.13C809.838 157.091 812.26 159.595 814.125 162.497C815.991 165.399 817.264 168.642 817.869 172.038C818.475 175.435 818.402 178.917 817.655 182.286C816.908 185.654 815.501 188.841 813.516 191.662C811.531 194.484 809.007 196.884 806.089 198.725C803.171 200.566 799.918 201.811 796.516 202.388C793.115 202.966 789.633 202.863 786.271 202.088C782.909 201.312 779.734 199.879 776.93 197.87L725.8 161.94C720.16 158.046 715.634 152.748 712.67 146.57C701.8 124 714.51 94 742.89 89.74L799.22 81.3L806.56 80.2L774.31 55.1C771.545 53.013 769.222 50.398 767.477 47.405C765.732 44.413 764.599 41.103 764.144 37.669C763.69 34.235 763.923 30.745 764.83 27.401C765.736 24.058 767.299 20.928 769.426 18.195C771.554 15.461 774.203 13.177 777.221 11.476C780.239 9.776 783.565 8.692 787.006 8.289C790.446 7.886 793.933 8.17 797.262 9.127C800.592 10.083 803.698 11.692 806.4 13.86L863.93 58.63C871.291 64.235 876.337 72.349 878.11 81.43C882 101.49 869.49 123.62 846 127.14Z" stroke="#333333" stroke-width="5.55" stroke-miterlimit="10"/>
<path d="M641.1 207L640.25 183.68L629.9 194.3C629.032 195.191 627.997 195.902 626.853 196.392C625.71 196.882 624.482 197.142 623.238 197.157C621.994 197.172 620.76 196.942 619.605 196.479C618.451 196.016 617.399 195.33 616.51 194.46C615.619 193.592 614.908 192.557 614.418 191.414C613.928 190.271 613.668 189.042 613.653 187.799C613.638 186.555 613.869 185.321 614.331 184.166C614.794 183.012 615.48 181.96 616.35 181.07L634.81 162.16C636.724 160.203 639.169 158.85 641.844 158.268C644.519 157.686 647.305 157.901 649.859 158.887C652.413 159.872 654.622 161.585 656.213 163.812C657.804 166.04 658.707 168.685 658.81 171.42L659.68 195.21L667.31 186.6C668.135 185.67 669.136 184.911 670.254 184.367C671.373 183.823 672.588 183.505 673.829 183.431C675.071 183.357 676.315 183.528 677.49 183.934C678.666 184.341 679.749 184.975 680.68 185.8C681.611 186.625 682.371 187.625 682.915 188.743C683.46 189.862 683.779 191.076 683.854 192.318C683.93 193.559 683.759 194.803 683.354 195.979C682.948 197.155 682.315 198.239 681.49 199.17L666.49 216.11C664.575 218.307 662.042 219.875 659.222 220.609C656.403 221.343 653.427 221.21 650.684 220.226C647.941 219.241 645.559 217.453 643.849 215.093C642.139 212.734 641.181 209.913 641.1 207Z" fill="#BCA3DC"/>
<path d="M557.371 195.17L568.371 192.71L562.371 188.71C561.364 188.031 560.666 186.981 560.43 185.79C560.194 184.598 560.439 183.362 561.111 182.35C561.788 181.341 562.838 180.641 564.03 180.405C565.223 180.169 566.46 180.415 567.471 181.09L578.101 188.21C579.199 188.947 580.056 189.989 580.568 191.208C581.079 192.427 581.222 193.77 580.978 195.069C580.734 196.369 580.115 197.568 579.197 198.519C578.278 199.47 577.101 200.131 575.811 200.42L564.561 202.93L569.331 205.8C570.373 206.429 571.123 207.445 571.417 208.626C571.711 209.806 571.526 211.056 570.901 212.1C570.272 213.142 569.255 213.892 568.074 214.184C566.892 214.477 565.643 214.288 564.601 213.66L555.291 208C554.092 207.279 553.137 206.216 552.548 204.947C551.96 203.678 551.765 202.262 551.989 200.881C552.212 199.5 552.845 198.218 553.804 197.2C554.764 196.182 556.006 195.475 557.371 195.17Z" fill="#BCA3DC"/>
<path d="M7.09078 837.28L2.05078 851.14" stroke="#D7C8EA" stroke-width="3.69" stroke-miterlimit="10"/>
</svg>
