<svg width="900" height="672" viewBox="0 0 900 672" fill="none" xmlns="http://www.w3.org/2000/svg">
<path d="M540.449 156.97L606.059 77.86L671.669 156.97V463.32" stroke="#BCA3DC" stroke-width="4.01" stroke-miterlimit="10"/>
<g opacity="0.81">
<path opacity="0.81" d="M647.411 170.19H629.781V187.82H647.411V170.19Z" stroke="#BCA3DC" stroke-width="4.01" stroke-miterlimit="10"/>
<path opacity="0.81" d="M614.068 170.19H596.438V187.82H614.068V170.19Z" stroke="#BCA3DC" stroke-width="4.01" stroke-miterlimit="10"/>
<path opacity="0.81" d="M580.739 170.19H563.109V187.82H580.739V170.19Z" stroke="#BCA3DC" stroke-width="4.01" stroke-miterlimit="10"/>
</g>
<g opacity="0.46">
<path opacity="0.46" d="M647.411 211.14H629.781V228.77H647.411V211.14Z" stroke="#BCA3DC" stroke-width="4.01" stroke-miterlimit="10"/>
<path opacity="0.46" d="M614.068 211.14H596.438V228.77H614.068V211.14Z" stroke="#BCA3DC" stroke-width="4.01" stroke-miterlimit="10"/>
<path opacity="0.46" d="M580.739 211.14H563.109V228.77H580.739V211.14Z" stroke="#BCA3DC" stroke-width="4.01" stroke-miterlimit="10"/>
</g>
<g opacity="0.25">
<path opacity="0.25" d="M647.411 253.82H629.781V271.45H647.411V253.82Z" stroke="#BCA3DC" stroke-width="4.01" stroke-miterlimit="10"/>
<path opacity="0.25" d="M614.068 253.82H596.438V271.45H614.068V253.82Z" stroke="#BCA3DC" stroke-width="4.01" stroke-miterlimit="10"/>
<path opacity="0.25" d="M580.739 253.82H563.109V271.45H580.739V253.82Z" stroke="#BCA3DC" stroke-width="4.01" stroke-miterlimit="10"/>
</g>
<g opacity="0.25">
<path opacity="0.25" d="M647.411 290.49H629.781V308.12H647.411V290.49Z" stroke="#BCA3DC" stroke-width="4.01" stroke-miterlimit="10"/>
<path opacity="0.25" d="M614.068 290.49H596.438V308.12H614.068V290.49Z" stroke="#BCA3DC" stroke-width="4.01" stroke-miterlimit="10"/>
<path opacity="0.25" d="M580.739 290.49H563.109V308.12H580.739V290.49Z" stroke="#BCA3DC" stroke-width="4.01" stroke-miterlimit="10"/>
</g>
<path d="M696.078 415.3V43.62H866.348V464.03" stroke="#BCA3DC" stroke-width="4.01" stroke-miterlimit="10"/>
<path d="M713 77.8599V99.6099H734.75V59.6899H713V77.8599ZM716.57 63.2599H731.17V77.8599H716.57V63.2599ZM716.57 81.4399H731.17V95.9999H716.57V81.4399Z" fill="#D7C8EA"/>
<path d="M751.359 77.8599V99.6099H773.099V59.6899H751.359V77.8599ZM754.929 63.2599H769.529V77.8599H754.929V63.2599ZM754.929 81.4399H769.529V95.9999H754.929V81.4399Z" fill="#D7C8EA"/>
<path d="M788.66 77.8599V99.6099H810.4V59.6899H788.66V77.8599ZM792.23 63.2599H806.83V77.8599H792.23V63.2599ZM792.23 81.4399H806.83V95.9999H792.23V81.4399Z" fill="#D7C8EA"/>
<path d="M823.77 59.6899V99.6099H845.51V59.6899H823.77ZM841.94 95.9999H827.34V81.4399H841.94V95.9999ZM841.94 77.8299H827.34V63.2299H841.94V77.8299Z" fill="#D7C8EA"/>
<path d="M713 131.56V153.31H734.75V113.39H713V131.56ZM716.57 116.96H731.17V131.56H716.57V116.96ZM716.57 135.13H731.17V149.74H716.57V135.13Z" fill="#D7C8EA"/>
<path d="M751.359 131.56V153.31H773.099V113.39H751.359V131.56ZM754.929 116.96H769.529V131.56H754.929V116.96ZM754.929 135.13H769.529V149.74H754.929V135.13Z" fill="#D7C8EA"/>
<path d="M788.66 131.56V153.31H810.4V113.39H788.66V131.56ZM792.23 116.96H806.83V131.56H792.23V116.96ZM792.23 135.13H806.83V149.74H792.23V135.13Z" fill="#D7C8EA"/>
<path d="M823.77 131.56V153.31H845.51V113.39H823.77V131.56ZM827.34 116.96H841.94V131.56H827.34V116.96ZM827.34 135.13H841.94V149.74H827.34V135.13Z" fill="#D7C8EA"/>
<path d="M713 185.26V207H734.75V167.09H713V185.26ZM716.57 170.66H731.17V185.26H716.57V170.66ZM716.57 188.84H731.17V203.44H716.57V188.84Z" fill="#D7C8EA"/>
<path d="M751.359 185.26V207H773.099V167.09H751.359V185.26ZM754.929 170.66H769.529V185.26H754.929V170.66ZM754.929 188.84H769.529V203.44H754.929V188.84Z" fill="#D7C8EA"/>
<path d="M788.66 185.26V207H810.4V167.09H788.66V185.26ZM792.23 170.66H806.83V185.26H792.23V170.66ZM792.23 188.84H806.83V203.44H792.23V188.84Z" fill="#D7C8EA"/>
<path d="M823.77 185.26V207H845.51V167.09H823.77V185.26ZM827.34 170.66H841.94V185.26H827.34V170.66ZM827.34 188.84H841.94V203.44H827.34V188.84Z" fill="#D7C8EA"/>
<path d="M713 239V260.74H734.75V220.79H713V239ZM716.57 224.4H731.17V239H716.57V224.4ZM716.57 242.57H731.17V257.17H716.57V242.57Z" fill="#D7C8EA"/>
<path d="M751.359 239V260.74H773.099V220.79H751.359V239ZM754.929 224.4H769.529V239H754.929V224.4ZM754.929 242.57H769.529V257.17H754.929V242.57Z" fill="#D7C8EA"/>
<path d="M788.66 239V260.74H810.4V220.79H788.66V239ZM792.23 224.4H806.83V239H792.23V224.4ZM792.23 242.57H806.83V257.17H792.23V242.57Z" fill="#D7C8EA"/>
<path d="M823.77 239V260.74H845.51V220.79H823.77V239ZM827.34 224.4H841.94V239H827.34V224.4ZM827.34 242.57H841.94V257.17H827.34V242.57Z" fill="#D7C8EA"/>
<path d="M713 292.66V314.41H734.75V274.49H713V292.66ZM716.57 278.07H731.17V292.66H716.57V278.07ZM716.57 296.24H731.17V310.84H716.57V296.24Z" fill="#D7C8EA"/>
<path d="M751.359 292.66V314.41H773.099V274.49H751.359V292.66ZM754.929 278.07H769.529V292.66H754.929V278.07ZM754.929 296.24H769.529V310.84H754.929V296.24Z" fill="#D7C8EA"/>
<path d="M788.66 292.66V314.41H810.4V274.49H788.66V292.66ZM792.23 278.07H806.83V292.66H792.23V278.07ZM792.23 296.24H806.83V310.84H792.23V296.24Z" fill="#D7C8EA"/>
<path d="M823.77 292.66V314.41H845.51V274.49H823.77V292.66ZM827.34 278.07H841.94V292.66H827.34V278.07ZM827.34 296.24H841.94V310.84H827.34V296.24Z" fill="#D7C8EA"/>
<path d="M306.35 464.14V295.85C306.349 272.389 298.15 249.666 283.17 231.61C280.529 228.426 277.218 225.863 273.473 224.104C269.729 222.345 265.642 221.434 261.505 221.434C257.368 221.434 253.282 222.345 249.537 224.104C245.793 225.863 242.482 228.426 239.84 231.61C224.861 249.666 216.661 272.389 216.66 295.85V464.45" stroke="#BCA3DC" stroke-width="4.01" stroke-miterlimit="10"/>
<g opacity="0.81">
<path opacity="0.81" d="M233.251 280.62H245.301V268.57H233.251V280.62Z" stroke="#BCA3DC" stroke-width="4.01" stroke-miterlimit="10"/>
<path opacity="0.81" d="M256.02 280.62H268.07V268.57H256.02V280.62Z" stroke="#BCA3DC" stroke-width="4.01" stroke-miterlimit="10"/>
<path opacity="0.81" d="M278.802 280.62H290.852V268.57H278.802V280.62Z" stroke="#BCA3DC" stroke-width="4.01" stroke-miterlimit="10"/>
</g>
<g opacity="0.46">
<path opacity="0.46" d="M233.251 308.609H245.301V296.559H233.251V308.609Z" stroke="#BCA3DC" stroke-width="4.01" stroke-miterlimit="10"/>
<path opacity="0.46" d="M256.02 308.609H268.07V296.559H256.02V308.609Z" stroke="#BCA3DC" stroke-width="4.01" stroke-miterlimit="10"/>
<path opacity="0.46" d="M278.802 308.609H290.852V296.559H278.802V308.609Z" stroke="#BCA3DC" stroke-width="4.01" stroke-miterlimit="10"/>
</g>
<g opacity="0.25">
<path opacity="0.25" d="M233.251 337.78H245.301V325.73H233.251V337.78Z" stroke="#BCA3DC" stroke-width="4.01" stroke-miterlimit="10"/>
<path opacity="0.25" d="M256.02 337.78H268.07V325.73H256.02V337.78Z" stroke="#BCA3DC" stroke-width="4.01" stroke-miterlimit="10"/>
<path opacity="0.25" d="M278.802 337.78H290.852V325.73H278.802V337.78Z" stroke="#BCA3DC" stroke-width="4.01" stroke-miterlimit="10"/>
</g>
<g opacity="0.25">
<path opacity="0.25" d="M233.251 362.84H245.301V350.79H233.251V362.84Z" stroke="#BCA3DC" stroke-width="4.01" stroke-miterlimit="10"/>
<path opacity="0.25" d="M256.02 362.84H268.07V350.79H256.02V362.84Z" stroke="#BCA3DC" stroke-width="4.01" stroke-miterlimit="10"/>
<path opacity="0.25" d="M278.802 362.84H290.852V350.79H278.802V362.84Z" stroke="#BCA3DC" stroke-width="4.01" stroke-miterlimit="10"/>
</g>
<path d="M83.6094 464.91V182.07H199.989V464.51" stroke="#BCA3DC" stroke-width="4.01" stroke-miterlimit="10"/>
<path d="M188.419 205.47V220.33H173.559V193.05H188.419V205.47ZM185.969 195.47H175.999V205.47H185.999L185.969 195.47ZM185.969 207.89H175.999V217.89H185.999L185.969 207.89Z" fill="#D7C8EA"/>
<path d="M162.2 205.47V220.33H147.34V193.05H162.2V205.47ZM159.76 195.47H149.76V205.47H159.76V195.47ZM159.76 207.89H149.76V217.89H159.76V207.89Z" fill="#D7C8EA"/>
<path d="M136.712 205.47V220.33H121.852V193.05H136.712V205.47ZM134.272 195.47H124.272V205.47H134.272V195.47ZM134.272 207.89H124.272V217.89H134.272V207.89Z" fill="#D7C8EA"/>
<path d="M112.712 193.05V220.33H97.8516V193.05H112.712ZM100.292 217.89H110.292V207.89H100.292V217.89ZM100.292 205.47H110.292V195.47H100.292V205.47Z" fill="#D7C8EA"/>
<path d="M188.419 242.17V257H173.559V229.76H188.419V242.17ZM185.969 232.17H175.999V242.17H185.999L185.969 232.17ZM185.969 244.59H175.999V254.59H185.999L185.969 244.59Z" fill="#D7C8EA"/>
<path d="M162.2 242.17V257H147.34V229.76H162.2V242.17ZM159.76 232.17H149.76V242.17H159.76V232.17ZM159.76 244.59H149.76V254.59H159.76V244.59Z" fill="#D7C8EA"/>
<path d="M136.712 242.17V257H121.852V229.76H136.712V242.17ZM134.272 232.17H124.272V242.17H134.272V232.17ZM134.272 244.59H124.272V254.59H134.272V244.59Z" fill="#D7C8EA"/>
<path d="M112.712 242.17V257H97.8516V229.76H112.712V242.17ZM110.272 232.17H100.272V242.17H110.272V232.17ZM110.272 244.59H100.272V254.59H110.272V244.59Z" fill="#D7C8EA"/>
<path d="M188.419 278.88V293.74H173.559V266.46H188.419V278.88ZM185.969 268.88H175.999V278.88H185.999L185.969 268.88ZM185.969 281.3H175.999V291.3H185.999L185.969 281.3Z" fill="#D7C8EA"/>
<path d="M162.2 278.88V293.74H147.34V266.46H162.2V278.88ZM159.76 268.88H149.76V278.88H159.76V268.88ZM159.76 281.3H149.76V291.3H159.76V281.3Z" fill="#D7C8EA"/>
<path d="M136.712 278.88V293.74H121.852V266.46H136.712V278.88ZM134.272 268.88H124.272V278.88H134.272V268.88ZM134.272 281.3H124.272V291.3H134.272V281.3Z" fill="#D7C8EA"/>
<path d="M112.712 278.88V293.74H97.8516V266.46H112.712V278.88ZM110.272 268.88H100.272V278.88H110.272V268.88ZM110.272 281.3H100.272V291.3H110.272V281.3Z" fill="#D7C8EA"/>
<path d="M188.419 315.58V330.44H173.559V303.16H188.419V315.58ZM185.969 305.58H175.999V315.58H185.999L185.969 305.58ZM185.999 318H175.999V328H185.999V318Z" fill="#D7C8EA"/>
<path d="M162.2 315.58V330.44H147.34V303.16H162.2V315.58ZM159.76 305.58H149.76V315.58H159.76V305.58ZM159.76 318H149.76V328H159.76V318Z" fill="#D7C8EA"/>
<path d="M136.712 315.58V330.44H121.852V303.16H136.712V315.58ZM134.272 305.58H124.272V315.58H134.272V305.58ZM134.272 318H124.272V328H134.272V318Z" fill="#D7C8EA"/>
<path d="M112.712 315.58V330.44H97.8516V303.16H112.712V315.58ZM110.272 305.58H100.272V315.58H110.272V305.58ZM110.272 318H100.272V328H110.272V318Z" fill="#D7C8EA"/>
<path d="M188.419 352.28V367.14H173.559V339.86H188.419V352.28ZM185.969 342.28H175.999V352.28H185.999L185.969 342.28ZM185.969 354.7H175.999V364.7H185.999L185.969 354.7Z" fill="#D7C8EA"/>
<path d="M162.2 352.28V367.14H147.34V339.86H162.2V352.28ZM159.76 342.28H149.76V352.28H159.76V342.28ZM159.76 354.7H149.76V364.7H159.76V354.7Z" fill="#D7C8EA"/>
<path d="M136.712 352.28V367.14H121.852V339.86H136.712V352.28ZM134.272 342.28H124.272V352.28H134.272V342.28ZM134.272 354.7H124.272V364.7H134.272V354.7Z" fill="#D7C8EA"/>
<path d="M112.712 352.28V367.14H97.8516V339.86H112.712V352.28ZM110.272 342.28H100.272V352.28H110.272V342.28ZM110.272 354.7H100.272V364.7H110.272V354.7Z" fill="#D7C8EA"/>
<path d="M386.058 156.05C386.058 156.05 383.228 194.55 340.578 190.99C340.578 190.99 355.518 229.3 366.238 236.08L420.098 270.17L432.998 209.86L386.058 156.05Z" fill="#4B4453"/>
<path d="M340.398 301L227.538 464.43L103.078 464.86V462.58C103.081 457.258 105.104 452.136 108.739 448.249C112.374 444.362 117.349 442 122.658 441.64L156.998 439.35L257.138 258.57C261.867 249.766 268.371 242.04 276.239 235.879C284.107 229.718 293.168 225.256 302.849 222.777C312.53 220.298 322.62 219.854 332.481 221.474C342.342 223.095 351.76 226.743 360.138 232.19L360.998 232.75L418.638 269.19L377.738 367.75L325.808 322.19" fill="white"/>
<path d="M722.088 396.19C711.698 425.11 692.688 429.8 670.458 428.31C658.828 413.07 645.048 392.31 633.908 376.8C620.961 358.7 607.995 340.626 595.008 322.58C591.698 317.94 588.388 313.33 585.008 308.69V378.22C585.02 381.809 584.783 385.394 584.298 388.95C520.958 443.08 430.488 375.16 418.148 365.35C417.218 364.64 416.758 364.24 416.758 364.24C410.848 321.41 417.228 289.02 418.588 264.53C420.448 231.81 426.508 221.41 431.888 211.35L434.118 205.71C438.298 197.92 438.118 195.98 438.678 195.61L438.508 194.18C438.508 194.18 440.678 191.74 440.678 191.68C452.898 171.51 462.308 154.68 482.538 142.55C475.538 147.71 470.698 160.21 478.118 167.04C486.748 174.99 498.498 165.59 505.578 160.04C514.626 153.209 522.567 145.023 529.118 135.77C531.188 132.77 533.788 129.58 533.388 125.77C548.048 125.56 560.448 130.77 575.568 139.51C594.688 150.58 609.928 167.28 620.328 186.8L722.088 396.19Z" fill="#4B4453"/>
<path d="M539.4 86.2599V86.5399C539.4 92.3749 537.082 97.9699 532.956 102.096C528.83 106.222 523.234 108.54 517.4 108.54C513.661 108.557 509.982 107.595 506.73 105.75C505.794 105.264 504.904 104.695 504.07 104.05C503.728 103.771 503.459 103.413 503.285 103.008C503.112 102.602 503.038 102.161 503.072 101.721C503.105 101.282 503.244 100.856 503.477 100.482C503.71 100.107 504.03 99.7939 504.41 99.5699C508.92 96.8499 513.16 92.8899 514.68 87.9699C515.143 86.4599 515.3 84.8719 515.14 83.2999C515.007 81.2919 514.349 79.3549 513.23 77.6819C512.112 76.0089 510.574 74.6599 508.77 73.7699C508.203 73.5549 507.612 73.4099 507.01 73.3399C505.31 73.0599 503.01 73.0899 502.49 74.3399C505.171 68.3799 505.815 61.7019 504.32 55.3399C503.389 51.3919 501.569 47.7079 499 44.5699C499.037 45.7019 498.824 46.8269 498.376 47.8669C497.928 48.9069 497.255 49.8349 496.407 50.5849C495.559 51.3349 494.555 51.8879 493.469 52.2049C492.382 52.5219 491.238 52.5959 490.12 52.4199C481.43 51.4199 480.47 42.9599 480.47 42.9599C480.47 42.9599 480.41 43.0499 480.41 43.1099C475.83 52.2699 464.73 51.6199 457.15 46.7599C454.464 45.0909 452.166 42.8679 450.41 40.2399C448.95 30.3399 457.74 21.6199 467.08 21.0299C467.79 14.8799 472.83 8.62993 478.95 8.62993C481.077 8.62393 483.166 9.18794 485.001 10.2649C486.835 11.3409 488.347 12.8899 489.38 14.7499C489.541 15.0409 489.684 15.3419 489.81 15.6499C492.59 12.2499 496.99 8.64992 501.35 8.64992C504.405 8.65392 507.383 9.60993 509.87 11.3839C512.357 13.1579 514.231 15.6629 515.23 18.5499C515.23 18.1099 519.23 16.6899 519.62 16.5499C521.244 16.0779 522.929 15.8489 524.62 15.8699C527.568 15.9469 530.449 16.7629 533 18.2429C535.551 19.7229 537.689 21.8189 539.22 24.3399C539.374 25.2179 539.447 26.1079 539.44 26.9999C539.442 29.6649 538.815 32.2929 537.61 34.6699C538.982 35.1799 540.245 35.9469 541.33 36.9299C543.662 38.9679 545.099 41.8409 545.33 44.9299C545.33 45.2399 545.33 45.5499 545.33 45.8599C545.334 48.1939 544.638 50.4759 543.33 52.4099C544.768 52.9539 546.13 53.6839 547.38 54.5799C551.105 57.2649 553.621 61.3109 554.38 65.8399C554.547 66.8309 554.631 67.8349 554.63 68.8399C554.629 73.0949 553.085 77.2049 550.285 80.4089C547.484 83.6119 543.617 85.6909 539.4 86.2599Z" fill="#9E7ACD"/>
<path d="M539.4 86.2599V86.5399C539.4 92.3749 537.082 97.9699 532.956 102.096C528.83 106.222 523.234 108.54 517.4 108.54C513.661 108.557 509.982 107.595 506.73 105.75C511.24 103.03 515.48 99.0699 517 94.1599C517.542 92.3279 517.657 90.3959 517.334 88.5129C517.012 86.6299 516.261 84.8469 515.14 83.2999C515.007 81.2919 514.349 79.3549 513.23 77.6819C512.112 76.0089 510.574 74.6599 508.77 73.7699C508.203 73.5549 507.612 73.4099 507.01 73.3399C508.095 67.2069 507.15 60.8879 504.32 55.3399C503.389 51.3919 501.569 47.7079 499 44.5699C499.037 45.7019 498.824 46.8269 498.376 47.8669C497.928 48.9069 497.255 49.8349 496.407 50.5849C495.559 51.3349 494.555 51.8879 493.469 52.2049C492.382 52.5219 491.238 52.5959 490.12 52.4199C481.43 51.4199 480.47 42.9599 480.47 42.9599C480.47 42.9599 480.41 43.0499 480.41 43.1099C475.83 52.2699 464.73 51.6199 457.15 46.7599C454.464 45.0909 452.166 42.8679 450.41 40.2399C448.95 30.3399 457.74 21.6199 467.08 21.0299C467.79 14.8799 472.83 8.62993 478.95 8.62993C481.077 8.62393 483.166 9.18794 485.001 10.2649C486.835 11.3409 488.347 12.8899 489.38 14.7499C489.541 15.0409 489.684 15.3419 489.81 15.6499C492.59 12.2499 496.99 8.64992 501.35 8.64992C504.405 8.65392 507.383 9.60993 509.87 11.3839C512.357 13.1579 514.231 15.6629 515.23 18.5499C515.23 18.1099 519.23 16.6899 519.62 16.5499C521.244 16.0779 522.929 15.8489 524.62 15.8699C527.568 15.9469 530.449 16.7629 533 18.2429C535.551 19.7229 537.689 21.8189 539.22 24.3399C539.374 25.2179 539.447 26.1079 539.44 26.9999C539.442 29.6649 538.815 32.2929 537.61 34.6699C538.982 35.1799 540.245 35.9469 541.33 36.9299C541.035 38.2949 540.564 39.6159 539.93 40.8599C542.08 41.6749 543.958 43.0789 545.35 44.9099C545.35 45.2199 545.35 45.5299 545.35 45.8399C545.354 48.1739 544.657 50.4559 543.35 52.3899C544.788 52.9339 546.15 53.6639 547.4 54.5599C547.063 55.9849 546.477 57.3389 545.67 58.5599C549.329 59.9139 552.423 62.4659 554.45 65.7999C554.617 66.7909 554.701 67.7949 554.7 68.7999C554.707 73.0719 553.157 77.2009 550.342 80.4149C547.526 83.6279 543.636 85.7059 539.4 86.2599Z" fill="#9E7ACD"/>
<path d="M482.598 669.14H340.398V666.39C340.395 660.953 342.5 655.726 346.271 651.81C350.042 647.893 355.185 645.592 360.618 645.39L394.178 644H473.418L482.598 669.14Z" fill="#9E7ACD"/>
<path d="M227.538 464.43L103.078 464.12V461.37C103.074 455.931 105.181 450.703 108.954 446.786C112.727 442.87 117.873 440.569 123.308 440.37L156.868 439L244.158 440.39L227.538 464.43Z" fill="#9E7ACD"/>
<path d="M433.52 463.72H499.52C520.312 463.663 540.375 456.054 555.976 442.309C571.577 428.564 581.653 409.619 584.33 389C584.814 385.441 585.051 381.852 585.04 378.26V308.71" stroke="#333333" stroke-width="4.01" stroke-miterlimit="10"/>
<path d="M457.491 364L418.801 365.33H418.151L393.721 365.82C388.339 365.928 382.98 366.561 377.721 367.71C334.111 377.14 306.241 420.84 315.551 464.08C316.923 470.523 319.072 476.775 321.951 482.7L394.181 644L360.621 645.36C355.188 645.562 350.044 647.863 346.273 651.78C342.502 655.696 340.397 660.923 340.401 666.36V669.11H482.601L473.421 644L407.341 463.47" stroke="#333333" stroke-width="4.01" stroke-miterlimit="10"/>
<path d="M340.399 301.04L227.539 464.43" stroke="#333333" stroke-width="4.01" stroke-miterlimit="10"/>
<path d="M377.7 367.75L325.77 322.19" stroke="#333333" stroke-width="4.01" stroke-miterlimit="10"/>
<path d="M487.031 463.66L486.691 463.35" stroke="#333333" stroke-width="4.01" stroke-miterlimit="10"/>
<path d="M360.96 232.75L327.25 163.69" stroke="#333333" stroke-width="4.01" stroke-miterlimit="10"/>
<path d="M770.7 463.47C770.7 463.53 770.76 463.56 770.79 463.63H742.25" stroke="#333333" stroke-width="4.01" stroke-miterlimit="10"/>
<path d="M441.19 463.78C441.19 463.63 441.1 463.47 441.07 463.35" stroke="#333333" stroke-width="4.01" stroke-miterlimit="10"/>
<path d="M533.398 126.68C543.995 126.397 554.513 128.56 564.138 133C586.584 143.451 605.267 160.559 617.648 182C631.288 205.79 642.328 231.46 654.448 256C669.635 286.84 684.842 317.666 700.068 348.48C707.402 363.353 714.735 378.23 722.068 393.11L737.628 424.62C740.827 429.884 745.333 434.232 750.708 437.24C756.08 440.236 762.128 441.812 768.278 441.82C774.441 441.819 780.475 443.58 785.67 446.895C790.865 450.209 795.003 454.94 797.598 460.53L798.958 463.47H761.428" stroke="#333333" stroke-width="4.01" stroke-miterlimit="10"/>
<path d="M418.812 365.35C414.402 337.07 415.332 308.6 417.562 280.16C421.562 229.33 437.022 178.4 478.472 145.52C479.542 144.67 480.622 143.83 481.742 143.05" stroke="#333333" stroke-width="4.01" stroke-miterlimit="10"/>
<path d="M521.389 194.18C520.609 224.12 546.159 254.46 546.159 254.46C546.159 254.46 546.219 254.52 546.219 254.55C559.179 272.55 572.119 290.603 585.039 308.71C588.379 313.35 591.689 317.96 595.039 322.59C608.032 340.656 620.999 358.73 633.939 376.81C644.999 392.37 655.429 408.7 667.059 424C670.059 427.92 673.119 431.76 676.339 435.5C680.449 440.3 684.689 445.77 689.699 449.64C694.709 453.51 700.519 457.12 705.699 461.2C710.039 464.842 713.754 469.169 716.699 474.01C719.919 479.51 720.259 485.73 723.009 491.23C727.829 500.95 739.739 499.34 743.819 490.06C749.479 477.19 737.109 449.36 737.109 449.36" stroke="#333333" stroke-width="4.01" stroke-miterlimit="10"/>
<path d="M900 463.63H742.25" stroke="#333333" stroke-width="4.01" stroke-miterlimit="10"/>
<path d="M418.599 269.19L360.999 232.75L360.139 232.19C351.76 226.743 342.343 223.095 332.481 221.474C322.62 219.854 312.53 220.298 302.85 222.777C293.169 225.256 284.108 229.718 276.24 235.879C268.371 242.04 261.867 249.766 257.139 258.57L156.999 439.35L122.639 441.64C117.329 442 112.354 444.362 108.72 448.249C105.085 452.136 103.062 457.258 103.059 462.58V464.86" stroke="#333333" stroke-width="4.01" stroke-miterlimit="10"/>
<path d="M312.928 109.44C317.688 110.37 319.488 110.06 322.928 110.74C323.191 110.781 323.461 110.735 323.696 110.61C323.931 110.485 324.119 110.287 324.231 110.045C324.344 109.804 324.375 109.533 324.321 109.272C324.266 109.011 324.128 108.776 323.928 108.6L312.548 97.6C309.431 94.945 307.28 91.335 306.428 87.33L306.328 86.93C306.72 85.57 307.469 84.339 308.498 83.366C309.527 82.394 310.798 81.715 312.178 81.4C314.597 81.008 317.078 81.328 319.318 82.32C323.028 83.78 328.008 85.08 332.748 86.71C339.304 89.021 344.812 93.609 348.268 99.64L348.708 100.42C362.332 124.095 377.92 146.584 395.308 167.65L432.308 213.12" stroke="#333333" stroke-width="4.01" stroke-miterlimit="10"/>
<path d="M318.839 168.35C316.718 168.35 314.653 167.67 312.947 166.41C311.241 165.15 309.984 163.377 309.359 161.35L299.839 132L291.439 104.27L280.489 68.57C280.065 67.185 279.977 65.72 280.234 64.295C280.49 62.87 281.083 61.527 281.964 60.377C282.844 59.228 283.986 58.305 285.295 57.686C286.604 57.068 288.042 56.77 289.489 56.82C291.361 56.874 293.169 57.506 294.668 58.629C296.166 59.751 297.281 61.309 297.859 63.09L312.949 109.44L328.299 155.35C328.784 156.841 328.909 158.427 328.663 159.976C328.417 161.525 327.808 162.994 326.885 164.262C325.962 165.531 324.752 166.562 323.353 167.273C321.955 167.983 320.408 168.352 318.839 168.35Z" fill="#9E7ACD"/>
<path d="M318.839 168.35C316.718 168.35 314.653 167.67 312.947 166.41C311.241 165.15 309.984 163.377 309.359 161.35L299.839 132L291.439 104.27L280.489 68.57C280.065 67.185 279.977 65.72 280.234 64.295C280.49 62.87 281.083 61.527 281.964 60.377C282.844 59.228 283.986 58.305 285.295 57.686C286.604 57.068 288.042 56.77 289.489 56.82C291.361 56.874 293.169 57.506 294.668 58.629C296.166 59.751 297.281 61.309 297.859 63.09L312.949 109.44L328.299 155.35C328.784 156.841 328.909 158.427 328.663 159.976C328.417 161.525 327.808 162.994 326.885 164.262C325.962 165.531 324.752 166.562 323.353 167.273C321.955 167.983 320.408 168.352 318.839 168.35Z" stroke="#333333" stroke-width="4.01" stroke-miterlimit="10"/>
<path d="M279.93 123.42C277.551 123.324 275.247 122.561 273.28 121.22C272.206 120.422 271.303 119.417 270.625 118.265C269.946 117.112 269.506 115.835 269.329 114.509C269.153 113.183 269.245 111.835 269.599 110.546C269.953 109.256 270.562 108.05 271.39 107C272.879 105.164 274.886 103.819 277.15 103.14C280.047 102.189 283.179 102.231 286.05 103.26C289.106 104.584 291.608 106.927 293.13 109.89" stroke="#333333" stroke-width="4.01" stroke-miterlimit="10"/>
<path d="M285.841 142.5C283.451 142.478 281.116 141.785 279.101 140.5C278.008 139.73 277.08 138.747 276.373 137.612C275.667 136.476 275.195 135.21 274.986 133.889C274.777 132.568 274.835 131.218 275.158 129.92C275.48 128.621 276.059 127.401 276.861 126.33C278.309 124.456 280.289 123.062 282.541 122.33C285.407 121.308 288.533 121.273 291.421 122.23C294.291 123.23 297.121 125.01 298.511 127.66" stroke="#333333" stroke-width="4.01" stroke-miterlimit="10"/>
<path d="M303.999 144.9C302.283 142.623 299.844 140.998 297.082 140.289C294.32 139.581 291.4 139.831 288.799 141C286.818 141.852 285.136 143.276 283.969 145.09C283.327 146.121 282.898 147.271 282.707 148.471C282.516 149.672 282.567 150.898 282.858 152.078C283.149 153.258 283.673 154.368 284.4 155.342C285.127 156.316 286.041 157.135 287.089 157.75L288.449 158.48C288.449 158.48 296.609 161.76 310.219 163.33" stroke="#333333" stroke-width="4.01" stroke-miterlimit="10"/>
<path d="M394.84 463.81C398.61 463.81 437.39 463.81 441.19 463.81C456.41 463.75 471.72 463.72 487.03 463.69C562.83 463.5 638.91 463.38 708.03 463.35" stroke="#333333" stroke-width="4.01" stroke-miterlimit="10"/>
<path d="M742.148 463.32C765.228 463.32 778.058 463.32 798.908 463.32C832.908 463.38 863.548 463.47 889.528 463.6" stroke="#333333" stroke-width="4.01" stroke-miterlimit="10"/>
<path d="M0 465.27C1.82 465.27 141.62 464.65 315.53 464.12" stroke="#333333" stroke-width="4.01" stroke-miterlimit="10"/>
<path d="M533.4 125.78C533.8 129.62 531.2 132.84 529.13 135.78C522.578 145.033 514.638 153.219 505.59 160.05C498.51 165.56 486.76 174.96 478.13 167.05C470.71 160.22 475.5 147.72 482.55 142.56L482.64 142.5" stroke="#333333" stroke-width="4.01" stroke-miterlimit="10"/>
<path d="M464.109 60.1C464.109 60.1 476.649 61.31 478.649 72.1" stroke="#333333" stroke-width="4.01" stroke-miterlimit="10"/>
<path d="M458.268 91.56C455.354 92.027 452.376 91.929 449.498 91.27C448.956 91.137 448.454 90.873 448.036 90.503C447.618 90.132 447.297 89.665 447.1 89.142C446.903 88.619 446.836 88.056 446.906 87.502C446.975 86.947 447.179 86.418 447.498 85.96C450.498 81.75 453.498 77.59 456.808 73.63C457.319 73.131 457.668 72.49 457.808 71.79C457.808 71.79 457.678 58.6 461.148 48.79" stroke="#333333" stroke-width="4.01" stroke-miterlimit="10"/>
<path d="M469.845 71.8C470.284 69.708 469.199 67.709 467.421 67.336C465.643 66.962 463.845 68.355 463.405 70.446C462.966 72.538 464.051 74.536 465.829 74.91C467.607 75.284 469.405 73.891 469.845 71.8Z" fill="#333333"/>
<path d="M533.402 126.68C528.792 113.31 526.672 106.48 526.672 106.48" stroke="#333333" stroke-width="4.01" stroke-linecap="round" stroke-linejoin="round"/>
<path d="M482.648 122.21L482.578 168.35" stroke="#333333" stroke-width="4.01" stroke-miterlimit="10"/>
<path d="M453.672 91.85C453.672 91.85 456.892 118.39 469.772 123.42C482.652 128.45 495.442 112.93 495.442 112.93" stroke="#333333" stroke-width="4.01" stroke-linecap="round" stroke-linejoin="round"/>
<path d="M456.309 103.92C457.978 105.088 459.911 105.821 461.935 106.053C463.959 106.285 466.008 106.009 467.899 105.25" stroke="#333333" stroke-width="4.01" stroke-linecap="round" stroke-linejoin="round"/>
<path d="M488.61 14.38C488.613 12.342 488.082 10.339 487.07 8.56999C485.757 6.29699 483.735 4.51697 481.313 3.50297C478.892 2.48897 476.205 2.29697 473.664 2.95597C471.123 3.61497 468.869 5.08999 467.246 7.15299C465.623 9.21699 464.722 11.755 464.68 14.38" stroke="#333333" stroke-width="4.01" stroke-miterlimit="10" stroke-linecap="round"/>
<path d="M482 32.0001C481.988 29.1131 481.272 26.274 479.912 23.727C478.553 21.181 476.592 19.0061 474.2 17.3901C462.2 9.31007 444.91 21.6501 448.34 35.5601C449.54 40.4101 453.03 44.14 457.14 46.77C464.71 51.63 475.82 52.3001 480.38 43.1301L480.45 42.9801C480.45 42.9801 481.45 51.4201 490.1 52.4401C491.219 52.6121 492.361 52.5361 493.447 52.2171C494.533 51.8991 495.535 51.3451 496.383 50.5961C497.232 49.8471 497.905 48.921 498.355 47.883C498.806 46.845 499.023 45.721 498.99 44.59C505.86 52.92 506.88 64.59 502.5 74.34C503.29 72.58 507.61 73.2701 508.78 73.7901C514 76.1001 516.34 82.6701 514.7 87.9701C513.17 92.9101 508.93 96.84 504.44 99.59C504.06 99.812 503.739 100.123 503.505 100.497C503.271 100.87 503.131 101.294 503.097 101.733C503.062 102.172 503.135 102.613 503.308 103.019C503.481 103.424 503.749 103.781 504.09 104.06C507.352 106.538 511.24 108.056 515.317 108.444C519.395 108.832 523.5 108.074 527.17 106.255C530.84 104.436 533.929 101.629 536.09 98.149C538.251 94.669 539.397 90.6561 539.4 86.5601V86.2801C543.292 85.7931 546.909 84.0161 549.673 81.2331C552.437 78.4501 554.189 74.821 554.649 70.926C555.109 67.031 554.252 63.0941 552.213 59.7431C550.174 56.3921 547.071 53.8211 543.4 52.4401C544.708 50.5061 545.405 48.2241 545.4 45.8901C545.4 42.7071 544.136 39.6551 541.886 37.4051C539.635 35.1541 536.583 33.8901 533.4 33.8901" stroke="#333333" stroke-width="4.01" stroke-linecap="round" stroke-linejoin="round"/>
<path d="M488.609 8.20993C491.299 4.49993 494.119 2.43994 499.039 2.43994C502.099 2.44294 505.082 3.40094 507.571 5.18094C510.059 6.96194 511.929 9.47493 512.919 12.3699C512.789 11.9699 516.919 10.4899 517.329 10.3699C518.954 9.90093 520.638 9.67194 522.329 9.68994C526.864 9.81594 531.175 11.6849 534.366 14.9099C537.557 18.1339 539.381 22.4649 539.459 26.9999C539.457 29.6649 538.83 32.292 537.629 34.67" stroke="#333333" stroke-width="4.01" stroke-linecap="square" stroke-linejoin="round"/>
<path d="M539.4 86.2599V86.5399C539.4 92.3749 537.082 97.9699 532.956 102.096C528.83 106.222 523.234 108.54 517.4 108.54C513.661 108.557 509.982 107.595 506.73 105.75C505.794 105.264 504.904 104.695 504.07 104.05C503.728 103.771 503.459 103.413 503.285 103.008C503.112 102.602 503.038 102.161 503.072 101.721C503.105 101.282 503.244 100.856 503.477 100.482C503.71 100.107 504.03 99.7939 504.41 99.5699C508.92 96.8499 513.16 92.8899 514.68 87.9699C515.143 86.4599 515.3 84.8719 515.14 83.2999C515.007 81.2919 514.349 79.3549 513.23 77.6819C512.112 76.0089 510.574 74.6599 508.77 73.7699C508.203 73.5549 507.612 73.4099 507.01 73.3399C505.31 73.0599 503.01 73.0899 502.49 74.3399C505.171 68.3799 505.815 61.7019 504.32 55.3399C503.389 51.3919 501.569 47.7079 499 44.5699C499.037 45.7019 498.824 46.8269 498.376 47.8669C497.928 48.9069 497.255 49.8349 496.407 50.5849C495.559 51.3349 494.555 51.8879 493.469 52.2049C492.382 52.5219 491.238 52.5959 490.12 52.4199C481.43 51.4199 480.47 42.9599 480.47 42.9599C480.47 42.9599 480.41 43.0499 480.41 43.1099C475.83 52.2699 464.73 51.6199 457.15 46.7599C454.464 45.0909 452.166 42.8679 450.41 40.2399C448.95 30.3399 457.74 21.6199 467.08 21.0299C467.79 14.8799 472.83 8.62993 478.95 8.62993C481.077 8.62393 483.166 9.18794 485.001 10.2649C486.835 11.3409 488.347 12.8899 489.38 14.7499C489.541 15.0409 489.684 15.3419 489.81 15.6499C492.59 12.2499 496.99 8.64992 501.35 8.64992C504.405 8.65392 507.383 9.60993 509.87 11.3839C512.357 13.1579 514.231 15.6629 515.23 18.5499C515.23 18.1099 519.23 16.6899 519.62 16.5499C521.244 16.0779 522.929 15.8489 524.62 15.8699C527.568 15.9469 530.449 16.7629 533 18.2429C535.551 19.7229 537.689 21.8189 539.22 24.3399C539.374 25.2179 539.447 26.1079 539.44 26.9999C539.442 29.6649 538.815 32.2929 537.61 34.6699C538.982 35.1799 540.245 35.9469 541.33 36.9299C543.662 38.9679 545.099 41.8409 545.33 44.9299C545.33 45.2399 545.33 45.5499 545.33 45.8599C545.334 48.1939 544.638 50.4759 543.33 52.4099C544.768 52.9539 546.13 53.6839 547.38 54.5799C551.105 57.2649 553.621 61.3109 554.38 65.8399C554.547 66.8309 554.631 67.8349 554.63 68.8399C554.629 73.0949 553.085 77.2049 550.285 80.4089C547.484 83.6119 543.617 85.6909 539.4 86.2599Z" fill="#9E7ACD"/>
<path d="M539.4 86.2599V86.5399C539.4 92.3749 537.082 97.9699 532.956 102.096C528.83 106.222 523.234 108.54 517.4 108.54C513.661 108.557 509.982 107.595 506.73 105.75C511.24 103.03 515.48 99.0699 517 94.1599C517.542 92.3279 517.657 90.3959 517.334 88.5129C517.012 86.6299 516.261 84.8469 515.14 83.2999C515.007 81.2919 514.349 79.3549 513.23 77.6819C512.112 76.0089 510.574 74.6599 508.77 73.7699C508.203 73.5549 507.612 73.4099 507.01 73.3399C508.095 67.2069 507.15 60.8879 504.32 55.3399C503.389 51.3919 501.569 47.7079 499 44.5699C499.037 45.7019 498.824 46.8269 498.376 47.8669C497.928 48.9069 497.255 49.8349 496.407 50.5849C495.559 51.3349 494.555 51.8879 493.469 52.2049C492.382 52.5219 491.238 52.5959 490.12 52.4199C481.43 51.4199 480.47 42.9599 480.47 42.9599C480.47 42.9599 480.41 43.0499 480.41 43.1099C475.83 52.2699 464.73 51.6199 457.15 46.7599C454.464 45.0909 452.166 42.8679 450.41 40.2399C448.95 30.3399 457.74 21.6199 467.08 21.0299C467.79 14.8799 472.83 8.62993 478.95 8.62993C481.077 8.62393 483.166 9.18794 485.001 10.2649C486.835 11.3409 488.347 12.8899 489.38 14.7499C489.541 15.0409 489.684 15.3419 489.81 15.6499C492.59 12.2499 496.99 8.64992 501.35 8.64992C504.405 8.65392 507.383 9.60993 509.87 11.3839C512.357 13.1579 514.231 15.6629 515.23 18.5499C515.23 18.1099 519.23 16.6899 519.62 16.5499C521.244 16.0779 522.929 15.8489 524.62 15.8699C527.568 15.9469 530.449 16.7629 533 18.2429C535.551 19.7229 537.689 21.8189 539.22 24.3399C539.374 25.2179 539.447 26.1079 539.44 26.9999C539.442 29.6649 538.815 32.2929 537.61 34.6699C538.982 35.1799 540.245 35.9469 541.33 36.9299C541.035 38.2949 540.564 39.6159 539.93 40.8599C542.08 41.6749 543.958 43.0789 545.35 44.9099C545.35 45.2199 545.35 45.5299 545.35 45.8399C545.354 48.1739 544.657 50.4559 543.35 52.3899C544.788 52.9339 546.15 53.6639 547.4 54.5599C547.063 55.9849 546.477 57.3389 545.67 58.5599C549.329 59.9139 552.423 62.4659 554.45 65.7999C554.617 66.7909 554.701 67.7949 554.7 68.7999C554.707 73.0719 553.157 77.2009 550.342 80.4149C547.526 83.6279 543.636 85.7059 539.4 86.2599Z" fill="#9E7ACD"/>
<path d="M464.109 60.1C464.109 60.1 476.649 61.31 478.649 72.1" stroke="#333333" stroke-width="4.01" stroke-miterlimit="10"/>
<path d="M458.268 91.56C455.354 92.027 452.376 91.929 449.498 91.27C448.956 91.137 448.454 90.873 448.036 90.503C447.618 90.132 447.297 89.665 447.1 89.142C446.903 88.619 446.836 88.056 446.906 87.502C446.975 86.947 447.179 86.418 447.498 85.96C450.498 81.75 453.498 77.59 456.808 73.63C457.319 73.131 457.668 72.49 457.808 71.79C457.808 71.79 457.678 58.6 461.148 48.79" stroke="#333333" stroke-width="4.01" stroke-miterlimit="10"/>
<path d="M469.845 71.8C470.284 69.708 469.199 67.709 467.421 67.336C465.643 66.962 463.845 68.355 463.405 70.446C462.966 72.538 464.051 74.536 465.829 74.91C467.607 75.284 469.405 73.891 469.845 71.8Z" fill="#333333"/>
<path d="M533.402 126.68C528.792 113.31 526.672 106.48 526.672 106.48" stroke="#333333" stroke-width="4.01" stroke-linecap="round" stroke-linejoin="round"/>
<path d="M482.648 122.21L482.578 168.35" stroke="#333333" stroke-width="4.01" stroke-miterlimit="10"/>
<path d="M453.672 91.85C453.672 91.85 456.892 118.39 469.772 123.42C482.652 128.45 495.442 112.93 495.442 112.93" stroke="#333333" stroke-width="4.01" stroke-linecap="round" stroke-linejoin="round"/>
<path d="M456.309 103.92C457.978 105.088 459.911 105.821 461.935 106.053C463.959 106.285 466.008 106.009 467.899 105.25" stroke="#333333" stroke-width="4.01" stroke-linecap="round" stroke-linejoin="round"/>
<path d="M488.61 14.38C488.613 12.342 488.082 10.339 487.07 8.56999C485.757 6.29699 483.735 4.51697 481.313 3.50297C478.892 2.48897 476.205 2.29697 473.664 2.95597C471.123 3.61497 468.869 5.08999 467.246 7.15299C465.623 9.21699 464.722 11.755 464.68 14.38" stroke="#333333" stroke-width="4.01" stroke-miterlimit="10" stroke-linecap="round"/>
<path d="M482 32.0001C481.988 29.1131 481.272 26.274 479.912 23.727C478.553 21.181 476.592 19.0061 474.2 17.3901C462.2 9.31007 444.91 21.6501 448.34 35.5601C449.54 40.4101 453.03 44.14 457.14 46.77C464.71 51.63 475.82 52.3001 480.38 43.1301L480.45 42.9801C480.45 42.9801 481.45 51.4201 490.1 52.4401C491.219 52.6121 492.361 52.5361 493.447 52.2171C494.533 51.8991 495.535 51.3451 496.383 50.5961C497.232 49.8471 497.905 48.921 498.355 47.883C498.806 46.845 499.023 45.721 498.99 44.59C505.86 52.92 506.88 64.59 502.5 74.34C503.29 72.58 507.61 73.2701 508.78 73.7901C514 76.1001 516.34 82.6701 514.7 87.9701C513.17 92.9101 508.93 96.84 504.44 99.59C504.06 99.812 503.739 100.123 503.505 100.497C503.271 100.87 503.131 101.294 503.097 101.733C503.062 102.172 503.135 102.613 503.308 103.019C503.481 103.424 503.749 103.781 504.09 104.06C507.352 106.538 511.24 108.056 515.317 108.444C519.395 108.832 523.5 108.074 527.17 106.255C530.84 104.436 533.929 101.629 536.09 98.149C538.251 94.669 539.397 90.6561 539.4 86.5601V86.2801C543.292 85.7931 546.909 84.0161 549.673 81.2331C552.437 78.4501 554.189 74.821 554.649 70.926C555.109 67.031 554.252 63.0941 552.213 59.7431C550.174 56.3921 547.071 53.8211 543.4 52.4401C544.708 50.5061 545.405 48.2241 545.4 45.8901C545.4 42.7071 544.136 39.6551 541.886 37.4051C539.635 35.1541 536.583 33.8901 533.4 33.8901" stroke="#333333" stroke-width="4.01" stroke-linecap="round" stroke-linejoin="round"/>
<path d="M488.609 8.20993C491.299 4.49993 494.119 2.43994 499.039 2.43994C502.099 2.44294 505.082 3.40094 507.571 5.18094C510.059 6.96194 511.929 9.47493 512.919 12.3699C512.789 11.9699 516.919 10.4899 517.329 10.3699C518.954 9.90093 520.638 9.67194 522.329 9.68994C526.864 9.81594 531.175 11.6849 534.366 14.9099C537.557 18.1339 539.381 22.4649 539.459 26.9999C539.457 29.6649 538.83 32.292 537.629 34.67" stroke="#333333" stroke-width="4.01" stroke-linecap="square" stroke-linejoin="round"/>
</svg>
