<svg width="718" height="905" viewBox="0 0 718 905" fill="none" xmlns="http://www.w3.org/2000/svg">
<path d="M503.059 434.3C435.889 474.3 353.949 427.17 357.799 426.35C484.779 398.74 495.999 318.63 495.999 318.63C470.649 256.69 401.549 276.63 401.549 276.63C399.549 364.53 294.929 369.48 294.929 369.48C288.209 340.96 288.579 274.37 288.579 274.37C256.869 252.2 250.449 261.61 250.449 261.61C260.449 173.61 300.719 145.24 300.719 145.24C307.429 138.99 337.419 124.94 352.819 123.12L353.369 125.56C353.369 125.56 337.799 164.44 367.639 167C392.749 169.2 407.019 138.29 410.909 128.48C443.559 138.6 474.719 161.25 495.449 199.35C544.489 289.49 503.059 434.3 503.059 434.3Z" fill="#2E2E2E"/>
<path d="M510.32 396.37L673.53 504.37C705.18 525.31 701.11 572.97 666.4 588.24L475.4 672.3C457.637 680.116 438.161 683.228 418.847 681.339C399.533 679.449 381.031 672.62 365.12 661.51L291.77 610.23" stroke="black" stroke-width="4.21" stroke-miterlimit="10"/>
<path d="M510.321 431.2L504.831 427.56L673.561 539.18C705.211 560.12 701.141 607.78 666.431 623.05L475.431 707.11C457.668 714.925 438.192 718.038 418.878 716.148C399.564 714.258 381.062 707.43 365.151 696.32L271.891 629.9" stroke="black" stroke-width="4.21" stroke-miterlimit="10"/>
<path d="M652.35 582.28L476.8 659.55C460.474 666.73 442.576 669.59 424.827 667.852C407.077 666.115 390.073 659.84 375.45 649.63L308.18 602.37C317.442 595.272 327.82 589.763 338.89 586.07C366.62 576.651 393.681 565.369 419.89 552.3C439.785 542.458 457.26 528.344 471.069 510.966C484.877 493.587 494.678 473.374 499.77 451.77C503.29 436.82 506.38 421.7 508.91 406.5L663.41 508.63C692.49 527.87 684.24 568.26 652.35 582.28Z" fill="#9B8CC0"/>
<path d="M200.001 806.22C200.001 806.22 230.781 793.46 236.681 783.84C236.681 783.84 237.791 805.68 232.031 813.14C226.271 820.6 191.851 840.32 190.001 837.85C188.151 835.38 200.001 806.22 200.001 806.22Z" fill="#9B8CC0"/>
<path d="M105.252 858.26C105.252 858.26 110.852 865.86 130.722 858.26C150.592 850.66 193.822 822.67 193.822 822.67C193.822 822.67 181.762 855.05 177.392 858.61C173.022 862.17 90.462 902.61 90.462 902.61C90.462 902.61 53.552 907.86 67.462 881.61L105.252 858.26Z" fill="#9B8CC0"/>
<path d="M224.071 435.18C178.571 452.89 130.421 494.5 144.271 609.73L148.121 639.67" stroke="black" stroke-width="4.21" stroke-miterlimit="10"/>
<path d="M224 359.93C231.44 349.31 238.16 337.83 242.28 325.47C246.4 313.11 246.61 299.72 247.76 286.72C250.82 251.86 255.56 223.03 269.01 190.56C280.66 162.46 315.85 126.26 350.86 122.83L354.01 122.56" stroke="black" stroke-width="4.21" stroke-miterlimit="10"/>
<path d="M312 432.63C311.83 432.14 311.66 431.68 311.48 431.2" stroke="black" stroke-width="4.21" stroke-miterlimit="10"/>
<path d="M294.928 367.32C293.208 357.21 291.928 347.41 290.928 338.11C290.931 337.935 290.911 337.76 290.868 337.59C285.628 285.66 290.928 247.88 290.928 247.88" stroke="black" stroke-width="4.21" stroke-miterlimit="10"/>
<path d="M417.239 52.1396L409.239 55.26C409.239 55.51 409.239 58.63 408.899 63C408.527 68.219 407.697 73.396 406.419 78.47C407.129 75.01 408.159 66.79 403.639 61.07C403.569 60.953 403.488 60.842 403.399 60.74C400.399 57.13 396.699 58.56 393.729 61.04C391.678 62.775 389.886 64.796 388.409 67.04C388.927 60.359 387.729 53.657 384.929 47.5696C383.103 43.4169 380.68 39.5529 377.739 36.0996C382.269 51.6996 376.459 61.91 376.459 61.91C361.109 65.52 350.459 64.75 342.519 63.38C335.829 57.14 338.149 34.6696 338.149 34.6696C331.419 40.1696 333.039 61.45 333.039 61.45C332.179 55.897 332.284 50.2369 333.349 44.7196C330.006 49.4472 328.074 55.027 327.779 60.81L327.659 60.75C327.195 60.631 326.738 60.487 326.289 60.32C325.465 59.886 324.667 59.406 323.899 58.88L319.469 55.88C326.159 21.7496 349.549 0.289592 385.689 6.58959C388.048 6.99619 390.369 7.59819 392.629 8.38959C416.439 20.7996 417.239 52.1396 417.239 52.1396Z" fill="#9B8CC0"/>
<path d="M211 384.54L201.89 357.12C201.689 356.482 201.328 355.905 200.841 355.445C200.355 354.985 199.759 354.656 199.11 354.49C199.03 354.49 198.94 354.49 198.85 354.43C198.76 354.37 198.74 354.43 198.68 354.43C198.471 354.416 198.26 354.416 198.05 354.43C197.04 354.433 196.068 354.819 195.33 355.51C194.591 356.193 194 357.022 193.596 357.945C193.191 358.867 192.982 359.863 192.98 360.87C192.981 361.658 193.106 362.441 193.35 363.19C195.35 368.98 198.91 379.43 200.6 384.19" fill="#9B8CC0"/>
<path d="M208.94 384.54L199.12 354.49C199.04 354.49 198.95 354.49 198.86 354.43C198.77 354.37 198.75 354.43 198.69 354.43L193.54 353.43C190.79 352.92 188.04 352.37 185.29 351.86C181.99 351.2 178.67 350.65 175.38 349.86C174.603 349.64 173.805 349.506 173 349.46C171.986 349.457 171.011 349.848 170.28 350.55C169.534 351.233 168.939 352.064 168.534 352.991C168.129 353.917 167.924 354.919 167.93 355.93C167.925 356.709 168.05 357.483 168.3 358.22C170.51 364.7 174.72 376.96 176.06 380.68L208.94 384.54Z" fill="#9B8CC0"/>
<path d="M403.1 247.87C402.1 259 401.58 272.47 401.23 289.4C401.23 325.4 361.431 355.21 326.061 362.03L261.201 376.68C252.631 378.34 245.04 372.99 239.08 369.44C232.95 365.79 226.67 361.44 222.25 358.21C215.89 353.56 203.64 357.3 206.15 368.39C206.691 370.499 207.712 372.454 209.133 374.104C210.553 375.753 212.335 377.053 214.34 377.9C215.47 378.407 216.632 378.834 217.821 379.18C218.263 379.291 218.657 379.545 218.94 379.903C219.223 380.26 219.381 380.701 219.387 381.157C219.394 381.613 219.25 382.059 218.978 382.425C218.705 382.791 218.319 383.056 217.881 383.18C212.261 385.12 201.97 386.27 185.37 380.18C164.1 372.35 162.451 420.89 191.531 429.34H191.641C218.431 437.44 247.261 436.4 274.951 435.24C306.394 434.049 337.683 430.232 368.49 423.83C384.16 420.51 400.26 417.06 414.6 409.97C439.3 397.76 457.101 383.76 474.031 361.97C493.031 337.54 501.14 305.49 505.72 275.44C510.96 241.06 503.72 212.03 485.29 182.44L484.61 181.36" stroke="black" stroke-width="4.21" stroke-miterlimit="10"/>
<path d="M211 384.54L201.89 357.12C201.689 356.482 201.328 355.905 200.841 355.445C200.355 354.985 199.759 354.656 199.11 354.49C199.03 354.49 198.94 354.49 198.85 354.43C198.76 354.37 198.74 354.43 198.68 354.43C198.471 354.416 198.26 354.416 198.05 354.43C197.04 354.433 196.068 354.819 195.33 355.51C194.591 356.193 194 357.022 193.596 357.945C193.191 358.867 192.982 359.863 192.98 360.87C192.981 361.658 193.106 362.441 193.35 363.19C195.35 368.98 198.91 379.43 200.6 384.19" stroke="black" stroke-width="4.21" stroke-miterlimit="10"/>
<path d="M199.12 354.49C199.04 354.49 198.95 354.49 198.86 354.43C198.77 354.37 198.75 354.43 198.69 354.43L193.54 353.43C190.79 352.92 188.04 352.37 185.29 351.86C181.99 351.2 178.67 350.65 175.38 349.86C174.603 349.64 173.805 349.506 173 349.46C171.986 349.457 171.011 349.848 170.28 350.55C169.534 351.233 168.939 352.064 168.534 352.991C168.129 353.917 167.924 354.919 167.93 355.93C167.925 356.709 168.05 357.483 168.3 358.22C170.51 364.7 174.72 376.96 176.06 380.68" stroke="black" stroke-width="4.21" stroke-miterlimit="10"/>
<path d="M324.672 59.8301C324.672 72.8301 327.202 85.2601 333.442 96.7401C338.442 105.96 345.782 115.25 356.282 118.3C358.609 118.971 361.02 119.308 363.442 119.3C381.262 119.22 384.042 98.1101 384.042 98.1101" stroke="black" stroke-width="4.21" stroke-miterlimit="10"/>
<path d="M408.299 67.3701V67.4301C407.473 73.8801 406.053 80.2411 404.059 86.4301C401.676 93.8131 401.113 101.663 402.419 109.31L405.189 125.42C405.315 126.138 405.641 126.806 406.129 127.347C406.617 127.888 407.248 128.281 407.949 128.48C443.109 138.69 474.319 161.22 492.479 193.75C515.129 234.37 519.259 283.29 517.429 328.89C515.819 368.42 509.429 407.72 500.359 446.19C494.814 469.702 484.147 491.7 469.118 510.613C454.089 529.526 435.07 544.887 413.419 555.6C384.927 569.827 355.502 582.105 325.349 592.35C309.386 597.636 294.803 606.413 282.658 618.043C270.513 629.672 261.112 643.862 255.139 659.58L184.279 848C181.674 854.956 176.538 860.671 169.899 864L101.999 898.11C93.4241 902.402 83.6431 903.643 74.2691 901.63C71.8381 901.106 69.6221 899.861 67.9081 898.059C66.1951 896.257 65.0641 893.981 64.6621 891.527C64.2611 889.073 64.6081 886.555 65.6581 884.301C66.7081 882.047 68.4121 880.162 70.5491 878.89L105.229 858.26L152.919 615.14C156.275 593.45 164.288 572.745 176.408 554.446C188.528 536.148 204.467 520.692 223.129 509.14C225.617 507.623 228.21 506.287 230.889 505.14L334.269 460.25" stroke="black" stroke-width="4.21" stroke-miterlimit="10"/>
<path d="M379.879 4.2405C374.352 2.9232 368.63 2.6317 362.999 3.3805C362.768 3.3856 362.537 3.4056 362.309 3.4405" stroke="black" stroke-width="4.21" stroke-miterlimit="10"/>
<path d="M354.84 123.15C354.84 123.15 336.55 165.08 369.26 167.15C398.61 169.03 409.38 129.15 409.38 129.15" stroke="black" stroke-width="4.21" stroke-miterlimit="10"/>
<path d="M406 80C406.21 79.23 409.36 67.86 403.34 60.7C397.32 53.54 389.16 65.82 388.34 67.05C389.94 49.4204 377.69 36.0504 377.69 36.0504C382.21 51.6604 376.39 61.86 376.39 61.86C354.02 67.1 341.71 63.11 332.98 61.39C332.121 55.84 332.23 50.1836 333.3 44.6704C329.948 49.386 328.015 54.962 327.73 60.74H327.59C324.267 59.857 321.116 58.42 318.27 56.49L313.84 53.49C320.54 19.3704 343.92 -2.10959 380.06 4.19041C416.2 10.4904 417.21 52.0504 417.21 52.0504L409.16 55.18C409.16 55.18 409.23 68.9 406 80Z" stroke="black" stroke-width="4.21" stroke-miterlimit="10"/>
<path d="M338.691 78.2202V94.8102C338.693 95.0122 338.742 95.2112 338.834 95.3902C338.927 95.5702 339.06 95.7252 339.223 95.8442C339.387 95.9632 339.576 96.0412 339.775 96.0742C339.975 96.1062 340.179 96.0912 340.371 96.0302C341.676 95.5982 342.876 94.8962 343.891 93.9702" stroke="black" stroke-width="4.21" stroke-miterlimit="10"/>
<path d="M328.768 90.8141C334.001 88.7741 335.943 81.2221 333.107 73.9461C330.27 66.6701 323.728 62.4261 318.495 64.4661C313.262 66.5061 311.319 74.0581 314.156 81.3341C316.993 88.6101 323.535 92.8541 328.768 90.8141Z" stroke="black" stroke-width="4.21" stroke-miterlimit="10"/>
<path d="M360.26 95.5578C365.493 93.5178 367.435 85.9658 364.599 78.6898C361.762 71.4138 355.22 67.1698 349.987 69.2098C344.754 71.2498 342.811 78.8028 345.648 86.0778C348.485 93.3538 355.027 97.5988 360.26 95.5578Z" stroke="black" stroke-width="4.21" stroke-miterlimit="10"/>
<path d="M334.289 79.0799C334.289 79.0799 337.389 75.5399 343.889 79.6899" stroke="black" stroke-width="4.21" stroke-miterlimit="10"/>
<path d="M353.371 117.25C353.371 117.25 355.621 124.87 362.241 149.57" stroke="black" stroke-width="4.21" stroke-miterlimit="10"/>
<path d="M187.629 839.099L226.629 818.049C228.864 816.838 230.769 815.098 232.179 812.983C233.589 810.867 234.461 808.439 234.719 805.909C241.199 742.259 239.219 702.02 239.219 702.02" stroke="black" stroke-width="4.21" stroke-miterlimit="10"/>
<path d="M152.231 512.68L2.14111 407.79" stroke="black" stroke-width="4.21" stroke-miterlimit="10"/>
<path d="M143.731 541.58L2.14111 442.62" stroke="black" stroke-width="4.21" stroke-miterlimit="10"/>
<path d="M717.86 342.21V428.08C717.86 432.017 716.716 435.87 714.568 439.17C712.42 442.47 709.36 445.076 705.76 446.67L599.26 493.83L566.7 543.31C565.862 544.537 564.656 545.465 563.255 545.961C561.855 546.457 560.332 546.494 558.909 546.068C557.486 545.641 556.236 544.773 555.339 543.589C554.442 542.404 553.945 540.965 553.92 539.48V513.92L543 518.75C540.571 519.812 537.916 520.254 535.274 520.036C532.633 519.818 530.086 518.947 527.864 517.501C525.642 516.056 523.814 514.081 522.544 511.754C521.275 509.427 520.603 506.821 520.59 504.17V432.46C520.591 423.516 523.208 414.767 528.117 407.291C533.026 399.814 540.013 393.936 548.22 390.38L694.58 326.93C697.114 325.83 699.882 325.377 702.634 325.614C705.386 325.85 708.037 326.767 710.346 328.283C712.655 329.799 714.551 331.866 715.863 334.297C717.175 336.728 717.861 339.447 717.86 342.21Z" fill="#D4CEE4"/>
<path d="M587.216 454.445C592.462 444.325 591.042 433.181 584.045 429.554C577.048 425.927 567.123 431.191 561.877 441.311C556.632 451.432 558.051 462.576 565.048 466.203C572.045 469.83 581.97 464.566 587.216 454.445Z" fill="white"/>
<path d="M632.7 434.978C637.946 424.857 636.526 413.713 629.529 410.086C622.532 406.459 612.608 411.723 607.362 421.843C602.116 431.964 603.535 443.108 610.532 446.735C617.529 450.362 627.454 445.098 632.7 434.978Z" fill="white"/>
<path d="M676.653 413.955C681.899 403.835 680.48 392.69 673.483 389.064C666.486 385.437 656.561 390.701 651.315 400.821C646.069 410.941 647.489 422.086 654.486 425.713C661.483 429.339 671.407 424.075 676.653 413.955Z" fill="white"/>
</svg>
