<svg width="1189" height="963" viewBox="0 0 1189 963" fill="none" xmlns="http://www.w3.org/2000/svg">
<path d="M298.722 218.221L293.742 232.091" stroke="#D7C8EA" stroke-width="3.69" stroke-miterlimit="10"/>
<path d="M284.279 258.41L252.359 347.25" stroke="#D7C8EA" stroke-width="3.69" stroke-miterlimit="10" stroke-dasharray="25.64 27.97 27.97 25.64"/>
<path d="M248.022 359.311L31.6719 961.391" stroke="#D7C8EA" stroke-width="3.69" stroke-miterlimit="10" stroke-dasharray="27.97 27.97 25.64 27.97 27.97 25.64"/>
<path d="M289.182 131.9L284.102 145.75" stroke="#D7C8EA" stroke-width="3.69" stroke-miterlimit="10"/>
<path d="M273.921 173.55L239.531 267.38" stroke="#D7C8EA" stroke-width="3.69" stroke-miterlimit="10" stroke-dasharray="27.14 29.61 29.61 27.14"/>
<path d="M234.861 280.12L1.80078 916.06" stroke="#D7C8EA" stroke-width="3.69" stroke-miterlimit="10" stroke-dasharray="29.61 29.61 27.14 29.61 29.61 27.14"/>
<path d="M279.629 45.5898L274.539 59.4298" stroke="#D7C8EA" stroke-width="3.69" stroke-miterlimit="10"/>
<path d="M263.642 89.0801L226.832 189.16" stroke="#D7C8EA" stroke-width="3.69" stroke-miterlimit="10" stroke-dasharray="28.96 31.6 31.6 28.96"/>
<path d="M254.851 1.24023L220.391 96.11" stroke="#D7C8EA" stroke-width="3.69" stroke-miterlimit="10" stroke-dasharray="27.41 29.9 29.9 27.41"/>
<path d="M720.142 554.32C719.882 554.9 719.662 555.48 719.412 556.09C700.412 602.26 687.202 657.57 684.122 723.73C631.442 594.69 544.002 532.22 466.172 502.22C467.562 459.1 473.562 384.11 498.062 338.04C498.062 338.04 539.512 347.73 591.682 388.61C632.842 420.85 680.722 472.57 720.142 554.32Z" fill="#9E7ACD"/>
<path d="M727.911 553.62L726.141 553.22C726.391 552.6 726.611 552.01 726.861 551.42C727.211 552.14 727.561 552.9 727.911 553.62Z" fill="#9E7ACD"/>
<path d="M727.911 553.62L726.141 553.22C726.391 552.6 726.611 552.01 726.861 551.42C727.211 552.14 727.561 552.9 727.911 553.62Z" fill="#9E7ACD"/>
<path d="M693.838 849.83C693.338 849.83 692.838 849.83 692.328 849.83C495.758 849.83 332.928 700.83 303.748 506.26C301.748 489.65 301.488 479.74 301.488 479.74C301.488 479.74 372.398 472.55 454.658 504.91C527.588 533.62 609.438 593.39 658.768 716.91V717C659.068 717.73 659.368 718.47 659.628 719.24C674.378 756.6 686.108 799.77 693.778 849.59C693.808 849.64 693.838 849.74 693.838 849.83Z" fill="#9E7ACD"/>
<path d="M1151.41 485.69C1132.62 706.13 953.82 879.19 735.77 880.07C735.9 870.07 739.03 756.91 807.32 654.33C837.863 608.045 878.881 569.607 927.05 542.13C928.42 541.35 929.75 540.6 931.14 539.84C932.82 538.84 934.53 537.98 936.24 537.06C936.68 536.8 937.16 536.57 937.64 536.31C939.31 535.43 940.99 534.54 942.7 533.69C943.59 533.23 944.48 532.78 945.39 532.35C947.23 531.35 949.1 530.48 950.97 529.6C952.84 528.72 954.49 527.93 956.26 527.11C956.48 527.02 956.67 526.92 956.89 526.82C958.22 526.2 959.55 525.61 960.89 525.02C962.56 524.24 964.24 523.51 965.95 522.8C970.95 520.64 976.06 518.57 981.29 516.61L983.09 515.92C985.31 515.07 987.52 514.26 989.77 513.47C1035.1 497.4 1088.5 487.26 1151.41 485.69Z" fill="#9E7ACD"/>
<path d="M854.671 383.44C810.141 417.17 759.961 470.34 726.861 551.44C687.521 468.07 639.731 415.33 598.641 382.44C622.911 337.19 677.891 245.28 727.911 202.28C727.911 202.26 803.581 277.06 854.671 383.44Z" fill="#9E7ACD"/>
<path d="M985.381 504.88C983.171 505.65 981.001 506.45 978.821 507.28L977.051 507.96C971.921 509.88 966.891 511.91 962.051 514.02C960.371 514.73 958.731 515.44 957.051 516.21C955.721 516.79 954.411 517.36 953.111 517.97L952.481 518.26C950.741 519.06 949.001 519.87 947.301 520.7C945.601 521.53 943.631 522.47 941.831 523.4C940.931 523.81 940.061 524.26 939.191 524.71C937.511 525.55 935.861 526.41 934.191 527.28C933.721 527.54 933.251 527.76 932.821 528.02C931.141 528.92 929.461 529.82 927.821 530.75C926.451 531.48 925.141 532.22 923.821 532.99C876.57 559.938 836.335 597.644 806.381 643.05C739.381 743.67 736.321 854.65 736.201 864.48L736.041 864.19C728.041 812.1 715.751 766.97 700.341 727.91L701.551 723.91L699.441 725.55C699.441 725.55 699.441 725.55 699.441 725.48C702.441 659.3 715.441 603.97 733.991 557.78L735.731 558.17C735.391 557.46 735.051 556.72 734.731 556.02C767.141 476.5 816.361 424.35 860.001 391.26C911.481 352.26 955.391 339.68 955.391 339.68C978.911 368.63 984.261 457.18 985.381 504.88Z" fill="#9E7ACD"/>
<path d="M688.859 735.25V735.14C688.859 735.14 688.859 735.22 688.859 735.25Z" stroke="#D7C8EA" stroke-width="4.82" stroke-miterlimit="10"/>
<path d="M726.849 552.43C726.579 553.05 726.349 553.67 726.079 554.33C706.079 604.14 692.079 663.81 688.819 735.18C633.199 596 540.919 528.58 458.699 496.22C460.169 449.7 466.509 368.81 492.369 319.1C492.369 319.1 536.129 329.55 591.219 373.65C634.669 408.44 685.239 464.23 726.849 552.43Z" stroke="#D7C8EA" stroke-width="4.82" stroke-miterlimit="10"/>
<path d="M728.001 554.75L726.121 554.33C726.391 553.67 726.621 553.05 726.891 552.43C727.221 553.19 727.591 554 728.001 554.75Z" stroke="#D7C8EA" stroke-width="4.82" stroke-miterlimit="10"/>
<path d="M688.859 735.25V735.14C688.859 735.14 688.859 735.22 688.859 735.25Z" stroke="#D7C8EA" stroke-width="4.82" stroke-miterlimit="10"/>
<path d="M728.001 554.75L726.121 554.33C726.391 553.67 726.621 553.05 726.891 552.43C727.221 553.19 727.591 554 728.001 554.75Z" stroke="#D7C8EA" stroke-width="4.82" stroke-miterlimit="10"/>
<path opacity="0.9" d="M387.849 720.65C384.219 716.22 380.649 711.65 377.219 707.08C331.001 645.593 300.557 573.717 288.549 497.74C285.599 479.12 285.999 467.84 285.999 467.84C285.999 467.84 365.919 459.74 458.679 496.22C540.889 528.58 633.169 595.98 688.789 735.22V735.32C689.139 736.15 689.489 736.98 689.789 737.84C706.439 779.97 719.659 828.63 728.319 884.84C728.319 884.94 728.319 885.05 728.319 885.15C727.729 885.15 727.179 885.15 726.589 885.15C611.849 884.97 507.249 839.28 428.439 764.56C420.199 756.77 412.199 748.63 404.549 740.22" stroke="#D7C8EA" stroke-width="4.82" stroke-miterlimit="10"/>
<path d="M688.859 735.25V735.14C688.859 735.14 688.859 735.22 688.859 735.25Z" stroke="#D7C8EA" stroke-width="4.82" stroke-miterlimit="10"/>
<path opacity="0.9" d="M1168.16 467.87C1148.29 701.05 959.158 884.12 728.488 885.06C728.628 874.46 731.938 754.77 804.178 646.26C836.486 597.294 879.879 556.632 930.838 527.57C932.278 526.74 933.688 525.95 935.158 525.15C936.938 524.15 938.748 523.15 940.548 522.21C941.018 521.93 941.548 521.69 942.028 521.41C943.808 520.48 945.578 519.54 947.388 518.64C948.328 518.16 949.268 517.64 950.238 517.23C952.178 516.23 954.158 515.23 956.138 514.32C958.118 513.41 959.858 512.55 961.728 511.69L962.398 511.38C963.808 510.72 965.218 510.1 966.658 509.47C968.428 508.64 970.208 507.88 972.018 507.12C977.278 504.83 982.708 502.65 988.238 500.58L990.148 499.85C992.488 498.95 994.842 498.083 997.208 497.25C1045.13 480.26 1101.62 469.53 1168.16 467.87Z" stroke="#D7C8EA" stroke-width="4.82" stroke-miterlimit="10"/>
<path d="M862.049 374.72C814.939 410.41 761.869 466.66 726.849 552.43C685.239 464.23 634.669 408.43 591.219 373.65C616.879 325.78 675.049 228.55 727.959 183.07C727.999 183.07 807.999 262.2 862.049 374.72Z" stroke="#D7C8EA" stroke-width="4.82" stroke-miterlimit="10"/>
<path d="M418.43 629.47C418.443 629.401 418.443 629.33 418.43 629.26C418.43 629.19 418.43 629.13 418.43 628.99C418.414 628.878 418.414 628.763 418.43 628.65C418.454 628.893 418.497 629.134 418.56 629.37C418.547 629.395 418.528 629.417 418.506 629.434C418.483 629.452 418.458 629.464 418.43 629.47Z" fill="white"/>
<path d="M418.81 695.93C417.221 701.046 415.194 706.014 412.75 710.78C412.06 712.13 411.37 713.44 410.61 714.78C408.018 719.656 404.83 724.19 401.12 728.28C400.46 728.07 399.81 727.8 399.22 727.55C399.08 727.55 398.98 727.45 398.87 727.42C386.87 722.19 377.87 712.42 375.2 701.42C372.81 691.73 374.95 681.24 370.35 672.13C364.71 660.92 349.41 653.89 347.51 641.23C345.78 629.39 356.44 618.52 354.71 606.92C352.71 593.81 336.6 586.02 333.63 573.21C331.72 565.21 333.42 556.08 332.73 547.87C331.935 538.701 330.383 529.613 328.09 520.7C329.2 520.63 330.3 520.6 331.41 520.57C354.08 520.18 376.41 532.92 383.75 550.82C389.66 565.29 386.65 582 394.51 595.57C394.98 596.45 395.511 597.295 396.1 598.1C397.131 599.523 398.243 600.885 399.43 602.18L401.92 604.78C402.33 605.19 402.78 605.57 403.2 606.02C403.62 606.47 404.06 606.86 404.48 607.31C408.39 611.04 412.37 614.82 414.97 619.31C415.202 619.7 415.409 620.104 415.59 620.52C415.83 620.93 416.038 621.358 416.21 621.8C416.433 622.252 416.63 622.716 416.8 623.19C417.01 623.71 417.18 624.26 417.35 624.78C417.6 625.61 417.84 626.41 418.01 627.24C418.01 627.45 418.01 627.62 418.08 627.79C418.15 627.96 418.08 627.93 418.08 628C418.094 628.069 418.094 628.141 418.08 628.21C418.08 628.35 418.08 628.45 418.15 628.55V628.62C418.155 628.75 418.179 628.878 418.22 629C418.22 629.14 418.22 629.2 418.22 629.27C418.233 629.34 418.233 629.411 418.22 629.48V629.55L415.55 668.18C417.25 677.51 421.51 686.83 418.81 695.93Z" fill="white"/>
<path d="M438.92 602.16C440.65 593.78 440.79 584.99 444.73 576.99C452.07 562.25 473.53 551.55 496 550.86H496.41C498.41 550.86 500.53 550.86 502.61 550.97C500.286 558.636 498.696 566.504 497.86 574.47C497.1 581.56 498.86 589.47 496.93 596.31C493.78 607.38 476.99 614.1 474.93 625.42C473.13 635.42 484.24 644.84 482.41 655.05C480.41 665.98 464.51 672.05 458.63 681.73C453.89 689.59 456.1 698.62 453.63 706.97C450.76 716.48 441.35 724.97 428.85 729.43C428.06 729.71 427.33 729.98 426.53 730.22C426.11 730.33 425.63 730.5 425.21 730.61C425.07 730.5 424.94 730.36 424.76 730.22C420.76 726.79 416.24 721.01 412.5 714.82L412.78 710.88C415.224 706.114 417.251 701.146 418.84 696.03C421.54 686.93 417.28 677.61 415.72 668.27L418.39 629.64L419.22 628.95C419.522 628.726 419.809 628.482 420.08 628.22C424.2 624.9 428.63 621.72 431.82 617.94C435.76 613.3 437.6 608.22 438.82 602.94" fill="white"/>
<path d="M438.82 602.72C438.82 602.54 438.88 602.37 438.92 602.16L438.82 602.72Z" fill="white"/>
<path d="M438.919 602.13C438.919 602.34 438.849 602.51 438.819 602.69C437.639 608.02 435.819 613.1 431.819 617.69C428.629 621.47 424.199 624.69 420.079 627.97C419.811 628.235 419.524 628.479 419.219 628.7L418.389 629.43C418.406 629.385 418.406 629.335 418.389 629.29C418.389 629.15 418.319 629.05 418.289 628.95C418.273 628.838 418.273 628.723 418.289 628.61V628.54C418.289 628.44 418.289 628.34 418.219 628.2C418.234 628.131 418.234 628.06 418.219 627.99C418.234 627.957 418.241 627.921 418.241 627.885C418.241 627.849 418.234 627.813 418.219 627.78C418.193 627.595 418.156 627.411 418.109 627.23C417.939 626.4 417.699 625.6 417.449 624.77C417.279 624.25 417.109 623.7 416.899 623.18C416.729 622.706 416.532 622.242 416.309 621.79C416.158 621.339 415.95 620.909 415.689 620.51C415.508 620.094 415.301 619.69 415.069 619.3C412.469 614.84 408.489 611.06 404.579 607.3C404.159 606.85 403.709 606.4 403.299 606.01C402.889 605.62 402.429 605.18 402.019 604.77L399.529 602.17C398.342 600.875 397.23 599.513 396.199 598.09C396.199 598.09 398.629 558.09 419.079 546C438.299 534.49 438.919 595.38 438.919 602.13Z" fill="white"/>
<path d="M438.82 602.72C438.82 602.54 438.88 602.37 438.92 602.16L438.82 602.72Z" fill="white"/>
<path d="M418.391 629.33V629.51C418.404 629.441 418.404 629.37 418.391 629.3C418.391 629.23 418.391 629.17 418.391 629.03C418.375 628.918 418.375 628.803 418.391 628.69C418.376 628.903 418.376 629.117 418.391 629.33Z" fill="white"/>
<path d="M487.629 563.67C450.759 603.35 433.419 687 426.679 730.19C426.129 733.83 425.629 737.19 425.199 740.19" fill="white"/>
<path d="M491 764.49L474 864.57C473.596 867.308 472.236 869.815 470.16 871.645C468.084 873.476 465.427 874.512 462.66 874.57H374.1C371.302 874.51 368.619 873.451 366.535 871.583C364.451 869.716 363.105 867.164 362.74 864.39L347.09 764.47L491 764.49Z" fill="white"/>
<path d="M507.15 753.32C506.995 756.285 505.727 759.083 503.598 761.153C501.47 763.224 498.639 764.416 495.67 764.49H342.75C339.811 764.419 337.003 763.251 334.881 761.215C332.759 759.18 331.474 756.424 331.28 753.49C330.63 746.35 335.95 740.18 342.75 740.18H495.67C502.39 740.19 507.69 746.25 507.15 753.32Z" fill="white"/>
<path d="M418.501 629.54C418.498 629.315 418.461 629.093 418.391 628.88L418.501 629.54Z" fill="white"/>
<path d="M342.719 535.39C378.109 581.39 394.719 678.27 401.269 728.3C401.829 732.64 402.329 736.61 402.719 740.17" fill="white"/>
<path d="M421.61 584.23C417.18 597.87 416.97 611.65 417.49 620.37C417.637 623.188 417.937 625.996 418.39 628.781" fill="white"/>
<path d="M418.43 629.47C418.443 629.401 418.443 629.33 418.43 629.26C418.43 629.19 418.43 629.13 418.43 628.99C418.414 628.878 418.414 628.763 418.43 628.65C418.454 628.893 418.497 629.134 418.56 629.37C418.547 629.395 418.528 629.417 418.506 629.434C418.483 629.452 418.458 629.464 418.43 629.47Z" stroke="#D7C8EA" stroke-width="4.82" stroke-miterlimit="10"/>
<path d="M418.81 695.93C417.221 701.045 415.194 706.014 412.75 710.78C412.06 712.13 411.37 713.44 410.61 714.78C408.018 719.656 404.83 724.19 401.12 728.28C400.46 728.07 399.81 727.8 399.22 727.55C399.08 727.55 398.98 727.45 398.87 727.42C386.87 722.19 377.87 712.42 375.2 701.42C372.81 691.73 374.95 681.24 370.35 672.13C364.71 660.92 349.41 653.89 347.51 641.23C345.78 629.39 356.44 618.52 354.71 606.92C352.71 593.81 336.6 586.02 333.63 573.21C331.72 565.21 333.42 556.08 332.73 547.87C331.935 538.701 330.383 529.613 328.09 520.7C329.2 520.63 330.3 520.6 331.41 520.57C354.08 520.18 376.41 532.92 383.75 550.82C389.66 565.29 386.65 582 394.51 595.57C394.98 596.45 395.511 597.295 396.1 598.1C397.131 599.523 398.243 600.885 399.43 602.18L401.92 604.78C402.33 605.19 402.78 605.57 403.2 606.02C403.62 606.47 404.06 606.86 404.48 607.31C408.39 611.04 412.37 614.82 414.97 619.31C415.202 619.7 415.409 620.104 415.59 620.52C415.83 620.93 416.038 621.358 416.21 621.8C416.433 622.252 416.63 622.716 416.8 623.19C417.01 623.71 417.18 624.26 417.35 624.78C417.6 625.61 417.84 626.41 418.01 627.24C418.01 627.45 418.01 627.62 418.08 627.79C418.15 627.96 418.08 627.93 418.08 628C418.094 628.069 418.094 628.141 418.08 628.21C418.08 628.35 418.08 628.45 418.15 628.55V628.62C418.155 628.75 418.179 628.878 418.22 629C418.22 629.14 418.22 629.2 418.22 629.27C418.233 629.34 418.233 629.411 418.22 629.48V629.55L415.55 668.18C417.25 677.51 421.51 686.83 418.81 695.93Z" stroke="#D7C8EA" stroke-width="4.82" stroke-miterlimit="10"/>
<path d="M438.92 602.16C440.65 593.78 440.79 584.99 444.73 576.99C452.07 562.25 473.53 551.55 496 550.86H496.41C498.41 550.86 500.53 550.86 502.61 550.97C500.286 558.636 498.696 566.504 497.86 574.47C497.1 581.56 498.86 589.47 496.93 596.31C493.78 607.38 476.99 614.1 474.93 625.42C473.13 635.42 484.24 644.84 482.41 655.05C480.41 665.98 464.51 672.05 458.63 681.73C453.89 689.59 456.1 698.62 453.63 706.97C450.76 716.48 441.35 724.97 428.85 729.43C428.06 729.71 427.33 729.98 426.53 730.22C426.11 730.33 425.63 730.5 425.21 730.61C425.07 730.5 424.94 730.36 424.76 730.22C420.76 726.79 416.24 721.01 412.5 714.82L412.78 710.88C415.224 706.114 417.251 701.146 418.84 696.03C421.54 686.93 417.28 677.61 415.72 668.27L418.39 629.64L419.22 628.95C419.522 628.726 419.809 628.482 420.08 628.22C424.2 624.9 428.63 621.72 431.82 617.94C435.76 613.3 437.6 608.22 438.82 602.94" stroke="#D7C8EA" stroke-width="4.82" stroke-miterlimit="10"/>
<path d="M438.82 602.72C438.82 602.54 438.88 602.37 438.92 602.16" stroke="#D7C8EA" stroke-width="4.82" stroke-miterlimit="10"/>
<path d="M438.919 602.13C438.919 602.34 438.849 602.51 438.819 602.69C437.639 608.02 435.819 613.1 431.819 617.69C428.629 621.47 424.199 624.69 420.079 627.97C419.811 628.235 419.524 628.479 419.219 628.7L418.389 629.43C418.406 629.385 418.406 629.335 418.389 629.29C418.389 629.15 418.319 629.05 418.289 628.95C418.273 628.838 418.273 628.723 418.289 628.61V628.54C418.289 628.44 418.289 628.34 418.219 628.2C418.234 628.131 418.234 628.06 418.219 627.99C418.234 627.957 418.241 627.921 418.241 627.885C418.241 627.849 418.234 627.813 418.219 627.78C418.193 627.595 418.156 627.411 418.109 627.23C417.939 626.4 417.699 625.6 417.449 624.77C417.279 624.25 417.109 623.7 416.899 623.18C416.729 622.706 416.532 622.242 416.309 621.79C416.158 621.339 415.95 620.909 415.689 620.51C415.508 620.094 415.301 619.69 415.069 619.3C412.469 614.84 408.489 611.06 404.579 607.3C404.159 606.85 403.709 606.4 403.299 606.01C402.889 605.62 402.429 605.18 402.019 604.77L399.529 602.17C398.342 600.875 397.23 599.513 396.199 598.09C396.199 598.09 398.629 558.09 419.079 546C438.299 534.49 438.919 595.38 438.919 602.13Z" stroke="#D7C8EA" stroke-width="4.82" stroke-miterlimit="10"/>
<path d="M438.82 602.72C438.82 602.54 438.88 602.37 438.92 602.16" stroke="#D7C8EA" stroke-width="4.82" stroke-miterlimit="10"/>
<path d="M418.391 629.33V629.51C418.404 629.441 418.404 629.37 418.391 629.3C418.391 629.23 418.391 629.17 418.391 629.03C418.375 628.918 418.375 628.803 418.391 628.69C418.376 628.903 418.376 629.117 418.391 629.33Z" stroke="#D7C8EA" stroke-width="4.82" stroke-miterlimit="10"/>
<path d="M487.629 563.67C450.759 603.35 433.419 687 426.679 730.19C426.129 733.83 425.629 737.19 425.199 740.19" stroke="#D7C8EA" stroke-width="4.82" stroke-miterlimit="10"/>
<path d="M491 764.49L474 864.57C473.596 867.308 472.236 869.815 470.16 871.645C468.084 873.476 465.427 874.512 462.66 874.57H374.1C371.302 874.51 368.619 873.451 366.535 871.583C364.451 869.716 363.105 867.164 362.74 864.39L347.09 764.47L491 764.49Z" stroke="#D7C8EA" stroke-width="4.82" stroke-miterlimit="10"/>
<path d="M507.15 753.32C506.995 756.285 505.727 759.083 503.598 761.153C501.47 763.224 498.639 764.416 495.67 764.49H342.75C339.811 764.419 337.003 763.251 334.881 761.215C332.759 759.18 331.474 756.424 331.28 753.49C330.63 746.35 335.95 740.18 342.75 740.18H495.67C502.39 740.19 507.69 746.25 507.15 753.32Z" stroke="#D7C8EA" stroke-width="4.82" stroke-miterlimit="10"/>
<path d="M418.501 629.54C418.498 629.315 418.461 629.093 418.391 628.88L418.501 629.54Z" stroke="#D7C8EA" stroke-width="4.82" stroke-miterlimit="10"/>
<path d="M342.719 535.39C378.109 581.39 394.719 678.27 401.269 728.3C401.829 732.64 402.329 736.61 402.719 740.17" stroke="#D7C8EA" stroke-width="4.82" stroke-miterlimit="10"/>
<path d="M421.61 584.23C417.18 597.87 416.97 611.65 417.49 620.37C417.637 623.188 417.937 625.996 418.39 628.781" stroke="#D7C8EA" stroke-width="4.82" stroke-miterlimit="10"/>
<path d="M997.209 497.25C994.836 498.083 992.483 498.95 990.149 499.85L988.239 500.58C982.709 502.65 977.239 504.83 972.019 507.12C970.209 507.88 968.429 508.64 966.659 509.47C965.219 510.1 963.809 510.72 962.399 511.38L961.729 511.69C959.859 512.55 957.979 513.42 956.139 514.32C954.299 515.22 952.139 516.22 950.239 517.23C949.239 517.68 948.329 518.16 947.389 518.64C945.579 519.54 943.809 520.48 942.029 521.41C941.529 521.69 941.029 521.93 940.549 522.21C938.749 523.21 936.939 524.15 935.159 525.15C933.689 525.95 932.279 526.74 930.839 527.57C879.88 556.631 836.487 597.294 804.179 646.26C731.939 754.77 728.629 874.46 728.489 885.06L728.329 884.74C719.679 828.57 706.449 779.9 689.829 737.74L691.129 733.45L688.859 735.21C688.859 735.21 688.859 735.21 688.859 735.14C692.109 663.77 706.079 604.14 726.119 554.29L727.999 554.71C727.629 553.94 727.259 553.15 726.889 552.39C761.889 466.62 814.979 410.39 862.089 374.68C917.609 332.68 964.959 319.06 964.959 319.06C990.239 350.32 995.999 445.82 997.209 497.25Z" stroke="#D7C8EA" stroke-width="4.82" stroke-miterlimit="10"/>
<path d="M1000.58 866.46C993.209 864.98 985.969 863.22 978.909 861.15C949.909 852.68 916.179 838.2 904.649 807.77C901.757 799.91 900.845 791.458 901.994 783.161C903.144 774.865 906.319 766.979 911.239 760.2C916.464 752.972 923.801 747.54 932.239 744.65C950.589 738.72 970.889 747.96 984.499 761.65C998.109 775.34 1006.87 792.92 1017.5 808.99C1007.87 787.4 998.079 765.2 996.749 741.59C995.749 723.19 1000.75 703.25 1013.41 689.42C1025.08 676.7 1052.41 666.73 1068.47 676.08C1079.08 682.25 1083.3 695.37 1085.13 707.5C1090.13 740.69 1083.71 774.42 1077.32 807.37C1081.61 789.75 1086.22 771.97 1094.95 756.08C1103.68 740.19 1117.09 726.14 1134.24 720.26C1146.24 716.14 1160.52 716.59 1170.59 724.34C1179.98 731.58 1184.17 743.8 1185.46 755.58C1187.62 775.33 1182.97 795.37 1174.97 813.58C1145.12 881.42 1062.37 878.85 1000.58 866.46Z" fill="white"/>
<path d="M1067.91 832.87C1067.91 832.87 1113.91 845.65 1130.15 781.71L1067.91 832.87Z" fill="white"/>
<path d="M1047.44 723.73C1034.65 752.73 1047.44 839.73 1047.44 839.73V723.73Z" fill="white"/>
<path d="M1004.81 830.9C1002.89 830.57 984.439 827.99 968.709 820.76C956.529 815.16 945.969 806.76 945.969 794.5" fill="white"/>
<path d="M972.412 794.5C972.412 794.5 954.412 815.5 968.712 820.76L972.412 794.5Z" fill="white"/>
<path d="M960.469 839.84C963.029 836.28 976.339 843.42 985.029 826.63L960.469 839.84Z" fill="white"/>
<path d="M1041.76 762.1C1037.21 758.69 1025.27 762.1 1023.57 734.81L1041.76 762.1Z" fill="white"/>
<path d="M1043.74 787.68C1043.74 787.68 1063.64 780.5 1063.64 764.91L1043.74 787.68Z" fill="white"/>
<path d="M1086.52 833.24C1086.52 833.24 1096.9 806.44 1101.16 794.5L1086.52 833.24Z" fill="white"/>
<path d="M1118.75 807.63C1118.75 807.63 1130.15 816.63 1143.75 802.18L1118.75 807.63Z" fill="white"/>
<path d="M1118.75 794.5C1118.75 794.5 1111.39 791.31 1114.75 772.87L1118.75 794.5Z" fill="white"/>
<path d="M1000.58 866.46C993.129 865.46 985.969 863.22 978.909 861.15C949.909 852.68 916.179 838.2 904.649 807.77C901.757 799.91 900.845 791.458 901.994 783.161C903.144 774.865 906.319 766.979 911.239 760.2C916.464 752.972 923.801 747.54 932.239 744.65C950.589 738.72 970.889 747.96 984.499 761.65C998.109 775.34 1006.87 792.92 1017.5 808.99C1007.87 787.4 998.079 765.2 996.749 741.59C995.749 723.19 1000.75 703.25 1013.41 689.42C1025.08 676.7 1052.41 666.73 1068.47 676.08C1079.08 682.25 1083.3 695.37 1085.13 707.5C1090.13 740.69 1083.71 774.42 1077.32 807.37C1081.61 789.75 1086.22 771.97 1094.95 756.08C1103.68 740.19 1117.09 726.14 1134.24 720.26C1146.24 716.14 1160.52 716.59 1170.59 724.34C1179.98 731.58 1184.17 743.8 1185.46 755.58C1187.62 775.33 1183.26 795.5 1174.97 813.58C1144.64 879.63 1061.24 874.64 1000.58 866.46Z" stroke="#D7C8EA" stroke-width="4.82" stroke-miterlimit="10"/>
<path d="M1067.91 832.87C1067.91 832.87 1113.91 845.65 1130.15 781.71" stroke="#D7C8EA" stroke-width="4.82" stroke-miterlimit="10"/>
<path d="M1047.44 723.73C1034.65 752.73 1047.44 839.73 1047.44 839.73" stroke="#D7C8EA" stroke-width="4.82" stroke-miterlimit="10"/>
<path d="M1004.81 830.9C1002.89 830.57 984.439 827.99 968.709 820.76C956.529 815.16 945.969 806.76 945.969 794.5" stroke="#D7C8EA" stroke-width="4.82" stroke-miterlimit="10"/>
<path d="M972.412 794.5C972.412 794.5 954.412 815.5 968.712 820.76" stroke="#D7C8EA" stroke-width="4.82" stroke-miterlimit="10"/>
<path d="M960.469 839.84C963.029 836.28 976.339 843.42 985.029 826.63" stroke="#D7C8EA" stroke-width="4.82" stroke-miterlimit="10"/>
<path d="M1041.76 762.1C1037.21 758.69 1025.27 762.1 1023.57 734.81" stroke="#D7C8EA" stroke-width="4.82" stroke-miterlimit="10"/>
<path d="M1043.74 787.68C1043.74 787.68 1063.64 780.5 1063.64 764.91" stroke="#D7C8EA" stroke-width="4.82" stroke-miterlimit="10"/>
<path d="M1086.52 833.24C1086.52 833.24 1096.9 806.44 1101.16 794.5" stroke="#D7C8EA" stroke-width="4.82" stroke-miterlimit="10"/>
<path d="M1118.75 807.63C1118.75 807.63 1130.15 816.63 1143.75 802.18" stroke="#D7C8EA" stroke-width="4.82" stroke-miterlimit="10"/>
<path d="M1118.75 794.5C1118.75 794.5 1111.39 791.31 1114.75 772.87" stroke="#D7C8EA" stroke-width="4.82" stroke-miterlimit="10"/>
<path d="M1027.24 742.92C1029.79 734.473 1030.31 725.545 1028.76 716.86C1027.93 711.86 1025.58 698.24 1018.31 700.35C1016.2 700.94 1014.95 702.74 1014.16 704.78C1015.09 700.28 1008.58 697.44 1005.4 697.03C997.341 695.89 991.451 701.56 987.611 708.48C979.201 723.68 956.841 731.02 941.261 731.05C919.351 731.05 906.261 714.05 902.501 692.05C892.501 633.87 889.831 493.72 785.021 455.3C779.264 453.169 773.379 451.399 767.401 450V450.17C767.331 450.17 767.261 450.17 767.191 449.93C767.146 449.796 767.113 449.659 767.091 449.52C770.405 449.029 773.687 448.345 776.921 447.47C781.111 446.4 785.431 445.15 788.481 442.47C792.151 439.29 793.391 434.62 793.701 430.15C793.701 429.46 793.771 428.73 793.771 428.04C793.806 427.477 793.806 426.913 793.771 426.35C793.771 425.55 793.771 424.75 793.771 423.92C793.771 423.3 793.771 422.64 793.771 422.02L798.871 405.74C800.741 402.1 802.601 398.45 803.421 394.57C803.764 393.007 803.915 391.409 803.871 389.81C803.871 389.47 803.871 389.12 803.871 388.74C803.491 381.99 800.201 375.31 795.601 369.74C794.76 362.353 793.312 355.049 791.271 347.9C784.831 324.5 771.961 299.06 746.831 292C728.271 286.81 706.641 287.12 688.401 294.08C688.385 294.087 688.368 294.09 688.351 294.09C688.334 294.09 688.317 294.087 688.301 294.08L686.581 294.79L688.301 294.08C687.115 294.432 685.968 294.908 684.881 295.5C678.931 298.72 676.881 306.09 677.201 314.19C677.2 314.642 677.233 315.093 677.301 315.54C677.301 316.13 677.371 316.75 677.471 317.34C678.371 325.27 681.351 333.43 685.091 338.7C684.921 339.11 684.741 339.49 684.601 339.91C683.021 343.54 680.974 346.949 678.511 350.05C673.011 357.05 665.571 362.16 660.201 369.16C654.831 376.16 651.691 385.28 653.111 394.04C654.491 402.52 659.821 409.93 661.031 418.37C662.171 426.09 660.031 434.92 664.741 441.12C667.641 444.89 672.451 446.62 677.061 447.93C679.061 448.49 681.061 448.93 683.061 449.39C682.811 450.11 682.741 450.15 682.601 450.18C676.862 451.529 671.212 453.229 665.681 455.27L664.851 455.58C560.901 494.47 558.171 634 548.231 692C544.501 714 531.381 731 509.471 731C493.891 731 471.531 723.63 463.121 708.43C459.241 701.51 453.401 695.84 445.331 696.98C442.181 697.43 436.021 700.06 436.611 704.35C436.597 704.51 436.597 704.67 436.611 704.83V705C436.611 705 436.611 705.11 436.611 705.14V705.25C435.851 703.03 434.611 701.06 432.351 700.4C425.081 698.29 422.731 711.89 421.901 716.91C420.355 725.595 420.875 734.523 423.421 742.97C426.781 754.15 433.801 764.61 444.221 769.14C452.824 772.67 461.813 775.174 471.001 776.6C457.161 790.07 448.191 807.55 448.611 829.91C448.921 843.91 457.371 853.69 470.551 860.23C487.441 868.67 512.091 871.82 537.151 872.06H537.291C534.438 872.6 531.652 873.449 528.981 874.59C525.905 875.873 523.01 877.554 520.371 879.59C519.431 880.323 518.531 881.083 517.671 881.87C517.219 882.263 516.788 882.68 516.381 883.12C515.561 883.95 514.761 884.82 514.001 885.72C512.528 887.496 511.19 889.382 510.001 891.36C509.411 892.36 508.861 893.36 508.381 894.36C507.901 895.36 507.441 896.48 507.021 897.51C506.374 899.092 505.856 900.724 505.471 902.39C505.191 903.47 504.951 904.54 504.741 905.65C502.941 916.31 505.401 927.32 512.941 935.24C514.316 936.67 515.811 937.978 517.411 939.15C518.241 939.74 519.111 940.3 520.001 940.85C521.886 941.96 523.868 942.897 525.921 943.65C528.177 944.492 530.494 945.16 532.851 945.65C549.431 949 562.611 938.24 577.571 933.65C586.101 931.128 594.981 929.993 603.871 930.29C609.667 930.465 615.444 931.036 621.161 932C683.938 942.27 747.641 945.73 811.161 942.32C854.081 939.96 897.861 934.57 938.601 920.2C969.261 909.38 1003 890.37 1018.1 861C1023.46 850.66 1026.23 839.175 1026.17 827.53C1026.17 803.06 1016.17 784.82 1000.59 771.36C1002.59 770.63 1004.53 769.9 1006.44 769.07C1016.86 764.56 1023.88 754.1 1027.24 742.92Z" fill="white"/>
<path d="M603.839 930.33C594.942 930.026 586.055 931.157 577.519 933.68C562.569 938.27 549.379 949.04 532.789 945.68C489.599 936.97 498.609 879.39 537.319 872.05H537.379C541.089 871.97 544.799 871.94 548.479 871.94H548.719C566.549 871.94 583.919 872.41 598.179 867.49C596.799 868.71 562.079 899.53 603.839 930.33Z" fill="#9E7ACD"/>
<path d="M785 455.18C785 455.18 785 455.26 785 455.29C790.157 471.245 796.464 486.806 803.87 501.85L803.96 502.02" stroke="#333333" stroke-width="4.82" stroke-miterlimit="10"/>
<path d="M836.888 733.41C788.708 741.09 741.978 752.86 692.828 746.6C666.208 743.17 640.108 736.35 613.828 731.02C630.198 704.68 636.538 670.76 633.978 641.24C632.318 621.85 623.418 603.09 623.868 583.78C624.178 570.7 626.598 557.68 629.958 545.08C633.913 530.239 639.284 515.813 645.998 502C645.998 501.94 646.068 501.9 646.098 501.83C653.512 486.796 659.829 471.246 664.998 455.3C670.74 453.162 676.612 451.392 682.578 450L683.578 457.23C686.038 474.23 691.818 498.77 709.578 506.8C713.258 508.413 717.231 509.247 721.248 509.25C729.168 510.05 739.768 506.8 739.768 506.8C757.518 498.8 763.268 474.26 765.768 457.23L766.768 450C772.733 451.381 778.605 453.138 784.348 455.26C789.517 471.212 795.834 486.769 803.248 501.81C803.287 501.859 803.311 501.918 803.318 501.98C810.017 515.788 815.375 530.208 819.318 545.04C822.889 557.65 824.937 570.643 825.418 583.74C825.868 603.05 817.008 621.81 815.308 641.2C812.588 671.66 819.408 706.76 836.888 733.41Z" fill="#4B4453"/>
<path d="M1000.56 771.34C1016.14 784.8 1026.14 803.04 1026.17 827.55C1026.22 839.189 1023.44 850.665 1018.09 861C1003.01 890.34 969.271 909.32 938.561 920.17C897.811 934.54 854.051 939.92 811.111 942.29C747.608 945.712 683.922 942.262 621.161 932C615.427 931.04 609.633 930.479 603.821 930.32C594.928 930.021 586.045 931.152 577.511 933.67C562.561 938.26 549.371 949.03 532.781 945.67C489.591 936.96 498.601 879.38 537.311 872.04" stroke="#333333" stroke-width="4.82" stroke-miterlimit="10"/>
<path d="M898.729 844.12C885.929 873.41 854.249 863.38 819.439 842.31C797.849 829.23 779.439 827.36 768.559 827.8C783.889 826.43 797.299 821.7 801.059 804.37C804.109 790.27 796.169 777.37 782.439 773.21C815.439 771.76 849.329 774.21 876.199 795C876.199 795 911.559 814.81 898.729 844.12Z" fill="#9E7ACD"/>
<path d="M708.569 434C708.156 437.114 707.045 440.095 705.319 442.72C702.549 446.53 698.009 448.67 693.379 449.33C690.51 448.929 687.673 448.328 684.889 447.53C680.259 446.21 675.479 444.48 672.569 440.71C667.829 434.48 670.009 425.65 668.869 417.94C667.619 409.52 662.289 402.08 660.939 393.64C659.489 384.88 662.639 375.78 667.999 368.75C672.639 362.75 678.769 358.09 683.859 352.52C683.859 353.24 683.789 354.01 683.749 354.77C681.908 356.897 680.521 359.379 679.671 362.061C678.822 364.743 678.529 367.571 678.81 370.37C679.091 373.17 679.939 375.883 681.305 378.343C682.67 380.804 684.522 382.96 686.749 384.68C688.689 392.95 693.639 410.91 705.999 421.57C707.057 423.031 707.862 424.661 708.379 426.39C708.981 428.884 709.046 431.478 708.569 434Z" fill="#9E7ACD"/>
<path d="M803.511 394.14C801.891 401.85 796.071 408.6 794.441 416.32C793.541 420.72 793.961 425.25 793.681 429.72C793.539 432.612 792.822 435.448 791.571 438.06C790.77 439.561 789.718 440.914 788.461 442.06C785.411 444.73 781.081 446.01 776.901 447.06C770.491 448.69 763.811 450.06 757.171 449.45C749.591 448.72 741.941 443.91 739.171 436.61C736.991 430.9 738.721 426.43 741.631 422.31V422.24C744.809 419.847 747.722 417.122 750.321 414.11C762.321 384.18 767.801 392.58 769.251 382.85C774.751 379.11 770.601 372.33 770.601 365.2C770.601 360.11 770.301 357.42 767.291 353.82L773.541 352.36C770.981 349.31 772.681 350.36 768.731 349.19L767.291 349.35C765.141 349.69 769.351 348.42 766.771 348.85C716.571 357.18 706.961 300.12 705.261 291.23C703.741 292.85 698.111 291.88 696.901 293.68C696.381 294.45 701.901 303.8 701.441 304.59C701.311 304 701.201 303.49 701.131 303.07C699.637 304.665 698.272 306.377 697.051 308.19C693.004 313.972 689.961 320.395 688.051 327.19C687.981 327.39 687.941 327.63 687.871 327.84C687.156 331.361 686.245 334.84 685.141 338.26C680.641 331.93 677.141 321.34 677.141 312.02C677.141 304.65 679.321 298.02 684.851 295.02C685.009 294.93 685.172 294.85 685.341 294.78C686.287 294.308 687.27 293.913 688.281 293.6C688.281 293.6 688.351 293.6 688.391 293.6C706.631 286.6 728.291 286.3 746.811 291.49C771.971 298.55 784.811 324.03 791.291 347.42C793.317 354.572 794.765 361.875 795.621 369.26C801.611 376.48 805.311 385.45 803.511 394.14Z" fill="#9E7ACD"/>
<path d="M583.27 788.7L634.62 784.61C673.826 781.497 713.04 778.38 752.26 775.26C762.07 774.5 772.26 773.64 782.43 773.2C815.43 771.75 849.32 774.2 876.19 794.99C876.19 794.99 911.55 814.8 898.72 844.11C885.89 873.42 854.24 863.37 819.43 842.3C797.84 829.22 779.43 827.35 768.55 827.79H768.44C767.26 827.85 766.13 827.93 765.15 828.04C762.785 828.218 760.442 828.613 758.15 829.22C718.21 841.8 656.37 859.28 598.26 867.46C581.853 869.877 565.324 871.373 548.75 871.94H548.51C544.74 872.08 541.03 872.11 537.35 872.05H537.22C512.13 871.83 487.49 868.67 470.59 860.24C457.41 853.67 448.97 843.92 448.67 829.91C448.26 807.52 457.21 790.05 471.09 776.56" stroke="#333333" stroke-width="4.82" stroke-miterlimit="10"/>
<path d="M1000.42 720.87C1007.11 717.78 1014.96 707.76 1014.05 703.72" stroke="#333333" stroke-width="4.82" stroke-miterlimit="10"/>
<path d="M953.059 762.87C963.149 765.1 958.519 742.95 969.249 741.14C969.249 741.14 973.589 740.47 974.459 744.14C975.059 746.65 974.249 749.72 973.759 752.14C973.309 754.37 972.959 757.14 972.009 759.14C972.896 756.902 973.644 754.61 974.249 752.28C974.901 749.835 975.369 747.345 975.649 744.83C976.259 740.83 976.699 736.52 978.199 732.83C979.003 730.54 980.667 728.654 982.839 727.57C987.579 725.57 990.599 730.57 991.009 734.91C991.073 735.394 991.093 735.882 991.069 736.37C991.069 737.03 991.009 737.65 990.959 738.27C990.499 745.86 989.689 755.37 985.439 761.32C989.689 755.32 990.559 746.13 990.949 738.51C991.149 734.43 991.109 730.21 992.609 726.51C993.172 725.023 994.06 723.68 995.209 722.58C996.328 721.516 997.805 720.909 999.349 720.88C1000.53 720.987 1001.67 721.396 1002.65 722.068C1003.63 722.741 1004.42 723.654 1004.95 724.72C1006.05 726.937 1006.65 729.373 1006.69 731.85C1007.34 742.71 1004.8 753.53 996.769 760.76" stroke="#333333" stroke-width="4.82" stroke-miterlimit="10"/>
<path d="M803.891 501.84C810.652 515.699 816.047 530.184 820.001 545.09C823.381 557.69 825.791 570.69 826.101 583.77C826.551 603.09 817.671 621.85 815.981 641.25C811.721 690.42 832.141 751.74 882.461 770.12C902.291 777.37 923.661 780.06 944.711 779.56C964.711 779.09 987.931 777.07 1006.44 769.08C1016.86 764.56 1023.88 754.08 1027.26 742.92C1029.79 734.467 1030.31 725.541 1028.79 716.85C1027.93 711.85 1025.6 698.24 1018.31 700.35C1015.89 701.03 1014.62 703.29 1013.87 705.7C1012.37 710.7 1013.15 715.96 1012.98 721.1C1012.79 728.3 1011.74 742.36 1005.14 747.17" stroke="#333333" stroke-width="4.82" stroke-miterlimit="10"/>
<path d="M683.328 450L684.328 457.23C686.808 474.23 692.568 498.76 710.328 506.79C713.997 508.417 717.965 509.258 721.978 509.26C729.918 510.06 740.498 506.79 740.498 506.79C758.248 498.79 764.008 474.26 766.498 457.23L767.498 450" stroke="#333333" stroke-width="4.82" stroke-miterlimit="10"/>
<path d="M665.741 455.18C665.741 455.18 665.741 455.26 665.741 455.29C660.585 471.247 654.275 486.808 646.861 501.85L646.781 502.02" stroke="#333333" stroke-width="4.82" stroke-miterlimit="10"/>
<path d="M436.869 705.7L436.709 705.18C436.675 705.111 436.654 705.036 436.649 704.96C436.649 704.96 436.649 704.91 436.649 704.88C435.579 700.32 442.089 697.46 445.329 697.02C453.329 695.87 459.259 701.55 463.109 708.48C471.509 723.67 493.879 731.01 509.459 731.03C531.379 731.03 544.509 714.03 548.249 692.03C558.189 633.84 560.909 493.7 665.719 455.27C671.476 453.157 677.357 451.397 683.329 450L684.919 449.64" stroke="#333333" stroke-width="4.82" stroke-miterlimit="10"/>
<path d="M765.859 449.71C766.379 449.79 766.859 449.93 767.399 450.04C773.367 451.431 779.245 453.184 784.999 455.29C889.809 493.72 892.529 633.86 902.469 692.05C906.209 714.05 919.339 731.05 941.269 731.05C956.839 731.05 979.209 723.69 987.609 708.5C991.459 701.57 997.339 695.89 1005.39 697.04C1008.79 697.51 1015.94 700.7 1013.85 705.72" stroke="#333333" stroke-width="4.82" stroke-miterlimit="10"/>
<path d="M450.312 720.87C443.622 717.78 435.772 707.76 436.682 703.72" stroke="#333333" stroke-width="4.82" stroke-miterlimit="10"/>
<path d="M497.669 762.87C487.569 765.1 492.199 742.95 481.469 741.14C481.469 741.14 477.129 740.47 476.259 744.14C475.669 746.65 476.469 749.72 476.969 752.14C477.419 754.37 477.769 757.14 478.709 759.14C477.825 756.901 477.08 754.61 476.479 752.28C475.821 749.836 475.353 747.346 475.079 744.83C474.469 740.83 474.019 736.52 472.519 732.83C471.721 730.539 470.059 728.652 467.889 727.57C463.149 725.57 460.129 730.57 459.709 734.91C459.653 735.394 459.636 735.883 459.659 736.37C459.659 737.03 459.709 737.65 459.769 738.27C460.219 745.86 461.039 755.37 465.279 761.32C461.039 755.32 460.159 746.13 459.779 738.51C459.569 734.43 459.619 730.21 458.109 726.51C457.553 725.021 456.667 723.678 455.519 722.58C454.394 721.518 452.915 720.912 451.369 720.88C450.186 720.987 449.051 721.397 448.072 722.069C447.093 722.742 446.303 723.654 445.779 724.72C444.67 726.936 444.075 729.373 444.039 731.85C443.389 742.71 445.919 753.53 453.949 760.76" stroke="#333333" stroke-width="4.82" stroke-miterlimit="10"/>
<path d="M646.84 501.84C640.078 515.698 634.685 530.183 630.74 545.09C627.35 557.69 624.95 570.69 624.64 583.77C624.19 603.09 633.07 621.85 634.75 641.25C639.02 690.42 618.59 751.74 568.27 770.12C548.44 777.37 527.07 780.06 506.03 779.56C486.03 779.09 462.81 777.07 444.3 769.08C433.87 764.56 426.86 754.08 423.47 742.92C420.966 734.461 420.462 725.536 422 716.85C422.86 711.85 425.19 698.24 432.48 700.35C434.89 701.03 436.17 703.29 436.92 705.7C438.41 710.7 437.64 715.96 437.8 721.1C438 728.3 439.05 742.36 445.65 747.17" stroke="#333333" stroke-width="4.82" stroke-miterlimit="10"/>
<path d="M701.469 303.13C699.864 304.848 698.393 306.687 697.069 308.63C692.863 314.591 689.748 321.251 687.869 328.3C687.155 331.82 686.237 335.296 685.119 338.71C684.959 339.12 684.789 339.51 684.629 339.92C683.056 343.556 681.015 346.971 678.559 350.08C673.059 357.01 665.619 362.17 660.229 369.18C654.839 376.19 651.709 385.3 653.139 394.07C654.519 402.53 659.849 409.95 661.079 418.38C662.209 426.1 660.079 434.92 664.789 441.13C667.679 444.92 672.479 446.65 677.099 447.94C682.019 449.32 687.099 450.39 692.159 449.94C697.219 449.49 702.319 447.28 705.309 443.15C707.052 440.541 708.164 437.563 708.559 434.45C709.028 431.934 708.959 429.348 708.359 426.86C707.359 423.26 704.739 420.35 702.359 417.41C695.027 407.923 689.792 396.989 686.999 385.33" stroke="#333333" stroke-width="4.82" stroke-miterlimit="10"/>
<path d="M767.65 358.76C767.65 356.2 767.54 353.67 767.32 351.12" stroke="#333333" stroke-width="4.82" stroke-miterlimit="10"/>
<path d="M685.67 337.47C684.558 343.326 683.916 349.261 683.75 355.22" stroke="#333333" stroke-width="4.82" stroke-miterlimit="10"/>
<path d="M775.131 349.8C774.061 349.99 768.371 350.93 767.321 351.1C710.811 360.1 708.321 319.42 701.471 303.16C701.471 303.16 697.701 288.66 684.911 295.53C672.121 302.4 677.261 328.53 685.671 339.53" stroke="#333333" stroke-width="4.82" stroke-miterlimit="10"/>
<path d="M691.391 318.63V318.6" stroke="#333333" stroke-width="4.82" stroke-miterlimit="10"/>
<path d="M783.422 357.18L795.642 369.73" stroke="#333333" stroke-width="4.82" stroke-miterlimit="10"/>
<path d="M702.398 417.39C702.538 417.56 702.648 417.72 702.808 417.91C702.947 418.117 703.105 418.311 703.278 418.49C703.556 418.877 703.86 419.244 704.188 419.59C704.218 419.642 704.255 419.689 704.298 419.73C706.739 422.503 709.705 424.765 713.024 426.387C716.343 428.009 719.951 428.958 723.638 429.18C732.638 429.89 738.308 426.32 741.638 422.75" stroke="#333333" stroke-width="4.82" stroke-miterlimit="10"/>
<path d="M751.769 392.77C763.218 392.77 772.499 383.488 772.499 372.04C772.499 360.591 763.218 351.31 751.769 351.31C740.32 351.31 731.039 360.591 731.039 372.04C731.039 383.488 740.32 392.77 751.769 392.77Z" stroke="#333333" stroke-width="4.82" stroke-miterlimit="10"/>
<path d="M699.41 389.5C710.859 389.5 720.14 380.219 720.14 368.77C720.14 357.321 710.859 348.04 699.41 348.04C687.961 348.04 678.68 357.321 678.68 368.77C678.68 380.219 687.961 389.5 699.41 389.5Z" stroke="#333333" stroke-width="4.82" stroke-miterlimit="10"/>
<path d="M694.91 363.7C694.91 363.7 703.36 360.539 709.91 363.799" stroke="#333333" stroke-width="4.82" stroke-miterlimit="10"/>
<path d="M741.531 366.57C741.531 366.57 749.981 363.41 756.531 366.67" stroke="#333333" stroke-width="4.82" stroke-miterlimit="10"/>
<path d="M726.51 403.82C729.542 403.82 732 401.362 732 398.33C732 395.298 729.542 392.84 726.51 392.84C723.478 392.84 721.02 395.298 721.02 398.33C721.02 401.362 723.478 403.82 726.51 403.82Z" stroke="#333333" stroke-width="4.82" stroke-miterlimit="10"/>
<path d="M684.91 295.53C703.84 287.16 727.12 286.44 746.91 291.98C772.06 298.98 784.91 324.49 791.36 347.89C793.396 355.04 794.845 362.344 795.69 369.73C801.69 376.92 805.36 385.91 803.54 394.59C801.92 402.31 796.13 409.07 794.48 416.79C793.57 421.18 794.01 425.72 793.71 430.17C793.41 434.62 792.14 439.29 788.49 442.47C785.44 445.17 781.13 446.47 776.92 447.47C770.52 449.12 763.84 450.47 757.22 449.86C749.61 449.15 741.98 444.34 739.22 437.03C735.57 427.39 743.04 421.26 748.45 414.48C751.875 410.217 754.91 405.655 757.52 400.85C759.41 397.3 761.054 393.625 762.44 389.85" stroke="#333333" stroke-width="4.82" stroke-miterlimit="10"/>
<path d="M614.609 731C640.869 736.32 666.969 743.15 693.609 746.55C742.779 752.85 789.479 741.07 837.679 733.38" stroke="#333333" stroke-width="4.82" stroke-miterlimit="10"/>
<path d="M349.059 874.59H528.989" stroke="#333333" stroke-width="4.82" stroke-miterlimit="10"/>
<path d="M1013.27 871.12H1168.16" stroke="#333333" stroke-width="4.82" stroke-miterlimit="10"/>
<path d="M1121.88 634.6C1131.07 642.52 1139.27 651.515 1146.32 661.39C1159.25 679.086 1166.57 700.262 1167.32 722.17" stroke="#D7C8EA" stroke-width="4.82" stroke-miterlimit="10"/>
<path d="M801.301 272.21C819.821 261.06 839.101 251.21 859.621 244.21C910.781 226.7 967.821 230.61 1008.35 268.96C1043.49 302.19 1060.1 351.51 1063.49 398.79C1063.49 399.48 1063.6 400.21 1063.63 400.94C1065.19 425.31 1063.91 452.2 1063.73 479.13" stroke="#D7C8EA" stroke-width="4.82" stroke-miterlimit="10"/>
<path d="M397.999 477.6C402.639 448.01 396.929 420.18 393.879 389.72C385.959 310.32 411.189 215.41 502.599 203.54C552.269 197.06 592.599 215.62 626.169 251.2C633.719 259.2 641.259 268.57 649.259 277.64" stroke="#D7C8EA" stroke-width="4.82" stroke-miterlimit="10"/>
<path d="M362.34 739.69C362.34 739.69 293.12 709.19 300 651.91C302 635.75 309.59 621.28 319.21 608" stroke="#D7C8EA" stroke-width="4.82" stroke-miterlimit="10"/>
</svg>
