<svg width="906" height="687" viewBox="0 0 906 687" fill="none" xmlns="http://www.w3.org/2000/svg">
<path d="M619.261 617.63L599.501 636.28C598.987 636.766 598.577 637.352 598.297 638.002C598.017 638.652 597.872 639.352 597.871 640.06V669.77C597.87 671.062 598.352 672.308 599.221 673.264C600.09 674.22 601.285 674.818 602.571 674.94L641.461 678.72L662.901 658.48C663.419 657.996 663.832 657.411 664.114 656.76C664.396 656.11 664.541 655.409 664.541 654.7V624.81C664.542 623.513 664.058 622.264 663.185 621.305C662.312 620.347 661.112 619.75 659.821 619.63L623.311 616.24C622.576 616.172 621.835 616.261 621.137 616.5C620.439 616.74 619.8 617.125 619.261 617.63Z" fill="#9B8CC0"/>
<path d="M617.19 612.45L594 634.34C593.396 634.911 592.915 635.599 592.586 636.362C592.258 637.126 592.089 637.949 592.09 638.78V673.64C592.088 675.156 592.652 676.618 593.671 677.741C594.69 678.863 596.091 679.565 597.6 679.71L643.24 684.15L668.41 660.39C669.014 659.819 669.495 659.131 669.823 658.367C670.152 657.603 670.321 656.781 670.32 655.95V620.87C670.319 619.35 669.75 617.885 668.725 616.762C667.701 615.639 666.294 614.939 664.78 614.8L621.94 610.8C621.076 610.721 620.206 610.827 619.387 611.112C618.567 611.396 617.818 611.852 617.19 612.45Z" fill="#9B8CC0"/>
<path d="M739 418.77V448.65C738.998 449.358 738.853 450.058 738.573 450.708C738.293 451.358 737.883 451.944 737.37 452.43L715.909 472.67L677 468.89C675.875 468.789 674.817 468.31 674 467.53C680.43 466.75 685.84 463.76 687.5 460.53C690.05 455.53 689.37 446.81 678.5 445.29C676.396 445.009 674.314 444.581 672.27 444.01V434C672.268 433.294 672.412 432.594 672.692 431.946C672.973 431.297 673.384 430.713 673.9 430.23L693.65 411.56C694.186 411.068 694.818 410.691 695.506 410.454C696.194 410.216 696.924 410.123 697.65 410.18L734.159 413.58C735.474 413.669 736.706 414.255 737.605 415.219C738.504 416.183 739.003 417.452 739 418.77Z" fill="#9B8CC0"/>
<path d="M744.791 414.83V449.9C744.789 450.736 744.617 451.562 744.285 452.329C743.953 453.096 743.469 453.787 742.861 454.36L717.711 478.1L672.071 473.67C670.561 473.523 669.16 472.819 668.141 471.695C667.122 470.571 666.559 469.107 666.561 467.59V467.45C669.043 467.846 671.571 467.873 674.061 467.53C680.491 466.75 685.901 463.76 687.561 460.53C690.111 455.53 689.431 446.81 678.561 445.29C676.457 445.009 674.375 444.581 672.331 444.01C667.451 442.52 667.151 440.89 667.151 440.89L666.551 441.27V432.77C666.544 431.941 666.71 431.118 667.037 430.356C667.364 429.593 667.845 428.907 668.451 428.34L691.651 406.44C692.281 405.845 693.031 405.391 693.849 405.107C694.668 404.822 695.538 404.714 696.401 404.79L739.241 408.79C740.749 408.933 742.15 409.63 743.175 410.745C744.2 411.86 744.776 413.316 744.791 414.83Z" fill="#9B8CC0"/>
<path d="M746.229 509.3L722.879 531.3C722.27 531.875 721.785 532.567 721.453 533.336C721.121 534.105 720.95 534.933 720.949 535.77V570.88C720.947 572.408 721.515 573.882 722.541 575.013C723.567 576.145 724.979 576.853 726.499 577L772.499 581.47L797.849 557.55C798.458 556.976 798.944 556.283 799.275 555.514C799.607 554.746 799.779 553.917 799.779 553.08V517.78C799.781 516.248 799.209 514.77 798.176 513.638C797.144 512.505 795.725 511.8 794.199 511.66L751.059 507.66C750.184 507.571 749.299 507.672 748.466 507.955C747.632 508.238 746.87 508.697 746.229 509.3Z" fill="#9B8CC0"/>
<path d="M743.779 503.18L716.369 529.05C715.656 529.724 715.088 530.536 714.7 531.437C714.311 532.338 714.11 533.308 714.109 534.29V575.49C714.111 577.282 714.779 579.01 715.984 580.337C717.189 581.664 718.845 582.496 720.629 582.67L774.569 587.91L804.309 559.83C805.025 559.158 805.595 558.346 805.984 557.444C806.373 556.543 806.572 555.571 806.569 554.59V513.13C806.557 511.337 805.877 509.614 804.662 508.295C803.447 506.977 801.785 506.159 799.999 506L749.369 501.29C748.357 501.194 747.336 501.314 746.373 501.639C745.41 501.965 744.526 502.49 743.779 503.18Z" fill="#9B8CC0"/>
<path d="M809.531 530.74L785.23 553.68C784.598 554.278 784.095 554.999 783.751 555.799C783.407 556.598 783.23 557.46 783.23 558.33V594.86C783.23 596.45 783.822 597.983 784.891 599.161C785.959 600.338 787.428 601.076 789.01 601.23L836.841 605.88L863.211 581C863.843 580.402 864.346 579.68 864.69 578.881C865.034 578.081 865.211 577.22 865.211 576.35V539.56C865.208 537.966 864.611 536.43 863.536 535.252C862.462 534.074 860.988 533.339 859.401 533.19L814.51 529C813.604 528.917 812.691 529.03 811.832 529.33C810.973 529.63 810.188 530.111 809.531 530.74Z" fill="#9B8CC0"/>
<path d="M806.999 524.37L778.479 551.29C777.736 551.992 777.145 552.839 776.741 553.778C776.337 554.716 776.128 555.728 776.129 556.75V599.63C776.128 601.493 776.821 603.289 778.072 604.668C779.324 606.047 781.045 606.911 782.899 607.09L838.999 612.55L869.999 583.33C870.742 582.628 871.333 581.781 871.737 580.842C872.141 579.903 872.349 578.892 872.349 577.87V534.72C872.347 532.851 871.648 531.049 870.389 529.668C869.129 528.286 867.4 527.424 865.539 527.25L812.849 522.35C811.786 522.252 810.715 522.382 809.706 522.73C808.698 523.078 807.775 523.637 806.999 524.37Z" fill="#9B8CC0"/>
<path d="M739.349 557.25L705.279 589.41C704.39 590.247 703.681 591.257 703.198 592.379C702.715 593.5 702.466 594.709 702.469 595.93V647.15C702.477 649.374 703.308 651.515 704.802 653.162C706.296 654.809 708.347 655.845 710.559 656.07L777.619 662.59L814.619 627.68C815.505 626.841 816.211 625.83 816.694 624.709C817.177 623.588 817.427 622.381 817.429 621.16V569.62C817.419 567.389 816.581 565.24 815.077 563.592C813.573 561.944 811.51 560.913 809.289 560.7L746.349 554.84C745.078 554.722 743.796 554.876 742.589 555.292C741.383 555.707 740.278 556.375 739.349 557.25Z" fill="#9B8CC0"/>
<path d="M735.781 548.32L695.781 586.06C694.739 587.044 693.908 588.229 693.341 589.545C692.773 590.86 692.481 592.278 692.48 593.71V653.82C692.478 656.434 693.45 658.955 695.207 660.891C696.964 662.827 699.379 664.039 701.98 664.29L780.67 671.94L824.07 630.94C825.112 629.957 825.943 628.771 826.51 627.456C827.078 626.14 827.37 624.723 827.37 623.29V562.84C827.372 560.22 826.394 557.694 824.629 555.757C822.864 553.82 820.44 552.612 817.831 552.37L744 545.5C742.508 545.357 741.003 545.535 739.585 546.021C738.168 546.507 736.87 547.291 735.781 548.32Z" fill="#9B8CC0"/>
<path d="M499 116.49C527 95.2501 569.41 76.1801 626.15 86.0701" stroke="#D4CEE4" stroke-width="4.59" stroke-miterlimit="10"/>
<path d="M513.219 133.09C538.139 115.78 572.079 102.49 616.339 105.34" stroke="white" stroke-width="4.59" stroke-linecap="round" stroke-linejoin="round"/>
<path d="M708.801 124.13C736.161 149.4 750.541 185.02 755.801 221.32C759.286 245.463 759.316 269.979 755.891 294.13C755.629 295.548 755.452 296.981 755.361 298.42C757.131 297.622 758.964 296.97 760.841 296.47C783.461 290.66 807.521 289.72 829.411 298.66C847.621 306.09 863.121 319.12 874.961 334.66C890.79 355.565 900.364 380.531 902.571 406.66C906.571 456.66 882.661 496.98 846.801 525.42L846.391 525.75" stroke="#D4CEE4" stroke-width="4.59" stroke-linejoin="round"/>
<path d="M704.43 148.19C739.89 189.86 742.14 245.89 739.01 299.29C738.94 300.46 738.5 303.56 738.09 306.71" stroke="white" stroke-width="4.59" stroke-linecap="round" stroke-linejoin="round"/>
<path d="M752.531 312.74C778.691 310.14 807.731 309.37 829.981 322.37C851.981 335.23 868.361 356.02 877.791 379.56C888.501 406.28 890.221 437.56 878.251 464.18C864.821 493.98 842.581 515.31 817.411 535.28C817.341 535.33 820.411 536.01 823.611 536.73" stroke="white" stroke-width="4.59" stroke-linecap="round" stroke-linejoin="round"/>
<path d="M297.3 619.92C291.699 621.937 285.834 623.126 279.89 623.45C195.46 628.64 116.23 582.45 60.4298 530.74C57.8798 528.38 55.4298 525.96 53.0698 523.51" stroke="black" stroke-width="4.59" stroke-miterlimit="10"/>
<path d="M378.52 586.75C383.4 594.21 394.85 591.23 394.85 591.23C458.71 578.13 440.08 493.58 386.06 454.34" stroke="black" stroke-width="4.59" stroke-miterlimit="10"/>
<path d="M452.899 385C429.749 407.2 409.079 420.67 389.709 428.65L397.709 372.72C310.459 320.54 287.239 378.72 287.239 378.72C283.899 384.18 282.349 448.96 281.909 471.07C281.799 471.07 279.029 471.07 278.909 471.07C223.909 468.13 174.199 417.82 174.199 417.82C201.989 348.04 301.199 261.82 301.199 261.82C370.059 213.53 422.619 229.77 422.619 229.77C406.429 230.94 428.489 275.77 428.489 275.77C460.999 304 472.999 261.84 472.999 261.84C504.459 337.14 452.899 385 452.899 385Z" fill="#353642"/>
<path d="M509.79 352.43C509.79 352.43 504.08 425.79 454.45 423.36C454.45 423.36 435.84 403.23 436.31 387.92C436.78 372.61 478.31 277 478.31 277C478.31 277 505.23 344.14 509.79 352.43Z" fill="#353642"/>
<path d="M57.629 527.83V528.08L61.869 532.08C61.869 532.08 60.109 533.71 57.629 536.08C54.399 539.08 49.9489 543.22 46.6289 546.38C40.8789 551.84 11.4789 581.23 3.62891 554.5C5.17891 545.15 11.1189 525.92 33.8889 502.56C66.269 469.28 61.759 473.41 69.889 473.96C73.639 474.2 78.499 476.4 82.659 478.71C72.139 483.09 56.189 495.24 57.629 527.83Z" fill="#9B8CC0"/>
<path d="M91.449 484.24C91.449 484.24 59.619 487.24 57.629 527.83V528.08C57.499 530.58 57.499 533.21 57.629 536.01C54.399 539.01 49.9489 543.15 46.6289 546.31C40.8789 551.77 11.4789 581.16 3.62891 554.43C5.17891 545.08 11.1189 525.85 33.8889 502.49C66.269 469.21 61.759 473.34 69.889 473.89C73.639 474.13 78.499 476.33 82.659 478.64C85.683 480.355 88.617 482.224 91.449 484.24Z" fill="#9B8CC0"/>
<path d="M389.5 430.34C425.5 407.77 483.26 378.87 483.12 313.99C483.12 298.58 481.53 285.99 478.12 274.07L477.79 272.93C476.599 269.071 474.993 265.353 473 261.84" stroke="black" stroke-width="4.59" stroke-miterlimit="10"/>
<path d="M215.85 542.65C207.52 535.56 200 528.72 195 524L194.92 523.92C190.98 520.25 188.62 517.92 188.62 517.92C185.27 513.35 182.29 508.92 179.62 504.66C179.568 504.596 179.53 504.521 179.51 504.44C160.09 473.04 158.92 448.02 177.01 411.21C177.115 410.944 177.235 410.683 177.37 410.43C179.37 406.43 181.58 402.25 184.02 397.93C220.23 333.93 326.47 214.68 418.12 229.76" stroke="black" stroke-width="4.59" stroke-miterlimit="10"/>
<path d="M60.461 530.71C41.4613 554.29 28.1313 562.66 19.1213 564.51C10.1113 566.36 1.81127 558.37 3.12127 549.13C7.30127 519.93 41.2813 485 58.001 469.38C60.562 466.971 63.849 465.478 67.347 465.134C70.846 464.79 74.361 465.615 77.341 467.48L85.711 472.69C110.441 488.11 136.251 503.15 162.201 517.01C185.991 529.73 212.131 546.08 240.291 542.38" stroke="black" stroke-width="4.59" stroke-miterlimit="10"/>
<path d="M401.26 311.72C401.583 323.327 401.286 334.944 400.37 346.52C397.2 388.41 388.64 429.73 383.93 471.45C380.93 498.15 379.09 524.97 378.73 551.84C378.43 574.4 378.37 591.61 379.04 614.17C379.47 628.69 387.68 637.96 400.18 644.17C410.71 649.39 418.05 648.33 424.61 658.86C438.1 680.56 411.61 682.1 400.83 679.24C370.59 671.24 326.1 666.85 308.83 636.78C295.06 612.78 293.31 597.09 289.83 570.27C286.03 541.21 282.83 512.03 282.15 482.71C281.1 435.5 284.76 359.56 301.68 314.91" stroke="black" stroke-width="4.59" stroke-miterlimit="10"/>
<path d="M779 535.63L778.84 535.79L775.09 535.41L775.23 535.28L779 535.63Z" fill="#9B8CC0"/>
<path d="M719.512 530.52L750.322 533.57L719.512 530.77V530.52Z" fill="#9B8CC0"/>
<path d="M779.001 535.63L778.841 535.79L775.091 535.41L774.681 535.79L772.891 535.63L773.301 535.25L773.431 535.11L775.231 535.28L779.001 535.63Z" fill="#9B8CC0"/>
<path d="M779.001 535.63L778.841 535.79L775.091 535.41L773.301 535.25L773.431 535.11L775.231 535.28L779.001 535.63Z" fill="#9B8CC0"/>
<path d="M700.328 589.13L745.878 593.58L700.328 589.49V589.13Z" fill="#9B8CC0"/>
<path d="M788.31 596.61L788.07 596.85L782.52 596.29L781.919 596.85L779.27 596.61L779.87 596.05L780.07 595.85L782.729 596.09L788.31 596.61Z" fill="#9B8CC0"/>
<path d="M788.311 596.61L788.071 596.85L782.521 596.29L779.871 596.05L780.071 595.85L782.731 596.09L788.311 596.61Z" fill="#9B8CC0"/>
<path d="M477.77 272.92C477.77 272.92 507.189 371.06 541.599 393.92C574.019 415.45 617.55 406.11 651.74 394.35C661.18 391.1 670.67 387.93 680.74 388.08C694.91 388.28 723.789 391.42 727.539 407.91" stroke="black" stroke-width="4.59" stroke-miterlimit="10"/>
<path d="M439.102 397.45C489.872 500.26 579.892 479.75 626.232 461.17C630.43 459.462 634.983 458.81 639.492 459.27C643.972 459.76 647.492 461.66 651.662 463.27C658.752 466.07 666.762 468.08 674.452 467.56C682.142 467.04 691.512 461.18 688.272 452.11C685.692 444.88 677.652 445.4 671.492 444.01C665.332 442.62 663.852 433.64 669.612 430.73C669.682 430.708 669.747 430.67 669.802 430.62" stroke="black" stroke-width="4.59" stroke-miterlimit="10"/>
<path d="M670.32 615.33L643.24 640.92L592.09 636.16L619.2 610.58L670.32 615.33Z" stroke="black" stroke-width="4.59" stroke-linecap="square" stroke-linejoin="round"/>
<path d="M643.24 640.92V684.16L592.09 679.19V636.16L643.24 640.92Z" stroke="black" stroke-width="4.59" stroke-linecap="square" stroke-linejoin="round"/>
<path d="M670.318 615.33V658.6L643.238 684.16V640.92L670.318 615.33Z" stroke="black" stroke-width="4.59" stroke-linecap="square" stroke-linejoin="round"/>
<path d="M827.789 553.67L781.449 597.46L693.949 589.31L714.429 569.97V580.88L774.679 586.75L806.569 556.63V551.68L827.789 553.67Z" stroke="black" stroke-width="4.59" stroke-linecap="square" stroke-linejoin="round"/>
<path d="M781.449 597.45V671.42L693.949 662.92V589.32L781.449 597.45Z" stroke="black" stroke-width="4.59" stroke-linecap="square" stroke-linejoin="round"/>
<path d="M827.779 553.68V627.7L781.449 671.42V597.45L827.779 553.68Z" stroke="black" stroke-width="4.59" stroke-linecap="square" stroke-linejoin="round"/>
<path d="M806.57 505.67L774.68 535.79L714.43 530.2L746.35 500.07L806.57 505.67Z" stroke="black" stroke-width="4.59" stroke-linecap="square" stroke-linejoin="round"/>
<path d="M774.68 546.85V535.79L714.43 530.2V576.7" stroke="black" stroke-width="4.59" stroke-linecap="square" stroke-linejoin="round"/>
<path d="M806.57 505.67V556.63L774.68 586.75V535.79L806.57 505.67Z" stroke="black" stroke-width="4.59" stroke-linecap="square" stroke-linejoin="round"/>
<path d="M807.461 523.61L808.831 522.32L872.471 528.24L838.761 560.11L829.311 559.22" stroke="black" stroke-width="4.59" stroke-linecap="square" stroke-linejoin="round"/>
<path d="M828.749 559.16L838.759 560.11V613.92L827.789 612.86" stroke="black" stroke-width="4.59" stroke-linecap="square" stroke-linejoin="round"/>
<path d="M872.46 528.24V582.1L838.75 613.92V560.09L872.46 528.24Z" stroke="black" stroke-width="4.59" stroke-linecap="square" stroke-linejoin="round"/>
<path d="M744.781 409.5L717.701 435.09L666.551 430.33L693.661 404.74L744.781 409.5Z" stroke="black" stroke-width="4.59" stroke-linecap="square" stroke-linejoin="round"/>
<path d="M666.539 467.31V473.37L717.689 478.34V435.1L669.799 430.64L666.539 430.34V434.09V437.98" stroke="black" stroke-width="4.59" stroke-linecap="square" stroke-linejoin="round"/>
<path d="M744.779 409.5V452.77L717.699 478.33V435.09L744.779 409.5Z" stroke="black" stroke-width="4.59" stroke-linecap="square" stroke-linejoin="round"/>
<path d="M483.121 224.09C487.771 230.32 495.931 231.56 501.341 227.27" stroke="black" stroke-width="4.59" stroke-miterlimit="10"/>
<path d="M557.05 162C555.046 166.986 551.524 171.214 546.984 174.086C542.443 176.958 537.113 178.327 531.75 178C531.632 175.808 530.983 173.677 529.86 171.79C525.05 163.95 520.53 176.6 503.11 164.37C478.98 147.37 467.93 153.37 467.93 153.37C466.93 153.89 466.14 159.91 465.87 160.96C464.22 167.06 462.58 173.13 460.87 179.22C459.87 182.94 458.87 186.63 457.87 190.32C457.613 189.637 457.316 188.969 456.98 188.32C455.88 179.53 453.17 168.95 443.33 171.83C441.336 172.451 439.516 173.533 438.02 174.99C430.73 182.05 434.17 190.46 439.65 197.13C440.971 199.144 442.507 201.008 444.23 202.69C442.86 204.69 437.28 212.69 437.28 212.69C436.7 213.49 424.35 194.33 423.51 192.31C422.538 187.549 422.372 182.657 423.02 177.84C425.79 158.04 437.33 136.27 455.02 127.38C459.42 125.18 458.56 122.28 459.4 118.5C459.426 118.28 459.524 118.074 459.68 117.916C459.835 117.757 460.039 117.655 460.259 117.625C460.479 117.595 460.703 117.64 460.895 117.751C461.087 117.863 461.236 118.035 461.32 118.24C465.52 124.66 478 126 478 126C520.85 121.69 534.16 143.13 542.46 147.85C545.809 149.703 549.687 150.362 553.46 149.72C553.485 150.941 553.845 152.132 554.501 153.162C555.157 154.192 556.084 155.022 557.18 155.56L556.66 157.56C556.283 159.042 556.42 160.608 557.05 162Z" fill="#9B8CC0"/>
<path d="M531.721 178C537.075 178.326 542.396 176.962 546.932 174.1C551.469 171.238 554.991 167.023 557.001 162.05C557.786 160.149 558.395 158.181 558.821 156.17L558.501 156.08C558.041 155.968 557.598 155.796 557.181 155.57C556.086 155.031 555.159 154.201 554.503 153.171C553.847 152.141 553.487 150.951 553.461 149.73C553.429 149.056 553.503 148.381 553.681 147.73L556.271 138.15C556.271 138.15 547.601 142.75 539.471 138.05C531.341 133.35 519.741 111.97 475.011 116.2C475.011 116.2 465.181 115.29 461.011 108.75C460.925 108.549 460.774 108.382 460.583 108.274C460.392 108.167 460.171 108.126 459.953 108.156C459.736 108.187 459.535 108.288 459.382 108.444C459.228 108.6 459.129 108.803 459.101 109.02C458.261 112.8 456.421 115.28 452.031 117.48C434.301 126.38 422.751 148.15 420.031 167.94C419.008 176.204 420.202 184.59 423.491 192.24C424.331 194.24 436.681 213.42 437.261 212.62C437.261 212.62 442.841 204.62 444.211 202.62L444.541 202.18L444.111 201.79C442.513 200.316 441.017 198.736 439.631 197.06C434.151 190.39 430.711 181.98 438.001 174.92C439.498 173.463 441.317 172.38 443.311 171.76C453.151 168.88 455.861 179.46 456.961 188.25C457.174 189.928 457.204 191.625 457.051 193.31L457.851 190.31C458.851 186.62 459.851 182.93 460.851 179.21C462.521 173.12 464.161 167.05 465.851 160.95C466.121 159.9 466.951 153.88 467.911 153.36C467.911 153.36 478.961 147.42 503.091 164.36C520.511 176.59 525.031 163.94 529.841 171.78C530.965 173.666 531.614 175.797 531.731 177.99C531.756 178.694 531.736 179.399 531.671 180.1C531.687 180.193 531.687 180.287 531.671 180.38C531.531 181.91 531.331 183.44 531.131 184.93C529.131 199.31 525.231 214.06 517.561 226.53C508.261 241.64 487.701 254.82 470.001 244.41C464.491 241.16 459.771 236.54 455.551 231.76" stroke="black" stroke-width="4.59" stroke-miterlimit="10"/>
<path d="M518.711 208.746C519.815 206.594 519.269 204.109 517.49 203.197C515.712 202.284 513.374 203.288 512.27 205.44C511.165 207.592 511.711 210.077 513.49 210.99C515.269 211.903 517.606 210.898 518.711 208.746Z" fill="black"/>
<path d="M490.812 203.577C491.917 201.425 491.37 198.941 489.592 198.028C487.813 197.115 485.476 198.119 484.371 200.271C483.267 202.423 483.813 204.908 485.592 205.821C487.37 206.734 489.708 205.729 490.812 203.577Z" fill="black"/>
<path d="M495.559 212.31C495.559 212.31 504.089 219.03 505.489 213.62C505.929 211.95 510.739 195.71 510.739 195.71C510.739 195.71 519.499 188.87 530.159 196.53" stroke="black" stroke-width="4.59" stroke-miterlimit="10"/>
<path d="M501.192 189.49C501.192 189.49 487.272 179.67 475.672 189.01" stroke="black" stroke-width="4.59" stroke-miterlimit="10"/>
<path d="M433.652 208.07L426.432 231.35L418.182 229.8C412.992 238.46 419.682 266.45 428.532 275.8C453.782 302.56 469.312 271.67 469.312 271.67L473.002 261.81L478.352 247.55" stroke="black" stroke-width="4.59" stroke-miterlimit="10"/>
<path d="M652.352 136.74C654.233 138.43 655.74 140.496 656.773 142.804C657.807 145.112 658.344 147.611 658.352 150.14V153C658.36 155.022 658.79 157.019 659.616 158.865C660.441 160.71 661.644 162.362 663.146 163.716C664.648 165.069 666.416 166.093 668.337 166.722C670.259 167.352 672.29 167.572 674.302 167.37C681.772 166.61 687.232 159.82 687.232 152.27V150.13C687.226 147.62 687.745 145.137 688.756 142.84C689.767 140.542 691.247 138.482 693.102 136.79" stroke="#D4CEE4" stroke-width="4.59" stroke-linejoin="round"/>
<path d="M652.352 136.74C654.233 138.43 655.74 140.496 656.773 142.804C657.807 145.112 658.344 147.611 658.352 150.14V153C658.36 155.022 658.79 157.019 659.616 158.865C660.441 160.71 661.644 162.362 663.146 163.716C664.648 165.069 666.416 166.093 668.337 166.722C670.259 167.352 672.29 167.572 674.302 167.37C681.772 166.61 687.232 159.82 687.232 152.27V150.13C687.226 147.62 687.745 145.137 688.756 142.84C689.767 140.542 691.247 138.482 693.102 136.79" stroke="#D4CEE4" stroke-width="4.59" stroke-linejoin="round"/>
<path d="M652.348 136.74C651.39 135.906 650.352 135.169 649.248 134.54C640.792 129.686 634.045 122.333 629.933 113.491C625.821 104.65 624.546 94.752 626.283 85.157C628.019 75.562 632.683 66.74 639.633 59.9C646.583 53.061 655.48 48.54 665.101 46.957C674.723 45.375 684.599 46.809 693.373 51.062C702.148 55.315 709.391 62.18 714.109 70.713C718.827 79.247 720.789 89.031 719.725 98.724C718.662 108.417 714.625 117.543 708.168 124.85C708.067 124.947 707.977 125.054 707.898 125.17C704.487 128.917 700.508 132.106 696.108 134.62C695.024 135.223 694.016 135.955 693.108 136.8" stroke="#D4CEE4" stroke-width="4.59" stroke-linejoin="round"/>
<path d="M667.731 133.66C664.681 128.12 659.541 120.78 655.921 115.55C651.984 110.003 648.768 103.978 646.351 97.6199C646.031 96.9339 645.906 96.1719 645.991 95.4199C646.041 95.0469 646.233 94.7069 646.527 94.4719C646.822 94.2379 647.196 94.1259 647.571 94.1599C648.241 94.2899 648.571 94.9899 648.921 95.5999C650.358 98.4569 652.407 100.963 654.921 102.94C656.331 104.03 658.331 104.94 659.801 103.94C660.247 103.549 660.605 103.068 660.852 102.528C661.098 101.989 661.227 101.403 661.231 100.81C661.673 96.5989 660.571 92.3699 658.131 88.9099C657.131 87.5499 655.391 86.2299 653.981 87.1199C652.571 88.0099 652.981 90.2099 653.821 91.6899C655.314 94.4329 657.35 96.8439 659.805 98.7749C662.26 100.705 665.083 102.116 668.101 102.92C669.581 103.416 671.18 103.433 672.671 102.97C673.498 102.593 674.221 102.02 674.777 101.3C675.333 100.58 675.705 99.7359 675.861 98.8399C676.158 97.0399 676.003 95.1949 675.411 93.4699C674.591 90.7799 673.001 88.0299 670.331 87.1299C669.494 86.8049 668.567 86.8049 667.731 87.1299C667.176 87.4269 666.715 87.8749 666.403 88.4209C666.09 88.9669 665.936 89.5909 665.961 90.2199C666.026 91.4789 666.412 92.7009 667.081 93.7699C668.63 96.4739 670.813 98.7619 673.441 100.438C676.069 102.113 679.065 103.126 682.171 103.39C684.245 103.685 686.354 103.181 688.071 101.98C688.787 101.316 689.363 100.516 689.767 99.6259C690.17 98.7369 690.393 97.7759 690.421 96.7999C690.648 93.8729 689.821 90.9609 688.091 88.5899C687.741 88.1199 687.211 87.5899 686.641 87.7799C686.071 87.9699 685.911 88.6099 685.841 89.1799C685.58 91.4199 685.768 93.6889 686.393 95.8559C687.017 98.0219 688.067 100.043 689.481 101.8C691.041 103.71 693.411 105.37 695.811 104.8C696.718 104.523 697.533 104.004 698.169 103.299C698.805 102.595 699.237 101.731 699.421 100.8C699.767 98.9329 699.58 97.0059 698.881 95.2399C698.021 95.7679 697.285 96.4759 696.724 97.3139C696.163 98.1529 695.79 99.1029 695.631 100.1C695.191 102.1 695.221 104.1 694.881 106.1C693.001 117.32 680.641 122.33 678.241 133.1" stroke="#D4CEE4" stroke-width="4.59" stroke-linejoin="round"/>
<path d="M672.732 29.42L672.262 1" stroke="#D4CEE4" stroke-width="4.59" stroke-linejoin="round"/>
<path d="M618.522 55.8601L598.852 35.3501" stroke="#D4CEE4" stroke-width="4.59" stroke-linejoin="round"/>
<path d="M727.129 57.1398L747.239 37.0498" stroke="#D4CEE4" stroke-width="4.59" stroke-linejoin="round"/>
<path d="M737.87 325.64C743.559 325.64 748.17 321.029 748.17 315.34C748.17 309.652 743.559 305.04 737.87 305.04C732.182 305.04 727.57 309.652 727.57 315.34C727.57 321.029 732.182 325.64 737.87 325.64Z" fill="#9B8CC0"/>
</svg>
