<svg width="1000" height="1000" viewBox="0 0 1000 1000" fill="none" xmlns="http://www.w3.org/2000/svg">
<g clip-path="url(#clip0_508_1338)">
<path d="M949.999 863.68H821.559V877.38C821.559 894.412 828.325 910.747 840.368 922.79C852.412 934.834 868.746 941.6 885.779 941.6C902.811 941.6 919.145 934.834 931.189 922.79C943.233 910.747 949.999 894.412 949.999 877.38V863.68Z" fill="#D4CEE4"/>
<path d="M394.999 249.83L394.789 122.52C394.792 105.489 401.557 89.1552 413.597 77.1093C425.637 65.0634 441.968 58.2909 458.999 58.2803H885.759" stroke="#B8ADD2" stroke-width="4.46" stroke-miterlimit="10"/>
<path d="M821.551 876.409V863.669V239.29V122.52" stroke="#B8ADD2" stroke-width="4.46" stroke-miterlimit="10"/>
<path d="M821.559 224.4H949.999V122.52C949.999 105.488 943.233 89.153 931.189 77.1094C919.145 65.0658 902.811 58.2998 885.779 58.2998C868.746 58.2998 852.412 65.0658 840.368 77.1094C828.325 89.153 821.559 105.488 821.559 122.52V239.29" fill="#D4CEE4"/>
<path d="M821.559 224.4H949.999V122.52C949.999 105.488 943.233 89.153 931.189 77.1094C919.145 65.0658 902.811 58.2998 885.779 58.2998C868.746 58.2998 852.412 65.0658 840.368 77.1094C828.325 89.153 821.559 105.488 821.559 122.52V239.29" stroke="#B8ADD2" stroke-width="4.46" stroke-miterlimit="10"/>
<path d="M821.539 863.68V876.42C821.542 893.453 828.31 909.787 840.355 921.831C852.4 933.874 868.736 940.64 885.769 940.64" stroke="#B8ADD2" stroke-width="4.46" stroke-miterlimit="10"/>
<path d="M488.919 940.65H459.039" stroke="#B8ADD2" stroke-width="4.46" stroke-miterlimit="10"/>
<path d="M821.561 863.67H950.001V876.41C949.996 893.446 943.226 909.782 931.18 921.829C919.134 933.875 902.797 940.645 885.761 940.65H575.691" stroke="#B8ADD2" stroke-width="4.46" stroke-miterlimit="10"/>
<path d="M749.682 340.7H645.922" stroke="#B8ADD2" stroke-width="4.46" stroke-miterlimit="10"/>
<path d="M749.682 380.93H645.922" stroke="#B8ADD2" stroke-width="4.46" stroke-miterlimit="10"/>
<path d="M749.682 421.17H645.922" stroke="#B8ADD2" stroke-width="4.46" stroke-miterlimit="10"/>
<path d="M749.682 461.4H645.922" stroke="#B8ADD2" stroke-width="4.46" stroke-miterlimit="10"/>
<path d="M749.682 501.64H645.922" stroke="#B8ADD2" stroke-width="4.46" stroke-miterlimit="10"/>
<path d="M749.682 541.87H645.922" stroke="#B8ADD2" stroke-width="4.46" stroke-miterlimit="10"/>
<path d="M749.682 676.28H645.922" stroke="#B8ADD2" stroke-width="4.46" stroke-miterlimit="10"/>
<path d="M749.682 695.04H645.922" stroke="#B8ADD2" stroke-width="4.46" stroke-miterlimit="10"/>
<path d="M749.682 713.8H645.922" stroke="#B8ADD2" stroke-width="4.46" stroke-miterlimit="10"/>
<path d="M749.682 732.56H645.922" stroke="#B8ADD2" stroke-width="4.46" stroke-miterlimit="10"/>
<path d="M774.07 287.95H619.781C608.569 287.95 599.48 297.039 599.48 308.25V766.73C599.48 777.942 608.569 787.03 619.781 787.03H774.07C785.282 787.03 794.37 777.942 794.37 766.73V308.25C794.37 297.039 785.282 287.95 774.07 287.95Z" stroke="#B8ADD2" stroke-width="4.46" stroke-miterlimit="10"/>
<path d="M645.918 247.84H563.828" stroke="#B8ADD2" stroke-width="4.46" stroke-miterlimit="10"/>
<path d="M645.918 200.58H577.078" stroke="#B8ADD2" stroke-width="4.46" stroke-miterlimit="10"/>
<path d="M645.921 224.21H567.461" stroke="#B8ADD2" stroke-width="4.46" stroke-miterlimit="10"/>
<path d="M645.921 176.94H553.051" stroke="#B8ADD2" stroke-width="4.46" stroke-miterlimit="10"/>
<path d="M720.722 205.56C727.741 205.56 733.432 199.869 733.432 192.85C733.432 185.83 727.741 180.14 720.722 180.14C713.702 180.14 708.012 185.83 708.012 192.85C708.012 199.869 713.702 205.56 720.722 205.56Z" fill="#D4CEE4"/>
<path d="M688.52 244.65C688.668 236.207 692.127 228.16 698.15 222.242C704.174 216.324 712.28 213.008 720.724 213.008C729.169 213.008 737.275 216.324 743.299 222.242C749.322 228.16 752.781 236.207 752.93 244.65H688.52Z" fill="#D4CEE4"/>
<path d="M754.811 169.13H686.641C681.571 169.13 677.461 173.24 677.461 178.31V246.48C677.461 251.55 681.571 255.66 686.641 255.66H754.811C759.881 255.66 763.991 251.55 763.991 246.48V178.31C763.991 173.24 759.881 169.13 754.811 169.13Z" stroke="#B8ADD2" stroke-width="4.46" stroke-miterlimit="10"/>
<path d="M723.861 822L733.281 841.07C733.533 841.578 733.903 842.018 734.361 842.352C734.819 842.687 735.351 842.905 735.911 842.99L757.001 846.05C757.654 846.139 758.268 846.411 758.773 846.834C759.278 847.257 759.653 847.814 759.856 848.441C760.058 849.067 760.08 849.738 759.918 850.377C759.756 851.015 759.418 851.595 758.941 852.05L743.711 866.9C743.305 867.296 743.002 867.786 742.827 868.326C742.653 868.866 742.613 869.441 742.711 870L746.301 891C746.412 891.644 746.34 892.306 746.094 892.911C745.848 893.516 745.437 894.041 744.909 894.425C744.38 894.809 743.754 895.037 743.103 895.084C742.451 895.131 741.799 894.994 741.221 894.69L722.391 884.8C721.889 884.534 721.329 884.394 720.761 884.394C720.193 884.394 719.633 884.534 719.131 884.8L700.311 894.69C699.732 894.993 699.08 895.128 698.429 895.081C697.777 895.034 697.152 894.806 696.623 894.422C696.094 894.039 695.682 893.515 695.435 892.911C695.187 892.306 695.113 891.644 695.221 891L698.821 870C698.918 869.441 698.878 868.866 698.704 868.326C698.53 867.786 698.227 867.297 697.821 866.9L682.541 852C682.065 851.545 681.726 850.965 681.564 850.327C681.402 849.688 681.424 849.017 681.627 848.391C681.829 847.764 682.205 847.207 682.71 846.784C683.215 846.361 683.829 846.089 684.481 846L705.481 842.94C706.043 842.856 706.577 842.638 707.036 842.303C707.496 841.969 707.868 841.529 708.121 841.02L717.581 822C717.87 821.413 718.317 820.92 718.872 820.574C719.427 820.229 720.068 820.046 720.721 820.046C721.375 820.046 722.015 820.229 722.57 820.574C723.125 820.92 723.572 821.413 723.861 822Z" fill="#D4CEE4"/>
<path d="M457.73 869.93H636.71" stroke="#B8ADD2" stroke-width="4.46" stroke-miterlimit="10"/>
<path d="M457.73 895.03H636.71" stroke="#B8ADD2" stroke-width="4.46" stroke-miterlimit="10"/>
<path d="M396 255.6C390.6 283.3 378.64 405.8 367.91 522.9C367.557 523.17 367.186 523.417 366.8 523.64C366.02 524.13 365.24 524.64 364.43 525.07C364.43 525.07 364.37 525.07 364.33 525.14C364.311 525.133 364.289 525.133 364.27 525.14L362.81 525.95L362.22 526.25C361.6 526.57 361.02 526.86 360.4 527.12L360.21 527.22C359.72 527.45 359.21 527.68 358.68 527.87L357.9 528.23C357.28 528.46 356.63 528.72 356.01 528.94L354.35 529.53C354.074 529.598 353.804 529.685 353.54 529.79C353.02 529.95 352.54 530.11 351.98 530.24C351.79 530.31 351.59 530.34 351.4 530.41C350.71 530.6 350 530.77 349.28 530.93C348.56 531.09 347.98 531.22 347.28 531.35C347.187 531.386 347.089 531.409 346.99 531.42C346.924 531.434 346.856 531.434 346.79 531.42C346.08 531.55 345.36 531.68 344.68 531.78C344.55 531.78 344.42 531.78 344.26 531.84C343.41 531.97 342.57 532.07 341.72 532.13C340.87 532.19 339.96 532.3 339.05 532.33C338.14 532.36 337.23 532.39 336.32 532.39C332.041 532.409 327.774 531.943 323.6 531C313.39 528.646 304.017 523.547 296.493 516.254C288.969 508.961 283.581 499.752 280.91 489.62C280.69 488.62 280.46 487.62 280.26 486.62C279.475 482.844 279.083 478.996 279.09 475.14C279.096 478.509 278.805 481.872 278.22 485.19C277.96 486.68 277.63 488.12 277.22 489.58C274.025 501.843 266.852 512.7 256.824 520.449C246.797 528.198 234.483 532.402 221.81 532.402C209.137 532.402 196.823 528.198 186.796 520.449C176.768 512.7 169.595 501.843 166.4 489.58C165.807 487.314 165.363 485.013 165.07 482.69C164.74 480.187 164.577 477.664 164.58 475.14C164.568 477.728 164.395 480.313 164.06 482.88C163.747 485.137 163.303 487.374 162.73 489.58C159.62 501.432 152.797 511.977 143.26 519.67C133.722 527.363 121.972 531.799 109.73 532.33C108.92 532.33 108.11 532.39 107.3 532.39C92.139 532.374 77.6038 526.343 66.8852 515.62C56.1666 504.898 50.1406 490.361 50.13 475.2V475.11H50V420.23C49.9961 413.957 51.2287 407.744 53.6275 401.948C56.0263 396.152 59.5441 390.885 63.9798 386.449C68.4155 382.014 73.6821 378.496 79.4784 376.097C85.2747 373.698 91.487 372.466 97.76 372.47H326.27C329.187 372.47 331.985 371.311 334.048 369.248C336.111 367.185 337.27 364.387 337.27 361.47C337.27 358.552 336.111 355.754 334.048 353.691C331.985 351.629 329.187 350.47 326.27 350.47H232.27C227.102 350.467 222.145 348.417 218.484 344.768C214.824 341.119 212.759 336.168 212.74 331V275.08C212.751 269.916 214.806 264.968 218.457 261.317C222.108 257.666 227.057 255.61 232.22 255.6H396Z" stroke="#B8ADD2" stroke-width="4.46" stroke-miterlimit="10"/>
<path d="M681.801 940.43L106.411 941.62C101.253 941.607 96.3103 939.552 92.6621 935.906C89.0139 932.26 86.9572 927.318 86.9414 922.16V528.68C93.4605 531.173 100.382 532.447 107.361 532.44C108.171 532.44 108.971 532.44 109.781 532.38C124.69 531.786 138.771 525.37 149.001 514.51" stroke="#B8ADD2" stroke-width="4.46" stroke-miterlimit="10"/>
<path d="M287.629 505.26C291.624 511.724 296.864 517.33 303.044 521.753C309.224 526.175 316.221 529.325 323.629 531.02" stroke="#B8ADD2" stroke-width="4.46" stroke-miterlimit="10"/>
<path d="M358.14 861.77H245.75" stroke="#B8ADD2" stroke-width="4.46" stroke-miterlimit="10"/>
<path d="M124.529 861.17C120.321 860.109 116.587 857.675 113.918 854.254C111.248 850.833 109.795 846.62 109.789 842.28V532.4C124.694 531.777 138.764 525.353 148.999 514.5" stroke="#B8ADD2" stroke-width="4.46" stroke-miterlimit="10"/>
<path d="M287.629 505.26C291.624 511.724 296.864 517.33 303.044 521.753C309.224 526.175 316.221 529.325 323.629 531.02" stroke="#B8ADD2" stroke-width="4.46" stroke-miterlimit="10"/>
<path d="M178 733.65C173.915 730.003 170.646 725.535 168.406 720.537C166.166 715.54 165.005 710.127 165 704.65V609.65C165.034 599.317 169.154 589.418 176.461 582.111C183.767 574.805 193.667 570.685 204 570.65H293.82C304.153 570.685 314.053 574.805 321.359 582.111C328.666 589.418 332.786 599.317 332.82 609.65V704.65C332.786 714.983 328.666 724.883 321.359 732.19C314.053 739.496 304.153 743.616 293.82 743.65H239.63" stroke="#B8ADD2" stroke-width="4.46" stroke-miterlimit="10"/>
<path d="M575.171 622.15C578.011 615.32 580.751 609.92 582.371 606.88C582.769 606.138 582.86 605.27 582.625 604.462C582.389 603.654 581.845 602.971 581.111 602.56L563.931 595.32C563.263 594.943 562.508 594.747 561.741 594.752C560.974 594.757 560.222 594.963 559.559 595.35C558.897 595.736 558.347 596.289 557.965 596.954C557.582 597.619 557.381 598.373 557.381 599.14C557.381 614.14 553.081 628.27 538.081 628.27C523.081 628.27 518.771 614.14 518.771 599.14V598.49C518.774 597.751 518.59 597.023 518.237 596.373C517.884 595.724 517.372 595.174 516.75 594.775C516.128 594.376 515.415 594.141 514.677 594.091C513.94 594.041 513.201 594.178 512.531 594.49L495.001 601C494.568 601.199 494.184 601.492 493.878 601.857C493.572 602.222 493.35 602.65 493.23 603.112C493.109 603.573 493.092 604.055 493.181 604.523C493.269 604.992 493.461 605.434 493.741 605.82L493.981 606.15C503.387 619.287 509.157 634.675 510.708 650.758C512.258 666.841 509.534 683.048 502.811 697.74L496.621 711.34C496.184 712.302 495.996 713.357 496.073 714.411C496.15 715.464 496.49 716.481 497.062 717.369C497.634 718.256 498.42 718.986 499.348 719.491C500.275 719.997 501.315 720.261 502.371 720.26H578.621C579.694 720.259 580.749 719.985 581.687 719.462C582.624 718.94 583.413 718.188 583.979 717.276C584.544 716.364 584.868 715.323 584.919 714.251C584.97 713.179 584.747 712.112 584.271 711.15L577.801 698.09C571.963 686.355 568.708 673.504 568.254 660.405C567.8 647.306 570.159 634.261 575.171 622.15Z" stroke="#B8ADD2" stroke-width="4.46" stroke-miterlimit="10"/>
<path d="M510.93 665.47H568.6" stroke="#B8ADD2" stroke-width="4.46" stroke-miterlimit="10"/>
<path d="M523.93 665.48C524.2 675.3 524.03 700.58 515.93 720.22" stroke="#B8ADD2" stroke-width="4.46" stroke-miterlimit="10"/>
<path d="M563.529 720.22C555.439 700.58 555.279 675.3 555.529 665.48" stroke="#B8ADD2" stroke-width="4.46" stroke-miterlimit="10"/>
<path d="M539.77 720.22V665.48" stroke="#B8ADD2" stroke-width="4.46" stroke-miterlimit="10"/>
<path d="M303.379 640.21L284.729 651L279.579 644.64L283.789 711.39C283.852 712.525 283.682 713.661 283.291 714.728C282.899 715.795 282.294 716.772 281.513 717.597C280.731 718.423 279.79 719.08 278.745 719.529C277.701 719.979 276.576 720.21 275.439 720.21H219.559C218.416 720.209 217.285 719.975 216.236 719.52C215.188 719.065 214.243 718.4 213.462 717.566C212.68 716.732 212.078 715.746 211.692 714.67C211.306 713.594 211.145 712.45 211.219 711.31L216.219 642.65L211.119 649L194.449 638.21C194.449 638.08 194.449 637.96 194.449 637.84C195.159 623.32 209.669 604.18 224.209 604.18H234.539C234.839 604.76 235.102 605.358 235.329 605.97C239.919 618.41 259.329 617.97 263.229 605.5C263.369 605.04 263.519 604.59 263.679 604.18H270.209C286.499 604.18 300.689 623.67 303.289 639.74C303.339 639.92 303.359 640.07 303.379 640.21Z" stroke="#B8ADD2" stroke-width="4.46" stroke-miterlimit="10"/>
<path d="M260.578 319.83C252.238 319.83 247.648 313.57 247.648 306.11C247.648 298.29 252.758 292.06 261.018 292.06C269.678 292.06 274.068 298.49 274.068 305.67C274.068 314.33 268.878 319.83 260.618 319.83H260.578ZM260.938 314.13C264.408 314.13 266.438 310.77 266.438 305.91C266.438 301.28 264.368 297.77 260.858 297.77C257.348 297.77 255.268 301.28 255.268 305.95C255.268 310.62 257.388 314.13 260.858 314.13H260.938Z" fill="#D4CEE4"/>
<path d="M277.891 316.38V297.78C277.891 297.086 278.028 296.398 278.293 295.757C278.559 295.116 278.949 294.533 279.441 294.043C279.932 293.553 280.515 293.164 281.157 292.899C281.799 292.634 282.486 292.499 283.181 292.5C284.15 292.499 285.1 292.766 285.928 293.271C286.755 293.775 287.427 294.498 287.871 295.36L290.661 300.76C292.281 303.801 293.695 306.948 294.891 310.18H295.001C294.607 306.427 294.423 302.654 294.451 298.88V295.51C294.451 294.714 294.767 293.951 295.329 293.389C295.892 292.826 296.655 292.51 297.451 292.51H298.001C298.796 292.51 299.559 292.826 300.122 293.389C300.685 293.951 301.001 294.714 301.001 295.51V316.38C301.001 317.176 300.685 317.939 300.122 318.501C299.559 319.064 298.796 319.38 298.001 319.38H295.301C294.746 319.381 294.202 319.228 293.729 318.939C293.256 318.649 292.872 318.234 292.621 317.74L288.871 310.44C287.391 307.6 285.641 303.97 284.361 300.74H284.201C284.401 304.37 284.481 308.4 284.481 312.74V316.35C284.481 317.146 284.165 317.909 283.602 318.471C283.039 319.034 282.276 319.35 281.481 319.35H280.921C280.527 319.354 280.136 319.28 279.77 319.133C279.405 318.986 279.072 318.768 278.79 318.493C278.509 318.217 278.285 317.888 278.13 317.526C277.976 317.163 277.895 316.774 277.891 316.38Z" fill="#D4CEE4"/>
<path d="M309 292.5H310.19C310.986 292.5 311.749 292.816 312.311 293.379C312.874 293.941 313.19 294.704 313.19 295.5V310.35C313.19 311.146 313.506 311.909 314.069 312.471C314.631 313.034 315.394 313.35 316.19 313.35H320.5C321.296 313.35 322.059 313.666 322.621 314.229C323.184 314.791 323.5 315.554 323.5 316.35C323.5 317.146 323.184 317.909 322.621 318.471C322.059 319.034 321.296 319.35 320.5 319.35H309C308.204 319.35 307.441 319.034 306.879 318.471C306.316 317.909 306 317.146 306 316.35V295.51C305.999 295.115 306.075 294.724 306.226 294.359C306.376 293.994 306.596 293.662 306.875 293.382C307.154 293.103 307.485 292.881 307.85 292.729C308.214 292.578 308.605 292.5 309 292.5Z" fill="#D4CEE4"/>
<path d="M334.32 296.11V315.78C334.32 316.74 333.938 317.661 333.26 318.34C332.581 319.019 331.66 319.4 330.7 319.4C329.742 319.397 328.823 319.015 328.147 318.336C327.47 317.658 327.09 316.738 327.09 315.78V296.11C327.09 295.636 327.183 295.167 327.365 294.729C327.546 294.291 327.812 293.893 328.147 293.557C328.482 293.222 328.88 292.956 329.318 292.775C329.756 292.593 330.226 292.5 330.7 292.5C331.658 292.5 332.577 292.88 333.256 293.557C333.935 294.233 334.317 295.152 334.32 296.11Z" fill="#D4CEE4"/>
<path d="M339.262 316.1V297.21C339.262 296.589 339.385 295.974 339.623 295.401C339.862 294.827 340.211 294.307 340.652 293.869C341.092 293.431 341.615 293.085 342.19 292.85C342.765 292.615 343.381 292.496 344.002 292.5H344.932C345.795 292.5 346.643 292.738 347.38 293.188C348.117 293.638 348.717 294.282 349.112 295.05L352.062 300.76C353.678 303.803 355.091 306.95 356.292 310.18H356.412C356.014 306.427 355.827 302.654 355.852 298.88V295.79C355.852 295.357 355.937 294.929 356.103 294.529C356.269 294.129 356.512 293.766 356.819 293.46C357.125 293.155 357.489 292.912 357.89 292.748C358.29 292.583 358.719 292.499 359.152 292.5C359.584 292.5 360.012 292.585 360.411 292.751C360.81 292.916 361.173 293.158 361.478 293.464C361.784 293.769 362.026 294.132 362.191 294.531C362.357 294.93 362.442 295.358 362.442 295.79V314.69C362.442 315.939 361.945 317.137 361.062 318.021C360.179 318.904 358.981 319.4 357.732 319.4C356.865 319.4 356.016 319.161 355.277 318.709C354.538 318.258 353.937 317.611 353.542 316.84L350.272 310.46C348.792 307.62 347.032 303.99 345.762 300.76H345.602C345.802 304.39 345.882 308.42 345.882 312.76V316.09C345.882 316.965 345.534 317.805 344.915 318.424C344.296 319.042 343.457 319.39 342.582 319.39C342.147 319.393 341.717 319.31 341.315 319.146C340.913 318.982 340.547 318.74 340.239 318.434C339.93 318.129 339.685 317.765 339.518 317.365C339.35 316.964 339.263 316.534 339.262 316.1Z" fill="#D4CEE4"/>
<path d="M381.361 308.54H377.091C376.765 308.54 376.443 308.604 376.143 308.729C375.843 308.853 375.57 309.036 375.341 309.267C375.111 309.497 374.929 309.77 374.806 310.071C374.682 310.372 374.619 310.694 374.621 311.02C374.621 311.675 374.881 312.303 375.344 312.766C375.807 313.229 376.436 313.49 377.091 313.49H382.521C383.292 313.49 384.033 313.796 384.578 314.342C385.124 314.888 385.431 315.628 385.431 316.4V316.48C385.432 316.863 385.358 317.242 385.212 317.596C385.066 317.95 384.852 318.272 384.582 318.544C384.311 318.815 383.99 319.03 383.637 319.177C383.283 319.324 382.904 319.4 382.521 319.4H369.871C369.545 319.4 369.222 319.335 368.922 319.211C368.621 319.086 368.347 318.904 368.117 318.673C367.887 318.443 367.704 318.17 367.579 317.869C367.455 317.568 367.391 317.245 367.391 316.92V294.58C367.391 293.922 367.652 293.291 368.117 292.826C368.582 292.361 369.213 292.1 369.871 292.1H382.001C382.383 292.1 382.761 292.175 383.114 292.321C383.467 292.467 383.788 292.682 384.058 292.952C384.329 293.222 384.543 293.543 384.689 293.896C384.835 294.249 384.911 294.627 384.911 295.01V295.1C384.908 295.87 384.6 296.607 384.055 297.151C383.509 297.694 382.771 298 382.001 298H377.001C376.377 298 375.78 298.247 375.339 298.688C374.898 299.129 374.651 299.726 374.651 300.35C374.651 300.973 374.898 301.571 375.339 302.011C375.78 302.452 376.377 302.7 377.001 302.7H381.391C381.774 302.7 382.153 302.775 382.507 302.922C382.86 303.069 383.181 303.284 383.452 303.555C383.722 303.827 383.936 304.149 384.082 304.503C384.228 304.857 384.302 305.237 384.301 305.62C384.302 306.005 384.227 306.387 384.079 306.743C383.932 307.099 383.715 307.423 383.441 307.694C383.168 307.966 382.843 308.181 382.486 308.326C382.129 308.471 381.746 308.544 381.361 308.54Z" fill="#D4CEE4"/>
<path d="M396.999 315.52C397.094 315.126 397.268 314.755 397.51 314.43C397.752 314.105 398.058 313.832 398.408 313.628C398.759 313.425 399.147 313.294 399.549 313.245C399.952 313.195 400.36 313.227 400.749 313.34C402.053 313.697 403.398 313.882 404.749 313.89C407.229 313.89 408.419 313.05 408.419 311.69C408.419 310.33 407.229 309.69 404.189 308.62C399.649 306.99 396.609 304.51 396.609 300.52C396.609 295.77 400.609 292.1 407.429 292.1C408.901 292.09 410.369 292.238 411.809 292.54C412.195 292.63 412.558 292.796 412.877 293.03C413.196 293.263 413.465 293.559 413.667 293.899C413.868 294.239 413.999 294.616 414.051 295.009C414.103 295.401 414.075 295.799 413.969 296.18C413.784 296.923 413.315 297.564 412.662 297.964C412.009 298.364 411.226 298.492 410.479 298.32C409.453 298.084 408.403 297.967 407.349 297.97C405.149 297.97 403.959 298.76 403.959 299.97C403.959 301.33 405.389 301.85 408.779 303.12C413.609 304.92 415.779 307.48 415.779 311.23C415.779 315.85 412.179 319.8 404.319 319.8C402.552 319.792 400.792 319.567 399.079 319.13C398.35 318.915 397.729 318.431 397.343 317.775C396.957 317.12 396.834 316.343 396.999 315.6V315.52Z" fill="#D4CEE4"/>
<path d="M421.902 298.57H421.102C420.306 298.57 419.543 298.254 418.98 297.692C418.418 297.129 418.102 296.366 418.102 295.57C418.102 294.775 418.418 294.012 418.98 293.449C419.543 292.886 420.306 292.57 421.102 292.57H436.102C436.897 292.57 437.66 292.886 438.223 293.449C438.785 294.012 439.102 294.775 439.102 295.57C439.102 296.366 438.785 297.129 438.223 297.692C437.66 298.254 436.897 298.57 436.102 298.57H435.182C434.386 298.57 433.623 298.886 433.06 299.449C432.498 300.012 432.182 300.775 432.182 301.57V316.33C432.182 317.126 431.865 317.889 431.303 318.452C430.74 319.014 429.977 319.33 429.182 319.33H428.002C427.206 319.33 426.443 319.014 425.88 318.452C425.318 317.889 425.002 317.126 425.002 316.33V301.6C425.006 301.195 424.928 300.794 424.773 300.419C424.618 300.045 424.388 299.706 424.099 299.423C423.809 299.14 423.465 298.919 423.087 298.772C422.71 298.625 422.306 298.557 421.902 298.57Z" fill="#D4CEE4"/>
<path d="M453.059 319.83C444.719 319.83 440.129 313.57 440.129 306.11C440.129 298.29 445.239 292.06 453.499 292.06C462.159 292.06 466.549 298.49 466.549 305.67C466.549 314.33 461.359 319.83 453.099 319.83H453.059ZM453.419 314.13C456.889 314.13 458.929 310.77 458.929 305.91C458.929 301.28 456.849 297.77 453.339 297.77C449.829 297.77 447.749 301.28 447.749 305.95C447.749 310.62 449.869 314.13 453.339 314.13H453.419Z" fill="#D4CEE4"/>
<path d="M470.379 295.2C470.375 294.557 470.611 293.936 471.04 293.458C471.468 292.979 472.06 292.677 472.699 292.61C474.489 292.43 476.699 292.3 479.079 292.3C483.189 292.3 486.139 292.86 488.179 294.41C489.053 295.099 489.749 295.988 490.207 297.003C490.665 298.018 490.871 299.128 490.809 300.24C490.765 301.655 490.307 303.027 489.491 304.184C488.675 305.341 487.537 306.233 486.219 306.75V306.87C487.979 307.66 488.979 309.38 489.649 311.69C489.939 312.69 490.239 313.82 490.519 314.92C490.658 315.448 490.674 316.001 490.566 316.536C490.458 317.072 490.229 317.575 489.895 318.008C489.562 318.441 489.134 318.791 488.644 319.033C488.154 319.274 487.615 319.399 487.069 319.4H486.999C486.231 319.403 485.482 319.158 484.866 318.7C484.249 318.242 483.797 317.596 483.579 316.86C483.279 315.86 482.949 314.65 482.579 313.17C481.859 309.98 480.859 309.3 478.629 309.3H477.469V315.82C477.472 316.751 477.111 317.647 476.462 318.316C475.814 318.985 474.93 319.374 473.999 319.4C473.529 319.4 473.064 319.307 472.63 319.127C472.197 318.947 471.803 318.683 471.471 318.351C471.139 318.018 470.877 317.623 470.698 317.189C470.519 316.755 470.428 316.289 470.429 315.82L470.379 295.2ZM477.519 304.11H479.399C482.109 304.11 483.669 302.8 483.669 300.8C483.669 298.8 482.349 297.65 479.959 297.65C479.142 297.623 478.325 297.677 477.519 297.81V304.11Z" fill="#D4CEE4"/>
<path d="M509 308.54H504.7C504.374 308.54 504.052 308.604 503.751 308.729C503.45 308.853 503.177 309.036 502.946 309.266C502.716 309.497 502.533 309.77 502.409 310.071C502.284 310.372 502.22 310.694 502.22 311.02C502.223 311.676 502.485 312.304 502.95 312.767C503.415 313.23 504.044 313.49 504.7 313.49H510.12C510.887 313.498 511.619 313.808 512.158 314.353C512.698 314.898 513 315.633 513 316.4V316.48C513 316.863 512.924 317.243 512.778 317.597C512.631 317.952 512.416 318.274 512.145 318.545C511.874 318.816 511.552 319.031 511.197 319.178C510.843 319.324 510.463 319.4 510.08 319.4H497.47C497.145 319.4 496.823 319.336 496.522 319.211C496.222 319.086 495.949 318.903 495.72 318.673C495.49 318.443 495.309 318.169 495.185 317.868C495.062 317.567 494.999 317.245 495 316.92V295.33C494.999 294.926 495.077 294.526 495.231 294.152C495.385 293.778 495.61 293.439 495.896 293.153C496.181 292.867 496.52 292.64 496.893 292.485C497.266 292.33 497.666 292.25 498.07 292.25H509.56C510.334 292.25 511.077 292.558 511.625 293.105C512.172 293.653 512.48 294.396 512.48 295.17V295.25C512.48 295.633 512.404 296.012 512.258 296.366C512.111 296.72 511.895 297.041 511.624 297.311C511.353 297.582 511.031 297.796 510.677 297.941C510.322 298.087 509.943 298.161 509.56 298.16H504.5C503.895 298.16 503.315 298.4 502.888 298.828C502.46 299.255 502.22 299.835 502.22 300.44C502.22 300.739 502.279 301.035 502.394 301.311C502.508 301.587 502.677 301.838 502.888 302.049C503.1 302.26 503.352 302.427 503.628 302.54C503.905 302.654 504.201 302.711 504.5 302.71H509C509.773 302.713 510.513 303.021 511.058 303.569C511.604 304.116 511.91 304.857 511.91 305.63C511.91 306.402 511.603 307.142 511.058 307.688C510.512 308.233 509.772 308.54 509 308.54Z" fill="#D4CEE4"/>
<path d="M184.61 781.63C187.74 779.09 191.38 776.75 193.9 773.94C200.96 766.04 198.24 755.94 202.77 747.3C208.28 736.73 225.62 729.35 242.65 730.3C241.036 735.286 239.931 740.422 239.35 745.63C238.85 750.26 240.06 755.42 238.73 759.9C236.56 767.12 224.99 771.49 223.58 778.9C222.34 785.45 230 791.57 228.73 798.23C227.39 805.38 216.4 809.33 212.36 815.65C209.06 820.79 210.61 826.65 208.9 832.14C206.83 838.74 199.65 844.58 190.24 847.32L189.31 847.59C185.852 844.629 182.885 841.139 180.52 837.25" stroke="#B8ADD2" stroke-width="4.46" stroke-miterlimit="10"/>
<path d="M232.25 738.62C206.85 764.53 194.9 819.16 190.25 847.34C189.87 849.72 189.53 851.9 189.25 853.86" stroke="#B8ADD2" stroke-width="4.46" stroke-miterlimit="10"/>
<path d="M234.588 869.74L222.898 935.08C222.574 936.915 221.613 938.576 220.184 939.772C218.756 940.969 216.952 941.623 215.088 941.62H153.998C152.118 941.62 150.3 940.952 148.866 939.736C147.432 938.52 146.476 936.835 146.168 934.98L135.398 869.74H234.588Z" stroke="#B8ADD2" stroke-width="4.46" stroke-miterlimit="10"/>
<path d="M245.7 862.45C245.537 864.436 244.633 866.288 243.167 867.639C241.702 868.989 239.783 869.739 237.79 869.74H132.42C130.446 869.739 128.544 869.003 127.083 867.676C125.623 866.348 124.709 864.525 124.52 862.56C124.415 861.46 124.542 860.349 124.891 859.3C125.241 858.251 125.806 857.287 126.549 856.469C127.293 855.651 128.199 854.997 129.21 854.55C130.221 854.102 131.314 853.871 132.42 853.87H237.79C238.886 853.871 239.97 854.098 240.974 854.539C241.978 854.979 242.88 855.622 243.623 856.428C244.367 857.234 244.935 858.185 245.292 859.222C245.649 860.258 245.788 861.357 245.7 862.45Z" stroke="#B8ADD2" stroke-width="4.46" stroke-miterlimit="10"/>
<path d="M155.311 766.42C164.641 794.69 170.011 826.11 172.751 846.11C173.038 846.226 173.332 846.327 173.631 846.41C176.327 843.669 178.647 840.582 180.531 837.23C182.852 833.348 184.74 829.224 186.161 824.93C188.161 818.53 184.641 811.93 183.801 805.43C182.801 797.54 185.801 789.24 184.641 781.58C184.641 781.35 184.561 781.09 184.491 780.82C184.491 780.71 184.491 780.55 184.411 780.4C184.024 778.445 183.289 776.575 182.241 774.88C179.081 769.7 172.941 766 169.241 761.05C162.461 751.91 165.051 740.22 160.711 730.2C159.414 727.256 157.579 724.581 155.301 722.31C147.681 714.47 134.961 709.63 122.391 710.5C123.96 716.315 125.031 722.253 125.591 728.25C126.041 733.63 124.901 739.61 126.161 744.79C128.251 753.17 139.381 758.23 140.711 766.79C141.931 774.37 134.581 781.5 135.761 789.19C137.091 797.49 147.601 802.07 151.491 809.38C154.651 815.32 153.171 822.18 154.841 828.5C154.962 829.006 155.115 829.504 155.301 829.99C155.301 829.99 158.391 841.83 172.741 846.1" stroke="#B8ADD2" stroke-width="4.46" stroke-miterlimit="10"/>
<path d="M173.74 853.84C173.48 851.52 173.14 848.97 172.74 846.15C170 826.15 164.63 794.73 155.3 766.46C149.39 748.52 141.89 731.84 132.41 720.18" stroke="#B8ADD2" stroke-width="4.46" stroke-miterlimit="10"/>
<path d="M169.262 761.08C169.262 761.08 170.932 735 185.002 727.08C199.072 719.16 198.772 763.61 198.772 763.61" stroke="#B8ADD2" stroke-width="4.46" stroke-miterlimit="10"/>
<path d="M184.608 781.63C184.608 781.63 181.728 766.71 186.768 752.04" stroke="#B8ADD2" stroke-width="4.46" stroke-miterlimit="10"/>
<path d="M342.641 399.19H102.441C93.881 399.19 86.9414 406.13 86.9414 414.69V420.68C86.9414 429.241 93.881 436.18 102.441 436.18H342.641C351.202 436.18 358.141 429.241 358.141 420.68V414.69C358.141 406.13 351.202 399.19 342.641 399.19Z" stroke="#B8ADD2" stroke-width="4.46" stroke-miterlimit="10"/>
<path d="M497.109 204.63C497.109 204.63 457.909 205.05 432.859 242.7C407.809 280.35 398.319 325.82 399.919 381L397.129 496.62C397.129 496.62 438.699 502.07 452.719 483.09C452.719 483.09 455.839 467.37 479.229 453.94L497.109 204.63Z" fill="#9B8CC0"/>
<path d="M469.611 737.83L483.341 749.83V756.72L479.341 758.09C479.341 758.09 460.341 760.04 461.851 756.59C463.361 753.14 469.611 737.83 469.611 737.83Z" fill="#2E2E2E"/>
<path d="M417.739 856.54L380.739 940.43H286.739C284.976 940.478 283.22 940.173 281.577 939.532C279.934 938.89 278.436 937.926 277.171 936.696C275.907 935.466 274.902 933.995 274.216 932.37C273.529 930.745 273.176 928.999 273.176 927.235C273.176 925.471 273.529 923.725 274.216 922.1C274.902 920.475 275.907 919.004 277.171 917.773C278.436 916.543 279.934 915.579 281.577 914.938C283.22 914.297 284.976 913.991 286.739 914.04C300.585 914.045 314.001 909.23 324.685 900.422C335.368 891.614 342.653 879.363 345.289 865.77L347.089 856.54C347.199 856 417.739 856.54 417.739 856.54Z" fill="black"/>
<path d="M672.402 853L624.712 933.95C623.875 935.524 622.727 936.912 621.339 938.031C619.95 939.149 618.35 939.975 616.633 940.458C614.917 940.941 613.12 941.072 611.352 940.841C609.584 940.611 607.881 940.025 606.346 939.118C604.81 938.212 603.475 937.003 602.419 935.566C601.364 934.129 600.61 932.493 600.204 930.757C599.798 929.021 599.748 927.22 600.057 925.464C600.366 923.708 601.028 922.033 602.002 920.54C609.032 908.616 611.698 894.619 609.544 880.946C607.389 867.273 600.548 854.774 590.192 845.59C586.882 842.66 584.192 840.28 582.672 838.95L631.962 796.56L672.402 853Z" fill="black"/>
<path d="M682.15 786.87H483.15V513.4H483.1C480.66 471.92 463.82 466.4 463.82 466.4L472.82 459.29C447.27 340.95 469.82 254.29 493.82 204.63C500.858 189.856 509.347 175.817 519.16 162.72C519.27 162.57 519.39 162.45 519.48 162.31C520.42 161.078 521.722 160.171 523.203 159.716C524.685 159.261 526.272 159.282 527.741 159.775C529.21 160.268 530.488 161.209 531.395 162.465C532.303 163.722 532.794 165.23 532.8 166.78L532.92 199.38C573.73 197.69 597.68 244.14 607.52 277.64C617.97 313.28 617.71 352.27 610.07 388.12C607.122 402.146 602.482 415.763 596.25 428.67L682.15 786.87Z" fill="#2E2E2E"/>
<path d="M452.721 166.34L408.391 220.22L424.941 220.13L397.741 249.83C390.111 252.24 347.121 758.07 347.121 758.07H366.251L416.931 497.26C410.336 498.066 403.656 497.84 397.131 496.59L400.001 353.4C402.001 307.45 420.461 234.53 466.531 211.68L466.701 211.59C467.811 189.12 473.641 174.4 473.641 174.4C461.751 177.05 452.721 166.34 452.721 166.34Z" fill="#2E2E2E"/>
<path d="M416.93 497.26L347.12 856.54L345.32 865.77C342.676 879.355 335.388 891.598 324.705 900.397C314.022 909.197 300.611 914.006 286.77 914C285.007 913.951 283.252 914.257 281.608 914.898C279.965 915.539 278.467 916.503 277.203 917.733C275.938 918.963 274.933 920.434 274.247 922.06C273.561 923.685 273.207 925.431 273.207 927.195C273.207 928.959 273.561 930.705 274.247 932.33C274.933 933.955 275.938 935.426 277.203 936.656C278.467 937.886 279.965 938.85 281.608 939.492C283.252 940.133 285.007 940.438 286.77 940.39H380.77L417.77 856.5L483.11 708.43" stroke="black" stroke-width="4.46" stroke-miterlimit="10"/>
<path d="M483.102 513.41V786.86H682.162L596.242 428.73" stroke="black" stroke-width="4.46" stroke-miterlimit="10"/>
<path d="M532.89 199.38C573.71 197.69 597.66 244.14 607.5 277.64C617.95 313.28 617.68 352.27 610.05 388.12C605.38 409.97 596.84 431.37 583.92 449.71C571.85 466.78 555.86 480.45 540.62 494.65C535.22 499.65 529.62 504.43 523.84 509.02L483.08 540.63M532.89 199.38L494.29 233.38L532.89 232.57L534 369.68C534.086 381.35 531.618 392.898 526.769 403.513C521.92 414.129 514.807 423.555 505.93 431.13L474.29 458.13C437.8 293.55 492.72 197.4 519.46 162.3C520.398 161.065 521.7 160.156 523.183 159.7C524.665 159.244 526.253 159.265 527.723 159.76C529.193 160.255 530.471 161.199 531.376 162.458C532.282 163.717 532.769 165.229 532.77 166.78L532.89 199.38Z" stroke="black" stroke-width="4.46" stroke-miterlimit="10"/>
<path d="M523.721 140.22C522.178 142.399 520.133 144.173 517.758 145.391C515.384 146.61 512.75 147.237 510.081 147.22C507.771 147.252 505.463 147.125 503.171 146.84C500.501 146.49 499.051 145.76 500.881 144.43C501.459 143.998 502.001 143.52 502.501 143C505.729 139.669 507.987 135.52 509.031 131C510.171 125.95 509.031 121 505.091 118.29C504.148 117.645 503.108 117.156 502.011 116.84C500.236 116.294 498.403 115.958 496.551 115.84C495.621 115.78 494.661 115.75 493.711 115.75C492.711 109.66 490.431 101.09 485.781 97.52C484.646 96.6478 483.296 96.1004 481.874 95.9366C480.453 95.7728 479.014 95.9986 477.711 96.59C470.711 99.26 460.321 101.32 454.781 100.25C454.438 99.901 454.214 99.4532 454.141 98.97C454.913 97.0397 455.805 95.1594 456.811 93.34C457.888 91.471 459.091 89.6769 460.411 87.97C470.341 75.32 487.701 69.37 503.411 72.33C505.918 72.7893 508.371 73.5064 510.731 74.47C517.951 78.33 523.011 84.47 526.291 91.89C535.301 116.74 529.291 132.24 523.721 140.22Z" fill="#9B8CC0"/>
<path d="M523.781 786.87L582.621 839C584.161 840.33 586.831 842.71 590.141 845.64C600.493 854.815 607.336 867.301 609.5 880.964C611.663 894.626 609.012 908.616 602.001 920.54C601.123 922.035 600.547 923.687 600.307 925.404C600.068 927.121 600.168 928.868 600.604 930.546C601.039 932.224 601.801 933.8 602.846 935.184C603.89 936.567 605.197 937.732 606.691 938.61C608.186 939.489 609.839 940.064 611.555 940.304C613.272 940.544 615.02 940.443 616.698 940.008C618.376 939.572 619.951 938.81 621.335 937.766C622.718 936.721 623.883 935.415 624.761 933.92L672.401 853L631.911 796.59L624.911 786.9" stroke="black" stroke-width="4.46" stroke-miterlimit="10"/>
<path d="M483.079 750.88L469.609 738.94" stroke="black" stroke-width="4.46" stroke-miterlimit="10"/>
<path d="M452.732 166.33L408.382 220.23L424.932 220.13L397.752 249.82C397.302 249.95 396.752 251.96 396.002 255.6C390.602 283.3 378.642 405.8 367.912 522.9C356.862 643.34 347.102 758.07 347.102 758.07H366.252" stroke="black" stroke-width="4.46" stroke-miterlimit="10"/>
<path d="M483.079 758.07H461.199" stroke="black" stroke-width="4.46" stroke-miterlimit="10"/>
<path d="M483.082 513.4C466.602 513.02 458.792 506.14 455.302 498.25C450.402 487.07 454.232 473.95 463.812 466.4L474.322 458.13" stroke="black" stroke-width="4.46" stroke-miterlimit="10"/>
<path d="M452.719 485.33C452.719 485.33 424.939 502.17 397.129 496.59L399.999 353.4C402.409 299.26 427.539 207.68 493.839 204.63" stroke="black" stroke-width="4.46" stroke-miterlimit="10"/>
<path d="M486.418 169.42C486.418 169.42 447.608 193.75 445.418 137.87C444.758 120.77 445.508 100.51 456.598 86.4301C466.528 73.7701 483.888 67.8201 499.598 70.7801C512.598 73.2501 520.878 81.2301 525.548 91.7801" stroke="black" stroke-width="4.46" stroke-miterlimit="10"/>
<path d="M483.079 513.81C483.095 513.674 483.095 513.537 483.079 513.4C480.649 471.92 463.809 466.4 463.809 466.4" stroke="black" stroke-width="2.97" stroke-miterlimit="10"/>
<path d="M472.269 174.7L466.469 211.68" stroke="black" stroke-width="4.46" stroke-miterlimit="10"/>
<path d="M453 91.7998C442.55 103.88 464.93 101.12 477 96.4998C487.42 92.4998 491.51 106.87 493 115.78" stroke="black" stroke-width="4.46" stroke-miterlimit="10"/>
<path d="M519.141 144.07V162.72" stroke="black" stroke-width="4.46" stroke-miterlimit="10"/>
<path d="M458.53 141.5C461.91 141.5 464.65 135.245 464.65 127.53C464.65 119.814 461.91 113.56 458.53 113.56C455.15 113.56 452.41 119.814 452.41 127.53C452.41 135.245 455.15 141.5 458.53 141.5Z" stroke="black" stroke-width="2.97" stroke-miterlimit="10"/>
<path d="M441.061 141.5C444.441 141.5 447.181 135.245 447.181 127.53C447.181 119.814 444.441 113.56 441.061 113.56C437.681 113.56 434.941 119.814 434.941 127.53C434.941 135.245 437.681 141.5 441.061 141.5Z" stroke="black" stroke-width="2.97" stroke-miterlimit="10"/>
<path d="M458.53 141.5C461.91 141.5 464.65 135.245 464.65 127.53C464.65 119.814 461.91 113.56 458.53 113.56C455.15 113.56 452.41 119.814 452.41 127.53C452.41 135.245 455.15 141.5 458.53 141.5Z" fill="black"/>
<path d="M441.061 141.5C444.441 141.5 447.181 135.245 447.181 127.53C447.181 119.814 444.441 113.56 441.061 113.56C437.681 113.56 434.941 119.814 434.941 127.53C434.941 135.245 437.681 141.5 441.061 141.5Z" fill="black"/>
<path d="M464.051 121.51C470.135 119.496 476.354 117.915 482.661 116.78C488.661 115.78 495.381 114.91 501.281 116.72C507.701 118.72 509.701 124.72 508.281 130.89C507.258 135.442 505.014 139.628 501.791 143C501.285 143.528 500.736 144.013 500.151 144.45C496.991 146.77 503.581 147.24 509.351 147.24C512.021 147.257 514.656 146.629 517.032 145.41C519.408 144.192 521.456 142.418 523.001 140.24C528.571 132.24 534.581 116.76 525.551 91.8203" stroke="black" stroke-width="4.46" stroke-miterlimit="10"/>
<path d="M498.888 116.14C496.982 117.078 495.401 118.567 494.351 120.415C493.301 122.262 492.83 124.382 492.998 126.5" stroke="black" stroke-width="4.46" stroke-miterlimit="10"/>
<path d="M890.908 941.72H122.398" stroke="black" stroke-width="4.46" stroke-miterlimit="10"/>
<path d="M910.679 -367.62C901.179 -352.54 889.139 -339.37 873.679 -330.16C864.592 -324.757 854.595 -321.059 844.179 -319.25C820.639 -315.12 795.849 -320.33 774.059 -331.25C766.909 -334.823 760.08 -339.005 753.649 -343.75C748.713 -347.415 743.995 -351.365 739.519 -355.58C737.519 -357.49 735.569 -359.45 733.689 -361.49C728.3 -367.275 723.524 -373.602 719.439 -380.37C713.745 -389.65 709.727 -399.859 707.569 -410.53L910.679 -367.62ZM945.379 -65.0003V-495.15H158.379V-66.9303L415.999 -65.6803L433.789 -65.6003L547.789 -65.0203L945.379 -65.0003ZM158.399 78.5997H160.189L158.399 76.4297V78.5997Z" stroke="#B8ADD2" stroke-width="5.77" stroke-miterlimit="10"/>
</g>
<defs>
<clipPath id="clip0_508_1338">
<rect width="1000" height="1000" fill="white"/>
</clipPath>
</defs>
</svg>
