<svg width="901" height="706" viewBox="0 0 901 706" fill="none" xmlns="http://www.w3.org/2000/svg">
<path d="M412.599 187.05C419.009 179.15 413.889 186.05 413.889 186.1C413.499 195.48 403.659 205.35 400.979 217.05C393.039 251.83 364.429 265.22 352.809 289.05C341.459 312.36 353.419 336.25 353.929 337.26C338.929 331.02 322.769 342.85 314.279 347.51C305.789 352.17 282.279 351.83 282.279 351.83C282.279 351.83 206.599 349.64 182.619 332.83C158.639 316.02 150.619 329.67 150.619 329.67C148.619 303.67 162.789 256.61 162.789 256.61C183.789 180.56 217.109 167.08 217.109 167.08L182.659 158.47C171.659 110.86 189.049 90.1098 204.499 81.1498C206.158 80.1868 208.064 79.7338 209.979 79.8498C233.029 81.3298 291.229 87.0298 326.499 107.85C328.819 124.85 340.499 135.91 346.679 140.17C353.159 144.7 370.929 143.43 373.369 133.84C373.548 133.107 373.772 132.385 374.039 131.68C382.839 139.94 408.999 161.79 412.599 187.05Z" fill="#4B4453"/>
<path d="M89.649 699.68C85.749 698.9 81.909 697.97 78.169 696.87C62.819 692.39 44.9594 684.72 38.8494 668.61C37.3173 664.447 36.8343 659.972 37.443 655.578C38.0517 651.185 39.7333 647.009 42.3394 643.42C45.103 639.594 48.9844 636.719 53.449 635.19C63.159 632.05 73.909 636.94 81.119 644.19C88.329 651.44 92.999 660.74 98.599 669.25C93.499 657.81 88.319 646.06 87.599 633.56C87.049 623.82 89.709 613.25 96.419 605.93C102.599 599.2 117.059 593.93 125.579 598.87C131.189 602.14 133.429 609.08 134.399 615.51C137.039 633.08 133.649 650.94 130.259 668.39C132.539 659.06 134.979 649.65 139.599 641.23C144.219 632.81 151.319 625.38 160.399 622.23C166.759 620.05 174.319 620.29 179.649 624.39C184.649 628.23 186.839 634.7 187.519 640.94C188.669 651.39 186.199 662 181.969 671.63C166.179 707.6 122.359 706.24 89.649 699.68Z" stroke="#D7C8EA" stroke-width="3.51" stroke-miterlimit="10"/>
<path d="M125.289 681.9C125.289 681.9 149.649 688.66 158.289 654.81" stroke="#D7C8EA" stroke-width="3.51" stroke-miterlimit="10"/>
<path d="M114.458 624.11C107.688 639.46 114.458 685.51 114.458 685.51" stroke="#D7C8EA" stroke-width="3.51" stroke-miterlimit="10"/>
<path d="M91.8895 680.85C90.8895 680.68 81.0995 679.31 72.7695 675.49C66.3195 672.49 60.7695 668.09 60.7695 661.58" stroke="#D7C8EA" stroke-width="3.51" stroke-miterlimit="10"/>
<path d="M74.7283 661.58C74.7283 661.58 65.2083 672.69 72.7283 675.49" stroke="#D7C8EA" stroke-width="3.51" stroke-miterlimit="10"/>
<path d="M68.4102 685.59C69.7602 683.71 76.8102 687.48 81.4102 678.59" stroke="#D7C8EA" stroke-width="3.51" stroke-miterlimit="10"/>
<path d="M111.45 644.43C109.04 642.62 102.72 644.43 101.82 629.98" stroke="#D7C8EA" stroke-width="3.51" stroke-miterlimit="10"/>
<path d="M112.5 658C112.5 658 123 654.17 123 645.91" stroke="#D7C8EA" stroke-width="3.51" stroke-miterlimit="10"/>
<path d="M135.148 682.09C135.148 682.09 140.638 667.9 142.898 661.58" stroke="#D7C8EA" stroke-width="3.51" stroke-miterlimit="10"/>
<path d="M152.211 668.54C152.211 668.54 158.211 673.32 165.481 665.65" stroke="#D7C8EA" stroke-width="3.51" stroke-miterlimit="10"/>
<path d="M152.209 661.58C152.209 661.58 148.319 659.9 150.129 650.13" stroke="#D7C8EA" stroke-width="3.51" stroke-miterlimit="10"/>
<path d="M707.609 556.92L753.079 606.55V384.76" stroke="#D7C8EA" stroke-width="3.51" stroke-miterlimit="10"/>
<path d="M753.078 575.1L794.178 538.98" stroke="#D7C8EA" stroke-width="3.51" stroke-miterlimit="10"/>
<path d="M753.081 485.13L725.051 453.76" stroke="#D7C8EA" stroke-width="3.51" stroke-miterlimit="10"/>
<path d="M753.078 456.9L773.628 444.52" stroke="#D7C8EA" stroke-width="3.51" stroke-miterlimit="10"/>
<path d="M753.078 397.63C753.078 393.86 739.078 367.29 739.078 367.29" stroke="#D7C8EA" stroke-width="3.51" stroke-miterlimit="10"/>
<path d="M708.59 622.72L710.72 622.82L722.62 623.03C727.004 623.098 731.185 624.888 734.261 628.012C737.337 631.137 739.06 635.345 739.06 639.73V702.93" stroke="#D7C8EA" stroke-width="3.51" stroke-miterlimit="10"/>
<path d="M605.359 591.73L640.129 629.68V460.06" stroke="#D7C8EA" stroke-width="3.51" stroke-miterlimit="10"/>
<path d="M649.931 597.03L640.141 605.63" stroke="#D7C8EA" stroke-width="3.51" stroke-miterlimit="10"/>
<path d="M640.129 536.83L618.699 512.83" stroke="#D7C8EA" stroke-width="3.51" stroke-miterlimit="10"/>
<path d="M640.129 515.229L655.849 505.77" stroke="#D7C8EA" stroke-width="3.51" stroke-miterlimit="10"/>
<path d="M640.13 469.9C640.13 467.03 629.41 446.71 629.41 446.71" stroke="#D7C8EA" stroke-width="3.51" stroke-miterlimit="10"/>
<path d="M671.821 549.73C667.721 543.29 665.611 536.731 670.301 532.591C673.181 530.061 679.951 529.76 685.071 528.23" stroke="#D7C8EA" stroke-width="3.51" stroke-miterlimit="10"/>
<path d="M629.408 703.41V655.07C629.409 651.718 628.092 648.5 625.742 646.11C623.393 643.719 620.2 642.347 616.848 642.29L607.739 642.15C607.739 642.15 521.999 639.85 582.999 575.35C643.999 510.85 579.298 540.76 586.388 519.15C593.478 497.54 615.388 500.39 620.158 480.86C623.248 468.09 619.369 454.37 620.299 441.42C620.909 432.68 624.518 421.65 630.158 414.91C637.418 406.24 646.629 412.54 651.429 420.69C659.579 434.6 655.898 451.63 655.848 466.85C655.848 478.63 659.408 488.85 668.968 496.03C677.538 502.5 687.518 508.33 691.078 519.15C691.28 519.752 691.427 520.371 691.518 521" stroke="#D7C8EA" stroke-width="3.51" stroke-miterlimit="10"/>
<path d="M650.141 656.28C650.136 654.389 650.509 652.517 651.235 650.771C651.962 649.026 653.029 647.442 654.374 646.113C655.719 644.784 657.315 643.736 659.069 643.03C660.823 642.324 662.7 641.974 664.591 642L671.591 642.12C684.591 641.58 696.361 644.79 708.311 630.12L708.611 629.75C698.281 629.09 653.461 624.75 649.951 597.03C648.951 589.51 651.261 581.93 654.441 575.18C663.581 555.75 677.861 538.6 690.901 521.68C696.671 514.2 703.161 507.32 707.991 499.13C711.071 493.9 715.941 485.03 710.341 479.77C703.731 473.57 684.551 477.87 682.201 467.46C681.906 465.621 682.106 463.736 682.781 462C692.051 433.73 720.721 437.45 726.951 411.93C731.001 395.25 725.951 377.31 727.111 360.36C727.931 348.93 732.641 334.53 740.041 325.7C749.501 314.36 761.561 322.6 767.821 333.28C778.471 351.46 773.671 373.71 773.601 393.64C773.601 409.05 778.281 422.35 790.771 431.76C801.961 440.22 815.031 447.85 819.671 462C824.721 477.41 799.671 473.38 792.551 479.58C779.691 490.83 806.011 516.73 813.341 524.15C831.701 542.77 867.161 576.47 842.221 607.15C826.601 626.35 811.221 622.15 794.221 622.84L785.001 622.7C782.535 622.668 780.087 623.126 777.8 624.048C775.512 624.969 773.431 626.336 771.675 628.068C769.92 629.8 768.526 631.863 767.574 634.138C766.622 636.413 766.132 638.854 766.131 641.32" stroke="#D7C8EA" stroke-width="3.51" stroke-miterlimit="10"/>
<path d="M376.09 310.13C370.455 300.25 365.6 289.946 361.57 279.31C366.96 267.99 376.66 258.92 376.66 258.92C422.61 210.78 392.96 167.84 392.96 167.84L403.35 159C414.49 179.55 420.27 203.68 425.54 230.21C426.75 236.3 428.27 242.9 430.13 249.78C371.1 258.77 375.84 308.09 376.09 310.13Z" fill="#4B4453"/>
<path d="M361.078 278C361.238 278.42 361.418 278.85 361.568 279.28C365.598 289.916 370.453 300.22 376.088 310.1C378.608 314.58 381.348 318.9 384.208 323.1C411.208 362.32 448.328 397.1 494.918 411.1C509.248 415.42 525.828 414.99 535.568 402C540.198 395.85 544.788 385.54 542.998 377.66C541.168 369.59 533.468 362.32 526.718 358.49C517.978 353.49 507.968 352.83 502.008 361.83C501.758 362.23 501.518 362.53 501.248 362.93" stroke="#333333" stroke-width="4.56" stroke-miterlimit="10"/>
<path d="M496.35 373.78L496.32 373.83" stroke="#333333" stroke-width="4.56" stroke-miterlimit="10"/>
<path d="M499.31 396.32C493.44 393.17 486.24 384.54 491.62 377.58C497.13 370.45 504.93 374.53 510.31 380.32C512.827 382.844 514.649 385.975 515.6 389.41" stroke="#333333" stroke-width="4.56" stroke-miterlimit="10"/>
<path d="M525.74 374.51C521.33 367.84 512.56 360.81 504.16 362.09C498.16 363.01 495.04 369.61 499.05 373.84" stroke="#333333" stroke-width="4.56" stroke-miterlimit="10"/>
<path d="M376.09 125.91C387.296 135.008 396.566 146.259 403.35 159C414.49 179.55 420.27 203.68 425.54 230.21C426.75 236.3 428.27 242.9 430.13 249.78C441.57 291.65 466.25 343.29 512.29 342.68L542.29 342.29C544.783 342.792 547.034 344.123 548.675 346.067C550.316 348.01 551.252 350.452 551.33 352.994C551.407 355.537 550.622 358.031 549.103 360.071C547.583 362.111 545.418 363.577 542.96 364.23C541.723 364.526 540.442 364.598 539.18 364.44L535.1 363.95" stroke="#333333" stroke-width="4.56" stroke-miterlimit="10"/>
<path d="M388.57 85.1299C389.69 91.2399 395.11 95.0299 400.51 93.8699" stroke="#333333" stroke-width="4.56" stroke-miterlimit="10"/>
<path d="M443.181 28.79C442.463 33.017 440.436 36.912 437.386 39.927C434.336 42.941 430.417 44.921 426.181 45.59C425.714 43.897 424.838 42.345 423.631 41.07C418.511 35.78 417.171 46.44 401.451 39.9C379.651 30.82 372.041 37.37 372.041 37.37C371.381 37.94 371.781 42.79 371.751 43.65C371.521 48.71 371.291 53.73 371.031 58.79C370.881 61.87 370.731 64.92 370.611 67.98C370.286 67.482 369.932 67.005 369.551 66.55C367.181 59.88 361.061 52.22 353.871 56.17C352.418 57.002 351.184 58.167 350.271 59.57C345.791 66.34 349.931 72.32 355.371 76.57C356.755 77.911 358.281 79.098 359.921 80.11C359.191 81.92 356.211 89.11 356.211 89.11C355.901 89.83 342.931 76.99 341.931 75.57C340.335 72.037 339.345 68.261 339.001 64.4C337.731 48.45 343.001 29.45 355.301 19.4C358.351 16.92 359.351 14.66 359.361 11.56C359.363 11.392 359.416 11.23 359.513 11.093C359.609 10.956 359.744 10.852 359.901 10.793C360.058 10.735 360.229 10.725 360.391 10.766C360.553 10.806 360.7 10.895 360.811 11.02C365.171 15.42 375.171 14.28 375.171 14.28C409.391 3.23001 422.171 17.92 429.321 20.19C432.258 21.087 435.416 20.931 438.251 19.75C438.482 20.7 438.97 21.568 439.661 22.259C440.353 22.951 441.221 23.439 442.171 23.67L442.101 25.3C442.044 26.553 442.426 27.787 443.181 28.79Z" fill="#9E7ACD"/>
<path d="M185.599 505.42C185.179 503.34 174.519 451.31 202.719 460.02C202.719 460.02 189.059 440.91 178.229 449.3C167.399 457.69 168.529 469.54 170.409 483.55C172.289 497.56 169.619 558.3 187.519 565.05C205.419 571.8 214.459 558.61 211.179 553.65C207.899 548.69 186.749 511.18 185.599 505.42Z" fill="#9E7ACD"/>
<path d="M490.251 678.43L485.371 670.41L588.551 680.07L600.721 702.67L504.791 703.4L490.251 678.43Z" fill="#9E7ACD"/>
<path d="M426.14 45.6301C430.375 44.9621 434.295 42.9811 437.345 39.9671C440.395 36.9531 442.422 33.0581 443.14 28.8301C443.424 27.2091 443.562 25.5661 443.55 23.9201H443.28C442.9 23.9171 442.523 23.8601 442.16 23.7501C441.21 23.5191 440.341 23.0311 439.65 22.3401C438.959 21.6481 438.471 20.7801 438.24 19.8301C438.091 19.3041 438.034 18.7561 438.07 18.2101L438.43 10.2801C438.43 10.2801 432.43 15.3801 425.29 13.1101C418.15 10.8401 405.36 -3.88993 371.14 7.20007C371.14 7.20007 361.14 8.33008 356.77 3.94008C356.659 3.81508 356.512 3.72708 356.35 3.68608C356.188 3.64608 356.017 3.65608 355.86 3.71408C355.703 3.77208 355.568 3.87708 355.471 4.01308C355.375 4.15008 355.322 4.31307 355.32 4.48007C355.32 7.57007 354.32 9.83007 351.26 12.3101C338.95 22.3101 333.7 41.3101 334.96 57.3101C335.595 63.9451 337.983 70.2921 341.88 75.7001C342.88 77.1201 355.88 89.9601 356.16 89.2401C356.16 89.2401 359.16 82.0401 359.87 80.2401L360.04 79.8401C359.92 79.7701 359.77 79.6801 359.64 79.6201C358.141 78.7371 356.698 77.7621 355.32 76.7001C349.88 72.4301 345.74 66.4501 350.22 59.7001C351.133 58.2971 352.367 57.1321 353.82 56.3001C361.01 52.3501 367.13 60.0101 369.5 66.6801C369.963 67.9541 370.282 69.2751 370.45 70.6201C370.45 69.7801 370.52 68.9701 370.56 68.1301C370.68 65.0701 370.83 62.0201 370.98 58.9401C371.24 53.8801 371.47 48.8601 371.7 43.8001C371.7 42.9401 371.33 38.0901 371.99 37.5201C371.99 37.5201 379.6 30.9701 401.4 40.0501C417.12 46.5901 418.46 35.9301 423.58 41.2201C424.787 42.4951 425.663 44.0471 426.13 45.7401C426.277 46.2851 426.384 46.8401 426.45 47.4001C426.459 47.4731 426.459 47.5471 426.45 47.6201C426.6 48.8401 426.71 50.0701 426.82 51.2701C427.71 62.8601 427.25 75.0501 423.41 86.1201C418.76 99.5401 404.98 113.4 389.35 108.33C384.538 106.536 380.035 104.006 376 100.83" stroke="#333333" stroke-width="4.56" stroke-miterlimit="10"/>
<path d="M326.18 98.1099L343.8 77.6899" stroke="#333333" stroke-width="4.56" stroke-miterlimit="10"/>
<path d="M391.768 75.8102C393.53 75.8102 394.958 74.3812 394.958 72.6202C394.958 70.8582 393.53 69.4302 391.768 69.4302C390.006 69.4302 388.578 70.8582 388.578 72.6202C388.578 74.3812 390.006 75.8102 391.768 75.8102Z" fill="#333333"/>
<path d="M416.268 74.65C418.03 74.65 419.458 73.221 419.458 71.46C419.458 69.698 418.03 68.27 416.268 68.27C414.506 68.27 413.078 69.698 413.078 71.46C413.078 73.221 414.506 74.65 416.268 74.65Z" fill="#333333"/>
<path d="M407.591 64.6699C407.591 64.6699 410.591 75.4999 410.921 76.5999C412.031 80.1299 404.871 79.3399 404.871 79.3399" stroke="#333333" stroke-width="4.56" stroke-miterlimit="10"/>
<path d="M402.759 51.0002C402.759 51.0002 391.949 44.8802 384.199 52.4802" stroke="#333333" stroke-width="4.56" stroke-miterlimit="10"/>
<path d="M393.368 78.5398C399.653 78.5398 404.748 73.4448 404.748 67.1598C404.748 60.8748 399.653 55.7798 393.368 55.7798C387.083 55.7798 381.988 60.8748 381.988 67.1598C381.988 73.4448 387.083 78.5398 393.368 78.5398Z" stroke="#333333" stroke-width="4.56" stroke-miterlimit="10"/>
<path d="M422.169 78.97C428.454 78.97 433.549 73.875 433.549 67.59C433.549 61.305 428.454 56.21 422.169 56.21C415.884 56.21 410.789 61.305 410.789 67.59C410.789 73.875 415.884 78.97 422.169 78.97Z" stroke="#333333" stroke-width="4.56" stroke-miterlimit="10"/>
<path d="M422.172 60.2998H422.282C424.167 60.3818 425.947 61.1928 427.247 62.5618C428.547 63.9308 429.266 65.7498 429.252 67.6378C429.238 69.5248 428.491 71.3338 427.17 72.6828C425.85 74.0318 424.058 74.8158 422.172 74.8698H422.062C420.13 74.8408 418.288 74.0458 416.941 72.6608C415.595 71.2748 414.854 69.4118 414.881 67.4798C414.917 65.5678 415.701 63.7458 417.064 62.4048C418.426 61.0628 420.259 60.3068 422.172 60.2998ZM422.172 58.0198C419.633 58.0008 417.192 58.9918 415.384 60.7728C413.576 62.5548 412.55 64.9818 412.532 67.5198C412.513 70.0578 413.503 72.4988 415.285 74.3068C417.067 76.1148 419.493 77.1408 422.032 77.1598H422.172C424.71 77.1778 427.151 76.1878 428.959 74.4058C430.767 72.6248 431.793 70.1978 431.812 67.6598C431.83 65.1218 430.84 62.6798 429.058 60.8718C427.276 59.0638 424.85 58.0378 422.312 58.0198H422.172Z" fill="white"/>
<path d="M404.75 64.5699L410.78 64.0898" stroke="#333333" stroke-width="4.56" stroke-miterlimit="10"/>
<path opacity="0.53" d="M393.368 76.7898C398.687 76.7898 402.998 72.4788 402.998 67.1598C402.998 61.8418 398.687 57.5298 393.368 57.5298C388.05 57.5298 383.738 61.8418 383.738 67.1598C383.738 72.4788 388.05 76.7898 393.368 76.7898Z" fill="white"/>
<path opacity="0.53" d="M422.169 77.22C427.488 77.22 431.799 72.908 431.799 67.59C431.799 62.271 427.488 57.96 422.169 57.96C416.851 57.96 412.539 62.271 412.539 67.59C412.539 72.908 416.851 77.22 422.169 77.22Z" fill="white"/>
<path d="M274.14 530.4C216.93 472.92 189.94 409.87 181.82 350.5C180.934 344.046 180.267 337.646 179.82 331.3" stroke="#333333" stroke-width="4.56" stroke-miterlimit="10"/>
<path d="M214.262 168.56C214.532 168.07 214.772 167.56 215.052 167.13" stroke="#333333" stroke-width="4.56" stroke-miterlimit="10"/>
<path d="M312.781 385.32C312.781 385.32 388.841 496.53 365.181 570.1C353.181 607.36 311.361 625 275.361 609.64C246.361 597.27 209.601 567.64 182.621 497.99" stroke="#333333" stroke-width="4.56" stroke-miterlimit="10"/>
<path d="M268.002 524.11L194.352 451.82C192.376 449.866 189.867 448.539 187.139 448.007C184.412 447.475 181.588 447.761 179.022 448.83C176.457 449.899 174.265 451.702 172.722 454.014C171.18 456.325 170.355 459.041 170.352 461.82L174.692 543C175.132 551.34 179.062 559.33 185.962 564.05C192.862 568.77 202.302 570 213.332 556.71" stroke="#333333" stroke-width="4.56" stroke-miterlimit="10"/>
<path d="M326.182 98.1102C287.636 84.5362 247.484 76.0542 206.742 72.8802C204.002 72.6402 201.232 72.5202 198.492 72.4602C182.592 72.1702 166.764 74.6612 151.722 79.8202C129.632 87.3402 109.722 100.09 91.932 115.03C77.352 127.26 63.662 140.03 52.642 155.71C43.9034 168.257 36.0638 181.407 29.1816 195.06C28.3916 196.64 26.8116 198.47 24.8016 197.74C23.9045 197.332 23.1037 196.739 22.4516 196C19.7116 193.14 18.0416 192.23 14.6316 190.16C4.23158 183.92 0.0615851 195.4 3.92158 203.55C7.06159 210.21 12.7816 215.55 19.3216 218.98C29.6926 224.226 41.5507 225.751 52.912 223.3C73.302 218.7 81.152 200.3 94.212 186.24C101.952 177.756 110.711 170.263 120.292 163.93C139.432 151.45 160.152 152.61 182.642 158.54L223.352 169.35C289.082 182.13 297.602 132.92 297.602 132.92" stroke="#333333" stroke-width="4.56" stroke-miterlimit="10"/>
<path d="M369.54 531.56C372.43 534.18 375.41 536.79 378.43 539.35C442.57 594 492.63 681.64 502.4 699.44C502.937 700.422 503.73 701.241 504.695 701.81C505.66 702.379 506.76 702.676 507.88 702.67H600.72L593.72 687.36C592.652 685.04 590.988 683.044 588.897 681.575C586.807 680.107 584.365 679.218 581.82 679L546.25 675.84L513.54 590.33C489.1 525.73 441.48 445.57 390.72 398.74C366.32 376.22 346.72 362.92 336.86 349.9L336.77 349.81C334.224 346.575 332.271 342.915 331 339" stroke="#333333" stroke-width="4.56" stroke-miterlimit="10"/>
<path d="M359 280.14L359.09 280.05C360.52 278.41 362.01 276.71 363.6 274.94C364.3 274.15 365 273.36 365.73 272.57C374.435 263.068 382.242 252.781 389.05 241.84" stroke="#333333" stroke-width="4.56" stroke-miterlimit="10"/>
<path d="M546.249 675.83L531.539 674.67" stroke="#333333" stroke-width="4.56" stroke-miterlimit="10"/>
<path d="M326.18 98.1001C326.18 109.95 332.18 138.87 353.09 142.29C370.53 145.15 374.87 131.86 375.84 127.35C376.071 126.221 376.375 125.109 376.75 124.02L383.83 103.9" stroke="#333333" stroke-width="4.56" stroke-miterlimit="10"/>
<path d="M192.191 337C192.372 337.086 192.546 337.187 192.711 337.3" stroke="#333333" stroke-width="4.56" stroke-miterlimit="10"/>
<path d="M354 342.89C354.18 336.82 347 335.96 342.45 336.32C334.76 336.91 327.69 340.39 321.05 344.07C304 353.51 283.73 352.93 264.9 351.43C245.254 350.011 225.786 346.73 206.76 341.63C197.97 339.21 189.17 336.39 181.1 332.09C181.1 332.09 155.78 315.09 148.41 333.67" stroke="#333333" stroke-width="4.56" stroke-miterlimit="10"/>
<path d="M359.11 280C354.44 285.67 350.18 292.29 348.81 299.61C347.484 307.176 347.447 314.912 348.7 322.49C349.203 326.02 349.972 329.506 351 332.92C352 336.15 354.23 339.38 354 342.92C353.841 344.398 353.307 345.811 352.447 347.024C351.588 348.237 350.432 349.21 349.09 349.85C346.59 351.12 343.6 352.21 340.75 351.85C339.415 351.666 338.165 351.088 337.16 350.19C337.04 350.088 336.926 349.978 336.82 349.86" stroke="#333333" stroke-width="4.56" stroke-miterlimit="10"/>
<path d="M215.87 167.34C197.18 181.22 159.63 222.48 148.37 333.67C148.37 333.67 145.57 349.86 181.82 350.5" stroke="#333333" stroke-width="4.56" stroke-miterlimit="10"/>
<path d="M440.63 651.74C440.637 660.547 438.359 669.206 434.018 676.87C429.678 684.533 423.423 690.94 415.866 695.463C408.309 699.986 399.707 702.472 390.902 702.676C382.097 702.881 373.389 700.797 365.63 696.63C356.104 688.446 349.939 677.03 348.32 664.576C346.7 652.122 349.742 639.509 356.859 629.162C363.976 618.814 374.666 611.463 386.875 608.52C399.084 605.577 411.95 607.251 423 613.22C428.538 617.993 432.98 623.906 436.023 630.554C439.066 637.202 440.637 644.428 440.63 651.74Z" fill="#9E7ACD"/>
<path d="M440.63 651.74C440.637 660.547 438.359 669.206 434.018 676.87C429.678 684.533 423.423 690.94 415.866 695.463C408.309 699.986 399.707 702.472 390.902 702.676C382.097 702.881 373.389 700.797 365.63 696.63C356.104 688.446 349.939 677.03 348.32 664.576C346.7 652.122 349.742 639.509 356.859 629.162C363.976 618.814 374.666 611.463 386.875 608.52C399.084 605.577 411.95 607.251 423 613.22C428.538 617.993 432.98 623.906 436.023 630.554C439.066 637.202 440.637 644.428 440.63 651.74Z" fill="#9E7ACD"/>
<path d="M389.7 702.67C417.827 702.67 440.63 679.867 440.63 651.74C440.63 623.612 417.827 600.81 389.7 600.81C361.572 600.81 338.77 623.612 338.77 651.74C338.77 679.867 361.572 702.67 389.7 702.67Z" stroke="#333333" stroke-width="4.56" stroke-miterlimit="10"/>
<path d="M1 703.4H901" stroke="#333333" stroke-width="3.51" stroke-miterlimit="10"/>
<path d="M178.44 330.16C178.44 330.16 180.6 341.1 181.21 345.8C181.82 350.5 180.31 350.59 176.69 350.29C173.07 349.99 142.69 345.84 149.52 331.29C156.35 316.74 178.44 330.16 178.44 330.16Z" fill="#333333"/>
<path d="M334.129 338.63C334.129 338.63 328.679 340.401 337.299 348.901C345.919 357.401 353.959 342.901 353.959 342.901C353.959 342.901 353.569 336.1 343.189 336.99C332.809 337.88 334.129 338.63 334.129 338.63Z" fill="#333333"/>
</svg>
