<svg width="886" height="904" viewBox="0 0 886 904" fill="none" xmlns="http://www.w3.org/2000/svg">
<path d="M246.441 260C246.441 260 340.441 103.49 528.341 164.74C715.941 226 671.611 458.55 671.491 459.16C672.311 454.9 704.811 450.84 708.251 450.34C804.121 436.17 875.431 525.34 882.501 613.22C891.281 722.22 806.971 799.42 710.951 832.66" stroke="#9E7ACD" stroke-width="5.5" stroke-miterlimit="10"/>
<path d="M698.569 883.8C695.729 893.79 693.669 899.5 693.669 899.5H692.189C694.529 894.407 696.656 889.173 698.569 883.8Z" fill="#4B4453"/>
<path d="M437.002 489.51C437.002 489.51 433.622 510.03 430.122 528.61C420.122 528.72 410.122 528.8 400.232 528.88C395.232 500.74 400.662 478.7 407.112 464.01C415.242 482.55 427.522 488.19 437.002 489.51Z" fill="#9E7ACD"/>
<path d="M601.36 563.55C581.027 552.602 559.355 544.349 536.89 539L529.53 537.73C529.53 537.73 524.05 525.27 524.02 525.23C521.45 518.7 517.19 510.03 515.87 503.15C514.262 495.023 513.871 486.702 514.71 478.46C516.15 466.22 521.85 440.33 532.15 432.17C540.74 425.41 544.28 426.83 549.15 416.26C552.65 408.72 554.07 396.05 547.27 390.49C539.73 384.39 536.51 387.49 527.49 388.43C493.21 391.83 473.62 367.16 461.02 338.65C459.02 334.02 456.94 329.13 453.67 325.19C449.92 320.65 444.73 319.63 440.48 315.96C438.67 314.38 437.43 311.8 438.3 309.56C438.813 308.489 439.558 307.546 440.48 306.8C448.512 299.401 458.157 293.974 468.65 290.95C485.248 286.151 502.786 285.604 519.65 289.36C537.25 295.19 553.07 306.23 563.72 323.1C578.41 346.41 581.95 370.59 573.72 394.69C565.29 419.37 555.88 448.36 571.72 472.11C592.81 503.66 605.52 525.85 601.36 563.55Z" fill="#9E7ACD"/>
<path d="M430.16 528.61C420.16 528.72 410.16 528.8 400.27 528.88C324.91 529.27 252.78 528.22 177.18 541.78" stroke="#333333" stroke-width="5.5" stroke-miterlimit="10"/>
<path d="M528.34 537C531.21 537.63 534.05 538.29 536.89 539C547.961 541.676 558.86 545.015 569.53 549C580.476 553.073 591.114 557.932 601.36 563.54C601.371 563.53 601.385 563.525 601.4 563.525C601.415 563.525 601.429 563.53 601.44 563.54C617.559 572.274 632.457 583.094 645.75 595.72C656.864 606.549 666.473 618.822 674.32 632.21C674.388 632.261 674.44 632.33 674.47 632.41C680.835 643.096 686.362 654.259 691 665.8C704.84 699.89 712.69 739.14 713.89 778.2C714.98 815.09 710.12 851.82 698.62 883.8C696.706 889.173 694.58 894.407 692.24 899.5C692.09 899.89 691.89 900.24 691.74 900.63" stroke="#333333" stroke-width="5.5" stroke-miterlimit="10"/>
<path d="M571.789 900.13C571.789 900.13 571.789 900.05 571.789 900.01C571.853 899.844 571.903 899.674 571.939 899.5" stroke="#333333" stroke-width="5.5" stroke-miterlimit="10"/>
<path d="M545.398 675.25C545.398 675.25 567.158 685.82 581.458 718.82C588.648 735.41 593.978 757.72 593.668 787.22C593.668 787.22 593.668 787.22 593.668 787.3C593.508 806.11 591.028 827.83 585.268 852.86V853" stroke="#333333" stroke-width="5.5" stroke-miterlimit="10"/>
<path d="M133.59 256.31C137.43 241.78 143.59 226.8 148.22 220.5C155.5 210.7 165 201.36 177.22 202.2C185.07 202.71 192.78 207.05 193.13 215.65C193.46 224.98 183.62 235.34 180.46 244.11C177.46 252.57 176.09 262.42 177.67 271.32C179.25 280.22 187.24 287.17 195.86 289.08C199.13 289.941 202.607 289.47 205.53 287.77C213.97 282.43 212.2 268.21 211.86 259.82C211.46 250.41 211.47 239.77 219.5 233.33C225.4 228.6 234.35 231.74 238.7 236.94C246.26 245.94 246.63 259.49 247.01 270.57C248.14 303.95 242.21 335.95 222.77 364.05C212.77 378.56 202.47 391.58 198.42 409.38C185.82 464.7 184.42 503.05 177.18 559.23" stroke="#333333" stroke-width="5.5" stroke-miterlimit="10"/>
<path d="M329.82 901C291.18 791.18 309.48 671.2 309.48 671.2L101.92 677.78C93.083 678.06 84.289 676.442 76.13 673.036C67.971 669.63 60.636 664.514 54.621 658.035C48.605 651.555 44.048 643.861 41.2573 635.472C38.4663 627.082 37.5057 618.192 38.4405 609.4L89.28 424L100.28 384.45C103.788 372.005 102.985 358.74 98 346.81L92.82 334.45C92.82 334.45 83.43 315.3 104.48 317.1C115.8 318.1 127.03 322.91 136.53 328.95C143.99 333.7 155.37 342.89 151.85 353.08C147.69 365.08 131.38 368.08 121.8 361.33" stroke="#333333" stroke-width="5.5" stroke-miterlimit="10"/>
<path d="M97.481 317C97.481 317 79.701 277 128.481 287.35C177.261 297.7 188.941 351 151.711 345" stroke="#333333" stroke-width="5.5" stroke-miterlimit="10"/>
<path d="M113.558 285.06C113.558 285.06 97.9581 266.11 121.278 257.06C144.598 248.01 229.278 290.75 174.958 332.85" stroke="#333333" stroke-width="5.5" stroke-miterlimit="10"/>
<path d="M451.001 488.61C446.474 489.852 441.741 490.159 437.091 489.51C427.571 488.19 415.291 482.51 407.201 464.01C405.521 460.229 404.156 456.316 403.121 452.31C399.001 437 397.201 415.7 399.611 386C400.081 380.29 400.781 374.49 401.751 368.7C403.357 358.628 405.946 348.737 409.481 339.17C409.481 339.17 409.481 339.09 409.561 339.05C418.381 315.73 433.891 296.05 459.971 288.48C479.53 282.838 500.324 283.138 519.711 289.34C537.311 295.17 553.131 306.21 563.781 323.08C578.471 346.39 582.011 370.57 573.781 394.67C565.351 419.35 555.941 448.34 571.781 472.09C592.841 503.69 605.551 525.88 601.471 563.58" stroke="#333333" stroke-width="5.5" stroke-miterlimit="10"/>
<path d="M392.268 530.05C384.608 493.32 394.948 466.54 403.068 452.31" stroke="#333333" stroke-width="5.5" stroke-miterlimit="10"/>
<path d="M401.75 368.66C401.75 368.66 418.52 351.13 437.95 378.82" stroke="#333333" stroke-width="5.5" stroke-miterlimit="10"/>
<path d="M444.449 456.93C451.539 461.52 461.139 458.67 466.359 451.6C472.029 443.93 474.299 433.69 475.529 424.4C475.609 423.73 475.699 423.07 475.759 422.4C467.109 435.99 450.319 439.25 435.539 440.67C436.099 445.115 437.752 449.351 440.349 453C441.461 454.553 442.851 455.885 444.449 456.93Z" stroke="#333333" stroke-width="5.5" stroke-linecap="round" stroke-linejoin="round"/>
<path d="M521.462 518.11L521.422 518.07" stroke="#333333" stroke-width="5.5" stroke-miterlimit="10"/>
<path d="M455.488 363.27C455.488 363.27 461.188 354.04 480.668 360.84C500.148 367.64 500.378 378.75 500.378 378.75" stroke="#333333" stroke-width="5.5" stroke-miterlimit="10"/>
<path d="M411.211 386.22C411.211 386.22 420.211 381.67 427.261 386.22" stroke="#333333" stroke-width="5.5" stroke-miterlimit="10"/>
<path d="M459.711 390.41C459.711 390.41 468.711 385.86 475.711 390.41" stroke="#333333" stroke-width="5.5" stroke-miterlimit="10"/>
<path d="M437.001 489.51C437.001 489.51 433.621 510.03 430.121 528.61C429.611 531.25 429.121 533.85 428.681 536.42C426.391 548.93 424.561 560.05 424.481 563.42C423.901 591.42 450.371 607.57 475.941 607.3C511.821 606.91 532.801 573.53 529.421 540.1C527.211 534 524.951 527.9 522.741 521.8C519.901 513.98 516.211 506.37 514.611 498.13C513.198 490.012 513.043 481.725 514.151 473.56C515.591 461.36 517.961 443.17 528.261 435.01C536.851 428.25 545.821 423.81 550.721 413.24C554.221 405.7 554.061 395.99 547.261 390.43C539.721 384.33 527.791 385.07 518.771 385.96C460.591 391.91 450.911 333.02 435.171 324.75C422.271 317.94 412.591 333.22 409.561 338.89L409.441 339.13C409.436 339.187 409.411 339.24 409.371 339.28C408.821 340.28 408.551 340.95 408.551 340.95" stroke="#333333" stroke-width="5.5" stroke-miterlimit="10"/>
<path d="M435.511 393C435.511 393 429.431 412.9 429.901 415.88C430.371 418.86 437.461 416.78 437.461 416.78" stroke="#333333" stroke-width="5.5" stroke-miterlimit="10"/>
<path d="M483.154 414.002C492.468 404.703 492.298 389.431 482.773 379.89C473.249 370.349 457.977 370.152 448.663 379.45C439.349 388.749 439.519 404.021 449.043 413.562C458.568 423.103 473.839 423.3 483.154 414.002Z" stroke="#333333" stroke-width="5.5" stroke-miterlimit="10"/>
<path d="M422.367 406.612C431.681 397.314 431.511 382.042 421.986 372.501C412.462 362.96 397.19 362.763 387.876 372.061C378.561 381.359 378.732 396.631 388.256 406.172C397.781 415.713 413.052 415.91 422.367 406.612Z" stroke="#333333" stroke-width="5.5" stroke-miterlimit="10"/>
<path d="M404.591 370.81C407.246 370.798 409.874 371.342 412.305 372.408C414.737 373.474 416.918 375.038 418.708 376.999C420.498 378.959 421.858 381.274 422.699 383.792C423.54 386.31 423.843 388.977 423.591 391.62C423.169 396.064 421.101 400.19 417.792 403.188C414.484 406.185 410.175 407.837 405.711 407.82C403.055 407.832 400.427 407.287 397.996 406.222C395.564 405.156 393.383 403.592 391.593 401.631C389.803 399.67 388.443 397.356 387.602 394.838C386.761 392.319 386.458 389.653 386.711 387.01C387.132 382.566 389.2 378.44 392.509 375.442C395.817 372.445 400.126 370.792 404.591 370.81ZM404.591 368.05C399.446 368.037 394.482 369.947 390.673 373.404C386.864 376.862 384.484 381.618 384.001 386.74C383.485 392.393 385.189 398.025 388.752 402.444C392.314 406.864 397.457 409.724 403.091 410.42C403.953 410.523 404.822 410.576 405.691 410.58C410.84 410.6 415.811 408.694 419.627 405.235C423.442 401.777 425.826 397.017 426.311 391.89C426.826 386.237 425.122 380.605 421.559 376.185C417.997 371.766 412.854 368.906 407.221 368.21C406.358 368.107 405.49 368.054 404.621 368.05H404.591Z" fill="white"/>
<path d="M441.889 393.79L429.129 392.24" stroke="#333333" stroke-width="5.5" stroke-miterlimit="10"/>
<path d="M481.194 412.041C489.453 403.796 489.303 390.256 480.86 381.798C472.416 373.339 458.876 373.166 450.617 381.411C442.358 389.655 442.508 403.196 450.951 411.654C459.395 420.112 472.935 420.286 481.194 412.041Z" fill="#9E7ACD"/>
<path d="M420.417 404.658C428.679 396.41 428.53 382.863 420.082 374.401C411.635 365.939 398.088 365.766 389.826 374.014C381.563 382.263 381.712 395.809 390.16 404.271C398.607 412.734 412.154 412.907 420.417 404.658Z" fill="#9E7ACD"/>
<path d="M210.139 57.1598C181.139 58.6398 157.139 81.8798 154.829 110.8C154.14 118.869 155.139 126.993 157.763 134.655C160.386 142.316 164.578 149.347 170.069 155.3C174.118 159.754 178.842 163.544 184.069 166.53C185.432 167.317 186.721 168.227 187.919 169.25C195.745 173.201 204.387 175.266 213.154 175.28C221.921 175.294 230.57 173.256 238.409 169.33C239.549 168.271 240.815 167.358 242.179 166.61C247.619 163.499 252.536 159.55 256.749 154.91C256.856 154.759 256.973 154.615 257.099 154.48C264.739 145.831 269.656 135.119 271.233 123.687C272.81 112.256 270.976 100.613 265.962 90.2188C260.947 79.8248 252.976 71.1428 243.047 65.2618C233.118 59.3808 221.673 56.5618 210.149 57.1598H210.139ZM246.439 148.77C246.328 148.853 246.236 148.959 246.169 149.08C242.904 152.649 239.102 155.686 234.899 158.08C233.853 158.653 232.885 159.359 232.019 160.18C225.974 163.205 219.308 164.78 212.549 164.78C205.789 164.78 199.123 163.205 193.079 160.18C192.142 159.381 191.139 158.665 190.079 158.04C182.002 153.394 175.559 146.364 171.636 137.912C167.713 129.461 166.5 120.003 168.165 110.835C169.829 101.667 174.289 93.2388 180.933 86.7058C187.577 80.1738 196.08 75.8558 205.275 74.3468C214.469 72.8378 223.906 74.2098 232.29 78.2758C240.673 82.3418 247.594 88.9018 252.102 97.0558C256.61 105.211 258.485 114.561 257.469 123.823C256.453 133.085 252.597 141.806 246.429 148.79L246.439 148.77Z" fill="#9E7ACD"/>
<path d="M238.391 169.34C236.089 171.428 234.252 173.977 232.998 176.822C231.744 179.666 231.101 182.741 231.111 185.85V188.53C231.111 197.89 224.331 206.28 215.111 207.22C212.619 207.475 210.102 207.206 207.72 206.43C205.339 205.653 203.147 204.387 201.284 202.712C199.422 201.037 197.931 198.991 196.907 196.705C195.884 194.419 195.35 191.944 195.341 189.44V185.85C195.336 182.724 194.676 179.634 193.405 176.779C192.134 173.923 190.28 171.365 187.961 169.27C195.787 173.209 204.426 175.267 213.188 175.279C221.95 175.291 230.594 173.257 238.431 169.34H238.391Z" fill="#4B4453"/>
<path d="M238.391 169.34C236.089 171.428 234.252 173.977 232.998 176.822C231.744 179.666 231.101 182.741 231.111 185.85V188.53C231.111 197.89 224.331 206.28 215.111 207.22C212.619 207.475 210.102 207.206 207.72 206.43C205.339 205.653 203.147 204.387 201.284 202.712C199.422 201.037 197.931 198.991 196.907 196.705C195.884 194.419 195.35 191.944 195.341 189.44V185.85C195.336 182.724 194.676 179.634 193.405 176.779C192.134 173.923 190.28 171.365 187.961 169.27C195.787 173.209 204.426 175.267 213.188 175.279C221.95 175.291 230.594 173.257 238.431 169.34H238.391Z" stroke="#333333" stroke-width="5.5" stroke-miterlimit="10"/>
<path d="M271.779 115.67C271.81 129.978 266.578 143.798 257.079 154.5C256.96 154.629 256.85 154.766 256.749 154.91C252.53 159.558 247.603 163.51 242.149 166.62C240.795 167.377 239.533 168.29 238.389 169.34C230.552 173.258 221.908 175.291 213.146 175.279C204.384 175.267 195.746 173.209 187.919 169.27C186.724 168.231 185.431 167.31 184.059 166.52C174.4 160.967 166.522 152.779 161.346 142.914C156.17 133.048 153.909 121.913 154.829 110.81C156.047 95.7198 163.06 81.6888 174.397 71.6568C185.735 61.6248 200.516 56.3728 215.641 57.0018C230.767 57.6298 245.061 64.0908 255.527 75.0278C265.993 85.9658 271.818 100.531 271.779 115.67Z" stroke="#333333" stroke-width="5.5" stroke-miterlimit="10"/>
<path d="M196.651 175.28L183.231 130.8L179.871 118.2C179.871 117.821 179.996 117.453 180.226 117.152C180.457 116.852 180.78 116.636 181.146 116.538C181.512 116.44 181.9 116.465 182.25 116.61C182.6 116.755 182.892 117.012 183.081 117.34C186.081 122.64 190.821 129.29 195.541 129.12C203.371 128.84 196.941 105.07 190.541 107.56C184.141 110.05 196.411 125.76 209.051 127.72C221.691 129.68 218.231 108.43 209.051 107.59C199.871 106.75 206.201 124.65 222.701 127.72C239.201 130.79 236.121 112.62 231.651 108.99C227.181 105.36 228.571 126.32 238.931 129.68C242.211 130.75 244.821 128.46 246.101 125.61C246.841 123.95 246.461 115.55 244.941 118.14C241.841 123.45 241.231 130.08 239.711 135.94C236.481 148.34 231.541 160.21 228.711 172.72" stroke="#333333" stroke-width="5.5" stroke-miterlimit="10"/>
<path d="M108.449 901C115.529 897.68 768.449 901 768.449 901" stroke="#333333" stroke-width="5.5" stroke-miterlimit="10"/>
<path d="M213.158 36.23L212.578 1" stroke="#333333" stroke-width="7.34" stroke-miterlimit="10"/>
<path d="M145.968 69L121.578 43.5703" stroke="#333333" stroke-width="7.34" stroke-miterlimit="10"/>
<path d="M280.602 70.58L305.532 45.6797" stroke="#333333" stroke-width="7.34" stroke-miterlimit="10"/>
<path d="M654.34 852.94L655.19 853.02C654.73 853.1 654.19 853.18 653.72 853.29H653L585.29 852.94H577.64L463.88 852.36C463.45 852.36 463.02 852.36 462.59 852.36C462.488 852.379 462.383 852.379 462.28 852.36C462.28 852.36 462.28 852.36 462.21 852.36C461.494 852.367 460.779 852.316 460.07 852.21C466.155 851.522 471.92 849.126 476.7 845.3C477.45 844.67 478.22 844.07 478.92 843.39L479 843.31C479.163 843.178 479.317 843.034 479.46 842.88C485.242 837.162 488.704 829.508 489.18 821.39C489.18 821 489.18 820.57 489.18 820.18V819.56C489.146 811.982 486.503 804.646 481.698 798.786C476.892 792.926 470.215 788.898 462.79 787.38C462.779 787.37 462.765 787.365 462.75 787.365C462.736 787.365 462.721 787.37 462.71 787.38C461.97 787.19 461.12 787.07 460.34 786.95L462.01 786.84C462.283 786.82 462.557 786.82 462.83 786.84C463.29 786.84 463.72 786.84 464.15 786.84L560.26 787.34L577.95 787.42L593.65 787.5H600.96H601.85C601.97 787.5 602.04 787.5 602.16 787.5C610.266 788.317 617.781 792.11 623.252 798.147C628.723 804.183 631.762 812.033 631.78 820.18C631.78 821.73 631.663 823.278 631.43 824.81C630.297 832.423 626.532 839.399 620.79 844.525C615.049 849.651 607.693 852.604 600 852.87C599.65 852.87 599.3 852.87 599 852.87H656.1C655.27 852.9 654.73 852.9 654.34 852.94Z" fill="white"/>
<path d="M501.428 892.68C503.588 894.851 506.156 896.574 508.984 897.748C511.813 898.922 514.846 899.524 517.908 899.52H462.128C451.448 899.52 445.648 896.92 441.418 892.68C437.048 888.307 434.589 882.382 434.578 876.2C434.578 863.42 445.068 852.92 462.128 852.92H517.908C513.298 852.913 508.79 854.274 504.955 856.832C501.12 859.389 498.13 863.028 496.365 867.286C494.6 871.544 494.139 876.231 495.04 880.752C495.942 885.273 498.165 889.424 501.428 892.68Z" fill="#BCA3DC"/>
<path d="M654.57 853.014C654.613 853.002 654.658 853.005 654.7 853.021C654.657 853.019 654.613 853.017 654.57 853.014C654.418 853.003 654.268 852.978 654.12 852.94H600C607.037 852.564 613.766 849.93 619.19 845.43C620.007 844.763 620.789 844.052 621.53 843.3C622.149 842.698 622.734 842.06 623.28 841.391C623.698 840.926 624.085 840.435 624.44 839.92C624.67 839.64 624.87 839.37 625.06 839.1C625.43 838.605 625.764 838.084 626.06 837.54C626.515 836.906 626.919 836.238 627.27 835.54C627.643 834.874 627.977 834.186 628.27 833.48C628.42 833.17 628.54 832.82 628.74 832.48C629.01 831.781 629.24 831.081 629.47 830.381V830.38C629.79 829.38 630.1 828.321 630.33 827.281C630.47 826.718 630.573 826.147 630.64 825.57C630.685 825.431 630.712 825.287 630.72 825.141C630.764 825.029 630.791 824.911 630.8 824.79C630.8 824.4 630.91 824.05 630.95 823.66V823.43C631.096 822.347 631.163 821.254 631.15 820.16C631.163 819.656 631.137 819.151 631.07 818.651V818.3C631.07 817.805 631.03 817.31 630.95 816.82C630.686 814.122 630.071 811.47 629.12 808.93C628.594 807.407 627.924 805.937 627.12 804.54C626.386 803.134 625.53 801.796 624.56 800.54C624.309 800.174 624.035 799.823 623.74 799.49C623.62 799.37 623.51 799.21 623.35 799.06C622.832 798.379 622.26 797.741 621.64 797.151C621.18 796.691 620.64 796.22 620.17 795.72C619.7 795.22 618.92 794.63 618.26 794.16C617.6 793.69 617.17 793.351 616.59 792.961C615.728 792.334 614.819 791.776 613.87 791.29C612.986 790.775 612.064 790.33 611.11 789.961C610.006 789.488 608.878 789.074 607.73 788.72C607.339 788.575 606.933 788.471 606.52 788.41C605.45 788.106 604.361 787.872 603.26 787.711C602.71 787.591 602.17 787.55 601.59 787.48H601.51C601.435 787.5 601.355 787.5 601.28 787.48H601.51H601.59C602.17 787.55 602.71 787.591 603.26 787.711C604.361 787.872 605.45 788.106 606.52 788.41C606.933 788.471 607.339 788.575 607.73 788.72C608.878 789.074 610.006 789.488 611.11 789.961C612.064 790.33 612.986 790.775 613.87 791.29C614.819 791.776 615.728 792.334 616.59 792.961C617.17 793.351 617.6 793.69 618.26 794.16C618.92 794.63 619.7 795.22 620.17 795.72C620.64 796.22 621.18 796.691 621.64 797.151C622.26 797.741 622.832 798.379 623.35 799.06C623.51 799.21 623.62 799.37 623.74 799.49C624.035 799.823 624.309 800.174 624.56 800.54C625.53 801.796 626.386 803.134 627.12 804.54C627.924 805.937 628.594 807.407 629.12 808.93C630.071 811.47 630.686 814.122 630.95 816.82C631.03 817.31 631.07 817.805 631.07 818.3V818.651C631.137 819.151 631.163 819.656 631.15 820.16C631.163 821.254 631.096 822.347 630.95 823.43V823.66C630.91 824.05 630.8 824.4 630.8 824.79C630.791 824.911 630.764 825.029 630.72 825.141C630.712 825.287 630.685 825.431 630.64 825.57C630.573 826.147 630.47 826.718 630.33 827.281C630.1 828.321 629.79 829.38 629.47 830.38V830.381C629.24 831.081 629.01 831.781 628.74 832.48C628.54 832.82 628.42 833.17 628.27 833.48C627.977 834.186 627.643 834.874 627.27 835.54C626.919 836.238 626.515 836.906 626.06 837.54C625.764 838.084 625.43 838.605 625.06 839.1C624.87 839.37 624.67 839.64 624.44 839.92C624.085 840.435 623.698 840.926 623.28 841.391C622.734 842.06 622.149 842.698 621.53 843.3C620.789 844.052 620.007 844.763 619.19 845.43C613.766 849.93 607.037 852.564 600 852.94H654.12C654.249 852.92 654.381 852.92 654.51 852.94H654.12C654.268 852.978 654.418 853.003 654.57 853.014Z" fill="#9E7ACD"/>
<path d="M685.822 820.65C685.822 821.27 685.822 821.93 685.742 822.55C685.662 823.6 685.552 824.61 685.392 825.62C685.312 826.16 685.202 826.71 685.082 827.25C684.852 828.25 684.582 829.35 684.272 830.36C683.921 831.474 683.504 832.566 683.022 833.63C682.867 834.047 682.673 834.449 682.442 834.83C682.442 834.95 682.362 835.03 682.282 835.14C682.052 835.65 681.782 836.14 681.512 836.62C681.082 837.4 680.612 838.17 680.112 838.91C679.522 839.81 678.862 840.62 678.202 841.44C677.53 842.254 676.816 843.032 676.062 843.77C675.27 844.575 674.428 845.33 673.542 846.03L672.542 846.84C671.404 847.699 670.208 848.478 668.962 849.17C668.382 849.48 667.762 849.8 667.142 850.11C667.083 850.153 667.014 850.177 666.942 850.18C666.242 850.53 665.542 850.81 664.842 851.08C664.142 851.35 663.442 851.62 662.712 851.85C661.972 852.05 661.232 852.28 660.492 852.44L659.882 852.55C659.302 852.68 658.722 852.79 658.132 852.88C657.086 853.06 656.031 853.183 654.972 853.25C654.327 853.317 653.679 853.344 653.032 853.33C653.032 853.33 652.912 853.33 652.872 853.33L585.272 853L569.342 852.92L463.162 852.38C462.77 852.373 462.38 852.346 461.992 852.3C461.102 852.3 460.242 852.22 459.352 852.15C467.044 851.233 474.171 847.646 479.49 842.014C484.81 836.382 487.985 829.062 488.462 821.33C488.462 820.94 488.462 820.51 488.462 820.08V819.66C488.471 812.041 485.844 804.654 481.026 798.752C476.209 792.85 469.498 788.797 462.032 787.28C461.252 787.12 460.472 787.01 459.662 786.89C460.435 786.8 461.213 786.75 461.992 786.74C462.265 786.72 462.539 786.72 462.812 786.74H463.472L569.652 787.28L593.652 787.4H601.502H602.162L653.162 787.67C654.836 787.676 656.507 787.807 658.162 788.06C662.387 788.753 666.438 790.257 670.092 792.49C670.562 792.76 670.982 793.07 671.412 793.34C672.707 794.227 673.94 795.203 675.102 796.26C675.492 796.61 675.842 796.96 676.232 797.35C679.194 800.353 681.568 803.883 683.232 807.76L683.822 809.28C684.018 809.773 684.185 810.277 684.322 810.79C685.318 813.981 685.824 817.306 685.822 820.65Z" stroke="#333333" stroke-width="5.5" stroke-linecap="square" stroke-linejoin="round"/>
<path d="M631.101 820.06C631.107 821.152 631.054 822.244 630.941 823.33C630.941 823.41 630.941 823.48 630.941 823.56C630.861 824.07 630.791 824.56 630.711 825.04C630.703 825.186 630.676 825.331 630.631 825.47C630.564 826.046 630.461 826.617 630.321 827.18C630.091 828.18 629.781 829.27 629.461 830.28C629.231 830.98 629.001 831.68 628.731 832.38C628.531 832.73 628.411 833.08 628.261 833.38C627.968 834.086 627.634 834.774 627.261 835.44C626.91 836.137 626.506 836.806 626.051 837.44C625.755 837.983 625.421 838.505 625.051 839C624.861 839.27 624.661 839.54 624.431 839.82C624.076 840.334 623.689 840.825 623.271 841.29C622.725 841.96 622.14 842.598 621.521 843.2C620.777 843.936 619.996 844.633 619.181 845.29C613.769 849.813 607.043 852.472 600.001 852.87C599.651 852.87 599.301 852.87 599.001 852.87H463.311C462.071 852.87 460.791 852.8 459.501 852.68C460.338 852.58 461.169 852.437 461.991 852.25C462.056 852.273 462.126 852.273 462.191 852.25H462.261C468.566 850.935 474.349 847.807 478.901 843.25L478.981 843.17C484.769 837.321 488.152 829.513 488.461 821.29C488.461 820.9 488.461 820.47 488.461 820.04V820C488.399 811.985 485.421 804.267 480.085 798.286C474.748 792.306 467.417 788.472 459.461 787.5C460.321 787.39 461.171 787.35 462.031 787.31C462.249 787.27 462.473 787.27 462.691 787.31C462.702 787.3 462.716 787.295 462.731 787.295C462.746 787.295 462.76 787.3 462.771 787.31C462.937 787.29 463.105 787.29 463.271 787.31H598.251C599.191 787.31 600.081 787.31 600.981 787.43H601.291C601.366 787.45 601.446 787.45 601.521 787.43H601.681L603.271 787.66C604.372 787.822 605.461 788.055 606.531 788.36C606.921 788.44 607.351 788.55 607.741 788.67C608.889 789.024 610.017 789.437 611.121 789.91C612.051 790.3 612.991 790.77 613.881 791.24C614.821 791.74 615.73 792.298 616.601 792.91C617.181 793.3 617.731 793.68 618.271 794.11C618.811 794.54 619.551 795.11 620.181 795.67C620.811 796.23 621.181 796.67 621.651 797.1C622.241 797.73 622.821 798.35 623.361 799.01C623.521 799.16 623.631 799.32 623.751 799.44L624.571 800.49C625.507 801.769 626.362 803.104 627.131 804.49C627.886 805.912 628.554 807.378 629.131 808.88C630.049 811.429 630.663 814.078 630.961 816.77C630.961 817.28 631.041 817.77 631.081 818.25V818.6C631.101 819.05 631.101 819.56 631.101 820.06Z" stroke="#333333" stroke-width="5.5" stroke-linecap="square" stroke-linejoin="round"/>
<path d="M656.052 899.5H462.112C457.789 899.616 453.479 899.001 449.362 897.68C448.542 897.37 447.772 897.06 447.032 896.68C446.292 896.29 445.632 895.9 444.972 895.51C444.312 895.12 443.732 894.62 443.142 894.15C442.562 893.64 442.022 893.15 441.512 892.63C438.85 889.971 436.877 886.703 435.762 883.11C435.054 880.872 434.699 878.537 434.712 876.19C434.704 875.281 434.758 874.372 434.872 873.47C435.019 872.203 435.29 870.954 435.682 869.74C436.223 867.82 437.063 865.998 438.172 864.34C438.805 863.257 439.56 862.251 440.422 861.34C440.951 860.75 441.512 860.189 442.102 859.66C446.842 855.43 453.722 852.82 462.232 852.82H656.052C655.272 852.82 654.732 852.82 654.342 852.82C654.212 852.8 654.081 852.8 653.952 852.82C653.562 852.82 653.642 852.82 653.832 852.82C653.843 852.83 653.857 852.835 653.872 852.835C653.886 852.835 653.901 852.83 653.912 852.82C654.001 852.838 654.093 852.838 654.182 852.82C654.262 852.82 654.302 852.82 654.382 852.82C653.952 852.9 653.522 852.94 653.092 853.05H653.002C653.002 853.05 652.882 853.05 652.842 853.05C647.541 854.104 642.768 856.96 639.333 861.132C635.897 865.304 634.01 870.535 633.992 875.94C634.023 881.639 636.126 887.133 639.909 891.396C643.692 895.659 648.896 898.401 654.552 899.11C653.602 899.47 652.712 899.5 656.052 899.5Z" stroke="#333333" stroke-width="5.5" stroke-linecap="square" stroke-linejoin="round"/>
<path d="M654.489 899.39C653.599 899.47 652.709 899.5 651.809 899.5H517.879C514.824 899.499 511.798 898.893 508.977 897.72C506.156 896.546 503.594 894.827 501.439 892.66C498.778 890.001 496.804 886.734 495.689 883.14C494.998 880.9 494.661 878.565 494.689 876.22C494.7 870.046 497.154 864.126 501.517 859.756C505.879 855.386 511.794 852.922 517.969 852.9H651.809C652.469 852.9 653.169 852.9 653.809 852.98C653.925 852.999 654.043 852.999 654.159 852.98C654.239 852.98 654.279 852.98 654.359 852.98C653.929 853.06 653.499 853.1 653.069 853.21H652.999C652.999 853.21 652.879 853.21 652.839 853.21C647.539 854.265 642.766 857.12 639.33 861.292C635.895 865.464 634.008 870.696 633.989 876.1C634.02 881.8 636.123 887.294 639.906 891.557C643.689 895.82 648.894 898.562 654.549 899.27L654.489 899.39Z" stroke="#333333" stroke-width="5.5" stroke-linecap="square" stroke-linejoin="round"/>
<path d="M494.6 876.22C494.6 882.395 497.053 888.316 501.418 892.682C505.784 897.048 511.706 899.5 517.88 899.5H462.11C451.46 899.5 445.63 896.9 441.39 892.66C439.229 890.503 437.516 887.94 436.349 885.119C435.182 882.298 434.584 879.273 434.59 876.22C434.59 863.4 445.05 852.9 462.11 852.9H517.88C511.705 852.922 505.79 855.386 501.428 859.756C497.065 864.126 494.61 870.046 494.6 876.22Z" stroke="#333333" stroke-width="5.5" stroke-linecap="square" stroke-linejoin="round"/>
<path d="M656.049 899.5H651.809C652.709 899.5 653.599 899.5 654.489 899.39C653.599 899.47 652.709 899.5 656.049 899.5Z" stroke="#333333" stroke-width="5.5" stroke-linecap="square" stroke-linejoin="round"/>
<path d="M654.179 853C653.409 853 652.589 852.88 651.809 852.88H656.049C653.089 852.9 653.439 853 654.179 853Z" stroke="#333333" stroke-width="5.5" stroke-linecap="square" stroke-linejoin="round"/>
<path opacity="0.54" d="M72.999 811.78L3.57951 633.94C2.71942 630.5 2.65482 626.908 3.39052 623.439C4.12622 619.969 5.64292 616.713 7.82532 613.918C10.0078 611.122 12.7986 608.861 15.9859 607.305C19.1731 605.75 22.6729 604.941 26.2195 604.94H301.999C308.191 604.939 314.202 607.022 319.065 610.853C323.929 614.684 327.361 620.041 328.809 626.06L404.809 803.88C405.634 807.312 405.669 810.886 404.912 814.333C404.156 817.78 402.628 821.01 400.443 823.782C398.258 826.553 395.473 828.792 392.297 830.332C389.122 831.872 385.639 832.671 382.109 832.67H99.729C93.582 832.67 87.611 830.613 82.768 826.828C77.924 823.042 74.486 817.746 72.999 811.78Z" fill="white"/>
<path d="M72.999 811.78L3.57951 633.94C2.71942 630.5 2.65482 626.908 3.39052 623.439C4.12622 619.969 5.64292 616.713 7.82532 613.918C10.0078 611.122 12.7986 608.861 15.9859 607.305C19.1731 605.75 22.6729 604.941 26.2195 604.94H301.999C308.191 604.939 314.202 607.022 319.065 610.853C323.929 614.684 327.361 620.041 328.809 626.06L404.809 803.88C405.634 807.312 405.669 810.886 404.912 814.333C404.156 817.78 402.628 821.01 400.443 823.782C398.258 826.553 395.473 828.792 392.297 830.332C389.122 831.872 385.639 832.671 382.109 832.67H99.729C93.582 832.67 87.611 830.613 82.768 826.828C77.924 823.042 74.486 817.746 72.999 811.78Z" fill="#9E7ACD"/>
<path d="M72.999 811.78L3.57951 633.94C2.71942 630.5 2.65482 626.908 3.39052 623.439C4.12622 619.969 5.64292 616.713 7.82532 613.918C10.0078 611.122 12.7986 608.861 15.9859 607.305C19.1731 605.75 22.6729 604.941 26.2195 604.94H301.999C308.191 604.939 314.202 607.022 319.065 610.853C323.929 614.684 327.361 620.041 328.809 626.06L404.809 803.88C405.634 807.312 405.669 810.886 404.912 814.333C404.156 817.78 402.628 821.01 400.443 823.782C398.258 826.553 395.473 828.792 392.297 830.332C389.122 831.872 385.639 832.671 382.109 832.67H99.729C93.582 832.67 87.611 830.613 82.768 826.828C77.924 823.042 74.486 817.746 72.999 811.78Z" stroke="#333333" stroke-width="5.5" stroke-linecap="square" stroke-linejoin="round"/>
<path d="M83.141 804.58L19.141 640.51C18.3465 637.338 18.2853 634.026 18.9618 630.826C19.6384 627.626 21.035 624.623 23.0457 622.043C25.0564 619.464 27.6282 617.377 30.5661 615.94C33.5039 614.503 36.7305 613.754 40.001 613.75H294.381C300.093 613.751 305.638 615.674 310.124 619.209C314.609 622.745 317.775 627.687 319.111 633.24L389.221 797.24C389.981 800.406 390.014 803.703 389.317 806.884C388.619 810.064 387.21 813.046 385.194 815.603C383.179 818.16 380.61 820.227 377.68 821.649C374.751 823.07 371.537 823.809 368.281 823.81H107.821C102.153 823.812 96.646 821.921 92.175 818.438C87.704 814.954 84.525 810.077 83.141 804.58Z" fill="#9E7ACD"/>
<path d="M275.999 643.92C272.629 638.85 267.119 636.6 263.679 638.92C260.239 641.24 260.189 647.17 263.559 652.24C264.09 653.012 264.685 653.738 265.339 654.41L240.339 707.18C236.339 704.52 231.969 703.86 228.829 705.96C227.815 706.697 226.975 707.648 226.368 708.745C225.762 709.843 225.404 711.059 225.319 712.31L208.239 706.54L193.309 701.54L188.429 699.94C187.817 698.107 186.966 696.361 185.899 694.75C181.159 687.63 173.419 684.47 168.589 687.68C163.759 690.89 163.709 699.1 168.319 706.17L139.909 745C133.709 739.91 126.399 738.34 121.339 741.7C114.459 746.29 114.339 758.24 121.109 768.4C121.379 768.8 121.689 769.14 121.969 769.52L102.999 795.44L102.829 795.69C102.294 796.411 101.912 797.233 101.705 798.106C101.498 798.979 101.472 799.885 101.626 800.768C101.781 801.652 102.114 802.495 102.605 803.246C103.096 803.997 103.735 804.64 104.482 805.136C105.23 805.632 106.071 805.971 106.953 806.131C107.836 806.292 108.742 806.271 109.616 806.071C110.491 805.87 111.315 805.493 112.039 804.964C112.764 804.434 113.372 803.763 113.829 802.99L130.699 777.6C136.019 780.69 141.699 781.28 145.829 778.52C152.409 774.14 152.719 763.06 146.829 753.22L174.079 712.09C178.079 714.82 182.539 715.52 185.719 713.41C187.497 712.157 188.708 710.252 189.089 708.11L191.089 708.68L206.279 712.83L225.719 718.07C226.309 720.398 227.29 722.609 228.619 724.61C233.349 731.72 241.099 734.89 245.929 731.68C250.759 728.47 250.819 720.1 246.089 712.99C245.39 711.957 244.608 710.984 243.749 710.08L267.539 656.29C270.409 658.29 273.539 658.74 275.849 657.23C279.339 655 279.389 649 275.999 643.92Z" fill="white"/>
<path d="M95.0003 646.83H58.1503C56.4553 646.837 54.7953 646.348 53.3743 645.424C51.9533 644.501 50.8323 643.182 50.1503 641.63C49.9403 641.154 49.8283 640.64 49.8203 640.12C49.8313 639.115 50.2373 638.155 50.9503 637.448C51.6633 636.741 52.6263 636.342 53.6303 636.34H92.8203C91.0003 639.45 92.0003 643.77 95.0003 646.83Z" fill="#BCA3DC"/>
<path d="M118.858 643.05C118.853 644.053 118.452 645.012 117.742 645.721C117.032 646.429 116.071 646.827 115.068 646.83H94.9984C91.9384 643.77 90.9984 639.45 92.8484 636.34H110.548C112.24 636.331 113.898 636.815 115.319 637.733C116.74 638.651 117.862 639.964 118.548 641.51C118.755 641.997 118.861 642.521 118.858 643.05Z" fill="#9E7ACD"/>
<path d="M109.642 646.83C109.534 647.031 109.414 647.224 109.282 647.41C106.642 651 100.942 651.34 96.5118 648.1C95.9808 647.718 95.4828 647.293 95.0218 646.83C91.9618 643.77 91.0218 639.45 92.8718 636.34C92.9718 636.135 93.0928 635.941 93.2318 635.76C95.8418 632.15 101.542 631.84 105.972 635.05C106.51 635.437 107.015 635.869 107.482 636.34C110.522 639.41 111.462 643.69 109.642 646.83Z" fill="white"/>
<path d="M128.13 666.19C128.122 667.195 127.717 668.156 127.004 668.864C126.29 669.572 125.325 669.97 124.32 669.97H85.63C87.5 666.83 86.57 662.55 83.5 659.48H119.84C121.535 659.473 123.195 659.961 124.616 660.885C126.038 661.809 127.158 663.128 127.84 664.68C128.036 665.159 128.135 665.672 128.13 666.19Z" fill="#9E7ACD"/>
<path d="M85.6316 670H67.4316C65.7396 670.009 64.0816 669.525 62.6606 668.607C61.2396 667.689 60.1176 666.376 59.4316 664.83C59.2216 664.346 59.1096 663.827 59.1016 663.3C59.0986 662.802 59.1946 662.309 59.3836 661.849C59.5726 661.388 59.8506 660.97 60.2016 660.618C60.5536 660.265 60.9706 659.986 61.4306 659.796C61.8906 659.606 62.3836 659.508 62.8816 659.51H83.5016C86.5716 662.55 87.5016 666.83 85.6316 670Z" fill="#BCA3DC"/>
<path d="M85.63 670C85.547 670.208 85.436 670.403 85.3 670.58C82.69 674.2 76.98 674.51 72.55 671.3C72.002 670.906 71.484 670.471 71 670C68 666.94 67 662.65 68.85 659.51C68.948 659.308 69.069 659.116 69.21 658.94C71.84 655.34 77.54 655.01 81.98 658.24C82.505 658.626 83 659.05 83.46 659.51C86.57 662.55 87.5 666.83 85.63 670Z" fill="white"/>
<path d="M98.5212 693H75.3612C73.6692 693.005 72.0123 692.518 70.5923 691.598C69.1723 690.678 68.0493 689.366 67.3613 687.82C67.1513 687.344 67.0393 686.83 67.0312 686.31C67.0343 685.3 67.4363 684.333 68.1503 683.619C68.8643 682.905 69.8323 682.503 70.8413 682.5H96.3213C94.5413 685.59 95.4812 689.88 98.5212 693Z" fill="#9E7ACD"/>
<path d="M136.059 689.19C136.053 690.191 135.651 691.149 134.941 691.854C134.23 692.558 133.269 692.953 132.269 692.95H98.5185C95.5185 689.88 94.5185 685.59 96.3585 682.45H127.769C129.456 682.449 131.107 682.941 132.519 683.864C133.931 684.788 135.043 686.104 135.719 687.65C135.936 688.135 136.051 688.659 136.059 689.19Z" fill="#BCA3DC"/>
<path d="M113.129 693C113.03 693.203 112.91 693.394 112.769 693.57C110.159 697.19 104.459 697.5 100.029 694.29C99.4965 693.894 98.9915 693.463 98.5185 693C95.5185 689.93 94.5185 685.64 96.3585 682.5C96.4635 682.301 96.5835 682.111 96.7185 681.93C99.3585 678.34 105.059 678.02 109.489 681.23C110.014 681.618 110.512 682.042 110.979 682.5C113.999 685.52 114.999 689.83 113.129 693Z" fill="white"/>
<path d="M248.272 801.34H225.102C223.41 801.345 221.753 800.857 220.332 799.938C218.912 799.018 217.79 797.706 217.102 796.16C216.884 795.686 216.768 795.171 216.762 794.65C216.764 793.64 217.167 792.673 217.881 791.959C218.594 791.245 219.562 790.842 220.572 790.84H246.062C244.292 794 245.232 798.27 248.272 801.34Z" fill="#9E7ACD"/>
<path d="M340.218 797.58C340.216 798.075 340.118 798.565 339.928 799.022C339.737 799.479 339.457 799.894 339.106 800.243C338.755 800.592 338.339 800.868 337.881 801.057C337.423 801.245 336.933 801.341 336.438 801.34H248.269C245.269 798.27 244.269 793.98 246.109 790.84H331.928C333.615 790.839 335.266 791.33 336.678 792.254C338.09 793.178 339.202 794.493 339.878 796.04C340.095 796.525 340.21 797.049 340.218 797.58Z" fill="#BCA3DC"/>
<path d="M262.878 801.34C262.779 801.543 262.66 801.734 262.519 801.91C259.909 805.53 254.208 805.84 249.778 802.63C249.244 802.237 248.74 801.806 248.269 801.34C245.269 798.27 244.269 793.98 246.109 790.84C246.214 790.641 246.333 790.45 246.468 790.27C249.108 786.68 254.809 786.36 259.239 789.57C259.764 789.958 260.262 790.382 260.729 790.84C263.789 793.91 264.728 798.22 262.878 801.34Z" fill="white"/>
</svg>
