<svg width="906" height="894" viewBox="0 0 906 894" fill="none" xmlns="http://www.w3.org/2000/svg">
<path d="M687.5 266C694.284 258.144 702.682 251.845 712.122 247.53C721.562 243.216 731.821 240.988 742.2 241C745.811 240.921 749.421 241.219 752.97 241.89" stroke="#B8ADD2" stroke-width="4.68" stroke-miterlimit="10"/>
<path d="M589.002 199.79C602.147 190.465 617.166 184.118 633.014 181.188C648.861 178.259 665.157 178.818 680.767 182.827C696.376 186.836 710.925 194.199 723.4 204.402C735.875 214.606 745.976 227.405 753.002 241.91C770.133 244.428 785.785 253.027 797.099 266.135C808.413 279.243 814.633 295.984 814.622 313.3V314C814.292 345.45 787.222 370.18 755.732 370.18H554.002C539.885 370.194 526.269 364.949 515.81 355.468C505.351 345.987 498.799 332.95 497.432 318.9C497.22 317.03 497.11 315.151 497.102 313.27" stroke="#B8ADD2" stroke-width="4.68" stroke-miterlimit="10"/>
<path d="M687.5 266C694.284 258.144 702.682 251.845 712.122 247.53C721.562 243.216 731.821 240.988 742.2 241C745.811 240.921 749.421 241.219 752.97 241.89" stroke="#B8ADD2" stroke-width="4.68" stroke-miterlimit="10"/>
<path d="M682.629 891.19C707.519 891.19 729.559 883.12 748.719 870.11C760.661 861.872 771.487 852.124 780.929 841.11C798.609 820.83 812.639 796.65 822.929 773.11C839.559 735.01 851.649 694.63 855.599 654.68" stroke="#B8ADD2" stroke-width="4.68" stroke-miterlimit="10"/>
<path d="M648.309 370.21C656.089 376.663 663.915 382.887 671.789 388.88C712.599 419.88 759.289 438.57 796.239 475.69C814.881 494.178 829.777 516.093 840.109 540.23" stroke="#B8ADD2" stroke-width="4.68" stroke-miterlimit="10"/>
<path d="M206.469 435.81C209.049 420.819 210.386 405.641 210.469 390.43" stroke="#B8ADD2" stroke-width="4.68" stroke-miterlimit="10"/>
<path d="M207.82 179.86C215.66 145.94 230.77 114.76 257.25 91.6099C291.14 61.9999 342 55.0499 384.33 67.1999C432 80.8999 454 119.93 476 160.47C476.86 162.08 477.74 163.69 478.63 165.27" stroke="#B8ADD2" stroke-width="4.68" stroke-miterlimit="10"/>
<path d="M113.47 891.19C34.4696 891.19 16.0596 791.4 30.1496 731.76C49.0896 651.48 118.54 585.76 168.53 522.19C175.752 513.013 182.093 503.176 187.47 492.81" stroke="#B8ADD2" stroke-width="4.68" stroke-miterlimit="10"/>
<path d="M580.001 275.32C569.851 275.95 561.061 275.22 556.191 272.06C536.431 259.29 528.861 257.15 517.191 254.64C514.502 254.082 511.715 254.216 509.091 255.029C506.467 255.842 504.093 257.309 502.191 259.29C502.191 259.29 502.191 259.35 502.131 259.35C494.951 264.82 487.931 271.35 486.911 279.93C486.481 283.52 487.341 289.75 492.671 290.24C495.141 290.47 497.051 289.12 498.571 287.38C499.201 291.89 500.321 296.53 502.571 299.96C505.701 304.67 510.931 307.04 515.971 309.18C521.471 311.52 527.071 313.56 532.731 315.5C543.041 319.02 553.511 322.15 564.051 324.92C558.972 333.947 552.654 342.217 545.281 349.49C524.716 331.46 502.14 315.86 478.001 303C451.121 288.08 425.631 274.5 401.531 262.26C486.161 257.58 456.591 161.65 456.591 161.65L480.531 165.54C480.531 165.54 485.001 235.28 524.811 244C568.571 253.65 570.811 199.08 571.271 191.64L585.431 198.03C585.431 198.03 591.821 213.48 580.001 275.32Z" fill="#2E2E2E"/>
<path d="M506.69 22.08C503.539 26.3628 501.865 31.5534 501.919 36.87C501.819 50.6 496.92 41.21 492.34 56.26C491.215 60.308 490.409 64.437 489.93 68.61C487.93 84.35 488.02 103.78 488.02 103.78C488.02 103.78 481.02 122.42 469.09 130.29C468.26 130.85 467.41 131.41 466.549 131.97C464.639 133.32 462.7 134.71 460.82 136.22C457.972 138.415 455.328 140.861 452.92 143.53C448.6 148.4 445.61 153.9 445.44 160.13C445.412 161.274 445.479 162.417 445.64 163.55C445.64 163.55 440.57 163.29 432.4 163.39C429.54 163.39 426.28 163.45 422.72 163.59H422.65C417.65 163.78 412.11 164.11 406.22 164.59C390.45 166.04 372.22 169.07 356.13 175.03C317.6 189.32 291.26 208.49 291.26 208.49L284 208C283.182 201.856 282.908 195.652 283.179 189.46C284.179 167.82 292.86 140.03 327.87 128.57C388.2 108.88 389.609 97.75 389.609 97.75C389.609 97.75 389.779 97.58 390.109 97.22C390.109 97.22 390.11 97.22 390.17 97.15C391.159 96.443 391.99 95.537 392.609 94.49C392.616 94.457 392.616 94.423 392.609 94.39C392.632 94.396 392.657 94.396 392.679 94.39C392.737 94.363 392.783 94.317 392.81 94.26C394.81 92.71 410.809 79.64 418.359 62.32C419.089 60.64 419.88 58.76 420.77 56.72C420.762 56.697 420.762 56.673 420.77 56.65C429.02 42.73 442.37 22.8 462.37 15.04C474.65 10.27 488.52 11.75 500 18.19L500.169 18.29C502.41 19.44 504.65 20.76 506.69 22.08Z" fill="#9B8CC0"/>
<path d="M300.84 426C337.23 484.75 448.7 511.32 488.71 519.16C414.71 602.61 374.84 704.7 374.84 704.7L432.89 778.2C434.641 780.169 437.041 781.443 439.652 781.792C442.263 782.14 444.913 781.54 447.119 780.1C449.326 778.661 450.942 776.477 451.674 773.946C452.406 771.415 452.206 768.706 451.11 766.31L429.83 715.73L567.06 547.67C578.004 534.259 583.692 517.322 583.061 500.024C582.43 482.725 575.523 466.248 563.63 453.67C527.94 415.93 464.9 364.35 363.34 325.86" stroke="black" stroke-width="4.68" stroke-linejoin="round"/>
<path d="M600.648 75C600.058 81.19 598.438 84.55 597.588 80.34C595.588 70.52 586.588 60.48 585.008 59.1C584.868 59 584.738 58.87 584.508 58.7C582.008 56.7 573.508 50.77 572.288 55.08C570.978 59.76 557.608 69.14 547.888 74.84C545.013 76.586 542.556 78.942 540.69 81.741C538.824 84.54 537.594 87.714 537.088 91.04L535.578 90.35C535.578 90.35 529.578 87.45 521.118 90.94C512.658 94.43 514.118 110.73 525.528 116.83C527.138 117.68 528.458 118.47 529.528 119.16C530.082 119.652 530.677 120.093 531.308 120.48C531.308 120.48 531.368 120.48 531.398 120.55C535.318 123.71 533.178 124.76 533.178 124.76C528.178 135.14 518.178 132.76 513.258 130.89C494.518 114.89 493.368 78.99 496.628 68.89C500.118 58.12 513.318 29.4401 547.378 27.2001C562.378 26.2001 572.108 28.0601 579.378 31.5101C584.688 35.5901 588.698 40.6901 593.578 45.8601C600.518 53.33 601.468 66.73 600.648 75Z" fill="#9B8CC0"/>
<path d="M318.49 447.29L142.49 818.17C141.115 821.213 140.764 824.62 141.49 827.88L160 876.66C160.926 880.78 163.227 884.462 166.524 887.101C169.82 889.74 173.917 891.178 178.14 891.18H211.21C212.407 891.22 213.6 891.019 214.718 890.588C215.836 890.158 216.856 889.507 217.717 888.674C218.578 887.842 219.262 886.844 219.73 885.741C220.198 884.639 220.439 883.453 220.439 882.255C220.439 881.057 220.198 879.872 219.73 878.769C219.262 877.666 218.578 876.669 217.717 875.836C216.856 875.003 215.836 874.352 214.718 873.922C213.6 873.491 212.407 873.29 211.21 873.33H199.24L192.3 834.63L410.24 498" stroke="black" stroke-width="4.68" stroke-linejoin="round"/>
<path d="M513.911 130.98L488.031 179.45" stroke="black" stroke-width="4.68" stroke-linejoin="round"/>
<path d="M554.049 505.09C480.469 522.67 389.609 475 389.609 475C96.049 336.25 22.0692 234.85 4.44922 185.42C5.10412 181.853 6.72912 178.535 9.14592 175.831C11.5626 173.126 14.6777 171.14 18.1492 170.09C67.889 154.88 193.209 153.8 480.149 309.7C480.149 309.7 556.239 347.02 592.099 406.23C592.129 406.273 592.152 406.321 592.169 406.37C594.381 410.504 596.383 414.746 598.169 419.08C601.654 427.579 603.256 436.732 602.867 445.909C602.477 455.086 600.104 464.07 595.912 472.243C591.719 480.416 585.807 487.584 578.58 493.254C571.354 498.924 562.985 502.962 554.049 505.09Z" fill="#9B8CC0"/>
<path d="M437.55 424.35C397.96 433.8 349.06 408.16 349.06 408.16C299.53 384.75 250.24 358.83 206.46 325.62C184.46 308.95 151.46 284.28 143.04 256.52C142.04 253.19 142.35 249.24 144.73 246.71C146.56 244.77 149.26 243.96 151.84 243.32C189.71 233.99 229.42 246.44 265.12 258.69C311.52 274.61 353.94 297.69 397.81 319.21C397.81 319.21 438.75 339.29 458.08 371.21C459.27 373.45 460.35 375.72 461.31 378.05C469.1 397.16 457.53 419.57 437.55 424.35Z" fill="#D4CEE4"/>
<path d="M554.048 505.09C480.478 522.67 389.618 475 389.618 475C349.538 456.07 313.548 437.82 281.278 420.33L202.108 374.49C60.268 286.32 16.7982 221 4.12824 184.56C3.23814 182.023 2.87404 179.331 3.05824 176.649C3.24244 173.966 3.97104 171.349 5.19964 168.958C6.42814 166.566 8.13094 164.45 10.2041 162.738C12.2773 161.026 14.6774 159.754 17.2582 159C47.4582 150.1 105.258 146.58 209.448 180.4L289.308 210.14C322.998 224.14 360.308 241.36 401.478 262.27C425.578 274.536 451.085 288.113 477.998 303C502.158 315.859 524.755 331.462 545.338 349.5C566.448 368.2 587.098 391.85 598.258 419.08C601.74 427.585 603.338 436.744 602.942 445.925C602.546 455.107 600.165 464.094 595.964 472.268C591.763 480.442 585.84 487.608 578.604 493.274C571.368 498.94 562.991 502.971 554.048 505.09Z" stroke="black" stroke-width="4.68" stroke-miterlimit="10"/>
<path d="M240.409 402.94C240.409 402.94 245.409 399.59 247.359 391.49C249.309 383.39 251.079 369.67 252.759 373.38C254.439 377.09 260.039 389.5 265.539 387.85C271.039 386.2 276.369 387.08 272.599 370.32C268.829 353.56 259.679 347.23 260.729 336.27C261.779 325.31 266.189 298.58 289.729 284.63C313.269 270.68 348.939 248.58 384.619 246.73C420.299 244.88 371.999 213.05 371.999 213.05L302.089 200.69C302.089 200.69 260.659 226.05 231.669 270.69C202.679 315.33 194.999 328.23 190.999 363.4C190.999 363.4 188.999 379.24 195.839 381.49C202.679 383.74 231.229 397.74 231.229 397.74L240.409 402.94Z" fill="white"/>
<path d="M436.779 250.39C422.849 246.31 408.099 245.26 393.639 246.01C363.105 247.669 333.429 256.711 307.159 272.36C295.539 279.36 284.539 287.9 275.879 298.47C271.956 303.143 268.637 308.29 265.999 313.79C261.389 323.6 258.879 333.35 262.139 344.02C264.709 352.35 269.549 359.79 271.989 368.19C273.469 373.19 276.039 382.29 271.039 386.19C261.419 393.7 254.209 377.37 251.939 371.28C251.933 371.215 251.914 371.151 251.883 371.093C251.853 371.034 251.811 370.982 251.76 370.94C251.71 370.898 251.651 370.866 251.588 370.846C251.526 370.827 251.459 370.82 251.394 370.825C251.328 370.831 251.264 370.85 251.206 370.881C251.147 370.911 251.096 370.953 251.053 371.004C251.011 371.054 250.979 371.113 250.96 371.176C250.94 371.239 250.933 371.305 250.939 371.37C250.219 379.02 246.659 404.57 237.729 405.03C227.059 405.56 227.129 400.19 227.529 396.5C227.929 392.81 217.839 406.97 213.429 389.45C213.429 389.45 200.429 395.28 200.059 382.84C187.379 386.29 190.579 367.16 191.329 360.01C195.329 321.38 218.629 288.16 241.059 257.79C277.479 208.43 331.849 176.06 392.409 166.28C426.17 160.835 460.624 161.347 494.209 167.79" stroke="black" stroke-width="4.68" stroke-linecap="round" stroke-linejoin="round"/>
<path d="M585.239 245.39C585.262 255.419 584.135 265.417 581.879 275.19" stroke="black" stroke-width="4.68" stroke-linecap="round" stroke-linejoin="round"/>
<path d="M561.391 324.23C556.203 332.706 550.44 340.815 544.141 348.5" stroke="black" stroke-width="4.68" stroke-linecap="round" stroke-linejoin="round"/>
<path d="M498.561 287.38C497.051 289.12 495.141 290.47 492.671 290.24C487.331 289.75 486.471 283.52 486.901 279.93C487.901 271.31 494.901 264.82 502.121 259.35C502.121 259.35 502.121 259.35 502.181 259.29" stroke="black" stroke-width="4.68" stroke-linejoin="round"/>
<path d="M597.751 82C598.381 87.73 598.641 93.46 599.131 99.19L599.331 102.19C599.591 120.8 596.331 133.84 592.451 142.79C590.263 147.79 586.181 151.719 581.101 153.714C576.02 155.708 570.356 155.606 565.351 153.43L552.301 147.77" stroke="black" stroke-width="4.68" stroke-linejoin="round"/>
<path d="M444.461 161.66C445.721 134.42 494.711 131.25 488.061 82.6599" stroke="black" stroke-width="4.68" stroke-linejoin="round"/>
<path d="M530.388 119.71C521.508 115.83 512.048 104.36 517.728 94.71C524.048 84.02 537.088 91.02 537.088 91.02C537.488 83.22 552.438 69.52 558.988 66.49C563.698 64.28 571.988 58.49 573.078 52.89C573.078 52.89 592.648 57.13 597.588 80.32C599.268 88.19 603.478 62.6 595.118 48.32C586.848 34.3004 571.498 24.0004 555.528 22.5404C545.818 21.6504 538.798 22.6404 529.148 25.6004C517.758 29.0604 507.248 35.2504 499.678 44.2804C487.878 58.11 485.948 77.96 489.878 95.28C493.208 109.97 501.328 129.13 517.748 132.28C522.558 133.2 526.748 131.35 530.258 128.22C532.688 126.07 536.188 121.88 531.418 120.11L530.388 119.71Z" stroke="black" stroke-width="4.68" stroke-linejoin="round"/>
<path d="M274.999 204.78C268.749 164.51 287.999 120.84 327.529 116.99C402.319 109.71 416.529 67.59 425.239 46.5499C433.949 25.5099 467.999 -19.5101 513.739 16.0499C513.739 16.0499 528.559 15.4299 529.149 25.5999" stroke="black" stroke-width="4.68" stroke-linejoin="round"/>
<path d="M584.328 87.5301C584.328 87.5301 594.668 75.2101 599.438 90.4301" stroke="black" stroke-width="4.68" stroke-linejoin="round"/>
<path d="M573.5 82.3901C571.415 80.2951 568.708 78.9301 565.784 78.4971C562.859 78.0651 559.873 78.5881 557.271 79.9901C554.931 81.2301 552.85 83.4001 550.98 85.2401" stroke="black" stroke-width="4.68" stroke-linejoin="round"/>
<g opacity="0.76">
<path opacity="0.76" d="M577.129 96.15L571.909 110.83L554.909 114.17L545.719 91.5801C545.719 91.5801 564.299 83.07 577.129 96.15Z" fill="#9B8CC0"/>
<path opacity="0.76" d="M581.43 97C581.43 97 600.21 84.93 609.99 94.89L601.31 113.46L583.91 111.26L581.43 97Z" fill="#9B8CC0"/>
</g>
<path d="M580.81 94.76C581.14 95.43 585.28 119.36 582.2 121.21C580.48 122.21 574.52 119.55 574.52 119.55" stroke="black" stroke-width="4.68" stroke-linejoin="round"/>
<path d="M641.151 263.6C641.151 263.6 606.081 273.84 580.001 275.32C569.851 275.95 561.061 275.22 556.191 272.06C536.431 259.29 528.851 257.15 517.191 254.64C513.497 253.877 509.654 254.423 506.319 256.184C502.983 257.944 500.364 260.81 498.911 264.29C496.911 269.2 497.491 275.62 497.911 280.79C498.401 286.85 499.191 294.79 502.621 299.96C505.751 304.67 510.981 307.04 516.021 309.18C521.521 311.52 527.121 313.56 532.781 315.5C543.091 319.02 553.561 322.15 564.101 324.92C569.074 326.253 574.074 327.493 579.101 328.64C596.347 332.746 613.855 335.662 631.501 337.37C646.551 338.68 662.291 339.14 677.071 335.62C687.581 333.15 698.581 327.98 702.861 317.38C704.18 313.979 704.839 310.357 704.801 306.71C704.801 271.96 668.251 246.01 642.171 229.45C623.967 217.807 605.046 207.326 585.521 198.07C580.811 195.83 576.111 193.69 571.361 191.68C568.271 190.33 565.171 189.08 562.081 187.82C559.877 186.952 558.069 185.306 557 183.193C555.931 181.081 555.675 178.649 556.281 176.36L562.771 152.26" stroke="black" stroke-width="4.68" stroke-linejoin="round"/>
<path d="M562.68 126.33C562.68 126.33 565.58 135.66 575.83 136.21" stroke="black" stroke-width="4.68" stroke-linejoin="round"/>
<path d="M577.351 96.1801L572.131 110.86L555.131 114.2L545.941 91.6101C545.941 91.6101 564.521 83.1001 577.351 96.1801Z" stroke="black" stroke-width="4.68" stroke-linejoin="round"/>
<path d="M581.648 97C581.648 97 600.428 84.93 610.198 94.89L601.518 113.46L584.118 111.26" stroke="black" stroke-width="4.68" stroke-linejoin="round"/>
<path d="M577.352 96.18C577.352 96.18 579.132 92.95 581.652 96.98" stroke="black" stroke-width="4.68" stroke-linejoin="round"/>
<path d="M513.738 16.0498C513.738 16.0498 499.188 21.0498 502.358 41.3298" stroke="black" stroke-width="4.68" stroke-linejoin="round"/>
<path d="M798.211 891.19H108.941" stroke="black" stroke-width="4.68" stroke-linejoin="round"/>
<path d="M681.059 419C681.059 419 711.609 381 754.179 419C754.179 419 765.089 378.94 816.389 384.71" stroke="#B8ADD2" stroke-width="4.68" stroke-miterlimit="10"/>
<path d="M64.8398 514.23C64.8398 514.23 87.5998 505.44 96.4698 532.57C96.4698 532.57 111.24 517.97 131.98 533.33" stroke="#B8ADD2" stroke-width="4.68" stroke-miterlimit="10"/>
<path d="M622 468.19C622 468.19 644.92 439.65 676.84 468.19C676.84 468.19 685.03 438.14 723.5 442.46" stroke="#B8ADD2" stroke-width="4.68" stroke-miterlimit="10"/>
<path d="M189.692 428.68C187.919 428.345 186.116 428.194 184.312 428.23C179.56 428.226 174.855 429.158 170.464 430.972C166.073 432.787 162.082 435.449 158.72 438.805C155.357 442.162 152.689 446.149 150.867 450.537C149.045 454.925 148.106 459.629 148.102 464.38" stroke="#B8ADD2" stroke-width="4.68" stroke-miterlimit="10"/>
<path d="M61.7378 464.38C61.7378 465.32 61.7978 466.29 61.8878 467.19C62.5788 474.214 65.8588 480.73 71.0908 485.468C76.3218 490.205 83.1298 492.826 90.1878 492.82H191.048C206.798 492.82 220.338 480.46 220.488 464.74V464.38C220.507 455.72 217.403 447.343 211.746 440.786C206.089 434.229 198.258 429.931 189.688 428.68C184.827 418.701 177.087 410.408 167.468 404.871C157.848 399.333 146.79 396.805 135.72 397.612C124.649 398.419 114.075 402.525 105.36 409.399C96.6458 416.274 90.1908 425.602 86.8278 436.18C79.9208 436.999 73.5538 440.321 68.9308 445.518C64.3068 450.714 61.7488 457.424 61.7378 464.38Z" stroke="#B8ADD2" stroke-width="4.68" stroke-miterlimit="10"/>
<path d="M189.692 428.68C187.919 428.345 186.116 428.194 184.312 428.23C179.56 428.226 174.855 429.158 170.464 430.972C166.073 432.787 162.082 435.449 158.72 438.805C155.357 442.162 152.689 446.149 150.867 450.537C149.045 454.925 148.106 459.629 148.102 464.38" stroke="#B8ADD2" stroke-width="4.68" stroke-miterlimit="10"/>
<path d="M780.929 841.13L739.109 666.3" stroke="#B8ADD2" stroke-width="4.68" stroke-miterlimit="10"/>
<path d="M901.239 617.53C898.029 605.46 891.109 593.4 885.169 584.94C870.815 564.602 852.435 547.431 831.169 534.49C791.479 510.84 749.729 504.33 704.649 514.49C618.259 533.87 578.999 628.05 581.999 695.83C582.274 699.97 583.776 703.935 586.312 707.219C588.847 710.503 592.303 712.957 596.239 714.27C605.239 717.35 612.179 713.42 619.349 708.27C632.879 698.61 653.629 682.97 670.939 692.42C688.669 702.11 719.999 710.07 730.639 686.58C733.149 681.04 733.069 674.43 736.389 669.21C741.479 661.21 749.389 665.91 756.179 669.52C762.969 673.13 770.009 676.25 777.569 677.32C785.129 678.39 793.239 677.19 799.399 672.7C804.849 668.7 808.269 662.64 812.399 657.31C816.529 651.98 822.259 647 828.999 647C832.779 647 836.369 648.49 839.909 649.78C855.909 655.64 881.139 663.45 895.269 649.78C904.149 641.11 904.209 628.72 901.239 617.53Z" stroke="#B8ADD2" stroke-width="4.68" stroke-miterlimit="10"/>
<path d="M278.23 701.93C304.41 766.44 316.23 831.32 410.23 818.18C543.44 799.57 664.33 781 748.7 870.11" stroke="#B8ADD2" stroke-width="4.68" stroke-miterlimit="10"/>
<path d="M49.4805 857.67C72.64 765.16 133.89 562.36 212.27 612.67C219.508 617.306 226.289 622.62 232.52 628.54" stroke="#B8ADD2" stroke-width="4.68" stroke-miterlimit="10"/>
</svg>
