<svg width="906" height="705" viewBox="0 0 906 705" fill="none" xmlns="http://www.w3.org/2000/svg">
<path d="M709.259 230.77C710.009 206.7 726.439 168.43 705.059 125.77" stroke="#B8ADD2" stroke-width="4.72" stroke-miterlimit="10"/>
<path d="M643.768 50.59C568.088 1.58997 426.948 -21.47 348.648 38.99" stroke="#B8ADD2" stroke-width="4.72" stroke-miterlimit="10"/>
<path d="M724.48 295.48C726.471 300.146 728.728 304.694 731.24 309.1C748.51 339.41 772.66 365.35 798.72 388.56C840.45 425.73 868.72 470.38 844.29 526.29C819.57 582.92 773 620.84 726.43 658.92" stroke="#B8ADD2" stroke-width="4.72" stroke-miterlimit="10"/>
<path d="M429 633.88C429 633.88 441.43 560.6 485.92 569.76C530.41 578.92 542.19 628.64 542.19 628.64" stroke="#B8ADD2" stroke-width="4.72" stroke-miterlimit="10"/>
<path d="M478.081 569C478.081 569 443.931 601 445.941 639.38" stroke="#B8ADD2" stroke-width="4.72" stroke-miterlimit="10"/>
<path d="M474.129 591.35C474.129 591.35 460.269 612.76 461.969 639.35" stroke="#B8ADD2" stroke-width="4.72" stroke-miterlimit="10"/>
<path d="M485.59 583.5C485.59 583.5 503.59 609.01 502.92 633.88" stroke="#B8ADD2" stroke-width="4.72" stroke-miterlimit="10"/>
<path d="M501 583.5C501 583.5 515.65 594.62 525.66 627.33" stroke="#B8ADD2" stroke-width="4.72" stroke-miterlimit="10"/>
<path d="M482.642 601.42C480.872 616.875 481.888 632.523 485.642 647.62" stroke="#B8ADD2" stroke-width="4.72" stroke-miterlimit="10"/>
<path d="M472.289 701.72C475.599 696.63 475.409 687.04 479.749 679.36C483.109 673.42 488.679 668.83 495.819 670.78C503.269 672.78 506.379 678.83 507.729 685.94C508.579 690.43 511.479 698.1 516.349 701.72" stroke="#B8ADD2" stroke-width="4.72" stroke-miterlimit="10"/>
<path d="M536 630C538 636.393 539.54 642.273 540.62 647.64C542.23 667.49 542.82 685.85 542.62 701.76" stroke="#B8ADD2" stroke-width="4.72" stroke-miterlimit="10"/>
<path d="M440.001 701.72C436.951 681.88 435.791 660.87 435.911 652.19C435.972 646.061 436.392 639.94 437.171 633.86" stroke="#B8ADD2" stroke-width="4.72" stroke-miterlimit="10"/>
<path d="M435.898 652.18C435.898 652.18 509.898 670.03 540.578 647.62" stroke="#B8ADD2" stroke-width="4.72" stroke-miterlimit="10"/>
<path d="M413.469 72.38C413.469 72.38 442.649 36.05 483.289 72.38C483.289 72.38 493.709 34.12 542.689 39.63" stroke="#B8ADD2" stroke-width="4.72" stroke-miterlimit="10"/>
<path d="M331.262 164.63C331.262 164.63 353.142 137.38 383.622 164.63C383.622 164.63 391.442 135.93 428.182 140.06" stroke="#B8ADD2" stroke-width="4.72" stroke-miterlimit="10"/>
<path d="M392.479 86.58C388.897 85.902 385.254 85.597 381.609 85.67C362.23 85.656 343.638 93.338 329.919 107.026C316.201 120.715 308.478 139.29 308.449 158.67" stroke="#B8ADD2" stroke-width="4.72" stroke-miterlimit="10"/>
<path d="M354.158 227.25C333.428 203.44 293.058 192.82 259.318 188.57C252.148 187.69 245.318 187.06 238.968 186.68C224.501 185.67 209.97 186.062 195.578 187.85C194.318 188.01 193.058 188.19 191.808 188.38C191.398 188.45 190.808 188.57 190.078 188.76" stroke="#B8ADD2" stroke-width="4.72" stroke-miterlimit="10"/>
<path d="M151.241 199.73C141.586 190.322 135.565 177.806 134.241 164.39C134.091 162.53 133.961 160.59 133.961 158.7C133.975 144.648 139.137 131.088 148.472 120.585C157.807 110.082 170.668 103.363 184.621 101.7C186.818 94.834 189.661 88.191 193.111 81.86C202.964 63.765 217.613 48.736 235.449 38.423C253.285 28.109 273.619 22.911 294.216 23.399C314.814 23.886 334.878 30.041 352.207 41.187C369.535 52.333 383.456 68.039 392.441 86.58C409.741 89.12 425.549 97.804 436.971 111.044C448.393 124.284 454.665 141.194 454.641 158.68V159.4C454.653 159.915 454.629 160.429 454.571 160.94C454.601 161.095 454.601 161.255 454.571 161.41V161.73" stroke="#B8ADD2" stroke-width="4.72" stroke-miterlimit="10"/>
<path d="M392.479 86.58C388.897 85.902 385.254 85.597 381.609 85.67C362.23 85.656 343.638 93.338 329.919 107.026C316.201 120.715 308.478 139.29 308.449 158.67" stroke="#B8ADD2" stroke-width="4.72" stroke-miterlimit="10"/>
<path d="M218.72 402.71L204.77 464.77" stroke="#B8ADD2" stroke-width="4.72" stroke-miterlimit="10"/>
<path d="M269.48 448.15C265.653 446.574 262.038 444.525 258.72 442.05C250.14 435.67 243.53 427.05 237.62 418.15C232.62 410.6 227.18 401.61 218.72 402.71C216.87 402.975 215.087 403.593 213.47 404.53C205.89 408.75 201.55 416.92 194.79 422.08C165.99 443.87 132.79 413.15 117.41 389.38C102.41 366.17 66.41 371.55 43.32 374.38C31.09 375.92 20 376.14 10.9 366.3C2.90001 357.62 0.620011 344.57 5.72001 334.1C31.81 280.42 85.43 225.1 151.24 199.73C163.804 194.858 176.798 191.175 190.05 188.73C191.87 188.38 193.69 188.1 195.55 187.82C216.687 184.495 238.233 184.738 259.29 188.54" stroke="#B8ADD2" stroke-width="4.72" stroke-miterlimit="10"/>
<path d="M686.001 701.71C667.771 696.46 584.281 681.82 542.301 676.03" stroke="#B8ADD2" stroke-width="4.72" stroke-miterlimit="10"/>
<path d="M436.159 662.73C415.729 660.37 402.459 658.92 402.459 658.92C317.809 646.13 328.999 591.35 328.999 591.35C328.999 591.35 307.779 599.21 301.109 621.19C292.529 649.55 253.349 666.31 225.609 655.87C210.079 650.06 195.739 639.24 187.499 620C183.699 611.06 181.969 600.56 181.809 589C181.619 577 183.159 563.94 185.739 550.67" stroke="#B8ADD2" stroke-width="4.72" stroke-miterlimit="10"/>
<path d="M133.661 701.72C121.721 668.48 114.421 632.23 120.211 596.91C124.211 572.39 136.211 552.91 148.701 533.24" stroke="#B8ADD2" stroke-width="4.72" stroke-miterlimit="10"/>
<path d="M186.01 546.26L156.48 702.29" stroke="#B8ADD2" stroke-width="4.72" stroke-miterlimit="10"/>
<path d="M386.44 274.48L383.51 277.41L381.09 279.771C381.82 278.951 382.51 278.131 383.23 277.341C383.95 276.551 384.43 275.991 385.02 275.341C385.428 274.958 385.912 274.665 386.44 274.48Z" fill="#353642"/>
<path d="M825.521 191.09C825.211 190.74 824.941 190.43 824.641 190.09C817.431 182.16 820.421 172.46 827.231 165.02C832.481 159.25 841.231 153.34 849.371 153.37C857.371 153.37 866.111 160.28 870.881 166.18C879.041 176.27 882.321 189.18 874.061 200.18C864.742 212.511 854.095 223.779 842.311 233.78C784.901 283.2 717.001 309.1 641.371 298.93C633.951 297.93 623.891 294.36 616.801 291.93" stroke="black" stroke-width="4.72" stroke-miterlimit="10"/>
<path d="M842.309 169.65C834.909 172.46 826.129 179.47 825.379 188.03C824.789 194.76 831.669 199.68 836.999 194.5" stroke="black" stroke-width="4.72" stroke-miterlimit="10"/>
<path d="M776.331 701.71H126.211" stroke="black" stroke-width="4.72" stroke-miterlimit="10"/>
<path d="M616.8 292C600.33 322.5 568.88 341.27 539.17 358.5C531.59 362.87 502.53 379.35 491.87 385.42C486.02 383.42 480.52 381.65 475.46 380.01C475.3 380.01 475.18 379.92 475.02 379.88C453.54 373.09 439.58 369.6 437.57 369.1L459.83 375.8C406.91 361.55 402.95 361.24 349.43 349.29C344.55 348.19 340.21 347.02 336.43 345.83C337.43 343.88 338.43 341.93 339.51 340.04C339.569 339.94 339.622 339.837 339.67 339.73C339.83 339.45 340.01 339.13 340.14 338.85C340.46 338.28 340.77 337.72 341.05 337.18L341.71 336.05L342 335.58L342.12 335.36C343.66 332.587 345.233 329.884 346.84 327.25C351.96 318.63 357.28 310.58 362.69 303.06C368.69 294.73 374.82 287.06 381.02 279.89L381.11 279.8L383.53 277.44L386.46 274.51L410.11 279.8C410.11 279.8 436.61 254.1 452.34 257.44C459.95 253.73 470.05 253.06 478.25 251.3C488.58 249.08 501.16 248.57 508.02 239.3C515.6 229.07 517.94 214.23 515.77 201.93C513.29 187.93 504.14 172.1 490.19 167.29C477.94 163.07 464.65 162.29 451.81 161.6C482.6 160.43 516.99 148.15 545.95 155.79C546.046 155.796 546.14 155.816 546.23 155.85L550.98 157.17C552.452 157.58 553.989 157.709 555.51 157.55C556.51 166.64 562.71 196.16 584.22 209.28C598.55 217.99 610.54 214.59 617.64 208.77C620.57 213.3 622.11 217.67 623.64 223.11C630 245.74 628.06 271.15 616.8 292Z" fill="#353642"/>
<path d="M663.449 668.43L753.799 669.27C758.279 669.27 781.369 683.35 775.329 692.51C770.259 700.19 775.329 701.71 775.329 701.71H685.999L663.449 668.43Z" fill="#9B8CC0"/>
<path d="M91.442 425.43L44.4416 486.49C44.4416 486.49 25.3816 491.49 18.1116 485.86L10.8516 480.22L65.642 409.62L91.442 425.43Z" fill="#9B8CC0"/>
<path d="M412.239 473L400.999 486.59C249.729 658.93 54.1289 469.59 54.1289 469.59L62.9989 457.52" stroke="black" stroke-width="4.72" stroke-miterlimit="10"/>
<path d="M438.641 370.19C438.641 370.19 492.111 381.84 556.861 410.07C556.861 410.07 558.521 410.71 561.471 412.07" stroke="black" stroke-width="4.72" stroke-miterlimit="10"/>
<path d="M659.211 501.7C659.211 501.78 659.291 501.82 659.331 501.89C665.161 513.45 671.041 525.83 676.671 538.36C676.751 538.52 676.791 538.68 676.871 538.84C679.471 544.59 682.031 550.39 684.521 556.14C706.401 606.73 731.201 671.49 731.201 671.49" stroke="black" stroke-width="4.72" stroke-miterlimit="10"/>
<path d="M659.369 501.93C659.301 501.865 659.246 501.787 659.209 501.7C625.499 444.65 576.569 418.94 561.469 412.05C558.469 410.71 556.859 410.05 556.859 410.05" stroke="black" stroke-width="4.72" stroke-miterlimit="10"/>
<path d="M342.109 335.32C342.109 335.32 282.499 428.32 417.809 475.01C561.629 524.56 562.699 508.4 617.379 595.49C651.379 649.66 664.689 670.49 669.809 678.32L673.049 683.21L685.999 701.71H775.369V692.51C775.369 686.941 773.157 681.599 769.218 677.661C765.28 673.723 759.939 671.51 754.369 671.51H718.369" stroke="black" stroke-width="4.72" stroke-miterlimit="10"/>
<path d="M88.191 423.26L67.001 407.4L11.8008 480.93L20.7108 487.62C22.4252 488.906 24.3779 489.838 26.4555 490.363C28.5332 490.888 30.6944 490.995 32.8137 490.678C34.933 490.36 36.9682 489.625 38.801 488.515C40.6339 487.405 42.228 485.942 43.4908 484.21L54.171 469.58" stroke="black" stroke-width="4.72" stroke-miterlimit="10"/>
<path d="M616.371 206.89C647.291 231.31 689.111 234.63 726.771 228.75C759.281 223.68 799.641 211.8 808.771 175.61L815.391 146C816.382 143.659 818.152 141.734 820.401 140.551C822.65 139.368 825.24 139.001 827.729 139.511C830.219 140.021 832.455 141.378 834.058 143.35C835.661 145.322 836.531 147.788 836.521 150.33C836.512 151.609 836.285 152.877 835.851 154.08L834.431 157.98" stroke="black" stroke-width="4.72" stroke-linejoin="round"/>
<path d="M492.699 384.9C500.899 380.21 531.039 363.2 539.159 358.47C568.889 341.24 600.349 322.47 616.829 291.96C628.059 271.16 630.049 245.74 623.629 223.11C621.879 216.94 620.129 212.11 616.369 206.89" stroke="black" stroke-width="4.72" stroke-linejoin="round"/>
<path d="M555.372 158.12C555.372 158.24 555.312 158.34 555.312 158.34C554.872 159.75 558.932 195.16 582.542 209.56C597.762 218.84 610.122 213.56 616.342 206.92H616.412C617.077 206.186 617.705 205.418 618.292 204.62V204.53" stroke="black" stroke-width="4.72" stroke-miterlimit="10"/>
<path d="M616.371 206.89L642.201 176" stroke="black" stroke-width="4.72" stroke-miterlimit="10"/>
<path d="M475.461 380C475.301 380 475.181 379.91 475.021 379.87L459.831 375.79C406.911 361.54 402.951 361.23 349.431 349.28C344.551 348.18 340.211 347.01 336.431 345.82C296.531 333.15 311.121 315.07 316.531 315.07C355.051 315.07 362.031 302.58 362.031 302.58L362.691 303.05L475.461 380Z" fill="#353642"/>
<path d="M88.1797 423.28C88.1797 423.28 255.6 539.41 319.18 383.12C324.593 369.786 330.326 357.376 336.38 345.89" stroke="black" stroke-width="4.72" stroke-miterlimit="10"/>
<path d="M406.318 254.19C393.93 265.457 382.423 277.656 371.898 290.68C364.668 299.43 357.518 306.91 346.468 310.68C341.216 312.399 335.789 313.532 330.288 314.06C324.628 314.67 316.218 313.72 311.948 318.26C311.004 319.275 310.293 320.483 309.864 321.801C309.436 323.119 309.301 324.515 309.468 325.89C309.888 328.355 310.986 330.654 312.638 332.53C321.128 342.97 336.978 346.53 349.428 349.26C407.798 362.26 407.208 361.51 475.428 380" stroke="black" stroke-width="4.72" stroke-miterlimit="10"/>
<path d="M383.51 277.41L381.09 279.77C381.82 278.95 382.51 278.13 383.23 277.34L383.51 277.41Z" fill="#353642"/>
<path d="M307.759 321.56C307.759 321.56 301.889 343.56 330.349 357.85L337.409 343.85C337.409 343.85 301.999 333 307.759 321.56Z" fill="black"/>
<path d="M82.3984 534.25C82.3984 534.25 137.268 595.57 255.138 595.57" stroke="black" stroke-width="4.72" stroke-miterlimit="10"/>
<path d="M589.602 586.59L616.802 628.58" stroke="black" stroke-width="4.72" stroke-miterlimit="10"/>
<path d="M883.211 218.12C893.361 207.98 901.821 195.24 903.001 178.72" stroke="black" stroke-width="4.72" stroke-miterlimit="10"/>
<path d="M732.69 533.32C660.69 560.68 562.821 524.48 562.821 524.48C248.441 422.85 160.521 330.22 136.281 282.64C136.121 282.36 135.961 282.07 135.831 281.82C134.6 279.374 133.881 276.703 133.716 273.97C133.551 271.237 133.945 268.498 134.872 265.922C135.799 263.346 137.24 260.985 139.109 258.983C140.977 256.982 143.234 255.382 145.741 254.28C194.161 232.89 320.641 216.61 629.461 339.34C629.461 339.34 716.06 369.65 758.19 428.58C758.228 428.616 758.262 428.656 758.29 428.7C761.055 432.57 763.625 436.575 765.99 440.7C770.627 448.825 773.448 457.858 774.258 467.177C775.068 476.497 773.849 485.881 770.684 494.684C767.519 503.487 762.483 511.499 755.925 518.169C749.366 524.839 741.439 530.008 732.69 533.32Z" fill="white"/>
<path d="M732.691 533.32C660.691 560.68 562.821 524.48 562.821 524.48C248.441 422.85 160.521 330.22 136.281 282.64C136.474 278.954 137.679 275.393 139.765 272.348C141.85 269.303 144.735 266.892 148.101 265.38C196.301 243.52 322.621 226.04 632.601 345.81C632.601 345.81 714.261 373.52 758.191 428.58C758.229 428.616 758.263 428.656 758.291 428.7C761.056 432.569 763.626 436.574 765.991 440.7C770.628 448.824 773.448 457.857 774.259 467.177C775.069 476.496 773.849 485.88 770.685 494.683C767.52 503.486 762.484 511.498 755.925 518.168C749.366 524.838 741.44 530.007 732.691 533.32Z" fill="#9B8CC0"/>
<path d="M604.571 467.08C565.851 481.8 513.161 462.32 513.161 462.32C460.161 445.18 406.981 425.47 358.471 397.68C334.111 383.73 297.581 363.16 285.471 336.25C284.021 333.03 283.821 329 285.891 326.13C287.481 323.94 290.101 322.76 292.631 321.78C329.631 307.41 371.311 314.78 408.951 322.47C457.841 332.47 503.671 350.21 550.751 366.18C550.751 366.18 594.691 381.09 618.381 410.79C619.875 412.877 621.26 415.04 622.531 417.27C632.861 435.52 624.111 459.65 604.571 467.08Z" fill="#D4CEE4"/>
<path d="M419.512 497.71C421.062 497.71 422.512 497.71 424.002 497.64C424.021 497.647 424.042 497.647 424.062 497.64" stroke="black" stroke-width="4.72" stroke-miterlimit="10"/>
<path d="M457.3 465C448.62 462.71 443.47 447.49 441.62 443.52C441.413 443.094 441.151 442.697 440.84 442.34L435.23 433.71L433.36 443.82C433.88 449.14 441.29 462.82 445.2 476.91C449.11 491 440.95 491.27 436.36 491.43C431.77 491.59 430.02 482.43 428.97 491.43C427.92 500.43 417.97 497.27 412.09 494.22C406.21 491.17 406.23 483.66 405.91 489.44C405.59 495.22 399.68 497.63 395.44 496.44C392.22 495.56 387.5 489.3 385.44 486.35C383.71 489.52 379.39 495.13 372.58 489.19C363.58 481.3 362.04 451.19 363.19 421.19C364.34 391.19 330 324.76 339.83 269.34C339.83 269.26 339.83 269.13 339.9 269.04C340.81 264.9 341.9 260.8 343.23 256.73C345.752 248.983 349.024 241.501 353 234.39C355.872 229.222 359.076 224.245 362.59 219.49L440.48 263C439.71 263.45 434.92 264 434.14 264.49C407.3 280.84 413.4 313.13 421.4 339C429.49 365.33 439.94 392.15 454.14 415.86C458.304 422.804 461.954 430.043 465.06 437.52L463.79 437.77C464.241 440.448 464.852 443.096 465.62 445.7C468.78 455.73 466 467.26 457.3 465Z" fill="white"/>
<path d="M425.171 482.29L425.141 482.28" stroke="black" stroke-width="4.72" stroke-miterlimit="10"/>
<path d="M382.409 481.02L382.379 481.01" stroke="black" stroke-width="4.72" stroke-miterlimit="10"/>
<path d="M410.452 430.64C408.352 446.49 415.562 466.73 425.132 482.23C427.912 486.73 435.132 493.46 440.932 491.23C453.472 486.44 440.752 467.72 437.792 460.89C434.192 452.6 432.052 443.55 433.102 434.48C433.119 433.907 433.331 433.357 433.702 432.92C433.989 432.701 434.341 432.582 434.702 432.582C435.063 432.582 435.414 432.701 435.702 432.92C436.262 433.361 436.714 433.926 437.022 434.57C440.802 441.24 443.852 448.21 446.962 455.21C449.172 460.21 456.592 467.84 462.582 464.38C475.582 456.85 456.582 423.38 451.582 415.04C437.422 391.34 426.942 364.51 418.852 338.18C410.852 312.28 408.762 279.87 435.602 263.55C449.602 255.03 466.342 254.8 482.062 252.2C507.382 248.01 517.932 230.77 517.932 230.77" stroke="black" stroke-width="4.72" stroke-miterlimit="10"/>
<path d="M392.922 441.76C392.922 441.76 393.772 477.43 414.412 495.15C415.62 496.233 417.055 497.033 418.613 497.489C420.17 497.946 421.81 498.049 423.412 497.79C426.922 497.1 430.412 494.58 428.352 486.73" stroke="black" stroke-width="4.72" stroke-miterlimit="10"/>
<path d="M374.93 444.2C375.47 457.51 377.24 471.82 383.73 483.67C386.73 489.07 390.81 494.81 396.81 497.03C404 499.7 406.98 492.55 405.6 486.57C405.32 485.28 404.88 484.031 404.29 482.85" stroke="black" stroke-width="4.72" stroke-miterlimit="10"/>
<path d="M560.001 155.09L555.391 158.09C515.991 152.59 399.901 144.79 350.391 233.52C344.298 244.466 339.878 256.264 337.281 268.52C337.274 268.535 337.27 268.552 337.27 268.57C337.27 268.587 337.274 268.604 337.281 268.62C337.274 268.639 337.274 268.66 337.281 268.68C327.561 324.08 361.841 390.46 360.671 420.34C359.501 450.22 361.021 480.43 370.081 488.34C379.141 496.25 383.791 483.66 383.791 483.66C383.791 483.66 379.101 496.27 370.081 488.34C361.061 480.41 359.511 450.29 360.671 420.34C361.831 390.39 327.561 324.08 337.281 268.68C337.274 268.66 337.274 268.639 337.281 268.62C337.286 268.471 337.306 268.324 337.341 268.18" stroke="black" stroke-width="4.72" stroke-miterlimit="10"/>
<path d="M720.938 113C720.408 114.985 719.524 116.859 718.328 118.53C713.048 121.53 705.448 127.01 699.758 125.09C691.268 122.23 691.268 122.23 687.038 120.86C684.928 120.7 683.548 122.4 680.368 128.19C679.817 129.201 679.189 130.167 678.488 131.08C673.738 133.56 667.958 138.5 663.268 137.21C657.418 135.64 653.868 131.33 650.978 135.8C648.078 136.96 645.878 139.57 644.208 143.63C643.266 145.825 641.972 147.851 640.378 149.63C639.003 150.596 637.54 151.429 636.008 152.12C632.548 153.59 628.208 148.63 623.298 143.59C618.388 138.55 612.858 141.17 611.298 145.39C606.028 146.47 603.488 155.51 601.378 159.75C599.268 163.99 596.708 168.41 592.948 171.48C590.37 173.502 587.238 174.692 583.968 174.892C580.697 175.092 577.443 174.293 574.638 172.6C568.028 168.71 564.938 160.53 564.858 153.15C564.788 145.95 568.858 139.15 567.988 132.07C567.438 127.72 565.468 123.65 563.228 119.94C561.668 117.35 559.928 114.94 558.848 112.13C558.638 111.67 558.552 111.163 558.598 110.66C558.818 109.38 561.348 109.1 562.338 108.85C573.818 105.92 583.878 115.1 591.178 115.85C598.478 116.6 652.268 108.49 652.268 108.49C652.268 108.49 695.348 99.75 703.718 97.49C712.088 95.23 724.178 101 720.938 113Z" fill="#9B8CC0"/>
<path d="M427 270.31C483.79 285.75 550.71 308.02 629.51 339.31C629.51 339.31 728.02 373.8 766.04 440.72C770.668 448.842 773.481 457.871 774.286 467.185C775.092 476.498 773.87 485.876 770.706 494.673C767.542 503.469 762.509 511.476 755.956 518.142C749.402 524.809 741.482 529.976 732.74 533.29C660.74 560.65 562.87 524.45 562.87 524.45C519.95 510.59 481.27 496.88 446.4 483.45" stroke="black" stroke-width="4.72" stroke-miterlimit="10"/>
<path d="M360.481 447.6C205.801 377.16 153.411 316.92 135.831 281.82C134.6 279.373 133.881 276.702 133.716 273.969C133.551 271.236 133.945 268.498 134.872 265.922C135.799 263.345 137.24 260.985 139.109 258.983C140.977 256.982 143.234 255.381 145.741 254.28C175.051 241.35 232.9 230.28 342.49 250.72" stroke="black" stroke-width="4.72" stroke-miterlimit="10"/>
<path d="M623.592 112.63L594.002 114.48C593.722 103.54 596.082 86.72 609.382 69.17C613.46 63.793 618.643 59.352 624.582 56.147C630.521 52.942 637.078 51.047 643.812 50.59C654.708 51.248 664.978 55.905 672.652 63.67C680.537 71.544 686.775 80.909 691.002 91.22C692.702 90.4 694.492 89.61 696.292 88.89C701.588 86.836 706.993 85.074 712.482 83.61C718.682 81.81 725.842 79.61 732.422 80.49C732.633 80.493 732.844 80.517 733.052 80.56C745.212 82.54 716.352 101.21 623.592 112.63Z" fill="#353642"/>
<path d="M708.299 96.17C711.959 97.82 716.549 98.87 719.129 102.17C724.489 109.08 719.899 119.17 713.329 123.4C703.939 129.46 692.759 122.11 683.329 119.99C685.474 130.487 690.494 140.181 697.829 147.99C697.829 147.99 691.669 150.99 686.599 153.28C683.799 154.57 681.509 158.91 679.999 162.49C677.947 167.59 674.533 172.028 670.129 175.32C647.009 191.92 626.859 162.21 626.859 162.21" stroke="black" stroke-width="4.72" stroke-linejoin="round"/>
<path d="M623.711 112.6C623.672 112.614 623.63 112.614 623.591 112.6C614.371 113.92 605.161 114.99 595.881 115.81C593.888 116.101 591.86 116.057 589.881 115.68C589.11 115.489 588.362 115.214 587.651 114.86C586.651 114.42 585.651 113.86 584.651 113.39C577.749 109.875 570.018 108.309 562.291 108.86C559.916 108.934 557.626 109.761 555.751 111.22C552.751 113.79 553.461 116.75 554.751 119.22C557.521 124.76 562.901 129.16 563.681 135.29C564.311 140.01 562.051 144.54 560.921 149.16C559.501 155.094 559.937 161.322 562.171 167C565.001 174.1 571.731 180.42 579.371 179.86C584.251 179.48 588.521 176.43 592.021 172.97C596.412 168.577 599.949 163.405 602.451 157.72C603.621 155.05 604.561 152.22 606.291 149.86C608.021 147.5 610.761 145.65 613.651 145.86C619.471 146.3 621.981 154.03 627.481 155.86C632.081 157.4 636.981 154.22 639.941 150.35C642.901 146.48 644.721 141.83 648.141 138.4C653.431 133.03 657.261 135.23 663.271 137.24C672.011 140.16 683.111 128.24 683.361 120.01" stroke="black" stroke-width="4.72" stroke-linejoin="round"/>
<path d="M587.681 114.89C587.331 103.95 589.591 86.94 603.051 69.17C619.941 46.91 652.941 43.83 672.601 63.66C680.504 71.534 686.759 80.903 691.001 91.22C697.731 87.96 705.301 85.66 712.481 83.6C718.871 81.76 726.321 79.49 733.041 80.6C745.221 82.6 716.371 101.25 623.601 112.65" stroke="black" stroke-width="4.72" stroke-linejoin="round"/>
</svg>
