<svg width="755" height="906" viewBox="0 0 755 906" fill="none" xmlns="http://www.w3.org/2000/svg">
<path d="M514.799 867.06C601.429 865.57 649.059 775.44 677.369 705.58C710.059 624.88 726.679 529.91 696.489 445.9C674.599 384.9 616.979 354.46 562.159 398.69C474.159 469.64 344.699 322.44 171.259 366.64C153.525 371.183 136.259 377.387 119.689 385.17C114.789 387.457 110.043 389.943 105.449 392.63" stroke="#B8ADD2" stroke-width="3.04" stroke-miterlimit="10"/>
<path d="M101.28 395.1C85.3431 404.927 70.9751 417.096 58.6601 431.2C30.9301 462.89 13.5201 503.4 6.7601 546.2C-5.8699 626.38 9.32011 718.61 78.6301 768.41C125.63 802.1 199.47 829.53 196.76 898.75" stroke="#B8ADD2" stroke-width="3.04" stroke-miterlimit="10"/>
<path d="M59.693 626.32L59.293 636.39H59.493V652.34H80.753V649.82L79.793 626.32H59.693Z" fill="#D4CEE4"/>
<path d="M49.8321 596.16C55.6281 602.218 59.1171 610.116 59.6921 618.48H79.7921C80.2921 610.852 83.2331 603.587 88.1821 597.76C91.5991 593.823 95.824 590.667 100.569 588.506C105.314 586.346 110.468 585.232 115.682 585.24H121.832L123.002 556.18C123.305 551.28 122.597 546.369 120.921 541.754C119.246 537.14 116.638 532.919 113.262 529.355C109.885 525.79 105.811 522.959 101.294 521.037C96.7761 519.114 91.911 518.142 87.002 518.18H52.4921C47.5811 518.139 42.715 519.109 38.196 521.031C33.677 522.952 29.6021 525.783 26.2251 529.348C22.8471 532.913 20.24 537.135 18.566 541.751C16.891 546.367 16.1851 551.279 16.4921 556.18L17.6921 585.31H23.8521C28.6861 585.296 33.475 586.249 37.937 588.112C42.398 589.975 46.4431 592.712 49.8321 596.16Z" fill="#D4CEE4"/>
<path d="M186.082 626.32L185.672 636.39H185.872V652.34H207.142V649.82L206.182 626.32H186.082Z" fill="#D4CEE4"/>
<path d="M176.221 596.16C182.01 602.222 185.495 610.118 186.071 618.48H206.171C206.676 610.853 209.617 603.59 214.561 597.76C217.979 593.823 222.203 590.667 226.948 588.506C231.693 586.346 236.847 585.232 242.061 585.24H248.211L249.391 556.18C249.697 551.279 248.991 546.368 247.317 541.751C245.642 537.135 243.035 532.913 239.658 529.348C236.281 525.783 232.206 522.952 227.687 521.031C223.168 519.109 218.301 518.139 213.391 518.18H178.871C173.96 518.137 169.093 519.107 164.574 521.028C160.054 522.949 155.978 525.78 152.601 529.345C149.223 532.91 146.616 537.133 144.942 541.75C143.268 546.367 142.563 551.279 142.871 556.18L144.061 585.31H150.221C155.059 585.295 159.852 586.247 164.317 588.11C168.782 589.973 172.829 592.71 176.221 596.16Z" fill="#D4CEE4"/>
<path d="M312.461 626.32L312.051 636.39H312.251V652.34H333.521V649.82L332.561 626.32H312.461Z" fill="#D4CEE4"/>
<path d="M302.6 596.16C308.393 602.219 311.879 610.117 312.45 618.48H332.55C333.054 610.851 335.999 603.586 340.95 597.76C344.365 593.822 348.587 590.665 353.331 588.505C358.074 586.344 363.228 585.231 368.44 585.24H374.6L375.77 556.18C376.076 551.279 375.37 546.368 373.696 541.751C372.021 537.135 369.414 532.913 366.037 529.348C362.66 525.783 358.585 522.952 354.066 521.031C349.547 519.109 344.68 518.139 339.77 518.18H305.25C300.339 518.137 295.472 519.107 290.953 521.028C286.433 522.949 282.357 525.78 278.98 529.345C275.602 532.91 272.995 537.133 271.321 541.75C269.647 546.367 268.942 551.279 269.25 556.18L270.44 585.31H276.6C281.438 585.295 286.231 586.247 290.696 588.11C295.161 589.973 299.208 592.71 302.6 596.16Z" fill="#D4CEE4"/>
<path d="M438.84 626.32L438.43 636.39H438.64V652.34H459.9V649.82L458.94 626.32H438.84Z" fill="#D4CEE4"/>
<path d="M429.002 596.16C434.799 602.216 438.285 610.116 438.852 618.48H458.952C459.461 610.852 462.405 603.589 467.352 597.76C470.767 593.822 474.989 590.665 479.733 588.505C484.477 586.344 489.63 585.231 494.842 585.24H501.002L502.172 556.18C502.478 551.279 501.772 546.367 500.098 541.751C498.423 537.135 495.816 532.913 492.439 529.348C489.062 525.783 484.987 522.952 480.468 521.031C475.949 519.109 471.083 518.139 466.172 518.18H431.632C426.722 518.139 421.855 519.109 417.336 521.031C412.817 522.952 408.742 525.783 405.365 529.348C401.988 532.913 399.381 537.135 397.706 541.751C396.032 546.367 395.326 551.279 395.632 556.18L396.822 585.31H403.002C407.84 585.295 412.633 586.246 417.098 588.11C421.563 589.973 425.61 592.71 429.002 596.16Z" fill="#D4CEE4"/>
<path d="M565.22 626.32L564.82 636.39H565.02V652.34H586.28V649.82L585.32 626.32H565.22Z" fill="#D4CEE4"/>
<path d="M555.363 596.16C561.16 602.216 564.646 610.116 565.213 618.48H585.323C585.823 610.852 588.765 603.587 593.713 597.76C597.131 593.823 601.355 590.667 606.1 588.506C610.845 586.346 616 585.232 621.213 585.24H627.363L628.543 556.18C628.847 551.28 628.138 546.369 626.463 541.754C624.787 537.14 622.18 532.919 618.803 529.355C615.427 525.79 611.353 522.959 606.835 521.037C602.318 519.114 597.453 518.142 592.543 518.18H558.003C553.093 518.139 548.227 519.109 543.708 521.031C539.188 522.952 535.113 525.783 531.736 529.348C528.359 532.913 525.752 537.135 524.078 541.751C522.403 546.367 521.697 551.279 522.003 556.18L523.193 585.31H529.363C534.202 585.293 538.994 586.245 543.459 588.108C547.925 589.971 551.972 592.709 555.363 596.16Z" fill="#D4CEE4"/>
<path d="M691.603 626.32L691.203 636.39H691.403V652.39H712.663V636.39H742.543C745.194 636.392 747.742 635.367 749.653 633.53C751.564 631.694 752.69 629.188 752.793 626.54L753.003 621.35C751.704 622.866 750.103 624.094 748.301 624.955C746.5 625.816 744.539 626.291 742.543 626.35L691.603 626.32Z" fill="#D4CEE4"/>
<path d="M681.742 596.16C687.538 602.218 691.027 610.116 691.602 618.48H742.542C745.191 618.482 747.738 617.459 749.649 615.624C751.56 613.79 752.686 611.287 752.792 608.64L754.922 556.18C755.226 551.28 754.518 546.369 752.842 541.755C751.166 537.14 748.559 532.919 745.183 529.355C741.806 525.79 737.732 522.959 733.214 521.037C728.697 519.114 723.832 518.142 718.922 518.18H684.402C679.492 518.137 674.625 519.107 670.105 521.028C665.585 522.949 661.509 525.78 658.132 529.345C654.754 532.91 652.147 537.133 650.474 541.75C648.8 546.367 648.095 551.279 648.402 556.18L649.592 585.31H655.752C660.589 585.295 665.38 586.247 669.843 588.11C674.306 589.973 678.352 592.71 681.742 596.16Z" fill="#D4CEE4"/>
<path d="M59.693 760.51L59.293 770.58H59.493V786.53H80.753V784.01L79.793 760.51H59.693Z" fill="#D4CEE4"/>
<path d="M49.8321 730.35C55.6281 736.408 59.1171 744.306 59.6921 752.67H79.7921C80.3021 745.06 83.243 737.814 88.1821 732C91.5991 728.063 95.824 724.907 100.569 722.747C105.314 720.586 110.468 719.472 115.682 719.48H121.832L123.002 690.37C123.305 685.47 122.597 680.56 120.921 675.945C119.246 671.33 116.638 667.109 113.262 663.545C109.885 659.981 105.811 657.149 101.294 655.227C96.7761 653.305 91.911 652.332 87.002 652.37H52.4921C47.5811 652.329 42.715 653.3 38.196 655.221C33.677 657.142 29.6021 659.974 26.2251 663.539C22.8471 667.103 20.24 671.325 18.566 675.942C16.891 680.558 16.1851 685.469 16.4921 690.37L17.6921 719.5H23.8521C28.6861 719.487 33.475 720.439 37.937 722.302C42.398 724.166 46.4431 726.902 49.8321 730.35Z" fill="#D4CEE4"/>
<path d="M186.082 760.51L185.672 770.58H185.872V786.53H207.142V784.01L206.182 760.51H186.082Z" fill="#D4CEE4"/>
<path d="M176.221 730.35C182.01 736.412 185.495 744.308 186.071 752.67H206.171C206.687 745.061 209.627 737.816 214.561 732C217.979 728.063 222.203 724.907 226.948 722.747C231.693 720.586 236.847 719.472 242.061 719.48H248.211L249.391 690.42C249.697 685.519 248.991 680.608 247.317 675.992C245.642 671.375 243.035 667.153 239.658 663.588C236.281 660.024 232.206 657.192 227.687 655.271C223.168 653.35 218.301 652.379 213.391 652.42H178.871C173.96 652.378 169.093 653.347 164.574 655.268C160.054 657.189 155.978 660.02 152.601 663.585C149.223 667.15 146.616 671.373 144.942 675.99C143.268 680.607 142.563 685.519 142.871 690.42L144.061 719.55H150.221C155.056 719.528 159.846 720.472 164.311 722.327C168.776 724.182 172.825 726.909 176.221 730.35Z" fill="#D4CEE4"/>
<path d="M312.461 760.51L312.051 770.58H312.251V786.53H333.521V784.01L332.561 760.51H312.461Z" fill="#D4CEE4"/>
<path d="M302.6 730.35C308.393 736.409 311.879 744.307 312.45 752.67H332.55C333.078 745.053 336.041 737.806 341 732C344.415 728.062 348.637 724.905 353.381 722.745C358.124 720.585 363.278 719.471 368.49 719.48H374.65L375.82 690.42C376.126 685.519 375.42 680.608 373.746 675.992C372.071 671.375 369.464 667.153 366.087 663.588C362.71 660.024 358.635 657.192 354.116 655.271C349.597 653.35 344.73 652.379 339.82 652.42H305.25C300.339 652.378 295.472 653.347 290.953 655.268C286.433 657.189 282.357 660.02 278.98 663.585C275.602 667.15 272.995 671.373 271.321 675.99C269.647 680.607 268.942 685.519 269.25 690.42L270.44 719.55H276.6C281.435 719.528 286.225 720.472 290.69 722.327C295.154 724.182 299.204 726.909 302.6 730.35Z" fill="#D4CEE4"/>
<path d="M438.84 760.51L438.43 770.58H438.64V786.53H459.9V784.01L458.94 760.51H438.84Z" fill="#D4CEE4"/>
<path d="M429.002 730.35C434.799 736.407 438.285 744.306 438.852 752.67H458.952C459.461 745.042 462.405 737.779 467.352 731.95C470.767 728.012 474.989 724.856 479.733 722.695C484.477 720.535 489.63 719.421 494.842 719.43H501.002L502.172 690.37C502.478 685.469 501.772 680.558 500.098 675.942C498.423 671.325 495.816 667.103 492.439 663.539C489.062 659.974 484.987 657.142 480.468 655.221C475.949 653.3 471.083 652.329 466.172 652.37H431.632C426.722 652.329 421.855 653.3 417.336 655.221C412.817 657.142 408.742 659.974 405.365 663.539C401.988 667.103 399.381 671.325 397.706 675.942C396.032 680.558 395.326 685.469 395.632 690.37L396.822 719.5H403.002C407.84 719.485 412.633 720.437 417.098 722.3C421.563 724.163 425.61 726.9 429.002 730.35Z" fill="#D4CEE4"/>
<path d="M565.22 760.51L564.82 770.58H565.02V786.53H586.28V784.01L585.32 760.51H565.22Z" fill="#D4CEE4"/>
<path d="M555.363 730.35C561.16 736.407 564.646 744.306 565.213 752.67H585.323C585.834 745.059 588.775 737.814 593.713 732C597.131 728.063 601.355 724.907 606.1 722.746C610.845 720.586 616 719.472 621.213 719.48H627.363L628.543 690.42C628.847 685.52 628.138 680.61 626.463 675.995C624.787 671.38 622.18 667.159 618.803 663.595C615.427 660.031 611.353 657.199 606.835 655.277C602.318 653.354 597.453 652.382 592.543 652.42H558.003C553.093 652.379 548.227 653.349 543.708 655.271C539.188 657.192 535.113 660.024 531.736 663.588C528.359 667.153 525.752 671.375 524.078 675.991C522.403 680.608 521.697 685.519 522.003 690.42L523.193 719.55H529.363C534.198 719.527 538.989 720.471 543.454 722.325C547.919 724.18 551.968 726.908 555.363 730.35Z" fill="#D4CEE4"/>
<path d="M691.603 760.51L691.203 770.58H691.403V786.53H712.663V770.58H742.543C745.194 770.582 747.742 769.557 749.653 767.721C751.564 765.884 752.69 763.379 752.793 760.73L753.003 755.54C751.704 757.056 750.103 758.284 748.301 759.145C746.5 760.006 744.539 760.481 742.543 760.54L691.603 760.51Z" fill="#D4CEE4"/>
<path d="M681.742 730.35C687.538 736.408 691.027 744.306 691.602 752.67H742.542C745.191 752.673 747.738 751.649 749.649 749.815C751.56 747.98 752.686 745.477 752.792 742.831L754.922 690.37C755.226 685.47 754.518 680.56 752.842 675.945C751.166 671.33 748.559 667.109 745.183 663.545C741.806 659.981 737.732 657.149 733.214 655.227C728.697 653.305 723.832 652.332 718.922 652.37H684.402C679.492 652.328 674.625 653.297 670.105 655.218C665.585 657.139 661.509 659.97 658.132 663.535C654.754 667.101 652.147 671.323 650.474 675.94C648.8 680.557 648.095 685.469 648.402 690.37L649.592 719.5H655.752C660.589 719.485 665.38 720.437 669.843 722.301C674.306 724.164 678.352 726.901 681.742 730.35Z" fill="#D4CEE4"/>
<path d="M582.52 884.22C581.087 882.407 579.099 881.115 576.86 880.54L514.79 865L549.25 631.14C550.345 611.077 547.034 591.018 539.551 572.37C532.067 553.723 520.591 536.94 505.93 523.2L475.19 500.7C442.5 479.15 424.57 465.33 414.86 456.54L414.8 456.47L412.91 455.1C410.285 453.168 408.089 450.713 406.46 447.89C402.65 443.08 403.57 441.68 403.81 441.41C403.72 441.41 403.6 441.41 403.38 441.47C398.94 442.41 365.18 449.47 363.66 449.72C296.66 463.05 270.12 428.72 260.93 418.15C251.74 407.58 243.24 383.15 243.24 383.15C242.57 386.62 241.96 390.06 241.48 393.4C241.02 396.4 240.62 399.25 240.32 402.11C239.65 411.21 239.32 420.46 239.32 429.72V429.87C239.286 446.232 240.746 462.563 243.68 478.66C243.74 478.94 243.77 479.24 243.86 479.55C249.03 502.74 256.55 518.3 259.78 524.23C260.18 524.99 260.6 525.75 261.06 526.52C261.18 526.73 261.3 526.94 261.42 527.12C261.452 527.207 261.508 527.283 261.58 527.34C261.657 527.446 261.727 527.556 261.79 527.67C263.07 529.56 266.63 534.89 271.29 541.67V541.73C271.87 542.59 272.44 543.44 273.05 544.32C273.39 544.81 273.78 545.32 274.12 545.87C287.81 565.75 307.63 593.63 308.79 590.23C311.13 592.93 313.48 595.49 315.79 597.9C246.5 607.13 169 625.64 169 625.64V726.85C169.013 730.366 170.415 733.733 172.901 736.219C175.387 738.705 178.755 740.107 182.27 740.12C185.359 740.108 188.348 739.018 190.721 737.04C193.094 735.061 194.702 732.317 195.27 729.28L205.47 675H374.62C380.78 675 386.879 673.787 392.57 671.429C398.261 669.072 403.432 665.616 407.787 661.26C412.142 656.904 415.596 651.733 417.953 646.041C420.309 640.35 421.521 634.25 421.52 628.09V618.96C422.01 619.08 422.52 619.17 423.02 619.29C423.72 619.45 424.45 619.63 425.15 619.81C425.488 619.876 425.821 619.959 426.15 620.06C426.88 620.21 427.61 620.39 428.37 620.54L430.14 620.97C434.464 621.971 438.547 623.818 442.153 626.406C445.758 628.993 448.816 632.27 451.148 636.046C453.48 639.822 455.04 644.023 455.739 648.406C456.438 652.788 456.262 657.266 455.22 661.58C446 700.24 440.12 771.38 465.11 901H573.88C576.165 901.046 578.404 900.359 580.27 899.04C582.136 897.721 583.531 895.839 584.25 893.67C584.753 892.073 584.858 890.378 584.557 888.731C584.255 887.084 583.556 885.536 582.52 884.22ZM366.92 604.85C368.84 605.49 370.78 606.12 372.79 606.73C370.42 606 368.44 605.39 366.92 604.85Z" fill="white"/>
<path d="M464.122 116.52C463.017 124.932 460.894 133.179 457.802 141.08C455.946 145.869 452.408 149.819 447.852 152.19C445.28 153.516 442.46 154.289 439.572 154.46C439.874 151.854 439.623 149.214 438.835 146.712C438.048 144.21 436.742 141.902 435.002 139.94C435.922 135.17 436.464 130.335 436.622 125.48C436.772 122.28 436.732 119.27 436.622 116.56C436.566 115.02 436.406 113.487 436.142 111.97C435.056 110.469 433.724 109.164 432.202 108.11C426.792 104.11 415.282 99.2 392.542 101.6C388.832 101.981 385.244 103.139 382.012 105C381.935 105.026 381.866 105.07 381.812 105.13C379.592 106.73 376.762 108.74 373.992 109.63C371.222 110.52 368.272 110.25 366.242 106.99C366.192 106.92 366.172 106.86 366.122 106.79C365.052 105 364.122 102.79 361.972 102.05C357.432 100.61 354.592 104.98 353.542 108.78C352.592 112.31 353.262 115.61 354.432 118.78C355.414 121.396 356.826 123.83 358.612 125.98C359.069 126.547 359.477 127.153 359.832 127.79C359.632 127.794 359.435 127.821 359.242 127.87C358.789 127.963 358.342 128.08 357.902 128.22C351.972 130.07 347.182 135.93 346.182 143.35C346.182 143.58 336.732 142.29 335.522 142.03C330.972 141.03 326.602 139.15 323.792 135.29C315.792 124.29 317.632 109.69 322.792 98.72C327.617 88.231 333.633 78.333 340.722 69.22C356.232 49.6796 378.212 36.5396 403.782 38.2196C409.91 38.6613 415.972 39.7678 421.862 41.5196C424.652 42.3158 427.391 43.2844 430.062 44.4196C454.642 59 467.942 86.6 464.122 116.52Z" fill="#2E2E2E"/>
<path d="M366.422 104.87C366.422 104.87 373.952 84.4399 402.322 85.0799C430.692 85.7199 435.112 107.52 435.112 107.52L433.972 109.52C433.972 109.52 398.972 90.2399 376.052 108.82C376.052 108.81 368.312 111.23 366.422 104.87Z" fill="#9B8CC0"/>
<path d="M434.999 139.94C436.801 141.984 438.139 144.394 438.921 147.004C439.703 149.614 439.91 152.363 439.529 155.06C438.319 164.88 430.529 171.99 422.089 170.96C421.133 170.839 420.194 170.611 419.289 170.28C429.999 164 434.999 139.94 434.999 139.94Z" fill="#9B8CC0"/>
<path d="M374.579 172.78C379.028 175.715 384.049 177.672 389.31 178.522C394.571 179.371 399.953 179.095 405.099 177.71C434.159 169.56 437.269 135.41 436.669 116.56C436.61 115.032 436.46 113.509 436.219 112C434.339 101 427.119 91.41 416.509 87.62C395.979 80.26 375.199 89.87 365.199 105.01" stroke="black" stroke-width="4.57" stroke-miterlimit="10"/>
<path d="M436.451 112.37C436.451 112.37 436.371 112.23 436.221 112C434.601 109.65 424.961 98.23 392.621 101.63C388.911 102.011 385.323 103.17 382.091 105.03C382.014 105.056 381.946 105.101 381.891 105.16" stroke="black" stroke-width="4.57" stroke-miterlimit="10"/>
<path d="M346.312 153.35L330.752 151.44C319.532 150.06 311.882 138.69 309.202 128.56C305.412 114.32 310.602 100.85 317.112 88.27C322.457 77.637 329.182 67.755 337.112 58.88C355.112 39.2704 379.802 29.9504 406.192 35.4604C408.532 35.9504 410.852 36.5404 413.192 37.2004C448.282 47.3904 468.752 80.29 464.132 116.52C463.027 124.933 460.904 133.18 457.812 141.08C456.375 144.824 453.893 148.075 450.661 150.447C447.429 152.82 443.583 154.213 439.582 154.46" stroke="black" stroke-width="4.57" stroke-miterlimit="10"/>
<path d="M359.878 127.83C359.523 127.193 359.115 126.588 358.658 126.02C356.873 123.87 355.46 121.436 354.478 118.82C353.308 115.61 352.638 112.31 353.588 108.82C354.638 105.02 357.478 100.65 362.018 102.09C364.178 102.79 365.098 105.09 366.168 106.83C370.228 113.68 377.648 108.21 382.168 104.93" stroke="black" stroke-width="4.57" stroke-miterlimit="10"/>
<path d="M434.999 139.94C436.801 141.984 438.139 144.394 438.921 147.004C439.703 149.614 439.91 152.363 439.529 155.06C438.319 164.88 430.529 171.99 422.089 170.96C421.133 170.839 420.194 170.611 419.289 170.28" stroke="black" stroke-width="4.57" stroke-miterlimit="10"/>
<path d="M400.871 148C404.011 150.71 412.031 153.61 411.191 146.6C410.191 138.29 409.621 120.73 426.191 121.43C426.191 121.43 433.381 122.62 436.641 125.51" stroke="black" stroke-width="4.57" stroke-miterlimit="10"/>
<path d="M392.578 159.48C392.578 159.48 383.968 155.68 388.308 147" stroke="black" stroke-width="4.57" stroke-miterlimit="10"/>
<path d="M398.358 130.674C399.018 127.947 398.23 125.416 396.598 125.021C394.966 124.627 393.108 126.517 392.448 129.244C391.789 131.971 392.577 134.502 394.209 134.896C395.841 135.291 397.698 133.401 398.358 130.674Z" fill="black"/>
<path d="M425.034 135.611C425.693 132.884 424.905 130.354 423.273 129.959C421.642 129.564 419.784 131.455 419.124 134.182C418.464 136.909 419.253 139.439 420.884 139.834C422.516 140.229 424.374 138.338 425.034 135.611Z" fill="black"/>
<path d="M404.24 120.56C404.24 120.56 400.13 112.14 387.77 118.14" stroke="black" stroke-width="4.57" stroke-miterlimit="10"/>
<path d="M406.288 177.35L404.238 209.7" stroke="black" stroke-width="4.57" stroke-miterlimit="10"/>
<path d="M376.679 147.37C376.166 152.066 373.941 156.41 370.429 159.57C368.61 160.156 366.686 160.34 364.789 160.11C356.359 159.11 350.499 150.29 351.699 140.47C352.234 135.766 354.475 131.422 357.999 128.26C359.822 127.677 361.749 127.496 363.649 127.73C371.999 128.76 377.879 137.55 376.679 147.37Z" fill="#9B8CC0"/>
<path d="M376.64 147.34C377.842 137.527 371.99 128.737 363.569 127.706C355.149 126.675 347.349 133.794 346.148 143.607C344.947 153.419 350.799 162.21 359.219 163.241C367.639 164.272 375.439 157.153 376.64 147.34Z" stroke="black" stroke-width="4.57" stroke-miterlimit="10"/>
<path d="M466.578 312.05C467.488 284.9 457.988 260.05 457.988 260.05" stroke="black" stroke-width="4.57" stroke-miterlimit="10"/>
<path d="M261.3 529C261.3 529 307.02 597.52 308.81 592.28C310.6 587.04 325.22 588.87 325.22 588.87C325.22 588.87 353.74 602.15 366.92 606.87C380.1 611.59 430.17 623 430.17 623C410.3 552.77 475.17 502.76 475.17 502.76C398.29 452.11 403.17 444.13 403.79 443.46C403.7 443.46 403.58 443.46 403.37 443.53C398.92 444.47 365.17 451.53 363.64 451.77C296.64 465.11 270.1 430.77 260.91 420.21C251.72 409.65 243.23 385.21 243.23 385.21C242.56 388.68 241.95 392.12 241.46 395.47C228.91 477 261.3 529 261.3 529Z" fill="#9B8CC0"/>
<path d="M239.309 431.74V431.89C238.399 455.89 241.019 480.01 249.089 502.75C265.249 548.38 303.269 588.41 378.419 610.51C382.199 611.79 405.699 617.3 430.169 622.99C434.492 623.99 438.573 625.837 442.178 628.424C445.783 631.011 448.84 634.286 451.172 638.061C453.504 641.836 455.065 646.036 455.765 650.418C456.464 654.799 456.289 659.276 455.249 663.59C445.999 702.28 440.119 773.42 465.109 903H573.869C576.156 903.045 578.398 902.357 580.266 901.036C582.133 899.715 583.529 897.831 584.249 895.66C584.745 894.07 584.847 892.384 584.545 890.746C584.244 889.108 583.548 887.568 582.519 886.26C581.089 884.443 579.099 883.15 576.859 882.58L514.789 867.05L549.249 633.18C550.343 613.118 547.032 593.06 539.548 574.414C532.064 555.769 520.589 538.988 505.929 525.25L412.929 457.15C408.087 453.584 404.781 448.311 403.68 442.4C402.579 436.488 403.765 430.379 406.999 425.31C413.519 415.15 421.999 401.91 430.869 388.31" stroke="black" stroke-width="4.57" stroke-miterlimit="10"/>
<path d="M241.479 395.42C241.969 392.07 242.579 388.63 243.249 385.16C243.249 385.16 251.739 409.64 260.929 420.16C270.119 430.68 296.639 465.06 363.659 451.72C365.189 451.48 398.939 444.42 403.389 443.48C403.463 441.529 403.423 439.576 403.269 437.63C402.801 434.445 403.512 431.198 405.269 428.5L414.929 413L432.579 386.22L390.389 378.58C379.389 341.9 415.499 290.15 435.109 303.88C454.719 317.61 461.379 311.52 478.999 312.88C489.844 313.612 500.709 311.787 510.719 307.55C499.819 280 517.999 252.69 517.999 252.69C491.549 257.23 473.929 230.9 457.999 214.69C442.069 198.48 409.139 195.33 409.139 195.33C409.139 195.33 456.929 255.42 406.279 260.08C355.629 264.74 347.349 203.67 323.419 212.35C299.489 221.03 295.599 219.26 279.189 247.75C262.779 276.24 258.249 304.85 249.579 340.26C243.249 366.11 240.869 383.55 241.479 395.42Z" fill="#2E2E2E"/>
<path d="M605.599 147C601.835 143.259 597.28 140.409 592.27 138.66C583.8 135.66 576.98 137.81 572.02 142.71" stroke="black" stroke-width="4.57" stroke-miterlimit="10"/>
<path d="M605.11 233.73C601.55 243.47 597.11 254.03 591.75 265.57" stroke="black" stroke-width="4.57" stroke-miterlimit="10"/>
<path d="M563.771 158.12C560.701 169.5 562.001 182.56 568.001 188.86C568.112 189.002 568.236 189.133 568.371 189.25C575.651 196.25 583.291 194.37 589.251 188.98" stroke="black" stroke-width="4.57" stroke-miterlimit="10"/>
<path d="M567.998 188.86C562.798 205.36 545.688 250.26 512.728 253.63C488.218 256.16 467.858 218.93 448.828 207.63C435.528 199.75 420.068 195.76 404.148 194.97" stroke="black" stroke-width="4.57" stroke-miterlimit="10"/>
<path d="M628.63 309.86C628.539 309.873 628.448 309.893 628.36 309.92C627.864 310.011 627.376 310.141 626.9 310.31C619.59 312.17 612.81 314.12 611.04 315.31C593.42 325.31 570.4 342.56 549.16 359.6C488.03 408.6 361.16 387.97 304.64 333.7C251 282.14 283.15 241.1 283.15 241.1" stroke="black" stroke-width="4.57" stroke-miterlimit="10"/>
<path d="M315.78 599.91C246.5 609.17 169 627.67 169 627.67V728.89C168.994 732.2 170.226 735.392 172.454 737.84C174.681 740.288 177.744 741.814 181.04 742.119C184.336 742.423 187.626 741.484 190.265 739.486C192.904 737.488 194.7 734.575 195.3 731.32L205.47 677H374.62C387.06 676.998 398.989 672.054 407.784 663.257C416.579 654.46 421.52 642.53 421.52 630.09V620.44" stroke="black" stroke-width="4.57" stroke-miterlimit="10"/>
<path d="M264.66 534.36C264.66 534.36 310.83 602.24 332.9 614.65" stroke="black" stroke-width="4.57" stroke-miterlimit="10"/>
<path d="M546.908 101.41C546.908 101.53 546.968 101.62 546.998 101.74C554.238 120.46 566.508 138.03 586.268 142.5C605.838 146.94 621.548 134.5 629.888 117.42C638.228 100.34 637.798 80.92 632.438 62.93C624.378 35.7496 600.908 19.6496 574.438 25.7896C537.998 34.3196 536.998 72.73 546.908 101.41Z" fill="#9B8CC0"/>
<path d="M582.711 3.00043C620.881 4.18043 661.481 38.3404 652.411 101.13C646.321 143.26 615.001 176.38 622.821 221L631.771 258.84L610.471 259.3L603.471 221C596.471 191.33 583.141 179.54 561.321 154.46C537.731 127.31 521.901 101.07 521.871 67.28C521.801 33.9204 547.791 2.00043 582.711 3.00043ZM543.001 103.42C550.921 123.9 564.311 143.08 585.921 147.98C607.321 152.82 624.521 139.24 633.621 120.55C642.721 101.86 642.261 80.68 636.421 60.98C627.601 31.2704 601.911 13.6504 573.001 20.4104C533.151 29.6904 532.001 71.7 542.891 103.05C542.943 103.169 542.98 103.293 543.001 103.42Z" fill="#9B8CC0"/>
<path d="M582.711 3.00043C620.881 4.18043 661.481 38.3404 652.411 101.13C646.321 143.26 615.001 176.38 622.821 221L631.771 258.84L610.471 259.3L603.471 221C596.471 191.33 583.141 179.54 561.321 154.46C537.731 127.31 521.901 101.07 521.871 67.28C521.801 33.9204 547.791 2.00043 582.711 3.00043ZM543.001 103.42C550.921 123.9 564.311 143.08 585.921 147.98C607.321 152.82 624.521 139.24 633.621 120.55C642.721 101.86 642.261 80.68 636.421 60.98C627.601 31.2704 601.911 13.6504 573.001 20.4104C533.151 29.6904 532.001 71.7 542.891 103.05C542.943 103.169 542.98 103.293 543.001 103.42Z" fill="#9B8CC0"/>
<path d="M618.919 159.11C617.729 158.03 615.249 159.45 614.069 159.92C607.047 162.964 599.438 164.412 591.789 164.16C591.48 164.141 591.173 164.217 590.908 164.377C590.643 164.538 590.434 164.775 590.308 165.058C590.182 165.341 590.145 165.655 590.202 165.959C590.26 166.263 590.409 166.543 590.629 166.76C595.049 171 602.839 179.07 606.419 186.35C606.562 186.63 606.789 186.858 607.067 187.003C607.345 187.149 607.662 187.205 607.973 187.163C608.285 187.122 608.575 186.984 608.806 186.771C609.036 186.557 609.194 186.277 609.259 185.97C610.118 181.534 611.459 177.205 613.259 173.06C615.059 169.15 617.829 165.71 619.139 161.57C619.323 161.194 619.405 160.777 619.379 160.36C619.353 159.943 619.218 159.54 618.989 159.19L618.919 159.11Z" fill="white"/>
<path d="M642.731 321.61C640.121 324.422 636.746 326.41 633.021 327.33C633.021 327.33 620.081 330.86 619.081 321.73C618.221 314.06 624.081 311.23 626.901 310.31C627.377 310.142 627.865 310.012 628.361 309.92C628.45 309.894 628.54 309.874 628.631 309.86C630.281 309.58 638.631 308.4 641.691 314.45" stroke="black" stroke-width="4.57" stroke-miterlimit="10"/>
<path d="M642.73 321.61C653.51 309.94 651.29 286.96 645.83 273.36C643.17 266.72 638.09 260.99 631.1 258.87C626.25 257.507 621.16 257.227 616.19 258.05C614.033 258.347 611.895 258.774 609.79 259.33C589.46 264.38 560.66 280.48 535.58 296.4C503.58 316.67 450.69 319.4 421.52 295.21C394.16 272.54 387.52 259.21 365.18 247.76" stroke="black" stroke-width="4.57" stroke-miterlimit="10"/>
<path d="M617.77 312.81L619.08 321.73" stroke="black" stroke-width="4.57" stroke-miterlimit="10"/>
<path d="M631.101 258.87L622.101 221.03C614.281 176.38 645.601 143.26 651.691 101.16C660.811 38.3698 620.201 4.20977 582.001 2.99977C547.091 1.92977 521.091 33.8898 521.121 67.28C521.121 101.07 536.981 127.28 560.571 154.46C582.401 179.55 595.701 191.33 602.731 221L609.731 259.3" stroke="black" stroke-width="4.57" stroke-miterlimit="10"/>
<path d="M662.25 421.08C662.256 425.137 663.193 429.139 664.988 432.777C666.784 436.416 669.39 439.594 672.607 442.066C675.823 444.539 679.564 446.241 683.542 447.041C687.52 447.841 691.628 447.717 695.55 446.68C700.122 443.426 703.541 438.803 705.312 433.478C707.083 428.153 707.115 422.403 705.402 417.059C703.69 411.715 700.323 407.054 695.787 403.75C691.251 400.446 685.782 398.671 680.17 398.68C677.836 398.669 675.512 398.975 673.26 399.59C669.851 402.041 667.074 405.268 665.16 409.005C663.245 412.742 662.248 416.881 662.25 421.08Z" fill="#D4CEE4"/>
<path d="M688.718 447.57C703.343 447.57 715.198 435.715 715.198 421.09C715.198 406.466 703.343 394.61 688.718 394.61C674.094 394.61 662.238 406.466 662.238 421.09C662.238 435.715 674.094 447.57 688.718 447.57Z" stroke="black" stroke-width="4.57" stroke-miterlimit="10"/>
<path d="M353.142 160.87C348.142 179.87 352.232 189.67 337.752 204.29C329.672 212.46 317.372 213.14 307.392 218.1C286.222 228.61 275.562 252.59 268.032 273.74C268.032 273.74 219.032 405.47 249.092 502.74" stroke="black" stroke-width="4.57" stroke-miterlimit="10"/>
<path d="M536.34 903H169" stroke="black" stroke-width="4.57" stroke-miterlimit="10"/>
<path d="M138.76 338.32C121.76 325.32 110.59 311.24 113.88 306.97C117.17 302.7 133.589 309.81 150.609 322.85C167.629 335.89 178.74 349.85 175.48 354.17C175.42 354.261 175.337 354.333 175.239 354.38C171.489 358.15 155.38 351.08 138.76 338.32Z" fill="#9B8CC0"/>
<path d="M184.619 392.19C173.779 399.89 158.369 400.61 145.789 396.1C154.155 392.691 161.376 386.967 166.603 379.598C171.83 372.23 174.846 363.523 175.299 354.5V354.43C184.449 349.43 194.099 354.43 197.569 363.78C201.929 375.59 193.879 385.66 184.619 392.19Z" fill="#9B8CC0"/>
<path d="M113.731 307C105.052 309.719 97.345 314.89 91.538 321.89C85.731 328.889 82.072 337.418 81.001 346.45C73.341 335.5 70.181 320.55 74.851 308.07C78.791 297.41 86.391 286.97 98.921 288.18C108.691 289 116.051 297 113.731 307Z" fill="#9B8CC0"/>
<path d="M105.081 393.61L72.611 436C72.048 436.784 71.334 437.446 70.51 437.948C69.686 438.45 68.77 438.782 67.816 438.923C66.862 439.064 65.889 439.012 64.955 438.77C64.021 438.527 63.146 438.1 62.38 437.513C61.615 436.926 60.975 436.191 60.5 435.352C60.024 434.513 59.721 433.587 59.61 432.628C59.499 431.67 59.582 430.7 59.854 429.774C60.125 428.848 60.58 427.987 61.191 427.24L93.651 384.87L105.081 393.61Z" fill="#9B8CC0"/>
<path d="M88.4491 462.28C84.2791 467.73 68.199 462.44 52.549 450.44C36.899 438.44 27.5491 424.3 31.7791 418.86C35.4391 414.08 48.1691 417.53 61.7791 426.46L61.1991 427.23C60.5831 427.975 60.1241 428.837 59.8481 429.764C59.5721 430.691 59.486 431.664 59.595 432.624C59.703 433.585 60.004 434.514 60.479 435.356C60.955 436.198 61.595 436.936 62.361 437.525C63.128 438.115 64.006 438.543 64.942 438.786C65.878 439.029 66.8531 439.081 67.8091 438.938C68.7661 438.796 69.684 438.462 70.508 437.958C71.333 437.453 72.048 436.787 72.609 436L73.1991 435.23C85.4291 446.05 92.1091 457.5 88.4491 462.28Z" fill="#9B8CC0"/>
<path d="M157.269 481.75C153.396 483.574 149.01 483.999 144.859 482.95C141.477 481.827 138.585 479.574 136.669 476.57C127.289 476.48 121.769 470.18 119.479 462.41C118.729 462.24 117.749 461.98 117.119 461.76C111.019 459.31 107.339 452.27 105.049 446.43C104.179 443.01 103.979 439.18 105.959 436.18C107.23 434.246 109.125 432.806 111.329 432.1C113.539 431.43 115.879 431.68 118.119 431.43C123.008 430.991 127.54 428.689 130.779 425C139.419 414.74 158.219 416.92 161.659 439.3C165.099 461.68 162.419 478.64 173.749 485.16C173.649 485.22 173.545 485.273 173.439 485.32C168.719 486.46 162.709 486.39 157.269 481.75Z" fill="#D4CEE4"/>
<path d="M4.85994 347.61C2.98994 351.463 2.51595 355.846 3.51995 360.01C4.60895 363.402 6.82994 366.318 9.80994 368.27C9.80994 377.65 16.0399 383.27 23.8099 385.61C23.9699 386.36 24.2199 387.34 24.4199 387.98C26.8199 394.1 33.8099 397.85 39.6199 400.21C43.0399 401.12 46.8599 401.36 49.8799 399.41C51.8329 398.163 53.2949 396.28 54.0199 394.08C54.7199 391.88 54.4899 389.54 54.7699 387.3C55.2609 382.417 57.6099 377.91 61.3299 374.71C71.6899 366.19 69.7099 347.37 47.3299 343.71C24.9499 340.05 8.00994 342.52 1.60994 331.12C1.54394 331.218 1.48694 331.322 1.43994 331.43C0.269944 336.11 0.279943 342.12 4.85994 347.61Z" fill="#D4CEE4"/>
<path d="M175.301 354.5V354.43C171.361 358.09 155.371 350.98 138.781 338.3C122.911 326.12 112.141 313.01 113.491 307.88C113.571 307.549 113.714 307.237 113.911 306.96C113.841 306.96 113.781 306.96 113.771 307.04C105.09 309.75 97.379 314.912 91.565 321.905C85.75 328.897 82.082 337.421 81.001 346.45C81.001 346.57 81.001 346.75 81.001 346.87C80.191 354.018 81.018 361.256 83.42 368.037C85.823 374.818 89.737 380.963 94.866 386.006C99.996 391.05 106.206 394.86 113.026 397.148C119.846 399.435 127.098 400.141 134.231 399.21C138.031 398.688 141.756 397.721 145.331 396.33C145.531 396.26 145.681 396.17 145.881 396.1C154.247 392.691 161.467 386.966 166.694 379.598C171.921 372.229 174.938 363.523 175.391 354.5H175.301ZM131.141 352.45L116.761 370.67L121.761 374.47C122.368 374.961 122.759 375.669 122.853 376.444C122.946 377.218 122.734 377.999 122.261 378.62C121.902 379.085 121.411 379.429 120.852 379.608C120.293 379.787 119.692 379.791 119.131 379.62C118.776 379.528 118.439 379.379 118.131 379.18L110.781 373.54C110.621 373.44 110.481 373.28 110.321 373.18L103.851 368.18C103.54 367.95 103.278 367.661 103.08 367.329C102.883 366.996 102.753 366.628 102.7 366.245C102.647 365.862 102.671 365.472 102.771 365.099C102.871 364.725 103.044 364.376 103.281 364.07C103.515 363.757 103.809 363.494 104.146 363.296C104.483 363.098 104.856 362.969 105.243 362.917C105.631 362.865 106.024 362.89 106.402 362.992C106.779 363.094 107.132 363.27 107.441 363.51L112.101 367.11L120.221 356.81L119.491 357.04C119.13 357.171 118.746 357.23 118.362 357.213C117.978 357.196 117.602 357.104 117.253 356.942C116.905 356.779 116.592 356.55 116.333 356.266C116.073 355.983 115.872 355.651 115.741 355.29C115.609 354.929 115.551 354.545 115.567 354.161C115.584 353.778 115.677 353.401 115.839 353.053C116.002 352.704 116.231 352.392 116.515 352.132C116.798 351.872 117.13 351.671 117.491 351.54L127.811 347.9C128.412 347.67 129.074 347.651 129.687 347.845C130.301 348.04 130.831 348.436 131.191 348.97C131.545 349.483 131.731 350.094 131.722 350.718C131.713 351.342 131.51 351.947 131.141 352.45Z" fill="#D4CEE4"/>
<path d="M299.002 776C285.252 782.14 272.862 784.31 271.322 780.84C269.782 777.37 279.682 769.63 293.432 763.49C307.182 757.35 319.552 755.2 321.092 758.64C321.129 758.707 321.15 758.783 321.152 758.86C322.222 762.41 312.462 770 299.002 776Z" fill="#9B8CC0"/>
<path d="M347.641 765.71C348.751 774.98 344.031 784.71 337.041 790.99C337.736 784.685 336.62 778.312 333.824 772.618C331.027 766.924 326.666 762.145 321.251 758.84H321.191C321.191 751.52 327.521 747.25 334.431 748.22C343.191 749.46 346.711 757.81 347.641 765.71Z" fill="#9B8CC0"/>
<path d="M271.329 780.93C270.092 787.196 270.694 793.687 273.06 799.62C275.427 805.553 279.459 810.675 284.669 814.37C275.339 815.43 265.049 812.37 258.909 805.31C253.659 799.31 249.759 791.11 254.709 783.78C258.529 778 265.899 776.13 271.329 780.93Z" fill="#9B8CC0"/>
<path d="M321.859 815.28L337.129 849.52C337.675 850.744 337.713 852.135 337.234 853.387C336.755 854.639 335.798 855.649 334.574 856.195C333.35 856.742 331.959 856.779 330.707 856.3C329.455 855.821 328.445 854.864 327.899 853.64L312.629 819.4L321.859 815.28Z" fill="#9B8CC0"/>
<path d="M358.669 848.55C360.669 852.95 351.979 861.1 339.329 866.75C326.679 872.4 314.839 873.38 312.879 868.98C311.149 865.12 317.549 858.41 327.619 852.98L327.899 853.61C328.446 854.834 329.456 855.791 330.708 856.27C331.96 856.749 333.35 856.712 334.574 856.165C335.798 855.619 336.755 854.609 337.234 853.357C337.713 852.105 337.676 850.714 337.129 849.49L336.859 848.86C347.639 845 356.999 844.69 358.669 848.55Z" fill="#9B8CC0"/>
<path d="M393.742 812.6C393.573 815.603 392.368 818.455 390.332 820.67C388.503 822.375 386.145 823.402 383.652 823.58C380.452 829.34 374.712 830.58 369.142 829.44C368.792 829.85 368.302 830.36 367.962 830.69C364.392 833.63 358.822 833.54 354.452 833C352.042 832.39 349.622 831.23 348.452 829C347.68 827.569 347.426 825.916 347.732 824.32C348.214 822.792 348.837 821.313 349.592 819.9C350.966 816.726 351.066 813.145 349.872 809.9C346.432 801.12 354.072 790.25 369.042 795.63C384.012 801.01 393.572 808.34 401.392 803.53C401.398 803.613 401.398 803.697 401.392 803.78C400.943 805.767 400.009 807.612 398.675 809.151C397.34 810.69 395.645 811.875 393.742 812.6Z" fill="#D4CEE4"/>
<path d="M259.878 861.72C261.629 864.172 264.178 865.939 267.088 866.72C269.545 867.178 272.084 866.787 274.288 865.61C280.078 868.76 285.608 866.78 289.678 862.79C290.198 862.94 290.878 863.12 291.348 863.2C295.928 863.78 300.588 860.72 303.988 857.92C305.698 856.12 307.128 853.84 306.938 851.32C306.803 849.701 306.119 848.176 304.998 847C303.777 845.968 302.461 845.054 301.068 844.27C298.22 842.329 296.226 839.369 295.498 836C293.708 826.75 281.428 821.66 271.668 834.22C261.908 846.78 257.758 858.09 248.578 858.22C248.616 858.29 248.659 858.357 248.708 858.42C250.153 859.848 251.93 860.897 253.879 861.473C255.827 862.049 257.889 862.134 259.878 861.72Z" fill="#D4CEE4"/>
<path d="M321.248 758.84H321.188C322.128 762.49 312.388 769.98 298.998 775.97C286.158 781.68 274.468 783.97 271.748 781.39C271.573 781.226 271.428 781.033 271.318 780.82C271.318 780.88 271.318 780.91 271.318 780.93C270.082 787.196 270.683 793.687 273.05 799.62C275.416 805.553 279.448 810.675 284.658 814.37L284.898 814.53C289.037 817.429 293.782 819.347 298.772 820.138C303.763 820.93 308.868 820.575 313.701 819.099C318.534 817.623 322.967 815.066 326.664 811.622C330.361 808.177 333.225 803.936 335.038 799.22C335.997 796.699 336.655 794.074 336.998 791.4C336.998 791.25 336.998 791.14 337.048 790.99C337.743 784.684 336.627 778.311 333.831 772.618C331.034 766.924 326.673 762.144 321.258 758.84H321.248ZM305.188 785.4L311.608 800.4L315.608 798.61C315.858 798.501 316.128 798.442 316.4 798.437C316.673 798.432 316.944 798.482 317.198 798.582C317.452 798.682 317.683 798.832 317.879 799.022C318.074 799.212 318.231 799.439 318.338 799.69C318.512 800.065 318.564 800.485 318.489 800.892C318.414 801.298 318.214 801.671 317.918 801.96C317.743 802.143 317.54 802.298 317.318 802.42L311.368 805.07C311.258 805.13 311.108 805.16 310.998 805.23L305.718 807.53C305.475 807.651 305.209 807.722 304.937 807.737C304.665 807.752 304.393 807.712 304.138 807.618C303.882 807.524 303.649 807.38 303.451 807.193C303.253 807.005 303.096 806.78 302.988 806.53C302.874 806.28 302.81 806.01 302.801 805.735C302.791 805.46 302.837 805.187 302.935 804.93C303.032 804.673 303.18 804.438 303.37 804.239C303.559 804.04 303.787 803.88 304.038 803.77L307.818 802.1L304.178 793.64L304.078 794.17C304.037 794.436 303.944 794.692 303.803 794.923C303.663 795.153 303.479 795.354 303.261 795.513C303.043 795.672 302.796 795.787 302.534 795.851C302.272 795.915 302 795.926 301.733 795.885C301.467 795.843 301.211 795.75 300.98 795.61C300.75 795.47 300.549 795.285 300.39 795.068C300.231 794.85 300.116 794.603 300.052 794.341C299.989 794.079 299.977 793.806 300.018 793.54L301.238 785.95C301.297 785.502 301.506 785.087 301.831 784.772C302.156 784.458 302.578 784.263 303.028 784.22C303.466 784.169 303.909 784.255 304.296 784.466C304.683 784.678 304.995 785.004 305.188 785.4Z" fill="#D4CEE4"/>
</svg>
