<svg width="861" height="451" viewBox="0 0 861 451" fill="none" xmlns="http://www.w3.org/2000/svg">
<rect width="861" height="450.78" fill="#333333"/>
<path d="M255.621 281.448C270.834 266.46 279.363 246.159 279.333 225.003C279.317 223.698 278.778 222.45 277.831 221.533C276.884 220.615 275.608 220.1 274.277 220.1C272.946 220.1 271.67 220.615 270.723 221.533C269.776 222.45 269.237 223.698 269.221 225.003C269.242 243.543 261.764 261.334 248.431 274.466C241.958 280.988 234.22 286.172 225.672 289.712C217.125 293.251 207.943 295.075 198.666 295.075C189.389 295.075 180.206 293.251 171.659 289.712C163.112 286.172 155.374 280.988 148.901 274.466C135.585 261.321 128.111 243.537 128.111 225C128.111 206.463 135.585 188.68 148.901 175.534C155.336 169.062 163.016 163.908 171.496 160.371C179.976 156.834 189.087 154.985 198.301 154.93C200.268 154.99 202.133 155.802 203.499 157.194C204.865 158.585 205.623 160.444 205.611 162.376C205.6 164.308 204.82 166.159 203.438 167.534C202.056 168.91 200.181 169.701 198.213 169.739C198.031 169.739 197.848 169.749 197.668 169.768C183.65 170.211 170.349 175.956 160.547 185.801C150.195 196.029 144.385 209.86 144.385 224.276C144.385 238.693 150.195 252.524 160.547 262.752C165.604 267.836 171.647 271.876 178.318 274.635C184.99 277.393 192.157 278.814 199.396 278.814C206.636 278.814 213.803 277.393 220.475 274.635C227.146 271.876 233.188 267.836 238.246 262.752C248.614 252.535 254.426 238.696 254.405 224.276C254.427 222.005 253.989 219.751 253.119 217.647C252.247 215.543 250.96 213.628 249.331 212.015C247.702 210.401 245.763 209.12 243.627 208.246C241.491 207.372 239.2 206.922 236.885 206.922C234.57 206.922 232.279 207.372 230.143 208.246C228.007 209.12 226.069 210.401 224.439 212.015C222.81 213.628 221.523 215.543 220.652 217.647C219.781 219.751 219.344 222.005 219.365 224.276C219.365 224.421 219.375 224.557 219.386 224.696C219.375 224.835 219.365 224.974 219.365 225.116C219.398 229.076 218.232 232.956 216.014 236.265C213.796 239.573 210.627 242.16 206.909 243.699C203.191 245.236 199.09 245.655 195.129 244.903C191.168 244.15 187.523 242.26 184.659 239.471C181.794 236.682 179.838 233.121 179.038 229.239C178.239 225.357 178.632 221.33 180.169 217.669C181.705 214.006 184.315 210.875 187.668 208.671C191.021 206.468 194.965 205.291 198.999 205.291C199.669 205.299 200.333 205.177 200.953 204.931C201.574 204.685 202.138 204.321 202.614 203.859C203.09 203.398 203.469 202.848 203.726 202.242C203.985 201.636 204.117 200.985 204.117 200.329C204.117 199.672 203.985 199.022 203.726 198.416C203.469 197.809 203.09 197.26 202.614 196.798C202.138 196.337 201.574 195.972 200.953 195.726C200.333 195.481 199.669 195.358 198.999 195.366C193.012 195.399 187.167 197.171 182.205 200.46C177.242 203.749 173.383 208.407 171.114 213.846C168.846 219.285 168.269 225.262 169.458 231.022C170.647 236.782 173.547 242.068 177.793 246.212C182.039 250.356 187.44 253.173 193.316 254.308C199.191 255.442 205.278 254.843 210.807 252.587C216.336 250.33 221.061 246.517 224.384 241.628C227.707 236.739 229.481 230.993 229.481 225.116C229.481 224.971 229.471 224.835 229.459 224.696C229.471 224.557 229.481 224.418 229.481 224.276C229.461 223.309 229.638 222.348 230.002 221.449C230.365 220.55 230.908 219.731 231.597 219.041C232.287 218.35 233.11 217.801 234.019 217.427C234.927 217.052 235.903 216.859 236.888 216.859C237.873 216.859 238.849 217.052 239.758 217.427C240.666 217.801 241.49 218.35 242.18 219.041C242.869 219.731 243.412 220.55 243.775 221.449C244.139 222.348 244.316 223.309 244.296 224.276C244.309 236.082 239.547 247.41 231.057 255.772C226.94 259.924 222.018 263.222 216.58 265.475C211.143 267.728 205.3 268.888 199.398 268.888C193.496 268.888 187.654 267.728 182.217 265.475C176.779 263.222 171.857 259.924 167.74 255.772C159.261 247.403 154.501 236.079 154.501 224.276C154.501 212.473 159.261 201.15 167.74 192.78C171.86 188.634 176.782 185.338 182.218 183.086C187.655 180.834 193.494 179.67 199.395 179.664C199.849 179.663 200.3 179.601 200.738 179.481C205.043 178.833 208.951 176.648 211.715 173.346C214.479 170.043 215.904 165.855 215.715 161.585C215.526 157.315 213.736 153.263 210.691 150.208C207.646 147.153 203.559 145.309 199.213 145.03C199.032 145.01 198.849 145 198.666 145C198.564 145 198.463 145 198.361 145C198.311 145 198.262 145 198.214 145C198.165 145 198.115 145.006 198.066 145.007C187.554 145.088 177.163 147.211 167.491 151.252C157.818 155.294 149.057 161.175 141.712 168.555C126.524 183.559 118 203.85 118 225C118 246.15 126.524 266.441 141.712 281.445C149.125 288.9 157.983 294.826 167.765 298.87C177.546 302.916 188.053 305 198.667 305C209.282 305 219.789 302.916 229.571 298.87C239.352 294.826 248.209 288.9 255.623 281.445L255.621 281.448Z" fill="url(#paint0_linear_20_33)"/>
<path d="M320.498 232.235C320.498 226.308 321.683 221.147 324.054 216.754C326.425 212.291 329.703 208.839 333.887 206.399C338.14 203.958 342.987 202.738 348.426 202.738C355.469 202.738 361.257 204.446 365.79 207.863C370.392 211.28 373.425 216.022 374.89 222.089H364.639C363.663 218.602 361.745 215.848 358.886 213.825C356.097 211.803 352.61 210.792 348.426 210.792C342.987 210.792 338.594 212.675 335.246 216.44C331.899 220.136 330.226 225.401 330.226 232.235C330.226 239.139 331.899 244.473 335.246 248.239C338.594 252.004 342.987 253.887 348.426 253.887C352.61 253.887 356.097 252.911 358.886 250.958C361.675 249.006 363.593 246.217 364.639 242.59H374.89C373.356 248.448 370.287 253.155 365.685 256.711C361.083 260.198 355.33 261.941 348.426 261.941C342.987 261.941 338.14 260.721 333.887 258.28C329.703 255.84 326.425 252.388 324.054 247.925C321.683 243.462 320.498 238.232 320.498 232.235ZM412.59 261.941C407.22 261.941 402.339 260.721 397.946 258.28C393.622 255.84 390.206 252.388 387.695 247.925C385.254 243.392 384.034 238.162 384.034 232.235C384.034 226.377 385.289 221.217 387.8 216.754C390.38 212.222 393.867 208.77 398.26 206.399C402.653 203.958 407.569 202.738 413.008 202.738C418.448 202.738 423.364 203.958 427.757 206.399C432.15 208.77 435.602 212.187 438.112 216.65C440.692 221.113 441.983 226.308 441.983 232.235C441.983 238.162 440.658 243.392 438.008 247.925C435.428 252.388 431.906 255.84 427.443 258.28C422.98 260.721 418.029 261.941 412.59 261.941ZM412.59 253.573C416.007 253.573 419.215 252.771 422.213 251.168C425.212 249.564 427.617 247.158 429.431 243.95C431.313 240.742 432.255 236.837 432.255 232.235C432.255 227.633 431.348 223.728 429.535 220.52C427.722 217.312 425.351 214.941 422.422 213.407C419.494 211.803 416.321 211.001 412.904 211.001C409.417 211.001 406.209 211.803 403.281 213.407C400.421 214.941 398.12 217.312 396.377 220.52C394.634 223.728 393.762 227.633 393.762 232.235C393.762 236.907 394.599 240.847 396.272 244.055C398.016 247.263 400.317 249.668 403.176 251.272C406.035 252.806 409.173 253.573 412.59 253.573ZM464.016 214.348C465.969 210.931 468.828 208.142 472.594 205.98C476.359 203.819 480.648 202.738 485.459 202.738C490.62 202.738 495.257 203.958 499.371 206.399C503.485 208.839 506.728 212.291 509.099 216.754C511.47 221.147 512.655 226.273 512.655 232.13C512.655 237.918 511.47 243.079 509.099 247.611C506.728 252.144 503.451 255.665 499.267 258.176C495.152 260.686 490.55 261.941 485.459 261.941C480.508 261.941 476.15 260.861 472.384 258.699C468.688 256.537 465.899 253.783 464.016 250.435V261H454.498V183.596H464.016V214.348ZM502.928 232.13C502.928 227.807 502.056 224.041 500.313 220.834C498.569 217.626 496.198 215.185 493.2 213.512C490.271 211.838 487.028 211.001 483.472 211.001C479.985 211.001 476.743 211.873 473.744 213.616C470.815 215.29 468.444 217.765 466.631 221.043C464.888 224.251 464.016 227.981 464.016 232.235C464.016 236.558 464.888 240.359 466.631 243.636C468.444 246.844 470.815 249.32 473.744 251.063C476.743 252.737 479.985 253.573 483.472 253.573C487.028 253.573 490.271 252.737 493.2 251.063C496.198 249.32 498.569 246.844 500.313 243.636C502.056 240.359 502.928 236.524 502.928 232.13ZM521.628 232.13C521.628 226.273 522.814 221.147 525.184 216.754C527.555 212.291 530.798 208.839 534.912 206.399C539.096 203.958 543.734 202.738 548.824 202.738C553.845 202.738 558.203 203.819 561.899 205.98C565.595 208.142 568.349 210.862 570.162 214.139V203.679H579.786V261H570.162V250.331C568.28 253.678 565.455 256.467 561.69 258.699C557.994 260.861 553.671 261.941 548.719 261.941C543.629 261.941 539.027 260.686 534.912 258.176C530.798 255.665 527.555 252.144 525.184 247.611C522.814 243.079 521.628 237.918 521.628 232.13ZM570.162 232.235C570.162 227.912 569.291 224.146 567.547 220.938C565.804 217.73 563.433 215.29 560.435 213.616C557.506 211.873 554.263 211.001 550.707 211.001C547.15 211.001 543.908 211.838 540.979 213.512C538.05 215.185 535.714 217.626 533.971 220.834C532.228 224.041 531.356 227.807 531.356 232.13C531.356 236.524 532.228 240.359 533.971 243.636C535.714 246.844 538.05 249.32 540.979 251.063C543.908 252.737 547.15 253.573 550.707 253.573C554.263 253.573 557.506 252.737 560.435 251.063C563.433 249.32 565.804 246.844 567.547 243.636C569.291 240.359 570.162 236.558 570.162 232.235Z" fill="white"/>
<path d="M602.461 196.148C599.881 196.148 597.719 195.346 595.976 193.742C594.302 192.069 593.465 190.011 593.465 187.571C593.465 185.13 594.302 183.108 595.976 181.504C597.719 179.83 599.881 178.994 602.461 178.994C605.041 178.994 607.168 179.83 608.842 181.504C610.585 183.108 611.457 185.13 611.457 187.571C611.457 190.011 610.585 192.069 608.842 193.742C607.168 195.346 605.041 196.148 602.461 196.148ZM609.678 203.052V261H595.034V203.052H609.678ZM656.259 202.215C663.162 202.215 668.741 204.411 672.995 208.805C677.249 213.128 679.375 219.195 679.375 227.005V261H664.731V228.992C664.731 224.39 663.581 220.868 661.28 218.428C658.978 215.917 655.84 214.662 651.866 214.662C647.821 214.662 644.613 215.917 642.242 218.428C639.941 220.868 638.791 224.39 638.791 228.992V261H624.147V203.052H638.791V210.269C640.743 207.759 643.219 205.806 646.217 204.411C649.286 202.947 652.633 202.215 656.259 202.215ZM715.476 261.941C710.735 261.941 706.481 261.105 702.715 259.431C698.95 257.688 695.951 255.352 693.72 252.423C691.558 249.494 690.372 246.251 690.163 242.695H704.912C705.191 244.926 706.272 246.774 708.154 248.239C710.107 249.703 712.513 250.435 715.372 250.435C718.161 250.435 720.323 249.878 721.857 248.762C723.461 247.646 724.263 246.217 724.263 244.473C724.263 242.59 723.287 241.196 721.334 240.289C719.451 239.313 716.418 238.267 712.234 237.151C707.91 236.105 704.354 235.024 701.565 233.909C698.845 232.793 696.474 231.084 694.452 228.783C692.499 226.482 691.523 223.379 691.523 219.474C691.523 216.266 692.43 213.337 694.243 210.687C696.125 208.038 698.775 205.946 702.192 204.411C705.679 202.877 709.758 202.11 714.43 202.11C721.334 202.11 726.843 203.854 730.957 207.34C735.071 210.757 737.338 215.394 737.756 221.252H723.74C723.531 218.951 722.554 217.138 720.811 215.813C719.137 214.418 716.871 213.721 714.012 213.721C711.362 213.721 709.305 214.209 707.841 215.185C706.446 216.161 705.749 217.521 705.749 219.265C705.749 221.217 706.725 222.716 708.677 223.762C710.63 224.739 713.663 225.75 717.778 226.796C721.962 227.842 725.413 228.923 728.133 230.038C730.853 231.154 733.189 232.897 735.141 235.268C737.163 237.57 738.209 240.638 738.279 244.473C738.279 247.82 737.338 250.819 735.455 253.469C733.642 256.119 730.992 258.211 727.505 259.745C724.088 261.209 720.079 261.941 715.476 261.941Z" fill="#9E7ACD"/>
<defs>
<linearGradient id="paint0_linear_20_33" x1="166.7" y1="258.7" x2="358.327" y2="120.617" gradientUnits="userSpaceOnUse">
<stop stop-color="#997ACC"/>
<stop offset="1" stop-color="#00C2A5" stop-opacity="0"/>
</linearGradient>
</defs>
</svg>
