<svg width="572" height="315" viewBox="0 0 572 315" fill="none" xmlns="http://www.w3.org/2000/svg">
<path d="M58.2812 40.1406L52.0938 59H47.1094L55.5625 36.25H58.7344L58.2812 40.1406ZM63.4219 59L57.2188 40.1406L56.7188 36.25H59.9219L68.4219 59H63.4219ZM63.1406 50.5312V54.2031H51.125V50.5312H63.1406ZM79.3906 50.8906H73.5938V47.2344H79.3906C80.2865 47.2344 81.0156 47.0885 81.5781 46.7969C82.1406 46.4948 82.5521 46.0781 82.8125 45.5469C83.0729 45.0156 83.2031 44.4167 83.2031 43.75C83.2031 43.0729 83.0729 42.4427 82.8125 41.8594C82.5521 41.276 82.1406 40.8073 81.5781 40.4531C81.0156 40.099 80.2865 39.9219 79.3906 39.9219H75.2188V59H70.5312V36.25H79.3906C81.1719 36.25 82.6979 36.5729 83.9688 37.2188C85.25 37.8542 86.2292 38.7344 86.9062 39.8594C87.5833 40.9844 87.9219 42.2708 87.9219 43.7188C87.9219 45.1875 87.5833 46.4583 86.9062 47.5312C86.2292 48.6042 85.25 49.4323 83.9688 50.0156C82.6979 50.599 81.1719 50.8906 79.3906 50.8906ZM97.8125 40.1406L91.625 59H86.6406L95.0938 36.25H98.2656L97.8125 40.1406ZM102.953 59L96.75 40.1406L96.25 36.25H99.4531L107.953 59H102.953ZM102.672 50.5312V54.2031H90.6562V50.5312H102.672ZM123.016 36.25V59H118.344V36.25H123.016ZM137.109 36.25V59H132.438V36.25H137.109ZM144.109 36.25V39.9219H125.547V36.25H144.109ZM159.344 36.25H164.016V51.2812C164.016 53.0312 163.641 54.5052 162.891 55.7031C162.151 56.901 161.125 57.8021 159.812 58.4062C158.51 59.0104 157.01 59.3125 155.312 59.3125C153.615 59.3125 152.104 59.0104 150.781 58.4062C149.469 57.8021 148.438 56.901 147.688 55.7031C146.948 54.5052 146.578 53.0312 146.578 51.2812V36.25H151.266V51.2812C151.266 52.3021 151.427 53.1354 151.75 53.7812C152.073 54.4271 152.536 54.901 153.141 55.2031C153.755 55.5052 154.479 55.6562 155.312 55.6562C156.167 55.6562 156.891 55.5052 157.484 55.2031C158.089 54.901 158.547 54.4271 158.859 53.7812C159.182 53.1354 159.344 52.3021 159.344 51.2812V36.25ZM175.266 52.0469H171.281C171.292 51.1094 171.365 50.3021 171.5 49.625C171.646 48.9375 171.891 48.3177 172.234 47.7656C172.589 47.2135 173.057 46.6667 173.641 46.125C174.13 45.6875 174.557 45.2708 174.922 44.875C175.286 44.4792 175.573 44.0729 175.781 43.6562C175.99 43.2292 176.094 42.7552 176.094 42.2344C176.094 41.6302 176 41.1302 175.812 40.7344C175.635 40.3281 175.365 40.0208 175 39.8125C174.646 39.6042 174.198 39.5 173.656 39.5C173.208 39.5 172.792 39.599 172.406 39.7969C172.021 39.9844 171.703 40.276 171.453 40.6719C171.214 41.0677 171.089 41.5885 171.078 42.2344H166.547C166.578 40.8073 166.906 39.6302 167.531 38.7031C168.167 37.7656 169.016 37.0729 170.078 36.625C171.141 36.1667 172.333 35.9375 173.656 35.9375C175.115 35.9375 176.365 36.1771 177.406 36.6562C178.448 37.125 179.245 37.8177 179.797 38.7344C180.349 39.6406 180.625 40.7448 180.625 42.0469C180.625 42.9531 180.448 43.7604 180.094 44.4688C179.74 45.1667 179.276 45.8177 178.703 46.4219C178.13 47.026 177.5 47.651 176.812 48.2969C176.219 48.8281 175.812 49.3854 175.594 49.9688C175.385 50.5521 175.276 51.2448 175.266 52.0469ZM170.812 56.875C170.812 56.2083 171.042 55.6562 171.5 55.2188C171.958 54.7708 172.573 54.5469 173.344 54.5469C174.104 54.5469 174.714 54.7708 175.172 55.2188C175.641 55.6562 175.875 56.2083 175.875 56.875C175.875 57.5208 175.641 58.0677 175.172 58.5156C174.714 58.9635 174.104 59.1875 173.344 59.1875C172.573 59.1875 171.958 58.9635 171.5 58.5156C171.042 58.0677 170.812 57.5208 170.812 56.875Z" fill="#333333"/>
<path d="M75.0273 133.415H60.0527L59.9727 125.167H72.5449C74.7604 125.167 76.5755 124.887 77.9902 124.326C79.4049 123.739 80.4593 122.898 81.1533 121.804C81.874 120.683 82.2344 119.321 82.2344 117.72C82.2344 115.905 81.8874 114.437 81.1934 113.315C80.526 112.194 79.4717 111.38 78.0303 110.873C76.6156 110.366 74.7871 110.112 72.5449 110.112H64.2168V159H52.2051V100.703H72.5449C75.9349 100.703 78.9645 101.023 81.6338 101.664C84.3298 102.305 86.612 103.279 88.4805 104.587C90.349 105.895 91.777 107.55 92.7646 109.552C93.7523 111.527 94.2461 113.876 94.2461 116.599C94.2461 119.001 93.6989 121.216 92.6045 123.245C91.5368 125.274 89.8418 126.929 87.5195 128.21C85.224 129.491 82.221 130.199 78.5107 130.332L75.0273 133.415ZM74.5068 159H56.7695L61.4541 149.631H74.5068C76.6156 149.631 78.3372 149.297 79.6719 148.63C81.0065 147.936 81.9941 147.002 82.6348 145.827C83.2754 144.653 83.5957 143.305 83.5957 141.783C83.5957 140.075 83.3021 138.593 82.7148 137.339C82.1543 136.084 81.2467 135.123 79.9922 134.456C78.7376 133.762 77.0827 133.415 75.0273 133.415H63.4561L63.5361 125.167H77.9502L80.7129 128.41C84.263 128.357 87.1191 128.984 89.2812 130.292C91.4701 131.573 93.0583 133.242 94.0459 135.297C95.0602 137.352 95.5674 139.554 95.5674 141.903C95.5674 145.64 94.7533 148.79 93.125 151.353C91.4967 153.888 89.1077 155.797 85.958 157.078C82.835 158.359 79.0179 159 74.5068 159ZM152.463 128.49V131.253C152.463 135.684 151.862 139.661 150.661 143.185C149.46 146.708 147.765 149.711 145.576 152.193C143.387 154.649 140.771 156.531 137.729 157.839C134.712 159.147 131.362 159.801 127.679 159.801C124.022 159.801 120.672 159.147 117.629 157.839C114.613 156.531 111.997 154.649 109.781 152.193C107.566 149.711 105.844 146.708 104.616 143.185C103.415 139.661 102.814 135.684 102.814 131.253V128.49C102.814 124.033 103.415 120.055 104.616 116.559C105.817 113.035 107.512 110.032 109.701 107.55C111.917 105.067 114.533 103.172 117.549 101.864C120.592 100.556 123.942 99.9024 127.599 99.9024C131.282 99.9024 134.632 100.556 137.648 101.864C140.691 103.172 143.307 105.067 145.496 107.55C147.712 110.032 149.42 113.035 150.621 116.559C151.849 120.055 152.463 124.033 152.463 128.49ZM140.331 131.253V128.41C140.331 125.314 140.051 122.591 139.49 120.242C138.93 117.893 138.102 115.918 137.008 114.316C135.913 112.715 134.579 111.514 133.004 110.713C131.429 109.885 129.627 109.472 127.599 109.472C125.57 109.472 123.768 109.885 122.193 110.713C120.645 111.514 119.324 112.715 118.229 114.316C117.162 115.918 116.348 117.893 115.787 120.242C115.227 122.591 114.946 125.314 114.946 128.41V131.253C114.946 134.323 115.227 137.045 115.787 139.421C116.348 141.77 117.175 143.758 118.27 145.387C119.364 146.988 120.699 148.203 122.273 149.03C123.848 149.858 125.65 150.271 127.679 150.271C129.707 150.271 131.509 149.858 133.084 149.03C134.659 148.203 135.98 146.988 137.048 145.387C138.116 143.758 138.93 141.77 139.49 139.421C140.051 137.045 140.331 134.323 140.331 131.253ZM184.454 100.703V159H172.482V100.703H184.454ZM202.392 100.703V110.112H154.825V100.703H202.392ZM235.944 100.703V159H223.973V100.703H235.944ZM253.882 100.703V110.112H206.315V100.703H253.882ZM307.494 128.49V131.253C307.494 135.684 306.894 139.661 305.692 143.185C304.491 146.708 302.796 149.711 300.607 152.193C298.419 154.649 295.803 156.531 292.76 157.839C289.743 159.147 286.394 159.801 282.71 159.801C279.053 159.801 275.703 159.147 272.66 157.839C269.644 156.531 267.028 154.649 264.812 152.193C262.597 149.711 260.875 146.708 259.647 143.185C258.446 139.661 257.846 135.684 257.846 131.253V128.49C257.846 124.033 258.446 120.055 259.647 116.559C260.849 113.035 262.544 110.032 264.732 107.55C266.948 105.067 269.564 103.172 272.58 101.864C275.623 100.556 278.973 99.9024 282.63 99.9024C286.313 99.9024 289.663 100.556 292.68 101.864C295.723 103.172 298.339 105.067 300.527 107.55C302.743 110.032 304.451 113.035 305.652 116.559C306.88 120.055 307.494 124.033 307.494 128.49ZM295.362 131.253V128.41C295.362 125.314 295.082 122.591 294.521 120.242C293.961 117.893 293.133 115.918 292.039 114.316C290.945 112.715 289.61 111.514 288.035 110.713C286.46 109.885 284.659 109.472 282.63 109.472C280.601 109.472 278.799 109.885 277.225 110.713C275.676 111.514 274.355 112.715 273.261 114.316C272.193 115.918 271.379 117.893 270.818 120.242C270.258 122.591 269.978 125.314 269.978 128.41V131.253C269.978 134.323 270.258 137.045 270.818 139.421C271.379 141.77 272.206 143.758 273.301 145.387C274.395 146.988 275.73 148.203 277.305 149.03C278.88 149.858 280.681 150.271 282.71 150.271C284.739 150.271 286.54 149.858 288.115 149.03C289.69 148.203 291.011 146.988 292.079 145.387C293.147 143.758 293.961 141.77 294.521 139.421C295.082 137.045 295.362 134.323 295.362 131.253ZM321.628 100.703H331.798L346.772 143.505L361.747 100.703H371.917L350.856 159H342.688L321.628 100.703ZM316.143 100.703H326.272L328.114 142.424V159H316.143V100.703ZM367.272 100.703H377.442V159H365.431V142.424L367.272 100.703ZM387.973 100.703H409.714C414.172 100.703 418.002 101.37 421.205 102.705C424.435 104.04 426.917 106.015 428.652 108.631C430.387 111.247 431.255 114.463 431.255 118.28C431.255 121.403 430.721 124.086 429.653 126.328C428.612 128.544 427.131 130.399 425.209 131.894C423.314 133.362 421.085 134.536 418.522 135.417L414.719 137.419H395.82L395.74 128.05H409.794C411.903 128.05 413.651 127.676 415.039 126.929C416.427 126.181 417.468 125.14 418.162 123.806C418.883 122.471 419.243 120.923 419.243 119.161C419.243 117.293 418.896 115.678 418.202 114.316C417.508 112.955 416.454 111.914 415.039 111.193C413.624 110.473 411.849 110.112 409.714 110.112H399.984V159H387.973V100.703ZM420.564 159L407.271 133.015L419.964 132.935L433.417 158.439V159H420.564ZM446.59 100.703L458.762 127.289L470.934 100.703H484.026L464.848 137.779V159H452.676V137.779L433.457 100.703H446.59Z" fill="#9E7ACC"/>
<path d="M52.2051 208.703H73.9463C78.404 208.703 82.2344 209.37 85.4375 210.705C88.6673 212.04 91.1497 214.015 92.8848 216.631C94.6198 219.247 95.4873 222.463 95.4873 226.28C95.4873 229.403 94.9535 232.086 93.8857 234.328C92.8447 236.544 91.3633 238.399 89.4414 239.894C87.5462 241.362 85.3174 242.536 82.7549 243.417L78.9512 245.419H60.0527L59.9727 236.05H74.0264C76.1351 236.05 77.8835 235.676 79.2715 234.929C80.6595 234.181 81.7005 233.14 82.3945 231.806C83.1152 230.471 83.4756 228.923 83.4756 227.161C83.4756 225.293 83.1286 223.678 82.4346 222.316C81.7406 220.955 80.6862 219.914 79.2715 219.193C77.8568 218.473 76.0817 218.112 73.9463 218.112H64.2168V267H52.2051V208.703ZM84.7969 267L71.5039 241.015L84.1963 240.935L97.6494 266.439V267H84.7969ZM143.854 257.631V267H112.824V257.631H143.854ZM116.748 208.703V267H104.736V208.703H116.748ZM139.811 232.446V241.575H112.824V232.446H139.811ZM143.814 208.703V218.112H112.824V208.703H143.814ZM181.211 251.745C181.211 250.704 181.051 249.77 180.73 248.942C180.437 248.088 179.876 247.314 179.049 246.62C178.221 245.899 177.06 245.192 175.565 244.498C174.071 243.804 172.135 243.083 169.76 242.336C167.117 241.482 164.608 240.521 162.232 239.453C159.883 238.385 157.801 237.144 155.986 235.73C154.198 234.288 152.783 232.62 151.742 230.725C150.728 228.829 150.221 226.627 150.221 224.118C150.221 221.689 150.755 219.487 151.822 217.512C152.89 215.51 154.385 213.801 156.307 212.387C158.229 210.945 160.497 209.838 163.113 209.064C165.756 208.289 168.652 207.902 171.802 207.902C176.099 207.902 179.85 208.676 183.053 210.225C186.256 211.773 188.738 213.895 190.5 216.591C192.288 219.287 193.183 222.37 193.183 225.84H181.251C181.251 224.132 180.891 222.637 180.17 221.355C179.476 220.048 178.408 219.02 176.967 218.272C175.552 217.525 173.764 217.151 171.602 217.151C169.52 217.151 167.785 217.472 166.396 218.112C165.008 218.726 163.967 219.567 163.273 220.635C162.579 221.676 162.232 222.85 162.232 224.158C162.232 225.146 162.473 226.04 162.953 226.841C163.46 227.642 164.208 228.389 165.195 229.083C166.183 229.777 167.397 230.431 168.839 231.045C170.28 231.659 171.949 232.259 173.844 232.847C177.02 233.808 179.81 234.889 182.212 236.09C184.641 237.291 186.67 238.639 188.298 240.134C189.926 241.629 191.154 243.324 191.981 245.219C192.809 247.114 193.223 249.263 193.223 251.665C193.223 254.201 192.729 256.47 191.741 258.472C190.754 260.474 189.326 262.169 187.457 263.557C185.589 264.945 183.36 265.999 180.771 266.72C178.181 267.44 175.285 267.801 172.082 267.801C169.199 267.801 166.356 267.427 163.554 266.68C160.751 265.906 158.202 264.744 155.906 263.196C153.637 261.648 151.822 259.673 150.461 257.271C149.1 254.868 148.419 252.025 148.419 248.742H160.471C160.471 250.557 160.751 252.092 161.312 253.347C161.872 254.601 162.66 255.616 163.674 256.39C164.715 257.164 165.943 257.724 167.357 258.071C168.799 258.418 170.374 258.592 172.082 258.592C174.164 258.592 175.872 258.298 177.207 257.711C178.568 257.124 179.569 256.31 180.21 255.269C180.877 254.228 181.211 253.053 181.211 251.745ZM224.093 246.22H209.238V236.851H224.093C226.388 236.851 228.257 236.477 229.698 235.73C231.14 234.955 232.194 233.888 232.861 232.526C233.529 231.165 233.862 229.63 233.862 227.922C233.862 226.187 233.529 224.572 232.861 223.077C232.194 221.582 231.14 220.381 229.698 219.474C228.257 218.566 226.388 218.112 224.093 218.112H213.402V267H201.391V208.703H224.093C228.657 208.703 232.568 209.531 235.824 211.186C239.107 212.814 241.617 215.069 243.352 217.952C245.087 220.835 245.954 224.132 245.954 227.842C245.954 231.605 245.087 234.862 243.352 237.611C241.617 240.361 239.107 242.483 235.824 243.978C232.568 245.472 228.657 246.22 224.093 246.22ZM302.129 236.49V239.253C302.129 243.684 301.528 247.661 300.327 251.185C299.126 254.708 297.431 257.711 295.242 260.193C293.053 262.649 290.438 264.531 287.395 265.839C284.378 267.147 281.028 267.801 277.345 267.801C273.688 267.801 270.338 267.147 267.295 265.839C264.279 264.531 261.663 262.649 259.447 260.193C257.232 257.711 255.51 254.708 254.282 251.185C253.081 247.661 252.48 243.684 252.48 239.253V236.49C252.48 232.033 253.081 228.055 254.282 224.559C255.483 221.035 257.178 218.032 259.367 215.55C261.583 213.067 264.199 211.172 267.215 209.864C270.258 208.556 273.608 207.902 277.265 207.902C280.948 207.902 284.298 208.556 287.314 209.864C290.357 211.172 292.973 213.067 295.162 215.55C297.378 218.032 299.086 221.035 300.287 224.559C301.515 228.055 302.129 232.033 302.129 236.49ZM289.997 239.253V236.41C289.997 233.314 289.717 230.591 289.156 228.242C288.596 225.893 287.768 223.918 286.674 222.316C285.579 220.715 284.245 219.514 282.67 218.713C281.095 217.885 279.293 217.472 277.265 217.472C275.236 217.472 273.434 217.885 271.859 218.713C270.311 219.514 268.99 220.715 267.896 222.316C266.828 223.918 266.014 225.893 265.453 228.242C264.893 230.591 264.612 233.314 264.612 236.41V239.253C264.612 242.323 264.893 245.045 265.453 247.421C266.014 249.77 266.841 251.758 267.936 253.387C269.03 254.988 270.365 256.203 271.939 257.03C273.514 257.858 275.316 258.272 277.345 258.272C279.373 258.272 281.175 257.858 282.75 257.03C284.325 256.203 285.646 254.988 286.714 253.387C287.782 251.758 288.596 249.77 289.156 247.421C289.717 245.045 289.997 242.323 289.997 239.253ZM358.224 208.703V267H346.212L322.789 227.922V267H310.777V208.703H322.789L346.252 247.821V208.703H358.224ZM386.571 267H373.879L373.959 257.631H386.571C389.721 257.631 392.377 256.924 394.539 255.509C396.701 254.067 398.329 251.972 399.424 249.223C400.545 246.473 401.105 243.15 401.105 239.253V236.41C401.105 233.421 400.785 230.791 400.145 228.522C399.531 226.254 398.61 224.345 397.382 222.797C396.154 221.249 394.646 220.088 392.857 219.314C391.069 218.513 389.014 218.112 386.691 218.112H373.639V208.703H386.691C390.589 208.703 394.152 209.37 397.382 210.705C400.638 212.013 403.454 213.895 405.83 216.351C408.206 218.806 410.034 221.743 411.315 225.159C412.623 228.549 413.277 232.326 413.277 236.49V239.253C413.277 243.39 412.623 247.167 411.315 250.584C410.034 254.001 408.206 256.937 405.83 259.393C403.481 261.822 400.665 263.703 397.382 265.038C394.125 266.346 390.522 267 386.571 267ZM380.686 208.703V267H368.674V208.703H380.686ZM434.778 208.703V267H422.807V208.703H434.778ZM470.453 218.673L454.598 267H441.825L463.486 208.703H471.614L470.453 218.673ZM483.626 267L467.73 218.673L466.449 208.703H474.657L496.438 267H483.626ZM482.905 245.299V254.708H452.115V245.299H482.905Z" fill="#333333"/>
<path d="M3 222V312H93" stroke="#333333" stroke-width="5"/>
<path d="M569 93L569 3.00001L479 3" stroke="#333333" stroke-width="5"/>
<path d="M545.709 53.7009C549.104 50.3285 551.007 45.7607 551 41.0007C550.996 40.7069 550.876 40.4264 550.665 40.2199C550.454 40.0133 550.169 39.8976 549.872 39.8976C549.575 39.8976 549.29 40.0133 549.079 40.2199C548.867 40.4264 548.747 40.7069 548.743 41.0007C548.748 45.1721 547.08 49.1751 544.104 52.1299C542.66 53.5974 540.933 54.7637 539.026 55.5602C537.119 56.3565 535.07 56.7668 533 56.7668C530.93 56.7668 528.881 56.3565 526.974 55.5602C525.066 54.7637 523.34 53.5974 521.895 52.1299C518.924 49.1721 517.256 45.1708 517.256 41.0001C517.256 36.8292 518.924 32.828 521.895 29.8701C523.331 28.4139 525.045 27.2543 526.937 26.4585C528.829 25.6627 530.862 25.2465 532.918 25.2341C533.357 25.2477 533.774 25.4306 534.078 25.7436C534.383 26.0565 534.552 26.475 534.55 26.9096C534.547 27.3443 534.373 27.7607 534.065 28.0702C533.756 28.3797 533.338 28.5577 532.899 28.5662C532.858 28.5663 532.817 28.5685 532.777 28.5729C529.649 28.6726 526.681 29.9651 524.494 32.1802C522.184 34.4814 520.888 37.5934 520.888 40.8371C520.888 44.0809 522.184 47.1928 524.494 49.4941C525.622 50.6381 526.971 51.5472 528.459 52.1679C529.948 52.7885 531.547 53.1082 533.163 53.1082C534.778 53.1082 536.377 52.7885 537.866 52.1679C539.355 51.5472 540.703 50.6381 541.832 49.4941C544.145 47.1953 545.442 44.0817 545.438 40.8371C545.442 40.3261 545.345 39.8191 545.15 39.3455C544.956 38.8721 544.669 38.4414 544.305 38.0783C543.942 37.7153 543.509 37.4271 543.033 37.2304C542.556 37.0337 542.045 36.9325 541.528 36.9325C541.012 36.9325 540.5 37.0337 540.024 37.2304C539.547 37.4271 539.114 37.7153 538.751 38.0783C538.387 38.4414 538.1 38.8721 537.906 39.3455C537.711 39.8191 537.614 40.3261 537.619 40.8371C537.619 40.8697 537.621 40.9004 537.623 40.9316C537.621 40.9629 537.619 40.9942 537.619 41.0262C537.626 41.9171 537.366 42.7902 536.871 43.5347C536.376 44.279 535.669 44.8611 534.839 45.2072C534.009 45.5531 533.095 45.6474 532.211 45.4781C531.327 45.3087 530.513 44.8834 529.874 44.2559C529.235 43.6284 528.798 42.8272 528.62 41.9538C528.442 41.0804 528.53 40.1743 528.872 39.3504C529.215 38.5264 529.798 37.8219 530.546 37.3261C531.294 36.8303 532.174 36.5656 533.074 36.5655C533.224 36.5673 533.372 36.5397 533.51 36.4844C533.649 36.4291 533.775 36.3472 533.881 36.2433C533.987 36.1394 534.072 36.0157 534.129 35.8794C534.187 35.743 534.216 35.5967 534.216 35.4489C534.216 35.3012 534.187 35.1549 534.129 35.0185C534.072 34.8821 533.987 34.7584 533.881 34.6546C533.775 34.5507 533.649 34.4688 533.51 34.4134C533.372 34.3581 533.224 34.3306 533.074 34.3324C531.738 34.3397 530.434 34.7385 529.327 35.4785C528.219 36.2185 527.358 37.2665 526.852 38.4903C526.346 39.7141 526.217 41.0589 526.482 42.355C526.748 43.651 527.395 44.8402 528.342 45.7728C529.29 46.7051 530.495 47.339 531.806 47.5943C533.117 47.8495 534.475 47.7147 535.709 47.207C536.943 46.6993 537.997 45.8413 538.739 44.7413C539.48 43.6413 539.876 42.3485 539.876 41.0262C539.876 40.9936 539.874 40.9629 539.871 40.9316C539.874 40.9004 539.876 40.8691 539.876 40.8371C539.871 40.6196 539.911 40.4034 539.992 40.201C540.073 39.9988 540.194 39.8145 540.348 39.6592C540.502 39.5038 540.686 39.3802 540.888 39.296C541.091 39.2118 541.309 39.1683 541.529 39.1683C541.749 39.1683 541.966 39.2118 542.169 39.296C542.372 39.3802 542.556 39.5038 542.709 39.6592C542.863 39.8145 542.984 39.9988 543.065 40.201C543.147 40.4034 543.186 40.6196 543.182 40.8371C543.185 43.4935 542.122 46.0423 540.228 47.9238C539.309 48.8578 538.211 49.6 536.997 50.1069C535.784 50.6139 534.48 50.8749 533.163 50.8749C531.846 50.8749 530.543 50.6139 529.329 50.1069C528.116 49.6 527.018 48.8578 526.099 47.9238C524.207 46.0406 523.145 43.4928 523.145 40.8371C523.145 38.1815 524.207 35.6337 526.099 33.7505C527.018 32.8177 528.117 32.0761 529.33 31.5693C530.543 31.0626 531.846 30.8008 533.163 30.7994C533.264 30.7991 533.365 30.7853 533.462 30.7583C534.423 30.6125 535.295 30.1209 535.912 29.3778C536.528 28.6346 536.846 27.6923 536.804 26.7316C536.762 25.7708 536.363 24.8593 535.683 24.1719C535.004 23.4844 534.092 23.0695 533.122 23.0067C533.082 23.0023 533.041 23.0001 533 23C532.977 23 532.955 23 532.932 23C532.921 23 532.91 23 532.899 23C532.888 23 532.877 23.0013 532.866 23.0016C530.52 23.0199 528.202 23.4975 526.043 24.4068C523.885 25.3162 521.93 26.6393 520.291 28.3C516.902 31.6758 515 36.2413 515 41.0001C515 45.7587 516.902 50.3241 520.291 53.7C521.945 55.3776 523.922 56.7108 526.104 57.6208C528.287 58.531 530.632 59 533 59C535.369 59 537.713 58.531 539.896 57.6208C542.079 56.7108 544.055 55.3776 545.709 53.7L545.709 53.7009Z" fill="url(#paint0_linear_5_4)"/>
<defs>
<linearGradient id="paint0_linear_5_4" x1="525.867" y1="48.5824" x2="568.869" y2="17.8523" gradientUnits="userSpaceOnUse">
<stop stop-color="#997ACC"/>
<stop offset="1" stop-color="#00C2A5" stop-opacity="0"/>
</linearGradient>
</defs>
</svg>
